<?xml version="1.0" encoding="utf-8"?>
<COLLADA version="1.5.0" xmlns="http://www.collada.org/2008/03/COLLADASchema">
	<asset>
		<contributor>
			<authoring_tool>BrawlCrate</authoring_tool>
		</contributor>
		<created>2026-08-04T13:34:15Z</created>
		<modified>2026-08-04T13:34:15Z</modified>
		<unit meter="0.01" name="centimeter" />
		<up_axis>Y_UP</up_axis>
	</asset>
	<library_images>
		<image id="lm_0-image" name="lm_0">
			<init_from>
				<ref>lm_0.png</ref>
			</init_from>
		</image>
		<image id="lm_1-image" name="lm_1">
			<init_from>
				<ref>lm_1.png</ref>
			</init_from>
		</image>
		<image id="obj_hanachan_all.0-image" name="obj_hanachan_all.0">
			<init_from>
				<ref>obj_hanachan_all.0.png</ref>
			</init_from>
		</image>
	</library_images>
	<library_materials>
		<material id="obj_hanachan_all_tx">
			<instance_effect url="#obj_hanachan_all_tx-fx" />
		</material>
	</library_materials>
	<library_effects>
		<effect id="obj_hanachan_all_tx-fx" name="obj_hanachan_all_tx">
			<profile_COMMON>
				<newparam sid="obj_hanachan_all.0-surface">
					<surface type="2D">
						<init_from>
							<ref>obj_hanachan_all.0-image</ref>
						</init_from>
					</surface>
				</newparam>
				<newparam sid="obj_hanachan_all.0-sampler">
					<sampler2D>
						<source>obj_hanachan_all.0-surface</source>
						<instance_image url="#obj_hanachan_all.0-image" />
						<wrap_s>WRAP</wrap_s>
						<wrap_t>WRAP</wrap_t>
						<minfilter>LINEAR</minfilter>
						<magfilter>LINEAR</magfilter>
					</sampler2D>
				</newparam>
				<newparam sid="lm_0-surface">
					<surface type="2D">
						<init_from>
							<ref>lm_0-image</ref>
						</init_from>
					</surface>
				</newparam>
				<newparam sid="lm_0-sampler">
					<sampler2D>
						<source>lm_0-surface</source>
						<instance_image url="#lm_0-image" />
						<wrap_s>CLAMP</wrap_s>
						<wrap_t>CLAMP</wrap_t>
						<minfilter>LINEAR</minfilter>
						<magfilter>LINEAR</magfilter>
					</sampler2D>
				</newparam>
				<newparam sid="lm_1-surface">
					<surface type="2D">
						<init_from>
							<ref>lm_1-image</ref>
						</init_from>
					</surface>
				</newparam>
				<newparam sid="lm_1-sampler">
					<sampler2D>
						<source>lm_1-surface</source>
						<instance_image url="#lm_1-image" />
						<wrap_s>CLAMP</wrap_s>
						<wrap_t>CLAMP</wrap_t>
						<minfilter>LINEAR</minfilter>
						<magfilter>LINEAR</magfilter>
					</sampler2D>
				</newparam>
				<technique sid="COMMON">
					<phong>
						<diffuse>
							<texture texture="obj_hanachan_all.0-sampler" texcoord="TEXCOORD0" />
						</diffuse>
					</phong>
				</technique>
			</profile_COMMON>
		</effect>
	</library_effects>
	<library_geometries>
		<geometry id="polygon0" name="polygon0">
			<mesh>
				<source id="polygon0_Positions">
					<float_array id="polygon0_PosArr" count="588">-88.33542 182.108 -23.95906 -77.7393 148.3238 -18.38211 -63.62128 182.108 -53.98619 -55.98969 148.3238 -44.80743 -29.58759 182.108 -72.8044 -26.03845 148.3237 -61.36829 8.026336 148.3238 -64.67444 6.283217 122.062 -45.73502 40.91539 148.3238 -55.20603 32.02955 122.062 -38.32291 67.34065 148.3238 -33.45642 52.71589 122.062 -21.29681 83.90155 148.3238 -3.505174 65.68015 122.062 2.149733 68.26832 122.062 28.81649 41.67624 104.9565 9.599227 38.61529 104.9565 42.85709 3.089074E-06 97.60406 22.53327 12.93403 104.9565 64.20951 -20.32381 104.9565 61.14855 -6.283197 122.062 90.80157 -32.02953 122.062 83.38947 -40.91536 148.3238 100.2726 -67.34064 148.3238 78.52296 25.83822 49.8872 11.90746 33.79784 26.63672 -19.15508 58.10422 49.78819 -11.82411 82.41058 26.63673 -19.15509 90.37025 49.88721 11.90746 102.0261 26.14977 34.38526 75.5677 49.90653 51.9598 76.90224 55.63752 73.45146 40.6355 49.90652 51.9598 39.30359 55.63751 73.45146 14.18238 26.14976 34.38526 30.6801 44.75813 86.00748 26.84086 25.86348 89.98789 58.10363 25.85465 102.7051 58.10423 -2.47736E-05 97.88037 88.77776 -1.719023E-05 84.43476 -90.37025 49.88722 11.90747 -82.41058 26.63673 -19.15508 -58.10422 49.7882 -11.82411 -33.79784 26.63673 -19.15508 -25.83822 49.88721 11.90747 -14.18238 26.14977 34.38527 -40.6355 49.90652 51.9598 -39.30359 55.63752 73.45146 -76.90224 55.63753 73.45146 -58.10423 47.14292 94.15678 -86.63009 44.75814 85.5894 -58.10362 25.85466 102.7051 -91.57368 25.8635 89.15175 -88.77776 -5.697957E-06 84.43478 -102.0261 26.14978 34.38527 -98.44553 8.472505E-06 34.87991 -46.3018 216.244 110.5067 -40.91539 249.7632 100.2725 -9.082988 216.244 121.2216 -8.02634 249.7632 109.741 26.03845 249.7631 106.4348 20.38352 276.025 88.21338 43.83009 276.0251 75.24913 12.93402 293.1305 64.20947 38.61528 293.1305 42.85706 -1.442303E-06 300.483 22.53325 41.67624 293.1305 9.599208 20.3238 293.1305 -16.08208 52.71587 276.0251 -21.29684 32.02953 276.0251 -38.32298 38.18053 8.770307E-06 -16.51406 78.02795 1.591484E-05 -16.51406 98.44552 -8.431102E-07 34.8799 91.57369 25.86349 89.15174 86.63009 44.75813 85.58939 58.10423 47.14291 94.15677 36.74074 150.15 6.999589 46.77799 150.15 37.84437 39.79336 98.23782 8.504238 49.63218 78.15958 40.06676 49.79686 44.1766 38.54217 67.79534 77.66949 38.90787 67.75568 44.17582 37.4493 73.37589 98.23782 5.768012 73.56182 44.17737 4.177414 40.16239 44.17737 6.913641 20.32382 104.9565 -16.082 -12.93401 104.9565 -19.14297 -38.61528 104.9565 2.209492 -43.83007 122.062 -30.18261 -60.85618 122.062 -9.496268 40.91537 249.7632 -55.20611 67.34064 249.7632 -33.45646 83.90154 249.7632 -3.505174 76.20586 216.244 -40.82733 94.94697 216.244 -6.933061 76.51939 182.108 -41.08801 95.3376 182.108 -7.054292 8.026332 249.7632 -64.67451 6.283195 276.0251 -45.73509 -20.38353 276.025 -43.1469 -12.93404 293.1305 -19.14301 -43.83009 276.0251 -30.18267 -38.61529 293.1305 2.209415 -60.8562 276.0251 -9.496346 -68.26831 276.0251 16.25001 -87.20772 148.3238 14.5069 -99.09442 182.108 13.41288 -95.3376 182.108 52.12083 -94.94695 216.244 51.99959 -76.5194 182.108 86.15452 -76.20587 216.244 85.89383 -46.49229 182.108 110.8687 46.49226 182.108 -65.80222 46.30178 216.244 -65.44028 9.120328 182.108 -76.5612 9.082972 216.244 -76.15517 -29.46635 216.244 -72.41371 -26.03845 249.7632 -61.36829 -63.3606 216.244 -53.67264 -55.98969 249.7632 -44.80743 -87.97349 216.244 -23.76856 -77.73931 249.7632 -18.38215 -9.120356 182.108 121.6277 29.46634 216.2439 117.4802 63.3606 216.244 98.73912 55.98972 249.7632 89.87392 87.97349 216.244 68.83503 77.73933 249.7632 63.44865 -98.68839 216.244 13.45028 -83.90154 249.7632 48.57172 -67.34065 249.7632 78.52293 -20.38352 122.0619 -43.14688 65.68013 276.0251 2.149733 68.26831 276.0251 28.81648 60.8562 276.0251 54.5628 88.33542 182.108 69.02549 77.73933 148.3238 63.44867 63.62127 182.108 99.05263 55.98972 148.3238 89.87392 29.58756 182.108 117.8708 26.03846 148.3238 106.4348 -8.02632 148.3238 109.741 65.13956 150.15 35.96773 69.85277 150.15 3.787479 87.20774 148.3238 30.55961 99.09442 182.108 31.65359 98.68842 216.244 31.61625 87.20774 249.7632 30.55961 21.88815 66.30698 11.59588 57.93518 66.31073 -15.16079 94.32029 66.30699 11.59588 77.0837 66.30698 55.35912 -83.90154 148.3238 48.57167 -17.76294 -1.386325E-07 34.87991 -26.84085 25.86349 89.9879 -30.68009 44.75813 86.00748 -46.77799 150.15 37.84437 -67.79534 77.66952 38.90787 -65.13956 150.15 35.96773 -73.37589 98.23783 5.768014 -69.85277 150.15 3.787479 -39.79336 98.23784 8.504239 -36.74074 150.15 6.999588 -49.63218 78.15959 40.06676 -49.79687 44.1766 38.54218 -67.75568 44.17583 37.44931 -41.67624 104.9565 35.46728 -52.71587 122.062 66.36336 -65.68014 122.062 42.91676 -68.2683 122.062 16.25006 -32.02955 276.025 83.3894 -52.71588 276.0251 66.3633 -20.32382 293.1305 61.14852 -41.67625 293.1305 35.46724 -6.28321 276.0251 90.80153 -38.18053 1.411788E-05 -16.51405 -78.02795 2.223213E-05 -16.51405 29.63681 -2.412034E-05 85.27092 17.76294 -7.490762E-06 34.8799 -29.63681 -1.402663E-05 85.27092 -58.10423 -1.337338E-05 97.88038 -73.56182 44.17738 4.177421 -40.16239 44.17738 6.913647 -87.20772 249.7632 14.5069 -75.5677 49.90654 51.9598 -77.0837 66.30698 55.35913 -94.32029 66.307 11.59588 -57.93519 66.31073 -15.16079 39.15572 66.30696 55.35913 43.83009 122.062 75.24916 20.38353 122.062 88.21339 60.85621 122.062 54.56283 -65.68013 276.0251 42.91676 -21.88815 66.30698 11.59588 -39.15572 66.30698 55.35913</float_array>
					<technique_common>
						<accessor source="#polygon0_PosArr" count="196" stride="3">
							<param name="X" type="float" />
							<param name="Y" type="float" />
							<param name="Z" type="float" />
						</accessor>
					</technique_common>
				</source>
				<source id="polygon0_Normals">
					<float_array id="polygon0_NormArr" count="585">-0.8729858 -0.1637573 -0.4594727 -0.782959 -0.4660034 -0.4120483 -0.6307373 -0.163269 -0.758606 -0.56604 -0.4649048 -0.6807861 -0.2924194 -0.1637573 -0.9421387 -0.2622681 -0.4660034 -0.8450317 0.08111571 -0.4649048 -0.8816528 0.06207274 -0.7355957 -0.6746216 0.4120483 -0.4660034 -0.782959 0.3295288 -0.7067261 -0.6260376 0.6807861 -0.4649048 -0.56604 0.5209351 -0.7355957 -0.4331055 0.8450317 -0.4660034 -0.2622681 0.6756592 -0.7067261 -0.2097168 0.6746216 -0.7355957 0.06207275 0.4050293 -0.9055786 -0.1257324 0.3753052 -0.9055786 0.1975098 -1.216796E-08 -1 0 0.1257324 -0.9055786 0.4050293 -0.1975098 -0.9055786 0.3753052 -0.06207275 -0.7355957 0.6746216 -0.3295288 -0.7067261 0.6260376 -0.4120483 -0.4660034 0.782959 -0.6807861 -0.4649048 0.56604 -0.9196167 0.2713623 -0.2841186 -0.6600342 0.138916 -0.7382813 -0.0003052063 0.3276978 -0.9447632 0.6600342 0.138916 -0.7382813 0.9190674 0.272583 -0.284668 0.9330444 0.3564453 -0.04827883 0.6960449 0.6289673 0.3463135 0.3449097 0.9342651 0.09057618 -0.6959229 0.6290894 0.3463135 -0.35083 0.9312744 0.09814457 -0.9376831 0.3460693 -0.03186031 -0.6044312 0.5325317 0.5925294 -0.7640991 0.05065917 0.6431274 -0.0004272081 0.1585083 0.9873657 -0.001037576 -0.6050415 0.7962036 0.4666748 -0.800293 0.3765258 -0.9190674 0.272583 -0.284668 -0.6600342 0.138916 -0.7382813 0.0003051683 0.3276977 -0.9447632 0.6600342 0.138916 -0.7382813 0.9196167 0.2713623 -0.2841187 0.9376831 0.3460693 -0.03186037 0.6959229 0.6290894 0.3463134 0.3508301 0.9312744 0.0981445 -0.3449097 0.9342651 0.09057616 -6.101795E-05 0.7092285 0.7050171 -0.6009521 0.5507813 0.5792236 0.00042726 0.1585083 0.9873657 -0.7733765 0.06457522 0.6306763 -0.4666748 -0.800293 0.3765259 -0.9330444 0.3564453 -0.0482788 -0.7467651 -0.6508179 -0.137207 -0.4588623 0.1714478 0.8718262 -0.4129638 0.4623413 0.784668 -0.09027098 0.1708984 0.9811401 -0.08129881 0.4611816 0.8835449 0.2628174 0.4623413 0.8468628 0.2097168 0.7067261 0.6756592 0.4331055 0.7355957 0.5209351 0.1257324 0.9055786 0.4050903 0.3753052 0.9055786 0.1975098 1.216796E-08 1 0 0.4050293 0.9055786 -0.1257324 0.1975098 0.9055786 -0.3753052 0.5209351 0.7355957 -0.4331055 0.3295288 0.7067261 -0.6260376 -0.4389038 -0.6175537 -0.6526489 0.4389038 -0.6175537 -0.652649 0.7467651 -0.6508179 -0.1372071 0.7733765 0.06457517 0.6306763 0.6009521 0.5507813 0.5792236 6.106952E-05 0.7092285 0.7050171 -0.8323975 -0.06884763 -0.5499268 -0.7550659 -0.01550294 0.6555176 -0.9790039 -0.02917479 -0.2018432 -0.5690307 -0.01672365 0.8221436 -0.7613525 -0.03149414 0.647583 0.6690063 0.009582493 0.7431641 0.8366699 -0.02215579 0.5472412 0.9433594 0.02410888 -0.3308106 0.7386475 0.02227784 -0.6737671 -0.8272095 0.01098635 -0.5618286 0.1975098 -0.9055786 -0.3753052 -0.1257324 -0.9055786 -0.4050293 -0.3753052 -0.9055786 -0.1975098 -0.4331055 -0.7355957 -0.5209351 -0.6260376 -0.7067261 -0.3295288 0.4129639 0.4623413 -0.784668 0.682251 0.4611816 -0.5672607 0.8468628 0.4623413 -0.2628174 0.7576294 0.1708984 -0.6299438 0.940918 0.1714477 -0.2919922 0.758606 -0.1632691 -0.6307373 0.9421387 -0.1637573 -0.2924194 0.08129882 0.4611816 -0.8835449 0.06207275 0.7355957 -0.6746216 -0.2097168 0.7067261 -0.6756592 -0.1257324 0.9055786 -0.4050293 -0.4331055 0.7355957 -0.5209351 -0.3753052 0.9055786 -0.1975098 -0.6260376 0.7067261 -0.3295288 -0.6746216 0.7355957 -0.06207275 -0.8816528 -0.4649048 -0.08111572 -0.9824219 -0.163269 -0.09039305 -0.9421387 -0.1637573 0.2924194 -0.940918 0.1714478 0.2919922 -0.758606 -0.163269 0.6307373 -0.7576294 0.1708985 0.6299438 -0.4594727 -0.1637573 0.8729858 0.4594727 -0.1637573 -0.8729858 0.4588623 0.1714478 -0.8718262 0.09039305 -0.163269 -0.9824219 0.09027099 0.1708984 -0.9811401 -0.2919922 0.1714478 -0.940918 -0.2628174 0.4623413 -0.8468628 -0.6299438 0.1708985 -0.7576294 -0.5672607 0.4611816 -0.682251 -0.8718262 0.1714478 -0.4588623 -0.784668 0.4623413 -0.4129639 -0.09039306 -0.163269 0.9824219 0.2919922 0.1714478 0.940918 0.6299438 0.1708984 0.7576294 0.5672607 0.4611816 0.682251 0.8718262 0.1714477 0.4588623 0.784668 0.4623413 0.4129639 -0.9811401 0.1708985 -0.09027098 -0.8468628 0.4623413 0.2628174 -0.682251 0.4611816 0.5672607 -0.2097168 -0.7067261 -0.6756592 0.6756592 0.7067261 -0.2097168 0.6746216 0.7355957 0.06207275 0.6260376 0.7067261 0.3295288 0.8729858 -0.1637573 0.4594727 0.782959 -0.4660034 0.4120483 0.6307373 -0.1632691 0.758606 0.56604 -0.4649048 0.6807861 0.2924194 -0.1637573 0.9421387 0.2622681 -0.4660034 0.8450317 -0.08111572 -0.4649048 0.8816528 0.836792 0.0632324 0.5438232 0.725708 0.02703858 -0.6875 0.8816528 -0.4649048 0.08111572 0.9824219 -0.1632691 0.09039305 0.9811401 0.1708984 0.09027098 0.8835449 0.4611816 0.08129882 -0.6601563 0.725647 -0.1940307 -0.0007324506 0.3950806 -0.9186401 0.6586304 0.7268066 -0.1948242 0.5312501 0.3537597 0.7698364 -0.8450317 -0.4660034 0.2622681 0.746521 -0.6529541 -0.1280518 0.7640991 0.05065919 0.6431274 0.6044312 0.5325317 0.5925293 0.7550659 -0.01550292 0.6555176 -0.6690063 0.009582546 0.7431641 -0.836792 0.06323244 0.5438232 -0.9433594 0.02410889 -0.3308105 -0.725708 0.02703857 -0.6875 0.9790039 -0.02917482 -0.2018433 0.8323975 -0.06884768 -0.5499268 0.5690308 -0.01672362 0.8221436 0.7613525 -0.03149413 0.647583 -0.8366699 -0.02215574 0.5472412 -0.4050293 -0.9055786 0.1257324 -0.5209351 -0.7355957 0.4331055 -0.6756592 -0.7067261 0.2097168 -0.6746216 -0.7355957 -0.06207275 -0.3295288 0.7067261 0.6260376 -0.5209351 0.7355957 0.4331055 -0.1975098 0.9055786 0.3753052 -0.4050293 0.9055786 0.1257324 -0.06207274 0.7355957 0.6746216 0.4389038 -0.6175537 -0.6526489 -0.4628296 -0.7975464 0.3869019 -0.746521 -0.6529541 -0.1280517 0.4628296 -0.7975464 0.3869019 0.0010376 -0.6050415 0.7962036 -0.7386475 0.02227782 -0.6737671 0.8272095 0.0109863 -0.5618286 -0.8835449 0.4611816 -0.08129882 -0.6960449 0.6289673 0.3463135 -0.53125 0.3537598 0.7698364 -0.6586304 0.7268066 -0.1948242 0.0007324155 0.3950805 -0.9186401 -0.5310668 0.354187 0.7697754 0.4331055 -0.7355957 0.5209351 0.2097168 -0.7067261 0.6756592 0.6260376 -0.7067261 0.3295288 -0.6756592 0.7067261 0.2097168 0.6601563 0.725647 -0.1940308 0.5310669 0.354187 0.7697754</float_array>
					<technique_common>
						<accessor source="#polygon0_NormArr" count="195" stride="3">
							<param name="X" type="float" />
							<param name="Y" type="float" />
							<param name="Z" type="float" />
						</accessor>
					</technique_common>
				</source>
				<source id="polygon0_Colors0">
					<float_array id="polygon0_ColorArr0" count="112">0.9529412 0.9529412 0.9529412 0.9529412 0.7960785 0.7960785 0.7960785 0.7960785 0.8431373 0.8431373 0.8431373 0.8431373 0.7294118 0.7294118 0.7294118 0.7294118 0.6666667 0.6666667 0.6666667 0.6666667 0.682353 0.682353 0.682353 0.682353 0.7137255 0.7137255 0.7137255 0.7137255 0.6980392 0.6980392 0.6980392 0.6980392 0.764706 0.764706 0.764706 0.764706 0.572549 0.572549 0.572549 0.572549 0.6196079 0.6196079 0.6196079 0.6196079 0.7803922 0.7803922 0.7803922 0.7803922 0.6039216 0.6039216 0.6039216 0.6039216 0.8588236 0.8588236 0.8588236 0.8588236 1 1 1 1 0.8901961 0.8901961 0.8901961 0.8901961 0.8117648 0.8117648 0.8117648 0.8117648 0.8274511 0.8274511 0.8274511 0.8274511 0.9215687 0.9215687 0.9215687 0.9215687 0.3960785 0.3960785 0.3960785 0.3960785 0.9686275 0.9686275 0.9686275 0.9686275 0.937255 0.937255 0.937255 0.937255 0.9843138 0.9843138 0.9843138 0.9843138 0.7450981 0.7450981 0.7450981 0.7450981 0.9058824 0.9058824 0.9058824 0.9058824 0.5568628 0.5568628 0.5568628 0.5568628 0.6509804 0.6509804 0.6509804 0.6509804 0.6352941 0.6352941 0.6352941 0.6352941</float_array>
					<technique_common>
						<accessor source="#polygon0_ColorArr0" count="28" stride="4">
							<param name="R" type="float" />
							<param name="G" type="float" />
							<param name="B" type="float" />
							<param name="A" type="float" />
						</accessor>
					</technique_common>
				</source>
				<source id="polygon0_UVs0">
					<float_array id="polygon0_UVArr0" count="406">0.4417725 0.9469604 0.4431763 0.944458 0.4468994 0.9489136 0.4475708 0.9459839 0.4520264 0.9509277 0.4520264 0.9475098 0.4564819 0.9455566 0.4555054 0.9434814 0.4608765 0.9436035 0.4589844 0.9419556 0.4627075 0.9393311 0.4604492 0.9385986 0.4645386 0.9351196 0.4619141 0.9352417 0.4604492 0.9320068 0.4592285 0.9353638 0.4570923 0.930603 0.4519653 0.9356689 0.4519653 0.928894 0.4468384 0.9310913 0.4484863 0.9279175 0.4449463 0.9294434 0.4431152 0.9277344 0.4412842 0.9320068 0.9667969 0.1796265 0.9890747 0.08496094 0.9891357 0.1796265 0.9482422 0.08551025 0.9436035 0.1796265 0.9083252 0.1697998 0.8825684 0.1331787 0.8728638 0.08496094 0.8619995 0.08428955 0.8676758 0.02050781 0.8771973 0.02008057 0.8674316 0.1567993 0.949646 0.02008057 0.4425049 0.9608765 0.4431763 0.9620361 0.4472656 0.9586792 0.4476318 0.960083 0.4520874 0.9581909 0.4520874 0.9606934 0.4555664 0.9619141 0.4520874 0.9631348 0.4572144 0.9649658 0.4520874 0.9699707 0.4592896 0.9696655 0.4572144 0.9745483 0.4605103 0.9731445 0.4590454 0.9762573 0.9890137 0.02008057 0.5283813 0.01470947 0.5220337 0.01470947 0.5283813 0.09112549 0.5220337 0.1047974 0.5220337 0.161377 0.515625 0.1048584 0.515625 0.1611328 0.5028687 0.09112549 0.5028687 0.1907349 0.4901123 0.09112549 0.4901123 0.1907349 0.4571533 0.9402466 0.4520264 0.9425049 0.4468994 0.9407349 0.4485474 0.9437866 0.4450073 0.9425659 0.3789673 0.9035645 0.416626 0.7736816 0.3088379 0.9035645 0.3276367 0.7736816 0.2386475 0.7736816 0.3405151 0.623291 0.2386475 0.623291 0.3413696 0.4475098 0.2386475 0.4475098 0.3276367 0.2810669 0.2386475 0.2810669 0.4609375 0.9779663 0.4564819 0.9798584 0.4555664 0.9777832 0.4520874 0.9793091 0.4520874 0.9768066 0.4485474 0.9780884 0.4469604 0.9750366 0.4450684 0.9768677 0.4435425 0.9736938 0.3859253 1.28009 0.409668 1.430664 0.3092041 1.28009 0.321106 1.430664 0.2325439 1.430664 0.2325439 1.591675 0.1439819 1.430664 0.1442871 1.591675 0.05541992 1.430664 0.05609131 1.591675 0.4623413 0.9802246 0.4616089 0.9790649 0.4572144 0.9827271 0.4568481 0.9812622 0.4520874 0.9834595 0.4520874 0.9817505 0.4472656 0.9817505 0.4476318 0.9802246 0.4425049 0.9799805 0.4431763 0.9786987 0.4418335 0.9597168 0.4469604 0.9572144 0.4520874 0.9564819 0.4568481 0.958252 0.456543 0.9597168 0.4616089 0.9599609 0.4609375 0.9612427 0.4089966 1.591675 0.3207397 1.591675 0.2325439 1.740845 0.1500244 1.740845 0.06756592 1.740845 0.4520264 0.9450073 0.4616699 0.9696045 0.4606934 0.9659424 0.4590454 0.9630737 0.4622192 0.9243774 0.4608154 0.9269409 0.4570923 0.9224243 0.4564209 0.925415 0.4519653 0.9204712 0.4519653 0.9238892 0.4475098 0.9258423 0.515625 0.01470947 0.5028687 0.01470947 0.4901123 0.01470947 0.1496582 0.2810669 0.1359253 0.4475098 0.1367798 0.623291 0.1496582 0.7736816 0.8407593 0.02606201 0.8407593 0.1044312 0.7872925 0.1044922 0.8407593 0.1776733 0.7872925 0.1776123 0.7872925 0.02606201 0.0791626 1.28009 0.1558228 1.28009 0.2325439 1.28009 0.4418335 0.9812012 0.4469604 0.9832153 0.4520874 0.9851685 0.4623413 0.9587402 0.4572144 0.9567261 0.4520874 0.9547729 0.2386475 0.9035645 0.168457 0.9035645 0.06072998 0.7736816 0.09832764 0.9035645 0.4447632 0.9360352 0.4435425 0.9328003 0.4420776 0.9361572 0.4394531 0.9362793 0.4435425 0.9393921 0.4450684 0.9636841 0.4438477 0.9668579 0.4469604 0.9653931 0.4448242 0.9702759 0.4485474 0.9621582 0.6497192 0.09759521 0.637146 0.1710815 0.637146 0.02410889 0.586853 0.1844482 0.586853 0.01074219 0.5471802 0.04614258 0.3535156 1.882324 0.2930298 1.882324 0.397522 1.740845 0.3150635 1.740845 0.4554443 0.9275513 0.4519653 0.9263916 0.4589844 0.928772 0.442627 0.9702148 0.7157593 0.190979 0.7561035 0.1305542 0.6757202 0.1305542 0.7386475 0.01794434 0.6932373 0.01794434 0.4622803 0.9459229 0.4571533 0.9484253 0.4412842 0.9403687 0.5283813 0.1907349 0.5471802 0.1490479 0.1115723 1.882324 0.1720581 1.882324 0.2325439 1.882324 0.06072998 0.2810669 0.03314209 0.4475098 0.03491211 0.623291 0.4468384 0.9229736 0.4417114 0.9254761 0.4423828 0.623291 0.4441528 0.4475098 0.416626 0.2810669 0.4627075 0.9310303</float_array>
					<technique_common>
						<accessor source="#polygon0_UVArr0" count="203" stride="2">
							<param name="S" type="float" />
							<param name="T" type="float" />
						</accessor>
					</technique_common>
				</source>
				<vertices id="polygon0_Vertices">
					<input semantic="POSITION" source="#polygon0_Positions" />
				</vertices>
				<triangles material="obj_hanachan_all_tx" count="364">
					<input semantic="VERTEX" source="#polygon0_Vertices" offset="0" />
					<input semantic="NORMAL" source="#polygon0_Normals" offset="1" />
					<input semantic="COLOR" source="#polygon0_Colors0" set="0" offset="2" />
					<input semantic="TEXCOORD" source="#polygon0_UVs0" set="0" offset="3" />
					<p>2 2 2 2 1 1 1 1 0 0 0 0 3 3 3 3 1 1 1 1 2 2 2 2 4 4 4 4 3 3 3 3 2 2 2 2 5 5 5 5 3 3 3 3 4 4 4 4 6 6 6 6 5 5 5 5 4 4 4 4 7 7 7 7 5 5 5 5 6 6 6 6 8 8 8 8 7 7 7 7 6 6 6 6 9 9 6 9 7 7 7 7 8 8 8 8 10 10 1 10 9 9 6 9 8 8 8 8 11 11 6 11 9 9 6 9 10 10 1 10 12 12 2 12 11 11 6 11 10 10 1 10 13 13 7 13 11 11 6 11 12 12 2 12 14 14 5 14 13 13 7 13 12 12 2 12 15 15 9 15 13 13 7 13 14 14 5 14 16 16 9 16 15 15 9 15 14 14 5 14 17 17 9 17 15 15 9 15 16 16 9 16 18 18 10 18 17 17 9 17 16 16 9 16 19 19 10 19 17 17 9 17 18 18 10 18 20 20 4 20 19 19 10 19 18 18 10 18 21 21 5 21 19 19 10 19 20 20 4 20 22 22 8 22 21 21 5 21 20 20 4 20 23 23 11 23 21 21 5 21 22 22 8 22 26 26 12 26 25 25 13 25 24 24 12 24 27 27 14 25 25 25 13 25 26 26 12 26 28 28 12 24 27 27 14 25 26 26 12 26 29 29 14 27 27 27 14 25 28 28 12 24 30 30 12 28 29 29 14 27 28 28 12 24 31 31 14 29 29 29 14 27 30 30 12 28 32 32 12 28 31 31 14 29 30 30 12 28 33 33 15 29 31 31 14 29 32 32 12 28 34 34 3 27 33 33 15 29 32 32 12 28 35 35 14 30 33 33 15 29 34 34 3 27 36 36 14 31 35 35 14 30 34 34 3 27 37 37 14 32 35 35 14 30 36 36 14 31 38 38 16 33 37 37 14 32 36 36 14 31 39 39 17 34 37 37 14 32 38 38 16 33 42 42 12 26 41 41 14 25 40 40 12 24 43 43 13 25 41 41 14 25 42 42 12 26 44 44 12 24 43 43 13 25 42 42 12 26 45 45 3 27 43 43 13 25 44 44 12 24 46 46 12 28 45 45 3 27 44 44 12 24 47 47 15 29 45 45 3 27 46 46 12 28 48 48 14 29 47 47 15 29 46 46 12 28 49 49 14 35 47 47 15 29 48 48 14 29 50 50 14 30 49 49 14 35 48 48 14 29 51 51 14 32 49 49 14 35 50 50 14 30 52 52 14 31 51 51 14 32 50 50 14 30 53 53 17 34 51 51 14 32 52 52 14 31 54 54 14 27 53 53 17 34 52 52 14 31 55 55 2 36 53 53 17 34 54 54 14 27 58 58 1 39 57 57 18 38 56 56 13 37 59 59 2 40 57 57 18 38 58 58 1 39 60 60 8 41 59 59 2 40 58 58 1 39 61 61 0 42 59 59 2 40 60 60 8 41 62 62 14 43 61 61 0 42 60 60 8 41 63 63 14 44 61 61 0 42 62 62 14 43 64 64 14 45 63 63 14 44 62 62 14 43 65 65 14 46 63 63 14 44 64 64 14 45 66 66 14 47 65 65 14 46 64 64 14 45 67 67 14 48 65 65 14 46 66 66 14 47 68 68 14 49 67 67 14 48 66 66 14 47 69 69 14 50 67 67 14 48 68 68 14 49 27 27 14 25 71 71 3 51 70 70 4 51 72 72 2 36 71 71 3 51 27 27 14 25 29 29 14 27 72 72 2 36 27 27 14 25 39 39 17 34 72 72 2 36 29 29 14 27 73 73 14 31 39 39 17 34 29 29 14 27 37 37 14 32 39 39 17 34 73 73 14 31 74 74 14 30 37 37 14 32 73 73 14 31 75 75 14 35 37 37 14 32 74 74 14 30 31 31 14 29 75 75 14 35 74 74 14 30 33 33 15 29 75 75 14 35 31 31 14 29 78 78 7 54 77 77 19 53 76 76 19 52 79 79 16 55 77 77 19 53 78 78 7 54 80 80 16 56 79 79 16 55 78 78 7 54 81 81 16 57 79 79 16 55 80 80 16 56 82 82 16 58 81 81 16 57 80 80 16 56 83 83 7 59 81 81 16 57 82 82 16 58 84 84 16 60 83 83 7 59 82 82 16 58 78 78 7 61 83 83 7 59 84 84 16 60 85 85 16 62 78 78 7 61 84 84 16 60 15 15 9 15 11 11 6 11 13 13 7 13 86 86 5 63 11 11 6 11 15 15 9 15 17 17 9 17 86 86 5 63 15 15 9 15 87 87 4 64 86 86 5 63 17 17 9 17 88 88 12 65 87 87 4 64 17 17 9 17 89 89 5 66 87 87 4 64 88 88 12 65 90 90 7 67 89 89 5 66 88 88 12 65 3 3 3 3 89 89 5 66 90 90 7 67 1 1 1 1 3 3 3 3 90 90 7 67 68 68 14 70 91 91 2 69 69 69 14 68 92 92 20 71 91 91 2 69 68 68 14 70 93 93 14 72 92 92 20 71 68 68 14 70 94 94 0 73 92 92 20 71 93 93 14 72 95 95 14 74 94 94 0 73 93 93 14 72 96 96 21 75 94 94 0 73 95 95 14 74 97 97 14 76 96 96 21 75 95 95 14 74 10 10 1 77 96 96 21 75 97 97 14 76 12 12 2 78 10 10 1 77 97 97 14 76 98 98 16 80 69 69 14 50 91 91 2 79 99 99 22 81 69 69 14 50 98 98 16 80 100 100 20 82 99 99 22 81 98 98 16 80 101 101 14 83 99 99 22 81 100 100 20 82 102 102 14 84 101 101 14 83 100 100 20 82 103 103 14 85 101 101 14 83 102 102 14 84 104 104 14 86 103 103 14 85 102 102 14 84 105 105 14 87 103 103 14 85 104 104 14 86 106 106 1 90 0 0 0 89 1 1 1 88 107 107 22 91 0 0 0 89 106 106 1 90 108 108 14 92 107 107 22 91 106 106 1 90 109 109 14 93 107 107 22 91 108 108 14 92 110 110 21 94 109 109 14 93 108 108 14 92 111 111 22 95 109 109 14 93 110 110 21 94 112 112 1 96 111 111 22 95 110 110 21 94 56 56 13 97 111 111 22 95 112 112 1 96 115 115 3 100 114 114 16 99 113 113 11 98 116 116 11 101 114 114 16 99 115 115 3 100 117 117 3 102 116 116 11 101 115 115 3 100 118 118 1 103 116 116 11 101 117 117 3 102 119 119 15 104 118 118 1 103 117 117 3 102 120 120 18 105 118 118 1 103 119 119 15 104 121 121 14 106 120 120 18 105 119 119 15 104 122 122 14 107 120 120 18 105 121 121 14 106 123 123 23 109 56 56 13 37 112 112 1 108 58 58 1 39 56 56 13 37 123 123 23 109 124 124 3 110 58 58 1 39 123 123 23 109 60 60 8 41 58 58 1 39 124 124 3 110 125 125 15 111 60 60 8 41 124 124 3 110 126 126 24 112 60 60 8 41 125 125 15 111 127 127 14 113 126 126 24 112 125 125 15 111 128 128 14 114 126 126 24 112 127 127 14 113 107 107 22 91 121 121 14 115 0 0 0 89 129 129 14 116 121 121 14 115 107 107 22 91 109 109 14 93 129 129 14 116 107 107 22 91 130 130 14 117 129 129 14 116 109 109 14 93 111 111 22 95 130 130 14 117 109 109 14 93 131 131 14 118 130 130 14 117 111 111 22 95 56 56 13 97 131 131 14 118 111 111 22 95 57 57 18 119 131 131 14 118 56 56 13 97 116 116 11 101 91 91 2 79 114 114 16 99 98 98 16 80 91 91 2 79 116 116 11 101 118 118 1 103 98 98 16 80 116 116 11 101 100 100 20 82 98 98 16 80 118 118 1 103 120 120 18 105 100 100 20 82 118 118 1 103 102 102 14 84 100 100 20 82 120 120 18 105 122 122 14 107 102 102 14 84 120 120 18 105 104 104 14 86 102 102 14 84 122 122 14 107 86 86 5 63 9 9 6 9 11 11 6 11 7 7 7 7 9 9 6 9 86 86 5 63 87 87 4 64 7 7 7 7 86 86 5 63 132 132 5 120 7 7 7 7 87 87 4 64 89 89 5 66 132 132 5 120 87 87 4 64 5 5 5 5 132 132 5 120 89 89 5 66 3 3 3 3 5 5 5 5 89 89 5 66 66 66 14 47 133 133 14 121 68 68 14 49 134 134 14 122 133 133 14 121 66 66 14 47 64 64 14 45 134 134 14 122 66 66 14 47 135 135 14 123 134 134 14 122 64 64 14 45 62 62 14 43 135 135 14 123 64 64 14 45 128 128 14 114 135 135 14 123 62 62 14 43 126 126 24 112 128 128 14 114 62 62 14 43 138 138 13 126 137 137 11 125 136 136 20 124 139 139 6 127 137 137 11 125 138 138 13 126 140 140 5 128 139 139 6 127 138 138 13 126 141 141 4 129 139 139 6 127 140 140 5 128 142 142 6 130 141 141 4 129 140 140 5 128 20 20 4 20 141 141 4 129 142 142 6 130 22 22 8 22 20 20 4 20 142 142 6 130 81 81 16 57 77 77 19 53 79 79 16 55 143 143 19 131 77 77 19 53 81 81 16 57 83 83 7 59 143 143 19 131 81 81 16 57 144 144 19 132 143 143 19 131 83 83 7 59 78 78 7 61 144 144 19 132 83 83 7 59 76 76 19 133 144 144 19 132 78 78 7 61 97 97 14 76 145 145 16 134 12 12 2 78 146 146 14 135 145 145 16 134 97 97 14 76 95 95 14 74 146 146 14 135 97 97 14 76 147 147 14 136 146 146 14 135 95 95 14 74 93 93 14 72 147 147 14 136 95 95 14 74 148 148 14 137 147 147 14 136 93 93 14 72 149 149 14 140 24 24 12 139 32 32 12 138 26 26 12 141 24 24 12 139 149 149 14 140 150 150 14 142 26 26 12 141 149 149 14 140 28 28 12 139 26 26 12 141 150 150 14 142 151 151 14 140 28 28 12 139 150 150 14 142 152 152 14 143 28 28 12 139 151 151 14 140 110 110 21 94 22 22 8 144 112 112 1 96 23 23 11 145 22 22 8 144 110 110 21 94 108 108 14 92 23 23 11 145 110 110 21 94 153 153 16 146 23 23 11 145 108 108 14 92 106 106 1 90 153 153 16 146 108 108 14 92 45 45 3 27 154 154 7 36 43 43 13 25 155 155 14 31 154 154 7 36 45 45 3 27 156 156 14 30 155 155 14 31 45 45 3 27 51 51 14 32 155 155 14 31 156 156 14 30 49 49 14 35 51 51 14 32 156 156 14 30 159 159 19 131 158 158 16 57 157 157 19 53 160 160 7 59 158 158 16 57 159 159 19 131 161 161 19 132 160 160 7 59 159 159 19 131 162 162 7 61 160 160 7 59 161 161 19 132 163 163 19 133 162 162 7 61 161 161 19 132 119 119 15 104 0 0 0 147 121 121 14 106 2 2 2 148 0 0 0 147 119 119 15 104 117 117 3 102 2 2 2 148 119 119 15 104 4 4 4 149 2 2 2 148 117 117 3 102 115 115 3 100 4 4 4 149 117 117 3 102 157 157 19 53 162 162 7 54 163 163 19 52 164 164 16 55 162 162 7 54 157 157 19 53 158 158 16 57 164 164 16 55 157 157 19 53 165 165 16 56 164 164 16 55 158 158 16 57 166 166 16 58 165 165 16 56 158 158 16 57 125 125 15 111 136 136 20 150 127 127 14 113 138 138 13 151 136 136 20 150 125 125 15 111 124 124 3 110 138 138 13 151 125 125 15 111 140 140 5 152 138 138 13 151 124 124 3 110 123 123 23 109 140 140 5 152 124 124 3 110 133 133 14 153 93 93 14 72 68 68 14 70 148 148 14 137 93 93 14 72 133 133 14 153 134 134 14 154 148 148 14 137 133 133 14 153 128 128 14 155 148 148 14 137 134 134 14 154 135 135 14 156 128 128 14 155 134 134 14 154 168 168 4 158 167 167 25 157 19 19 10 19 169 169 26 159 167 167 25 157 168 168 4 158 153 153 16 160 169 169 26 159 168 168 4 158 170 170 5 161 169 169 26 159 153 153 16 160 173 173 14 164 172 172 14 163 171 171 14 162 174 174 14 165 172 172 14 163 173 173 14 164 65 65 14 46 174 174 14 165 173 173 14 164 103 103 14 85 174 174 14 165 65 65 14 46 173 173 14 164 63 63 14 44 65 65 14 46 175 175 14 166 63 63 14 44 173 173 14 164 171 171 14 162 175 175 14 166 173 173 14 164 57 57 18 38 175 175 14 166 171 171 14 162 176 176 4 51 43 43 13 25 154 154 7 36 41 41 14 25 43 43 13 25 176 176 4 51 177 70 3 51 41 41 14 25 176 176 4 51 55 55 2 36 41 41 14 25 177 70 3 51 178 177 1 169 39 39 17 168 38 38 16 167 72 72 2 170 39 39 17 168 178 177 1 169 179 178 7 171 72 72 2 170 178 177 1 169 70 70 4 172 72 72 2 170 179 178 7 171 155 155 14 31 180 179 1 34 154 154 7 36 181 180 16 33 180 179 1 34 155 155 14 31 51 51 14 32 181 180 16 33 155 155 14 31 53 53 17 34 181 180 16 33 51 51 14 32 160 160 7 59 166 166 16 58 158 158 16 57 182 181 16 60 166 166 16 58 160 160 7 59 162 162 7 61 182 181 16 60 160 160 7 59 183 182 16 62 182 181 16 60 162 162 7 61 122 122 14 175 105 105 14 174 104 104 14 173 184 183 14 176 105 105 14 174 122 122 14 175 129 129 14 116 184 183 14 176 122 122 14 175 130 130 14 117 184 183 14 176 129 129 14 116 36 36 14 31 178 177 1 34 38 38 16 33 179 178 7 36 178 177 1 34 36 36 14 31 34 34 3 27 179 178 7 36 36 36 14 31 25 25 13 25 179 178 7 36 34 34 3 27 186 185 14 143 185 184 12 138 46 46 12 138 40 40 12 139 185 184 12 138 186 185 14 143 187 186 14 140 40 40 12 139 186 185 14 143 188 187 14 142 40 40 12 139 187 186 14 140 32 32 12 138 189 188 14 143 149 149 14 140 152 152 14 143 189 188 14 143 32 32 12 138 30 30 12 138 152 152 14 143 32 32 12 138 28 28 12 139 152 152 14 143 30 30 12 138 190 189 26 177 18 18 10 18 16 16 9 16 191 190 27 178 18 18 10 18 190 189 26 177 141 141 4 129 191 190 27 178 190 189 26 177 20 20 4 20 191 190 27 178 141 141 4 129 88 88 12 65 170 170 5 161 90 90 7 67 167 167 25 157 170 170 5 161 88 88 12 65 17 17 9 17 167 167 25 157 88 88 12 65 19 19 10 19 167 167 25 157 17 17 9 17 192 191 4 179 16 16 9 16 14 14 5 14 190 189 26 177 16 16 9 16 192 191 4 179 139 139 6 127 190 189 26 177 192 191 4 179 141 141 4 129 190 189 26 177 139 139 6 127 54 54 14 27 41 41 14 25 55 55 2 36 40 40 12 24 41 41 14 25 54 54 14 27 185 184 12 28 40 40 12 24 54 54 14 27 175 175 14 166 61 61 0 42 63 63 14 44 59 59 2 40 61 61 0 42 175 175 14 166 57 57 18 38 59 59 2 40 175 175 14 166 174 174 14 165 193 192 14 180 172 172 14 163 105 105 14 87 193 192 14 180 174 174 14 165 103 103 14 85 105 105 14 87 174 174 14 165 149 149 14 183 151 151 14 182 150 150 14 181 152 152 14 184 151 151 14 182 149 149 14 183 189 188 14 185 152 152 14 184 149 149 14 183 6 6 6 6 113 113 11 186 8 8 8 8 115 115 3 187 113 113 11 186 6 6 6 6 4 4 4 4 115 115 3 187 6 6 6 6 170 170 5 161 1 1 1 1 90 90 7 67 106 106 1 188 1 1 1 1 170 170 5 161 153 153 16 160 106 106 1 188 170 170 5 161 53 53 17 168 180 179 1 169 181 180 16 167 55 55 2 170 180 179 1 169 53 53 17 168 162 162 7 54 165 165 16 56 183 182 16 189 164 164 16 55 165 165 16 56 162 162 7 54 176 176 4 172 55 55 2 170 177 70 3 190 154 154 7 171 55 55 2 170 176 176 4 172 171 171 14 191 131 131 14 118 57 57 18 119 172 172 14 192 131 131 14 118 171 171 14 191 172 172 14 192 130 130 14 117 131 131 14 118 193 192 14 193 130 130 14 117 172 172 14 192 145 145 16 134 136 136 20 195 137 137 11 194 146 146 14 135 136 136 20 195 145 145 16 134 21 21 5 21 168 168 4 158 19 19 10 19 23 23 11 23 168 168 4 158 21 21 5 21 127 127 14 196 146 146 14 135 147 147 14 136 136 136 20 195 146 146 14 135 127 127 14 196 123 123 23 197 142 142 6 130 140 140 5 128 112 112 1 198 142 142 6 130 123 123 23 197 101 101 14 83 65 65 14 46 67 67 14 48 103 103 14 85 65 65 14 46 101 101 14 83 128 128 14 155 147 147 14 136 148 148 14 137 127 127 14 196 147 147 14 136 128 128 14 155 94 94 0 73 113 113 11 200 114 114 16 199 96 96 21 75 113 113 11 200 94 94 0 73 48 48 14 29 185 184 12 28 54 54 14 27 46 46 12 28 185 184 12 28 48 48 14 29 92 92 20 71 114 114 16 199 91 91 2 69 94 94 0 73 114 114 16 199 92 92 20 71 47 47 15 29 156 156 14 30 45 45 3 27 49 49 14 35 156 156 14 30 47 47 15 29 187 186 14 182 194 193 14 183 188 187 14 181 186 185 14 184 194 193 14 183 187 186 14 182 193 192 14 193 184 183 14 176 130 130 14 117 105 105 14 174 184 183 14 176 193 192 14 193 24 24 12 24 34 34 3 27 32 32 12 28 25 25 13 25 34 34 3 27 24 24 12 24 8 8 8 201 96 96 21 75 10 10 1 77 113 113 11 200 96 96 21 75 8 8 8 201 25 25 13 25 70 70 4 51 179 178 7 36 27 27 14 25 70 70 4 51 25 25 13 25 50 50 14 30 54 54 14 27 52 52 14 31 48 48 14 29 54 54 14 27 50 50 14 30 35 35 14 30 75 75 14 35 33 33 15 29 37 37 14 32 75 75 14 35 35 35 14 30 29 29 14 27 74 74 14 30 73 73 14 31 31 31 14 29 74 74 14 30 29 29 14 27 44 44 12 139 194 193 14 140 46 46 12 138 42 42 12 141 194 193 14 140 44 44 12 139 195 194 14 143 46 46 12 138 194 193 14 140 186 185 14 143 46 46 12 138 195 194 14 143 99 99 22 81 67 67 14 48 69 69 14 50 101 101 14 83 67 67 14 48 99 99 22 81 188 187 14 142 42 42 12 141 40 40 12 139 194 193 14 140 42 42 12 141 188 187 14 142 145 145 16 202 14 14 5 14 12 12 2 12 137 137 11 125 14 14 5 14 145 145 16 202 137 137 11 125 192 191 4 179 14 14 5 14 139 139 6 127 192 191 4 179 137 137 11 125 80 80 16 56 78 78 7 54 85 85 16 189 195 194 14 185 194 193 14 183 186 185 14 184 154 154 7 171 180 179 1 169 55 55 2 170 126 126 24 112 62 62 14 43 60 60 8 41 7 7 7 7 132 132 5 120 5 5 5 5 121 121 14 115 129 129 14 116 122 122 14 175 71 71 3 190 72 72 2 170 70 70 4 172 22 22 8 22 142 142 6 130 112 112 1 198 20 20 4 20 18 18 10 18 191 190 27 178 170 170 5 161 167 167 25 157 169 169 26 159 168 168 4 158 23 23 11 23 153 153 16 160</p>
				</triangles>
			</mesh>
		</geometry>
	</library_geometries>
	<library_controllers>
		<controller id="polygon0_Controller">
			<skin source="#polygon0">
				<bind_shape_matrix>1 0 0 0 0 1 0 0 0 0 1 0 0 0 0 1</bind_shape_matrix>
				<source id="polygon0_Joints">
					<Name_array id="polygon0_JointArr" count="6">skl_root leg_L foot_L foot_L_end leg_R foot_R</Name_array>
					<technique_common>
						<accessor source="#polygon0_JointArr" count="6">
							<param name="JOINT" type="Name" />
						</accessor>
					</technique_common>
				</source>
				<source id="polygon0_Matrices">
					<float_array id="polygon0_MatArr" count="96">0 1 0 -195 0 0 -1 0 -1 0 0 0 0 0 0 1 0 -1 0 130.5197 0 0 -1 21.45 1 0 0 -56.01599 0 0 0 1 0 -1 0 83.98033 0 0 -1 21.45 1 0 0 -56.01599 0 0 0 1 0 -1 0 0.4271545 0 0 -1 21.45 1 0 0 -56.01599 0 0 0 1 0 -1 0 130.5197 0 0 1 -21.45 -1 0 0 -56.01599 0 0 0 1 0 -1 0 83.98033 0 0 1 -21.45 -1 0 0 -56.01599 0 0 0 1</float_array>
					<technique_common>
						<accessor source="#polygon0_MatArr" count="6" stride="16">
							<param type="float4x4" />
						</accessor>
					</technique_common>
				</source>
				<source id="polygon0_Weights">
					<float_array id="polygon0_WeightArr" count="4">1 0.95 0.03 0.02</float_array>
					<technique_common>
						<accessor source="#polygon0_WeightArr" count="4">
							<param type="float" />
						</accessor>
					</technique_common>
				</source>
				<joints>
					<input semantic="JOINT" source="#polygon0_Joints" />
					<input semantic="INV_BIND_MATRIX" source="#polygon0_Matrices" />
				</joints>
				<vertex_weights count="196">
					<input semantic="JOINT" offset="0" source="#polygon0_Joints" />
					<input semantic="WEIGHT" offset="1" source="#polygon0_Weights" />
					<vcount>1 1 1 1 1 1 1 1 1 1 1 1 1 1 1 1 1 1 1 1 1 1 1 1 1 1 1 1 1 1 1 1 1 1 1 1 1 1 1 1 1 1 1 1 1 1 1 1 1 1 1 1 1 1 1 1 1 1 1 1 1 1 1 1 1 1 1 1 1 1 1 1 1 1 1 1 1 1 1 1 3 1 1 1 1 1 1 1 1 1 1 1 1 1 1 1 1 1 1 1 1 1 1 1 1 1 1 1 1 1 1 1 1 1 1 1 1 1 1 1 1 1 1 1 1 1 1 1 1 1 1 1 1 1 1 1 1 1 1 1 1 1 1 1 1 1 1 1 1 1 1 1 1 1 1 1 1 1 1 1 1 1 1 1 1 1 1 1 1 1 1 1 1 1 1 1 1 1 1 1 1 1 1 1 1 1 1 1 1 1 1 1 1 1 1 1</vcount>
					<v>0 0 0 0 0 0 0 0 0 0 0 0 0 0 0 0 0 0 0 0 0 0 0 0 0 0 0 0 0 0 0 0 0 0 0 0 0 0 0 0 0 0 0 0 0 0 0 0 2 0 2 0 2 0 2 0 2 0 2 0 2 0 2 0 2 0 2 0 2 0 2 0 2 0 2 0 2 0 2 0 5 0 5 0 5 0 5 0 5 0 5 0 5 0 5 0 5 0 5 0 5 0 5 0 5 0 5 0 5 0 5 0 0 0 0 0 0 0 0 0 0 0 0 0 0 0 0 0 0 0 0 0 0 0 0 0 0 0 0 0 2 0 2 0 2 0 2 0 2 0 2 0 1 0 1 0 1 0 1 0 2 1 1 2 3 3 1 0 2 0 1 0 2 0 2 0 0 0 0 0 0 0 0 0 0 0 0 0 0 0 0 0 0 0 0 0 0 0 0 0 0 0 0 0 0 0 0 0 0 0 0 0 0 0 0 0 0 0 0 0 0 0 0 0 0 0 0 0 0 0 0 0 0 0 0 0 0 0 0 0 0 0 0 0 0 0 0 0 0 0 0 0 0 0 0 0 0 0 0 0 0 0 0 0 0 0 0 0 0 0 0 0 0 0 0 0 0 0 0 0 0 0 0 0 0 0 0 0 0 0 1 0 1 0 0 0 0 0 0 0 0 0 2 0 2 0 2 0 2 0 0 0 5 0 5 0 5 0 4 0 4 0 4 0 4 0 4 0 4 0 4 0 4 0 5 0 5 0 0 0 0 0 0 0 0 0 0 0 0 0 0 0 0 0 0 0 5 0 5 0 2 0 2 0 5 0 5 0 5 0 5 0 0 0 5 0 5 0 5 0 5 0 2 0 0 0 0 0 0 0 0 0 5 0 5 0</v>
				</vertex_weights>
			</skin>
		</controller>
	</library_controllers>
	<library_visual_scenes>
		<visual_scene id="RootNode" name="RootNode">
			<node id="skl_root" name="skl_root" sid="skl_root" type="JOINT">
				<translate>0 195 0</translate>
				<rotate>0 0 1 90</rotate>
				<rotate>1 0 0 -90</rotate>
				<node id="leg_L" name="leg_L" sid="leg_L" type="JOINT">
					<translate>-64.48034 -21.45 -56.01599</translate>
					<rotate>0 0 1 180</rotate>
					<rotate>1 0 0 180</rotate>
					<node id="foot_L" name="foot_L" sid="foot_L" type="JOINT">
						<translate>46.53932 0 -1E-06</translate>
						<node id="foot_L_end" name="foot_L_end" sid="foot_L_end" type="JOINT">
							<translate>83.55318 0 0</translate>
						</node>
					</node>
				</node>
				<node id="leg_R" name="leg_R" sid="leg_R" type="JOINT">
					<translate>-64.48034 -21.45 56.01599</translate>
					<rotate>0 0 1 -180</rotate>
					<node id="foot_R" name="foot_R" sid="foot_R" type="JOINT">
						<translate>46.53932 0 0</translate>
					</node>
				</node>
			</node>
			<node id="polygon0" name="polygon0" type="NODE">
				<instance_controller url="#polygon0_Controller">
					<skeleton>#skl_root</skeleton>
					<bind_material>
						<technique_common>
							<instance_material symbol="obj_hanachan_all_tx" target="#obj_hanachan_all_tx">
								<bind_vertex_input semantic="TEXCOORD0" input_semantic="TEXCOORD" input_set="0" />
								<bind_vertex_input semantic="TEXCOORD0" input_semantic="TEXCOORD" input_set="0" />
								<bind_vertex_input semantic="TEXCOORD0" input_semantic="TEXCOORD" input_set="0" />
							</instance_material>
						</technique_common>
					</bind_material>
				</instance_controller>
			</node>
		</visual_scene>
	</library_visual_scenes>
	<scene>
		<instance_visual_scene url="#RootNode" />
	</scene>
</COLLADA>