<?xml version="1.0" encoding="utf-8"?>
<COLLADA version="1.5.0" xmlns="http://www.collada.org/2008/03/COLLADASchema">
	<asset>
		<contributor>
			<authoring_tool>BrawlCrate</authoring_tool>
		</contributor>
		<created>2026-08-04T13:34:15Z</created>
		<modified>2026-08-04T13:34:15Z</modified>
		<unit meter="0.01" name="centimeter" />
		<up_axis>Y_UP</up_axis>
	</asset>
	<library_images>
		<image id="lm_0-image" name="lm_0">
			<init_from>
				<ref>lm_0.png</ref>
			</init_from>
		</image>
		<image id="lm_1-image" name="lm_1">
			<init_from>
				<ref>lm_1.png</ref>
			</init_from>
		</image>
		<image id="obj_hanachan_all.0-image" name="obj_hanachan_all.0">
			<init_from>
				<ref>obj_hanachan_all.0.png</ref>
			</init_from>
		</image>
	</library_images>
	<library_materials>
		<material id="obj_hanachan_all_tx">
			<instance_effect url="#obj_hanachan_all_tx-fx" />
		</material>
	</library_materials>
	<library_effects>
		<effect id="obj_hanachan_all_tx-fx" name="obj_hanachan_all_tx">
			<profile_COMMON>
				<newparam sid="obj_hanachan_all.0-surface">
					<surface type="2D">
						<init_from>
							<ref>obj_hanachan_all.0-image</ref>
						</init_from>
					</surface>
				</newparam>
				<newparam sid="obj_hanachan_all.0-sampler">
					<sampler2D>
						<source>obj_hanachan_all.0-surface</source>
						<instance_image url="#obj_hanachan_all.0-image" />
						<wrap_s>WRAP</wrap_s>
						<wrap_t>WRAP</wrap_t>
						<minfilter>LINEAR</minfilter>
						<magfilter>LINEAR</magfilter>
					</sampler2D>
				</newparam>
				<newparam sid="lm_0-surface">
					<surface type="2D">
						<init_from>
							<ref>lm_0-image</ref>
						</init_from>
					</surface>
				</newparam>
				<newparam sid="lm_0-sampler">
					<sampler2D>
						<source>lm_0-surface</source>
						<instance_image url="#lm_0-image" />
						<wrap_s>CLAMP</wrap_s>
						<wrap_t>CLAMP</wrap_t>
						<minfilter>LINEAR</minfilter>
						<magfilter>LINEAR</magfilter>
					</sampler2D>
				</newparam>
				<newparam sid="lm_1-surface">
					<surface type="2D">
						<init_from>
							<ref>lm_1-image</ref>
						</init_from>
					</surface>
				</newparam>
				<newparam sid="lm_1-sampler">
					<sampler2D>
						<source>lm_1-surface</source>
						<instance_image url="#lm_1-image" />
						<wrap_s>CLAMP</wrap_s>
						<wrap_t>CLAMP</wrap_t>
						<minfilter>LINEAR</minfilter>
						<magfilter>LINEAR</magfilter>
					</sampler2D>
				</newparam>
				<technique sid="COMMON">
					<phong>
						<diffuse>
							<texture texture="obj_hanachan_all.0-sampler" texcoord="TEXCOORD0" />
						</diffuse>
					</phong>
				</technique>
			</profile_COMMON>
		</effect>
	</library_effects>
	<library_geometries>
		<geometry id="polygon0" name="polygon0">
			<mesh>
				<source id="polygon0_Positions">
					<float_array id="polygon0_PosArr" count="669">75.08583 278.2983 59.80276 80.53455 254.2261 61.2358 63.5974 257.6661 120.4871 87.01741 252.1662 100.4804 75.23986 243.7829 138.2512 94.59925 226.1019 134.3879 70.28243 222.8972 158.0679 70.67384 186.2784 164.1375 46.95554 224.2262 155.8527 42.23557 189.668 161.1534 37.7109 187.586 167.5553 47.42356 166.4526 153.468 40.11972 172.6755 159.1511 47.38486 159.9413 149.4569 45.33487 148.7322 146.0368 54.4453 149.8101 139.8438 49.08612 137.0837 135.9849 57.87844 136.9534 104.6911 31.31306 125.9035 128.1322 31.0706 121.7429 103.8758 1.561078E-06 117.9594 128.2941 1.263575E-06 113.8526 103.8444 -31.0706 121.7429 103.8758 -33.32072 126.9187 74.12479 -57.86123 136.9534 104.6911 -59.8941 134.2677 69.38981 -92.77682 150.9398 75.1264 33.66116 133.6686 141.5731 1.804042E-06 128.1068 148.2616 17.42953 145.8881 156.0402 1.948061E-06 147.125 160.0975 2.075368E-06 165.0193 170.56 -17.42953 145.8881 156.0402 -15.98293 166.4223 166.6734 -36.00923 142.7701 146.1312 -31.44603 171.9733 162.6341 -45.33518 148.7322 146.0368 -40.12035 172.6755 159.1511 -47.3855 159.9413 149.4569 -47.42483 166.4526 153.468 -54.4281 149.8101 139.8438 -66.24537 156.7486 145.5761 -81.6163 151.0796 117.5209 -108.8933 182.683 90.28181 101.002 225.6542 42.48346 90.60386 246.5804 54.66644 82.75002 224.7532 1.188626 72.91827 249.6478 -0.1579029 61.74829 277.016 0.5219712 59.54216 302.4804 56.05531 35.2518 301.636 -1.286711 34.1626 318.5435 54.09061 -7.008869E-09 310.9137 -0.57601 5.475404E-07 323.9067 44.99852 -34.1626 318.5435 54.09061 1.202684E-06 318.1338 98.84016 -36.47464 310.7074 97.30259 -33.7461 291.2092 126.1153 -58.67796 288.8936 104.5251 -59.54216 302.4804 56.05531 -75.08583 278.2983 59.80276 -61.74829 277.016 0.5219728 -72.91827 249.6478 -0.1579011 -41.00633 251.9359 -33.22397 -46.27866 215.4431 -32.22698 -5.531693E-07 214.4699 -45.46112 -44.91318 174.727 -22.11823 -3.942216E-07 173.525 -32.39832 -4.552856E-08 140.3337 -3.741674 44.91318 174.727 -22.11823 58.08747 146.0173 9.158413 84.61769 181.8358 5.553073 36.00925 142.7701 146.1312 15.98293 166.4223 166.6734 2.132295E-06 179.2812 175.2384 -21.15632 185.7965 174.2394 -37.7109 187.586 167.5553 -38.64014 257.8553 209.2747 -56.81793 222.3244 217.2999 -45.40965 213.1733 179.0634 -38.64015 185.4742 225.3331 -28.64124 182.8556 185.293 -1.621901E-05 172.8276 228.5497 2.274997E-06 172.4378 186.9661 28.64124 182.8556 185.293 1.562157E-06 202.5443 128.3828 45.40966 213.1733 179.0634 28.64121 243.7197 172.817 38.64016 257.8553 209.2747 1.250731E-05 270.5019 206.0581 -80.53455 254.2261 61.2358 -82.75002 224.7532 1.188628 -84.61769 181.8358 5.553075 -58.08747 146.0173 9.158414 4.5599E-07 124.3505 37.47463 33.32072 126.9187 74.12479 104.8885 226.6886 90.93556 97.40871 183.5433 131.1832 66.24537 156.7486 145.5761 -35.2518 301.636 -1.28671 -3.408534E-07 282.1394 -28.01236 -4.904083E-07 255.7889 -40.30323 41.00633 251.9359 -33.22397 46.27866 215.4431 -32.22698 -46.12925 229.4746 243.7231 -30.36802 199.6091 251.7053 3.099444E-06 192.2637 254.7216 30.36803 199.6091 251.7053 2.116642E-05 233.1007 260.226 46.12926 229.4746 243.7231 30.36798 257.4035 237.5941 -63.5974 257.6661 120.4871 -87.01741 252.1662 100.4804 -90.60386 246.5804 54.66643 -104.8885 226.6886 90.93556 -101.002 225.6542 42.48346 -104.1543 182.9027 39.63118 108.8933 182.683 90.28181 81.27666 151.0796 117.5209 -33.66114 133.6686 141.5731 -49.07751 137.0837 135.9849 -47.05663 247.312 139.9131 -75.23986 243.7829 138.2512 -70.28243 222.8972 158.0679 -94.59924 226.1019 134.3879 -70.67384 186.2784 164.1375 -97.40871 183.5433 131.1832 -30.36797 257.4035 237.5941 2.907926E-06 264.6075 238.9821 22.84616 230.7866 164.9911 1.912618E-06 245.6838 157.1848 47.05663 247.312 139.9131 1.836801E-06 250.9601 150.9538 1.640121E-06 291.5779 134.7901 104.1543 182.9027 39.63118 86.25433 155.0491 30.64948 58.77549 134.2677 69.38981 -86.25433 155.0491 30.64948 -5.960813E-07 412.5972 33.19526 -3.694409E-07 366.4125 51.82125 -4.455203 410 25.4784 -5.157933 363.6206 40.82791 5.157932 363.6207 40.82791 4.86016 318.7427 47.18061 -0.0006572893 320.3601 58.40959 2.082473E-06 254.1375 171.1439 -28.6412 243.7197 172.817 38.64017 185.4742 225.3331 56.81795 222.3244 217.2999 -31.31306 125.9035 128.1322 92.77682 150.9398 75.1264 31.44572 171.9733 162.6341 -35.1187 210.3956 169.6441 -46.95554 224.2262 155.8527 -22.84615 230.7866 164.9911 -42.23556 189.668 161.1534 8.128757E-07 122.9799 66.80457 9.923957E-07 116.5035 81.55807 -25.57612 410.2615 -1.763094 -24.70662 405.3652 -10.92638 -0.00156562 427.8299 31.25115 -0.01104133 396.5325 -27.41149 24.68987 405.3045 -10.89886 17.03629 399.9373 -21.03374 -25.57614 432.4471 49.26949 -0.001565823 420.5824 14.51715 -24.26676 436.4513 60.94293 -0.01104507 441.6106 76.32845 -17.05602 439.4894 70.20116 36.47464 310.7074 97.30259 33.7461 291.2092 126.1153 17.76264 421.2967 23.76863 -5.01495E-07 428.9243 40.96865 2.268038E-07 432.8596 18.63942 -17.76264 421.2967 23.76863 7.993096E-08 413.6694 6.568967 10.86969 339.8145 32.18273 21.20478 342.0944 25.1237 2.244156 337.8771 50.49236 69.38338 352.5832 41.89 62.89602 350.6457 60.19963 21.15632 185.7965 174.2394 58.67796 288.8936 104.5251 4.014793E-07 400.5807 32.99477 -4.861475 318.7427 47.18061 25.56234 432.3743 49.30252 24.25 436.3907 60.97046 -62.89602 350.6457 60.19963 -15.99836 340.8417 65.93454 -50.42274 348.3659 67.25866 -28.04301 343.4639 70.12612 -2.244154 337.8771 50.49236 -69.38337 352.5832 41.89 -43.58452 346.9964 22.25625 -57.58686 349.6186 26.44782 -10.86969 339.8145 32.18273 -21.20478 342.0944 25.1237 15.99836 340.8417 65.93454 28.04301 343.4639 70.12612 50.42274 348.3659 67.25866 57.58686 349.6186 26.44782 43.58452 346.9964 22.25624 47.87647 412.9843 10.52215 52.33415 418.2083 24.68372 39.14482 410.9065 3.106982 -8.471084 424.2061 22.88415 -47.87647 424.9318 38.39539 -52.33415 418.2083 24.68372 -39.57283 428.8839 45.2482 8.471084 424.2061 22.88415 -39.14482 410.9065 3.106982 -47.87647 412.9843 10.52215 35.11871 210.3956 169.6441 39.57283 428.8839 45.2482 47.87647 424.9318 38.39539 4.393629 410 25.4784 -25.73186 431.6188 49.18114 25.73186 410.0459 -1.388324 25.73186 431.6188 49.18114 25.56233 410.1887 -1.730072 -25.73186 410.0459 -1.388323 -17.05601 399.9858 -21.05575 17.0363 439.4409 70.22318</float_array>
					<technique_common>
						<accessor source="#polygon0_PosArr" count="223" stride="3">
							<param name="X" type="float" />
							<param name="Y" type="float" />
							<param name="Z" type="float" />
						</accessor>
					</technique_common>
				</source>
				<source id="polygon0_Normals">
					<float_array id="polygon0_NormArr" count="552">0.9281616 0.3713989 0.02557372 0.7597046 0.6444092 -0.08685303 0.6275635 0.6362915 0.4486694 0.6329346 0.7601318 0.1469726 0.4154053 0.7234497 0.5513916 0.803772 0.3256226 0.4979248 0.2744141 0.4390869 0.8554688 0.3139648 -0.1470337 0.9379883 0.350708 0.2938232 0.8892212 0.4190674 -0.06176758 0.9058838 0.5750732 -0.1975098 0.7938843 0.2493897 -0.4523926 0.8562622 0.3568726 -0.4133911 0.8377075 0.4121094 -0.4230347 0.8069458 0.4367065 -0.4162598 0.7974854 0.482666 -0.5797119 0.6564941 0.5309448 -0.6467285 0.5476074 0.4799805 -0.8622437 0.1618042 0.3404541 -0.8911743 0.2998047 0.3479614 -0.9365845 0.04162597 3.221718E-09 -0.9642944 0.2647705 -4.292653E-10 -0.9993896 -0.03527832 -0.3480835 -0.9365234 0.04162598 -0.2670898 -0.9536133 -0.1389771 -0.4790649 -0.8623047 0.1640625 -0.37323 -0.9251099 -0.07006835 -0.6949463 -0.7190552 0.005126962 0.321228 -0.6725464 0.666687 8.06692E-09 -0.7486572 0.6629639 0.2583008 -0.4909668 0.8320313 1.041823E-08 -0.5166016 0.8562012 1.09225E-08 -0.4407959 0.897644 -0.2583008 -0.4909668 0.8320313 -0.3123779 -0.4082642 0.8577881 -0.3543091 -0.4642334 0.8117676 -0.3482666 -0.4176025 0.8392334 -0.4370117 -0.4162598 0.7973633 -0.4124756 -0.4230347 0.8068237 -0.2495117 -0.4523926 0.8562012 -0.4830322 -0.5795898 0.656311 -0.374939 -0.7017212 0.605835 -0.6538086 -0.6951904 0.298645 -0.973938 -0.2109375 0.08300783 0.9390259 0.2736816 -0.2081909 0.7075195 0.6825562 -0.1832276 0.8016968 0.3137207 -0.5087891 0.8501587 0.2697754 -0.4522095 0.7554321 0.4967651 -0.4272461 0.6965332 0.7164917 -0.0376587 0.4256592 0.7338257 -0.5294189 0.3184814 0.9455566 -0.06726075 -5.394039E-09 0.8963623 -0.4432983 -1.018948E-09 0.99646 -0.08374023 -0.3184814 0.9455566 -0.06726073 4.515456E-09 0.9285889 0.3710938 -0.4314575 0.8397827 0.3295288 -0.399292 0.6069336 0.6871338 -0.7330933 0.5620728 0.3828735 -0.6965332 0.7164917 -0.03765868 -0.9281616 0.3713989 0.02557374 -0.7554321 0.4967651 -0.4272461 -0.8501587 0.2697754 -0.4522095 -0.4334106 0.2982788 -0.8504028 -0.5464478 -0.03314209 -0.836853 -1.210038E-08 -0.1051636 -0.9944458 -0.3535156 -0.4399414 -0.8255005 -1.061206E-08 -0.4892578 -0.8721313 -7.662906E-09 -0.7767944 -0.6297607 0.3535156 -0.4399414 -0.8255005 0.3787842 -0.815979 -0.4367065 0.7105103 -0.2836914 -0.6439819 0.354248 -0.4641724 0.8117676 0.3123779 -0.4082642 0.8577881 1.130795E-08 -0.3692017 0.9293213 -0.3359375 -0.3148193 0.8876953 -0.5750732 -0.1975098 0.7938843 -0.7429199 0.6607056 -0.107605 -0.9989014 0.01776123 0.04272462 -0.9026489 -0.08752441 -0.4213257 -0.75177 -0.6296997 0.1958008 -0.5354004 -0.8076782 -0.2470703 3.662866E-09 -0.9536133 0.3010254 -2.764231E-09 -0.973877 -0.2271729 0.5354004 -0.8076782 -0.2470703 -1.19214E-08 -0.2004395 -0.9797363 0.9026489 -0.08752441 -0.4213257 0.5283203 0.635498 -0.5630493 0.7429199 0.6607056 -0.107605 -1.806925E-09 0.9888916 -0.1484985 -0.7597046 0.6444092 -0.08685302 -0.8016968 0.3137207 -0.5087891 -0.7105103 -0.2836914 -0.6439819 -0.3778076 -0.8154907 -0.4384155 -2.418145E-09 -0.9800415 -0.1987305 0.2695923 -0.9528198 -0.1394653 0.946106 0.3103027 0.09289549 0.8679199 -0.2461548 0.4313965 0.3760986 -0.7023315 0.6043701 -0.4256592 0.7338257 -0.5294189 -1.004169E-08 0.5647583 -0.8252563 -1.16934E-08 0.2764893 -0.9609985 0.4334106 0.2982788 -0.8504028 0.5464478 -0.03314209 -0.836853 -0.7806396 0.1552734 0.6054077 -0.4235229 -0.4470825 0.7879028 1.050957E-08 -0.5040283 0.8637085 0.4235229 -0.4470825 0.7879028 1.182782E-08 0.2347412 0.9720459 0.7806396 0.1552734 0.6054077 0.4211426 0.7582397 0.4977417 -0.6275635 0.6362915 0.4486694 -0.6329346 0.7601318 0.1469727 -0.7075195 0.6825562 -0.1832275 -0.946106 0.3103027 0.09289552 -0.9390259 0.2736816 -0.2081909 -0.934021 -0.1968384 -0.2980957 0.9735718 -0.2125244 0.08398436 0.6532593 -0.6958618 0.2983398 -0.3212891 -0.6725464 0.666687 -0.53125 -0.6466064 0.5474854 -0.2449341 0.5904541 0.7689819 -0.4154053 0.7234497 0.5513916 -0.2744141 0.4390869 0.8554688 -0.803772 0.3256226 0.4979248 -0.3139648 -0.1470337 0.9379883 -0.867981 -0.2440186 0.4324951 -0.4211426 0.7582397 0.4977417 6.671437E-09 0.8363037 0.5482788 0.2733765 0.5408325 0.7954712 8.7888E-09 0.6915894 0.72229 0.2449341 0.5904541 0.7689819 9.871617E-09 0.5846558 0.8112793 1.029271E-08 0.5333862 0.8458862 0.934021 -0.1968384 -0.2980957 0.6688843 -0.6677856 -0.3265991 0.3713379 -0.9257202 -0.07196046 -0.6713867 -0.6646118 -0.3278809 0.00128175 0.3586476 0.9334459 0.0006713985 0.2529006 0.9675179 -0.8493652 -0.1471538 -0.5069134 -0.8442993 -0.1124975 -0.523944 0.8439331 -0.1125133 -0.5245228 0.8381958 -0.07885742 -0.5396729 1.205879E-08 0.133667 0.9910278 -7.469811E-09 0.7893677 -0.6138916 -0.5283203 0.635498 -0.5630493 0.75177 -0.6296997 0.1957397 0.9989014 0.01776123 0.0427246 -0.3405762 -0.8911133 0.2998047 0.6920166 -0.7218628 0.004699699 -0.5376587 0.1450806 0.8305664 -0.350708 0.2938232 0.8892212 -0.2733765 0.5408325 0.7954712 -0.4190674 -0.06176758 0.9058838 -3.216519E-09 -0.9644165 -0.2643433 -5.652717E-09 0.8855447 -0.4645573 0.005859371 0.9457414 -0.3248659 0.4314575 0.8397827 0.3295288 0.399292 0.6069336 0.6871338 0.5800781 0.7446341 -0.3302611 2.168647E-09 0.9840083 0.178226 -4.93297E-09 0.9141538 -0.4054063 -0.5800781 0.7446341 -0.3302611 -1.030018E-08 0.5324464 -0.8464999 -0.2089233 0.9779035 0.006375927 0.3359375 -0.3148193 0.8876953 0.7330933 0.5620728 0.3828735 1.171331E-08 -0.2708329 0.962635 0.7872314 -0.5635656 0.2502629 4.938997E-09 -0.9139085 0.4059016 -5.400834E-09 -0.8960958 -0.4438568 -0.7872314 -0.5635656 0.2502629 -0.8381958 -0.07885742 -0.5396729 0.2089233 0.9779035 0.006375922 0.1015625 0.9218649 -0.3740481 -0.1007691 0.9071966 -0.40846 -0.1015625 0.9218649 -0.3740481 0.5376587 0.1450806 0.8305664 0.100769 0.9071966 -0.40846 0.8486938 -0.1470499 -0.5080554 -0.07958985 0.927635 -0.3649764 0.08087157 0.9063291 -0.4147694 0.07958984 0.927635 -0.3649764 -0.08087159 0.9063291 -0.4147694</float_array>
					<technique_common>
						<accessor source="#polygon0_NormArr" count="184" stride="3">
							<param name="X" type="float" />
							<param name="Y" type="float" />
							<param name="Z" type="float" />
						</accessor>
					</technique_common>
				</source>
				<source id="polygon0_Colors0">
					<float_array id="polygon0_ColorArr0" count="112">1 1 1 1 0.9843138 0.9843138 0.9843138 0.9843138 0.9686275 0.9686275 0.9686275 0.9686275 0.9058824 0.9058824 0.9058824 0.9058824 0.8431373 0.8431373 0.8431373 0.8431373 0.8117648 0.8117648 0.8117648 0.8117648 0.7137255 0.7137255 0.7137255 0.7137255 0.6039216 0.6039216 0.6039216 0.6039216 0.8588236 0.8588236 0.8588236 0.8588236 0.937255 0.937255 0.937255 0.937255 0.7450981 0.7450981 0.7450981 0.7450981 0.6352941 0.6352941 0.6352941 0.6352941 0.8745099 0.8745099 0.8745099 0.8745099 0.1568628 0.1568628 0.1568628 0.1568628 0.8274511 0.8274511 0.8274511 0.8274511 0.8901961 0.8901961 0.8901961 0.8901961 0.9529412 0.9529412 0.9529412 0.9529412 0.6666667 0.6666667 0.6666667 0.6666667 0.682353 0.682353 0.682353 0.682353 0.427451 0.427451 0.427451 0.427451 0.9215687 0.9215687 0.9215687 0.9215687 0.3803922 0.3803922 0.3803922 0.3803922 0.5254902 0.5254902 0.5254902 0.5254902 0.5568628 0.5568628 0.5568628 0.5568628 0.4901961 0.4901961 0.4901961 0.4901961 0.764706 0.764706 0.764706 0.764706 0.5411765 0.5411765 0.5411765 0.5411765 0.7960785 0.7960785 0.7960785 0.7960785</float_array>
					<technique_common>
						<accessor source="#polygon0_ColorArr0" count="28" stride="4">
							<param name="R" type="float" />
							<param name="G" type="float" />
							<param name="B" type="float" />
							<param name="A" type="float" />
						</accessor>
					</technique_common>
				</source>
				<source id="polygon0_UVs0">
					<float_array id="polygon0_UVArr0" count="296">0.752655 0.9868774 0.7533875 0.9662476 0.6750183 0.9646912 0.7001953 0.9144897 0.6635437 0.9055176 0.6936035 0.8536682 0.6575623 0.8510742 0.6503601 0.6686401 0.6218872 0.8515015 0.6123657 0.675293 0.5953369 0.6614685 0.612793 0.5601196 0.5957947 0.5947876 0.6130371 0.5290833 0.6114197 0.4637451 0.6338501 0.4985657 0.6254578 0.4150085 0.6656494 0.3963318 0.5986938 0.3331299 0.610321 0.3004761 0.488739 0.3206787 0.488739 0.2798767 0.6218872 0.2790833 0.7522278 0.432312 0.7607727 0.5175171 0.5917664 0.3774109 0.4887695 0.3681335 0.5365906 0.4457703 0.4887695 0.4459229 0.4887695 0.5606689 0.5352783 0.5630493 0.5848083 0.427948 0.5726624 0.5946655 0.648407 0.5639648 0.7115173 0.5503235 0.7488403 0.6739807 0.4269104 0.3353882 0.41922 0.3476563 0.447052 0.3356018 0.4230957 0.3529053 0.4470825 0.3473511 0.4229431 0.3632813 0.4465942 0.3701782 0.4227905 0.3774109 0.4463196 0.37677 0.4227905 0.38797 0.4460754 0.3833618 0.4245605 0.3953552 0.4083557 0.3880005 0.411438 0.3785706 0.4035034 0.3666382 0.4120178 0.3648987 0.4529114 0.3477783 0.4536743 0.3339539 0.4607849 0.3327942 0.4551697 0.2954712 0.460907 0.3043213 0.4576721 0.2584839 0.446991 0.2601929 0.4476624 0.2958374 0.488739 0.6109619 0.5498047 0.6485901 0.01190186 0.1611938 0.01190186 0.131134 0.03451538 0.1296692 0.01190186 0.1010437 0.03451538 0.1070557 0.01190186 0.08688354 0.03451538 0.09466553 0.09487915 0.1282043 0.03451538 0.1522522 0.01190186 0.1773682 0.4483032 0.2411804 0.4275513 0.2448425 0.7624817 0.9157104 0.7385864 0.8545837 0.7041931 0.6703796 0.4543457 0.3657532 0.4587402 0.3482056 0.4268188 0.1816711 0.4273987 0.1401978 0.3914185 0.1697998 0.405426 0.1218872 0.3826599 0.08380127 0.4000549 0.08380127 0.4283752 0.08377075 0.4465637 0.1218262 0.4621887 0.1694946 0.7773743 0.859436 0.7879028 0.6819763 0.6216431 0.9378052 0.4491272 0.08377075 0.4673462 0.08377075 0.8885803 0.5030823 0.8102417 0.6324463 0.9672546 0.6742554 0.8101196 0.6866455 0.8101196 0.9695435 0.9248657 0.9713135 1.03653 0.768219 0.4315186 0.3027954 0.4421082 0.2713318 0.4275208 0.2600403 0.2062378 0.01992798 0.2399597 0.01849365 0.2093506 0.03460693 0.2399597 0.03561401 0.2801208 0.03607178 0.2801208 0.019104 0.03451538 0.1628113 0.5775146 0.740509 0.5474854 0.8609619 0.4373474 0.2317505 0.4275208 0.2318726 0.8178101 0.3569336 0.8259888 0.3934021 0.8668518 0.2256775 0.8668518 0.4590149 0.8341675 0.4298401 0.7947998 0.3319397 0.7947998 0.2239075 0.7676086 0.2779236 0.7404175 0.2239075 0.7404175 0.3319397 0.9636536 0.3010559 0.9746094 0.3267517 0.9310913 0.2753906 0.9319458 0.4294434 0.9642029 0.4037781 0.5853577 0.6982422 0.4955444 0.6178284 0.5298462 0.7438965 0.4699707 0.788208 0.5184326 0.8479004 0.2644653 0.02752686 0.2644653 0.04190063 0.2807617 0.02752686 0.2644653 0.01315308 0.974884 0.3781128 0.4180908 0.2723999 0.3996887 0.3693542 0.488739 0.2322693 0.585022 0.8079224 0.206665 0.03451538 0.6016235 0.9872437 0.6739197 0.9866638 0.4865723 0.8609314 0.5158386 0.8946533</float_array>
					<technique_common>
						<accessor source="#polygon0_UVArr0" count="148" stride="2">
							<param name="S" type="float" />
							<param name="T" type="float" />
						</accessor>
					</technique_common>
				</source>
				<vertices id="polygon0_Vertices">
					<input semantic="POSITION" source="#polygon0_Positions" />
				</vertices>
				<triangles material="obj_hanachan_all_tx" count="359">
					<input semantic="VERTEX" source="#polygon0_Vertices" offset="0" />
					<input semantic="NORMAL" source="#polygon0_Normals" offset="1" />
					<input semantic="COLOR" source="#polygon0_Colors0" set="0" offset="2" />
					<input semantic="TEXCOORD" source="#polygon0_UVs0" set="0" offset="3" />
					<p>2 2 0 2 1 1 0 1 0 0 0 0 3 3 0 3 1 1 0 1 2 2 0 2 4 4 0 4 3 3 0 3 2 2 0 2 5 5 0 5 3 3 0 3 4 4 0 4 6 6 0 6 5 5 0 5 4 4 0 4 7 7 0 7 5 5 0 5 6 6 0 6 8 8 0 8 7 7 0 7 6 6 0 6 9 9 0 9 7 7 0 7 8 8 0 8 10 10 0 10 9 9 0 9 8 8 0 8 11 11 1 11 9 9 0 9 10 10 0 10 12 12 0 12 11 11 1 11 10 10 0 10 13 13 0 13 11 11 1 11 12 12 0 12 14 14 0 14 13 13 0 13 12 12 0 12 15 15 1 15 13 13 0 13 14 14 0 14 16 16 0 16 15 15 1 15 14 14 0 14 17 17 1 17 15 15 1 15 16 16 0 16 18 18 0 18 17 17 1 17 16 16 0 16 19 19 0 19 17 17 1 17 18 18 0 18 20 20 0 20 19 19 0 19 18 18 0 18 21 21 0 21 19 19 0 19 20 20 0 20 22 22 0 19 21 21 0 21 20 20 0 20 23 23 2 22 21 21 0 21 22 22 0 19 24 24 1 17 23 23 2 22 22 22 0 19 25 25 3 23 23 23 2 22 24 24 1 17 26 26 0 24 25 25 3 23 24 24 1 17 27 27 0 25 18 18 0 18 16 16 0 16 28 28 0 26 18 18 0 18 27 27 0 25 29 29 0 27 28 28 0 26 27 27 0 25 30 30 0 28 28 28 0 26 29 29 0 27 31 31 0 29 30 30 0 28 29 29 0 27 32 32 0 27 30 30 0 28 31 31 0 29 33 33 0 30 32 32 0 27 31 31 0 29 34 34 0 31 32 32 0 27 33 33 0 30 35 35 0 32 34 34 0 31 33 33 0 30 36 36 0 14 34 34 0 31 35 35 0 32 37 35 0 12 36 36 0 14 35 35 0 32 38 37 0 13 36 36 0 14 37 35 0 12 39 38 1 11 38 37 0 13 37 35 0 12 40 39 1 15 38 37 0 13 39 38 1 11 41 40 0 33 40 39 1 15 39 38 1 11 24 24 1 17 40 39 1 15 41 40 0 33 42 41 0 34 24 24 1 17 41 40 0 33 26 26 0 24 24 24 1 17 42 41 0 34 43 42 0 35 26 26 0 24 42 41 0 34 46 45 0 38 45 44 0 37 44 43 0 36 1 1 0 39 45 44 0 37 46 45 0 38 47 46 1 40 1 1 0 39 46 45 0 38 0 0 0 41 1 1 0 39 47 46 1 40 48 47 0 42 0 0 0 41 47 46 1 40 49 48 0 43 0 0 0 41 48 47 0 42 50 49 0 44 49 48 0 43 48 47 0 42 51 50 0 45 49 48 0 43 50 49 0 44 52 51 0 46 51 50 0 45 50 49 0 44 53 52 0 47 51 50 0 45 52 51 0 46 54 53 0 45 53 52 0 47 52 51 0 46 55 54 0 48 53 52 0 47 54 53 0 45 56 55 0 49 55 54 0 48 54 53 0 45 57 56 0 50 55 54 0 48 56 55 0 49 58 57 0 51 57 56 0 50 56 55 0 49 59 58 0 43 58 57 0 51 56 55 0 49 60 59 0 41 58 57 0 51 59 58 0 43 61 60 0 42 60 59 0 41 59 58 0 43 62 61 1 40 60 59 0 41 61 60 0 42 63 62 4 52 62 61 1 40 61 60 0 42 64 63 5 53 62 61 1 40 63 62 4 52 65 64 6 54 64 63 5 53 63 62 4 52 66 65 5 55 64 63 5 53 65 64 6 54 67 66 6 56 66 65 5 55 65 64 6 54 68 67 7 57 66 65 5 55 67 66 6 56 69 68 5 55 68 67 7 57 67 66 6 56 70 69 4 58 68 67 7 57 69 68 5 55 71 70 2 59 70 69 4 58 69 68 5 55 72 71 0 31 27 27 0 25 16 16 0 16 29 29 0 27 27 27 0 25 72 71 0 31 73 72 0 30 29 29 0 27 72 71 0 31 31 31 0 29 29 29 0 27 73 72 0 30 74 73 8 60 31 31 0 29 73 72 0 30 33 33 0 30 31 31 0 29 74 73 8 60 75 74 8 61 33 33 0 30 74 73 8 60 35 35 0 32 33 33 0 30 75 74 8 61 76 75 0 10 35 35 0 32 75 74 8 61 37 35 0 12 35 35 0 32 76 75 0 10 39 38 1 11 37 35 0 12 76 75 0 10 79 78 10 64 78 77 9 63 77 76 0 62 80 79 8 65 78 77 9 63 79 78 10 64 81 80 11 66 80 79 8 65 79 78 10 64 82 81 12 67 80 79 8 65 81 80 11 66 83 82 11 68 82 81 12 67 81 80 11 66 84 83 11 66 82 81 12 67 83 82 11 68 85 84 13 69 84 83 11 66 83 82 11 68 86 85 10 64 84 83 11 66 85 84 13 69 87 86 5 70 86 85 10 64 85 84 13 69 88 87 0 62 86 85 10 64 87 86 5 70 89 88 0 71 88 87 0 62 87 86 5 70 62 61 1 40 90 89 0 39 60 59 0 41 91 90 0 38 90 89 0 39 62 61 1 40 64 63 5 53 91 90 0 38 62 61 1 40 92 91 2 59 91 90 0 38 64 63 5 53 66 65 5 55 92 91 2 59 64 63 5 53 93 92 4 58 92 91 2 59 66 65 5 55 68 67 7 57 93 92 4 58 66 65 5 55 94 93 14 72 93 92 4 58 68 67 7 57 70 69 4 58 94 93 14 72 68 67 7 57 95 94 2 73 94 93 14 72 70 69 4 58 3 3 0 3 45 44 0 74 1 1 0 1 96 95 0 75 45 44 0 74 3 3 0 3 5 5 0 5 96 95 0 75 3 3 0 3 97 96 0 76 96 95 0 75 5 5 0 5 7 7 0 7 97 96 0 76 5 5 0 5 98 97 0 33 97 96 0 76 7 7 0 7 11 11 1 11 98 97 0 33 7 7 0 7 15 15 1 15 98 97 0 33 11 11 1 11 13 13 0 13 15 15 1 15 11 11 1 11 99 98 0 44 61 60 0 42 59 58 0 43 63 62 4 52 61 60 0 42 99 98 0 44 100 99 5 77 63 62 4 52 99 98 0 44 101 100 6 78 63 62 4 52 100 99 5 77 102 101 4 52 101 100 6 78 100 99 5 77 65 64 6 54 101 100 6 78 102 101 4 52 103 102 5 53 65 64 6 54 102 101 4 52 69 68 5 55 65 64 6 54 103 102 5 53 71 70 2 59 69 68 5 55 103 102 5 53 80 79 8 81 104 103 2 80 78 77 9 79 105 104 15 82 104 103 2 80 80 79 8 81 82 81 12 83 105 104 15 82 80 79 8 81 106 105 3 84 105 104 15 82 82 81 12 83 107 106 12 82 106 105 3 84 82 81 12 83 108 107 0 85 106 105 3 84 107 106 12 82 109 108 2 80 108 107 0 85 107 106 12 82 110 109 0 86 108 107 0 85 109 108 2 80 88 87 0 87 110 109 0 86 109 108 2 80 54 53 0 45 59 58 0 43 56 55 0 49 99 98 0 44 59 58 0 43 54 53 0 45 52 51 0 46 99 98 0 44 54 53 0 45 100 99 5 77 99 98 0 44 52 51 0 46 50 49 0 44 100 99 5 77 52 51 0 46 102 101 4 52 100 99 5 77 50 49 0 44 48 47 0 42 102 101 4 52 50 49 0 44 47 46 1 40 102 101 4 52 48 47 0 42 90 89 0 1 111 110 0 2 60 59 0 0 112 111 0 3 111 110 0 2 90 89 0 1 113 112 0 74 112 111 0 3 90 89 0 1 114 113 0 75 112 111 0 3 113 112 0 74 115 114 0 88 114 113 0 75 113 112 0 74 43 42 0 35 114 113 0 75 115 114 0 88 116 115 0 89 43 42 0 35 115 114 0 88 26 26 0 24 43 42 0 35 116 115 0 89 96 95 0 75 44 43 0 88 45 44 0 74 117 116 0 35 44 43 0 88 96 95 0 75 97 96 0 76 117 116 0 35 96 95 0 75 118 117 0 34 117 116 0 35 97 96 0 76 98 97 0 33 118 117 0 34 97 96 0 76 17 17 1 17 118 117 0 34 98 97 0 33 15 15 1 15 17 17 1 17 98 97 0 33 32 32 0 27 28 28 0 26 30 30 0 28 119 118 0 25 28 28 0 26 32 32 0 27 34 34 0 31 119 118 0 25 32 32 0 27 120 119 0 16 119 118 0 25 34 34 0 31 36 36 0 14 120 119 0 16 34 34 0 31 40 39 1 15 120 119 0 16 36 36 0 14 38 37 0 13 40 39 1 15 36 36 0 14 122 121 0 4 121 120 0 90 111 110 0 2 123 122 0 6 121 120 0 90 122 121 0 4 124 123 0 5 123 122 0 6 122 121 0 4 125 124 0 7 123 122 0 6 124 123 0 5 126 125 0 76 125 124 0 7 124 123 0 5 41 40 0 33 125 124 0 7 126 125 0 76 42 41 0 34 41 40 0 33 126 125 0 76 104 103 2 80 77 76 0 87 78 77 9 79 127 126 0 86 77 76 0 87 104 103 2 80 108 107 0 85 127 126 0 86 104 103 2 80 128 127 0 91 127 126 0 86 108 107 0 85 110 109 0 86 128 127 0 91 108 107 0 85 89 88 0 92 128 127 0 91 110 109 0 86 88 87 0 87 89 88 0 92 110 109 0 86 131 130 0 95 130 129 0 94 129 128 0 93 132 131 0 96 130 129 0 94 131 130 0 95 133 132 0 97 132 131 0 96 131 130 0 95 121 120 0 95 132 131 0 96 133 132 0 97 57 56 0 98 121 120 0 95 133 132 0 97 111 110 0 99 121 120 0 95 57 56 0 98 112 111 0 3 122 121 0 4 111 110 0 2 124 123 0 5 122 121 0 4 112 111 0 3 114 113 0 75 124 123 0 5 112 111 0 3 126 125 0 76 124 123 0 5 114 113 0 75 43 42 0 35 126 125 0 76 114 113 0 75 42 41 0 34 126 125 0 76 43 42 0 35 134 133 0 100 46 45 0 38 44 43 0 36 71 70 2 59 46 45 0 38 134 133 0 100 135 134 16 101 71 70 2 59 134 133 0 100 70 69 4 58 71 70 2 59 135 134 16 101 136 135 3 102 70 69 4 58 135 134 16 101 95 94 2 73 70 69 4 58 136 135 3 102 92 91 2 59 116 115 0 100 91 90 0 38 137 136 16 101 116 115 0 100 92 91 2 59 93 92 4 58 137 136 16 101 92 91 2 59 25 25 3 102 137 136 16 101 93 92 4 58 23 23 2 73 25 25 3 102 93 92 4 58 140 139 7 105 139 138 0 104 138 137 0 103 141 140 17 106 139 138 0 104 140 139 7 105 142 141 18 106 141 140 17 106 140 139 7 105 143 142 19 107 141 140 17 106 142 141 18 106 144 143 17 108 143 142 19 107 142 141 18 106 145 144 5 109 87 86 5 70 85 84 13 69 89 88 0 71 87 86 5 70 145 144 5 109 146 145 5 70 89 88 0 71 145 144 5 109 77 76 0 62 89 88 0 71 146 145 5 70 79 78 10 64 77 76 0 62 146 145 5 70 147 146 8 81 107 106 12 82 82 81 12 83 109 108 2 80 107 106 12 82 147 146 8 81 148 147 9 79 109 108 2 80 147 146 8 81 88 87 0 87 109 108 2 80 148 147 9 79 24 24 1 17 120 119 0 16 40 39 1 15 149 148 0 18 120 119 0 16 24 24 1 17 22 22 0 19 149 148 0 18 24 24 1 17 20 20 0 20 149 148 0 18 22 22 0 19 95 94 2 22 19 19 0 19 21 21 0 21 17 17 1 17 19 19 0 19 95 94 2 22 136 135 3 23 17 17 1 17 95 94 2 22 150 149 0 24 17 17 1 17 136 135 3 23 149 148 0 18 119 118 0 25 120 119 0 16 28 28 0 26 119 118 0 25 149 148 0 18 20 20 0 20 28 28 0 26 149 148 0 18 18 18 0 18 28 28 0 26 20 20 0 20 14 14 0 14 72 71 0 31 16 16 0 16 151 12 0 32 72 71 0 31 14 14 0 14 12 12 0 12 151 12 0 32 14 14 0 14 10 10 0 10 151 12 0 32 12 12 0 12 152 150 0 110 76 75 0 10 75 74 8 61 153 151 0 8 76 75 0 10 152 150 0 110 154 152 0 111 153 151 0 8 152 150 0 110 121 120 0 90 153 151 0 8 154 152 0 111 150 149 0 24 118 117 0 34 17 17 1 17 117 116 0 35 118 117 0 34 150 149 0 24 134 133 0 89 117 116 0 35 150 149 0 24 44 43 0 88 117 116 0 35 134 133 0 89 39 38 1 11 125 124 0 7 41 40 0 33 155 153 0 9 125 124 0 7 39 38 1 11 76 75 0 10 155 153 0 9 39 38 1 11 153 151 0 8 155 153 0 9 76 75 0 10 94 93 14 72 23 23 2 73 93 92 4 58 156 82 20 112 23 23 2 73 94 93 14 72 95 94 2 73 156 82 20 112 94 93 14 72 157 154 0 113 156 82 20 112 95 94 2 73 160 155 21 116 159 155 20 115 158 155 5 114 161 155 0 117 159 155 20 115 160 155 21 116 162 155 3 115 161 155 0 117 160 155 21 116 163 155 0 118 161 155 0 117 162 155 3 115 91 90 0 38 113 112 0 37 90 89 0 39 115 114 0 36 113 112 0 37 91 90 0 38 116 115 0 100 115 114 0 36 91 90 0 38 166 156 16 115 165 156 21 116 164 156 14 114 167 156 0 117 165 156 21 116 166 156 16 115 168 156 0 118 167 156 0 117 166 156 16 115 131 130 0 90 4 4 0 4 2 2 0 2 6 6 0 6 4 4 0 4 131 130 0 90 8 8 0 8 6 6 0 6 131 130 0 90 55 54 0 48 51 50 0 45 53 52 0 47 169 157 0 49 51 50 0 45 55 54 0 48 170 158 0 50 169 157 0 49 55 54 0 48 103 102 5 53 46 45 0 38 71 70 2 59 47 46 1 40 46 45 0 38 103 102 5 53 102 101 4 52 47 46 1 40 103 102 5 53 173 161 0 121 172 160 23 120 171 159 22 119 174 162 22 122 172 160 23 120 173 161 0 121 175 163 24 123 174 162 22 122 173 161 0 121 178 164 18 126 177 164 4 125 176 164 25 124 179 164 0 127 177 164 4 125 178 164 18 126 180 164 0 128 179 164 0 127 178 164 18 126 181 165 8 61 151 12 0 32 10 10 0 10 73 72 0 30 151 12 0 32 181 165 8 61 74 73 8 60 73 72 0 30 181 165 8 61 182 166 0 131 2 2 0 130 0 0 0 129 170 158 0 132 2 2 0 130 182 166 0 131 169 157 0 133 170 158 0 132 182 166 0 131 183 169 26 136 171 168 4 135 172 167 12 134 175 170 5 134 171 168 4 135 183 169 26 136 174 171 4 137 175 170 5 134 183 169 26 136 139 138 0 104 142 141 18 106 138 137 0 103 144 143 17 108 142 141 18 106 139 138 0 104 184 172 19 107 144 143 17 108 139 138 0 104 165 156 21 116 186 156 9 115 185 156 5 114 167 156 0 117 186 156 9 115 165 156 21 116 189 173 0 138 188 173 25 124 187 173 0 128 190 173 4 125 188 173 25 124 189 173 0 138 135 134 16 101 150 149 0 139 136 135 3 102 134 133 0 100 150 149 0 139 135 134 16 101 55 54 0 48 133 132 0 140 170 158 0 50 57 56 0 50 133 132 0 140 55 54 0 48 192 173 0 127 188 173 25 124 191 173 18 126 187 173 0 128 188 173 25 124 192 173 0 127 194 173 0 128 191 173 18 126 193 173 0 138 192 173 0 127 191 173 18 126 194 173 0 128 196 173 4 125 191 173 18 126 195 173 25 124 193 173 0 138 191 173 18 126 196 173 4 125 198 164 4 125 178 164 18 126 197 164 25 124 199 164 0 138 178 164 18 126 198 164 4 125 200 164 0 128 177 164 4 125 179 164 0 127 201 164 0 138 177 164 4 125 200 164 0 128 26 26 0 139 137 136 16 101 25 25 3 102 116 115 0 100 137 136 16 101 26 26 0 139 121 120 0 95 130 129 0 94 132 131 0 96 154 152 0 93 130 129 0 94 121 120 0 95 131 130 0 95 170 158 0 98 133 132 0 97 2 2 0 99 170 158 0 98 131 130 0 95 81 80 11 66 85 84 13 69 83 82 11 68 79 78 10 64 85 84 13 69 81 80 11 66 84 83 11 66 147 146 8 65 82 81 12 67 86 85 10 64 147 146 8 65 84 83 11 66 86 85 10 64 148 147 9 63 147 146 8 65 88 87 0 62 148 147 9 63 86 85 10 64 204 174 20 115 203 174 0 117 202 174 0 118 205 174 21 116 203 174 0 117 204 174 20 115 146 145 5 70 85 84 13 69 79 78 10 64 145 144 5 109 85 84 13 69 146 145 5 70 208 175 9 115 207 175 0 117 206 175 0 118 209 175 21 116 207 175 0 117 208 175 9 115 127 126 0 86 89 88 0 92 77 76 0 87 128 127 0 91 89 88 0 92 127 126 0 86 210 176 9 115 207 176 0 117 209 176 21 116 211 176 0 118 207 176 0 117 210 176 9 115 157 154 0 141 21 21 0 21 23 23 2 22 95 94 2 22 21 21 0 21 157 154 0 141 108 107 0 85 105 104 15 82 106 105 3 84 104 103 2 80 105 104 15 82 108 107 0 85 129 128 0 111 8 8 0 8 131 130 0 90 212 177 0 110 8 8 0 8 129 128 0 111 49 48 0 142 182 166 0 131 0 0 0 129 169 157 0 133 182 166 0 131 49 48 0 142 212 177 0 110 10 10 0 10 8 8 0 8 181 165 8 61 10 10 0 10 212 177 0 110 123 122 0 6 153 151 0 8 121 120 0 90 125 124 0 7 153 151 0 8 123 122 0 6 213 178 9 115 203 178 0 117 205 178 21 116 214 178 0 118 203 178 0 117 213 178 9 115 215 179 7 143 142 141 18 106 140 139 7 105 138 137 0 103 142 141 18 106 215 179 7 143 58 57 0 145 111 110 0 2 57 56 0 144 60 59 0 0 111 110 0 2 58 57 0 145 141 140 17 106 184 172 19 107 139 138 0 104 143 142 19 107 184 172 19 107 141 140 17 106 11 11 1 11 7 7 0 7 9 9 0 9 130 129 0 147 154 152 0 146 129 128 0 111 208 180 9 115 216 180 5 114 209 180 21 116 204 181 20 115 217 181 5 114 205 181 21 116 205 182 21 116 218 182 14 114 213 182 9 115 160 155 21 116 219 155 27 114 162 155 3 115 209 183 21 116 220 183 14 114 210 183 9 115 161 155 0 117 221 155 0 118 159 155 20 115 167 156 0 117 222 156 0 118 186 156 9 115 199 164 0 138 180 164 0 128 178 164 18 126 72 71 0 31 151 12 0 32 73 72 0 30 155 153 0 9 153 151 0 8 125 124 0 7 51 50 0 45 169 157 0 49 49 48 0 43 63 62 4 52 101 100 6 78 65 64 6 54 67 66 6 56 65 64 6 54 69 68 5 55 157 154 0 113 23 23 2 73 156 82 20 112 174 171 4 137 183 169 26 136 172 167 12 134 173 161 0 121 171 159 22 119 175 163 24 123</p>
				</triangles>
			</mesh>
		</geometry>
	</library_geometries>
	<library_controllers>
		<controller id="polygon0_Controller">
			<skin source="#polygon0">
				<bind_shape_matrix>1 0 0 0 0 1 0 0 0 0 1 0 0 0 0 1</bind_shape_matrix>
				<source id="polygon0_Joints">
					<Name_array id="polygon0_JointArr" count="2">skl_root flower</Name_array>
					<technique_common>
						<accessor source="#polygon0_JointArr" count="2">
							<param name="JOINT" type="Name" />
						</accessor>
					</technique_common>
				</source>
				<source id="polygon0_Matrices">
					<float_array id="polygon0_MatArr" count="32">0 0 1 0 0 1 0 -156 -1 0 0 0 0 0 0 1 0 0.9397416 -0.3420378 -384.5599 0 -0.3420378 -0.9397416 167.1062 -1 0 0 0 0 0 0 1</float_array>
					<technique_common>
						<accessor source="#polygon0_MatArr" count="2" stride="16">
							<param type="float4x4" />
						</accessor>
					</technique_common>
				</source>
				<source id="polygon0_Weights">
					<float_array id="polygon0_WeightArr" count="1">1</float_array>
					<technique_common>
						<accessor source="#polygon0_WeightArr" count="1">
							<param type="float" />
						</accessor>
					</technique_common>
				</source>
				<joints>
					<input semantic="JOINT" source="#polygon0_Joints" />
					<input semantic="INV_BIND_MATRIX" source="#polygon0_Matrices" />
				</joints>
				<vertex_weights count="223">
					<input semantic="JOINT" offset="0" source="#polygon0_Joints" />
					<input semantic="WEIGHT" offset="1" source="#polygon0_Weights" />
					<vcount>1 1 1 1 1 1 1 1 1 1 1 1 1 1 1 1 1 1 1 1 1 1 1 1 1 1 1 1 1 1 1 1 1 1 1 1 1 1 1 1 1 1 1 1 1 1 1 1 1 1 1 1 1 1 1 1 1 1 1 1 1 1 1 1 1 1 1 1 1 1 1 1 1 1 1 1 1 1 1 1 1 1 1 1 1 1 1 1 1 1 1 1 1 1 1 1 1 1 1 1 1 1 1 1 1 1 1 1 1 1 1 1 1 1 1 1 1 1 1 1 1 1 1 1 1 1 1 1 1 1 1 1 1 1 1 1 1 1 1 1 1 1 1 1 1 1 1 1 1 1 1 1 1 1 1 1 1 1 1 1 1 1 1 1 1 1 1 1 1 1 1 1 1 1 1 1 1 1 1 1 1 1 1 1 1 1 1 1 1 1 1 1 1 1 1 1 1 1 1 1 1 1 1 1 1 1 1 1 1 1 1 1 1 1 1 1 1 1 1 1 1 1 1</vcount>
					<v>0 0 0 0 0 0 0 0 0 0 0 0 0 0 0 0 0 0 0 0 0 0 0 0 0 0 0 0 0 0 0 0 0 0 0 0 0 0 0 0 0 0 0 0 0 0 0 0 0 0 0 0 0 0 0 0 0 0 0 0 0 0 0 0 0 0 0 0 0 0 0 0 0 0 0 0 0 0 0 0 0 0 0 0 0 0 0 0 0 0 0 0 0 0 0 0 0 0 0 0 0 0 0 0 0 0 0 0 0 0 0 0 0 0 0 0 0 0 0 0 0 0 0 0 0 0 0 0 0 0 0 0 0 0 0 0 0 0 0 0 0 0 0 0 0 0 0 0 0 0 0 0 0 0 0 0 0 0 0 0 0 0 0 0 0 0 0 0 0 0 0 0 0 0 0 0 0 0 0 0 0 0 0 0 0 0 0 0 0 0 0 0 0 0 0 0 0 0 0 0 0 0 0 0 0 0 0 0 0 0 0 0 0 0 0 0 0 0 0 0 0 0 0 0 0 0 0 0 0 0 0 0 0 0 0 0 0 0 0 0 0 0 0 0 0 0 0 0 0 0 0 0 0 0 0 0 0 0 0 0 0 0 0 0 0 0 0 0 0 0 0 0 0 0 0 0 1 0 1 0 1 0 1 0 1 0 0 0 0 0 0 0 0 0 0 0 0 0 0 0 0 0 0 0 0 0 0 0 0 0 0 0 0 0 0 0 1 0 1 0 1 0 1 0 1 0 1 0 1 0 1 0 1 0 1 0 1 0 0 0 0 0 1 0 1 0 1 0 1 0 1 0 1 0 1 0 1 0 1 0 1 0 0 0 0 0 1 0 0 0 1 0 1 0 1 0 1 0 1 0 1 0 1 0 1 0 1 0 1 0 1 0 1 0 1 0 1 0 1 0 1 0 1 0 1 0 1 0 1 0 1 0 1 0 1 0 1 0 1 0 1 0 1 0 0 0 1 0 1 0 1 0 1 0 1 0 1 0 1 0 1 0 1 0 1 0</v>
				</vertex_weights>
			</skin>
		</controller>
	</library_controllers>
	<library_visual_scenes>
		<visual_scene id="RootNode" name="RootNode">
			<node id="skl_root" name="skl_root" sid="skl_root" type="JOINT">
				<translate>0 156 0</translate>
				<rotate>0 1 0 -90</rotate>
				<node id="flower" name="flower" sid="flower" type="JOINT">
					<translate>25.5 262.5 0</translate>
					<rotate>0 0 1 110</rotate>
				</node>
			</node>
			<node id="polygon0" name="polygon0" type="NODE">
				<instance_controller url="#polygon0_Controller">
					<skeleton>#skl_root</skeleton>
					<bind_material>
						<technique_common>
							<instance_material symbol="obj_hanachan_all_tx" target="#obj_hanachan_all_tx">
								<bind_vertex_input semantic="TEXCOORD0" input_semantic="TEXCOORD" input_set="0" />
								<bind_vertex_input semantic="TEXCOORD0" input_semantic="TEXCOORD" input_set="0" />
								<bind_vertex_input semantic="TEXCOORD0" input_semantic="TEXCOORD" input_set="0" />
							</instance_material>
						</technique_common>
					</bind_material>
				</instance_controller>
			</node>
		</visual_scene>
	</library_visual_scenes>
	<scene>
		<instance_visual_scene url="#RootNode" />
	</scene>
</COLLADA>