<?xml version="1.0" encoding="utf-8"?>
<COLLADA version="1.5.0" xmlns="http://www.collada.org/2008/03/COLLADASchema">
	<asset>
		<contributor>
			<authoring_tool>BrawlCrate</authoring_tool>
		</contributor>
		<created>2026-08-04T13:34:14Z</created>
		<modified>2026-08-04T13:34:14Z</modified>
		<unit meter="0.01" name="centimeter" />
		<up_axis>Y_UP</up_axis>
	</asset>
	<library_materials>
		<material id="mat_shadow">
			<instance_effect url="#mat_shadow-fx" />
		</material>
	</library_materials>
	<library_effects>
		<effect id="mat_shadow-fx" name="mat_shadow">
			<profile_COMMON>
				<technique sid="COMMON">
					<phong>
						<diffuse />
					</phong>
				</technique>
			</profile_COMMON>
		</effect>
	</library_effects>
	<library_geometries>
		<geometry id="polygon0" name="polygon0">
			<mesh>
				<source id="polygon0_Positions">
					<float_array id="polygon0_PosArr" count="96">-21.59375 -100 133.4531 0 -100 139.9688 -28.39063 -100 109.3047 21.59375 -100 133.4531 28.39063 -100 109.3047 21.59375 50 133.4531 0 50 139.9688 28.39063 50 109.3047 -21.59375 50 133.4531 -28.39063 50 109.3047 56.90625 -100 56.10156 65.70313 -100 16.03125 0 -100 16.03125 54.88281 -100 -28.25781 24.32031 -100 -57.61719 -54.88281 50 -28.25781 -24.32031 50 -57.61719 0 50 16.03125 24.32031 50 -57.61719 54.88281 50 -28.25781 65.70313 50 16.03125 56.90625 50 56.10156 20.78125 50 85.42969 -20.78125 50 85.42969 -56.90625 50 56.10156 -65.70313 50 16.03125 20.78125 -100 85.42969 -20.78125 -100 85.42969 -56.90625 -100 56.10156 -65.70313 -100 16.03125 -54.88281 -100 -28.25781 -24.32031 -100 -57.61719</float_array>
					<technique_common>
						<accessor source="#polygon0_PosArr" count="32" stride="3">
							<param name="X" type="float" />
							<param name="Y" type="float" />
							<param name="Z" type="float" />
						</accessor>
					</technique_common>
				</source>
				<source id="polygon0_Normals">
					<float_array id="polygon0_NormArr" count="51">0 -1 0 0 1 0 -0.2890625 0 0.9573364 0.9527588 0 -0.3037109 -0.9527588 0 -0.3037109 0.2890625 0 0.9573364 -0.9625854 0 0.2709961 0.9714355 0 -0.2374268 0.9766846 0 0.2145386 0.6304321 0 0.7762451 0.9625854 0 0.2709961 -0.6304321 0 0.7762451 -0.9766846 0 0.2145386 -0.9714355 0 -0.2374268 -0.6928711 0 -0.7210693 0 0 -1 0.6928711 0 -0.7210693</float_array>
					<technique_common>
						<accessor source="#polygon0_NormArr" count="17" stride="3">
							<param name="X" type="float" />
							<param name="Y" type="float" />
							<param name="Z" type="float" />
						</accessor>
					</technique_common>
				</source>
				<vertices id="polygon0_Vertices">
					<input semantic="POSITION" source="#polygon0_Positions" />
				</vertices>
				<triangles material="mat_shadow" count="60">
					<input semantic="VERTEX" source="#polygon0_Vertices" offset="0" />
					<input semantic="NORMAL" source="#polygon0_Normals" offset="1" />
					<p>2 0 1 0 0 0 3 0 1 0 2 0 4 0 3 0 2 0 7 1 6 1 5 1 8 1 6 1 7 1 9 1 8 1 7 1 12 0 11 0 10 0 13 0 11 0 12 0 14 0 13 0 12 0 17 1 16 1 15 1 18 1 16 1 17 1 19 1 18 1 17 1 17 1 20 1 19 1 21 1 20 1 17 1 22 1 21 1 17 1 17 1 23 1 22 1 24 1 23 1 17 1 25 1 24 1 17 1 0 2 6 2 8 2 1 2 6 2 0 2 22 3 4 3 26 3 7 3 4 3 22 3 27 4 9 4 23 4 2 4 9 4 27 4 1 5 5 5 6 5 3 5 5 5 1 5 2 6 8 6 9 6 0 6 8 6 2 6 13 7 20 7 11 7 19 7 20 7 13 7 11 8 21 8 10 8 20 8 21 8 11 8 10 9 22 9 26 9 21 9 22 9 10 9 3 10 7 10 5 10 4 10 7 10 3 10 27 11 24 11 28 11 23 11 24 11 27 11 28 12 25 12 29 12 24 12 25 12 28 12 29 13 15 13 30 13 25 13 15 13 29 13 30 14 16 14 31 14 15 14 16 14 30 14 14 15 16 15 18 15 31 15 16 15 14 15 14 16 19 16 13 16 18 16 19 16 14 16 2 0 26 0 4 0 27 0 26 0 2 0 7 1 23 1 9 1 22 1 23 1 7 1 26 0 12 0 10 0 27 0 12 0 26 0 28 0 12 0 27 0 29 0 12 0 28 0 30 0 12 0 29 0 31 0 12 0 30 0 31 0 14 0 12 0 15 1 25 1 17 1</p>
				</triangles>
			</mesh>
		</geometry>
	</library_geometries>
	<library_controllers>
		<controller id="polygon0_Controller">
			<skin source="#polygon0">
				<bind_shape_matrix>1 0 0 0 0 1 0 0 0 0 1 0 0 0 0 1</bind_shape_matrix>
				<source id="polygon0_Joints">
					<Name_array id="polygon0_JointArr" count="1">head_shadow</Name_array>
					<technique_common>
						<accessor source="#polygon0_JointArr" count="1">
							<param name="JOINT" type="Name" />
						</accessor>
					</technique_common>
				</source>
				<source id="polygon0_Matrices">
					<float_array id="polygon0_MatArr" count="16">1 0 0 0 0 1 0 0 0 0 1 0 0 0 0 1</float_array>
					<technique_common>
						<accessor source="#polygon0_MatArr" count="1" stride="16">
							<param type="float4x4" />
						</accessor>
					</technique_common>
				</source>
				<source id="polygon0_Weights">
					<float_array id="polygon0_WeightArr" count="1">1</float_array>
					<technique_common>
						<accessor source="#polygon0_WeightArr" count="1">
							<param type="float" />
						</accessor>
					</technique_common>
				</source>
				<joints>
					<input semantic="JOINT" source="#polygon0_Joints" />
					<input semantic="INV_BIND_MATRIX" source="#polygon0_Matrices" />
				</joints>
				<vertex_weights count="32">
					<input semantic="JOINT" offset="0" source="#polygon0_Joints" />
					<input semantic="WEIGHT" offset="1" source="#polygon0_Weights" />
					<vcount>1 1 1 1 1 1 1 1 1 1 1 1 1 1 1 1 1 1 1 1 1 1 1 1 1 1 1 1 1 1 1 1</vcount>
					<v>0 0 0 0 0 0 0 0 0 0 0 0 0 0 0 0 0 0 0 0 0 0 0 0 0 0 0 0 0 0 0 0 0 0 0 0 0 0 0 0 0 0 0 0 0 0 0 0 0 0 0 0 0 0 0 0 0 0 0 0 0 0 0 0</v>
				</vertex_weights>
			</skin>
		</controller>
	</library_controllers>
	<library_visual_scenes>
		<visual_scene id="RootNode" name="RootNode">
			<node id="head_shadow" name="head_shadow" sid="head_shadow" type="JOINT" />
			<node id="polygon0" name="polygon0" type="NODE">
				<instance_controller url="#polygon0_Controller">
					<skeleton>#head_shadow</skeleton>
					<bind_material>
						<technique_common>
							<instance_material symbol="mat_shadow" target="#mat_shadow" />
						</technique_common>
					</bind_material>
				</instance_controller>
			</node>
		</visual_scene>
	</library_visual_scenes>
	<scene>
		<instance_visual_scene url="#RootNode" />
	</scene>
</COLLADA>