<?xml version="1.0" encoding="utf-8"?>
<COLLADA version="1.5.0" xmlns="http://www.collada.org/2008/03/COLLADASchema">
	<asset>
		<contributor>
			<authoring_tool>BrawlCrate</authoring_tool>
		</contributor>
		<created>2026-08-04T13:34:15Z</created>
		<modified>2026-08-04T13:34:15Z</modified>
		<unit meter="0.01" name="centimeter" />
		<up_axis>Y_UP</up_axis>
	</asset>
	<library_images>
		<image id="lm_0-image" name="lm_0">
			<init_from>
				<ref>lm_0.png</ref>
			</init_from>
		</image>
		<image id="lm_1-image" name="lm_1">
			<init_from>
				<ref>lm_1.png</ref>
			</init_from>
		</image>
		<image id="obj_hanachan_all.0-image" name="obj_hanachan_all.0">
			<init_from>
				<ref>obj_hanachan_all.0.png</ref>
			</init_from>
		</image>
	</library_images>
	<library_materials>
		<material id="obj_hanachan_all_tx">
			<instance_effect url="#obj_hanachan_all_tx-fx" />
		</material>
	</library_materials>
	<library_effects>
		<effect id="obj_hanachan_all_tx-fx" name="obj_hanachan_all_tx">
			<profile_COMMON>
				<newparam sid="obj_hanachan_all.0-surface">
					<surface type="2D">
						<init_from>
							<ref>obj_hanachan_all.0-image</ref>
						</init_from>
					</surface>
				</newparam>
				<newparam sid="obj_hanachan_all.0-sampler">
					<sampler2D>
						<source>obj_hanachan_all.0-surface</source>
						<instance_image url="#obj_hanachan_all.0-image" />
						<wrap_s>WRAP</wrap_s>
						<wrap_t>WRAP</wrap_t>
						<minfilter>LINEAR</minfilter>
						<magfilter>LINEAR</magfilter>
					</sampler2D>
				</newparam>
				<newparam sid="lm_0-surface">
					<surface type="2D">
						<init_from>
							<ref>lm_0-image</ref>
						</init_from>
					</surface>
				</newparam>
				<newparam sid="lm_0-sampler">
					<sampler2D>
						<source>lm_0-surface</source>
						<instance_image url="#lm_0-image" />
						<wrap_s>CLAMP</wrap_s>
						<wrap_t>CLAMP</wrap_t>
						<minfilter>LINEAR</minfilter>
						<magfilter>LINEAR</magfilter>
					</sampler2D>
				</newparam>
				<newparam sid="lm_1-surface">
					<surface type="2D">
						<init_from>
							<ref>lm_1-image</ref>
						</init_from>
					</surface>
				</newparam>
				<newparam sid="lm_1-sampler">
					<sampler2D>
						<source>lm_1-surface</source>
						<instance_image url="#lm_1-image" />
						<wrap_s>CLAMP</wrap_s>
						<wrap_t>CLAMP</wrap_t>
						<minfilter>LINEAR</minfilter>
						<magfilter>LINEAR</magfilter>
					</sampler2D>
				</newparam>
				<technique sid="COMMON">
					<phong>
						<diffuse>
							<texture texture="obj_hanachan_all.0-sampler" texcoord="TEXCOORD0" />
						</diffuse>
					</phong>
				</technique>
			</profile_COMMON>
		</effect>
	</library_effects>
	<library_geometries>
		<geometry id="polygon0" name="polygon0">
			<mesh>
				<source id="polygon0_Positions">
					<float_array id="polygon0_PosArr" count="588">78.00117 161.7199 -36.94592 96.26013 184.715 -18.73093 68.77128 179.3371 -57.43872 85.05206 207.2952 -44.94457 51.97551 194.0034 -75.28281 63.19982 225.7256 -67.42892 26.37203 201.3178 -85.60188 30.85111 235.3942 -80.94696 -5.106486 237.2496 -86.07843 -8.22555 272.2438 -72.34416 -47.66843 262.1805 -64.35609 -10.34475 300.548 -46.80844 -49.71727 290.4941 -38.84247 -11.16293 317.8442 -14.09463 -45.69691 308.8532 -7.074914 -11.00971 325.6912 19.55547 -37.98874 318.4143 25.44971 -9.411897 319.5335 54.75262 -38.77919 308.1114 65.07063 -58.10422 49.7882 -13.98156 -33.79784 26.63673 -21.31247 -25.83822 49.88721 9.750054 -14.18238 26.14977 32.22791 -40.6355 49.90652 49.80243 -39.30359 55.63752 71.29409 -76.90224 55.63753 71.29409 -58.10423 47.14292 91.9994 -86.63009 44.75814 83.43204 -58.10362 25.85466 100.5477 -91.57368 25.8635 86.99435 -88.77776 -5.750459E-06 82.27739 -102.0261 26.14978 32.22791 -98.44553 8.420003E-06 32.72253 -82.41058 26.63673 -21.31247 -78.02795 2.217963E-05 -18.6714 -38.18053 1.406538E-05 -18.6714 91.20628 160.5078 7.937555 107.3236 212.3591 4.426062 101.7071 184.741 34.86472 104.9998 240.7693 29.82576 99.39365 213.1918 60.20265 90.20373 265.3096 53.25283 85.15434 241.0364 79.8606 64.37214 265.3482 93.44173 51.82181 247.7521 112.1089 27.47738 273.7768 109.0947 28.7812 235.5687 123.7812 -1.889895 262.3547 119.4127 1.802353 228.2973 129.6826 38.18053 8.822807E-06 -18.67141 33.79784 26.63672 -21.31248 17.76294 -7.43826E-06 32.72252 14.18238 26.14976 32.22791 26.84086 25.86348 87.83051 30.6801 44.75813 83.85009 58.10363 25.85465 100.5477 58.10423 47.14291 91.9994 86.63009 44.75813 83.43203 76.90224 55.63752 71.29409 102.0261 26.14977 32.2279 75.5677 49.90653 49.80243 90.37025 49.88721 9.750049 -61.02923 306.2364 37.1292 -74.70243 293.1308 8.22902 -82.64592 272.4269 -21.40648 -80.65495 244.0728 -46.89706 -39.64646 228.3447 -78.97984 -28.77538 195.8033 -84.06311 -1.796518 203.0746 -89.96458 36.74074 171.6559 5.904152 46.77799 171.6559 36.74895 39.79336 98.23782 7.408819 49.63218 78.15958 38.97134 49.79687 44.17659 37.44675 67.79534 77.66949 37.81245 67.75568 44.17582 36.3539 73.37589 98.23782 4.672593 73.56182 44.17737 3.082033 40.16239 44.17737 5.818203 48.74617 144.7391 -48.5648 6.05931 135.0913 -52.12466 38.785 123.2607 -25.35253 9.41769 111.8385 -15.03459 37.99452 112.9577 14.26833 11.01551 105.6808 20.16265 11.16874 113.5278 53.81283 -17.15289 107.4432 15.80716 -24.78891 115.3898 48.68909 -57.13759 125.0517 35.16328 -67.53633 144.3482 65.86064 1.895702 169.0173 -79.6946 -27.47157 157.5952 -69.37667 -37.43278 136.1167 -46.16438 -22.15275 117.1638 -23.65512 -59.55218 129.4239 -12.35608 -42.75654 114.7521 5.480816 -78.98995 143.4888 12.68667 10.32688 131.2119 87.11945 -30.70764 133.2365 81.38469 8.174791 159.7659 112.3727 -32.78654 161.7785 106.6402 5.112337 194.1225 125.7965 -30.84099 195.9205 120.6138 -26.36622 230.0542 125.32 -51.96972 237.3686 115.0009 -33.46037 267.6798 110.7921 -68.76549 252.0349 97.15679 -48.74038 286.6329 88.28294 -63.19403 205.6464 107.147 -85.04135 224.0111 84.60395 -96.25433 246.657 58.44894 -94.55032 193.7982 65.61436 -107.1697 219.5446 35.73845 -92.581 165.313 40.28605 -105.2223 191.0967 10.34923 -90.19802 166.0623 -13.53474 -85.14417 190.2762 -40.19549 39.65637 202.9726 118.6491 47.54766 169.8116 104.3986 80.47587 187.887 86.97076 82.75623 159.3829 61.67241 74.70819 138.2411 31.48902 37.43859 295.2553 85.8824 22.15858 314.2081 63.37313 59.55797 301.9481 52.07415 42.76237 316.6198 34.23722 79.00084 287.8147 26.97017 57.14341 306.3203 4.55481 92.38079 266.5076 -0.05828913 67.38065 287.4351 -25.58737 94.68176 238.1514 -25.50314 69.63782 259.1076 -51.0854 32.80839 270.2278 -66.60172 -17.76294 -1.911345E-07 32.72253 -26.84085 25.86349 87.83052 -30.68009 44.75813 83.85009 -51.81602 183.6199 -72.39085 -64.36638 166.0238 -53.72366 -68.78226 147.0355 -32.8561 40.6355 49.90652 49.80243 25.83822 49.8872 9.750051 58.10422 49.78819 -13.98156 82.41058 26.63673 -21.31248 -75.5677 49.90654 49.80243 -90.37025 49.88722 9.750055 73.58548 142.7371 -16.07111 61.03502 125.1356 2.588834 45.70867 122.4393 46.72193 21.88815 66.30698 9.438486 57.93518 66.31073 -17.3182 94.32029 66.30699 9.438483 77.0837 66.30698 53.20172 65.13956 171.6559 34.8723 69.85277 171.6559 2.69208 68.65172 218.8357 103.4728 -69.55055 172.8789 91.15158 -46.77799 171.6559 36.74895 -67.79534 77.66952 37.81245 -65.13956 171.6559 34.87229 -73.37589 98.23783 4.672595 -69.85277 171.6559 2.692079 -39.79336 98.23784 7.40882 -36.74074 171.6559 5.904149 -49.63218 78.15959 38.97134 -49.79687 44.1766 37.44676 -67.75568 44.17583 36.35391 98.44552 -7.906083E-07 32.72252 88.77776 -1.713772E-05 82.27738 91.57369 25.86349 86.99435 58.10423 -2.47211E-05 95.72298 29.63681 -2.406784E-05 83.11355 -73.5797 288.6348 55.78918 -77.99539 269.652 76.66402 -58.10423 -1.342588E-05 95.72299 -29.63681 -1.407913E-05 83.11355 -68.64597 212.5362 -63.75468 -99.6064 218.7233 -20.08177 -73.56182 44.17738 3.08204 -40.16239 44.17738 5.818209 -6.053539 296.2806 91.84288 39.30359 55.63751 71.29409 39.15572 66.30696 53.20172 -77.0837 66.30698 53.20173 -94.32029 66.307 9.43849 -57.93519 66.31073 -17.3182 -101.5633 247.114 5.353418 -91.19489 270.7893 31.71354 30.617 298.5273 -41.08414 24.8005 315.9053 -9.039651 17.15871 323.9288 23.91091 49.76908 141.2838 79.13911 33.46611 163.6922 -71.07404 68.78802 284.3365 72.57411 78.02795 1.596734E-05 -18.67141 -21.88815 66.30698 9.438489 -39.15572 66.30698 53.20173</float_array>
					<technique_common>
						<accessor source="#polygon0_PosArr" count="196" stride="3">
							<param name="X" type="float" />
							<param name="Y" type="float" />
							<param name="Z" type="float" />
						</accessor>
					</technique_common>
				</source>
				<source id="polygon0_Normals">
					<float_array id="polygon0_NormArr" count="585">0.7184448 -0.4772949 -0.5059204 0.9041748 -0.262207 -0.3372192 0.619873 -0.3400879 -0.7072144 0.8099976 -0.04162599 -0.5849609 0.4781494 -0.1792603 -0.8598022 0.5928345 0.1239624 -0.7957153 0.2383423 -0.1422119 -0.9606934 0.2919312 0.2268677 -0.9291382 -0.05035401 0.2324219 -0.9713135 -0.0756836 0.5192261 -0.8512573 -0.4441528 0.4338379 -0.7838745 -0.09552002 0.7840576 -0.6133423 -0.4634399 0.6959839 -0.5485229 -0.1029053 0.9328613 -0.3452759 -0.4338379 0.8527832 -0.2907715 -0.1000976 0.994751 -0.02166748 -0.3428955 0.9373169 0.06164551 -0.0854492 0.9433594 0.3205566 -0.3504028 0.840332 0.4136353 0.0003051683 0.3276977 -0.9447632 0.6600342 0.138916 -0.7382813 0.9196167 0.2713623 -0.2841187 0.9376831 0.3460693 -0.03186037 0.6959229 0.6290894 0.3463134 0.3508301 0.9312744 0.0981445 -0.3449097 0.9342651 0.09057616 -6.101795E-05 0.7092285 0.7050171 -0.6009521 0.5507813 0.5792236 0.00042726 0.1585083 0.9873657 -0.7733765 0.06457522 0.6306763 -0.4666748 -0.800293 0.3765259 -0.9330444 0.3564453 -0.0482788 -0.7467651 -0.6508179 -0.137207 -0.6600342 0.138916 -0.7382813 -0.4389038 -0.6175537 -0.6526489 0.4389038 -0.6175537 -0.6526489 0.8688354 -0.4887085 -0.07940675 0.9890747 -0.03253175 -0.1438599 0.9474487 -0.2873535 0.140686 0.9680786 0.232727 0.0932617 0.9266968 -0.02459718 0.374939 0.8511963 0.4382935 0.2886353 0.8164673 0.2047729 0.539856 0.5786133 0.4597168 0.6737061 0.4801025 0.2749634 0.8330078 0.2474976 0.5303955 0.8108521 0.2581787 0.1915283 0.9468994 -0.01751707 0.4272461 0.9039307 0.01824952 0.09527588 0.9953003 -0.6600342 0.138916 -0.7382813 -0.746521 -0.6529541 -0.1280517 -0.9376831 0.3460693 -0.03186031 -0.7640991 0.05065917 0.6431274 -0.6044312 0.5325317 0.5925294 -0.0004272081 0.1585083 0.9873657 6.106952E-05 0.7092285 0.7050171 0.6009521 0.5507813 0.5792236 0.3449097 0.9342651 0.09057618 0.9330444 0.3564453 -0.04827883 0.6960449 0.6289673 0.3463135 0.9190674 0.272583 -0.284668 -0.5620728 0.8150635 0.140625 -0.7010498 0.7001953 -0.1351318 -0.762207 0.5247192 -0.3790894 -0.743042 0.2596436 -0.6168213 -0.381897 0.1594849 -0.9103394 -0.2580566 -0.1918335 -0.9468994 -0.01818849 -0.09558105 -0.9952393 -0.8334351 -0.04876707 -0.5504761 -0.7540894 -0.01068116 0.6566772 -0.9793701 -0.02136229 -0.2009887 -0.5681762 -0.017334 0.8227539 -0.7613525 -0.03149415 0.647583 0.6702271 0.003601048 0.7421875 0.8366699 -0.02215579 0.5472412 0.9430542 0.019104 -0.3320313 0.7386475 0.02227784 -0.6737671 -0.8272095 0.01098635 -0.5618286 0.4403076 -0.6464844 -0.6230469 0.05596922 -0.7446899 -0.6650391 0.3504028 -0.840332 -0.4136353 0.0854492 -0.9433594 -0.3205566 0.3427734 -0.9373779 -0.06207276 0.1000366 -0.994751 0.02130127 0.1029053 -0.9325562 0.3460083 -0.1533203 -0.9869995 -0.04815673 -0.2398682 -0.9199219 0.3101196 -0.5403442 -0.8240356 0.1703491 -0.6221924 -0.6592407 0.4222412 0.01751707 -0.4272461 -0.9039307 -0.2474976 -0.5303955 -0.8108521 -0.3374024 -0.7242432 -0.6013184 -0.1994629 -0.8953247 -0.3982544 -0.5349121 -0.7892456 -0.3015137 -0.3963623 -0.9109497 -0.1142578 -0.7579346 -0.6514282 -0.03405761 0.09527588 -0.7802734 0.618103 -0.2861938 -0.7671509 0.5740967 0.07525636 -0.5142212 0.8543701 -0.305603 -0.5039063 0.8079224 0.05029298 -0.2317505 0.9714966 -0.2919312 -0.2263184 0.9292603 -0.2384033 0.1419067 0.9607544 -0.4782715 0.1790161 0.8597412 -0.3024902 0.4754028 0.8261719 -0.6200562 0.3398438 0.7071533 -0.4403076 0.6464844 0.6230469 -0.5926514 -0.123291 0.7959595 -0.8098145 0.04211427 0.5852051 -0.9038696 0.2627563 0.3375854 -0.8814087 -0.2054443 0.425354 -0.9883423 0.03704835 0.1478272 -0.8626099 -0.4684448 0.1911011 -0.9694214 -0.2284546 -0.08929442 -0.8515625 -0.4378662 -0.288269 -0.8167725 -0.2043457 -0.5396118 0.3817139 -0.1589355 0.9105225 0.4433594 -0.4290161 0.7869873 0.7419434 -0.2548828 0.6201172 0.7626953 -0.5206909 0.383606 0.7012939 -0.6998291 0.1357422 0.3374024 0.7242432 0.6013184 0.1994629 0.8953247 0.3982544 0.5351563 0.7891846 0.3012695 0.3965454 0.9109497 0.1139526 0.7576294 0.6517334 0.03448486 0.5400391 0.8243408 -0.1697388 0.8613281 0.4724121 -0.1868897 0.6211548 0.6630859 -0.4176636 0.882019 0.210144 -0.421814 0.6417847 0.3981934 -0.6553955 0.305603 0.5088501 -0.8048096 0.746521 -0.6529541 -0.1280518 0.7640991 0.05065919 0.6431274 0.6044312 0.5325317 0.5925293 -0.4799194 -0.2751465 -0.8330688 -0.5783691 -0.4598999 -0.6737671 -0.6365967 -0.612854 -0.4681396 -0.6959229 0.6290894 0.3463135 -0.9196167 0.2713623 -0.2841186 -0.0003052063 0.3276978 -0.9447632 0.6600342 0.138916 -0.7382813 -0.6960449 0.6289673 0.3463135 -0.9190674 0.272583 -0.284668 0.6630249 -0.6694946 -0.3349609 0.5618896 -0.8151245 -0.1409302 0.43396 -0.8525391 0.2913208 -0.6601563 0.725647 -0.1940307 -0.0007324506 0.3950806 -0.9186401 0.6586304 0.7268066 -0.1948242 0.5312501 0.3537597 0.7698364 0.8389282 0.04687498 0.5421753 0.7262573 0.01916505 -0.6871948 0.6483154 0.0008544843 0.7613525 -0.6414185 -0.3932495 0.6586914 0.7540894 -0.01068115 0.6566772 -0.6702271 0.003601101 0.7421875 -0.8389282 0.04687502 0.5421753 -0.9430542 0.01910401 -0.3320313 -0.7262573 0.01916503 -0.6871948 0.9793701 -0.02136232 -0.2009888 0.8334351 -0.04876711 -0.5504761 0.5681763 -0.01733397 0.8227539 0.7613525 -0.03149413 0.647583 -0.8366699 -0.02215574 0.5472412 0.7467651 -0.6508179 -0.1372071 0.4666748 -0.800293 0.3765258 0.7733765 0.06457517 0.6306763 -0.001037576 -0.6050415 0.7962036 -0.4628296 -0.7975464 0.3869019 -0.663269 0.6693115 0.3347168 -0.718689 0.4771729 0.5057373 0.0010376 -0.6050415 0.7962036 0.4628296 -0.7975464 0.3869019 -0.6486206 -0.0002441327 -0.7611084 -0.9280396 0.02905275 -0.3713989 -0.7386475 0.02227782 -0.6737671 0.8272095 0.0109863 -0.5618286 -0.05596922 0.7446899 0.6650391 -0.35083 0.9312744 0.09814457 -0.5310668 0.354187 0.7697754 -0.53125 0.3537598 0.7698364 -0.6586304 0.7268066 -0.1948242 0.0007324155 0.3950805 -0.9186401 -0.9467773 0.2915649 -0.1364746 -0.8685913 0.4890747 0.07983399 0.2855225 0.770874 -0.569397 0.2397461 0.920166 -0.3095093 0.1534424 0.9869995 0.04779052 0.463562 -0.6921387 0.5532227 0.3024902 -0.4754028 -0.8261719 0.6367798 0.6127319 0.4679565 0.4389038 -0.6175537 -0.652649 0.6601563 0.725647 -0.1940308 0.5310669 0.354187 0.7697754</float_array>
					<technique_common>
						<accessor source="#polygon0_NormArr" count="195" stride="3">
							<param name="X" type="float" />
							<param name="Y" type="float" />
							<param name="Z" type="float" />
						</accessor>
					</technique_common>
				</source>
				<source id="polygon0_Colors0">
					<float_array id="polygon0_ColorArr0" count="104">1 1 1 1 0.6039216 0.6039216 0.6039216 0.6039216 0.8588236 0.8588236 0.8588236 0.8588236 0.7294118 0.7294118 0.7294118 0.7294118 0.8901961 0.8901961 0.8901961 0.8901961 0.8274511 0.8274511 0.8274511 0.8274511 0.8431373 0.8431373 0.8431373 0.8431373 0.6666667 0.6666667 0.6666667 0.6666667 0.8117648 0.8117648 0.8117648 0.8117648 0.9215687 0.9215687 0.9215687 0.9215687 0.9529412 0.9529412 0.9529412 0.9529412 0.9843138 0.9843138 0.9843138 0.9843138 0.7450981 0.7450981 0.7450981 0.7450981 0.6509804 0.6509804 0.6509804 0.6509804 0.6352941 0.6352941 0.6352941 0.6352941 0.6980392 0.6980392 0.6980392 0.6980392 0.2352941 0.2352941 0.2352941 0.2352941 0.3019608 0.3019608 0.3019608 0.3019608 0.937255 0.937255 0.937255 0.937255 0.7803922 0.7803922 0.7803922 0.7803922 0.682353 0.682353 0.682353 0.682353 0.764706 0.764706 0.764706 0.764706 0.6196079 0.6196079 0.6196079 0.6196079 0.7137255 0.7137255 0.7137255 0.7137255 0.9686275 0.9686275 0.9686275 0.9686275 0.7960785 0.7960785 0.7960785 0.7960785</float_array>
					<technique_common>
						<accessor source="#polygon0_ColorArr0" count="26" stride="4">
							<param name="R" type="float" />
							<param name="G" type="float" />
							<param name="B" type="float" />
							<param name="A" type="float" />
						</accessor>
					</technique_common>
				</source>
				<source id="polygon0_UVs0">
					<float_array id="polygon0_UVArr0" count="420">0.3309326 0.2490234 0.3649902 0.3371582 0.2971191 0.2507324 0.3206787 0.3392334 0.2631836 0.2523193 0.2763672 0.3413086 0.2174072 0.2539063 0.2182617 0.3433838 0.1601563 0.3453369 0.1506348 0.4637451 0.1026611 0.4645996 0.1518555 0.588501 0.1033936 0.5893555 0.1584473 0.6942139 0.1135254 0.6950684 0.1685791 0.7747803 0.1291504 0.77771 0.1826172 0.8544922 0.1202393 0.854248 0.9891357 0.1795654 0.9891357 0.08496094 0.9667969 0.1795654 0.9482422 0.08544922 0.9436035 0.1795654 0.9083252 0.1697998 0.8674316 0.1568604 0.8825684 0.1331787 0.8620605 0.08435059 0.8729248 0.08496094 0.8771973 0.02001953 0.949585 0.02001953 0.9890137 0.02001953 0.4558105 1.478027 0.3912354 1.372437 0.423584 1.597046 0.354126 1.480225 0.3735352 1.740356 0.3059082 1.60437 0.3121338 1.858032 0.2509766 1.73877 0.2005615 1.858398 0.1437988 1.785034 0.1112061 1.885498 0.08679199 1.723267 0.02770996 1.812744 0.02990723 1.685547 0.08972168 0.7806396 0.06860352 0.6958008 0.05480957 0.59021 0.0546875 0.4654541 0.1148682 0.3461914 0.1369629 0.2561035 0.1715088 0.2554932 0.5284424 0.01477051 0.5219727 0.01477051 0.5284424 0.09118652 0.5219727 0.1047363 0.5219727 0.161377 0.515625 0.1048584 0.515625 0.1611328 0.5028076 0.09118652 0.5028076 0.1907959 0.4901123 0.09118652 0.4901123 0.1907959 0.4953613 0.9378662 0.4881592 0.9377441 0.4934082 0.9328613 0.4881592 0.9307861 0.4921875 0.9296875 0.4881592 0.9282227 0.4881592 0.9256592 0.4848633 0.9295654 0.4837646 0.9276123 0.4796143 0.9298096 0.4766846 0.9278564 0.4880371 0.9472656 0.4844971 0.9460449 0.4881592 0.9447021 0.4832764 0.9425049 0.4813232 0.9375 0.4835205 0.9326172 0.4801025 0.9345703 0.4815674 0.9312744 0.4777832 0.9338379 0.4886475 0.9542236 0.4836426 0.9559326 0.4886475 0.9561768 0.4842529 0.9575195 0.4886475 0.9580078 0.4848633 0.9592285 0.4854736 0.9609375 0.4822998 0.9619141 0.4836426 0.963501 0.4803467 0.965332 0.4814453 0.9683838 0.4553223 2.555176 0.4207764 2.416016 0.4123535 2.63623 0.3778076 2.499634 0.3118896 2.621338 0.3171387 2.387573 0.2537842 2.515747 0.2512207 2.275513 0.1843262 2.40625 0.1219482 2.302368 0.07055664 2.415771 0.04370117 1.525879 0.1109619 1.578613 0.1501465 1.419189 0.2314453 1.502563 0.2745361 1.370239 0.3140869 1.254883 0.3093262 0.852417 0.2497559 0.8531494 0.3017578 0.7700195 0.2635498 0.7716064 0.3187256 0.6882324 0.2746582 0.6903076 0.3302002 0.5820313 0.2827148 0.5842285 0.3317871 0.456665 0.28479 0.4589844 0.3786621 0.4543457 0.2176514 0.4614258 0.4816895 0.9442139 0.4803467 0.9407959 0.4790039 0.9375 0.4766846 0.9373779 0.4981689 0.9379883 0.4968262 0.9345703 0.4954834 0.9311523 0.4934082 0.9274902 0.8408203 0.02600098 0.8408203 0.1044922 0.7872314 0.1044922 0.8408203 0.1776123 0.7872314 0.1776123 0.7872314 0.02600098 0.515625 0.01477051 0.5028076 0.01477051 0.4901123 0.01477051 0.182251 1.651978 0.4810791 0.9604492 0.4798584 0.9589844 0.4787598 0.9575195 0.3778076 0.579834 0.3626709 0.6861572 0.6496582 0.09765625 0.637085 0.1711426 0.637085 0.02404785 0.5869141 0.1844482 0.5869141 0.01074219 0.5472412 0.04614258 0.4816895 0.9749756 0.4833984 0.9733887 0.4802246 0.9718018 0.4790039 0.9685059 0.8676758 0.02050781 0.02197266 2.53186 0.0690918 2.669922 0.1230469 2.536743 0.4886475 0.9615479 0.4886475 0.9686279 0.4937744 0.9628906 0.4954834 0.96875 0.1345215 2.769897 0.2004395 2.838013 0.190918 2.639404 0.2598877 2.723145 0.3203125 2.810669 0.2172852 0.5864258 0.2165527 0.6922607 0.2160645 0.7731934 0.07580566 1.366699 0.1911621 1.297485 0.1237793 1.233154 0.1721191 1.127075 0.4915771 0.9460449 0.4931641 0.942749 0.494873 0.9447021 0.49646 0.9411621 0.1849365 2.172974 0.3133545 2.158325 0.2369385 2.072388 0.7156982 0.19104 0.7561035 0.1306152 0.6757813 0.1306152 0.7386475 0.01794434 0.6932373 0.01794434 0.190918 1.98584 0.2456055 1.944458 0.4886475 0.9760742 0.4992676 0.9337158 0.4976807 0.9294434 0.4934082 0.973877 0.3695068 2.717163 0.4886475 0.9598389 0.2426758 1.172974 0.3709717 2.289185 0.5472412 0.1490479 0.3399658 0.7683105 0.4881592 0.9226074 0.4820557 0.9251709 0.1022949 0.2567139 0.06970215 0.3469238 0.272583 2.902588 0.4783936 0.9416504 0.5009766 0.9381104 0.5284424 0.1907959 0.4799805 0.9460449</float_array>
					<technique_common>
						<accessor source="#polygon0_UVArr0" count="210" stride="2">
							<param name="S" type="float" />
							<param name="T" type="float" />
						</accessor>
					</technique_common>
				</source>
				<vertices id="polygon0_Vertices">
					<input semantic="POSITION" source="#polygon0_Positions" />
				</vertices>
				<triangles material="obj_hanachan_all_tx" count="364">
					<input semantic="VERTEX" source="#polygon0_Vertices" offset="0" />
					<input semantic="NORMAL" source="#polygon0_Normals" offset="1" />
					<input semantic="COLOR" source="#polygon0_Colors0" set="0" offset="2" />
					<input semantic="TEXCOORD" source="#polygon0_UVs0" set="0" offset="3" />
					<p>2 2 0 2 1 1 0 1 0 0 0 0 3 3 0 3 1 1 0 1 2 2 0 2 4 4 0 4 3 3 0 3 2 2 0 2 5 5 0 5 3 3 0 3 4 4 0 4 6 6 0 6 5 5 0 5 4 4 0 4 7 7 0 7 5 5 0 5 6 6 0 6 8 8 0 8 7 7 0 7 6 6 0 6 9 9 0 9 7 7 0 7 8 8 0 8 10 10 0 10 9 9 0 9 8 8 0 8 11 11 0 11 9 9 0 9 10 10 0 10 12 12 0 12 11 11 0 11 10 10 0 10 13 13 0 13 11 11 0 11 12 12 0 12 14 14 0 14 13 13 0 13 12 12 0 12 15 15 0 15 13 13 0 13 14 14 0 14 16 16 0 16 15 15 0 15 14 14 0 14 17 17 0 17 15 15 0 15 16 16 0 16 18 18 0 18 17 17 0 17 16 16 0 16 21 21 1 21 20 20 2 20 19 19 1 19 22 22 3 22 20 20 2 20 21 21 1 21 23 23 1 23 22 22 3 22 21 21 1 21 24 24 4 24 22 22 3 22 23 23 1 23 25 25 0 24 24 24 4 24 23 23 1 23 26 26 0 25 24 24 4 24 25 25 0 24 27 27 0 26 26 26 0 25 25 25 0 24 28 28 0 27 26 26 0 25 27 27 0 26 29 29 0 28 28 28 0 27 27 27 0 26 30 30 5 29 28 28 0 27 29 29 0 28 31 31 0 22 30 30 5 29 29 29 0 28 32 32 6 30 30 30 5 29 31 31 0 22 33 33 0 20 32 32 6 30 31 31 0 22 34 34 3 31 32 32 6 30 33 33 0 20 35 35 7 31 34 34 3 31 33 33 0 20 37 37 0 34 36 36 8 33 1 1 0 32 38 38 9 35 36 36 8 33 37 37 0 34 39 39 0 36 38 38 9 35 37 37 0 34 40 40 10 37 38 38 9 35 39 39 0 36 41 41 0 38 40 40 10 37 39 39 0 36 42 42 11 39 40 40 10 37 41 41 0 38 43 43 11 40 42 42 11 39 41 41 0 38 44 44 2 41 42 42 11 39 43 43 11 40 45 45 4 42 44 44 2 41 43 43 11 40 46 46 12 43 44 44 2 41 45 45 4 42 47 47 13 44 46 46 12 43 45 45 4 42 48 48 14 45 46 46 12 43 47 47 13 44 51 50 15 30 50 49 2 20 49 34 7 31 52 51 3 22 50 49 2 20 51 50 15 30 53 52 0 28 52 51 3 22 51 50 15 30 54 53 0 26 52 51 3 22 53 52 0 28 55 54 0 27 54 53 0 26 53 52 0 28 56 55 0 25 54 53 0 26 55 54 0 27 57 56 0 26 56 55 0 25 55 54 0 27 58 57 0 24 56 55 0 25 57 56 0 26 59 58 0 22 58 57 0 24 57 56 0 26 60 59 1 23 58 57 0 24 59 58 0 22 61 60 1 21 60 59 1 23 59 58 0 22 16 16 0 16 62 61 0 46 18 18 0 18 63 62 0 47 62 61 0 46 16 16 0 16 14 14 0 14 63 62 0 47 16 16 0 16 64 63 0 48 63 62 0 47 14 14 0 14 12 12 0 12 64 63 0 48 14 14 0 14 65 64 0 49 64 63 0 48 12 12 0 12 10 10 0 10 65 64 0 49 12 12 0 12 66 65 0 50 65 64 0 49 10 10 0 10 8 8 0 8 66 65 0 50 10 10 0 10 67 66 0 51 66 65 0 50 8 8 0 8 68 67 0 52 67 66 0 51 8 8 0 8 71 70 15 55 70 69 17 54 69 68 16 53 72 71 8 56 70 69 17 54 71 70 15 55 73 72 8 57 72 71 8 56 71 70 15 55 74 73 8 58 72 71 8 56 73 72 8 57 75 74 8 59 74 73 8 58 73 72 8 57 76 75 15 60 74 73 8 58 75 74 8 59 77 76 8 61 76 75 15 60 75 74 8 59 71 70 15 62 76 75 15 60 77 76 8 61 78 77 8 63 71 70 15 62 77 76 8 61 81 80 19 66 80 79 10 65 79 78 18 64 82 81 20 67 80 79 10 65 81 80 19 66 83 82 7 68 82 81 20 67 81 80 19 66 84 83 7 69 82 81 20 67 83 82 7 68 85 84 7 70 84 83 7 69 83 82 7 68 86 85 21 71 84 83 7 69 85 84 7 70 87 86 21 72 86 85 21 71 85 84 7 70 88 87 19 73 86 85 21 71 87 86 21 72 89 88 6 74 88 87 19 73 87 86 21 72 90 89 0 77 67 66 0 76 68 67 0 75 91 90 0 78 67 66 0 76 90 89 0 77 80 79 10 65 91 90 0 78 90 89 0 77 92 91 10 79 91 90 0 78 80 79 10 65 93 92 5 80 92 91 10 79 80 79 10 65 94 93 9 81 92 91 10 79 93 92 5 80 95 94 19 82 94 93 9 81 93 92 5 80 96 95 4 83 94 93 9 81 95 94 19 82 88 87 19 73 96 95 4 83 95 94 19 82 99 98 22 86 98 97 12 85 97 96 14 84 100 99 23 87 98 97 12 85 99 98 22 86 101 100 1 88 100 99 23 87 99 98 22 86 102 101 20 89 100 99 23 87 101 100 1 88 103 102 15 90 102 101 20 89 101 100 1 88 104 103 19 91 102 101 20 89 103 102 15 90 105 104 8 92 104 103 19 91 103 102 15 90 106 105 9 93 104 103 19 91 105 104 8 92 107 106 0 94 106 105 9 93 105 104 8 92 106 105 9 97 108 107 12 96 104 103 19 95 109 108 9 98 108 107 12 96 106 105 9 97 110 109 0 99 109 108 9 98 106 105 9 97 111 110 18 100 109 108 9 98 110 109 0 99 112 111 0 101 111 110 18 100 110 109 0 99 113 112 24 102 111 110 18 100 112 111 0 101 114 113 0 103 113 112 24 102 112 111 0 101 115 114 0 104 113 112 24 102 114 113 0 103 116 115 0 105 115 114 0 104 114 113 0 103 101 100 1 106 46 46 12 43 48 48 14 45 117 116 23 107 46 46 12 43 101 100 1 106 118 117 23 108 117 116 23 107 101 100 1 106 119 118 8 109 117 116 23 107 118 117 23 108 120 119 19 110 119 118 8 109 118 117 23 108 38 38 9 35 119 118 8 109 120 119 19 110 121 120 13 111 38 38 9 35 120 119 19 110 36 36 8 33 38 38 9 35 121 120 13 111 124 123 0 114 123 122 0 113 122 121 0 112 125 124 0 115 123 122 0 113 124 123 0 114 126 125 0 116 125 124 0 115 124 123 0 114 127 126 0 117 125 124 0 115 126 125 0 116 128 127 0 118 127 126 0 117 126 125 0 116 129 128 0 119 127 126 0 117 128 127 0 118 130 129 0 120 129 128 0 119 128 127 0 118 131 130 0 121 129 128 0 119 130 129 0 120 3 3 0 3 37 37 0 122 1 1 0 1 130 129 0 120 37 37 0 122 3 3 0 3 5 5 0 5 130 129 0 120 3 3 0 3 131 130 0 121 130 129 0 120 5 5 0 5 7 7 0 7 131 130 0 121 5 5 0 5 132 131 0 123 131 130 0 121 7 7 0 7 9 9 0 9 132 131 0 123 7 7 0 7 11 11 0 11 132 131 0 123 9 9 0 9 20 20 2 20 35 35 7 31 33 33 0 20 133 132 15 30 35 35 7 31 20 20 2 20 22 22 3 22 133 132 15 30 20 20 2 20 134 133 0 28 133 132 15 30 22 22 3 22 135 134 0 26 134 133 0 28 22 22 3 22 28 28 0 27 134 133 0 28 135 134 0 26 26 26 0 25 28 28 0 27 135 134 0 26 91 90 0 78 136 135 0 124 67 66 0 76 137 136 0 125 136 135 0 124 91 90 0 78 92 91 10 79 137 136 0 125 91 90 0 78 138 137 0 126 137 136 0 125 92 91 10 79 94 93 9 81 138 137 0 126 92 91 10 79 115 114 0 127 138 137 0 126 94 93 9 81 96 95 4 83 115 114 0 127 94 93 9 81 140 139 1 21 52 51 3 22 139 138 1 23 50 49 2 20 52 51 3 22 140 139 1 21 141 140 1 19 50 49 2 20 140 139 1 21 142 141 0 20 50 49 2 20 141 140 1 19 61 60 1 21 142 141 0 20 141 140 1 19 59 58 0 22 142 141 0 20 61 60 1 21 143 142 1 23 25 25 0 24 23 23 1 23 31 31 0 22 25 25 0 24 143 142 1 23 144 143 1 21 31 31 0 22 143 142 1 23 33 33 0 20 31 31 0 22 144 143 1 21 19 19 1 19 33 33 0 20 144 143 1 21 20 20 2 20 33 33 0 20 19 19 1 19 145 144 6 129 79 78 18 64 0 0 0 128 81 80 19 66 79 78 18 64 145 144 6 129 146 145 7 130 81 80 19 66 145 144 6 129 83 82 7 68 81 80 19 66 146 145 7 130 147 146 1 131 83 82 7 68 146 145 7 130 85 84 7 70 83 82 7 68 147 146 1 131 148 147 0 134 140 139 1 133 139 138 1 132 141 140 1 135 140 139 1 133 148 147 0 134 149 148 0 136 141 140 1 135 148 147 0 134 61 60 1 133 141 140 1 135 149 148 0 136 150 149 0 134 61 60 1 133 149 148 0 136 151 150 0 137 61 60 1 133 150 149 0 134 74 73 8 58 70 69 17 54 72 71 8 56 152 151 17 138 70 69 17 54 74 73 8 58 76 75 15 60 152 151 17 138 74 73 8 58 153 152 17 139 152 151 17 138 76 75 15 60 71 70 15 62 153 152 17 139 76 75 15 60 69 68 16 140 153 152 17 139 71 70 15 62 117 116 23 107 44 44 2 41 46 46 12 43 154 153 6 141 44 44 2 41 117 116 23 107 119 118 8 109 154 153 6 141 117 116 23 107 40 40 10 37 154 153 6 141 119 118 8 109 38 38 9 35 40 40 10 37 119 118 8 109 108 107 12 142 102 101 20 89 104 103 19 91 100 99 23 87 102 101 20 89 108 107 12 142 155 154 25 143 100 99 23 87 108 107 12 142 98 97 12 85 100 99 23 87 155 154 25 143 89 88 6 144 98 97 12 85 155 154 25 143 158 157 17 138 157 156 8 58 156 155 17 54 159 158 15 60 157 156 8 58 158 157 17 138 160 159 17 139 159 158 15 60 158 157 17 138 161 160 15 62 159 158 15 60 160 159 17 139 162 161 17 140 161 160 15 62 160 159 17 139 156 155 17 54 161 160 15 55 162 161 17 53 163 162 8 56 161 160 15 55 156 155 17 54 157 156 8 58 163 162 8 56 156 155 17 54 164 163 8 57 163 162 8 56 157 156 8 58 165 164 8 59 164 163 8 57 157 156 8 58 59 58 0 22 166 165 6 30 142 141 0 20 167 166 5 29 166 165 6 30 59 58 0 22 168 167 0 28 167 166 5 29 59 58 0 22 55 54 0 27 167 166 5 29 168 167 0 28 57 56 0 26 55 54 0 27 168 167 0 28 128 127 0 118 37 37 0 122 130 129 0 120 39 39 0 145 37 37 0 122 128 127 0 118 126 125 0 116 39 39 0 145 128 127 0 118 41 41 0 146 39 39 0 145 126 125 0 116 124 123 0 114 41 41 0 146 126 125 0 116 170 169 25 149 167 166 5 148 169 168 8 147 166 165 6 150 167 166 5 148 170 169 25 149 51 50 15 151 166 165 6 150 170 169 25 149 49 34 7 152 166 165 6 150 51 50 15 151 171 170 0 155 18 18 0 154 62 61 0 153 107 106 0 94 18 18 0 154 171 170 0 155 172 171 0 156 107 106 0 94 171 170 0 155 106 105 9 93 107 106 0 94 172 171 0 156 173 172 8 157 28 28 0 27 30 30 5 29 134 133 0 28 28 28 0 27 173 172 8 157 174 173 25 29 134 133 0 28 173 172 8 157 133 132 15 30 134 133 0 28 174 173 25 29 116 115 0 105 65 64 0 159 175 174 0 158 176 175 0 160 65 64 0 159 116 115 0 105 114 113 0 103 176 175 0 160 116 115 0 105 112 111 0 101 176 175 0 160 114 113 0 103 159 158 15 60 165 164 8 59 157 156 8 58 177 176 8 61 165 164 8 59 159 158 15 60 161 160 15 62 177 176 8 61 159 158 15 60 178 177 8 63 177 176 8 61 161 160 15 62 47 47 13 161 105 104 8 92 103 102 15 90 179 178 0 162 105 104 8 92 47 47 13 161 45 45 4 163 179 178 0 162 47 47 13 161 122 121 0 164 179 178 0 162 45 45 4 163 139 138 1 23 58 57 0 24 60 59 1 23 180 179 4 24 58 57 0 24 139 138 1 23 52 51 3 22 180 179 4 24 139 138 1 23 54 53 0 26 180 179 4 24 52 51 3 22 139 138 1 132 181 180 0 137 148 147 0 134 151 150 0 137 181 180 0 137 139 138 1 132 60 59 1 132 151 150 0 137 139 138 1 132 61 60 1 133 151 150 0 137 60 59 1 132 182 181 0 137 143 142 1 132 23 23 1 132 144 143 1 133 143 142 1 132 182 181 0 137 183 182 0 134 144 143 1 133 182 181 0 137 184 183 0 136 144 143 1 133 183 182 0 134 185 184 0 167 63 62 0 166 64 63 0 165 186 185 0 168 63 62 0 166 185 184 0 167 110 109 0 99 186 185 0 168 185 184 0 167 171 170 0 169 186 185 0 168 110 109 0 99 132 131 0 123 129 128 0 119 131 130 0 121 187 186 0 170 129 128 0 119 132 131 0 123 11 11 0 11 187 186 0 170 132 131 0 123 13 13 0 13 187 186 0 170 11 11 0 11 187 186 0 170 127 126 0 117 129 128 0 119 188 187 0 171 127 126 0 117 187 186 0 170 13 13 0 13 188 187 0 171 187 186 0 170 15 15 0 15 188 187 0 171 13 13 0 13 188 187 0 171 125 124 0 115 127 126 0 117 189 188 0 172 125 124 0 115 188 187 0 171 15 15 0 15 189 188 0 172 188 187 0 171 17 17 0 17 189 188 0 172 15 15 0 15 99 98 22 173 118 117 23 108 101 100 1 106 190 189 15 174 118 117 23 108 99 98 22 173 97 96 14 175 190 189 15 174 99 98 22 173 85 84 7 176 190 189 15 174 97 96 14 175 6 6 0 177 90 89 0 77 68 67 0 75 191 190 0 178 90 89 0 77 6 6 0 177 4 4 0 179 191 190 0 178 6 6 0 177 2 2 0 180 191 190 0 178 4 4 0 179 191 190 0 178 80 79 10 65 90 89 0 77 79 78 18 64 80 79 10 65 191 190 0 178 2 2 0 180 79 78 18 64 191 190 0 178 0 0 0 128 79 78 18 64 2 2 0 180 176 175 0 160 64 63 0 165 65 64 0 159 185 184 0 167 64 63 0 165 176 175 0 160 112 111 0 101 185 184 0 167 176 175 0 160 110 109 0 99 185 184 0 167 112 111 0 101 96 95 4 181 113 112 24 102 115 114 0 104 89 88 6 182 113 112 24 102 96 95 4 181 88 87 19 183 89 88 6 182 96 95 4 181 148 147 0 186 150 149 0 185 149 148 0 184 151 150 0 187 150 149 0 185 148 147 0 186 181 180 0 188 151 150 0 187 148 147 0 186 43 43 11 40 122 121 0 189 45 45 4 42 192 191 0 190 122 121 0 189 43 43 11 40 41 41 0 38 192 191 0 190 43 43 11 40 179 178 0 162 107 106 0 94 105 104 8 92 18 18 0 154 107 106 0 94 179 178 0 162 17 17 0 191 18 18 0 154 179 178 0 162 86 85 21 71 82 81 20 67 84 83 7 69 93 92 5 80 82 81 20 67 86 85 21 71 95 94 19 82 93 92 5 80 86 85 21 71 121 120 13 193 145 144 6 129 36 36 8 192 146 145 7 130 145 144 6 129 121 120 13 193 147 146 1 131 146 145 7 130 121 120 13 193 142 141 0 20 49 34 7 31 50 49 2 20 193 192 3 31 49 34 7 31 142 141 0 20 166 165 6 30 193 192 3 31 142 141 0 20 179 178 0 162 123 122 0 194 17 17 0 191 122 121 0 164 123 122 0 194 179 178 0 162 172 171 0 195 110 109 0 99 106 105 9 97 171 170 0 169 110 109 0 99 172 171 0 195 48 48 14 196 103 102 15 90 101 100 1 88 47 47 13 161 103 102 15 90 48 48 14 196 154 153 6 141 42 42 11 39 44 44 2 41 40 40 10 37 42 42 11 39 154 153 6 141 147 146 1 197 190 189 15 174 85 84 7 176 121 120 13 111 190 189 15 174 147 146 1 197 109 108 9 98 155 154 25 198 108 107 12 96 111 110 18 100 155 154 25 198 109 108 9 98 120 119 19 110 190 189 15 174 121 120 13 111 118 117 23 108 190 189 15 174 120 119 19 110 55 54 0 27 169 168 8 157 167 166 5 29 53 52 0 28 169 168 8 157 55 54 0 27 53 52 0 28 170 169 25 29 169 168 8 157 51 50 15 30 170 169 25 29 53 52 0 28 35 35 7 152 32 32 6 150 34 34 3 199 133 132 15 151 32 32 6 150 35 35 7 152 192 191 0 200 124 123 0 114 122 121 0 112 41 41 0 146 124 123 0 114 192 191 0 200 89 88 6 182 111 110 18 100 113 112 24 102 155 154 25 198 111 110 18 100 89 88 6 182 183 182 0 185 194 193 0 186 184 183 0 184 182 181 0 187 194 193 0 186 183 182 0 185 97 96 14 201 87 86 21 72 85 84 7 70 98 97 12 202 87 86 21 72 97 96 14 201 136 135 0 203 66 65 0 50 67 66 0 51 175 174 0 204 66 65 0 50 136 135 0 203 30 30 5 148 174 173 25 149 173 172 8 147 32 32 6 150 174 173 25 149 30 30 5 148 62 61 0 205 186 185 0 168 171 170 0 169 63 62 0 166 186 185 0 168 62 61 0 205 27 27 0 26 31 31 0 22 29 29 0 28 25 25 0 24 31 31 0 22 27 27 0 26 56 55 0 25 180 179 4 24 54 53 0 26 58 57 0 24 180 179 4 24 56 55 0 25 115 114 0 127 137 136 0 125 138 137 0 126 116 115 0 206 137 136 0 125 115 114 0 127 24 24 4 24 135 134 0 26 22 22 3 22 26 26 0 25 135 134 0 26 24 24 4 24 1 1 0 207 145 144 6 129 0 0 0 128 36 36 8 192 145 144 6 129 1 1 0 207 161 160 15 55 164 163 8 57 178 177 8 208 163 162 8 56 164 163 8 57 161 160 15 55 137 136 0 125 175 174 0 209 136 135 0 124 116 115 0 206 175 174 0 209 137 136 0 125 21 21 1 133 194 193 0 134 23 23 1 132 19 19 1 135 194 193 0 134 21 21 1 133 195 194 0 137 23 23 1 132 194 193 0 134 182 181 0 137 23 23 1 132 195 194 0 137 189 188 0 172 123 122 0 113 125 124 0 115 17 17 0 17 123 122 0 113 189 188 0 172 184 183 0 136 19 19 1 135 144 143 1 133 194 193 0 134 19 19 1 135 184 183 0 136 73 72 8 57 71 70 15 55 78 77 8 208 193 192 3 199 166 165 6 150 49 34 7 152 175 174 0 204 65 64 0 49 66 65 0 50 6 6 0 6 68 67 0 52 8 8 0 8 195 194 0 188 194 193 0 186 182 181 0 187 133 132 15 151 174 173 25 149 32 32 6 150 59 58 0 22 57 56 0 26 168 167 0 28 82 81 20 67 93 92 5 80 80 79 10 65 87 86 21 72 98 97 12 202 89 88 6 74 95 94 19 82 86 85 21 71 88 87 19 73</p>
				</triangles>
			</mesh>
		</geometry>
	</library_geometries>
	<library_controllers>
		<controller id="polygon0_Controller">
			<skin source="#polygon0">
				<bind_shape_matrix>1 0 0 0 0 1 0 0 0 0 1 0 0 0 0 1</bind_shape_matrix>
				<source id="polygon0_Joints">
					<Name_array id="polygon0_JointArr" count="5">skl_root leg_L foot_L leg_R foot_R</Name_array>
					<technique_common>
						<accessor source="#polygon0_JointArr" count="5">
							<param name="JOINT" type="Name" />
						</accessor>
					</technique_common>
				</source>
				<source id="polygon0_Matrices">
					<float_array id="polygon0_MatArr" count="80">0 1 0 -195 0 0 -1 0 -1 0 0 0 0 0 0 1 0 -1 0 130.5197 0 0 -1 21.45 1 0 0 -56.01599 0 0 0 1 0 -1 0 83.98033 0 0 -1 21.45 1 0 0 -56.01599 0 0 0 1 0 -1 0 130.5197 0 0 1 -21.45 -1 0 0 -56.01599 0 0 0 1 0 -1 0 83.98033 0 0 1 -21.45 -1 0 0 -56.01599 0 0 0 1</float_array>
					<technique_common>
						<accessor source="#polygon0_MatArr" count="5" stride="16">
							<param type="float4x4" />
						</accessor>
					</technique_common>
				</source>
				<source id="polygon0_Weights">
					<float_array id="polygon0_WeightArr" count="1">1</float_array>
					<technique_common>
						<accessor source="#polygon0_WeightArr" count="1">
							<param type="float" />
						</accessor>
					</technique_common>
				</source>
				<joints>
					<input semantic="JOINT" source="#polygon0_Joints" />
					<input semantic="INV_BIND_MATRIX" source="#polygon0_Matrices" />
				</joints>
				<vertex_weights count="196">
					<input semantic="JOINT" offset="0" source="#polygon0_Joints" />
					<input semantic="WEIGHT" offset="1" source="#polygon0_Weights" />
					<vcount>1 1 1 1 1 1 1 1 1 1 1 1 1 1 1 1 1 1 1 1 1 1 1 1 1 1 1 1 1 1 1 1 1 1 1 1 1 1 1 1 1 1 1 1 1 1 1 1 1 1 1 1 1 1 1 1 1 1 1 1 1 1 1 1 1 1 1 1 1 1 1 1 1 1 1 1 1 1 1 1 1 1 1 1 1 1 1 1 1 1 1 1 1 1 1 1 1 1 1 1 1 1 1 1 1 1 1 1 1 1 1 1 1 1 1 1 1 1 1 1 1 1 1 1 1 1 1 1 1 1 1 1 1 1 1 1 1 1 1 1 1 1 1 1 1 1 1 1 1 1 1 1 1 1 1 1 1 1 1 1 1 1 1 1 1 1 1 1 1 1 1 1 1 1 1 1 1 1 1 1 1 1 1 1 1 1 1 1 1 1 1 1 1 1 1 1</vcount>
					<v>0 0 0 0 0 0 0 0 0 0 0 0 0 0 0 0 0 0 0 0 0 0 0 0 0 0 0 0 0 0 0 0 0 0 0 0 0 0 4 0 4 0 4 0 4 0 4 0 4 0 4 0 4 0 4 0 4 0 4 0 4 0 4 0 4 0 4 0 4 0 4 0 0 0 0 0 0 0 0 0 0 0 0 0 0 0 0 0 0 0 0 0 0 0 0 0 0 0 2 0 2 0 2 0 2 0 2 0 2 0 2 0 2 0 2 0 2 0 2 0 2 0 2 0 0 0 0 0 0 0 0 0 0 0 0 0 0 0 1 0 1 0 1 0 1 0 2 0 1 0 2 0 1 0 2 0 2 0 0 0 0 0 0 0 0 0 0 0 0 0 0 0 0 0 0 0 0 0 0 0 0 0 0 0 0 0 0 0 0 0 0 0 0 0 0 0 0 0 0 0 0 0 0 0 0 0 0 0 0 0 0 0 0 0 0 0 0 0 0 0 0 0 0 0 0 0 0 0 0 0 0 0 0 0 0 0 0 0 0 0 0 0 0 0 0 0 0 0 0 0 0 0 0 0 0 0 0 0 0 0 0 0 0 0 0 0 4 0 4 0 4 0 0 0 0 0 0 0 2 0 2 0 2 0 2 0 4 0 4 0 0 0 0 0 0 0 2 0 2 0 2 0 2 0 1 0 1 0 0 0 0 0 3 0 3 0 3 0 3 0 3 0 3 0 3 0 3 0 4 0 4 0 2 0 2 0 2 0 2 0 2 0 0 0 0 0 4 0 4 0 0 0 0 0 4 0 4 0 0 0 2 0 2 0 4 0 4 0 4 0 0 0 0 0 0 0 0 0 0 0 0 0 0 0 0 0 2 0 4 0 4 0</v>
				</vertex_weights>
			</skin>
		</controller>
	</library_controllers>
	<library_visual_scenes>
		<visual_scene id="RootNode" name="RootNode">
			<node id="skl_root" name="skl_root" sid="skl_root" type="JOINT">
				<translate>0 195 0</translate>
				<rotate>0 0 1 90</rotate>
				<rotate>1 0 0 -90</rotate>
				<node id="leg_L" name="leg_L" sid="leg_L" type="JOINT">
					<translate>-64.48034 -21.45 -56.01599</translate>
					<rotate>0 0 1 180</rotate>
					<rotate>1 0 0 180</rotate>
					<node id="foot_L" name="foot_L" sid="foot_L" type="JOINT">
						<translate>46.53932 0 -1E-06</translate>
					</node>
				</node>
				<node id="leg_R" name="leg_R" sid="leg_R" type="JOINT">
					<translate>-64.48034 -21.45 56.01599</translate>
					<rotate>0 0 1 -180</rotate>
					<node id="foot_R" name="foot_R" sid="foot_R" type="JOINT">
						<translate>46.53932 0 0</translate>
					</node>
				</node>
			</node>
			<node id="polygon0" name="polygon0" type="NODE">
				<instance_controller url="#polygon0_Controller">
					<skeleton>#skl_root</skeleton>
					<bind_material>
						<technique_common>
							<instance_material symbol="obj_hanachan_all_tx" target="#obj_hanachan_all_tx">
								<bind_vertex_input semantic="TEXCOORD0" input_semantic="TEXCOORD" input_set="0" />
								<bind_vertex_input semantic="TEXCOORD0" input_semantic="TEXCOORD" input_set="0" />
								<bind_vertex_input semantic="TEXCOORD0" input_semantic="TEXCOORD" input_set="0" />
							</instance_material>
						</technique_common>
					</bind_material>
				</instance_controller>
			</node>
		</visual_scene>
	</library_visual_scenes>
	<scene>
		<instance_visual_scene url="#RootNode" />
	</scene>
</COLLADA>