<?xml version="1.0" encoding="utf-8"?>
<COLLADA version="1.5.0" xmlns="http://www.collada.org/2008/03/COLLADASchema">
	<asset>
		<contributor>
			<authoring_tool>BrawlCrate</authoring_tool>
		</contributor>
		<created>2026-08-04T13:34:15Z</created>
		<modified>2026-08-04T13:34:15Z</modified>
		<unit meter="0.01" name="centimeter" />
		<up_axis>Y_UP</up_axis>
	</asset>
	<library_images>
		<image id="lm_0-image" name="lm_0">
			<init_from>
				<ref>lm_0.png</ref>
			</init_from>
		</image>
		<image id="lm_1-image" name="lm_1">
			<init_from>
				<ref>lm_1.png</ref>
			</init_from>
		</image>
		<image id="obj_hanachan_all.0-image" name="obj_hanachan_all.0">
			<init_from>
				<ref>obj_hanachan_all.0.png</ref>
			</init_from>
		</image>
	</library_images>
	<library_materials>
		<material id="obj_hanachan_all_tx">
			<instance_effect url="#obj_hanachan_all_tx-fx" />
		</material>
	</library_materials>
	<library_effects>
		<effect id="obj_hanachan_all_tx-fx" name="obj_hanachan_all_tx">
			<profile_COMMON>
				<newparam sid="obj_hanachan_all.0-surface">
					<surface type="2D">
						<init_from>
							<ref>obj_hanachan_all.0-image</ref>
						</init_from>
					</surface>
				</newparam>
				<newparam sid="obj_hanachan_all.0-sampler">
					<sampler2D>
						<source>obj_hanachan_all.0-surface</source>
						<instance_image url="#obj_hanachan_all.0-image" />
						<wrap_s>WRAP</wrap_s>
						<wrap_t>WRAP</wrap_t>
						<minfilter>LINEAR</minfilter>
						<magfilter>LINEAR</magfilter>
					</sampler2D>
				</newparam>
				<newparam sid="lm_0-surface">
					<surface type="2D">
						<init_from>
							<ref>lm_0-image</ref>
						</init_from>
					</surface>
				</newparam>
				<newparam sid="lm_0-sampler">
					<sampler2D>
						<source>lm_0-surface</source>
						<instance_image url="#lm_0-image" />
						<wrap_s>CLAMP</wrap_s>
						<wrap_t>CLAMP</wrap_t>
						<minfilter>LINEAR</minfilter>
						<magfilter>LINEAR</magfilter>
					</sampler2D>
				</newparam>
				<newparam sid="lm_1-surface">
					<surface type="2D">
						<init_from>
							<ref>lm_1-image</ref>
						</init_from>
					</surface>
				</newparam>
				<newparam sid="lm_1-sampler">
					<sampler2D>
						<source>lm_1-surface</source>
						<instance_image url="#lm_1-image" />
						<wrap_s>CLAMP</wrap_s>
						<wrap_t>CLAMP</wrap_t>
						<minfilter>LINEAR</minfilter>
						<magfilter>LINEAR</magfilter>
					</sampler2D>
				</newparam>
				<technique sid="COMMON">
					<phong>
						<diffuse>
							<texture texture="obj_hanachan_all.0-sampler" texcoord="TEXCOORD0" />
						</diffuse>
					</phong>
				</technique>
			</profile_COMMON>
		</effect>
	</library_effects>
	<library_geometries>
		<geometry id="polygon0" name="polygon0">
			<mesh>
				<source id="polygon0_Positions">
					<float_array id="polygon0_PosArr" count="588">-90.37025 49.88722 9.457886 -82.41058 26.63673 -21.60464 -58.10422 49.7882 -14.27371 -33.79784 26.63673 -21.60464 -25.83822 49.88721 9.457885 -14.18238 26.14977 31.93568 -40.6355 49.90652 49.51022 -39.30359 55.63752 71.00188 -76.90224 55.63753 71.00188 -58.10423 47.14292 91.70721 -86.63009 44.75814 83.13983 -58.10362 25.85466 100.2555 -91.57368 25.8635 86.70217 -88.77776 -5.75757E-06 81.98522 -102.0261 26.14978 31.93569 -98.44553 8.412892E-06 32.43034 -42.59293 193.4821 110.2984 -34.17211 161.2448 106.688 -69.04958 184.3235 90.89102 -54.27813 154.2856 91.93879 -85.59314 170.7406 64.39259 -66.84993 143.9625 71.80207 -89.17043 154.6556 34.57772 -69.56893 131.7387 49.14418 -62.48014 119.5138 27.45438 -41.11521 116.5188 60.33841 -28.12901 103.9792 38.65456 -4.74742 110.5078 67.23813 -1.259333 98.78631 31.78975 23.75392 103.9821 43.76527 26.96076 102.2127 4.611729 47.06554 109.1934 19.34808 62.35636 131.7402 62.14261 55.26881 143.9437 83.84538 84.42768 154.6537 51.68425 75.10091 170.7158 80.24022 98.69006 182.5987 37.68037 87.99277 201.0507 70.41875 100.6799 214.2323 20.43534 89.95028 232.7121 53.28116 89.17976 242.9474 3.469932 79.85162 259.0092 32.02534 62.4889 278.0674 10.60555 46.229 288.4106 27.89094 28.13826 293.6237 -0.6068534 23.63123 295.3607 38.43669 1.268578 298.8166 6.257999 -2.082589 297.7491 40.23291 25.83822 49.8872 9.457881 33.79784 26.63672 -21.60465 58.10426 49.78819 -14.27372 82.41058 26.63673 -21.60465 90.37025 49.88721 9.457879 102.0261 26.14977 31.93568 75.5677 49.90653 49.51022 76.90224 55.63752 71.00188 40.6355 49.90652 49.51022 39.30359 55.63751 71.00188 14.18238 26.14976 31.93568 30.6801 44.75813 83.5579 26.84086 25.86348 87.53835 58.10363 25.85465 100.2555 58.10423 -2.471399E-05 95.4308 88.77776 -1.713061E-05 81.98521 -45.43423 258.9004 87.85733 -7.791096 262.4983 98.12978 -47.00444 227.1641 104.896 -9.470665 230.7267 115.1526 -9.869513 196.6118 119.227 -9.30443 163.6251 113.472 -7.597572 134.2554 96.11456 16.41114 161.237 111.6765 19.27209 129.0626 89.24981 39.00715 154.2866 101.1301 -5.117468 284.9055 71.01273 -37.84222 281.7755 62.0836 -26.95201 295.3685 33.44819 -23.74466 293.6208 -5.717575 4.756665 287.0952 -29.19048 -32.24904 281.08 -29.51823 -19.26284 268.5403 -51.20214 -55.23661 253.6575 -45.78469 -38.99789 243.3164 -63.08234 53.70284 184.3222 102.9871 63.44806 216.6292 96.52575 65.33682 248.3603 79.44955 31.13239 258.8885 95.40835 28.71945 281.7652 68.64785 38.18053 8.829919E-06 -18.96364 78.02795 1.597445E-05 -18.96364 98.44552 -7.834976E-07 32.43033 91.57369 25.86349 86.70216 86.63009 44.75813 83.13982 58.10423 47.14291 91.7072 36.74074 150.15 6.493386 46.77799 150.15 37.33817 39.79336 98.23782 7.998035 49.63218 78.15958 39.56055 49.79686 44.1766 38.03597 67.79534 77.66949 38.40167 67.75568 44.17582 36.9431 73.37589 98.23782 5.261828 73.56182 44.17737 3.671231 40.16239 44.17737 6.407439 69.57822 265.8643 -11.09651 66.8587 253.6187 -33.74215 85.60176 226.8376 -26.33104 96.56472 195.7047 -13.84691 77.53471 180.1059 -44.34304 75.61107 148.57 -26.91272 45.26619 138.0641 -49.1723 37.8508 115.8027 -24.02206 7.730396 134.4765 -59.41553 5.126728 112.6974 -32.96509 -62.34709 265.8628 -24.0949 -59.62986 278.0862 -1.437789 -84.41839 242.9492 -13.63656 -80.84244 259.034 16.17772 -94.89784 232.7406 35.05137 -75.8665 248.3644 65.53378 -77.35134 216.6332 82.64979 -47.05626 288.4096 18.69963 -64.29752 272.6172 42.6767 54.28738 243.3174 -53.89108 69.05882 213.2794 -52.84333 47.10109 169.5448 -66.65296 9.459317 165.972 -76.93916 2.091843 99.85374 -2.185242 -23.62249 102.2205 -0.3767697 -46.21975 109.1924 10.15681 -58.44563 124.9871 -16.72511 -78.6445 138.5692 6.155213 9.878776 200.9911 -81.17938 -29.46552 169.5567 -74.20393 -23.96014 204.1064 -78.80118 -63.66861 180.1101 -58.2587 -53.69358 213.2808 -64.93937 -86.46822 195.7334 -31.89666 -73.87477 226.8876 -42.07153 65.13956 150.15 35.46155 69.85277 150.15 3.281277 -99.0117 214.2381 0.7555092 -100.4303 182.6045 18.05686 -96.32656 201.0791 52.2411 21.88815 66.30698 9.146317 57.93523 66.31073 -17.61039 94.32029 66.30699 9.146314 77.0837 66.30698 52.90955 9.313698 233.9778 -75.42435 -16.40239 236.3441 -73.61664 94.58832 164.1492 3.482711 80.85104 138.5442 21.88384 -31.08141 138.0759 -56.70167 -65.18834 148.574 -40.78857 -87.56203 164.171 -14.47629 -28.71086 115.8129 -30.58633 -36.74074 150.15 6.493385 -39.79336 98.23784 7.998036 -46.77799 150.15 37.33817 -49.63218 78.15959 39.56055 -67.79534 77.66952 38.40167 -49.79687 44.1766 38.03598 -67.75568 44.17583 36.9431 -32.61083 129.0596 84.13911 64.30678 124.9858 -4.629014 59.63861 119.495 39.49771 -65.13956 150.15 35.46155 -73.37589 98.23783 5.26183 -69.85277 150.15 3.281276 -17.76294 -1.982451E-07 32.43034 -26.84085 25.86349 87.53835 -30.68009 44.75813 83.5579 -38.18053 1.405826E-05 -18.96363 -78.02795 2.217252E-05 -18.96363 34.18085 236.3364 -68.62811 42.60151 204.0961 -72.23692 23.96873 193.4718 116.8627 29.34315 227.1523 112.4255 32.2583 116.5229 67.56593 58.4549 272.6158 54.77277 -73.56182 44.17738 3.671237 -40.16239 44.17738 6.407444 41.12445 281.0841 -22.29072 32.62007 268.5433 -46.09142 7.606833 263.3475 -58.06693 -29.63681 -1.408624E-05 82.82134 -58.10423 -1.343299E-05 95.43081 29.63681 -2.406073E-05 82.82133 17.76294 -7.431149E-06 32.43033 -75.5677 49.90654 49.51022 -77.0837 66.30698 52.90956 -94.32029 66.307 9.14632 -57.93519 66.31073 -17.61039 39.15572 66.30696 52.90955 -21.88815 66.30698 9.146319 -39.15572 66.30698 52.90956</float_array>
					<technique_common>
						<accessor source="#polygon0_PosArr" count="196" stride="3">
							<param name="X" type="float" />
							<param name="Y" type="float" />
							<param name="Z" type="float" />
						</accessor>
					</technique_common>
				</source>
				<source id="polygon0_Normals">
					<float_array id="polygon0_NormArr" count="585">-0.9190674 0.272583 -0.284668 -0.6600342 0.138916 -0.7382813 0.0003051683 0.3276977 -0.9447632 0.6600342 0.138916 -0.7382813 0.9196167 0.2713623 -0.2841187 0.9376831 0.3460693 -0.03186037 0.6959229 0.6290894 0.3463134 0.3508301 0.9312744 0.0981445 -0.3449097 0.9342651 0.09057616 -6.101795E-05 0.7092285 0.7050171 -0.6009521 0.5507813 0.5792236 0.00042726 0.1585083 0.9873657 -0.7733765 0.06457522 0.6306763 -0.4666748 -0.800293 0.3765259 -0.9330444 0.3564453 -0.0482788 -0.7467651 -0.6508179 -0.137207 -0.4209595 -0.05975341 0.9050903 -0.3220215 -0.413147 0.8518066 -0.6837769 -0.1489868 0.7142944 -0.5361938 -0.4400635 0.7202759 -0.84552 -0.2843628 0.4519043 -0.6268921 -0.5742188 0.5265503 -0.8839111 -0.4457397 0.1412964 -0.6889038 -0.663147 0.2927246 -0.5900269 -0.8000488 0.1087647 -0.4241333 -0.8100586 0.4048462 -0.2894287 -0.9401245 0.1799316 -0.04711914 -0.8766479 0.4787598 -0.0107422 -0.9940186 0.1088257 0.2485962 -0.9401245 0.2330933 0.2479858 -0.963562 -0.09997559 0.4646606 -0.885498 0.003356928 0.6157227 -0.6628418 0.4260864 0.5117798 -0.5745239 0.6387329 0.8352661 -0.4425659 0.3262939 0.7410278 -0.2844238 0.6082764 0.9671021 -0.170166 0.1890869 0.8604126 0.01007079 0.5094604 0.9866333 0.1626587 0.007568347 0.8798218 0.343811 0.328125 0.8832397 0.4419556 -0.1566162 0.7891235 0.6014404 0.1247559 0.5863647 0.8021851 -0.1127319 0.456604 0.885376 0.0873413 0.2895508 0.9401245 -0.1798096 0.2237549 0.963501 0.1469116 0.0107422 0.9940186 -0.1086426 -0.0205078 0.9776611 0.2092285 -0.9196167 0.2713623 -0.2841186 -0.6600342 0.138916 -0.7382813 -0.0003052063 0.3276978 -0.9447632 0.6600342 0.138916 -0.7382813 0.9190674 0.272583 -0.284668 0.9330444 0.3564453 -0.04827883 0.6960449 0.6289673 0.3463135 0.3449097 0.9342651 0.09057618 -0.6959229 0.6290894 0.3463135 -0.35083 0.9312744 0.09814457 -0.9376831 0.3460693 -0.03186031 -0.6044312 0.5325317 0.5925294 -0.7640991 0.05065917 0.6431274 -0.0004272081 0.1585083 0.9873657 -0.001037576 -0.6050415 0.7962036 0.4666748 -0.800293 0.3765258 -0.4434814 0.5996704 0.6661377 -0.07568358 0.635376 0.7684937 -0.4606323 0.2654419 0.8469849 -0.09350584 0.3016968 0.9487915 -0.09808348 -0.02728271 0.994812 -0.09210204 -0.3478394 0.9329834 -0.07647705 -0.6262207 0.7758789 0.1495972 -0.4133301 0.8982544 0.2020874 -0.6801147 0.7046509 0.3851318 -0.4401245 0.8111572 -0.05035399 0.8574219 0.512146 -0.3734741 0.8262329 0.4216919 -0.2481079 0.963562 0.1002197 -0.2487182 0.9401245 -0.2329102 0.04711914 0.8766479 -0.4787598 -0.3369141 0.8101196 -0.4797974 -0.2022095 0.6799927 -0.7047729 -0.5160522 0.5700684 -0.6392822 -0.3891602 0.4393311 -0.8096313 0.5311279 -0.1489258 0.8341064 0.621521 0.1635132 0.7661743 0.6405029 0.4968872 0.5855103 0.3049317 0.5996704 0.7398682 0.2839966 0.8262329 0.4865112 -0.4389038 -0.6175537 -0.6526489 0.4389038 -0.6175537 -0.652649 0.7467651 -0.6508179 -0.1372071 0.7733765 0.06457517 0.6306763 0.6009521 0.5507813 0.5792236 6.106952E-05 0.7092285 0.7050171 -0.8323975 -0.06884763 -0.5499268 -0.7550659 -0.01550294 0.6555176 -0.9790039 -0.02917479 -0.2018432 -0.5690307 -0.01672365 0.8221436 -0.7613525 -0.03149414 0.647583 0.6690063 0.009582493 0.7431641 0.8366699 -0.02215579 0.5472412 0.9433594 0.02410888 -0.3308106 0.7386475 0.02227784 -0.6737671 -0.8272095 0.01098635 -0.5618286 0.6871338 0.6627197 -0.2976685 0.6270752 0.5740356 -0.5264893 0.8458862 0.2836304 -0.4516602 0.944519 -0.01794435 -0.3280029 0.7600098 -0.1715698 -0.6268921 0.7407837 -0.5039063 -0.4442749 0.4423217 -0.6064453 -0.6607666 0.37323 -0.8266602 -0.4210205 0.07513426 -0.6420898 -0.7629395 0.05029295 -0.8578491 -0.5114746 -0.6176147 0.6590576 -0.4291992 -0.5527954 0.8023071 -0.2252197 -0.8366089 0.4321289 -0.3366699 -0.7982178 0.6015625 -0.03173827 -0.9269409 0.3439331 0.1500244 -0.7424316 0.4969482 0.4492188 -0.7590942 0.1635132 0.6300659 -0.4646606 0.885498 -0.003417963 -0.6363525 0.7357788 0.2315674 0.5361938 0.4401245 -0.7202759 0.684082 0.1482544 -0.7141724 0.4609985 -0.2736816 -0.8441162 0.0932617 -0.3099976 -0.946167 0.0205078 -0.9776611 -0.2092285 -0.2236939 -0.963562 -0.1466064 -0.4605713 -0.8833008 -0.08740234 -0.5901489 -0.7289429 -0.3469849 -0.7940674 -0.5925903 -0.1351929 0.09808348 0.02655029 -0.994812 -0.2873535 -0.2736816 -0.9179077 -0.2363281 0.059021 -0.9698486 -0.6381836 -0.166748 -0.7516479 -0.5418701 0.1490479 -0.8271484 -0.8625488 -0.02581786 -0.505249 -0.7467041 0.2722168 -0.6068726 0.836792 0.0632324 0.5438232 0.725708 0.02703858 -0.6875 -0.9675293 0.1498413 -0.2036133 -0.9832764 -0.1804809 -0.02435302 -0.9432983 0.01007081 0.3317261 -0.6601563 0.725647 -0.1940307 -0.0007324506 0.3950806 -0.9186401 0.6586304 0.7268066 -0.1948242 0.5312501 0.3537597 0.7698364 0.09204101 0.3479004 -0.9329834 -0.1496582 0.4130249 -0.8983154 0.9249878 -0.3510742 -0.1455078 0.7977905 -0.6020508 0.03216552 -0.3048096 -0.6064453 -0.734375 -0.6555176 -0.4959717 -0.569458 -0.8781128 -0.3478394 -0.3284912 -0.2839356 -0.8266602 -0.4858398 0.8323975 -0.06884768 -0.5499268 0.9790039 -0.02917482 -0.2018433 0.7550659 -0.01550292 0.6555176 0.5690308 -0.01672362 0.8221436 -0.6690063 0.009582546 0.7431641 0.7613525 -0.03149413 0.647583 -0.8366699 -0.02215574 0.5472412 -0.3358765 -0.6800537 0.6516724 0.6360474 -0.7362061 -0.2310791 0.5525513 -0.8024292 0.2253418 -0.836792 0.06323244 0.5438232 -0.9433594 0.02410889 -0.3308105 -0.725708 0.02703857 -0.6875 0.746521 -0.6529541 -0.1280518 0.7640991 0.05065919 0.6431274 0.6044312 0.5325317 0.5925293 0.4389038 -0.6175537 -0.6526489 0.3221436 0.4129028 -0.8519287 0.4211426 0.05895996 -0.9050903 0.2362061 -0.05981446 0.9698486 0.286499 0.2654419 0.9205933 0.336731 -0.8101196 0.4798584 0.5790405 0.7357178 0.3513184 -0.7386475 0.02227782 -0.6737671 0.8272095 0.0109863 -0.5618286 0.4243164 0.8099976 -0.4047852 0.3359985 0.6799316 -0.6517334 0.07647705 0.6260986 -0.776001 0.4628296 -0.7975464 0.3869019 0.0010376 -0.6050415 0.7962036 -0.4628296 -0.7975464 0.3869019 -0.746521 -0.6529541 -0.1280517 -0.6960449 0.6289673 0.3463135 -0.53125 0.3537598 0.7698364 -0.6586304 0.7268066 -0.1948242 0.0007324155 0.3950805 -0.9186401 -0.5310668 0.354187 0.7697754 0.6601563 0.725647 -0.1940308 0.5310669 0.354187 0.7697754</float_array>
					<technique_common>
						<accessor source="#polygon0_NormArr" count="195" stride="3">
							<param name="X" type="float" />
							<param name="Y" type="float" />
							<param name="Z" type="float" />
						</accessor>
					</technique_common>
				</source>
				<source id="polygon0_Colors0">
					<float_array id="polygon0_ColorArr0" count="108">0.6039216 0.6039216 0.6039216 0.6039216 1 1 1 1 0.8588236 0.8588236 0.8588236 0.8588236 0.7294118 0.7294118 0.7294118 0.7294118 0.8901961 0.8901961 0.8901961 0.8901961 0.8274511 0.8274511 0.8274511 0.8274511 0.8431373 0.8431373 0.8431373 0.8431373 0.9215687 0.9215687 0.9215687 0.9215687 0.9529412 0.9529412 0.9529412 0.9529412 0.6196079 0.6196079 0.6196079 0.6196079 0.7137255 0.7137255 0.7137255 0.7137255 0.6666667 0.6666667 0.6666667 0.6666667 0.6509804 0.6509804 0.6509804 0.6509804 0.682353 0.682353 0.682353 0.682353 0.9058824 0.9058824 0.9058824 0.9058824 0.8117648 0.8117648 0.8117648 0.8117648 0.6352941 0.6352941 0.6352941 0.6352941 0.6980392 0.6980392 0.6980392 0.6980392 0.7450981 0.7450981 0.7450981 0.7450981 0.7803922 0.7803922 0.7803922 0.7803922 0.3960785 0.3960785 0.3960785 0.3960785 0.764706 0.764706 0.764706 0.764706 0.9843138 0.9843138 0.9843138 0.9843138 0.9686275 0.9686275 0.9686275 0.9686275 0.8745099 0.8745099 0.8745099 0.8745099 0.937255 0.937255 0.937255 0.937255 0.7960785 0.7960785 0.7960785 0.7960785</float_array>
					<technique_common>
						<accessor source="#polygon0_ColorArr0" count="27" stride="4">
							<param name="R" type="float" />
							<param name="G" type="float" />
							<param name="B" type="float" />
							<param name="A" type="float" />
						</accessor>
					</technique_common>
				</source>
				<source id="polygon0_UVs0">
					<float_array id="polygon0_UVArr0" count="436">0.9667969 0.1795654 0.9891357 0.08496094 0.9891357 0.1795654 0.9482422 0.08544922 0.9436035 0.1795654 0.9083252 0.1697998 0.8674316 0.1568604 0.8825684 0.1331787 0.8620605 0.08435059 0.8729248 0.08496094 0.8771973 0.02001953 0.949585 0.02001953 0.3830566 0.9295654 0.3840332 0.9317627 0.37854 0.9320068 0.3804932 0.9338379 0.3759766 0.9360352 0.3782959 0.9368896 0.3747559 0.9404297 0.3775635 0.9404297 0.3782959 0.9442139 0.380249 0.9404297 0.3824463 0.9454346 0.3878174 0.9406738 0.3878174 0.9476318 0.3930664 0.9458008 0.3912354 0.9490967 0.3946533 0.9473877 0.2944336 0.15625 0.2352295 0.1901855 0.3344727 0.2644043 0.2667236 0.2987061 0.3706055 0.3653564 0.2977295 0.4086914 0.3909912 0.4906006 0.3200684 0.5268555 0.3959961 0.6209717 0.331665 0.6522217 0.3353271 0.7629395 0.2836914 0.7894287 0.3016357 0.8891602 0.2335205 0.8166504 0.2453613 0.9169922 0.1848145 0.8475342 0.8676758 0.02050781 0.380249 0.9249268 0.3878174 0.9230957 0.3815918 0.927002 0.3878174 0.9257813 0.3876953 0.9287109 0.3876953 0.9312744 0.3876953 0.9337158 0.3914795 0.932373 0.3930664 0.9359131 0.3951416 0.934082 0.3968506 0.9372559 0.3875732 0.9578857 0.3770752 0.9638672 0.3874512 0.9622803 0.3790283 0.9667969 0.3874512 0.9661865 0.3806152 0.9692383 0.3873291 0.9696045 0.381958 0.9714355 0.3873291 0.9765625 0.3798828 0.9763184 0.381958 0.9813232 0.37854 0.9796143 0.3798828 0.9830322 0.1759033 0.223999 0.1990967 0.3331299 0.2248535 0.4521484 0.2490234 0.5632324 0.171875 0.6116943 0.1999512 0.7226563 0.1326904 0.7618408 0.9890137 0.02001953 0.5284424 0.01477051 0.5219727 0.01477051 0.5284424 0.09118652 0.5219727 0.1047363 0.5219727 0.161377 0.515625 0.1048584 0.515625 0.1611328 0.5028076 0.09118652 0.5028076 0.1907959 0.4901123 0.09118652 0.4901123 0.1907959 0.1697998 2.979614 0.2332764 2.938843 0.1152344 2.873779 0.1956787 2.822021 0.1571045 2.678467 0.2486572 2.620117 0.2176514 2.448486 0.310791 2.387451 0.2650146 2.228394 0.4039307 2.326416 0.3455811 2.175415 0.08459473 3.754517 0.1038818 3.852661 0.119873 3.767456 0.1816406 3.824707 0.1480713 3.632935 0.2250977 3.699463 0.2687988 3.575684 0.3549805 3.683105 0.4003906 3.538574 0.4417725 3.623901 0.4744873 3.461304 0.19104 3.944702 0.2414551 3.893311 0.3039551 3.79248 0.3922119 3.753418 0.2967529 2.898071 0.2762451 2.770386 0.3409424 2.557739 0.4332275 2.495483 0.3878174 0.9503174 0.383667 0.9492188 0.3806152 0.9472656 0.3786621 0.9490967 0.3759766 0.9450684 0.4067383 1.593506 0.4051514 1.773682 0.2817383 1.634155 0.2958984 1.811401 0.1567383 1.674927 0.1865234 1.849243 0.04760742 1.734985 0.08203125 1.892822 0.515625 0.01477051 0.5028076 0.01477051 0.4901123 0.01477051 0.078125 3.587402 0.0892334 3.435669 0.1820068 3.492798 0.2203369 3.355347 0.3123779 3.4375 0.3538818 3.290039 0.4376221 3.38501 0.8408203 0.02600098 0.8408203 0.1044922 0.7872314 0.1044922 0.8408203 0.1776123 0.7872314 0.1776123 0.7872314 0.02600098 0.3868408 0.9887695 0.387085 0.986084 0.381958 0.9871826 0.3830566 0.9851074 0.3778076 0.9846191 0.3754883 0.9803467 0.06542969 2.736816 0.1246338 2.508179 0.03173828 2.567871 0.1038818 2.332886 0.02331543 2.384644 0.04064941 2.272339 0.3900146 1.422852 0.2637939 1.466553 0.1375732 1.510132 0.02514648 1.553223 0.3341064 1.245605 0.2247314 1.283447 0.1154785 1.321167 0.01904297 1.356201 0.3824463 0.9355469 0.1843262 2.28125 0.1676025 2.190796 0.104126 2.231567 0.4239502 2.814575 0.4375 2.664673 0.3603516 2.856323 0.3568115 2.717529 0.3826904 0.951416 0.3878174 0.9528809 0.06530762 0.2852783 0.0670166 0.4136963 0.1206055 0.2546387 0.1330566 0.3734131 0.07446289 0.5438232 0.1496582 0.4979248 0.3964844 0.9442139 0.3952637 0.940918 0.3973389 0.94104 0.267334 0.6834717 0.3947754 0.9768066 0.3925781 0.9816895 0.3873291 0.9835205 0.3911133 0.9852295 0.6496582 0.09765625 0.637085 0.1711426 0.637085 0.02404785 0.5869141 0.1844482 0.5869141 0.01074219 0.5472412 0.04614258 0.397583 0.9769287 0.3963623 0.9802246 0.3945313 0.9832764 0.7156982 0.19104 0.7561035 0.1306152 0.6757813 0.1306152 0.7386475 0.01794434 0.6932373 0.01794434 0.2255859 2.14563 0.2835693 2.100464 0.3676758 0.8574219 0.3883057 0.7401123 0.09472656 0.6601563 0.1297607 3.293945 0.1998291 3.167114 0.2624512 3.219482 0.3925781 0.9718018 0.5472412 0.1490479 0.2764893 3.949585 0.3387451 3.862427 0.5284424 0.1907959</float_array>
					<technique_common>
						<accessor source="#polygon0_UVArr0" count="218" stride="2">
							<param name="S" type="float" />
							<param name="T" type="float" />
						</accessor>
					</technique_common>
				</source>
				<vertices id="polygon0_Vertices">
					<input semantic="POSITION" source="#polygon0_Positions" />
				</vertices>
				<triangles material="obj_hanachan_all_tx" count="364">
					<input semantic="VERTEX" source="#polygon0_Vertices" offset="0" />
					<input semantic="NORMAL" source="#polygon0_Normals" offset="1" />
					<input semantic="COLOR" source="#polygon0_Colors0" set="0" offset="2" />
					<input semantic="TEXCOORD" source="#polygon0_UVs0" set="0" offset="3" />
					<p>2 2 0 2 1 1 1 1 0 0 0 0 3 3 2 1 1 1 1 1 2 2 0 2 4 4 0 0 3 3 2 1 2 2 0 2 5 5 3 3 3 3 2 1 4 4 0 0 6 6 0 4 5 5 3 3 4 4 0 0 7 7 4 5 5 5 3 3 6 6 0 4 8 8 1 5 7 7 4 5 6 6 0 4 9 9 1 6 7 7 4 5 8 8 1 5 10 10 1 7 9 9 1 6 8 8 1 5 11 11 1 8 9 9 1 6 10 10 1 7 12 12 1 9 11 11 1 8 10 10 1 7 13 13 5 10 11 11 1 8 12 12 1 9 14 14 1 3 13 13 5 10 12 12 1 9 15 15 6 11 13 13 5 10 14 14 1 3 18 18 7 14 17 17 3 13 16 16 3 12 19 19 6 15 17 17 3 13 18 18 7 14 20 20 8 16 19 19 6 15 18 18 7 14 21 21 2 17 19 19 6 15 20 20 8 16 22 22 8 18 21 21 2 17 20 20 8 16 23 23 5 19 21 21 2 17 22 22 8 18 24 24 3 20 23 23 5 19 22 22 8 18 25 25 3 21 23 23 5 19 24 24 3 20 26 26 9 22 25 25 3 21 24 24 3 20 27 27 10 23 25 25 3 21 26 26 9 22 28 28 11 24 27 27 10 23 26 26 9 22 29 29 12 25 27 27 10 23 28 28 11 24 30 30 3 26 29 29 12 25 28 28 11 24 31 31 13 27 29 29 12 25 30 30 3 26 34 34 8 30 33 33 6 29 32 32 2 28 35 35 14 31 33 33 6 29 34 34 8 30 36 36 1 32 35 35 14 31 34 34 8 30 37 37 8 33 35 35 14 31 36 36 1 32 38 38 1 34 37 37 8 33 36 36 1 32 39 39 1 35 37 37 8 33 38 38 1 34 40 40 1 36 39 39 1 35 38 38 1 34 41 41 1 37 39 39 1 35 40 40 1 36 42 42 1 38 41 41 1 37 40 40 1 36 43 43 1 39 41 41 1 37 42 42 1 38 44 44 1 40 43 43 1 39 42 42 1 38 45 45 1 41 43 43 1 39 44 44 1 40 46 46 1 42 45 45 1 41 44 44 1 40 47 47 1 43 45 45 1 41 46 46 1 42 50 50 0 2 49 49 2 1 48 48 0 0 51 51 1 1 49 49 2 1 50 50 0 2 52 52 0 0 51 51 1 1 50 50 0 2 53 53 1 3 51 51 1 1 52 52 0 0 54 54 0 4 53 53 1 3 52 52 0 0 55 55 1 5 53 53 1 3 54 54 0 4 56 56 0 4 55 55 1 5 54 54 0 4 57 57 4 5 55 55 1 5 56 56 0 4 58 58 3 3 57 57 4 5 56 56 0 4 59 59 1 7 57 57 4 5 58 58 3 3 60 60 1 9 59 59 1 7 58 58 3 3 61 61 1 8 59 59 1 7 60 60 1 9 62 62 15 44 61 61 1 8 60 60 1 9 63 63 5 10 61 61 1 8 62 62 15 44 66 66 5 47 65 65 15 46 64 64 7 45 67 67 13 48 65 65 15 46 66 66 5 47 16 16 3 12 67 67 13 48 66 66 5 47 68 68 12 49 67 67 13 48 16 16 3 12 17 17 3 13 68 68 12 49 16 16 3 12 69 69 16 50 68 68 12 49 17 17 3 13 70 70 10 51 69 69 16 50 17 17 3 13 71 71 17 52 69 69 16 50 70 70 10 51 72 72 18 53 71 71 17 52 70 70 10 51 73 73 19 54 71 71 17 52 72 72 18 53 33 33 6 55 73 73 19 54 72 72 18 53 74 74 1 58 64 64 7 57 65 65 15 56 75 75 1 59 64 64 7 57 74 74 1 58 47 47 1 60 75 75 1 59 74 74 1 58 76 76 1 61 75 75 1 59 47 47 1 60 46 46 1 62 76 76 1 61 47 47 1 60 77 77 1 63 76 76 1 61 46 46 1 62 78 78 1 64 77 77 1 63 46 46 1 62 79 79 1 65 77 77 1 63 78 78 1 64 80 80 3 66 79 79 1 65 78 78 1 64 81 81 4 67 79 79 1 65 80 80 3 66 82 82 10 68 81 81 4 67 80 80 3 66 35 35 14 31 73 73 19 69 33 33 6 29 83 83 15 70 73 73 19 69 35 35 14 31 37 37 8 33 83 83 15 70 35 35 14 31 84 84 6 71 83 83 15 70 37 37 8 33 85 85 7 72 84 84 6 71 37 37 8 33 86 86 2 73 84 84 6 71 85 85 7 72 87 87 1 74 86 86 2 73 85 85 7 72 74 74 1 75 86 86 2 73 87 87 1 74 45 45 1 41 74 74 1 75 87 87 1 74 47 47 1 43 74 74 1 75 45 45 1 41 51 51 1 1 89 89 3 76 88 88 11 76 90 90 6 11 89 89 3 76 51 51 1 1 53 53 1 3 90 90 6 11 51 51 1 1 63 63 5 10 90 90 6 11 53 53 1 3 91 91 1 9 63 63 5 10 53 53 1 3 61 61 1 8 63 63 5 10 91 91 1 9 92 92 1 7 61 61 1 8 91 91 1 9 93 93 1 6 61 61 1 8 92 92 1 7 55 55 1 5 93 93 1 6 92 92 1 7 57 57 4 5 93 93 1 6 55 55 1 5 96 96 17 79 95 95 20 78 94 94 20 77 97 97 21 80 95 95 20 78 96 96 17 79 98 98 15 81 97 97 21 80 96 96 17 79 99 99 1 82 97 97 21 80 98 98 15 81 100 100 15 83 99 99 1 82 98 98 15 81 101 101 17 84 99 99 1 82 100 100 15 83 102 102 15 85 101 101 17 84 100 100 15 83 96 96 17 86 101 101 17 84 102 102 15 85 103 103 15 87 96 96 17 86 102 102 15 85 40 40 1 90 105 105 22 89 104 104 1 88 106 106 23 91 105 105 22 89 40 40 1 90 107 107 22 92 106 106 23 91 40 40 1 90 108 108 24 93 106 106 23 91 107 107 22 92 109 109 25 94 108 108 24 93 107 107 22 92 110 110 21 95 108 108 24 93 109 109 25 94 111 111 19 96 110 110 21 95 109 109 25 94 112 112 12 97 110 110 21 95 111 111 19 96 113 113 10 98 112 112 12 97 111 111 19 96 114 114 1 101 79 79 1 100 81 81 4 99 115 115 1 102 79 79 1 100 114 114 1 101 116 116 1 103 115 115 1 102 114 114 1 101 117 117 1 104 115 115 1 102 116 116 1 103 118 118 1 105 117 117 1 104 116 116 1 103 119 119 1 106 117 117 1 104 118 118 1 105 120 120 1 107 119 119 1 106 118 118 1 105 66 66 5 108 119 119 1 106 120 120 1 107 16 16 3 109 66 66 5 108 120 120 1 107 115 115 1 102 77 77 1 110 79 79 1 100 121 121 1 111 77 77 1 110 115 115 1 102 117 117 1 104 121 121 1 111 115 115 1 102 122 122 1 112 121 121 1 111 117 117 1 104 119 119 1 106 122 122 1 112 117 117 1 104 64 64 7 113 122 122 1 112 119 119 1 106 66 66 5 108 64 64 7 113 119 119 1 106 106 106 23 91 123 123 6 114 105 105 22 89 124 124 15 115 123 123 6 114 106 106 23 91 108 108 24 93 124 124 15 115 106 106 23 91 125 125 3 116 124 124 15 115 108 108 24 93 110 110 21 95 125 125 3 116 108 108 24 93 126 126 11 117 125 125 3 116 110 110 21 95 112 112 12 97 126 126 11 117 110 110 21 95 28 28 11 24 127 127 10 118 30 30 3 26 128 128 3 119 127 127 10 118 28 28 11 24 26 26 9 22 128 128 3 119 28 28 11 24 129 129 3 120 128 128 3 119 26 26 9 22 24 24 3 20 129 129 3 120 26 26 9 22 130 130 6 121 129 129 3 120 24 24 3 20 131 131 7 122 130 130 6 121 24 24 3 20 133 133 11 125 132 132 12 124 126 126 11 123 134 134 9 126 132 132 12 124 133 133 11 125 135 135 21 127 134 134 9 126 133 133 11 125 136 136 17 128 134 134 9 126 135 135 21 127 137 137 22 129 136 136 17 128 135 135 21 127 138 138 22 130 136 136 17 128 137 137 22 129 99 99 1 82 95 95 20 78 97 97 21 80 139 139 20 131 95 95 20 78 99 99 1 82 101 101 17 84 139 139 20 131 99 99 1 82 140 140 20 132 139 139 20 131 101 101 17 84 96 96 17 86 140 140 20 132 101 101 17 84 94 94 20 133 140 140 20 132 96 96 17 86 137 137 22 135 116 116 1 103 138 138 22 134 141 141 1 136 116 116 1 103 137 137 22 135 142 142 1 137 141 141 1 136 137 137 22 135 143 143 1 138 141 141 1 136 142 142 1 137 20 20 8 139 143 143 1 138 142 142 1 137 18 18 7 140 143 143 1 138 20 20 8 139 144 144 1 143 48 48 0 142 56 56 0 141 50 50 0 144 48 48 0 142 144 144 1 143 145 145 1 145 50 50 0 144 144 144 1 143 52 52 0 142 50 50 0 144 145 145 1 145 146 146 1 143 52 52 0 142 145 145 1 145 147 147 1 146 52 52 0 142 146 146 1 143 134 134 9 149 148 148 12 148 132 132 12 147 149 149 16 150 148 148 12 148 134 134 9 149 136 136 17 151 149 149 16 150 134 134 9 149 82 82 10 68 149 149 16 150 136 136 17 151 138 138 22 152 82 82 10 68 136 136 17 151 81 81 4 67 82 82 10 68 138 138 22 152 38 38 1 153 107 107 22 92 40 40 1 90 150 150 1 154 107 107 22 92 38 38 1 153 36 36 1 155 150 150 1 154 38 38 1 153 151 151 25 156 150 150 1 154 36 36 1 155 34 34 8 157 151 151 25 156 36 36 1 155 32 32 2 158 151 151 25 156 34 34 8 157 152 152 10 160 126 126 11 123 112 112 12 159 133 133 11 125 126 126 11 123 152 152 10 160 153 153 15 161 133 133 11 125 152 152 10 160 135 135 21 127 133 133 11 125 153 153 15 161 154 154 22 162 135 135 21 127 153 153 15 161 137 137 22 129 135 135 21 127 154 154 22 162 155 155 21 164 112 112 12 159 113 113 10 163 152 152 10 160 112 112 12 159 155 155 21 164 130 130 6 165 152 152 10 160 155 155 21 164 153 153 15 161 152 152 10 160 130 130 6 165 131 131 7 166 153 153 15 161 130 130 6 165 154 154 22 162 153 153 15 161 131 131 7 166 158 158 20 78 157 157 17 79 156 156 20 77 159 159 21 80 157 157 17 79 158 158 20 78 160 160 1 82 159 159 21 80 158 158 20 78 161 161 15 81 159 159 21 80 160 160 1 82 162 162 15 83 161 161 15 81 160 160 1 82 25 25 3 21 21 21 2 17 23 23 5 19 163 163 21 167 21 21 2 17 25 25 3 21 27 27 10 23 163 163 21 167 25 25 3 21 70 70 10 51 163 163 21 167 27 27 10 23 72 72 18 53 70 70 10 51 27 27 10 23 150 150 1 154 109 109 25 94 107 107 22 92 164 164 24 168 109 109 25 94 150 150 1 154 151 151 25 156 164 164 24 168 150 150 1 154 31 31 13 169 164 164 24 168 151 151 25 156 165 165 6 170 31 31 13 169 151 151 25 156 166 166 20 131 160 160 1 82 158 158 20 78 167 167 17 84 160 160 1 82 166 166 20 131 168 168 20 132 167 167 17 84 166 166 20 131 157 157 17 86 167 167 17 84 168 168 20 132 156 156 20 133 157 157 17 86 168 168 20 132 5 5 3 3 169 169 17 11 3 3 2 1 170 170 1 9 169 169 17 11 5 5 3 3 171 171 1 7 170 170 1 9 5 5 3 3 11 11 1 8 170 170 1 9 171 171 1 7 9 9 1 6 11 11 1 8 171 171 1 7 172 172 11 76 3 3 2 1 169 169 17 11 1 1 1 1 3 3 2 1 172 172 11 76 173 88 3 76 1 1 1 1 172 172 11 76 15 15 6 11 1 1 1 1 173 88 3 76 174 173 17 173 132 132 12 172 148 148 12 171 175 174 13 174 132 132 12 172 174 173 17 173 123 123 6 114 175 174 13 174 174 173 17 173 124 124 15 115 175 174 13 174 123 123 6 114 155 155 21 175 129 129 3 120 130 130 6 121 128 128 3 119 129 129 3 120 155 155 21 175 113 113 10 176 128 128 3 119 155 155 21 175 127 127 10 118 128 128 3 119 113 113 10 176 71 71 17 179 68 68 12 178 69 69 16 177 176 175 13 180 68 68 12 178 71 71 17 179 73 73 19 69 176 175 13 180 71 71 17 179 83 83 15 70 176 175 13 180 73 73 19 69 176 175 13 180 67 67 13 181 68 68 12 178 177 176 18 182 67 67 13 181 176 175 13 180 83 83 15 70 177 176 18 182 176 175 13 180 84 84 6 71 177 176 18 182 83 83 15 70 165 165 6 183 29 29 12 25 31 31 13 27 178 177 26 184 29 29 12 25 165 165 6 183 32 32 2 185 178 177 26 184 165 165 6 183 33 33 6 55 178 177 26 184 32 32 2 185 39 39 1 35 85 85 7 72 37 37 8 33 179 178 1 186 85 85 7 72 39 39 1 35 41 41 1 37 179 178 1 186 39 39 1 35 43 43 1 39 179 178 1 186 41 41 1 37 167 167 17 84 162 162 15 83 160 160 1 82 180 179 15 85 162 162 15 83 167 167 17 84 157 157 17 86 180 179 15 85 167 167 17 84 181 180 15 87 180 179 15 85 157 157 17 86 183 182 24 188 78 78 1 64 182 181 1 187 184 183 12 189 78 78 1 64 183 182 24 188 174 173 17 190 184 183 12 189 183 182 24 188 148 148 12 148 184 183 12 189 174 173 17 190 170 170 1 9 185 184 26 10 169 169 17 11 186 185 15 44 185 184 26 10 170 170 1 9 11 11 1 8 186 185 15 44 170 170 1 9 13 13 5 10 186 185 15 44 11 11 1 8 187 186 26 193 63 63 5 192 62 62 15 191 90 90 6 194 63 63 5 192 187 186 26 193 188 187 17 195 90 90 6 194 187 186 26 193 88 88 11 196 90 90 6 194 188 187 17 195 60 60 1 9 187 186 26 10 62 62 15 44 188 187 17 11 187 186 26 10 60 60 1 9 58 58 3 3 188 187 17 11 60 60 1 9 49 49 2 1 188 187 17 11 58 58 3 3 190 189 1 146 189 188 0 141 6 6 0 141 0 0 0 142 189 188 0 141 190 189 1 146 191 190 1 143 0 0 0 142 190 189 1 146 192 191 1 145 0 0 0 142 191 190 1 143 105 105 22 198 182 181 1 187 104 104 1 197 183 182 24 188 182 181 1 187 105 105 22 198 123 123 6 199 183 182 24 188 105 105 22 198 174 173 17 190 183 182 24 188 123 123 6 199 56 56 0 141 193 192 1 146 144 144 1 143 147 147 1 146 193 192 1 146 56 56 0 141 54 54 0 141 147 147 1 146 56 56 0 141 52 52 0 142 147 147 1 146 54 54 0 141 144 144 1 202 146 146 1 201 145 145 1 200 147 147 1 203 146 146 1 201 144 144 1 202 193 192 1 204 147 147 1 203 144 144 1 202 30 30 3 205 111 111 19 96 31 31 13 169 113 113 10 98 111 111 19 96 30 30 3 205 127 127 10 206 113 113 10 98 30 30 3 205 42 42 1 38 182 181 1 207 44 44 1 40 104 104 1 208 182 181 1 207 42 42 1 38 40 40 1 36 104 104 1 208 42 42 1 38 184 183 12 189 80 80 3 66 78 78 1 64 149 149 16 150 80 80 3 66 184 183 12 189 148 148 12 148 149 149 16 150 184 183 12 189 86 86 2 73 177 176 18 182 84 84 6 71 65 65 15 209 177 176 18 182 86 86 2 73 74 74 1 75 65 65 15 209 86 86 2 73 163 163 21 167 19 19 6 15 21 21 2 17 17 17 3 13 19 19 6 15 163 163 21 167 70 70 10 51 17 17 3 13 163 163 21 167 178 177 26 184 27 27 10 23 29 29 12 25 72 72 18 53 27 27 10 23 178 177 26 184 33 33 6 55 72 72 18 53 178 177 26 184 14 14 1 3 1 1 1 1 15 15 6 11 0 0 0 0 1 1 1 1 14 14 1 3 189 188 0 4 0 0 0 0 14 14 1 3 154 154 22 210 142 142 1 137 137 137 22 135 131 131 7 211 142 142 1 137 154 154 22 210 22 22 8 212 142 142 1 137 131 131 7 211 20 20 8 139 142 142 1 137 22 22 8 212 141 141 1 136 118 118 1 105 116 116 1 103 143 143 1 138 118 118 1 105 141 141 1 136 143 143 1 138 120 120 1 107 118 118 1 105 18 18 7 140 120 120 1 107 143 143 1 138 13 13 5 192 185 184 26 193 186 185 15 191 15 15 6 194 185 184 26 193 13 13 5 192 44 44 1 213 78 78 1 64 46 46 1 62 182 181 1 187 78 78 1 64 44 44 1 213 191 190 1 201 194 193 1 202 192 191 1 200 190 189 1 203 194 193 1 202 191 190 1 201 132 132 12 172 125 125 3 116 126 126 11 117 175 174 13 174 125 125 3 116 132 132 12 172 8 8 1 5 189 188 0 4 14 14 1 3 6 6 0 4 189 188 0 4 8 8 1 5 45 45 1 41 179 178 1 186 43 43 1 39 87 87 1 74 179 178 1 186 45 45 1 41 7 7 4 5 171 171 1 7 5 5 3 3 9 9 1 6 171 171 1 7 7 7 4 5 172 172 11 196 15 15 6 194 173 88 3 214 169 169 17 195 15 15 6 194 172 172 11 196 164 164 24 168 111 111 19 96 109 109 25 94 31 31 13 169 111 111 19 96 164 164 24 168 48 48 0 0 58 58 3 3 56 56 0 4 49 49 2 1 58 58 3 3 48 48 0 0 121 121 1 111 76 76 1 215 77 77 1 110 122 122 1 112 76 76 1 215 121 121 1 111 49 49 2 1 88 88 11 76 188 187 17 11 51 51 1 1 88 88 11 76 49 49 2 1 10 10 1 7 14 14 1 3 12 12 1 9 8 8 1 5 14 14 1 3 10 10 1 7 59 59 1 7 93 93 1 6 57 57 4 5 61 61 1 8 93 93 1 6 59 59 1 7 53 53 1 3 92 92 1 7 91 91 1 9 55 55 1 5 92 92 1 7 53 53 1 3 4 4 0 142 194 193 1 143 6 6 0 141 2 2 0 144 194 193 1 143 4 4 0 142 195 194 1 146 6 6 0 141 194 193 1 143 190 189 1 146 6 6 0 141 195 194 1 146 75 75 1 216 122 122 1 112 64 64 7 113 76 76 1 215 122 122 1 112 75 75 1 216 192 191 1 145 2 2 0 144 0 0 0 142 194 193 1 143 2 2 0 144 192 191 1 145 81 81 4 99 116 116 1 103 114 114 1 101 138 138 22 134 116 116 1 103 81 81 4 99 157 157 17 79 161 161 15 81 181 180 15 217 159 159 21 80 161 161 15 81 157 157 17 79 98 98 15 81 96 96 17 79 103 103 15 217 165 165 6 170 151 151 25 156 32 32 2 158 195 194 1 204 194 193 1 202 190 189 1 203 169 169 17 195 185 184 26 193 15 15 6 194 67 67 13 181 177 176 18 182 65 65 15 209 149 149 16 150 82 82 10 68 80 80 3 66 131 131 7 122 24 24 3 20 22 22 8 18 85 85 7 72 179 178 1 186 87 87 1 74 125 125 3 116 175 174 13 174 124 124 15 115 89 89 3 214 90 90 6 194 88 88 11 196 18 18 7 140 16 16 3 109 120 120 1 107</p>
				</triangles>
			</mesh>
		</geometry>
	</library_geometries>
	<library_controllers>
		<controller id="polygon0_Controller">
			<skin source="#polygon0">
				<bind_shape_matrix>1 0 0 0 0 1 0 0 0 0 1 0 0 0 0 1</bind_shape_matrix>
				<source id="polygon0_Joints">
					<Name_array id="polygon0_JointArr" count="6">skl_root leg_L foot_L foot_L_end leg_R foot_R</Name_array>
					<technique_common>
						<accessor source="#polygon0_JointArr" count="6">
							<param name="JOINT" type="Name" />
						</accessor>
					</technique_common>
				</source>
				<source id="polygon0_Matrices">
					<float_array id="polygon0_MatArr" count="96">0 1 0 -195 0 0 -1 0 -1 0 0 0 0 0 0 1 0 -1 0 130.5197 0 0 -1 21.45 1 0 0 -56.01599 0 0 0 1 0 -1 0 83.98033 0 0 -1 21.45 1 0 0 -56.01599 0 0 0 1 0 -1 0 0.4271545 0 0 -1 21.45 1 0 0 -56.01599 0 0 0 1 0 -1 0 130.5197 0 0 1 -21.45 -1 0 0 -56.01599 0 0 0 1 0 -1 0 83.98033 0 0 1 -21.45 -1 0 0 -56.01599 0 0 0 1</float_array>
					<technique_common>
						<accessor source="#polygon0_MatArr" count="6" stride="16">
							<param type="float4x4" />
						</accessor>
					</technique_common>
				</source>
				<source id="polygon0_Weights">
					<float_array id="polygon0_WeightArr" count="4">1 0.95 0.03 0.02</float_array>
					<technique_common>
						<accessor source="#polygon0_WeightArr" count="4">
							<param type="float" />
						</accessor>
					</technique_common>
				</source>
				<joints>
					<input semantic="JOINT" source="#polygon0_Joints" />
					<input semantic="INV_BIND_MATRIX" source="#polygon0_Matrices" />
				</joints>
				<vertex_weights count="196">
					<input semantic="JOINT" offset="0" source="#polygon0_Joints" />
					<input semantic="WEIGHT" offset="1" source="#polygon0_Weights" />
					<vcount>1 1 1 1 1 1 1 1 1 1 1 1 1 1 1 1 1 1 1 1 1 1 1 1 1 1 1 1 1 1 1 1 1 1 1 1 1 1 1 1 1 1 1 1 1 1 1 1 1 1 1 1 1 1 1 1 1 1 1 1 1 1 1 1 1 1 1 1 1 1 1 1 1 1 1 1 1 1 1 1 1 1 1 1 1 1 1 1 1 1 1 1 1 1 1 1 1 1 3 1 1 1 1 1 1 1 1 1 1 1 1 1 1 1 1 1 1 1 1 1 1 1 1 1 1 1 1 1 1 1 1 1 1 1 1 1 1 1 1 1 1 1 1 1 1 1 1 1 1 1 1 1 1 1 1 1 1 1 1 1 1 1 1 1 1 1 1 1 1 1 1 1 1 1 1 1 1 1 1 1 1 1 1 1 1 1 1 1 1 1 1 1 1 1 1 1</vcount>
					<v>5 0 5 0 5 0 5 0 5 0 5 0 5 0 5 0 5 0 5 0 5 0 5 0 5 0 5 0 5 0 5 0 0 0 0 0 0 0 0 0 0 0 0 0 0 0 0 0 0 0 0 0 0 0 0 0 0 0 0 0 0 0 0 0 0 0 0 0 0 0 0 0 0 0 0 0 0 0 0 0 0 0 0 0 0 0 0 0 0 0 0 0 0 0 0 0 2 0 2 0 2 0 2 0 2 0 2 0 2 0 2 0 2 0 2 0 2 0 2 0 2 0 2 0 2 0 2 0 0 0 0 0 0 0 0 0 0 0 0 0 0 0 0 0 0 0 0 0 0 0 0 0 0 0 0 0 0 0 0 0 0 0 0 0 0 0 0 0 0 0 0 0 0 0 0 0 2 0 2 0 2 0 2 0 2 0 2 0 1 0 1 0 1 0 1 0 2 1 1 2 3 3 1 0 2 0 1 0 2 0 2 0 0 0 0 0 0 0 0 0 0 0 0 0 0 0 0 0 0 0 0 0 0 0 0 0 0 0 0 0 0 0 0 0 0 0 0 0 0 0 0 0 0 0 0 0 0 0 0 0 0 0 0 0 0 0 0 0 0 0 0 0 0 0 0 0 0 0 0 0 0 0 1 0 1 0 0 0 0 0 0 0 2 0 2 0 2 0 2 0 0 0 0 0 0 0 0 0 0 0 0 0 0 0 0 0 4 0 4 0 4 0 4 0 4 0 5 0 5 0 0 0 0 0 0 0 4 0 4 0 4 0 5 0 5 0 5 0 5 0 5 0 0 0 0 0 0 0 0 0 0 0 0 0 5 0 5 0 0 0 0 0 0 0 5 0 5 0 2 0 2 0 5 0 5 0 5 0 5 0 2 0 5 0 5 0</v>
				</vertex_weights>
			</skin>
		</controller>
	</library_controllers>
	<library_visual_scenes>
		<visual_scene id="RootNode" name="RootNode">
			<node id="skl_root" name="skl_root" sid="skl_root" type="JOINT">
				<translate>0 195 0</translate>
				<rotate>0 0 1 90</rotate>
				<rotate>1 0 0 -90</rotate>
				<node id="leg_L" name="leg_L" sid="leg_L" type="JOINT">
					<translate>-64.48034 -21.45 -56.01599</translate>
					<rotate>0 0 1 180</rotate>
					<rotate>1 0 0 180</rotate>
					<node id="foot_L" name="foot_L" sid="foot_L" type="JOINT">
						<translate>46.53932 0 -1E-06</translate>
						<node id="foot_L_end" name="foot_L_end" sid="foot_L_end" type="JOINT">
							<translate>83.55318 0 0</translate>
						</node>
					</node>
				</node>
				<node id="leg_R" name="leg_R" sid="leg_R" type="JOINT">
					<translate>-64.48034 -21.45 56.01599</translate>
					<rotate>0 0 1 -180</rotate>
					<node id="foot_R" name="foot_R" sid="foot_R" type="JOINT">
						<translate>46.53932 0 0</translate>
					</node>
				</node>
			</node>
			<node id="polygon0" name="polygon0" type="NODE">
				<instance_controller url="#polygon0_Controller">
					<skeleton>#skl_root</skeleton>
					<bind_material>
						<technique_common>
							<instance_material symbol="obj_hanachan_all_tx" target="#obj_hanachan_all_tx">
								<bind_vertex_input semantic="TEXCOORD0" input_semantic="TEXCOORD" input_set="0" />
								<bind_vertex_input semantic="TEXCOORD0" input_semantic="TEXCOORD" input_set="0" />
								<bind_vertex_input semantic="TEXCOORD0" input_semantic="TEXCOORD" input_set="0" />
							</instance_material>
						</technique_common>
					</bind_material>
				</instance_controller>
			</node>
		</visual_scene>
	</library_visual_scenes>
	<scene>
		<instance_visual_scene url="#RootNode" />
	</scene>
</COLLADA>