<?xml version="1.0" encoding="utf-8"?>
<COLLADA version="1.5.0" xmlns="http://www.collada.org/2008/03/COLLADASchema">
	<asset>
		<contributor>
			<authoring_tool>BrawlCrate</authoring_tool>
		</contributor>
		<created>2026-08-04T13:34:14Z</created>
		<modified>2026-08-04T13:34:14Z</modified>
		<unit meter="0.01" name="centimeter" />
		<up_axis>Y_UP</up_axis>
	</asset>
	<library_images>
		<image id="lm_0-image" name="lm_0">
			<init_from>
				<ref>lm_0.png</ref>
			</init_from>
		</image>
		<image id="lm_1-image" name="lm_1">
			<init_from>
				<ref>lm_1.png</ref>
			</init_from>
		</image>
		<image id="obj_hanachan_all.0-image" name="obj_hanachan_all.0">
			<init_from>
				<ref>obj_hanachan_all.0.png</ref>
			</init_from>
		</image>
	</library_images>
	<library_materials>
		<material id="obj_hanachan_all_tx">
			<instance_effect url="#obj_hanachan_all_tx-fx" />
		</material>
	</library_materials>
	<library_effects>
		<effect id="obj_hanachan_all_tx-fx" name="obj_hanachan_all_tx">
			<profile_COMMON>
				<newparam sid="obj_hanachan_all.0-surface">
					<surface type="2D">
						<init_from>
							<ref>obj_hanachan_all.0-image</ref>
						</init_from>
					</surface>
				</newparam>
				<newparam sid="obj_hanachan_all.0-sampler">
					<sampler2D>
						<source>obj_hanachan_all.0-surface</source>
						<instance_image url="#obj_hanachan_all.0-image" />
						<wrap_s>WRAP</wrap_s>
						<wrap_t>WRAP</wrap_t>
						<minfilter>LINEAR</minfilter>
						<magfilter>LINEAR</magfilter>
					</sampler2D>
				</newparam>
				<newparam sid="lm_0-surface">
					<surface type="2D">
						<init_from>
							<ref>lm_0-image</ref>
						</init_from>
					</surface>
				</newparam>
				<newparam sid="lm_0-sampler">
					<sampler2D>
						<source>lm_0-surface</source>
						<instance_image url="#lm_0-image" />
						<wrap_s>CLAMP</wrap_s>
						<wrap_t>CLAMP</wrap_t>
						<minfilter>LINEAR</minfilter>
						<magfilter>LINEAR</magfilter>
					</sampler2D>
				</newparam>
				<newparam sid="lm_1-surface">
					<surface type="2D">
						<init_from>
							<ref>lm_1-image</ref>
						</init_from>
					</surface>
				</newparam>
				<newparam sid="lm_1-sampler">
					<sampler2D>
						<source>lm_1-surface</source>
						<instance_image url="#lm_1-image" />
						<wrap_s>CLAMP</wrap_s>
						<wrap_t>CLAMP</wrap_t>
						<minfilter>LINEAR</minfilter>
						<magfilter>LINEAR</magfilter>
					</sampler2D>
				</newparam>
				<technique sid="COMMON">
					<phong>
						<diffuse>
							<texture texture="obj_hanachan_all.0-sampler" texcoord="TEXCOORD0" />
						</diffuse>
					</phong>
				</technique>
			</profile_COMMON>
		</effect>
	</library_effects>
	<library_geometries>
		<geometry id="polygon0" name="polygon0">
			<mesh>
				<source id="polygon0_Positions">
					<float_array id="polygon0_PosArr" count="624">9.923957E-07 116.5035 81.55807 -33.32072 126.9187 74.12479 1.263575E-06 117.5796 103.8444 -31.0706 125.4698 103.8758 1.561078E-06 121.8484 128.2941 -31.31306 129.7924 128.1322 1.793135E-06 133.5046 147.3653 -27.37684 140.8875 145.3614 2.058623E-06 157.0891 169.1838 -20.68769 159.0635 164.3132 -21.15632 185.7965 174.2394 -37.7109 187.586 167.5553 -35.1187 210.3956 169.6441 -46.95554 224.2262 155.8527 -22.84615 230.7866 164.9911 -47.05663 247.312 139.9131 1.912618E-06 245.6838 157.1848 -80.53455 254.2261 61.2358 -72.91827 249.6478 -0.1579011 -75.08583 278.2983 59.80276 -61.74829 277.016 0.5219728 -59.54216 302.4804 56.05531 -35.2518 301.636 -1.28671 -34.1626 318.5435 54.09061 -7.008869E-09 310.9137 -0.57601 5.475404E-07 323.9067 44.99852 34.1626 318.5435 54.09061 1.202684E-06 318.1338 98.84016 36.47464 310.7074 97.30259 33.7461 291.2092 126.1153 58.67796 288.8936 104.5251 -58.67796 288.8936 104.5251 -33.7461 291.2092 126.1153 -63.5974 257.6661 120.4871 -75.23986 243.7829 138.2512 -70.28243 222.8972 158.0679 -94.59924 226.1019 134.3879 -70.67384 186.2784 164.1375 -97.40871 183.5433 131.1832 -66.24537 156.7486 145.5761 -81.6163 151.0796 117.5209 -57.86123 136.9534 104.6911 -92.77682 150.9398 75.1264 -59.8941 134.2677 69.38981 104.1543 182.9027 39.63118 92.77682 150.9398 75.1264 108.8933 182.683 90.28181 81.27666 151.0796 117.5209 97.40871 183.5433 131.1832 66.24537 156.7486 145.5761 70.67384 186.2784 164.1375 44.17036 166.4526 153.468 42.23557 189.668 161.1534 37.7109 187.586 167.5553 46.95554 224.2262 155.8527 35.11871 210.3956 169.6441 22.84616 230.7866 164.9911 47.05663 247.312 139.9131 70.28243 222.8972 158.0679 94.59925 226.1019 134.3879 104.8885 226.6886 90.93556 101.002 225.6542 42.48346 21.15632 185.7965 174.2394 20.6877 159.0635 164.3132 27.37684 140.8875 145.3614 31.31306 129.7924 128.1322 31.0706 125.4698 103.8758 33.32072 126.9187 74.12479 -38.64014 254.9255 212.5219 -56.81793 218.9106 217.9795 -45.40965 212.5239 179.1855 -38.64015 181.5794 223.3507 -28.64124 181.8376 183.2259 -1.625427E-05 168.7348 225.6525 2.240705E-06 171.3267 184.1479 28.64124 181.8376 183.2259 1.555958E-06 205.555 127.8733 45.40966 212.5239 179.1855 28.64121 243.4395 175.1447 38.64016 254.9255 212.5219 1.255795E-05 267.7701 210.22 -3.408534E-07 282.1394 -28.01236 -41.00633 251.9359 -33.22397 -4.904083E-07 255.7889 -40.30323 -5.531693E-07 214.4699 -45.46112 41.00633 251.9359 -33.22397 46.27866 215.4431 -32.22698 72.91827 249.6478 -0.1579029 82.75002 224.7532 1.188626 80.53455 254.2261 61.2358 90.60386 246.5804 54.66644 -46.27866 215.4431 -32.22698 -44.91318 174.727 -22.11823 -3.942216E-07 173.525 -32.39832 -4.552856E-08 140.3337 -3.741674 44.91318 174.727 -22.11823 58.08747 146.0173 9.158413 84.61769 181.8358 5.553073 86.25433 155.0491 30.64948 -104.1543 182.9027 39.63118 -108.8933 182.683 90.28181 -101.002 225.6542 42.48346 -104.8885 226.6886 90.93556 -90.60386 246.5804 54.66643 -87.01741 252.1662 100.4804 -46.12925 224.1485 244.8473 -30.36802 193.7876 250.6682 3.080324E-06 186.2449 253.1503 30.36803 193.7876 250.6682 2.118275E-05 226.5823 261.5677 46.12926 224.1485 244.8473 30.36798 252.4448 240.7361 -82.75002 224.7532 1.188628 -84.61769 181.8358 5.553075 -86.25433 155.0491 30.64948 -30.36797 252.4448 240.7361 2.952397E-06 259.5308 242.6369 58.77549 134.2677 69.38981 4.5599E-07 124.3505 37.47463 8.128757E-07 122.9799 66.80457 87.01741 252.1662 100.4804 63.5974 257.6661 120.4871 75.08583 278.2983 59.80276 -50.69313 149.8101 139.8438 -44.17036 166.4526 153.468 61.74829 277.016 0.5219712 35.2518 301.636 -1.286711 75.23986 243.7829 138.2512 -5.960813E-07 412.5972 33.19526 -3.694409E-07 366.4125 51.82125 -4.455203 410 25.4784 -5.157933 363.6206 40.82791 5.157932 363.6207 40.82791 4.86016 318.7427 47.18061 -0.0006572893 320.3601 58.40959 57.87844 136.9534 104.6911 50.71033 149.8101 139.8438 2.119935E-06 253.9504 174.2227 -28.6412 243.4395 175.1447 -36.47464 310.7074 97.30259 -25.57612 410.2615 -1.763094 -24.70662 405.3652 -10.92638 -0.00156562 427.8299 31.25115 -0.01104133 396.5325 -27.41149 24.68987 405.3045 -10.89886 17.03629 399.9373 -21.03374 1.640121E-06 291.5779 134.7901 38.64017 181.5794 223.3507 56.81795 218.9106 217.9795 -58.08747 146.0173 9.158414 59.54216 302.4804 56.05531 -42.23556 189.668 161.1534 1.836801E-06 250.9601 150.9538 -4.861475 318.7427 47.18061 10.86969 339.8145 32.18273 21.20478 342.0944 25.1237 2.244156 337.8771 50.49236 69.38338 352.5832 41.89 62.89602 350.6457 60.19963 -5.01495E-07 428.9243 40.96865 17.76264 421.2967 23.76863 4.014793E-07 400.5807 32.99477 7.993096E-08 413.6694 6.568967 -17.76264 421.2967 23.76863 2.268038E-07 432.8596 18.63942 -25.57614 432.4471 49.26949 -0.001565823 420.5824 14.51715 -24.26676 436.4513 60.94293 -0.01104507 441.6106 76.32845 -17.05602 439.4894 70.20116 25.56234 432.3743 49.30252 24.25 436.3907 60.97046 -62.89602 350.6457 60.19963 -15.99836 340.8417 65.93454 -50.42274 348.3659 67.25866 -28.04301 343.4639 70.12612 -2.244154 337.8771 50.49236 -69.38337 352.5832 41.89 -43.58452 346.9964 22.25625 -57.58686 349.6186 26.44782 -10.86969 339.8145 32.18273 -21.20478 342.0944 25.1237 15.99836 340.8417 65.93454 28.04301 343.4639 70.12612 50.42274 348.3659 67.25866 57.58686 349.6186 26.44782 43.58452 346.9964 22.25624 47.87647 412.9843 10.52215 52.33415 418.2083 24.68372 39.14482 410.9065 3.106982 -8.471084 424.2061 22.88415 -47.87647 424.9318 38.39539 -52.33415 418.2083 24.68372 -39.57283 428.8839 45.2482 8.471084 424.2061 22.88415 -39.14482 410.9065 3.106982 -47.87647 412.9843 10.52215 39.57283 428.8839 45.2482 47.87647 424.9318 38.39539 2.132295E-06 179.2812 175.2384 4.393629 410 25.4784 -25.73186 431.6188 49.18114 25.73186 410.0459 -1.388324 25.73186 431.6188 49.18114 25.56233 410.1887 -1.730072 -25.73186 410.0459 -1.388323 17.0363 439.4409 70.22318 -17.05601 399.9858 -21.05575</float_array>
					<technique_common>
						<accessor source="#polygon0_PosArr" count="208" stride="3">
							<param name="X" type="float" />
							<param name="Y" type="float" />
							<param name="Z" type="float" />
						</accessor>
					</technique_common>
				</source>
				<source id="polygon0_Normals">
					<float_array id="polygon0_NormArr" count="507">-2.254014E-09 -0.982666 -0.1852417 -0.2592163 -0.9614868 -0.09112549 7.775793E-10 -0.9979248 0.06390381 -0.3043213 -0.9482422 0.09051514 3.576716E-09 -0.9558105 0.2939453 -0.3496094 -0.8470459 0.4003296 7.507688E-09 -0.7869873 0.6170044 -0.3353882 -0.6524048 0.6796265 1.050735E-08 -0.5042725 0.8635254 -0.3731689 -0.4573364 0.8071899 -0.2872925 -0.2461548 0.9256592 -0.6334839 -0.1497192 0.7591553 -0.5376587 0.1450806 0.8305664 -0.350708 0.2938232 0.8892212 -0.2733765 0.5408325 0.7954712 -0.2449341 0.5904541 0.7689819 8.7888E-09 0.6915894 0.72229 -0.7597046 0.6444092 -0.08685302 -0.8501587 0.2697754 -0.4522095 -0.9281616 0.3713989 0.02557374 -0.7554321 0.4967651 -0.4272461 -0.6965332 0.7164917 -0.03765868 -0.4256592 0.7338257 -0.5294189 -0.3184814 0.9455566 -0.06726073 -5.394039E-09 0.8963623 -0.4432983 -1.018948E-09 0.99646 -0.08374023 0.3184814 0.9455566 -0.06726075 4.515456E-09 0.9285889 0.3710938 0.4314575 0.8397827 0.3295288 0.399292 0.6069336 0.6871338 0.7330933 0.5620728 0.3828735 -0.7330933 0.5620728 0.3828735 -0.399292 0.6069336 0.6871338 -0.6275635 0.6362915 0.4486694 -0.4154053 0.7234497 0.5513916 -0.2744141 0.4390869 0.8554688 -0.803772 0.3256226 0.4979248 -0.312439 -0.1439819 0.9389648 -0.867981 -0.2440186 0.4324951 -0.3586426 -0.7054443 0.6113281 -0.6538086 -0.6951904 0.298645 -0.3912964 -0.8984375 0.1990356 -0.6949463 -0.7190552 0.005126962 -0.37323 -0.9251099 -0.07006835 0.934021 -0.1968384 -0.2980957 0.6920166 -0.7218628 0.004699699 0.9735718 -0.2125244 0.08398436 0.6532593 -0.6958618 0.2983398 0.8679199 -0.2461548 0.4313965 0.3598022 -0.7061157 0.6098633 0.312439 -0.1439819 0.9389648 0.322876 -0.4641724 0.8247681 0.4234619 -0.08782959 0.9016724 0.6334839 -0.1497192 0.7591553 0.350708 0.2938232 0.8892212 0.5376587 0.1450806 0.8305664 0.2733765 0.5408325 0.7954712 0.2449341 0.5904541 0.7689819 0.2744141 0.4390869 0.8554688 0.803772 0.3256226 0.4979248 0.946106 0.3103027 0.09289549 0.9390259 0.2736816 -0.2081909 0.2872925 -0.2461548 0.9256592 0.3731689 -0.4573364 0.8071899 0.3353271 -0.6524048 0.6796875 0.3494873 -0.8471069 0.4003296 0.3042603 -0.9483032 0.09051514 0.2617188 -0.9607544 -0.0916748 -0.7429199 0.666687 -0.05999755 -0.9989014 0.01464844 0.04388429 -0.9026489 -0.05706787 -0.4265137 -0.75177 -0.6421509 0.1501465 -0.5354004 -0.7879028 -0.3043213 2.82216E-09 -0.9727173 0.2319336 -3.676234E-09 -0.9533081 -0.302124 0.5354004 -0.7879028 -0.3043213 -1.206548E-08 -0.1296997 -0.9915771 0.9026489 -0.05706787 -0.4265137 0.5283203 0.6741943 -0.5160522 0.7429199 0.666687 -0.05993653 -1.004169E-08 0.5647583 -0.8252563 -0.4334106 0.2982788 -0.8504028 -1.16934E-08 0.2764893 -0.9609985 -1.210038E-08 -0.1051636 -0.9944458 0.4334106 0.2982788 -0.8504028 0.5464478 -0.03314209 -0.836853 0.8501587 0.2697754 -0.4522095 0.8016968 0.3137207 -0.5087891 0.7597046 0.6444092 -0.08685303 0.7075195 0.6825562 -0.1832276 -0.5464478 -0.03314209 -0.836853 -0.3535156 -0.4399414 -0.8255005 -1.061206E-08 -0.4892578 -0.8721313 -7.662906E-09 -0.7767944 -0.6297607 0.3535156 -0.4399414 -0.8255005 0.3787842 -0.815979 -0.4367065 0.7105103 -0.2836914 -0.6439819 0.6688843 -0.6677856 -0.3265991 -0.934021 -0.1968384 -0.2980957 -0.973938 -0.2109375 0.08300783 -0.9390259 0.2736816 -0.2081909 -0.946106 0.3103027 0.09289552 -0.7075195 0.6825562 -0.1832275 -0.6329346 0.7601318 0.1469727 -0.7806396 0.1114502 0.6149902 -0.4235229 -0.5023804 0.7537842 1.004318E-08 -0.5646362 0.8253784 0.4235229 -0.5023804 0.7537842 1.200235E-08 0.1644287 0.9863892 0.7806396 0.1114502 0.6149902 0.4154053 0.7234497 0.5513916 -0.8016968 0.3137207 -0.5087891 -0.7105103 -0.2836914 -0.6439819 -0.6713867 -0.6646118 -0.3278809 7.383661E-09 0.7948608 0.6068115 0.3713379 -0.9257202 -0.07196046 -2.418145E-09 -0.9800415 -0.1987305 -2.764231E-09 -0.973877 -0.2271729 0.6329346 0.7601318 0.1469726 0.6275635 0.6362915 0.4486694 0.9281616 0.3713989 0.02557372 -0.3297729 -0.7282715 0.600708 -0.322937 -0.4642334 0.8247681 0.7554321 0.4967651 -0.4272461 0.4256592 0.7338257 -0.5294189 0.00128175 0.3586476 0.9334459 0.0006713985 0.2529006 0.9675179 -0.8493652 -0.1471538 -0.5069134 -0.8442993 -0.1124975 -0.523944 0.8439331 -0.1125133 -0.5245228 0.8381958 -0.07885742 -0.5396729 1.205879E-08 0.133667 0.9910278 0.392395 -0.8985596 0.1965332 0.3296509 -0.7283325 0.600769 -6.762043E-09 0.8313599 -0.5557251 -0.5283203 0.6741943 -0.5160522 -0.4314575 0.8397827 0.3295288 -5.652717E-09 0.8855447 -0.4645573 1.029271E-08 0.5333862 0.8458862 0.75177 -0.6421509 0.1501465 0.9989014 0.01464844 0.04388427 -0.3778076 -0.8154907 -0.4384155 0.6965332 0.7164917 -0.0376587 -0.4234619 -0.08782959 0.9016724 9.871617E-09 0.5846558 0.8112793 -0.8381958 -0.07885742 -0.5396729 -0.2089233 0.9779035 0.006375927 1.171331E-08 -0.2708329 0.962635 0.7872314 -0.5635656 0.2502629 4.938997E-09 -0.9139085 0.4059016 -5.400834E-09 -0.8960958 -0.4438568 -0.7872314 -0.5635656 0.2502629 0.5800781 0.7446341 -0.3302611 2.172201E-09 0.9839197 0.178518 -4.93297E-09 0.9141538 -0.4054063 -0.5800781 0.7446341 -0.3302611 -1.030018E-08 0.5324464 -0.8464999 0.005859371 0.9457414 -0.3248659 0.2089233 0.9779035 0.006375922 0.1015625 0.9218649 -0.3740481 -0.1007691 0.9071966 -0.40846 -0.1015625 0.9218649 -0.3740481 0.100769 0.9071966 -0.40846 1.17387E-08 -0.2631836 0.9647217 0.8486938 -0.1470499 -0.5080554 -0.07958985 0.927635 -0.3649764 0.08087157 0.9063291 -0.4147694 0.07958984 0.927635 -0.3649764 -0.08087159 0.9063291 -0.4147694</float_array>
					<technique_common>
						<accessor source="#polygon0_NormArr" count="169" stride="3">
							<param name="X" type="float" />
							<param name="Y" type="float" />
							<param name="Z" type="float" />
						</accessor>
					</technique_common>
				</source>
				<source id="polygon0_Colors0">
					<float_array id="polygon0_ColorArr0" count="136">1 1 1 1 0.9686275 0.9686275 0.9686275 0.9686275 0.8588236 0.8588236 0.8588236 0.8588236 0.9843138 0.9843138 0.9843138 0.9843138 0.9058824 0.9058824 0.9058824 0.9058824 0.8431373 0.8431373 0.8431373 0.8431373 0.6352941 0.6352941 0.6352941 0.6352941 0.7450981 0.7450981 0.7450981 0.7450981 0.5411765 0.5411765 0.5411765 0.5411765 0.7803922 0.7803922 0.7803922 0.7803922 0.0627451 0.0627451 0.0627451 0.0627451 0.7137255 0.7137255 0.7137255 0.7137255 0.8117648 0.8117648 0.8117648 0.8117648 0.6039216 0.6039216 0.6039216 0.6039216 0.9529412 0.9529412 0.9529412 0.9529412 0.9215687 0.9215687 0.9215687 0.9215687 0.8274511 0.8274511 0.8274511 0.8274511 0.8901961 0.8901961 0.8901961 0.8901961 0.509804 0.509804 0.509804 0.509804 0.572549 0.572549 0.572549 0.572549 0.3333333 0.3333333 0.3333333 0.3333333 0.6980392 0.6980392 0.6980392 0.6980392 0.2862745 0.2862745 0.2862745 0.2862745 0.6509804 0.6509804 0.6509804 0.6509804 0.7294118 0.7294118 0.7294118 0.7294118 0.4431373 0.4431373 0.4431373 0.4431373 0.427451 0.427451 0.427451 0.427451 0.4588236 0.4588236 0.4588236 0.4588236 0.4117647 0.4117647 0.4117647 0.4117647 0.3803922 0.3803922 0.3803922 0.3803922 0.6666667 0.6666667 0.6666667 0.6666667 0.4901961 0.4901961 0.4901961 0.4901961 0.682353 0.682353 0.682353 0.682353 0.937255 0.937255 0.937255 0.937255</float_array>
					<technique_common>
						<accessor source="#polygon0_ColorArr0" count="34" stride="4">
							<param name="R" type="float" />
							<param name="G" type="float" />
							<param name="B" type="float" />
							<param name="A" type="float" />
						</accessor>
					</technique_common>
				</source>
				<source id="polygon0_UVs0">
					<float_array id="polygon0_UVArr0" count="278">0.488739 0.2322693 0.6218872 0.2790833 0.488739 0.2798767 0.610321 0.3276367 0.488739 0.317627 0.5986938 0.3531494 0.488739 0.3688354 0.5739441 0.432251 0.488739 0.5602112 0.5514526 0.5601807 0.5498047 0.622345 0.5953369 0.6340027 0.5775146 0.740509 0.6218872 0.8515015 0.5474854 0.8609619 0.6216431 0.9378052 0.5158386 0.8946533 0.5098267 0.7585449 0.533783 0.7529907 0.5096741 0.7689209 0.5333252 0.7758179 0.5095215 0.7830505 0.5330505 0.7824097 0.5095215 0.7936096 0.5328064 0.7890015 0.511261 0.8009949 0.4950867 0.7936401 0.4981689 0.7842102 0.4902344 0.7722778 0.4987488 0.7705383 0.6739197 0.9866638 0.6016235 0.9872437 0.6750183 0.9646912 0.6635437 0.9055176 0.6575623 0.8510742 0.6936035 0.8536682 0.6503601 0.6686401 0.7041931 0.6703796 0.648407 0.5639648 0.7115173 0.5503235 0.6759033 0.4373169 0.7607727 0.5175171 0.7522278 0.432312 0.7879028 0.6819763 0.7488403 0.6739807 0.612793 0.5601196 0.6123657 0.675293 0.4865723 0.8609314 0.7385864 0.8545837 0.7773743 0.859436 0.01190186 0.1611938 0.01190186 0.131134 0.03451538 0.1296692 0.01190186 0.1010437 0.03451538 0.1070557 0.01190186 0.08688354 0.03451538 0.09466553 0.09487915 0.1282043 0.03451538 0.1522522 0.01190186 0.1773682 0.5410767 0.7713623 0.5396423 0.753418 0.5454712 0.7538452 0.5475159 0.7384338 0.5404053 0.7395935 0.533783 0.7412415 0.5059509 0.7532959 0.5419006 0.7011108 0.5476379 0.7099609 0.5444031 0.664093 0.5337219 0.6658325 0.5343933 0.7014771 0.5288391 0.6769714 0.5182495 0.7084045 0.5048218 0.678009 0.7624817 0.9157104 0.7001953 0.9144897 0.7533875 0.9662476 0.752655 0.9868774 0.4268188 0.1816711 0.4273987 0.1401978 0.3914185 0.1697998 0.405426 0.1218872 0.3826599 0.08380127 0.4000549 0.08380127 0.4283752 0.08377075 0.4465637 0.1218262 0.4621887 0.1694946 0.5142517 0.6656494 0.4491272 0.08377075 0.4673462 0.08377075 0.5142822 0.6504517 0.5350037 0.6468201 0.5240784 0.6373901 0.5142517 0.6375122 0.6338501 0.4985657 0.2062378 0.01992798 0.2399597 0.01849365 0.2093506 0.03460693 0.2399597 0.03561401 0.2801208 0.03607178 0.2801208 0.019104 0.03451538 0.1628113 0.8510437 0.6053162 0.8592224 0.6417542 0.9000854 0.4740601 0.9000854 0.7073975 0.9409485 0.6417542 0.9327698 0.6782227 0.4863892 0.7749939 0.8193359 0.9359741 0.984436 0.9868469 0.8200378 0.7446289 0.9796448 0.7446289 0.8695679 0.3010559 0.8588867 0.3267517 0.901825 0.2753906 0.9026794 0.4294434 0.9349365 0.4037781 0.2644653 0.02752686 0.2644653 0.04190063 0.2807617 0.02752686 0.2644653 0.01315308 0.7947998 0.3319397 0.7947998 0.2239075 0.7676086 0.2779236 0.7404175 0.2239075 0.7404175 0.3319397 0.8674011 0.6782227 0.9491272 0.6053162 0.5136414 0.7409973 0.9343872 0.3010559 0.9456177 0.3781128 0.945343 0.3267517 0.8591919 0.3781128 0.8701172 0.4037781 0.488739 0.6220398 0.5158386 0.9296265 0.206665 0.03451538</float_array>
					<technique_common>
						<accessor source="#polygon0_UVArr0" count="139" stride="2">
							<param name="S" type="float" />
							<param name="T" type="float" />
						</accessor>
					</technique_common>
				</source>
				<vertices id="polygon0_Vertices">
					<input semantic="POSITION" source="#polygon0_Positions" />
				</vertices>
				<triangles material="obj_hanachan_all_tx" count="329">
					<input semantic="VERTEX" source="#polygon0_Vertices" offset="0" />
					<input semantic="NORMAL" source="#polygon0_Normals" offset="1" />
					<input semantic="COLOR" source="#polygon0_Colors0" set="0" offset="2" />
					<input semantic="TEXCOORD" source="#polygon0_UVs0" set="0" offset="3" />
					<p>2 2 0 2 1 1 1 1 0 0 0 0 3 3 0 3 1 1 1 1 2 2 0 2 4 4 0 4 3 3 0 3 2 2 0 2 5 5 0 5 3 3 0 3 4 4 0 4 6 6 0 6 5 5 0 5 4 4 0 4 7 7 0 7 5 5 0 5 6 6 0 6 8 8 0 8 7 7 0 7 6 6 0 6 9 9 0 9 7 7 0 7 8 8 0 8 10 10 2 10 9 9 0 9 8 8 0 8 11 11 0 11 9 9 0 9 10 10 2 10 12 12 0 12 11 11 0 11 10 10 2 10 13 13 0 13 11 11 0 11 12 12 0 12 14 14 0 14 13 13 0 13 12 12 0 12 15 15 0 15 13 13 0 13 14 14 0 14 16 16 0 16 15 15 0 15 14 14 0 14 19 19 0 19 18 18 3 18 17 17 0 17 20 20 0 20 18 18 3 18 19 19 0 19 21 21 0 21 20 20 0 20 19 19 0 19 22 22 0 22 20 20 0 20 21 21 0 21 23 23 0 23 22 22 0 22 21 21 0 21 24 24 0 24 22 22 0 22 23 23 0 23 25 25 0 25 24 24 0 24 23 23 0 23 26 26 0 23 24 24 0 24 25 25 0 25 27 27 0 26 26 26 0 23 25 25 0 25 28 28 0 27 26 26 0 23 27 27 0 26 29 29 0 28 28 28 0 27 27 27 0 26 30 30 0 29 28 28 0 27 29 29 0 28 33 33 0 32 32 32 0 31 31 31 0 30 15 15 0 15 32 32 0 31 33 33 0 32 34 34 0 33 15 15 0 15 33 33 0 32 35 35 0 34 15 15 0 15 34 34 0 33 36 36 0 35 35 35 0 34 34 34 0 33 37 37 0 36 35 35 0 34 36 36 0 35 38 38 0 37 37 37 0 36 36 36 0 35 39 39 0 38 37 37 0 36 38 38 0 37 40 40 0 39 39 39 0 38 38 38 0 37 41 41 3 40 39 39 0 38 40 40 0 39 42 42 0 41 41 41 3 40 40 40 0 39 43 43 4 42 41 41 3 40 42 42 0 41 46 46 0 44 45 45 0 41 44 44 0 43 47 47 0 39 45 45 0 41 46 46 0 44 48 48 0 37 47 47 0 39 46 46 0 44 49 49 0 38 47 47 0 39 48 48 0 37 50 50 0 36 49 49 0 38 48 48 0 37 51 51 3 45 49 49 0 38 50 50 0 36 52 52 0 46 51 51 3 45 50 50 0 36 53 53 0 11 51 51 3 45 52 52 0 46 54 54 0 13 53 53 0 11 52 52 0 46 55 55 0 12 53 53 0 11 54 54 0 13 56 56 0 14 55 55 0 12 54 54 0 13 56 56 0 14 16 16 0 16 14 14 0 47 57 57 0 15 16 16 0 16 56 56 0 14 54 54 0 13 57 57 0 15 56 56 0 14 58 58 0 34 57 57 0 15 54 54 0 13 50 50 0 36 58 58 0 34 54 54 0 13 59 59 0 35 58 58 0 34 50 50 0 36 48 48 0 37 59 59 0 35 50 50 0 36 60 60 0 48 59 59 0 35 48 48 0 37 46 46 0 44 60 60 0 48 48 48 0 37 61 61 0 49 60 60 0 48 46 46 0 44 44 44 0 43 61 61 0 49 46 46 0 44 62 62 2 10 53 53 0 11 55 55 0 12 63 63 0 9 53 53 0 11 62 62 2 10 8 8 0 8 63 63 0 9 62 62 2 10 64 64 0 7 63 63 0 9 8 8 0 8 6 6 0 6 64 64 0 7 8 8 0 8 65 65 0 5 64 64 0 7 6 6 0 6 4 4 0 4 65 65 0 5 6 6 0 6 66 66 0 3 65 65 0 5 4 4 0 4 2 2 0 2 66 66 0 3 4 4 0 4 67 67 1 1 66 66 0 3 2 2 0 2 0 0 0 0 67 67 1 1 2 2 0 2 70 70 6 52 69 69 5 51 68 68 4 50 71 71 7 53 69 69 5 51 70 70 6 52 72 72 8 54 71 71 7 53 70 70 6 52 73 73 9 55 71 71 7 53 72 72 8 54 74 74 8 56 73 73 9 55 72 72 8 54 75 75 8 54 73 73 9 55 74 74 8 56 76 76 10 57 75 75 8 54 74 74 8 56 77 77 6 52 75 75 8 54 76 76 10 57 78 78 11 58 77 77 6 52 76 76 10 57 79 79 4 50 77 77 6 52 78 78 11 58 80 25 0 59 79 79 4 50 78 78 11 58 81 80 12 60 22 22 0 22 24 24 0 24 82 81 5 61 22 22 0 22 81 80 12 60 83 82 11 62 82 81 5 61 81 80 12 60 84 83 11 63 82 81 5 61 83 82 11 62 85 84 5 61 84 83 11 63 83 82 11 62 86 85 12 64 84 83 11 63 85 84 5 61 87 86 3 18 86 85 12 64 85 84 5 61 88 87 0 65 86 85 12 64 87 86 3 18 89 88 0 17 88 87 0 65 87 86 3 18 90 89 0 66 88 87 0 65 89 88 0 17 84 83 11 63 91 90 12 64 82 81 5 61 92 91 12 67 91 90 12 64 84 83 11 63 93 92 11 68 92 91 12 67 84 83 11 63 94 93 13 69 92 91 12 67 93 92 11 68 95 94 12 67 94 93 13 69 93 92 11 68 96 95 5 70 94 93 13 69 95 94 12 67 97 96 1 71 96 95 5 70 95 94 12 67 98 97 14 72 96 95 5 70 97 96 1 71 44 44 0 73 98 97 14 72 97 96 1 71 45 45 0 74 98 97 14 72 44 44 0 73 100 99 0 44 99 98 0 43 42 42 0 41 101 100 0 49 99 98 0 43 100 99 0 44 102 101 0 48 101 100 0 49 100 99 0 44 103 102 0 75 101 100 0 49 102 101 0 48 104 103 0 76 103 102 0 75 102 101 0 48 17 17 0 77 103 102 0 75 104 103 0 76 33 33 0 32 17 17 0 77 104 103 0 76 19 19 0 78 17 17 0 77 33 33 0 32 31 31 0 30 19 19 0 78 33 33 0 32 71 71 7 81 105 104 2 80 69 69 5 79 106 105 9 82 105 104 2 80 71 71 7 81 73 73 9 83 106 105 9 82 71 71 7 81 107 106 12 84 106 105 9 82 73 73 9 83 108 107 9 82 107 106 12 84 73 73 9 83 109 108 15 85 107 106 12 84 108 107 9 82 110 109 2 80 109 108 15 85 108 107 9 82 111 110 0 86 109 108 15 85 110 109 2 80 79 79 4 87 111 110 0 86 110 109 2 80 82 81 5 61 20 20 0 20 22 22 0 22 18 18 3 18 20 20 0 20 82 81 5 61 91 90 12 64 18 18 3 18 82 81 5 61 112 111 0 65 18 18 3 18 91 90 12 64 113 112 1 71 112 111 0 65 91 90 12 64 99 98 0 73 112 111 0 65 113 112 1 71 114 113 14 72 99 98 0 73 113 112 1 71 42 42 0 74 99 98 0 73 114 113 14 72 43 43 4 88 42 42 0 74 114 113 14 72 105 104 2 80 68 68 4 87 69 69 5 79 115 34 0 86 68 68 4 87 105 104 2 80 109 108 15 85 115 34 0 86 105 104 2 80 116 114 0 89 115 34 0 86 109 108 15 85 111 110 0 86 116 114 0 89 109 108 15 85 80 25 0 90 116 114 0 89 111 110 0 86 79 79 4 87 80 25 0 90 111 110 0 86 117 115 4 88 98 97 14 72 45 45 0 74 96 95 5 70 98 97 14 72 117 115 4 88 67 67 1 91 96 95 5 70 117 115 4 88 118 116 16 92 96 95 5 70 67 67 1 91 119 117 15 93 118 116 16 92 67 67 1 91 1 1 1 91 118 116 16 92 119 117 15 93 0 0 0 94 1 1 1 91 119 117 15 93 90 89 0 75 60 60 0 48 61 61 0 49 120 118 0 76 60 60 0 48 90 89 0 75 89 88 0 77 120 118 0 76 90 89 0 75 121 119 0 32 120 118 0 76 89 88 0 77 122 120 0 78 121 119 0 32 89 88 0 77 30 30 0 30 121 119 0 32 122 120 0 78 5 5 0 5 41 41 3 40 3 3 0 3 123 121 3 95 41 41 3 40 5 5 0 5 7 7 0 7 123 121 3 95 5 5 0 5 124 122 3 45 123 121 3 95 7 7 0 7 9 9 0 9 124 122 3 45 7 7 0 7 11 11 0 11 124 122 3 45 9 9 0 9 87 86 3 18 122 120 0 19 89 88 0 17 125 123 0 20 122 120 0 19 87 86 3 18 85 84 5 61 125 123 0 20 87 86 3 18 126 124 0 22 125 123 0 20 85 84 5 61 81 80 12 60 126 124 0 22 85 84 5 61 24 24 0 24 126 124 0 22 81 80 12 60 104 103 0 76 34 34 0 33 33 33 0 32 36 36 0 35 34 34 0 33 104 103 0 76 102 101 0 48 36 36 0 35 104 103 0 76 38 38 0 37 36 36 0 35 102 101 0 48 100 99 0 44 38 38 0 37 102 101 0 48 120 118 0 76 59 59 0 35 60 60 0 48 127 110 0 33 59 59 0 35 120 118 0 76 121 119 0 32 127 110 0 33 120 118 0 76 57 57 0 15 127 110 0 33 121 119 0 32 29 29 0 31 57 57 0 15 121 119 0 32 130 127 18 98 129 126 0 97 128 125 17 96 131 128 19 99 129 126 0 97 130 127 18 98 132 129 19 99 131 128 19 99 130 127 18 98 133 130 20 100 131 128 19 99 132 129 19 99 134 131 19 101 133 130 20 100 132 129 19 99 135 132 3 40 66 66 0 3 67 67 1 1 65 65 0 5 66 66 0 3 135 132 3 40 136 133 3 95 65 65 0 5 135 132 3 40 64 64 0 7 65 65 0 5 136 133 3 95 51 51 3 45 64 64 0 7 136 133 3 95 137 134 11 102 78 78 11 58 76 76 10 57 80 25 0 59 78 78 11 58 137 134 11 102 138 135 11 58 80 25 0 59 137 134 11 102 68 68 4 50 80 25 0 59 138 135 11 58 70 70 6 52 68 68 4 50 138 135 11 58 97 96 1 71 88 87 0 65 44 44 0 73 86 85 12 64 88 87 0 65 97 96 1 71 95 94 12 67 86 85 12 64 97 96 1 71 84 83 11 63 86 85 12 64 95 94 12 67 93 92 11 68 84 83 11 63 95 94 12 67 23 23 0 23 27 27 0 26 25 25 0 25 139 136 0 27 27 27 0 26 23 23 0 23 21 21 0 21 139 136 0 27 23 23 0 23 31 31 0 29 139 136 0 27 21 21 0 21 19 19 0 19 31 31 0 29 21 21 0 21 142 137 22 105 141 137 16 104 140 137 21 103 143 137 0 106 141 137 16 104 142 137 22 105 144 137 12 107 143 137 0 106 142 137 22 105 145 137 15 108 143 137 0 106 144 137 12 107 27 27 0 26 146 138 0 109 29 29 0 28 32 32 0 28 146 138 0 109 27 27 0 26 139 136 0 27 32 32 0 28 27 27 0 26 31 31 0 29 32 32 0 28 139 136 0 27 147 139 7 81 108 107 9 82 73 73 9 83 110 109 2 80 108 107 9 82 147 139 7 81 148 140 5 79 110 109 2 80 147 139 7 81 79 79 4 87 110 109 2 80 148 140 5 79 118 116 16 92 94 93 13 69 96 95 5 70 149 141 5 70 94 93 13 69 118 116 16 92 1 1 1 91 149 141 5 70 118 116 16 92 43 43 4 88 149 141 5 70 1 1 1 91 26 26 0 23 126 124 0 22 24 24 0 24 150 142 0 21 126 124 0 22 26 26 0 23 28 28 0 27 150 142 0 21 26 26 0 23 30 30 0 29 150 142 0 21 28 28 0 27 124 122 3 45 37 37 0 36 39 39 0 38 151 143 0 46 37 37 0 36 124 122 3 45 11 11 0 11 151 143 0 46 124 122 3 45 13 13 0 13 151 143 0 46 11 11 0 11 92 91 12 67 113 112 1 71 91 90 12 64 149 141 5 70 113 112 1 71 92 91 12 67 94 93 13 69 149 141 5 70 92 91 12 67 146 138 0 112 57 57 0 111 29 29 0 110 152 144 0 113 57 57 0 111 146 138 0 112 15 15 0 111 152 144 0 113 146 138 0 112 129 126 0 97 132 129 19 99 128 125 17 96 134 131 19 101 132 129 19 99 129 126 0 97 153 145 20 100 134 131 19 101 129 126 0 97 156 146 19 116 155 146 24 115 154 146 23 114 157 146 0 117 155 146 24 115 156 146 19 116 158 146 3 118 157 146 0 117 156 146 19 116 161 149 25 121 160 148 7 120 159 147 9 119 162 150 21 119 160 148 7 120 161 149 25 121 163 151 24 122 162 150 21 119 161 149 25 121 164 154 0 125 159 153 27 124 160 152 26 123 163 155 28 126 159 153 27 124 164 154 0 125 162 156 29 127 163 155 28 126 164 154 0 125 167 157 5 104 166 157 22 105 165 157 24 103 168 157 0 106 166 157 22 105 167 157 5 104 169 157 1 128 168 157 0 106 167 157 5 104 166 157 22 105 171 157 5 107 170 157 11 129 168 157 0 106 171 157 5 107 166 157 22 105 127 110 0 33 58 58 0 34 59 59 0 35 57 57 0 15 58 58 0 34 127 110 0 33 35 35 0 34 13 13 0 13 15 15 0 15 37 37 0 36 13 13 0 13 35 35 0 34 61 61 0 130 88 87 0 65 90 89 0 66 44 44 0 73 88 87 0 65 61 61 0 130 40 40 0 39 100 99 0 44 42 42 0 41 38 38 0 37 100 99 0 44 40 40 0 39 174 158 4 132 173 158 30 131 172 158 3 118 175 158 7 133 173 158 30 131 174 158 4 132 177 158 0 117 173 158 30 131 176 158 19 116 172 158 3 118 173 158 30 131 177 158 0 117 122 120 0 19 150 142 0 21 30 30 0 29 125 123 0 20 150 142 0 21 122 120 0 19 101 100 0 130 112 111 0 65 99 98 0 73 103 102 0 66 112 111 0 65 101 100 0 130 17 17 0 17 112 111 0 65 103 102 0 66 18 18 3 18 112 111 0 65 17 17 0 17 179 158 3 135 176 158 19 116 178 158 4 134 177 158 0 117 176 158 19 116 179 158 3 135 181 158 24 115 176 158 19 116 180 158 23 114 178 158 4 134 176 158 19 116 181 158 24 115 183 146 7 133 156 146 19 116 182 146 30 131 184 146 4 132 156 146 19 116 183 146 7 133 185 146 3 135 155 146 24 115 157 146 0 117 186 146 4 134 155 146 24 115 185 146 3 135 114 113 14 72 149 141 5 70 43 43 4 88 113 112 1 71 149 141 5 70 114 113 14 72 123 121 3 95 39 39 0 38 41 41 3 40 124 122 3 45 39 39 0 38 123 121 3 95 189 159 16 104 188 159 0 106 187 159 14 128 190 159 22 105 188 159 0 106 189 159 16 104 72 72 8 54 76 76 10 57 74 74 8 56 70 70 6 52 76 76 10 57 72 72 8 54 75 75 8 54 147 139 7 53 73 73 9 55 77 77 6 52 147 139 7 53 75 75 8 54 77 77 6 52 148 140 5 51 147 139 7 53 79 79 4 50 148 140 5 51 77 77 6 52 193 160 5 107 192 160 0 106 191 160 14 108 194 160 22 105 192 160 0 106 193 160 5 107 138 135 11 58 76 76 10 57 70 70 6 52 137 134 11 102 76 76 10 57 138 135 11 58 195 161 5 104 192 161 0 106 194 161 22 105 196 161 14 128 192 161 0 106 195 161 5 104 115 34 0 86 80 25 0 90 68 68 4 87 116 114 0 89 80 25 0 90 115 34 0 86 197 162 5 107 188 162 0 106 190 162 22 105 198 162 14 108 188 162 0 106 197 162 5 107 63 63 0 9 51 51 3 45 53 53 0 11 64 64 0 7 51 51 3 45 63 63 0 9 109 108 15 85 106 105 9 82 107 106 12 84 105 104 2 80 106 105 9 82 109 108 15 85 199 163 2 136 8 8 0 8 62 62 2 10 10 10 2 10 8 8 0 8 199 163 2 136 117 115 4 42 135 132 3 40 67 67 1 1 45 45 0 41 135 132 3 40 117 115 4 42 47 47 0 39 135 132 3 40 45 45 0 41 49 49 0 38 135 132 3 40 47 47 0 39 136 133 3 95 49 49 0 38 51 51 3 45 135 132 3 40 49 49 0 38 136 133 3 95 152 144 0 137 16 16 0 16 57 57 0 15 15 15 0 15 16 16 0 16 152 144 0 137 200 164 31 138 132 129 19 99 130 127 18 98 128 125 17 96 132 129 19 99 200 164 31 138 1 1 1 1 41 41 3 40 43 43 4 42 3 3 0 3 41 41 3 40 1 1 1 1 131 128 19 99 153 145 20 100 129 126 0 97 133 130 20 100 153 145 20 100 131 128 19 99 193 165 5 107 201 165 11 129 194 165 22 105 189 166 16 104 202 166 21 103 190 166 22 105 190 167 22 105 203 167 11 129 197 167 5 107 142 137 22 105 204 137 32 129 144 137 12 107 194 168 22 105 205 168 11 103 195 168 5 104 29 29 0 31 121 119 0 32 30 30 0 30 52 52 0 46 50 50 0 36 54 54 0 13 32 32 0 110 15 15 0 111 146 138 0 112 168 157 0 106 206 157 1 108 171 157 5 107 143 137 0 106 207 137 33 128 141 137 16 104 184 146 4 132 158 146 3 118 156 146 19 116 163 151 24 122 161 149 25 121 159 147 9 119 164 154 0 125 160 152 26 123 162 156 29 127 151 143 0 46 13 13 0 13 37 37 0 36 125 123 0 20 126 124 0 22 150 142 0 21 83 82 11 62 81 80 12 60 85 84 5 61 0 0 0 94 119 117 15 93 67 67 1 91</p>
				</triangles>
			</mesh>
		</geometry>
	</library_geometries>
	<library_controllers>
		<controller id="polygon0_Controller">
			<skin source="#polygon0">
				<bind_shape_matrix>1 0 0 0 0 1 0 0 0 0 1 0 0 0 0 1</bind_shape_matrix>
				<source id="polygon0_Joints">
					<Name_array id="polygon0_JointArr" count="2">skl_root flower</Name_array>
					<technique_common>
						<accessor source="#polygon0_JointArr" count="2">
							<param name="JOINT" type="Name" />
						</accessor>
					</technique_common>
				</source>
				<source id="polygon0_Matrices">
					<float_array id="polygon0_MatArr" count="32">0 0 1 0 0 1 0 -156 -1 0 0 0 0 0 0 1 0 0.9397416 -0.3420378 -384.5599 0 -0.3420378 -0.9397416 167.1062 -1 0 0 0 0 0 0 1</float_array>
					<technique_common>
						<accessor source="#polygon0_MatArr" count="2" stride="16">
							<param type="float4x4" />
						</accessor>
					</technique_common>
				</source>
				<source id="polygon0_Weights">
					<float_array id="polygon0_WeightArr" count="1">1</float_array>
					<technique_common>
						<accessor source="#polygon0_WeightArr" count="1">
							<param type="float" />
						</accessor>
					</technique_common>
				</source>
				<joints>
					<input semantic="JOINT" source="#polygon0_Joints" />
					<input semantic="INV_BIND_MATRIX" source="#polygon0_Matrices" />
				</joints>
				<vertex_weights count="208">
					<input semantic="JOINT" offset="0" source="#polygon0_Joints" />
					<input semantic="WEIGHT" offset="1" source="#polygon0_Weights" />
					<vcount>1 1 1 1 1 1 1 1 1 1 1 1 1 1 1 1 1 1 1 1 1 1 1 1 1 1 1 1 1 1 1 1 1 1 1 1 1 1 1 1 1 1 1 1 1 1 1 1 1 1 1 1 1 1 1 1 1 1 1 1 1 1 1 1 1 1 1 1 1 1 1 1 1 1 1 1 1 1 1 1 1 1 1 1 1 1 1 1 1 1 1 1 1 1 1 1 1 1 1 1 1 1 1 1 1 1 1 1 1 1 1 1 1 1 1 1 1 1 1 1 1 1 1 1 1 1 1 1 1 1 1 1 1 1 1 1 1 1 1 1 1 1 1 1 1 1 1 1 1 1 1 1 1 1 1 1 1 1 1 1 1 1 1 1 1 1 1 1 1 1 1 1 1 1 1 1 1 1 1 1 1 1 1 1 1 1 1 1 1 1 1 1 1 1 1 1 1 1 1 1 1 1 1 1 1 1 1 1</vcount>
					<v>0 0 0 0 0 0 0 0 0 0 0 0 0 0 0 0 0 0 0 0 0 0 0 0 0 0 0 0 0 0 0 0 0 0 0 0 0 0 0 0 0 0 0 0 0 0 0 0 0 0 0 0 0 0 0 0 0 0 0 0 0 0 0 0 0 0 0 0 0 0 0 0 0 0 0 0 0 0 0 0 0 0 0 0 0 0 0 0 0 0 0 0 0 0 0 0 0 0 0 0 0 0 0 0 0 0 0 0 0 0 0 0 0 0 0 0 0 0 0 0 0 0 0 0 0 0 0 0 0 0 0 0 0 0 0 0 0 0 0 0 0 0 0 0 0 0 0 0 0 0 0 0 0 0 0 0 0 0 0 0 0 0 0 0 0 0 0 0 0 0 0 0 0 0 0 0 0 0 0 0 0 0 0 0 0 0 0 0 0 0 0 0 0 0 0 0 0 0 0 0 0 0 0 0 0 0 0 0 0 0 0 0 0 0 0 0 0 0 0 0 0 0 0 0 0 0 0 0 0 0 0 0 0 0 0 0 0 0 0 0 0 0 0 0 0 0 0 0 0 0 0 0 0 0 0 0 1 0 1 0 1 0 1 0 1 0 0 0 0 0 0 0 0 0 0 0 0 0 0 0 1 0 1 0 1 0 1 0 1 0 1 0 0 0 0 0 0 0 0 0 0 0 0 0 0 0 0 0 1 0 1 0 1 0 1 0 1 0 1 0 1 0 1 0 1 0 1 0 1 0 1 0 1 0 1 0 1 0 1 0 1 0 1 0 1 0 1 0 1 0 1 0 1 0 1 0 1 0 1 0 1 0 1 0 1 0 1 0 1 0 1 0 1 0 1 0 1 0 1 0 1 0 1 0 1 0 1 0 1 0 1 0 1 0 1 0 1 0 0 0 1 0 1 0 1 0 1 0 1 0 1 0 1 0 1 0</v>
				</vertex_weights>
			</skin>
		</controller>
	</library_controllers>
	<library_visual_scenes>
		<visual_scene id="RootNode" name="RootNode">
			<node id="skl_root" name="skl_root" sid="skl_root" type="JOINT">
				<translate>0 156 0</translate>
				<rotate>0 1 0 -90</rotate>
				<node id="flower" name="flower" sid="flower" type="JOINT">
					<translate>25.5 262.5 0</translate>
					<rotate>0 0 1 110</rotate>
				</node>
			</node>
			<node id="polygon0" name="polygon0" type="NODE">
				<instance_controller url="#polygon0_Controller">
					<skeleton>#skl_root</skeleton>
					<bind_material>
						<technique_common>
							<instance_material symbol="obj_hanachan_all_tx" target="#obj_hanachan_all_tx">
								<bind_vertex_input semantic="TEXCOORD0" input_semantic="TEXCOORD" input_set="0" />
								<bind_vertex_input semantic="TEXCOORD0" input_semantic="TEXCOORD" input_set="0" />
								<bind_vertex_input semantic="TEXCOORD0" input_semantic="TEXCOORD" input_set="0" />
							</instance_material>
						</technique_common>
					</bind_material>
				</instance_controller>
			</node>
		</visual_scene>
	</library_visual_scenes>
	<scene>
		<instance_visual_scene url="#RootNode" />
	</scene>
</COLLADA>