<?xml version="1.0" encoding="utf-8"?>
<COLLADA version="1.5.0" xmlns="http://www.collada.org/2008/03/COLLADASchema">
	<asset>
		<contributor>
			<authoring_tool>BrawlCrate</authoring_tool>
		</contributor>
		<created>2026-08-04T13:34:15Z</created>
		<modified>2026-08-04T13:34:15Z</modified>
		<unit meter="0.01" name="centimeter" />
		<up_axis>Y_UP</up_axis>
	</asset>
	<library_images>
		<image id="lm_0-image" name="lm_0">
			<init_from>
				<ref>lm_0.png</ref>
			</init_from>
		</image>
		<image id="lm_1-image" name="lm_1">
			<init_from>
				<ref>lm_1.png</ref>
			</init_from>
		</image>
		<image id="obj_hanachan_all.0-image" name="obj_hanachan_all.0">
			<init_from>
				<ref>obj_hanachan_all.0.png</ref>
			</init_from>
		</image>
	</library_images>
	<library_materials>
		<material id="obj_hanachan_all_tx">
			<instance_effect url="#obj_hanachan_all_tx-fx" />
		</material>
	</library_materials>
	<library_effects>
		<effect id="obj_hanachan_all_tx-fx" name="obj_hanachan_all_tx">
			<profile_COMMON>
				<newparam sid="obj_hanachan_all.0-surface">
					<surface type="2D">
						<init_from>
							<ref>obj_hanachan_all.0-image</ref>
						</init_from>
					</surface>
				</newparam>
				<newparam sid="obj_hanachan_all.0-sampler">
					<sampler2D>
						<source>obj_hanachan_all.0-surface</source>
						<instance_image url="#obj_hanachan_all.0-image" />
						<wrap_s>WRAP</wrap_s>
						<wrap_t>WRAP</wrap_t>
						<minfilter>LINEAR</minfilter>
						<magfilter>LINEAR</magfilter>
					</sampler2D>
				</newparam>
				<newparam sid="lm_0-surface">
					<surface type="2D">
						<init_from>
							<ref>lm_0-image</ref>
						</init_from>
					</surface>
				</newparam>
				<newparam sid="lm_0-sampler">
					<sampler2D>
						<source>lm_0-surface</source>
						<instance_image url="#lm_0-image" />
						<wrap_s>CLAMP</wrap_s>
						<wrap_t>CLAMP</wrap_t>
						<minfilter>LINEAR</minfilter>
						<magfilter>LINEAR</magfilter>
					</sampler2D>
				</newparam>
				<newparam sid="lm_1-surface">
					<surface type="2D">
						<init_from>
							<ref>lm_1-image</ref>
						</init_from>
					</surface>
				</newparam>
				<newparam sid="lm_1-sampler">
					<sampler2D>
						<source>lm_1-surface</source>
						<instance_image url="#lm_1-image" />
						<wrap_s>CLAMP</wrap_s>
						<wrap_t>CLAMP</wrap_t>
						<minfilter>LINEAR</minfilter>
						<magfilter>LINEAR</magfilter>
					</sampler2D>
				</newparam>
				<technique sid="COMMON">
					<phong>
						<diffuse>
							<texture texture="obj_hanachan_all.0-sampler" texcoord="TEXCOORD0" />
						</diffuse>
					</phong>
				</technique>
			</profile_COMMON>
		</effect>
	</library_effects>
	<library_geometries>
		<geometry id="polygon0" name="polygon0">
			<mesh>
				<source id="polygon0_Positions">
					<float_array id="polygon0_PosArr" count="588">-90.37025 49.88722 9.390215 -82.41058 26.63673 -21.67233 -58.10422 49.7882 -14.34138 -33.79784 26.63673 -21.67233 -25.83822 49.88721 9.390214 -14.18238 26.14977 31.86802 -40.6355 49.90652 49.44255 -39.30359 55.63752 70.93422 -76.90224 55.63753 70.93422 -58.10423 47.14292 91.63953 -86.63009 44.75814 83.07215 -58.10362 25.85466 100.1878 -91.57368 25.8635 86.6345 -88.77776 -5.759217E-06 81.91752 -102.0261 26.14978 31.86802 -98.44553 8.411245E-06 32.36266 25.83822 49.8872 9.39021 33.79784 26.63672 -21.67233 58.10422 49.78819 -14.34138 82.41058 26.63673 -21.67233 90.37025 49.88721 9.390208 102.0261 26.14977 31.86802 75.5677 49.90653 49.44255 76.90224 55.63752 70.93421 40.6355 49.90652 49.44255 39.30359 55.63751 70.93421 14.18238 26.14976 31.86802 30.6801 44.75813 83.49023 26.84086 25.86348 87.47064 58.10363 25.85465 100.1878 58.10423 -2.471234E-05 95.36312 88.77776 -1.712897E-05 81.91751 -71.79631 274.0412 -41.09874 -66.28928 254.1263 -59.99726 -42.45699 286.1505 -53.85785 -30.02162 264.3893 -74.54002 4.509142E-07 291.0267 -58.9692 -2.765933E-07 255.3755 -83.10681 30.02162 264.3893 -74.54002 27.45792 225.959 -86.72702 50.76766 237.2381 -76.06864 35.766 192.2077 -80.3146 66.12867 206.8973 -66.42616 40.53565 158.6974 -61.7546 74.9474 175.3528 -46.01899 40.74265 132.0689 -34.44362 75.33013 148.8103 -18.62681 66.12867 132.5193 11.86338 86.34677 154.5161 32.78901 98.36147 173.8641 5.218574 97.86173 200.2803 -22.29394 86.34677 228.8977 -45.49709 66.28929 254.1263 -59.99726 71.79633 274.0412 -41.09874 42.45699 286.1505 -53.85785 66.2893 293.9609 -22.19567 30.02163 307.9117 -33.17569 50.76767 310.8443 -6.128894 -50.76766 237.2381 -76.06864 -27.45792 225.959 -86.72702 -7.733935E-07 221.9938 -90.5536 -1.134705E-06 187.0389 -85.29237 -1.333062E-06 152.8486 -67.40366 -1.325451E-06 126.1911 -40.12066 66.28929 141.3404 58.72703 50.76766 124.457 42.66024 30.02162 127.3897 69.70701 27.45792 113.1731 31.99727 -1.884079E-07 118.3759 61.14017 -7.010219E-07 109.2127 28.17525 -27.45792 113.1731 31.99727 -1.087109E-06 112.6609 -7.002833 -35.766 117.8261 -2.028497 -40.74265 132.0689 -34.44362 38.18053 8.831566E-06 -19.0313 78.02795 1.59761E-05 -19.0313 98.44552 -7.818506E-07 32.36265 91.57369 25.86349 86.63449 86.63009 44.75813 83.07214 58.10423 47.14291 91.63952 50.76767 198.0632 112.5999 27.45793 209.3423 123.2584 66.12868 228.4041 102.9575 35.766 243.0936 116.8459 75.33015 258.0253 85.15468 40.74266 274.7667 100.9715 74.94743 284.013 57.23524 40.53566 300.6702 72.97252 66.12868 302.782 24.66795 35.766 317.4752 38.55981 27.45793 322.1282 4.534081 36.74074 171.6559 4.813982 46.77799 171.6559 35.65879 39.79336 98.23782 6.318649 49.63218 78.15958 37.88117 49.79687 44.17659 36.35659 67.79534 77.66949 36.72228 67.75568 44.17582 35.26373 73.37589 98.23782 3.582423 73.56182 44.17737 1.991864 40.16239 44.17737 4.728033 -66.12867 132.5193 11.86338 -75.33013 148.8103 -18.62681 -86.34674 154.5161 32.78901 -98.36147 173.8641 5.218576 -93.52005 180.4617 57.4104 -106.5329 203.4178 33.26399 -86.34674 206.4036 82.02841 -98.36147 232.9715 61.30936 -66.12867 228.4041 102.9575 -75.33013 258.0253 85.15468 -74.9474 175.3528 -46.01899 -97.86172 200.2803 -22.29394 -105.9916 229.6829 5.608133 -97.86172 259.0873 33.51186 -74.9474 284.0129 57.23524 -66.12867 302.782 24.66792 -66.12867 206.8973 -66.42616 -86.34674 228.8977 -45.49709 -93.52005 254.8397 -20.8791 -86.34674 280.7852 3.742277 -50.76766 310.8443 -6.128922 1.184144E-06 316.9254 -24.60889 -30.02162 307.9117 -33.17569 -66.28928 293.9609 -22.19568 30.02163 170.912 111.0713 66.2893 181.175 96.52861 42.45699 149.1508 90.38917 71.79633 161.2601 77.63008 93.52007 180.4617 57.4104 86.34677 280.7852 3.7423 97.86173 259.0873 33.51188 105.9917 229.6829 5.60813 106.5329 203.4178 33.26399 1.76913E-06 213.3075 127.0849 1.27233E-06 179.9258 119.6381 -27.45792 209.3423 123.2584 -30.02162 170.912 111.0713 -50.76766 198.0632 112.5999 -66.28928 181.175 96.52861 5.448224E-07 144.2747 95.50048 65.13956 171.6559 33.78212 69.85277 171.6559 1.60191 -35.76599 243.0936 116.8459 2.130441E-06 248.2624 121.8237 -40.74265 274.7667 100.9715 2.339814E-06 280.6445 106.6485 -40.53565 158.6974 -61.7546 -35.766 192.2077 -80.3146 -40.53564 300.6702 72.9725 2.313581E-06 306.5172 78.61989 21.88815 66.30698 9.078642 57.93518 66.31073 -17.67805 94.32029 66.30699 9.078639 77.0837 66.30698 52.84188 -35.76599 317.4752 38.55978 2.082846E-06 322.6404 43.53416 -30.02162 127.3897 69.70701 -42.45699 149.1508 90.38917 -66.28928 141.3404 58.72702 -71.79631 161.2601 77.63008 -17.76294 -1.998922E-07 32.36266 -26.84085 25.86349 87.47065 -30.68009 44.75813 83.49024 -36.74074 171.6559 4.813979 -39.79336 98.23784 6.31865 -46.77799 171.6559 35.65878 -49.63218 78.15959 37.88117 -67.79534 77.66952 36.72229 -49.79687 44.1766 36.35659 -67.75568 44.17583 35.26374 -65.13956 171.6559 33.78212 -73.37589 98.23783 3.582425 -69.85277 171.6559 1.601909 -50.76766 124.457 42.66024 93.52007 254.8397 -20.87911 -73.56182 44.17738 1.99187 -40.16239 44.17738 4.728038 -58.10423 -1.343463E-05 95.36313 -29.63681 -1.408789E-05 82.75367 -38.18053 1.405662E-05 -19.0313 -78.02795 2.217087E-05 -19.0313 29.63681 -2.405909E-05 82.75367 17.76294 -7.429503E-06 32.36265 98.36147 232.9715 61.30936 86.34677 206.4036 82.02841 35.766 117.8261 -2.028498 -75.5677 49.90654 49.44255 -77.0837 66.30698 52.84188 -94.32029 66.307 9.078646 -57.93519 66.31073 -17.67805 39.15572 66.30696 52.84188 -27.45792 322.1281 4.534062 1.696758E-06 326.0886 8.356091 -21.88815 66.30698 9.078645 -39.15572 66.30698 52.84188</float_array>
					<technique_common>
						<accessor source="#polygon0_PosArr" count="196" stride="3">
							<param name="X" type="float" />
							<param name="Y" type="float" />
							<param name="Z" type="float" />
						</accessor>
					</technique_common>
				</source>
				<source id="polygon0_Normals">
					<float_array id="polygon0_NormArr" count="585">-0.9190674 0.272583 -0.284668 -0.6600342 0.138916 -0.7382813 0.0003051683 0.3276977 -0.9447632 0.6600342 0.138916 -0.7382813 0.9196167 0.2713623 -0.2841187 0.9376831 0.3460693 -0.03186037 0.6958008 0.6271973 0.3499145 0.3508301 0.9312744 0.0981445 -0.3449097 0.9342651 0.09057616 -6.101795E-05 0.7092285 0.7050171 -0.6009521 0.5507813 0.5792236 0.00042726 0.1585083 0.9873657 -0.7733765 0.06457522 0.6306763 -0.4666748 -0.800293 0.3765259 -0.9330444 0.3564453 -0.0482788 -0.7467651 -0.6508179 -0.137207 -0.9196167 0.2713623 -0.2841186 -0.6600342 0.138916 -0.7382813 -0.0003052063 0.3276978 -0.9447632 0.6600342 0.138916 -0.7382813 0.9190674 0.272583 -0.284668 0.9330444 0.3564453 -0.04827883 0.6960449 0.6289673 0.3463135 0.3449097 0.9342651 0.09057618 -0.6959229 0.6290894 0.3463135 -0.35083 0.9312744 0.09814457 -0.9376831 0.3460693 -0.03186031 -0.6044312 0.5325317 0.5925294 -0.7640991 0.05065917 0.6431274 -0.0004272081 0.1585083 0.9873657 -0.001037576 -0.6050415 0.7962036 0.4666748 -0.800293 0.3765258 -0.6622925 0.5157471 -0.5435181 -0.5795288 0.3624268 -0.7299194 -0.3795776 0.637146 -0.6707764 -0.2684937 0.4423828 -0.8556519 -4.374348E-10 0.6889038 -0.7248535 -6.943256E-09 0.3616943 -0.932312 0.2684937 0.4423828 -0.8556519 0.2401733 0.1159668 -0.9638062 0.4681396 0.1762695 -0.8659058 0.3366699 -0.2619019 -0.90448 0.6218262 -0.1233521 -0.7733765 0.3770752 -0.5424194 -0.7507324 0.6966553 -0.3874512 -0.6037598 0.3765258 -0.7817993 -0.4969482 0.6958008 -0.6271973 -0.3499146 0.6146851 -0.7861328 -0.06463624 0.8030396 -0.5817261 0.1293335 0.9090576 -0.395752 -0.130127 0.9103394 -0.1557617 -0.3834839 0.8127441 0.08343505 -0.5765991 0.5795288 0.3624268 -0.7299194 0.6622925 0.5157471 -0.5435181 0.3795776 0.637146 -0.6707764 0.5791016 0.7106323 -0.3995972 0.2683105 0.8317261 -0.486084 0.4684448 0.8554077 -0.2208862 -0.4681396 0.1762695 -0.8659058 -0.2401734 0.1159668 -0.9638062 -1.172607E-08 0.03570557 -0.9993896 -1.534141E-08 -0.3100586 -0.9507446 -1.702505E-08 -0.5966797 -0.8024902 -1.684904E-08 -0.8361816 -0.5485229 0.5791016 -0.7106323 0.3995972 0.4684448 -0.8554077 0.2208862 0.2683105 -0.8317261 0.486084 0.2397461 -0.9564819 0.1663818 -6.11666E-09 -0.9122925 0.4096069 -1.106064E-08 -0.9962158 0.08721924 -0.2397461 -0.9564819 0.1663818 -1.47339E-08 -0.9707642 -0.2401123 -0.3326416 -0.9227295 -0.1946411 -0.3765259 -0.7817993 -0.4969482 -0.4389038 -0.6175537 -0.6526489 0.4389038 -0.6175537 -0.652649 0.7467651 -0.6508179 -0.1372071 0.7733765 0.06457517 0.6306763 0.6009521 0.5507813 0.5792236 6.106952E-05 0.7092285 0.7050171 0.4681396 -0.1762695 0.8659058 0.2401734 -0.1159668 0.9638062 0.6143799 0.1048584 0.7820435 0.3326416 0.2416992 0.9115601 0.6956787 0.3815308 0.6086426 0.3765259 0.5361938 0.7554321 0.6967163 0.6228027 0.355835 0.3770752 0.7776489 0.5030518 0.6220703 0.7785645 0.08325195 0.3366089 0.9168091 0.2147827 0.2397461 0.9564819 -0.1663818 -0.8334351 -0.04876707 -0.5504761 -0.7540894 -0.01068116 0.6566772 -0.9793701 -0.02136229 -0.2009887 -0.5681762 -0.017334 0.8227539 -0.7613525 -0.03149415 0.647583 0.6702271 0.003601048 0.7421875 0.8366699 -0.02215579 0.5472412 0.9430542 0.019104 -0.3320313 0.7386475 0.02227784 -0.6737671 -0.8272095 0.01098635 -0.5618286 -0.6146851 -0.7861328 -0.06463622 -0.6958008 -0.6271973 -0.3499146 -0.8030396 -0.5817261 0.1293335 -0.9090576 -0.395752 -0.1301269 -0.8690796 -0.3405151 0.3588257 -0.9839478 -0.1228027 0.1293945 -0.8030396 -0.09942626 0.5875244 -0.9090576 0.1502075 0.3886108 -0.6143799 0.1048584 0.7820435 -0.6956787 0.3815308 0.6086426 -0.6966553 -0.3874512 -0.6037598 -0.9103394 -0.1557617 -0.3834839 -0.9852905 0.1176758 -0.1239624 -0.9102783 0.3910522 0.1358643 -0.6967163 0.6228027 0.355835 -0.6220703 0.7785645 0.08325196 -0.6218262 -0.123352 -0.7733765 -0.8127441 0.08343507 -0.5765991 -0.8795776 0.3275146 -0.3451538 -0.8126831 0.5716553 -0.1129761 -0.4684448 0.8554077 -0.2208862 6.11666E-09 0.9122925 -0.4096069 -0.2683105 0.8317261 -0.486084 -0.5791016 0.7106323 -0.3995972 0.2684937 -0.4423828 0.8556519 0.5795288 -0.3624268 0.7299194 0.3795776 -0.637146 0.6707764 0.6622925 -0.5157471 0.5435181 0.8690796 -0.3405151 0.3588257 0.8126831 0.5716553 -0.1129761 0.9102783 0.3910522 0.1358642 0.9852905 0.1176147 -0.1239624 0.9839478 -0.1228027 0.1293945 1.172607E-08 -0.03570557 0.9993896 6.943256E-09 -0.3616943 0.932312 -0.2401733 -0.1159668 0.9638062 -0.2684937 -0.4423828 0.8556519 -0.4681396 -0.1762695 0.8659058 -0.5795288 -0.3624268 0.7299194 4.374348E-10 -0.6889038 0.7248535 0.8389282 0.04687498 0.5421753 0.7262573 0.01916505 -0.6871948 -0.3326416 0.2416992 0.9115601 1.516762E-08 0.2892456 0.9572754 -0.3765258 0.5361938 0.7554321 1.7005E-08 0.5903931 0.8071289 -0.3770752 -0.5424194 -0.7507324 -0.3366699 -0.2619019 -0.90448 -0.3770752 0.7776489 0.5030518 1.687354E-08 0.8320923 0.5546265 -0.6601563 0.725647 -0.1940307 -0.0007324506 0.3950806 -0.9186401 0.6586304 0.7268066 -0.1948242 0.5312501 0.3537597 0.7698364 -0.3366089 0.9168091 0.2147827 1.491957E-08 0.9653931 0.2607422 -0.2683105 -0.8317261 0.486084 -0.3795776 -0.637146 0.6707764 -0.5791016 -0.7106323 0.3995972 -0.6622925 -0.5157471 0.5435181 0.746521 -0.6529541 -0.1280518 0.7640991 0.05065919 0.6431274 0.6044312 0.5325317 0.5925293 0.8334351 -0.04876711 -0.5504761 0.9793701 -0.02136232 -0.2009888 0.7540894 -0.01068115 0.6566772 0.5681763 -0.01733397 0.8227539 -0.6702271 0.003601101 0.7421875 0.7613525 -0.03149413 0.647583 -0.8366699 -0.02215574 0.5472412 -0.8389282 0.04687502 0.5421753 -0.9430542 0.01910401 -0.3320313 -0.7262573 0.01916503 -0.6871948 -0.4684448 -0.8554077 0.2208862 0.8795776 0.3275146 -0.3451538 -0.7386475 0.02227782 -0.6737671 0.8272095 0.0109863 -0.5618286 0.0010376 -0.6050415 0.7962036 0.4628296 -0.7975464 0.3869019 0.4389038 -0.6175537 -0.6526489 -0.4628296 -0.7975464 0.3869019 -0.746521 -0.6529541 -0.1280517 0.9090576 0.1502075 0.3886108 0.8030396 -0.09942628 0.5875244 0.3326416 -0.9227295 -0.1946411 -0.6958008 0.6271973 0.3499146 -0.53125 0.3537598 0.7698364 -0.6586304 0.7268066 -0.1948242 0.0007324155 0.3950805 -0.9186401 -0.5310668 0.354187 0.7697754 -0.2397461 0.9564819 -0.1663818 1.106064E-08 0.9962158 -0.08721924 0.6601563 0.725647 -0.1940308 0.5310669 0.354187 0.7697754</float_array>
					<technique_common>
						<accessor source="#polygon0_NormArr" count="195" stride="3">
							<param name="X" type="float" />
							<param name="Y" type="float" />
							<param name="Z" type="float" />
						</accessor>
					</technique_common>
				</source>
				<source id="polygon0_Colors0">
					<float_array id="polygon0_ColorArr0" count="100">0.6039216 0.6039216 0.6039216 0.6039216 1 1 1 1 0.8588236 0.8588236 0.8588236 0.8588236 0.7294118 0.7294118 0.7294118 0.7294118 0.8901961 0.8901961 0.8901961 0.8901961 0.8274511 0.8274511 0.8274511 0.8274511 0.8431373 0.8431373 0.8431373 0.8431373 0.8117648 0.8117648 0.8117648 0.8117648 0.9529412 0.9529412 0.9529412 0.9529412 0.9215687 0.9215687 0.9215687 0.9215687 0.9058824 0.9058824 0.9058824 0.9058824 0.6196079 0.6196079 0.6196079 0.6196079 0.9843138 0.9843138 0.9843138 0.9843138 0.9686275 0.9686275 0.9686275 0.9686275 0.8745099 0.8745099 0.8745099 0.8745099 0.7450981 0.7450981 0.7450981 0.7450981 0.7803922 0.7803922 0.7803922 0.7803922 0.682353 0.682353 0.682353 0.682353 0.6509804 0.6509804 0.6509804 0.6509804 0.6666667 0.6666667 0.6666667 0.6666667 0.3019608 0.3019608 0.3019608 0.3019608 0.6980392 0.6980392 0.6980392 0.6980392 0.7137255 0.7137255 0.7137255 0.7137255 0.764706 0.764706 0.764706 0.764706 0.7960785 0.7960785 0.7960785 0.7960785</float_array>
					<technique_common>
						<accessor source="#polygon0_ColorArr0" count="25" stride="4">
							<param name="R" type="float" />
							<param name="G" type="float" />
							<param name="B" type="float" />
							<param name="A" type="float" />
						</accessor>
					</technique_common>
				</source>
				<source id="polygon0_UVs0">
					<float_array id="polygon0_UVArr0" count="420">0.9667969 0.1795654 0.9891357 0.08496094 0.9891357 0.1795654 0.9482422 0.08544922 0.9436035 0.1795654 0.9083252 0.1697998 0.8674316 0.1568604 0.8825684 0.1331787 0.8620605 0.08435059 0.8729248 0.08496094 0.8771973 0.02001953 0.949585 0.02001953 0.8676758 0.02050781 0.4071045 0.9682617 0.4086914 0.972168 0.4100342 0.9683838 0.4121094 0.9732666 0.4171143 0.9682617 0.4171143 0.9753418 0.4221191 0.9732666 0.4205322 0.9764404 0.4239502 0.9749756 0.4215088 0.9783936 0.4257813 0.9766846 0.4219971 0.9803467 0.4268799 0.9782715 0.4224854 0.9821777 0.4279785 0.9798584 0.184082 2.124512 0.1219482 2.242432 0.2644043 2.224487 0.1920166 2.349365 0.3339844 2.363525 0.2634277 2.481934 0.3830566 2.48645 0.3199463 2.595093 0.3684082 2.704346 0.3145752 2.788696 0.352417 2.848267 0.2641602 2.882446 0.2770996 3.003906 0.2138672 2.976196 0.4102783 0.9749756 0.4136963 0.9764404 0.4171143 0.9777832 0.4171143 0.9802246 0.4171143 0.9822998 0.4171143 0.9844971 0.4281006 0.9407959 0.4262695 0.9450684 0.4259033 0.9399414 0.4244385 0.9432373 0.4226074 0.9415283 0.4210205 0.9447021 0.4176025 0.9434814 0.4176025 0.9460449 0.4140625 0.9447021 0.4176025 0.9486084 0.413208 0.9467773 0.4176025 0.9528809 0.4116211 0.9504395 0.9890137 0.02001953 0.328125 0.2468262 0.2806396 0.2462158 0.3535156 0.3358154 0.293335 0.3352051 0.3720703 0.4719238 0.3026123 0.4709473 0.3712158 0.6098633 0.3022461 0.6088867 0.3535156 0.727417 0.293335 0.7268066 0.3349609 0.8395996 0.2840576 0.8370361 0.5284424 0.01477051 0.5219727 0.01477051 0.5284424 0.09118652 0.5219727 0.1047363 0.5219727 0.161377 0.515625 0.1048584 0.515625 0.1611328 0.5028076 0.09118652 0.5028076 0.1907959 0.4901123 0.09118652 0.4901123 0.1907959 0.3222656 1.152954 0.2150879 1.230591 0.3747559 1.267212 0.2811279 1.371216 0.4338379 1.421509 0.3509521 1.523071 0.4747314 1.577026 0.4019775 1.671143 0.4906006 1.73645 0.4440918 1.820435 0.1346436 1.326172 0.2011719 1.47229 0.2677002 1.61853 0.3288574 1.762817 0.3768311 1.904785 0.293335 1.961914 0.06933594 1.462524 0.1256104 1.587524 0.1818848 1.712524 0.241333 1.840942 0.2086182 1.990723 0.4241943 0.9613037 0.4208984 0.9597168 0.4221191 0.9633789 0.4171143 0.9613037 0.4121094 0.9633789 0.4086914 0.9647217 0.4213867 0.9282227 0.4244385 0.9298096 0.4226074 0.9316406 0.4259033 0.9332275 0.4246826 0.9365234 0.4272461 0.9365234 0.4299316 0.9365234 0.1307373 2.923218 0.1938477 2.813477 0.1254883 2.728149 0.192749 2.600342 0.1195068 2.474365 0.4176025 0.927002 0.4176025 0.9295654 0.4140625 0.9283447 0.4124756 0.9316406 0.4106445 0.9298096 0.4093018 0.9332275 0.4088135 0.9279785 0.4069824 0.932251 0.4176025 0.9366455 0.515625 0.01477051 0.5028076 0.01477051 0.4901123 0.01477051 0.1383057 0.2468262 0.112915 0.3358154 0.185791 0.2462158 0.1730957 0.3352051 0.2332764 0.2457275 0.2332764 0.3345947 0.09436035 0.4719238 0.1638184 0.4709473 0.2332764 0.4698486 0.4056396 0.9801025 0.411377 0.9822998 0.4069824 0.9783936 0.4121094 0.9803467 0.4084473 0.9766846 0.4127197 0.9783936 0.09521484 0.6098633 0.1641846 0.6088867 0.2332764 0.6079102 0.8408203 0.02600098 0.8408203 0.1044922 0.7872314 0.1044922 0.8408203 0.1776123 0.7872314 0.1776123 0.7872314 0.02600098 0.112915 0.727417 0.1730957 0.7268066 0.2332764 0.7260742 0.4124756 0.9415283 0.4104004 0.9365234 0.4093018 0.9399414 0.4078369 0.9365234 0.4069824 0.9407959 0.4052734 0.9365234 0.4106445 0.9432373 0.4088135 0.9450684 0.2568359 2.703857 0.6496582 0.09765625 0.637085 0.1711426 0.637085 0.02404785 0.5869141 0.1844482 0.5869141 0.01074219 0.5472412 0.04614258 0.4056396 0.9481201 0.009521484 2.679443 0.05554199 2.619873 0.01416016 2.526367 0.05786133 2.373047 0.421875 0.9467773 0.4289551 0.947998 0.4232178 0.9504395 0.4262695 0.9279785 0.4281006 0.932251 0.06103516 2.852173 0.01452637 2.759888 0.7156982 0.19104 0.7561035 0.1306152 0.6757813 0.1306152 0.7386475 0.01794434 0.6932373 0.01794434 0.07312012 1.683716 0.02661133 1.580078 0.4418945 2.728516 0.4223633 2.619995 0.5472412 0.1490479 0.1832275 0.8370361 0.1331787 0.8395996 0.1196289 1.787476 0.1640625 1.889038 0.5284424 0.1907959 0.4101563 0.9614258 0.4134521 0.960083 0.4171143 0.958374 0.2332764 0.8344727 0.4241943 0.9683838</float_array>
					<technique_common>
						<accessor source="#polygon0_UVArr0" count="210" stride="2">
							<param name="S" type="float" />
							<param name="T" type="float" />
						</accessor>
					</technique_common>
				</source>
				<vertices id="polygon0_Vertices">
					<input semantic="POSITION" source="#polygon0_Positions" />
				</vertices>
				<triangles material="obj_hanachan_all_tx" count="364">
					<input semantic="VERTEX" source="#polygon0_Vertices" offset="0" />
					<input semantic="NORMAL" source="#polygon0_Normals" offset="1" />
					<input semantic="COLOR" source="#polygon0_Colors0" set="0" offset="2" />
					<input semantic="TEXCOORD" source="#polygon0_UVs0" set="0" offset="3" />
					<p>2 2 0 2 1 1 1 1 0 0 0 0 3 3 2 1 1 1 1 1 2 2 0 2 4 4 0 0 3 3 2 1 2 2 0 2 5 5 3 3 3 3 2 1 4 4 0 0 6 6 0 4 5 5 3 3 4 4 0 0 7 7 4 5 5 5 3 3 6 6 0 4 8 8 1 5 7 7 4 5 6 6 0 4 9 9 1 6 7 7 4 5 8 8 1 5 10 10 1 7 9 9 1 6 8 8 1 5 11 11 1 8 9 9 1 6 10 10 1 7 12 12 1 9 11 11 1 8 10 10 1 7 13 13 5 10 11 11 1 8 12 12 1 9 14 14 1 3 13 13 5 10 12 12 1 9 15 15 6 11 13 13 5 10 14 14 1 3 18 18 0 2 17 17 2 1 16 16 0 0 19 19 1 1 17 17 2 1 18 18 0 2 20 20 0 0 19 19 1 1 18 18 0 2 21 21 1 3 19 19 1 1 20 20 0 0 22 22 0 4 21 21 1 3 20 20 0 0 23 23 1 5 21 21 1 3 22 22 0 4 24 24 0 4 23 23 1 5 22 22 0 4 25 25 4 5 23 23 1 5 24 24 0 4 26 26 3 3 25 25 4 5 24 24 0 4 27 27 1 7 25 25 4 5 26 26 3 3 28 28 1 9 27 27 1 7 26 26 3 3 29 29 1 8 27 27 1 7 28 28 1 9 30 30 7 12 29 29 1 8 28 28 1 9 31 31 5 10 29 29 1 8 30 30 7 12 34 34 1 15 33 33 1 14 32 32 1 13 35 35 1 16 33 33 1 14 34 34 1 15 36 36 1 17 35 35 1 16 34 34 1 15 37 37 1 18 35 35 1 16 36 36 1 17 38 38 1 19 37 37 1 18 36 36 1 17 39 39 8 20 37 37 1 18 38 38 1 19 40 40 1 21 39 39 8 20 38 38 1 19 41 41 4 22 39 39 8 20 40 40 1 21 42 42 4 23 41 41 4 22 40 40 1 21 43 43 4 24 41 41 4 22 42 42 4 23 44 44 9 25 43 43 4 24 42 42 4 23 45 45 2 26 43 43 4 24 44 44 9 25 46 46 10 27 45 45 2 26 44 44 9 25 46 46 10 30 48 48 7 29 47 47 11 28 49 49 12 31 48 48 7 29 46 46 10 30 44 44 9 32 49 49 12 31 46 46 10 30 50 50 13 33 49 49 12 31 44 44 9 32 42 42 4 34 50 50 13 33 44 44 9 32 51 51 12 35 50 50 13 33 42 42 4 34 52 52 1 36 51 51 12 35 42 42 4 34 53 53 1 37 51 51 12 35 52 52 1 36 54 54 1 38 53 53 1 37 52 52 1 36 55 55 1 39 53 53 1 37 54 54 1 38 56 56 1 40 55 55 1 39 54 54 1 38 57 57 1 41 55 55 1 39 56 56 1 40 35 35 1 16 58 58 1 42 33 33 1 14 59 59 8 43 58 58 1 42 35 35 1 16 37 37 1 18 59 59 8 43 35 35 1 16 60 60 8 44 59 59 8 43 37 37 1 18 39 39 8 20 60 60 8 44 37 37 1 18 61 61 14 45 60 60 8 44 39 39 8 20 41 41 4 22 61 61 14 45 39 39 8 20 62 62 7 46 61 61 14 45 41 41 4 22 43 43 4 24 62 62 7 46 41 41 4 22 63 63 15 47 62 62 7 46 43 43 4 24 45 45 2 26 63 63 15 47 43 43 4 24 64 64 16 50 47 47 11 49 48 48 7 48 65 65 17 51 47 47 11 49 64 64 16 50 66 66 3 52 65 65 17 51 64 64 16 50 67 67 17 53 65 65 17 51 66 66 3 52 68 68 18 54 67 67 17 53 66 66 3 52 69 69 19 55 67 67 17 53 68 68 18 54 70 70 19 56 69 69 19 55 68 68 18 54 71 71 17 57 69 69 19 55 70 70 19 56 72 72 18 58 71 71 17 57 70 70 19 56 63 63 15 59 71 71 17 57 72 72 18 58 73 73 2 60 63 63 15 59 72 72 18 58 19 19 1 1 75 75 3 61 74 74 19 61 76 76 6 11 75 75 3 61 19 19 1 1 21 21 1 3 76 76 6 11 19 19 1 1 31 31 5 10 76 76 6 11 21 21 1 3 77 77 1 9 31 31 5 10 21 21 1 3 29 29 1 8 31 31 5 10 77 77 1 9 78 78 1 7 29 29 1 8 77 77 1 9 79 79 1 6 29 29 1 8 78 78 1 7 23 23 1 5 79 79 1 6 78 78 1 7 25 25 4 5 79 79 1 6 23 23 1 5 82 82 9 64 81 81 16 63 80 80 6 62 83 83 6 65 81 81 16 63 82 82 9 64 84 84 1 66 83 83 6 65 82 82 9 64 85 85 1 67 83 83 6 65 84 84 1 66 86 86 1 68 85 85 1 67 84 84 1 66 87 87 1 69 85 85 1 67 86 86 1 68 88 88 1 70 87 87 1 69 86 86 1 68 89 89 1 71 87 87 1 69 88 88 1 70 57 57 1 72 89 89 1 71 88 88 1 70 90 90 1 73 89 89 1 71 57 57 1 72 93 93 21 76 92 92 20 75 91 91 20 74 94 94 22 77 92 92 20 75 93 93 21 76 95 95 7 78 94 94 22 77 93 93 21 76 96 96 1 79 94 94 22 77 95 95 7 78 97 97 7 80 96 96 1 79 95 95 7 78 98 98 21 81 96 96 1 79 97 97 7 80 99 99 7 82 98 98 21 81 97 97 7 80 93 93 21 83 98 98 21 81 99 99 7 82 100 100 7 84 93 93 21 83 99 99 7 82 103 103 7 87 102 102 10 86 101 101 11 85 104 104 12 88 102 102 10 86 103 103 7 87 105 105 8 89 104 104 12 88 103 103 7 87 106 106 12 90 104 104 12 88 105 105 8 89 107 107 8 91 106 106 12 90 105 105 8 89 108 108 1 92 106 106 12 90 107 107 8 91 109 109 9 93 108 108 1 92 107 107 8 91 110 110 1 94 108 108 1 92 109 109 9 93 104 104 12 88 111 111 9 95 102 102 10 86 112 112 13 96 111 111 9 95 104 104 12 88 106 106 12 90 112 112 13 96 104 104 12 88 113 113 12 97 112 112 13 96 106 106 12 90 108 108 1 92 113 113 12 97 106 106 12 90 114 114 1 98 113 113 12 97 108 108 1 92 115 115 1 99 114 114 1 98 108 108 1 92 116 116 1 100 114 114 1 98 115 115 1 99 112 112 13 96 117 117 4 101 111 111 9 95 118 118 12 102 117 117 4 101 112 112 13 96 113 113 12 97 118 118 12 102 112 112 13 96 119 119 1 103 118 118 12 102 113 113 12 97 114 114 1 98 119 119 1 103 113 113 12 97 120 120 1 104 119 119 1 103 114 114 1 98 116 116 1 100 120 120 1 104 114 114 1 98 121 121 1 105 120 120 1 104 116 116 1 100 56 56 1 108 90 90 1 107 57 57 1 106 122 122 1 109 90 90 1 107 56 56 1 108 36 36 1 17 122 122 1 109 56 56 1 108 123 123 1 110 122 122 1 109 36 36 1 17 34 34 1 15 123 123 1 110 36 36 1 17 124 124 1 111 123 123 1 110 34 34 1 15 32 32 1 13 124 124 1 111 34 34 1 15 125 125 16 114 80 80 6 113 81 81 16 112 126 126 14 115 80 80 6 113 125 125 16 114 127 127 16 116 126 126 14 115 125 125 16 114 128 128 6 117 126 126 14 115 127 127 16 116 64 64 16 50 128 128 6 117 127 127 16 116 129 129 8 118 128 128 6 117 64 64 16 50 48 48 7 48 129 129 8 118 64 64 16 50 88 88 1 119 55 55 1 39 57 57 1 41 130 130 1 120 55 55 1 39 88 88 1 119 131 131 1 121 130 130 1 120 88 88 1 119 132 132 12 122 130 130 1 120 131 131 1 121 133 133 12 123 132 132 12 122 131 131 1 121 49 49 12 31 132 132 12 122 133 133 12 123 48 48 7 29 49 49 12 31 133 133 12 123 136 136 16 126 135 135 19 125 134 134 22 124 137 137 23 127 135 135 19 125 136 136 16 126 138 138 6 128 137 137 23 127 136 136 16 126 139 139 14 129 137 137 23 127 138 138 6 128 109 109 9 130 139 139 14 129 138 138 6 128 107 107 8 131 139 139 14 129 109 109 9 130 127 127 16 116 66 66 3 52 64 64 16 50 140 140 23 132 66 66 3 52 127 127 16 116 125 125 16 114 140 140 23 132 127 127 16 116 135 135 19 125 140 140 23 132 125 125 16 114 81 81 16 112 135 135 19 125 125 125 16 114 134 134 22 124 135 135 19 125 81 81 16 112 96 96 1 79 92 92 20 75 94 94 22 77 141 141 20 133 92 92 20 75 96 96 1 79 98 98 21 81 141 141 20 133 96 96 1 79 142 142 20 134 141 141 20 133 98 98 21 81 93 93 21 83 142 142 20 134 98 98 21 81 91 91 20 135 142 142 20 134 93 93 21 83 136 136 16 138 109 109 9 137 138 138 6 136 143 143 6 139 109 109 9 137 136 136 16 138 134 134 22 140 143 143 6 139 136 136 16 138 144 144 23 141 143 143 6 139 134 134 22 140 81 81 16 63 144 144 23 141 134 134 22 140 83 83 6 65 144 144 23 141 81 81 16 63 143 143 6 139 110 110 1 142 109 109 9 137 145 145 1 143 110 110 1 142 143 143 6 139 144 144 23 141 145 145 1 143 143 143 6 139 146 146 13 144 145 145 1 143 144 144 23 141 83 83 6 65 146 146 13 144 144 144 23 141 85 85 1 67 146 146 13 144 83 83 6 65 111 111 9 147 73 73 2 146 102 102 10 145 147 147 4 148 73 73 2 146 111 111 9 147 117 117 4 149 147 147 4 148 111 111 9 147 148 148 4 150 147 147 4 148 117 117 4 149 58 58 1 42 148 148 4 150 117 117 4 149 59 59 8 43 148 148 4 150 58 58 1 42 145 145 1 143 115 115 1 151 110 110 1 142 149 149 1 152 115 115 1 151 145 145 1 143 146 146 13 144 149 149 1 152 145 145 1 143 150 150 1 153 149 149 1 152 146 146 13 144 85 85 1 67 150 150 1 153 146 146 13 144 87 87 1 69 150 150 1 153 85 85 1 67 151 151 1 156 16 16 0 155 24 24 0 154 18 18 0 157 16 16 0 155 151 151 1 156 152 152 1 158 18 18 0 157 151 151 1 156 20 20 0 155 18 18 0 157 152 152 1 158 153 153 1 156 20 20 0 155 152 152 1 158 154 154 1 159 20 20 0 155 153 153 1 156 149 149 1 152 116 116 1 160 115 115 1 151 155 155 1 161 116 116 1 160 149 149 1 152 150 150 1 153 155 155 1 161 149 149 1 152 156 156 1 162 155 155 1 161 150 150 1 153 87 87 1 69 156 156 1 162 150 150 1 153 89 89 1 71 156 156 1 162 87 87 1 69 140 140 23 132 68 68 18 54 66 66 3 52 157 157 22 163 68 68 18 54 140 140 23 132 158 158 24 164 157 157 22 163 140 140 23 132 159 159 16 165 157 157 22 163 158 158 24 164 160 160 6 166 159 159 16 165 158 158 24 164 103 103 7 167 159 159 16 165 160 160 6 166 137 137 23 127 140 140 23 132 135 135 19 125 158 158 24 164 140 140 23 132 137 137 23 127 139 139 14 129 158 158 24 164 137 137 23 127 160 160 6 166 158 158 24 164 139 139 14 129 105 105 8 168 160 160 6 166 139 139 14 129 103 103 7 167 160 160 6 166 105 105 8 168 5 5 3 3 161 161 21 11 3 3 2 1 162 162 1 9 161 161 21 11 5 5 3 3 163 163 1 7 162 162 1 9 5 5 3 3 11 11 1 8 162 162 1 9 163 163 1 7 9 9 1 6 11 11 1 8 163 163 1 7 166 166 20 75 165 165 21 76 164 164 20 74 167 167 22 77 165 165 21 76 166 166 20 75 168 168 1 79 167 167 22 77 166 166 20 75 169 169 7 78 167 167 22 77 168 168 1 79 170 170 7 80 169 169 7 78 168 168 1 79 171 171 20 133 168 168 1 79 166 166 20 75 172 172 21 81 168 168 1 79 171 171 20 133 173 173 20 134 172 172 21 81 171 171 20 133 165 165 21 83 172 172 21 81 173 173 20 134 164 164 20 135 165 165 21 83 173 173 20 134 157 157 22 163 70 70 19 56 68 68 18 54 174 174 19 169 70 70 19 56 157 157 22 163 159 159 16 165 174 174 19 169 157 157 22 163 101 101 11 170 174 174 19 169 159 159 16 165 103 103 7 167 101 101 11 170 159 159 16 165 50 50 13 33 132 132 12 122 49 49 12 31 175 175 1 171 132 132 12 122 50 50 13 33 51 51 12 35 175 175 1 171 50 50 13 33 53 53 1 37 175 175 1 171 51 51 12 35 172 172 21 81 170 170 7 80 168 168 1 79 176 176 7 82 170 170 7 80 172 172 21 81 165 165 21 83 176 176 7 82 172 172 21 81 177 177 7 84 176 176 7 82 165 165 21 83 178 178 7 12 11 11 1 8 13 13 5 10 162 162 1 9 11 11 1 8 178 178 7 12 179 179 24 10 162 162 1 9 178 178 7 12 161 161 21 11 162 162 1 9 179 179 24 10 180 180 19 61 3 3 2 1 161 161 21 11 1 1 1 1 3 3 2 1 180 180 19 61 181 74 3 61 1 1 1 1 180 180 19 61 15 15 6 11 1 1 1 1 181 74 3 61 182 181 24 174 31 31 5 173 30 30 7 172 76 76 6 175 31 31 5 173 182 181 24 174 183 182 21 176 76 76 6 175 182 181 24 174 74 74 19 177 76 76 6 175 183 182 21 176 72 72 18 58 102 102 10 178 73 73 2 60 101 101 11 170 102 102 10 178 72 72 18 58 70 70 19 56 101 101 11 170 72 72 18 58 174 174 19 169 101 101 11 170 70 70 19 56 185 184 13 181 184 183 1 180 82 82 9 179 133 133 12 123 184 183 1 180 185 184 13 181 129 129 8 182 133 133 12 123 185 184 13 181 48 48 7 29 133 133 12 123 129 129 8 182 67 67 17 53 47 47 11 49 65 65 17 51 186 185 18 183 47 47 11 49 67 67 17 53 69 69 19 55 186 185 18 183 67 67 17 53 71 71 17 57 186 185 18 183 69 69 19 55 186 185 18 183 46 46 10 184 47 47 11 49 45 45 2 185 46 46 10 184 186 185 18 183 71 71 17 57 45 45 2 185 186 185 18 183 63 63 15 59 45 45 2 185 71 71 17 57 126 126 14 115 82 82 9 186 80 80 6 113 185 184 13 187 82 82 9 186 126 126 14 115 128 128 6 117 185 184 13 187 126 126 14 115 129 129 8 118 185 184 13 187 128 128 6 117 86 86 1 188 131 131 1 121 88 88 1 119 184 183 1 180 131 131 1 121 86 86 1 188 84 84 1 189 184 183 1 180 86 86 1 188 82 82 9 179 184 183 1 180 84 84 1 189 28 28 1 9 182 181 24 10 30 30 7 12 183 182 21 11 182 181 24 10 28 28 1 9 26 26 3 3 183 182 21 11 28 28 1 9 17 17 2 1 183 182 21 11 26 26 3 3 188 187 1 159 187 186 0 154 6 6 0 154 0 0 0 155 187 186 0 154 188 187 1 159 189 188 1 156 0 0 0 155 188 187 1 159 190 189 1 158 0 0 0 155 189 188 1 156 24 24 0 154 191 190 1 159 151 151 1 156 154 154 1 159 191 190 1 159 24 24 0 154 22 22 0 154 154 154 1 159 24 24 0 154 20 20 0 155 154 154 1 159 22 22 0 154 175 175 1 171 130 130 1 120 132 132 12 122 55 55 1 39 130 130 1 120 175 175 1 171 53 53 1 37 55 55 1 39 175 175 1 171 14 14 1 3 1 1 1 1 15 15 6 11 0 0 0 0 1 1 1 1 14 14 1 3 187 186 0 4 0 0 0 0 14 14 1 3 151 151 1 192 153 153 1 191 152 152 1 190 154 154 1 193 153 153 1 191 151 151 1 192 191 190 1 194 154 154 1 193 151 151 1 192 33 33 1 195 118 118 12 102 119 119 1 103 117 117 4 101 118 118 12 102 33 33 1 195 58 58 1 196 117 117 4 101 33 33 1 195 52 52 1 36 38 38 1 197 54 54 1 38 40 40 1 198 38 38 1 197 52 52 1 36 42 42 4 34 40 40 1 198 52 52 1 36 8 8 1 5 187 186 0 4 14 14 1 3 6 6 0 4 187 186 0 4 8 8 1 5 7 7 4 5 163 163 1 7 5 5 3 3 9 9 1 6 163 163 1 7 7 7 4 5 180 180 19 177 15 15 6 175 181 74 3 199 161 161 21 176 15 15 6 175 180 180 19 177 192 191 1 200 116 116 1 160 155 155 1 161 121 121 1 201 116 116 1 160 192 191 1 200 13 13 5 173 179 179 24 174 178 178 7 172 15 15 6 175 179 179 24 174 13 13 5 173 32 32 1 202 119 119 1 103 120 120 1 104 33 33 1 195 119 119 1 103 32 32 1 202 124 124 1 203 120 120 1 104 121 121 1 105 32 32 1 202 120 120 1 104 124 124 1 203 165 165 21 76 169 169 7 78 177 177 7 204 167 167 22 77 169 169 7 78 165 165 21 76 61 61 14 45 147 147 4 148 148 148 4 150 62 62 7 46 147 147 4 148 61 61 14 45 121 121 1 205 123 123 1 110 124 124 1 111 192 191 1 206 123 123 1 110 121 121 1 205 192 191 1 206 122 122 1 109 123 123 1 110 193 192 1 207 122 122 1 109 192 191 1 206 189 188 1 191 194 193 1 192 190 189 1 190 188 187 1 193 194 193 1 192 189 188 1 191 60 60 8 44 148 148 4 150 59 59 8 43 61 61 14 45 148 148 4 150 60 60 8 44 16 16 0 0 26 26 3 3 24 24 0 4 17 17 2 1 26 26 3 3 16 16 0 0 73 73 2 146 62 62 7 46 63 63 15 47 147 147 4 148 62 62 7 46 73 73 2 146 17 17 2 1 74 74 19 61 183 182 21 11 19 19 1 1 74 74 19 61 17 17 2 1 193 192 1 208 155 155 1 161 156 156 1 162 192 191 1 200 155 155 1 161 193 192 1 208 27 27 1 7 79 79 1 6 25 25 4 5 29 29 1 8 79 79 1 6 27 27 1 7 21 21 1 3 78 78 1 7 77 77 1 9 23 23 1 5 78 78 1 7 21 21 1 3 4 4 0 155 194 193 1 156 6 6 0 154 2 2 0 157 194 193 1 156 4 4 0 155 195 194 1 159 6 6 0 154 194 193 1 156 188 187 1 159 6 6 0 154 195 194 1 159 54 54 1 209 36 36 1 17 56 56 1 108 38 38 1 19 36 36 1 17 54 54 1 209 190 189 1 158 2 2 0 157 0 0 0 155 194 193 1 156 2 2 0 157 190 189 1 158 90 90 1 73 156 156 1 162 89 89 1 71 193 192 1 208 156 156 1 162 90 90 1 73 10 10 1 7 14 14 1 3 12 12 1 9 8 8 1 5 14 14 1 3 10 10 1 7 90 90 1 107 122 122 1 109 193 192 1 207 95 95 7 78 93 93 21 76 100 100 7 204 108 108 1 92 110 110 1 94 115 115 1 99 195 194 1 194 194 193 1 192 188 187 1 193 161 161 21 176 179 179 24 174 15 15 6 175 184 183 1 180 133 133 12 123 131 131 1 121 75 75 3 199 76 76 6 175 74 74 19 177 139 139 14 129 107 107 8 131 105 105 8 168</p>
				</triangles>
			</mesh>
		</geometry>
	</library_geometries>
	<library_controllers>
		<controller id="polygon0_Controller">
			<skin source="#polygon0">
				<bind_shape_matrix>1 0 0 0 0 1 0 0 0 0 1 0 0 0 0 1</bind_shape_matrix>
				<source id="polygon0_Joints">
					<Name_array id="polygon0_JointArr" count="5">skl_root leg_L foot_L leg_R foot_R</Name_array>
					<technique_common>
						<accessor source="#polygon0_JointArr" count="5">
							<param name="JOINT" type="Name" />
						</accessor>
					</technique_common>
				</source>
				<source id="polygon0_Matrices">
					<float_array id="polygon0_MatArr" count="80">0 1 0 -195 0 0 -1 0 -1 0 0 0 0 0 0 1 0 -1 0 130.5197 0 0 -1 21.45 1 0 0 -56.01599 0 0 0 1 0 -1 0 83.98033 0 0 -1 21.45 1 0 0 -56.01599 0 0 0 1 0 -1 0 130.5197 0 0 1 -21.45 -1 0 0 -56.01599 0 0 0 1 0 -1 0 83.98033 0 0 1 -21.45 -1 0 0 -56.01599 0 0 0 1</float_array>
					<technique_common>
						<accessor source="#polygon0_MatArr" count="5" stride="16">
							<param type="float4x4" />
						</accessor>
					</technique_common>
				</source>
				<source id="polygon0_Weights">
					<float_array id="polygon0_WeightArr" count="1">1</float_array>
					<technique_common>
						<accessor source="#polygon0_WeightArr" count="1">
							<param type="float" />
						</accessor>
					</technique_common>
				</source>
				<joints>
					<input semantic="JOINT" source="#polygon0_Joints" />
					<input semantic="INV_BIND_MATRIX" source="#polygon0_Matrices" />
				</joints>
				<vertex_weights count="196">
					<input semantic="JOINT" offset="0" source="#polygon0_Joints" />
					<input semantic="WEIGHT" offset="1" source="#polygon0_Weights" />
					<vcount>1 1 1 1 1 1 1 1 1 1 1 1 1 1 1 1 1 1 1 1 1 1 1 1 1 1 1 1 1 1 1 1 1 1 1 1 1 1 1 1 1 1 1 1 1 1 1 1 1 1 1 1 1 1 1 1 1 1 1 1 1 1 1 1 1 1 1 1 1 1 1 1 1 1 1 1 1 1 1 1 1 1 1 1 1 1 1 1 1 1 1 1 1 1 1 1 1 1 1 1 1 1 1 1 1 1 1 1 1 1 1 1 1 1 1 1 1 1 1 1 1 1 1 1 1 1 1 1 1 1 1 1 1 1 1 1 1 1 1 1 1 1 1 1 1 1 1 1 1 1 1 1 1 1 1 1 1 1 1 1 1 1 1 1 1 1 1 1 1 1 1 1 1 1 1 1 1 1 1 1 1 1 1 1 1 1 1 1 1 1 1 1 1 1 1 1</vcount>
					<v>4 0 4 0 4 0 4 0 4 0 4 0 4 0 4 0 4 0 4 0 4 0 4 0 4 0 4 0 4 0 4 0 2 0 2 0 2 0 2 0 2 0 2 0 2 0 2 0 2 0 2 0 2 0 2 0 2 0 2 0 2 0 2 0 0 0 0 0 0 0 0 0 0 0 0 0 0 0 0 0 0 0 0 0 0 0 0 0 0 0 0 0 0 0 0 0 0 0 0 0 0 0 0 0 0 0 0 0 0 0 0 0 0 0 0 0 0 0 0 0 0 0 0 0 0 0 0 0 0 0 0 0 0 0 0 0 0 0 0 0 0 0 0 0 0 0 0 0 2 0 2 0 2 0 2 0 2 0 2 0 0 0 0 0 0 0 0 0 0 0 0 0 0 0 0 0 0 0 0 0 0 0 1 0 1 0 1 0 1 0 2 0 1 0 2 0 1 0 2 0 2 0 0 0 0 0 0 0 0 0 0 0 0 0 0 0 0 0 0 0 0 0 0 0 0 0 0 0 0 0 0 0 0 0 0 0 0 0 0 0 0 0 0 0 0 0 0 0 0 0 0 0 0 0 0 0 0 0 0 0 0 0 0 0 0 0 0 0 0 0 0 0 0 0 0 0 0 0 0 0 0 0 1 0 1 0 0 0 0 0 0 0 0 0 0 0 0 0 0 0 0 0 2 0 2 0 2 0 2 0 0 0 0 0 0 0 0 0 0 0 0 0 4 0 4 0 4 0 3 0 3 0 3 0 3 0 3 0 4 0 4 0 3 0 3 0 3 0 0 0 0 0 4 0 4 0 4 0 4 0 4 0 4 0 2 0 2 0 0 0 0 0 0 0 4 0 4 0 4 0 4 0 2 0 0 0 0 0 4 0 4 0</v>
				</vertex_weights>
			</skin>
		</controller>
	</library_controllers>
	<library_visual_scenes>
		<visual_scene id="RootNode" name="RootNode">
			<node id="skl_root" name="skl_root" sid="skl_root" type="JOINT">
				<translate>0 195 0</translate>
				<rotate>0 0 1 90</rotate>
				<rotate>1 0 0 -90</rotate>
				<node id="leg_L" name="leg_L" sid="leg_L" type="JOINT">
					<translate>-64.48034 -21.45 -56.01599</translate>
					<rotate>0 0 1 180</rotate>
					<rotate>1 0 0 180</rotate>
					<node id="foot_L" name="foot_L" sid="foot_L" type="JOINT">
						<translate>46.53932 0 -1E-06</translate>
					</node>
				</node>
				<node id="leg_R" name="leg_R" sid="leg_R" type="JOINT">
					<translate>-64.48034 -21.45 56.01599</translate>
					<rotate>0 0 1 -180</rotate>
					<node id="foot_R" name="foot_R" sid="foot_R" type="JOINT">
						<translate>46.53932 0 0</translate>
					</node>
				</node>
			</node>
			<node id="polygon0" name="polygon0" type="NODE">
				<instance_controller url="#polygon0_Controller">
					<skeleton>#skl_root</skeleton>
					<bind_material>
						<technique_common>
							<instance_material symbol="obj_hanachan_all_tx" target="#obj_hanachan_all_tx">
								<bind_vertex_input semantic="TEXCOORD0" input_semantic="TEXCOORD" input_set="0" />
								<bind_vertex_input semantic="TEXCOORD0" input_semantic="TEXCOORD" input_set="0" />
								<bind_vertex_input semantic="TEXCOORD0" input_semantic="TEXCOORD" input_set="0" />
							</instance_material>
						</technique_common>
					</bind_material>
				</instance_controller>
			</node>
		</visual_scene>
	</library_visual_scenes>
	<scene>
		<instance_visual_scene url="#RootNode" />
	</scene>
</COLLADA>