<?xml version="1.0" encoding="utf-8"?>
<COLLADA version="1.5.0" xmlns="http://www.collada.org/2008/03/COLLADASchema">
	<asset>
		<contributor>
			<authoring_tool>BrawlCrate</authoring_tool>
		</contributor>
		<created>2026-08-04T13:34:33Z</created>
		<modified>2026-08-04T13:34:33Z</modified>
		<unit meter="0.01" name="centimeter" />
		<up_axis>Y_UP</up_axis>
	</asset>
	<library_images>
		<image id="ef_cNoise-image" name="ef_cNoise">
			<init_from>
				<ref>ef_cNoise.png</ref>
			</init_from>
		</image>
		<image id="ef_dotRot5-image" name="ef_dotRot5">
			<init_from>
				<ref>ef_dotRot5.png</ref>
			</init_from>
		</image>
		<image id="ef_dotRotMask-image" name="ef_dotRotMask">
			<init_from>
				<ref>ef_dotRotMask.png</ref>
			</init_from>
		</image>
		<image id="ef_envPlsts-image" name="ef_envPlsts">
			<init_from>
				<ref>ef_envPlsts.png</ref>
			</init_from>
		</image>
		<image id="ef_hatenas-image" name="ef_hatenas">
			<init_from>
				<ref>ef_hatenas.png</ref>
			</init_from>
		</image>
		<image id="ef_rainbows-image" name="ef_rainbows">
			<init_from>
				<ref>ef_rainbows.png</ref>
			</init_from>
		</image>
	</library_images>
	<library_materials>
		<material id="mat_boxin">
			<instance_effect url="#mat_boxin-fx" />
		</material>
		<material id="mat_boxout">
			<instance_effect url="#mat_boxout-fx" />
		</material>
		<material id="mat_question">
			<instance_effect url="#mat_question-fx" />
		</material>
	</library_materials>
	<library_effects>
		<effect id="mat_boxin-fx" name="mat_boxin">
			<profile_COMMON>
				<newparam sid="ef_rainbows-surface">
					<surface type="2D">
						<init_from>
							<ref>ef_rainbows-image</ref>
						</init_from>
					</surface>
				</newparam>
				<newparam sid="ef_rainbows-sampler">
					<sampler2D>
						<source>ef_rainbows-surface</source>
						<instance_image url="#ef_rainbows-image" />
						<wrap_s>WRAP</wrap_s>
						<wrap_t>WRAP</wrap_t>
						<minfilter>LINEAR</minfilter>
						<magfilter>LINEAR</magfilter>
					</sampler2D>
				</newparam>
				<technique sid="COMMON">
					<phong>
						<diffuse>
							<texture texture="ef_rainbows-sampler" texcoord="TEXCOORD0" />
						</diffuse>
					</phong>
				</technique>
			</profile_COMMON>
		</effect>
		<effect id="mat_boxout-fx" name="mat_boxout">
			<profile_COMMON>
				<newparam sid="ef_envPlsts-surface">
					<surface type="2D">
						<init_from>
							<ref>ef_envPlsts-image</ref>
						</init_from>
					</surface>
				</newparam>
				<newparam sid="ef_envPlsts-sampler">
					<sampler2D>
						<source>ef_envPlsts-surface</source>
						<instance_image url="#ef_envPlsts-image" />
						<wrap_s>CLAMP</wrap_s>
						<wrap_t>CLAMP</wrap_t>
						<minfilter>LINEAR</minfilter>
						<magfilter>LINEAR</magfilter>
					</sampler2D>
				</newparam>
				<newparam sid="ef_dotRot5-surface">
					<surface type="2D">
						<init_from>
							<ref>ef_dotRot5-image</ref>
						</init_from>
					</surface>
				</newparam>
				<newparam sid="ef_dotRot5-sampler">
					<sampler2D>
						<source>ef_dotRot5-surface</source>
						<instance_image url="#ef_dotRot5-image" />
						<wrap_s>WRAP</wrap_s>
						<wrap_t>WRAP</wrap_t>
						<minfilter>LINEAR</minfilter>
						<magfilter>LINEAR</magfilter>
					</sampler2D>
				</newparam>
				<newparam sid="ef_cNoise-surface">
					<surface type="2D">
						<init_from>
							<ref>ef_cNoise-image</ref>
						</init_from>
					</surface>
				</newparam>
				<newparam sid="ef_cNoise-sampler">
					<sampler2D>
						<source>ef_cNoise-surface</source>
						<instance_image url="#ef_cNoise-image" />
						<wrap_s>WRAP</wrap_s>
						<wrap_t>WRAP</wrap_t>
						<minfilter>LINEAR</minfilter>
						<magfilter>LINEAR</magfilter>
					</sampler2D>
				</newparam>
				<newparam sid="ef_dotRotMask-surface">
					<surface type="2D">
						<init_from>
							<ref>ef_dotRotMask-image</ref>
						</init_from>
					</surface>
				</newparam>
				<newparam sid="ef_dotRotMask-sampler">
					<sampler2D>
						<source>ef_dotRotMask-surface</source>
						<instance_image url="#ef_dotRotMask-image" />
						<wrap_s>WRAP</wrap_s>
						<wrap_t>WRAP</wrap_t>
						<minfilter>LINEAR</minfilter>
						<magfilter>LINEAR</magfilter>
					</sampler2D>
				</newparam>
				<technique sid="COMMON">
					<phong>
						<diffuse>
							<texture texture="ef_envPlsts-sampler" texcoord="TEXCOORD0" />
						</diffuse>
					</phong>
				</technique>
			</profile_COMMON>
		</effect>
		<effect id="mat_question-fx" name="mat_question">
			<profile_COMMON>
				<newparam sid="ef_hatenas-surface">
					<surface type="2D">
						<init_from>
							<ref>ef_hatenas-image</ref>
						</init_from>
					</surface>
				</newparam>
				<newparam sid="ef_hatenas-sampler">
					<sampler2D>
						<source>ef_hatenas-surface</source>
						<instance_image url="#ef_hatenas-image" />
						<wrap_s>CLAMP</wrap_s>
						<wrap_t>CLAMP</wrap_t>
						<minfilter>LINEAR</minfilter>
						<magfilter>LINEAR</magfilter>
					</sampler2D>
				</newparam>
				<technique sid="COMMON">
					<phong>
						<diffuse>
							<texture texture="ef_hatenas-sampler" texcoord="TEXCOORD0" />
						</diffuse>
					</phong>
				</technique>
			</profile_COMMON>
		</effect>
	</library_effects>
	<library_geometries>
		<geometry id="polygon0" name="polygon0">
			<mesh>
				<source id="polygon0_Positions">
					<float_array id="polygon0_PosArr" count="288">-88.98047 -100.1914 88.98047 -88.98047 -88.98047 100.5234 -81.5 -104.25 88.98047 -81.5 -88.98047 104.25 81.5 -88.98047 104.25 81.5 -81.5 107.3477 88.98047 -81.5 104.25 81.5 81.5 107.3477 88.98047 81.5 104.25 81.5 88.98047 104.25 88.98047 88.98047 100.5234 81.5 104.25 88.98047 88.98047 100.1914 88.98047 88.98047 104.25 81.5 88.98047 -104.25 -81.5 88.98047 -100.1914 -88.98047 81.5 -104.25 -88.98047 88.98047 -88.98047 -100.5234 81.5 -88.98047 -104.25 88.98047 -81.5 -104.25 81.5 -81.5 -107.3477 88.98047 81.5 -104.25 81.5 81.5 -107.3477 81.5 88.98047 -104.25 -81.5 88.98047 -104.25 -81.5 104.25 -88.98047 -88.98047 88.98047 -100.5234 -88.98047 100.1914 -88.98047 -88.98047 104.25 -81.5 -81.5 107.3477 -81.5 -81.5 107.3477 81.5 81.5 107.3477 81.5 -81.5 104.25 88.98047 -81.5 88.98047 104.25 -81.5 81.5 107.3477 88.98047 -88.98047 100.5234 81.5 -104.25 88.98047 -81.5 -107.3477 81.5 -88.98047 -104.25 81.5 -81.5 -107.3477 -81.5 -88.98047 -104.25 -81.5 -81.5 -104.25 -88.98047 -88.98047 -100.1914 -88.98047 -88.98047 -88.98047 -100.5234 88.98047 -100.1914 88.98047 88.98047 -104.25 81.5 81.5 -107.3477 81.5 81.5 -107.3477 -81.5 -81.5 -88.98047 -104.25 -88.98047 -81.5 -104.25 100.5234 -88.98047 -88.98047 104.25 -88.98047 -81.5 107.3477 -81.5 -81.5 104.25 -88.98047 81.5 107.3477 -81.5 81.5 100.5234 -88.98047 88.98047 104.25 -81.5 88.98047 -100.5234 -88.98047 88.98047 -104.25 -88.98047 81.5 -107.3477 -81.5 81.5 -104.25 -88.98047 -81.5 -107.3477 -81.5 -81.5 -100.5234 -88.98047 -88.98047 -104.25 -81.5 -88.98047 -88.98047 81.5 -104.25 104.25 -81.5 -88.98047 104.25 81.5 -88.98047 107.3477 81.5 -81.5 100.5234 88.98047 -88.98047 104.25 88.98047 -81.5 88.98047 100.1914 -88.98047 88.98047 104.25 -81.5 -88.98047 -81.5 104.25 -104.25 -81.5 88.98047 -104.25 81.5 88.98047 -107.3477 81.5 81.5 -100.5234 88.98047 88.98047 -104.25 88.98047 81.5 -88.98047 100.1914 88.98047 -88.98047 104.25 81.5 -81.5 -81.5 -107.3477 -81.5 81.5 -107.3477 81.5 107.3477 -81.5 81.5 104.25 -88.98047 88.98047 88.98047 -100.5234 100.5234 88.98047 88.98047 104.25 88.98047 81.5 107.3477 81.5 81.5 -100.5234 88.98047 -88.98047 -104.25 88.98047 -81.5 -107.3477 81.5 -81.5 -88.98047 81.5 104.25 -81.5 -81.5 107.3477 104.25 81.5 88.98047 -88.98047 88.98047 100.5234 -104.25 81.5 -88.98047</float_array>
					<technique_common>
						<accessor source="#polygon0_PosArr" count="96" stride="3">
							<param name="X" type="float" />
							<param name="Y" type="float" />
							<param name="Z" type="float" />
						</accessor>
					</technique_common>
				</source>
				<source id="polygon0_Normals">
					<float_array id="polygon0_NormArr" count="288">-0.5033569 -0.7023315 0.5033569 -0.5036621 -0.5048218 0.7011108 -0.1918945 -0.8092651 0.5552368 -0.1886597 -0.5543213 0.8106689 0.1886597 -0.5543213 0.8106689 0.1992798 -0.1992798 0.9594727 0.5536499 -0.1851196 0.8118896 0.1992798 0.1992798 0.9594727 0.5536499 0.1851196 0.8118896 0.1886597 0.5543213 0.8106689 0.5036621 0.5048218 0.7011108 0.1918945 0.8092651 0.5552368 0.5033569 0.7023315 0.5033569 0.5552368 0.8092651 0.1918945 0.5552368 -0.8092651 -0.1918945 0.5033569 -0.7023315 -0.5033569 0.1918945 -0.8092651 -0.5552368 0.5036621 -0.5048218 -0.7011108 0.1886597 -0.5543213 -0.8106689 0.5536499 -0.1851196 -0.8118896 0.1992798 -0.1992798 -0.9594727 0.5536499 0.1851196 -0.8118896 0.1992798 0.1992798 -0.9594727 0.1886597 0.5543213 -0.8106689 -0.1886597 0.5543213 -0.8106689 -0.1918945 0.8092651 -0.5552368 -0.5036621 0.5048218 -0.7011108 -0.5033569 0.7023315 -0.5033569 -0.5552368 0.8092651 -0.1918945 -0.2029419 0.9579468 -0.2029419 -0.2029419 0.9579468 0.2029419 0.2029419 0.9579468 0.2029419 -0.1918945 0.8092651 0.5552368 -0.1886597 0.5543213 0.8106689 -0.1992798 0.1992798 0.9594727 0.5036621 -0.5048218 0.7011108 0.1918945 -0.8092651 0.5552368 -0.2029419 -0.9579468 0.2029419 -0.5552368 -0.8092651 0.1918945 -0.2029419 -0.9579468 -0.2029419 -0.5552368 -0.8092651 -0.1918945 -0.1918945 -0.8092651 -0.5552368 -0.5033569 -0.7023315 -0.5033569 -0.5036621 -0.5048218 -0.7011108 0.5033569 -0.7023315 0.5033569 0.5552368 -0.8092651 0.1918945 0.2029419 -0.9579468 0.2029419 0.2029419 -0.9579468 -0.2029419 -0.1886597 -0.5543213 -0.8106689 -0.5536499 -0.1851196 -0.8118896 0.7011108 -0.5048218 -0.5036621 0.8106689 -0.5543213 -0.1886597 0.9594727 -0.1992798 -0.1992798 0.8106689 -0.5543213 0.1886597 0.9594727 -0.1992798 0.1992798 0.7011108 -0.5048218 0.5036621 0.8118896 -0.1851196 0.5536499 -0.7011108 -0.5048218 0.5036621 -0.8106689 -0.5543213 0.1886597 -0.9594727 -0.1992798 0.1992798 -0.8106689 -0.5543213 -0.1886597 -0.9594727 -0.1992798 -0.1992798 -0.7011108 -0.5048218 -0.5036621 -0.8118896 -0.1851196 -0.5536499 -0.5536499 0.1851196 -0.8118896 0.8118896 -0.1851196 -0.5536499 0.8118896 0.1851196 -0.5536499 0.9594727 0.1992798 -0.1992798 0.7011108 0.5048218 -0.5036621 0.8106689 0.5543213 -0.1886597 0.5033569 0.7023315 -0.5033569 0.5552368 0.8092651 -0.1918945 -0.5536499 -0.1851196 0.8118896 -0.8118896 -0.1851196 0.5536499 -0.8118896 0.1851196 0.5536499 -0.9594727 0.1992798 0.1992798 -0.7011108 0.5048218 0.5036621 -0.8106689 0.5543213 0.1886597 -0.5033569 0.7023315 0.5033569 -0.5552368 0.8092651 0.1918945 -0.1992798 -0.1992798 -0.9594727 -0.1992798 0.1992798 -0.9594727 0.2029419 0.9579468 -0.2029419 0.1918945 0.8092651 -0.5552368 0.5036621 0.5048218 -0.7011108 0.7011108 0.5048218 0.5036621 0.8106689 0.5543213 0.1886597 0.9594727 0.1992798 0.1992798 -0.7011108 0.5048218 -0.5036621 -0.8106689 0.5543213 -0.1886597 -0.9594727 0.1992798 -0.1992798 -0.5536499 0.1851196 0.8118896 -0.1992798 -0.1992798 0.9594727 0.8118896 0.1851196 0.5536499 -0.5036621 0.5048218 0.7011108 -0.8118896 0.1851196 -0.5536499</float_array>
					<technique_common>
						<accessor source="#polygon0_NormArr" count="96" stride="3">
							<param name="X" type="float" />
							<param name="Y" type="float" />
							<param name="Z" type="float" />
						</accessor>
					</technique_common>
				</source>
				<source id="polygon0_UVs0">
					<float_array id="polygon0_UVArr0" count="192">0.08486938 0.04769897 0.08486938 0.09832764 0.1197815 0.02938843 0.1197815 0.09832764 0.8802185 0.09832764 0.8802185 0.1320801 0.9151306 0.1320801 0.8802185 0.8679199 0.9151306 0.8679199 0.8802185 0.9016724 0.9151306 0.9016724 0.8802185 0.9706116 0.9151306 0.952301 0.9151306 0.9706116 0.9151306 0.02938843 0.9151306 0.04769897 0.8802185 0.02938843 0.9151306 0.09832764 0.1197815 0.9016724 0.1197815 0.9706116 0.08486938 0.9016724 0.08486938 0.952301 0.08486938 0.9706116 0.1197815 0.9845886 0.8802185 0.9845886 0.1197815 0.8679199 0.1197815 0.01541138 0.08486938 0.02938843 0.8802185 0.01541138 0.08486938 0.1320801 0.9180298 0.08581543 0.9224854 0.03359985 0.9224854 0.08581543 0.925354 0.08581543 0.925354 0.120636 0.9881897 0.08581543 0.9881897 0.120636 0.9910889 0.08581543 0.9910889 0.120636 0.9969788 0.120636 0.9969788 0.879364 0.08145142 0.08596802 0.07696533 0.03378296 0.07696533 0.08596802 0.07409668 0.08596802 0.07409668 0.1207886 0.01107788 0.08596802 0.01107788 0.1207886 0.008178711 0.08596802 0.008178711 0.1207886 0.002288818 0.1207886 0.002288818 0.8792114 0.9165955 0.120636 0.9224854 0.120636 0.9224854 0.879364 0.925354 0.879364 0.9224854 0.9141846 0.925354 0.9141846 0.9224854 0.9664001 0.925354 0.98526 0.08288574 0.1207886 0.07696533 0.1207886 0.07696533 0.8792114 0.07409668 0.8792114 0.07696533 0.914032 0.07409668 0.914032 0.07696533 0.966217 0.07409668 0.9850769 0.1197815 0.1320801 0.08486938 0.8679199 0.9955444 0.9141846 0.9910889 0.9664001 0.9910889 0.9141846 0.9881897 0.9141846 0.9881897 0.879364 0.003723145 0.914032 0.008178711 0.966217 0.008178711 0.914032 0.01107788 0.914032 0.01107788 0.8792114 0.9910889 0.879364 0.9180298 0.9141846 0.9165955 0.879364 0.08145142 0.914032 0.08288574 0.8792114 0.008178711 0.8792114 0.9881897 0.98526 0.9910889 0.03359985 0.9881897 0.01473999 0.925354 0.01473999 0.003723145 0.08596802 0.008178711 0.03378296 0.01107788 0.0149231 0.07409668 0.0149231 0.01107788 0.9850769 0.9955444 0.08581543</float_array>
					<technique_common>
						<accessor source="#polygon0_UVArr0" count="96" stride="2">
							<param name="S" type="float" />
							<param name="T" type="float" />
						</accessor>
					</technique_common>
				</source>
				<vertices id="polygon0_Vertices">
					<input semantic="POSITION" source="#polygon0_Positions" />
				</vertices>
				<triangles material="mat_boxin" count="188">
					<input semantic="VERTEX" source="#polygon0_Vertices" offset="0" />
					<input semantic="NORMAL" source="#polygon0_Normals" offset="1" />
					<input semantic="TEXCOORD" source="#polygon0_UVs0" set="0" offset="2" />
					<p>2 2 2 1 1 1 0 0 0 3 3 3 1 1 1 2 2 2 4 4 4 3 3 3 2 2 2 5 5 5 3 3 3 4 4 4 6 6 6 5 5 5 4 4 4 7 7 7 5 5 5 6 6 6 8 8 8 7 7 7 6 6 6 9 9 9 7 7 7 8 8 8 10 10 10 9 9 9 8 8 8 11 11 11 9 9 9 10 10 10 12 12 12 11 11 11 10 10 10 13 13 13 11 11 11 12 12 12 16 16 16 15 15 15 14 14 14 17 17 17 15 15 15 16 16 16 18 18 4 17 17 17 16 16 16 19 19 6 17 17 17 18 18 4 20 20 5 19 19 6 18 18 4 21 21 8 19 19 6 20 20 5 22 22 7 21 21 8 20 20 5 23 23 9 21 21 8 22 22 7 24 24 18 23 23 9 22 22 7 25 25 19 23 23 9 24 24 18 26 26 20 25 25 19 24 24 18 27 27 21 25 25 19 26 26 20 28 28 22 25 25 19 27 27 21 29 29 23 25 25 19 28 28 22 30 30 23 29 29 23 28 28 22 31 31 24 29 29 23 30 30 23 32 32 19 31 31 24 30 30 23 11 11 11 31 31 24 32 32 19 33 33 18 11 11 11 32 32 19 9 9 9 11 11 11 33 33 18 34 34 25 9 9 9 33 33 18 7 7 7 9 9 9 34 34 25 5 5 5 7 7 7 34 34 25 4 4 4 35 35 17 6 6 6 36 36 16 35 35 17 4 4 4 2 2 2 36 36 16 4 4 4 37 37 26 36 36 16 2 2 2 38 38 27 37 37 26 2 2 2 39 39 26 37 37 26 38 38 27 40 40 27 39 39 26 38 38 27 41 41 2 39 39 26 40 40 27 42 42 0 41 41 2 40 40 27 43 43 1 41 41 2 42 42 0 36 36 16 44 44 15 35 35 17 45 45 14 44 44 15 36 36 16 46 46 28 45 45 14 36 36 16 14 14 14 45 45 14 46 46 28 47 47 28 14 14 14 46 46 28 16 16 16 14 14 14 47 47 28 41 41 2 16 16 16 47 47 28 48 48 3 16 16 16 41 41 2 43 43 1 48 48 3 41 41 2 49 49 29 48 48 3 43 43 1 50 50 32 15 15 31 17 17 30 51 51 33 15 15 31 50 50 32 52 52 34 51 51 33 50 50 32 53 53 35 51 51 33 52 52 34 54 54 36 53 53 35 52 52 34 55 55 37 53 53 35 54 54 36 56 56 38 55 55 37 54 54 36 6 6 39 55 55 37 56 56 38 8 8 40 6 6 39 56 56 38 57 57 43 0 0 42 1 1 41 58 58 44 0 0 42 57 57 43 59 59 45 58 58 44 57 57 43 60 60 46 58 58 44 59 59 45 61 61 47 60 60 46 59 59 45 62 62 48 60 60 46 61 61 47 63 63 49 62 62 48 61 61 47 49 49 50 62 62 48 63 63 49 64 64 51 49 49 50 63 63 49 19 19 52 50 50 32 17 17 30 65 65 53 50 50 32 19 19 52 66 66 54 65 65 53 19 19 52 67 67 55 65 65 53 66 66 54 68 68 56 67 67 55 66 66 54 69 69 57 67 67 55 68 68 56 70 70 58 69 69 57 68 68 56 71 71 59 69 69 57 70 70 58 72 72 60 57 57 43 1 1 41 73 73 61 57 57 43 72 72 60 74 74 62 73 73 61 72 72 60 75 75 63 73 73 61 74 74 62 76 76 64 75 75 63 74 74 62 77 77 65 75 75 63 76 76 64 78 78 66 77 77 65 76 76 64 79 79 67 77 77 65 78 78 66 48 48 3 18 18 4 16 16 16 80 80 68 18 18 4 48 48 3 49 49 29 80 80 68 48 48 3 81 81 25 80 80 68 49 49 29 64 64 69 81 81 25 49 49 29 24 24 18 81 81 25 64 64 69 26 26 20 24 24 18 64 64 69 13 13 13 31 31 24 11 11 11 82 82 24 31 31 24 13 13 13 71 71 13 82 82 24 13 13 13 83 83 11 82 82 24 71 71 13 70 70 12 83 83 11 71 71 13 84 84 10 83 83 11 70 70 12 85 85 72 12 12 71 10 10 70 86 86 73 12 12 71 85 85 72 87 87 74 86 86 73 85 85 72 69 69 57 86 86 73 87 87 74 67 67 55 69 69 57 87 87 74 88 88 77 27 27 76 26 26 75 89 89 78 27 27 76 88 88 77 90 90 79 89 89 78 88 88 77 77 77 65 89 89 78 90 90 79 75 75 63 77 77 65 90 90 79 91 91 69 34 34 25 33 33 18 92 92 68 34 34 25 91 91 69 72 72 29 92 92 68 91 91 69 3 3 3 92 92 68 72 72 29 1 1 1 3 3 3 72 72 29 8 8 40 85 85 72 10 10 70 93 93 80 85 85 72 8 8 40 56 56 38 93 93 80 8 8 40 54 54 36 93 93 80 56 56 38 68 68 56 84 84 81 70 70 58 21 21 82 84 84 81 68 68 56 66 66 54 21 21 82 68 68 56 19 19 52 21 21 82 66 66 54 76 76 64 94 94 83 78 78 66 91 91 84 94 94 83 76 76 64 74 74 62 91 91 84 76 76 64 72 72 60 91 91 84 74 74 62 64 64 51 88 88 77 26 26 75 95 95 85 88 88 77 64 64 51 63 63 49 95 95 85 64 64 51 61 61 47 95 95 85 63 63 49 37 37 26 46 46 28 36 36 16 47 47 28 46 46 28 37 37 26 39 39 26 47 47 28 37 37 26 41 41 2 47 47 28 39 39 26 80 80 68 20 20 5 18 18 4 22 22 7 20 20 5 80 80 68 81 81 25 22 22 7 80 80 68 24 24 18 22 22 7 81 81 25 79 79 22 30 30 23 28 28 22 32 32 19 30 30 23 79 79 22 78 78 21 32 32 19 79 79 22 94 94 20 32 32 19 78 78 21 23 23 9 84 84 10 21 21 8 83 83 11 84 84 10 23 23 9 25 25 19 83 83 11 23 23 9 29 29 23 83 83 11 25 25 19 86 86 73 13 13 86 12 12 71 71 71 59 13 13 86 86 86 73 69 69 57 71 71 59 86 86 73 90 90 79 59 59 45 75 75 63 61 61 47 59 59 45 90 90 79 44 44 87 53 53 35 55 55 37 45 45 88 53 53 35 44 44 87 45 45 88 51 51 33 53 53 35 14 14 89 51 51 33 45 45 88 65 65 53 52 52 34 50 50 32 67 67 55 52 52 34 65 65 53 43 43 90 62 62 48 49 49 50 42 42 91 62 62 48 43 43 90 42 42 91 60 60 46 62 62 48 40 40 92 60 60 46 42 42 91 40 40 92 58 58 44 60 60 46 38 38 93 58 58 44 40 40 92 73 73 61 59 59 45 57 57 43 75 75 63 59 59 45 73 73 61 93 93 80 87 87 74 85 85 72 54 54 36 87 87 74 93 93 80 87 87 74 52 52 34 67 67 55 54 54 36 52 52 34 87 87 74 79 79 67 89 89 78 77 77 65 28 28 94 89 89 78 79 79 67 94 94 20 33 33 18 32 32 19 91 91 69 33 33 18 94 94 20 35 35 95 55 55 37 6 6 39 44 44 87 55 55 37 35 35 95 5 5 5 92 92 68 3 3 3 34 34 25 92 92 68 5 5 5 82 82 24 29 29 23 31 31 24 83 83 11 29 29 23 82 82 24 95 95 85 90 90 79 88 88 77 61 61 47 90 90 79 95 95 85 51 51 33 14 14 89 15 15 31 58 58 44 38 38 93 0 0 42 89 89 78 28 28 94 27 27 76 0 0 0 38 38 27 2 2 2</p>
				</triangles>
			</mesh>
		</geometry>
		<geometry id="polygon1" name="polygon1">
			<mesh>
				<source id="polygon1_Positions">
					<float_array id="polygon1_PosArr" count="288">86.09766 -113.4063 86.09766 86.09766 -110.1328 94 94 -110.1328 86.09766 94 -105.8477 94 110.1328 -94 86.09766 106.1992 -94 94 113.4063 -86.09766 86.09766 110.1328 -86.09766 94 110.1328 86.09766 94 94 86.09766 110.1328 106.1992 94 94 94 94 106.1992 94 105.8477 94 86.09766 110.1328 94 94 110.1328 86.09766 86.09766 113.4063 86.09766 86.09766 -113.4063 -86.09766 94 -110.1328 -86.09766 86.09766 -110.1328 -94 94 -105.8477 -94 94 -94 -106.1992 106.1992 -94 -94 94 -86.09766 -110.1328 110.1328 -86.09766 -94 110.1328 86.09766 -94 113.4063 86.09766 -86.09766 106.1992 94 -94 110.1328 94 -86.09766 94 105.8477 -94 94 110.1328 -86.09766 86.09766 110.1328 -94 86.09766 113.4063 -86.09766 -86.09766 113.4063 86.09766 -86.09766 110.1328 94 -94 110.1328 86.09766 -94 105.8477 94 -110.1328 94 86.09766 -106.1992 94 94 -113.4063 86.09766 86.09766 -110.1328 86.09766 94 -110.1328 -86.09766 94 -94 -86.09766 110.1328 -106.1992 -94 94 -94 -94 106.1992 -94 -105.8477 94 -86.09766 -110.1328 94 -94 -110.1328 86.09766 -86.09766 -113.4063 86.09766 -86.09766 -113.4063 -86.09766 -86.09766 -110.1328 -94 -94 -110.1328 -86.09766 -94 -105.8477 -94 -110.1328 -94 -86.09766 -106.1992 -94 -94 -113.4063 -86.09766 -86.09766 -110.1328 -86.09766 -94 -110.1328 86.09766 -94 -94 86.09766 -110.1328 -106.1992 94 -94 -94 94 -106.1992 -94 105.8477 -94 -86.09766 110.1328 -94 -94 110.1328 -86.09766 -86.09766 113.4063 -86.09766 86.09766 -94 110.1328 -86.09766 -94 110.1328 86.09766 -86.09766 113.4063 -86.09766 -86.09766 113.4063 -113.4063 -86.09766 86.09766 -110.1328 -94 86.09766 113.4063 -86.09766 -86.09766 110.1328 -94 -86.09766 -86.09766 94 110.1328 86.09766 94 110.1328 -86.09766 86.09766 113.4063 86.09766 86.09766 113.4063 -86.09766 -94 -110.1328 86.09766 -94 -110.1328 -86.09766 -86.09766 -113.4063 86.09766 -86.09766 -113.4063 86.09766 94 -110.1328 -86.09766 94 -110.1328 86.09766 86.09766 -113.4063 -86.09766 86.09766 -113.4063 94 -86.09766 110.1328 94 86.09766 -110.1328 -94 86.09766 110.1328 -113.4063 86.09766 -86.09766 -110.1328 94 -86.09766 -94 -86.09766 -110.1328 113.4063 86.09766 86.09766 110.1328 94 86.09766 -94 94 106.1992 -94 -94 -106.1992 94 94 -106.1992 94 -94 106.1992</float_array>
					<technique_common>
						<accessor source="#polygon1_PosArr" count="96" stride="3">
							<param name="X" type="float" />
							<param name="Y" type="float" />
							<param name="Z" type="float" />
						</accessor>
					</technique_common>
				</source>
				<source id="polygon1_Normals">
					<float_array id="polygon1_NormArr" count="288">0.2029419 -0.9579468 0.2029419 0.1918945 -0.8092651 0.5552368 0.5552368 -0.8092651 0.1918945 0.5033569 -0.7023315 0.5033569 0.8106689 -0.5543213 0.1886597 0.7011108 -0.5048218 0.5036621 0.9594727 -0.1992798 0.1992798 0.8118896 -0.1851196 0.5536499 0.8118896 0.1851196 0.5536499 0.5536499 0.1851196 0.8118896 0.7011108 0.5048218 0.5036621 0.5036621 0.5048218 0.7011108 0.5033569 0.7023315 0.5033569 0.1918945 0.8092651 0.5552368 0.5552368 0.8092651 0.1918945 0.2029419 0.9579468 0.2029419 0.2029419 -0.9579468 -0.2029419 0.5552368 -0.8092651 -0.1918945 0.1918945 -0.8092651 -0.5552368 0.5033569 -0.7023315 -0.5033569 0.5036621 -0.5048218 -0.7011108 0.7011108 -0.5048218 -0.5036621 0.5536499 -0.1851196 -0.8118896 0.8118896 -0.1851196 -0.5536499 0.8118896 0.1851196 -0.5536499 0.9594727 0.1992798 -0.1992798 0.7011108 0.5048218 -0.5036621 0.8106689 0.5543213 -0.1886597 0.5033569 0.7023315 -0.5033569 0.5552368 0.8092651 -0.1918945 0.1918945 0.8092651 -0.5552368 0.2029419 0.9579468 -0.2029419 -0.2029419 0.9579468 0.2029419 -0.1918945 0.8092651 0.5552368 -0.5552368 0.8092651 0.1918945 -0.5033569 0.7023315 0.5033569 -0.8106689 0.5543213 0.1886597 -0.7011108 0.5048218 0.5036621 -0.9594727 0.1992798 0.1992798 -0.8118896 0.1851196 0.5536499 -0.8118896 -0.1851196 0.5536499 -0.5536499 -0.1851196 0.8118896 -0.7011108 -0.5048218 0.5036621 -0.5036621 -0.5048218 0.7011108 -0.5033569 -0.7023315 0.5033569 -0.1918945 -0.8092651 0.5552368 -0.5552368 -0.8092651 0.1918945 -0.2029419 -0.9579468 0.2029419 -0.2029419 -0.9579468 -0.2029419 -0.1918945 -0.8092651 -0.5552368 -0.5552368 -0.8092651 -0.1918945 -0.5033569 -0.7023315 -0.5033569 -0.8106689 -0.5543213 -0.1886597 -0.7011108 -0.5048218 -0.5036621 -0.9594727 -0.1992798 -0.1992798 -0.8118896 -0.1851196 -0.5536499 -0.8118896 0.1851196 -0.5536499 -0.5536499 0.1851196 -0.8118896 -0.7011108 0.5048218 -0.5036621 -0.5036621 0.5048218 -0.7011108 -0.5033569 0.7023315 -0.5033569 -0.1918945 0.8092651 -0.5552368 -0.5552368 0.8092651 -0.1918945 -0.2029419 0.9579468 -0.2029419 0.1886597 -0.5543213 0.8106689 -0.1886597 -0.5543213 0.8106689 0.1992798 -0.1992798 0.9594727 -0.1992798 -0.1992798 0.9594727 -0.9594727 -0.1992798 0.1992798 -0.8106689 -0.5543213 0.1886597 0.9594727 -0.1992798 -0.1992798 0.8106689 -0.5543213 -0.1886597 -0.1886597 0.5543213 0.8106689 0.1886597 0.5543213 0.8106689 -0.1992798 0.1992798 0.9594727 0.1992798 0.1992798 0.9594727 -0.1886597 -0.5543213 -0.8106689 0.1886597 -0.5543213 -0.8106689 -0.1992798 -0.1992798 -0.9594727 0.1992798 -0.1992798 -0.9594727 0.1886597 0.5543213 -0.8106689 -0.1886597 0.5543213 -0.8106689 0.1992798 0.1992798 -0.9594727 -0.1992798 0.1992798 -0.9594727 0.5536499 -0.1851196 0.8118896 0.5536499 0.1851196 -0.8118896 -0.5536499 0.1851196 0.8118896 -0.9594727 0.1992798 -0.1992798 -0.8106689 0.5543213 -0.1886597 -0.5536499 -0.1851196 -0.8118896 0.9594727 0.1992798 0.1992798 0.8106689 0.5543213 0.1886597 -0.5036621 0.5048218 0.7011108 -0.5036621 -0.5048218 -0.7011108 0.5036621 0.5048218 -0.7011108 0.5036621 -0.5048218 0.7011108</float_array>
					<technique_common>
						<accessor source="#polygon1_NormArr" count="96" stride="3">
							<param name="X" type="float" />
							<param name="Y" type="float" />
							<param name="Z" type="float" />
						</accessor>
					</technique_common>
				</source>
				<source id="polygon1_UVs0">
					<float_array id="polygon1_UVArr0" count="366">1.001587 -0.02062988 0.9755859 -0.005615234 1.02771 -0.005615234 1.001587 0.01403809 1.080933 0.08557129 1.04187 0.08557129 1.091675 0.1203613 1.05481 0.1203613 1.05481 0.8796387 0.9483643 0.8796387 1.04187 0.9144287 0.9614258 0.9144287 1.001587 0.9859619 0.9755859 1.005615 1.02771 1.005615 1.001587 1.02063 1.975586 -0.005615234 2.02771 -0.005615234 2.001587 0.01403809 1.961426 0.08557129 2.04187 0.08557129 1.948364 0.1203613 2.05481 0.1203613 2.05481 0.8796387 2.091675 0.8796387 2.04187 0.9144287 2.080933 0.9144287 2.001587 0.9859619 2.02771 1.005615 1.975586 1.005615 2.001587 1.02063 0.001586914 1.02063 0.02770996 1.005615 -0.02441406 1.005615 0.001586914 0.9859619 -0.07763672 0.9144287 -0.03857422 0.9144287 -0.08850098 0.8796387 -0.05163574 0.8796387 -0.05163574 0.1203613 0.05480957 0.1203613 -0.03857422 0.08557129 0.04187012 0.08557129 0.001586914 0.01403809 0.02770996 -0.005615234 -0.02441406 -0.005615234 0.001586914 -0.02062988 -0.9984131 -0.02062988 -0.97229 -0.005615234 -1.024414 -0.005615234 -0.9984131 0.01403809 -1.077637 0.08557129 -1.038574 0.08557129 -1.088501 0.1203613 -1.051636 0.1203613 -1.051636 0.8796387 -0.9451904 0.8796387 -1.038574 0.9144287 -0.9581299 0.9144287 -0.9984131 0.9859619 -0.97229 1.005615 -1.024414 1.005615 -0.9984131 1.02063 0.8846436 -0.08959961 0.1156006 -0.08959961 0.8846436 -0.05395508 0.1156006 -0.05395508 0.8846436 0.05285645 0.1156006 0.05285645 0.8846436 0.08898926 0.1156006 0.08898926 -0.8850098 0.08972168 -0.1191406 0.08972168 -0.8850098 0.05310059 -0.1191406 0.05310059 -0.8850098 -0.0526123 -0.1191406 -0.0526123 -0.8850098 -0.0892334 -0.1191406 -0.0892334 1.114624 0.08752441 1.884644 0.08752441 1.114624 0.05126953 1.884644 0.05126953 1.114624 -0.05334473 1.884644 -0.05334473 1.114624 -0.08959961 1.884644 -0.08959961 0.1156006 1.088867 0.8846436 1.088867 0.1156006 1.053345 0.8846436 1.053345 0.1156006 0.9460449 0.8846436 0.9460449 0.1156006 0.9099121 0.8846436 0.9099121 0.1156006 3.089722 0.8846436 3.089722 0.1156006 3.054688 0.8846436 3.054688 0.1156006 2.945801 0.8846436 2.945801 0.1156006 2.909912 0.8846436 2.910034 0.8846436 1.913818 0.1156006 1.913818 0.8846436 1.947266 0.1156006 1.947266 0.8846436 2.055908 0.1156006 2.055908 0.8846436 2.089233 0.1156006 2.089233 0.9223633 0.9144287 0.911499 0.8796387 0.9483643 0.1203613 0.911499 0.1203613 0.9223633 0.08557129 1.922363 0.08557129 1.911499 0.1203613 1.948364 0.8796387 1.911499 0.8796387 1.922363 0.9144287 0.08093262 0.08557129 0.0916748 0.1203613 0.05480957 0.8796387 0.0916748 0.8796387 0.08093262 0.9144287 -0.114502 0.9086914 -0.8868408 0.9086914 -0.114502 0.9453125 -0.8868408 0.9453125 -0.114502 1.051025 -0.8868408 1.051025 -0.114502 1.087646 -0.8868408 1.087646 -0.9190674 0.9144287 -0.9083252 0.8796387 -0.9451904 0.1203613 -0.9083252 0.1203613 -0.9190674 0.08557129 1.886353 0.9082031 1.115845 0.9082031 1.886353 0.9458008 1.115845 0.9458008 1.886353 1.054199 1.115845 1.054199 1.886353 1.091675 1.115845 1.091675 0.04187012 0.9144287 -0.08850098 0.1203613 -0.07763672 0.08557129 1.091675 0.8796387 1.080933 0.9144287 -1.088501 0.8796387 -1.077637 0.9144287 -0.9581299 0.08557129 1.961426 0.9144287 0.9614258 0.08557129 0.1156006 -0.8811035 0.1156006 -0.1125488 0.8846436 -0.8811035 0.8846436 -0.1125488 2.080933 0.08557129 2.091675 0.1203613 -0.1175537 0.8807373 -0.1175537 0.1192627 -0.8791504 0.8807373 -0.8791504 0.1192627 0.8846436 0.8818359 0.8846436 0.1169434 0.1156006 0.8818359 0.1156006 0.1169434 0.8846436 1.883057 0.8846436 1.118286 0.1156006 1.883057 0.1156006 1.118286 1.878174 0.8798828 1.878174 0.1201172 1.120361 0.8798828 1.120361 0.1201172 0.1156006 2.116211 0.1156006 2.881226 0.8846436 2.116211 0.8846436 2.881226</float_array>
					<technique_common>
						<accessor source="#polygon1_UVArr0" count="183" stride="2">
							<param name="S" type="float" />
							<param name="T" type="float" />
						</accessor>
					</technique_common>
				</source>
				<vertices id="polygon1_Vertices">
					<input semantic="POSITION" source="#polygon1_Positions" />
				</vertices>
				<triangles material="mat_boxout" count="188">
					<input semantic="VERTEX" source="#polygon1_Vertices" offset="0" />
					<input semantic="NORMAL" source="#polygon1_Normals" offset="1" />
					<input semantic="TEXCOORD" source="#polygon1_UVs0" set="0" offset="2" />
					<p>2 2 2 1 1 1 0 0 0 3 3 3 1 1 1 2 2 2 4 4 4 3 3 3 2 2 2 5 5 5 3 3 3 4 4 4 6 6 6 5 5 5 4 4 4 7 7 7 5 5 5 6 6 6 8 8 8 7 7 7 6 6 6 9 9 9 7 7 7 8 8 8 10 10 10 9 9 9 8 8 8 11 11 11 9 9 9 10 10 10 12 12 12 11 11 11 10 10 10 13 13 13 11 11 11 12 12 12 14 14 14 13 13 13 12 12 12 15 15 15 13 13 13 14 14 14 18 18 16 17 17 17 16 16 16 19 19 18 17 17 17 18 18 16 20 20 19 19 19 18 18 18 16 21 21 20 19 19 18 20 20 19 22 22 21 21 21 20 20 20 19 23 23 22 21 21 20 22 22 21 24 24 23 23 23 22 22 22 21 25 25 24 23 23 22 24 24 23 26 26 25 25 25 24 24 24 23 27 27 26 25 25 24 26 26 25 28 28 27 27 27 26 26 26 25 29 29 28 27 27 26 28 28 27 30 30 29 29 29 28 28 28 27 31 31 30 29 29 28 30 30 29 34 34 33 33 33 32 32 32 31 35 35 34 33 33 32 34 34 33 36 36 35 35 35 34 34 34 33 37 37 36 35 35 34 36 36 35 38 38 37 37 37 36 36 36 35 39 39 38 37 37 36 38 38 37 40 40 39 39 39 38 38 38 37 41 41 40 39 39 38 40 40 39 42 42 41 41 41 40 40 40 39 43 43 42 41 41 40 42 42 41 44 44 43 43 43 42 42 42 41 45 45 44 43 43 42 44 44 43 46 46 45 45 45 44 44 44 43 47 47 46 45 45 44 46 46 45 50 50 49 49 49 48 48 48 47 51 51 50 49 49 48 50 50 49 52 52 51 51 51 50 50 50 49 53 53 52 51 51 50 52 52 51 54 54 53 53 53 52 52 52 51 55 55 54 53 53 52 54 54 53 56 56 55 55 55 54 54 54 53 57 57 56 55 55 54 56 56 55 58 58 57 57 57 56 56 56 55 59 59 58 57 57 56 58 58 57 60 60 59 59 59 58 58 58 57 61 61 60 59 59 58 60 60 59 62 62 61 61 61 60 60 60 59 63 63 62 61 61 60 62 62 61 1 1 65 47 47 64 0 0 63 45 45 66 47 47 64 1 1 65 64 64 67 45 45 66 1 1 65 65 65 68 45 45 66 64 64 67 66 66 69 65 65 68 64 64 67 67 67 70 65 65 68 66 66 69 52 52 73 68 68 72 54 54 71 69 69 74 68 68 72 52 52 73 50 50 75 69 69 74 52 52 73 46 46 76 69 69 74 50 50 75 48 48 77 46 46 76 50 50 75 47 47 78 46 46 76 48 48 77 4 4 81 70 70 80 6 6 79 71 71 82 70 70 80 4 4 81 2 2 83 71 71 82 4 4 81 17 17 84 71 71 82 2 2 83 0 0 85 17 17 84 2 2 83 16 16 86 17 17 84 0 0 85 33 33 89 15 15 88 32 32 87 13 13 90 15 15 88 33 33 89 72 72 91 13 13 90 33 33 89 73 73 92 13 13 90 72 72 91 74 74 93 73 73 92 72 72 91 75 75 94 73 73 92 74 74 93 49 49 97 16 16 96 48 48 95 18 18 98 16 16 96 49 49 97 76 76 99 18 18 98 49 49 97 77 77 100 18 18 98 76 76 99 78 78 101 77 77 100 76 76 99 79 79 102 77 77 100 78 78 101 30 30 105 63 63 104 31 31 103 61 61 106 63 63 104 30 30 105 80 80 107 61 61 106 30 30 105 81 81 108 61 61 106 80 80 107 82 82 109 81 81 108 80 80 107 83 83 110 81 81 108 82 82 109 73 73 111 11 11 11 13 13 13 9 9 9 11 11 11 73 73 111 75 75 112 9 9 9 73 73 111 84 84 113 9 9 9 75 75 112 66 66 114 84 84 113 75 75 112 64 64 115 84 84 113 66 66 114 77 77 116 20 20 19 18 18 16 22 22 21 20 20 19 77 77 116 79 79 117 22 22 21 77 77 116 85 85 118 22 22 21 79 79 117 82 82 119 85 85 118 79 79 117 80 80 120 85 85 118 82 82 119 65 65 121 43 43 42 45 45 44 41 41 40 43 43 42 65 65 121 67 67 122 41 41 40 65 65 121 86 86 123 41 41 40 67 67 122 74 74 124 86 86 123 67 67 122 72 72 125 86 86 123 74 74 124 36 36 128 87 87 127 38 38 126 88 88 129 87 87 127 36 36 128 34 34 130 88 88 129 36 36 128 62 62 131 88 88 129 34 34 130 32 32 132 62 62 131 34 34 130 63 63 133 62 62 131 32 32 132 81 81 134 59 59 58 61 61 60 57 57 56 59 59 58 81 81 134 83 83 135 57 57 56 81 81 134 89 89 136 57 57 56 83 83 135 78 78 137 89 89 136 83 83 135 76 76 138 89 89 136 78 78 137 27 27 141 90 90 140 25 25 139 91 91 142 90 90 140 27 27 141 29 29 143 91 91 142 27 27 141 14 14 144 91 91 142 29 29 143 31 31 145 14 14 144 29 29 143 15 15 146 14 14 144 31 31 145 86 86 123 39 39 38 41 41 40 37 37 36 39 39 38 86 86 123 92 92 147 37 37 36 86 86 123 35 35 34 37 37 36 92 92 147 33 33 32 35 35 34 92 92 147 68 68 148 40 40 39 38 38 37 42 42 41 40 40 39 68 68 148 69 69 149 42 42 41 68 68 148 44 44 43 42 42 41 69 69 149 46 46 45 44 44 43 69 69 149 90 90 150 8 8 8 6 6 6 10 10 10 8 8 8 90 90 150 91 91 151 10 10 10 90 90 150 12 12 12 10 10 10 91 91 151 14 14 14 12 12 12 91 91 151 87 87 152 56 56 55 54 54 53 58 58 57 56 56 55 87 87 152 88 88 153 58 58 57 87 87 152 60 60 59 58 58 57 88 88 153 62 62 61 60 60 59 88 88 153 89 89 136 55 55 54 57 57 56 53 53 52 55 55 54 89 89 136 93 93 154 53 53 52 89 89 136 51 51 50 53 53 52 93 93 154 49 49 48 51 51 50 93 93 154 85 85 118 24 24 23 22 22 21 26 26 25 24 24 23 85 85 118 94 94 155 26 26 25 85 85 118 28 28 27 26 26 25 94 94 155 30 30 29 28 28 27 94 94 155 84 84 113 7 7 7 9 9 9 5 5 5 7 7 7 84 84 113 95 95 156 5 5 5 84 84 113 3 3 3 5 5 5 95 95 156 1 1 1 3 3 3 95 95 156 16 16 159 47 47 158 48 48 157 0 0 160 47 47 158 16 16 159 19 19 18 71 71 161 17 17 17 21 21 20 71 71 161 19 19 18 21 21 20 70 70 162 71 71 161 23 23 22 70 70 162 21 21 20 72 72 125 92 92 147 86 86 123 33 33 32 92 92 147 72 72 125 64 64 115 95 95 156 84 84 113 1 1 1 95 95 156 64 64 115 76 76 138 93 93 154 89 89 136 49 49 48 93 93 154 76 76 138 87 87 165 68 68 164 38 38 163 54 54 166 68 68 164 87 87 165 74 74 169 66 66 168 75 75 167 67 67 170 66 66 168 74 74 169 63 63 173 15 15 172 31 31 171 32 32 174 15 15 172 63 63 173 80 80 120 94 94 155 85 85 118 30 30 29 94 94 155 80 80 120 90 90 177 70 70 176 25 25 175 6 6 178 70 70 176 90 90 177 82 82 181 78 78 180 83 83 179 79 79 182 78 78 180 82 82 181 25 25 24 70 70 162 23 23 22</p>
				</triangles>
			</mesh>
		</geometry>
		<geometry id="polygon2" name="polygon2">
			<mesh>
				<source id="polygon2_Positions">
					<float_array id="polygon2_PosArr" count="12">-107 -107 0 -107 107 0 107 -107 0 107 107 0</float_array>
					<technique_common>
						<accessor source="#polygon2_PosArr" count="4" stride="3">
							<param name="X" type="float" />
							<param name="Y" type="float" />
							<param name="Z" type="float" />
						</accessor>
					</technique_common>
				</source>
				<source id="polygon2_Normals">
					<float_array id="polygon2_NormArr" count="12">-0.171875 -0.171875 0.96875 -0.171875 0.171875 0.96875 0.171875 -0.171875 0.96875 0.171875 0.171875 0.96875</float_array>
					<technique_common>
						<accessor source="#polygon2_NormArr" count="4" stride="3">
							<param name="X" type="float" />
							<param name="Y" type="float" />
							<param name="Z" type="float" />
						</accessor>
					</technique_common>
				</source>
				<source id="polygon2_UVs0">
					<float_array id="polygon2_UVArr0" count="8">0 0 0 1 1 0 1 1</float_array>
					<technique_common>
						<accessor source="#polygon2_UVArr0" count="4" stride="2">
							<param name="S" type="float" />
							<param name="T" type="float" />
						</accessor>
					</technique_common>
				</source>
				<vertices id="polygon2_Vertices">
					<input semantic="POSITION" source="#polygon2_Positions" />
				</vertices>
				<triangles material="mat_question" count="2">
					<input semantic="VERTEX" source="#polygon2_Vertices" offset="0" />
					<input semantic="NORMAL" source="#polygon2_Normals" offset="1" />
					<input semantic="TEXCOORD" source="#polygon2_UVs0" set="0" offset="2" />
					<p>2 2 2 1 1 1 0 0 0 3 3 3 1 1 1 2 2 2</p>
				</triangles>
			</mesh>
		</geometry>
	</library_geometries>
	<library_controllers>
		<controller id="polygon0_Controller">
			<skin source="#polygon0">
				<bind_shape_matrix>1 0 0 0 0 1 0 0 0 0 1 0 0 0 0 1</bind_shape_matrix>
				<source id="polygon0_Joints">
					<Name_array id="polygon0_JointArr" count="2">itemBox hatenaPlane</Name_array>
					<technique_common>
						<accessor source="#polygon0_JointArr" count="2">
							<param name="JOINT" type="Name" />
						</accessor>
					</technique_common>
				</source>
				<source id="polygon0_Matrices">
					<float_array id="polygon0_MatArr" count="32">1 0 0 0 0 1 0 0 0 0 1 0 0 0 0 1 1 0 0 0 0 1 0 0 0 0 1 0 0 0 0 1</float_array>
					<technique_common>
						<accessor source="#polygon0_MatArr" count="2" stride="16">
							<param type="float4x4" />
						</accessor>
					</technique_common>
				</source>
				<source id="polygon0_Weights">
					<float_array id="polygon0_WeightArr" count="1">1</float_array>
					<technique_common>
						<accessor source="#polygon0_WeightArr" count="1">
							<param type="float" />
						</accessor>
					</technique_common>
				</source>
				<joints>
					<input semantic="JOINT" source="#polygon0_Joints" />
					<input semantic="INV_BIND_MATRIX" source="#polygon0_Matrices" />
				</joints>
				<vertex_weights count="96">
					<input semantic="JOINT" offset="0" source="#polygon0_Joints" />
					<input semantic="WEIGHT" offset="1" source="#polygon0_Weights" />
					<vcount>1 1 1 1 1 1 1 1 1 1 1 1 1 1 1 1 1 1 1 1 1 1 1 1 1 1 1 1 1 1 1 1 1 1 1 1 1 1 1 1 1 1 1 1 1 1 1 1 1 1 1 1 1 1 1 1 1 1 1 1 1 1 1 1 1 1 1 1 1 1 1 1 1 1 1 1 1 1 1 1 1 1 1 1 1 1 1 1 1 1 1 1 1 1 1 1</vcount>
					<v>0 0 0 0 0 0 0 0 0 0 0 0 0 0 0 0 0 0 0 0 0 0 0 0 0 0 0 0 0 0 0 0 0 0 0 0 0 0 0 0 0 0 0 0 0 0 0 0 0 0 0 0 0 0 0 0 0 0 0 0 0 0 0 0 0 0 0 0 0 0 0 0 0 0 0 0 0 0 0 0 0 0 0 0 0 0 0 0 0 0 0 0 0 0 0 0 0 0 0 0 0 0 0 0 0 0 0 0 0 0 0 0 0 0 0 0 0 0 0 0 0 0 0 0 0 0 0 0 0 0 0 0 0 0 0 0 0 0 0 0 0 0 0 0 0 0 0 0 0 0 0 0 0 0 0 0 0 0 0 0 0 0 0 0 0 0 0 0 0 0 0 0 0 0 0 0 0 0 0 0 0 0 0 0 0 0 0 0 0 0 0 0</v>
				</vertex_weights>
			</skin>
		</controller>
		<controller id="polygon1_Controller">
			<skin source="#polygon1">
				<bind_shape_matrix>1 0 0 0 0 1 0 0 0 0 1 0 0 0 0 1</bind_shape_matrix>
				<source id="polygon1_Joints">
					<Name_array id="polygon1_JointArr" count="2">itemBox hatenaPlane</Name_array>
					<technique_common>
						<accessor source="#polygon1_JointArr" count="2">
							<param name="JOINT" type="Name" />
						</accessor>
					</technique_common>
				</source>
				<source id="polygon1_Matrices">
					<float_array id="polygon1_MatArr" count="32">1 0 0 0 0 1 0 0 0 0 1 0 0 0 0 1 1 0 0 0 0 1 0 0 0 0 1 0 0 0 0 1</float_array>
					<technique_common>
						<accessor source="#polygon1_MatArr" count="2" stride="16">
							<param type="float4x4" />
						</accessor>
					</technique_common>
				</source>
				<source id="polygon1_Weights">
					<float_array id="polygon1_WeightArr" count="1">1</float_array>
					<technique_common>
						<accessor source="#polygon1_WeightArr" count="1">
							<param type="float" />
						</accessor>
					</technique_common>
				</source>
				<joints>
					<input semantic="JOINT" source="#polygon1_Joints" />
					<input semantic="INV_BIND_MATRIX" source="#polygon1_Matrices" />
				</joints>
				<vertex_weights count="96">
					<input semantic="JOINT" offset="0" source="#polygon1_Joints" />
					<input semantic="WEIGHT" offset="1" source="#polygon1_Weights" />
					<vcount>1 1 1 1 1 1 1 1 1 1 1 1 1 1 1 1 1 1 1 1 1 1 1 1 1 1 1 1 1 1 1 1 1 1 1 1 1 1 1 1 1 1 1 1 1 1 1 1 1 1 1 1 1 1 1 1 1 1 1 1 1 1 1 1 1 1 1 1 1 1 1 1 1 1 1 1 1 1 1 1 1 1 1 1 1 1 1 1 1 1 1 1 1 1 1 1</vcount>
					<v>0 0 0 0 0 0 0 0 0 0 0 0 0 0 0 0 0 0 0 0 0 0 0 0 0 0 0 0 0 0 0 0 0 0 0 0 0 0 0 0 0 0 0 0 0 0 0 0 0 0 0 0 0 0 0 0 0 0 0 0 0 0 0 0 0 0 0 0 0 0 0 0 0 0 0 0 0 0 0 0 0 0 0 0 0 0 0 0 0 0 0 0 0 0 0 0 0 0 0 0 0 0 0 0 0 0 0 0 0 0 0 0 0 0 0 0 0 0 0 0 0 0 0 0 0 0 0 0 0 0 0 0 0 0 0 0 0 0 0 0 0 0 0 0 0 0 0 0 0 0 0 0 0 0 0 0 0 0 0 0 0 0 0 0 0 0 0 0 0 0 0 0 0 0 0 0 0 0 0 0 0 0 0 0 0 0 0 0 0 0 0 0</v>
				</vertex_weights>
			</skin>
		</controller>
		<controller id="polygon2_Controller">
			<skin source="#polygon2">
				<bind_shape_matrix>1 0 0 0 0 1 0 0 0 0 1 0 0 0 0 1</bind_shape_matrix>
				<source id="polygon2_Joints">
					<Name_array id="polygon2_JointArr" count="2">itemBox hatenaPlane</Name_array>
					<technique_common>
						<accessor source="#polygon2_JointArr" count="2">
							<param name="JOINT" type="Name" />
						</accessor>
					</technique_common>
				</source>
				<source id="polygon2_Matrices">
					<float_array id="polygon2_MatArr" count="32">1 0 0 0 0 1 0 0 0 0 1 0 0 0 0 1 1 0 0 0 0 1 0 0 0 0 1 0 0 0 0 1</float_array>
					<technique_common>
						<accessor source="#polygon2_MatArr" count="2" stride="16">
							<param type="float4x4" />
						</accessor>
					</technique_common>
				</source>
				<source id="polygon2_Weights">
					<float_array id="polygon2_WeightArr" count="1">1</float_array>
					<technique_common>
						<accessor source="#polygon2_WeightArr" count="1">
							<param type="float" />
						</accessor>
					</technique_common>
				</source>
				<joints>
					<input semantic="JOINT" source="#polygon2_Joints" />
					<input semantic="INV_BIND_MATRIX" source="#polygon2_Matrices" />
				</joints>
				<vertex_weights count="4">
					<input semantic="JOINT" offset="0" source="#polygon2_Joints" />
					<input semantic="WEIGHT" offset="1" source="#polygon2_Weights" />
					<vcount>1 1 1 1</vcount>
					<v>1 0 1 0 1 0 1 0</v>
				</vertex_weights>
			</skin>
		</controller>
	</library_controllers>
	<library_visual_scenes>
		<visual_scene id="RootNode" name="RootNode">
			<node id="itemBox" name="itemBox" sid="itemBox" type="JOINT">
				<node id="hatenaPlane" name="hatenaPlane" sid="hatenaPlane" type="JOINT" />
			</node>
			<node id="polygon0" name="polygon0" type="NODE">
				<instance_controller url="#polygon0_Controller">
					<skeleton>#itemBox</skeleton>
					<bind_material>
						<technique_common>
							<instance_material symbol="mat_boxin" target="#mat_boxin">
								<bind_vertex_input semantic="TEXCOORD0" input_semantic="TEXCOORD" input_set="0" />
							</instance_material>
						</technique_common>
					</bind_material>
				</instance_controller>
			</node>
			<node id="polygon1" name="polygon1" type="NODE">
				<instance_controller url="#polygon1_Controller">
					<skeleton>#itemBox</skeleton>
					<bind_material>
						<technique_common>
							<instance_material symbol="mat_boxout" target="#mat_boxout">
								<bind_vertex_input semantic="TEXCOORD0" input_semantic="TEXCOORD" input_set="0" />
								<bind_vertex_input semantic="TEXCOORD0" input_semantic="TEXCOORD" input_set="0" />
								<bind_vertex_input semantic="TEXCOORD0" input_semantic="TEXCOORD" input_set="0" />
								<bind_vertex_input semantic="TEXCOORD0" input_semantic="TEXCOORD" input_set="0" />
							</instance_material>
						</technique_common>
					</bind_material>
				</instance_controller>
			</node>
			<node id="polygon2" name="polygon2" type="NODE">
				<instance_controller url="#polygon2_Controller">
					<skeleton>#itemBox</skeleton>
					<bind_material>
						<technique_common>
							<instance_material symbol="mat_question" target="#mat_question">
								<bind_vertex_input semantic="TEXCOORD0" input_semantic="TEXCOORD" input_set="0" />
							</instance_material>
						</technique_common>
					</bind_material>
				</instance_controller>
			</node>
		</visual_scene>
	</library_visual_scenes>
	<scene>
		<instance_visual_scene url="#RootNode" />
	</scene>
</COLLADA>