<?xml version="1.0" encoding="utf-8"?>
<COLLADA version="1.5.0" xmlns="http://www.collada.org/2008/03/COLLADASchema">
	<asset>
		<contributor>
			<authoring_tool>BrawlCrate</authoring_tool>
		</contributor>
		<created>2026-08-04T13:34:33Z</created>
		<modified>2026-08-04T13:34:33Z</modified>
		<unit meter="0.01" name="centimeter" />
		<up_axis>Y_UP</up_axis>
	</asset>
	<library_materials>
		<material id="mat_shadow">
			<instance_effect url="#mat_shadow-fx" />
		</material>
	</library_materials>
	<library_effects>
		<effect id="mat_shadow-fx" name="mat_shadow">
			<profile_COMMON>
				<technique sid="COMMON">
					<phong>
						<diffuse />
					</phong>
				</technique>
			</profile_COMMON>
		</effect>
	</library_effects>
	<library_geometries>
		<geometry id="polygon0" name="polygon0">
			<mesh>
				<source id="polygon0_Positions">
					<float_array id="polygon0_PosArr" count="72">126 -101 101 126 -101 -101 101 -126 101 101 -126 -101 101 -101 126 101 101 126 126 101 101 101 126 101 101 126 -101 126 101 -101 -101 101 126 -101 126 101 -126 101 101 -126 101 -101 -101 126 -101 101 101 -126 101 -101 -126 -101 101 -126 -126 -101 -101 -101 -101 -126 -101 -126 -101 -101 -101 126 -101 -126 101 -126 -101 101</float_array>
					<technique_common>
						<accessor source="#polygon0_PosArr" count="24" stride="3">
							<param name="X" type="float" />
							<param name="Y" type="float" />
							<param name="Z" type="float" />
						</accessor>
					</technique_common>
				</source>
				<source id="polygon0_Normals">
					<float_array id="polygon0_NormArr" count="78">0.703125 -0.703125 0 0.703125 0 0.703125 0.703125 0.703125 0 0 0.703125 0.703125 -0.703125 0.703125 0 0.703125 0 -0.703125 0 0.703125 -0.703125 -0.703125 0 -0.703125 0 -0.703125 -0.703125 0 0 1 0 1 0 0 0 -1 0 -1 0 1 0 0 -1 0 0 -0.703125 0 0.703125 -0.703125 -0.703125 0 0 -0.703125 0.703125 -0.578125 -0.578125 -0.578125 0.578125 -0.578125 -0.578125 -0.578125 0.578125 -0.578125 0.578125 0.578125 -0.578125 -0.578125 0.578125 0.578125 0.578125 0.578125 0.578125 0.578125 -0.578125 0.578125 -0.578125 -0.578125 0.578125</float_array>
					<technique_common>
						<accessor source="#polygon0_NormArr" count="26" stride="3">
							<param name="X" type="float" />
							<param name="Y" type="float" />
							<param name="Z" type="float" />
						</accessor>
					</technique_common>
				</source>
				<vertices id="polygon0_Vertices">
					<input semantic="POSITION" source="#polygon0_Positions" />
				</vertices>
				<triangles material="mat_shadow" count="44">
					<input semantic="VERTEX" source="#polygon0_Vertices" offset="0" />
					<input semantic="NORMAL" source="#polygon0_Normals" offset="1" />
					<p>2 0 1 0 0 0 3 0 1 0 2 0 0 1 5 1 4 1 6 1 5 1 0 1 6 2 8 2 7 2 9 2 8 2 6 2 7 3 10 3 5 3 11 3 10 3 7 3 11 4 13 4 12 4 14 4 13 4 11 4 9 5 16 5 15 5 1 5 16 5 9 5 15 6 14 6 8 6 17 6 14 6 15 6 17 7 18 7 13 7 19 7 18 7 17 7 3 8 19 8 16 8 20 8 19 8 3 8 5 9 21 9 4 9 10 9 21 9 5 9 14 10 7 10 8 10 11 10 7 10 14 10 19 11 15 11 16 11 17 11 15 11 19 11 3 12 22 12 20 12 2 12 22 12 3 12 9 13 0 13 1 13 6 13 0 13 9 13 13 14 23 14 12 14 18 14 23 14 13 14 21 15 12 15 23 15 10 15 12 15 21 15 23 16 20 16 22 16 18 16 20 16 23 16 22 17 4 17 21 17 2 17 4 17 22 17 20 18 18 18 19 18 16 19 1 19 3 19 17 20 13 20 14 20 8 21 9 21 15 21 11 22 12 22 10 22 5 23 6 23 7 23 2 24 0 24 4 24 21 25 23 25 22 25</p>
				</triangles>
			</mesh>
		</geometry>
	</library_geometries>
	<library_controllers>
		<controller id="polygon0_Controller">
			<skin source="#polygon0">
				<bind_shape_matrix>1 0 0 0 0 1 0 0 0 0 1 0 0 0 0 1</bind_shape_matrix>
				<source id="polygon0_Joints">
					<Name_array id="polygon0_JointArr" count="1">item_box_shadow</Name_array>
					<technique_common>
						<accessor source="#polygon0_JointArr" count="1">
							<param name="JOINT" type="Name" />
						</accessor>
					</technique_common>
				</source>
				<source id="polygon0_Matrices">
					<float_array id="polygon0_MatArr" count="16">1 0 0 0 0 1 0 0 0 0 1 0 0 0 0 1</float_array>
					<technique_common>
						<accessor source="#polygon0_MatArr" count="1" stride="16">
							<param type="float4x4" />
						</accessor>
					</technique_common>
				</source>
				<source id="polygon0_Weights">
					<float_array id="polygon0_WeightArr" count="1">1</float_array>
					<technique_common>
						<accessor source="#polygon0_WeightArr" count="1">
							<param type="float" />
						</accessor>
					</technique_common>
				</source>
				<joints>
					<input semantic="JOINT" source="#polygon0_Joints" />
					<input semantic="INV_BIND_MATRIX" source="#polygon0_Matrices" />
				</joints>
				<vertex_weights count="24">
					<input semantic="JOINT" offset="0" source="#polygon0_Joints" />
					<input semantic="WEIGHT" offset="1" source="#polygon0_Weights" />
					<vcount>1 1 1 1 1 1 1 1 1 1 1 1 1 1 1 1 1 1 1 1 1 1 1 1</vcount>
					<v>0 0 0 0 0 0 0 0 0 0 0 0 0 0 0 0 0 0 0 0 0 0 0 0 0 0 0 0 0 0 0 0 0 0 0 0 0 0 0 0 0 0 0 0 0 0 0 0</v>
				</vertex_weights>
			</skin>
		</controller>
	</library_controllers>
	<library_visual_scenes>
		<visual_scene id="RootNode" name="RootNode">
			<node id="item_box_shadow" name="item_box_shadow" sid="item_box_shadow" type="JOINT" />
			<node id="polygon0" name="polygon0" type="NODE">
				<instance_controller url="#polygon0_Controller">
					<skeleton>#item_box_shadow</skeleton>
					<bind_material>
						<technique_common>
							<instance_material symbol="mat_shadow" target="#mat_shadow" />
						</technique_common>
					</bind_material>
				</instance_controller>
			</node>
		</visual_scene>
	</library_visual_scenes>
	<scene>
		<instance_visual_scene url="#RootNode" />
	</scene>
</COLLADA>