<?xml version="1.0" encoding="utf-8"?>
<COLLADA version="1.5.0" xmlns="http://www.collada.org/2008/03/COLLADASchema">
	<asset>
		<contributor>
			<authoring_tool>BrawlCrate</authoring_tool>
		</contributor>
		<created>2026-08-04T13:35:09Z</created>
		<modified>2026-08-04T13:35:09Z</modified>
		<unit meter="0.01" name="centimeter" />
		<up_axis>Y_UP</up_axis>
	</asset>
	<library_materials>
		<material id="lambert42">
			<instance_effect url="#lambert42-fx" />
		</material>
	</library_materials>
	<library_effects>
		<effect id="lambert42-fx" name="lambert42">
			<profile_COMMON>
				<technique sid="COMMON">
					<phong>
						<diffuse />
					</phong>
				</technique>
			</profile_COMMON>
		</effect>
	</library_effects>
	<library_geometries>
		<geometry id="polygon0" name="polygon0">
			<mesh>
				<source id="polygon0_Positions">
					<float_array id="polygon0_PosArr" count="2553">-8266.545 3228.421 -44049.72 -8646.827 3343.439 -44047.19 -8462.428 3144.388 -44977.82 -8819 3319.699 -44964.03 -8605.362 3283.43 -45813.96 -8928.798 3481.138 -45814.48 -8671.549 3431.475 -46444.14 -8976.393 3632.557 -46445.89 -8743.348 3722.441 -47423.58 -9023.512 3937.45 -47446.04 -8669.823 4100.138 -48777.93 -8947.901 4329.857 -48856.56 -8224.525 4325.049 -50307.26 -8469.751 4561.697 -50439.02 -6979.406 4610.507 -51889.1 -7184.077 4859.218 -52071.84 -5240.122 5131.918 -53133.08 -5373.628 5388.624 -53380.36 -3267.82 5530.228 -53781.88 -3308.879 5800.969 -54055.09 -1309.721 5912.496 -53777.21 -1249.409 6190.824 -54037.02 394.8193 6215.631 -53233.35 539.5764 6487.637 -53487.46 1505.374 6429.039 -52271.02 1731.859 6730.943 -52472.35 2281.51 6478.277 -51232.38 2543.972 6827.869 -51410.8 2685.95 6383.639 -50102.49 2967.483 6653.412 -50231.99 2902.341 6205.291 -49019.95 3161.041 6428.696 -49133.76 3097.5 6108.25 -47996.49 3374.467 6320.438 -48093.04 3351.399 6039.052 -47308.48 3564.063 6165.171 -47412.29 3649.374 5985.532 -46966.56 3881.073 6158.332 -47144.39 4175.247 6069.277 -46594.47 4335.673 6229.007 -46808.52 4775.857 6217.057 -46220.92 4904.69 6389.37 -46462.14 5590.504 6516.749 -45888.09 5664.137 6698.171 -46144.9 6643.556 7040.913 -45460.86 6701.773 7217.467 -45721.24 8093.544 7753.308 -45110.15 8179.039 7954.391 -45333.35 9845.987 8576.023 -44740.31 10037.54 8812.073 -44968.46 11033.71 9061.417 -43876.35 11284.04 9320.357 -44058.09 11631.39 9305.731 -42412.64 11932.27 9571.144 -42496.33 11904.49 9414.759 -40988.63 12212.84 9695.069 -41008.49 11985.91 9383.223 -39926.15 12287.65 9625.841 -39927.71 11982.47 9392.787 -37881.76 12282.66 9618.914 -37882.93 11978.27 9402.481 -35837.39 12277.66 9611.989 -35838.17 11959.35 9375.573 -33395.09 12267.67 9551.457 -33395.09 11897.88 9412 -28600 12198.94 9587.641 -28600 11897.63 9412 -28400 12198.43 9587.873 -28400 11897.38 9412 -28197.34 12197.93 9588.106 -28197.34 12471.72 9412 -25121.46 12779.31 9590.311 -25123.65 14002.28 9412 -22007.72 14355.61 9592.514 -22008.7 14530.49 9412 -19891.25 14887.43 9559.757 -19895.7 15098.21 9418.693 -17962.65 6585.339 6949.496 -45200.48 5516.869 6420.463 -45631.29 4647.024 6129.881 -45979.7 3987.858 5982.36 -46348.98 3394.974 5883.567 -46773.84 3053.639 5927.515 -47130.39 2820.535 5981.197 -47899.94 2643.641 6067.023 -48906.14 2404.417 6199.003 -49973 2019.048 6213.823 -51053.96 1278.887 6212.271 -52069.69 250.0616 6028.762 -52979.24 -1370.033 5719.305 -53517.4 -3226.761 5344.623 -53508.66 -5106.614 4960.348 -52885.8 -6774.736 4446.933 -51706.36 -7979.301 4173.537 -50175.48 -8391.746 3955.556 -48699.31 -8463.184 3592.568 -47401.12 -8366.705 3341.185 -46442.38 -8281.928 3201.323 -45813.44 -8105.857 3045.211 -44991.61 -7886.264 3158.693 -44052.26 6363.341 6908.035 -43908.44 5055.382 6309.272 -44142.98 4003.677 5904.68 -44556.19 3085.737 5652.337 -45200.21 2484.271 5624.029 -46113.46 2141.675 5712.551 -46971.45 1944.769 5770.627 -47632.96 1771.736 5817.987 -48574.33 1596.41 5796.253 -49533.06 1224.148 5731.958 -50498.76 533.6267 5577.161 -51297.62 -396.734 5383.427 -51938.12 -1628.962 5100.774 -52334.86 -3082.669 4786.832 -52415.65 -4645.183 4412 -51858.25 -5947.085 4071.484 -50919.47 -6998.242 3798.229 -49651.41 -7423.045 3626.807 -48413.71 -7599.49 3392.168 -47319.43 -7611.055 3168.176 -46436.36 -7517.369 3020.276 -45811.29 -12995.71 25172.44 34632 -13035.35 24989.31 34702.97 -13141.87 25204.18 34788.45 -13204.58 25036.05 34960.21 -13631.68 25303.47 35336.98 -13631.68 25133.34 35336.98 -14264.87 25405.04 35506.03 -14264.87 25254.41 35506.03 -15452.43 25605.85 36168.13 -15452.43 25466.82 36168.13 -16324.1 25592.73 36651.45 -16294.79 25513.77 36946.84 -17246.21 25880.5 37232.5 -17114.03 25665.75 37626.86 -18944.11 26476.85 38463.63 -18893.02 26252.99 38704.42 -21998.51 26861.74 40424.07 -21848.65 26583.03 40752.83 -24992.67 27435.49 42910.08 -24721.21 27242.19 43324.42 -27642.29 28214.51 45602.65 -24380.22 27151.05 43646.13 -23870.64 27095.54 44289.2 -20803.64 26311.42 42138.44 -20389.48 26365.14 42639.28 -18028.04 25918.8 39879.88 -20119.04 26502.22 42958.2 -17490.15 26168.71 40521.54 -19835.25 26668.84 43132.7 -17126.49 26275.71 40666.08 -19565.7 26926.64 43225.99 -16746.42 26542.61 40658.59 -19565.7 27440.93 43225.99 -16746.42 27005.73 40658.59 -7904.353 24773.9 30850.13 -7679.995 24773.9 31252.84 -8370.807 24754.78 31200.39 -8108.754 24756.15 31620.13 -8837.26 24698.34 31550.65 -8549.269 24698.34 32005.85 -9303.714 24775.86 31900.91 -8974.715 24775.86 32397.14 -9770.168 24804 32251.17 -9397.548 24804 32789.68 -10236.62 24978.61 32601.42 -9827.339 24978.61 33171.15 -10703.07 24911.51 32951.68 -10263.05 24911.51 33544.19 -11169.53 25031.92 33301.94 -10705.18 25031.92 33908.93 -11635.98 25133.58 33652.2 -11153.04 25223.54 34266.91 -12102.44 25144.91 34002.46 -11602.91 25144.91 34623.16 -12568.89 25089.77 34352.71 -12056.07 25089.77 34976.17 -12493.68 24989.31 35348.5 -12725.29 25031.57 35563.79 -11952.02 24989.31 35994.03 -12164.34 25022.62 36091.01 -11908.45 25194.22 35961.24 -12628.67 25300.47 36415.64 -11543.25 25089.77 35599.63 -11134.49 25144.91 35205.22 -10725.73 25223.54 34810.81 -10316.96 25091.89 34416.4 -9908.207 24911.51 34021.99 -9499.445 24978.61 33627.58 -9090.685 24804 33233.17 -8681.923 24775.86 32838.77 -8273.16 24698.34 32444.36 -7864.399 24754.78 32049.95 -7455.637 24773.9 31655.54 -7633.611 24775.06 31212.46 -7904.354 24773.9 30850.14 -2589.146 24851.95 26602 7113.432 9636.383 -19868.95 7817.738 9412 -21984.83 7494.179 9412 -19873.41 7874.926 9321 -19877.87 7538.563 9203.641 -17940.79 7908.463 9073.769 -17945.16 7695.111 8870.659 -16063.03 8054.335 8730.939 -16067.31 7904.229 8487.286 -14286.3 8270.165 8367.973 -14290.5 8039.145 8332.608 -12623.8 8427.032 8127.711 -12627.96 8091.952 8743.363 -10961.31 8479.276 8486.043 -10965.42 8035.41 9335.859 -9258.082 8447.514 9098.404 -9262.104 7943.922 9723.238 -7805.454 8327.003 9568.78 -7809.386 7803.464 10213.91 -5785.286 8177.745 10088.93 -5779.61 7674.287 10417.3 -4331.402 8071.379 10313.1 -4335.161 7288.397 10717.3 -2259.117 7672.724 10619.6 -2262.787 6591.192 10821.81 895.2404 7633.695 10697.86 891.658 9500.001 9412 -28600 9800.001 9321 -28600 9500.053 9412 -28400 9800.001 9321 -28400 9500.001 9412 -28197.34 9800.001 9321 -28197.34 9112.67 9412 -25098.71 9414.79 9321 -25102 8189.664 9321 -21988.24 10828.22 9321 -21997.68 11060.2 9321 -19880.86 14173.56 9321 -19886.79 11253.81 8975.244 -17948.58 14391.69 9147.287 -17953.9 11618.48 8546.529 -16070.85 14476.35 8893.606 -16075.88 11876.39 8058.393 -14293.98 14518.28 8631.627 -14298.89 14460.55 8498.029 -12636.26 14869.85 8778.145 -14303.08 14816.29 8660.622 -12640.41 15172.02 8908.351 -12644.56 15138.93 9085.863 -10981.85 11878.84 7915.479 -12631.44 11623.85 8164.213 -10968.89 14444.48 8747.898 -10973.63 11314.63 8704.096 -9265.498 14258.88 9187.602 -9270.145 11186.09 9176.524 -7812.728 13997.02 9568.794 -7817.252 11302.24 9700.37 -6019.012 13805.3 9844.24 -6415.226 11136.46 10009 -4338.585 13639.53 10313.12 -4342.677 10741.05 10272.44 -2266.317 13834.3 10619.61 -2270.128 10603.9 10429.23 827.8524 13628.95 10697.87 602.0801 -18450.76 15533.16 21657.33 -18149.31 15533.16 22307.29 -18838.71 15533.16 21602.97 -19463.66 15533.16 21475.66 -18570.48 15533.16 20617.97 -19034.26 15533.16 20433.1 -17902.85 15533.16 19695.39 -18292.53 15533.16 19256.91 -16929.04 15533.16 19261.26 -17087.73 15533.16 18761.43 -15930.26 15533.16 19279.02 -15918.12 15533.16 18652.32 -14676.22 15533.16 18968.73 -15887.12 15533.16 17940.36 -14398.36 15533.16 18162.63 -14095.77 15533.16 17356.52 -12802.85 15533.16 18493.1 -12104.84 15533.16 17884.33 -11810.2 15533.16 19349.43 -11097.71 15533.16 19046.56 -10799.86 15533.16 20595 -10313.16 15533.16 20404.18 -10259.37 15533.16 21401.64 -18216.1 15533.16 20637 -17633.87 15533.16 20020.14 -16702.31 15533.16 19761.62 -16013.58 15533.16 19790.59 -14973.31 15533.16 19672.56 -14451.24 15533.16 20484.16 -13804.86 15533.16 20118.99 -14542.98 15533.16 21341.52 -12741.92 15557.55 20946.42 -11594.44 15533.16 20848.95 -22743.93 27015.95 51251.95 -22731.78 27569.18 51042.42 -21163.71 26171.21 50996.36 -21085.14 26607.28 50574.3 -19030.29 25225.59 50604.05 -18937.66 25701.23 50072.31 -16234.76 24651.57 51034.34 -16055.25 25206.4 50437.39 -12719.01 25836.86 51865.9 -15868.17 25524.31 49711.45 -12180.43 25927.88 50450.55 -15425.49 25756.23 48640.77 -11696.53 25829.11 49241.1 -15230.95 25744.87 47755.34 -11238.62 25551.9 48255.55 -15012.49 25533.89 46926.44 -14794.03 25140.65 46097.54 -18199.01 25565.41 45985.19 -14657.78 24117.95 45470.31 -18264.92 24814.67 45351.18 11596.83 9321 -28600 11651.04 9284.826 -33395.09 11678.88 9278.11 -35836.6 11682.28 9251.798 -37880.59 11684.16 9225.74 -39924.59 11596.14 9219.585 -40968.77 11330.51 9125.456 -42328.94 10783.38 8887.613 -43694.61 9654.442 8425.108 -44512.16 8943.38 8582.704 -40807.79 9231.908 8505.399 -40824.71 9286.715 8776.225 -39910.73 9573.661 8690.401 -39912.3 9282.538 9045.317 -37870.2 9579.22 8928.994 -37871.46 9278.36 9307.159 -35829.69 9583.712 9155.362 -35830.52 9270.009 9551.323 -33395.09 9585.611 9375.465 -33395.09 9901.215 9284.744 -33395.09 10768.84 9284.783 -33395.1 10700 9321 -28600 11596.83 9321 -28400 -29886.4 30616.82 53070.17 -29297.26 30437.63 52955.09 -29872.52 30820.26 53587.78 -29121.58 30568.87 53444.61 -28944.53 30745.98 53869.12 -28513.95 30331.52 53202.77 -28293.7 30464.42 53630.91 -28060.79 30091.47 52924.62 -27753.63 30195.11 53350.39 -27450.32 29776.67 52527.07 -27147.55 29831.32 52925.48 -26105.89 28928.45 51488.73 -25682.52 28954.03 51997.69 -22887.23 27490.8 50745.56 -25503.96 29102.01 52215.63 -22732.29 27569.04 51035.29 -25396.98 29292.55 52332.11 -22623.27 27756.84 51152.81 -22602.41 28034.23 51140.56 5364.825 20132.22 25791.29 4180.225 20599.4 26460.12 6235.297 19561.21 23923.48 1927.894 20600.64 25407.37 2877.347 20037.37 21896.04 968.3417 20261.37 22095.82 2205.554 20176.97 21798.32 2349.889 20264.8 20192.01 2785.299 20176.97 21642.98 4315.966 19585.04 20623.25 5222.777 19368.67 20564.29 6051.156 19365.36 21584.62 7453.536 19028.61 20580.37 6386.406 19436.21 22660.08 7901.61 18894.96 21226.62 8076.192 18474.08 21950.42 6200.621 11030.9 898.8229 6904.071 10900.13 -2255.447 7277.195 10606.63 -4327.646 7429.182 10380.5 -5790.961 7560.841 9962.833 -7801.521 7623.307 9618.556 -9254.062 7704.628 9085.821 -10957.2 7651.256 8622.642 -12619.65 7538.292 8635.432 -14282.11 -17190.9 15533.16 34748.95 -15779.82 15533.16 26810.03 -15665.29 15533.16 36435.46 -13664.74 15533.16 25724.79 -13435.67 15533.16 37646.78 -10819.12 15533.16 25060.21 -10770.66 15533.16 37873.55 -8522.166 15533.16 25460.79 -8316.018 15533.16 37544.79 -5950 15533.16 36550 -4359.212 15533.16 38668.3 -4250 15533.16 34850 -2218.856 15533.16 36486.56 -632.7362 15533.16 33239.63 -942.9224 15533.16 37211.05 648.3191 15533.16 33481.97 -39.56665 15533.16 37826.7 11596.83 9321 -28197.34 12164.13 9321 -25119.28 13648.95 9321 -22006.75 14744.95 9240.422 -17958.27 14829.91 9014.98 -16080.16 -15542.42 26420.19 39381.9 -15542.42 25981.79 39381.9 -14607.19 25575.44 38560.93 -15643.27 25762.38 39320.43 -14821.17 25517.76 38536.07 -15038.59 25486.76 38393.14 -14098.52 25406.71 37912.75 -14386.65 25380.9 37747.84 -13061.16 25215.86 36949.54 -13376.36 25171.52 36661.53 -12628.67 25124.58 36415.64 -12982.56 25126.37 36128.94 14791.71 8874.313 -10977.74 14614.7 9340.87 -9274.165 14360.79 9723.264 -7821.186 14160.5 9998.71 -6419.071 13984.15 10417.33 -4346.435 14190.84 10717.32 -2273.799 14619.63 10821.83 598.4976 14970.51 9579.276 -9278.186 14724.55 9962.87 -7825.118 14515.7 10238.32 -6422.917 14328.77 10606.67 -4350.193 14547.37 10900.17 -2277.469 14973.37 11030.93 594.9151 -17482.9 15533.16 39307.83 -18410 15533.16 38097.22 -16711.72 15533.16 38959.55 -18013.22 15533.16 37714.94 -19798.28 15533.16 35135.04 -18117.25 15533.16 32124.48 -17000 15533.16 28050 -17888.18 15533.16 29847.56 -18998.7 15533.16 26391.68 -20662.95 15533.16 28749.67 -20671.48 15533.16 25066.25 -21840.58 15533.16 28310.9 -21234.14 15533.16 24600.93 -28163.12 29728.6 44945.82 -28163.12 28863.91 44945.82 -29933.02 30147.7 46190.23 -29933.02 29477.77 46190.23 -31409.85 30105.27 47239.74 -31290.27 29933.86 47368.79 -32721.29 30710.45 48498.97 -32595.94 30531.68 48604.74 -32921.67 31027.82 50311.76 -32398.32 30350.45 48740.6 -32693.07 30807.3 50381.64 -30964.73 30069.87 49620.26 -31499.11 30493.77 50728.75 -29380.64 29993.58 50610.79 -30076.01 30266.2 51115.89 -30628.13 30489.07 51726.51 -31487.89 30707.59 51752.97 -32368.86 31148.82 51808.07 -31785.22 31263.25 52948.92 -31955.9 31505.31 52995.89 -30936.57 31235.66 53691.52 -31068.84 31461.62 53834.96 -29911.85 31236.88 54217.32 -31117.07 31723.58 53852.15 -29906.88 31490.28 54272.14 -29906.88 31766.73 54272.14 -28857.37 31411.49 54174.55 -18800.49 25999.27 49307.87 -18509.79 26247.48 48405.66 -18387.96 26226.61 47509.72 -18283.29 26002.95 46698.64 -21321.04 27026.61 47988.49 -21671.27 26672.37 46814.19 -24012.81 27716.23 48472 -21917.01 26249.93 46419.11 -24182.93 27506.92 48099.34 -730.8258 15533.16 30112.86 -3342.496 15533.16 32673.77 -3400 15533.16 30066.27 -4250 15533.16 28050 -5991.259 15533.16 26188.61 -4432.55 15533.16 24688.01 -7688.537 15533.16 23927.76 -7545.038 15533.16 23081.03 -10642.15 15533.16 22451.74 -28051.53 28697.11 45078.8 -29816.83 29287.3 46329.79 -29599.67 29184.11 46518.9 -31088.29 29788.6 47544 -28497.88 29023.6 47763.91 -29823.29 29547.54 48667.84 -26885.77 29159.3 49233.45 -28239.91 29583.68 49901.32 -28239.91 29867.91 49901.32 -29380.65 30277.81 50610.79 -26944.54 30027.38 53096.01 -27600.1 30372.61 53520.7 -28165.78 30630.17 53833.97 -28897.99 30928.94 54094.89 -29848.2 31037.45 54040.32 -30680.04 30873.66 53363.94 -3389.089 15533.16 40592.85 -2741.478 15533.16 41295.1 -4746.346 15533.16 41086.87 -5588.764 15533.16 42458.03 -6017.412 15533.16 41549.48 -10262.96 15533.16 43159.63 -10270.57 15533.16 42269.51 -14950.86 15533.16 40604.67 -14530.81 15533.16 39727.63 -25396.98 29572.45 52332.11 -26855.74 30229.74 53192.69 -27506.06 30542.55 53618.38 -28067.13 30812.56 53926.5 -28857.37 31144.1 54174.55 -7574.224 15539.97 22167.14 -4869.4 15533.16 23073.45 -3439.401 15533.16 23703.52 -1898.605 15533.16 27312.29 -775.5023 15533.16 26838.48 431.6699 15533.16 29957.4 9200.333 9587.574 -28600 9200.001 9587.814 -28400 9200.001 9588.055 -28197.34 8810.548 9590.26 -25095.41 7445.81 9592.466 -21981.42 9889.064 9088.703 -35831.34 10778.01 9126.225 -35833.93 10782.6 9042.335 -37876.57 10787.18 8958.445 -39919.21 8008.048 7637.361 -44886.94 8754.643 8017.14 -43480.16 9641.139 8400.925 -42965.64 8590.528 8113.657 -42252.41 9147.525 8346.154 -41667.65 8876.866 8343.34 -41578.48 8606.209 8425.662 -41489.32 9857.355 16636.16 14507.6 10231.71 16768.91 14507.6 9679.864 17029.5 15806.05 10040.59 17198.22 15880.81 9344.669 17635.76 17172.5 9728.18 17829.13 17366.32 8583.619 18470.35 18793.26 8952.655 18539.2 19181.7 9409.332 18447.77 19482.87 9666.459 16462.4 14507.6 9434.898 16888.02 15756.85 9100.083 17367.47 16978.26 8132.836 17889.91 18227.91 8285.369 18251.35 18479.31 6727.216 18889.67 19541.3 7066.062 19016.67 20029.03 -8962.902 26860.7 51688.15 -9446.215 26971.2 53297.93 -6111.654 28019.84 54069.44 -5917.783 27405.79 55047.51 -2501.892 28549.35 52743.89 -1830.859 28114.86 53601.39 -621.2219 28478.74 50030.73 640.1178 28202.7 50676.45 -663.316 28123.61 47297.45 480.376 27854.38 47141.39 -661.673 27042.05 44561.57 -288.9325 5097.765 -50445.43 204.1644 5348.875 -49778.66 607.1564 5535.795 -49116.2 353.6243 5558.604 -48998.77 626.5546 5701.553 -48110.79 382.4323 5833.979 -48014.89 819.5148 5810.453 -47236.41 571.8359 5968.684 -47138.82 739.7766 5963.042 -46281.35 -13363.86 25129.4 35705.4 -13998.67 25171.08 35950.46 -14260.73 25224.92 35608.84 -15272.07 25374.41 36726.13 -15436.11 25412.98 36376.71 -16127.42 25477.56 37291.55 7614.262 7477.418 -43741.16 7191.739 7505.396 -42736.81 6102.76 7048.067 -42761.44 7083.569 7593.702 -42479.69 6038.901 7153.8 -42471.14 6975.399 7767.146 -42222.56 5975.043 7349.252 -42180.85 -8518.771 26665.85 50400 -6149.205 27823.05 52601.09 -6341.84 27427.36 50807.15 -4309.273 28018.21 50423.28 -5181.936 27628.11 49099.68 -4557.974 27826.7 48240.87 -5654.56 27087.86 48373.79 -5350.106 27273.9 47877.7 -2004.62 27658.56 44954.83 -1930.935 28180.82 47332.49 -3130.595 27702.71 45284.56 -3139.999 28067.29 47367.15 -4326.23 27629.46 45592.45 -4369.192 27907.11 47392.02 -5376.597 26893.4 45942.27 -5303.734 27266.4 47308.98 -5503.516 20117.43 42961.41 -2875.188 20117.43 42004.78 1630.308 5593.42 -45340.58 2312.206 5581.017 -44399.72 2123.759 5644.163 -44163.67 3350.502 5976.339 -43281.61 3192.285 6080.478 -42988.88 4546.581 6469.265 -42730.79 4462.011 6647.936 -42450.46 -14367.88 15533.16 22477.51 -14135.06 15533.16 23938.18 -17785.65 15533.16 22939.94 -17099.46 15533.16 24729.79 -17295.08 15533.16 18059.28 -15905.96 15533.16 17175.44 -17545.61 15533.16 17312.16 -17777.75 15533.16 16675.84 -19589.4 15533.16 17729.76 -19951.47 15533.16 17470.57 -21229.06 15533.16 19084.37 -7372.46 2953.784 -45035.86 -6629.844 3063.245 -45832.32 -6473.525 3205.891 -46525.24 -6179.214 3268.906 -46476.25 -6148.704 3407.673 -47242.34 -5909.187 3581.394 -47210.29 -5686.942 3813.371 -47963.44 -12921.25 25390.65 36953.63 -12921.25 25224.63 36953.63 -13877.05 25598.73 37937.59 -13877.05 25449.71 37937.59 -14607.19 25719.9 38560.93 1067.194 5737.358 -47334.02 1237.996 5715.181 -46522.82 988.8861 5796.543 -46402.08 1392.716 5657.396 -45156.8 1155.123 5806.509 -44973.01 1935.31 5792.446 -43927.63 10700 9321 -28400 10700 9321 -28197.34 10661.79 9321 -25108.58 -7081.902 3122.842 -44056.77 -6595.935 2975.282 -45020.8 -6278.953 3133.461 -45838.89 -5995.787 3319.826 -46385.39 -21656.12 15533.16 23719.14 -21330.46 15533.16 23513.55 -21543.13 15533.16 21495.59 -20966.13 15533.16 21534.46 -20358.17 15533.16 19615.96 -19768.94 15533.16 19941.41 -18751.83 15533.16 18700.53 -3428.602 28144.35 48821.66 -2032.073 28349.87 49509.66 -4239.414 20117.43 42502.7 -2874.302 20117.43 42007.22 -5502.617 20117.43 42963.88 -2962.235 28018.17 46011.72 -4224.305 28009.11 46471.09 -2963.937 27811.99 46012.35 -4226.499 27812.35 46471.88 -5502.617 19969.37 42963.88 9875.902 8897.808 -37872.72 9860.606 8689.715 -39913.87 10654.74 8863.271 -40908.15 9520.436 8513.23 -40841.63 10239.51 8686.125 -42027.4 -10653.31 15533.16 40398.85 -7347.786 15533.16 40024.61 -26751.08 28075.22 46663.18 -23328.53 27152.9 44878.16 -25670.1 28213.5 47953.95 -22927.34 27293.61 45358.66 -22669.9 27511.38 45664.02 11681.66 16460.02 14507.6 11698.86 16733.07 16058.59 11516.16 16635.73 14507.6 11471.89 17009.12 16039.91 11048.28 17236.7 16004.89 10575.34 17838.88 17742.28 10111.69 17903.4 17560.13 7168.663 9418.647 -17936.42 7335.89 9014.504 -16058.75 -15827.84 25590.25 39101.07 -15602.23 25458.1 37930.76 -14850.03 25358.52 37332.8 7631.928 8033.931 -42184.61 7808.037 7900.62 -42396.1 8117.979 8234.206 -41931.6 8354.254 8131.363 -42092 -8214.274 26252.79 49509.43 -11002.84 24880.67 47439.82 -7931.906 25619.69 48465.72 -10905.34 24192.34 46994.95 15221.42 9009.799 -14307.28 15183.48 9221.491 -16084.44 -16492.61 25504.73 38618.89 -16940.82 25566.12 37947.2 -18695.45 26104.12 39117.81 -3959.744 4237.879 -50755.16 -2934.24 4477.53 -51148.29 -2915.392 4461.933 -50857.38 -1983.727 4634.65 -50857.38 -2062.581 4702.594 -50552.36 -1341.844 4945.515 -50382.35 -20234.89 15533.16 21526.84 -20823.36 15533.16 23354 -6437.871 3319.089 -47274.38 -5970.786 3665.928 -48039.76 -5247.717 4086.902 -48861.22 -2873.988 20117.43 42007.47 -1523.246 28006.96 45461.59 -1526.78 27811.53 45462.89 -2874.302 19985.69 42007.22 -6274.24 3594.922 -48122.59 -5514.898 3912.866 -48991.97 -4467.358 4295.761 -49595.95 -13696.73 25190.6 36384.61 -13197.06 25120.02 35973.3 -5782.08 3823.967 -49122.72 -4695.608 4133.591 -49812.16 -3655.83 4423.419 -50236.01 -4923.857 4056.556 -50028.36 -3807.787 4288.082 -50495.59 -2896.543 4531.471 -50566.48 -1904.873 4651.842 -51162.38 -1180.56 4904.526 -50657.27 -719.9084 5212.251 -49978.75 -1019.275 4948.674 -50932.2 -504.4202 5112.441 -50212.09 -272.0123 5486.538 -49412.59 -33.92395 5375.138 -49595.63 100.0922 5666.549 -48881.33 870.6775 5654.265 -48206.7 -31117.07 32025.99 53852.15 -32051.1 32075.16 52989.13 -32051.1 31749.75 52989.13 -32711.42 31634.61 51816.66 -32586.6 31355.34 51838.55 -30401.56 30698.66 52964.07 -31177.97 30875.21 52708.84 -25466.86 28400.97 48196.18 -22511.88 27803.38 45858.11 -25371.05 28685.95 48310.36 -22511.88 28359.75 45858.11 -25371.05 29312.69 48310.36 10953.39 17569.45 17871.56 9755.494 18167.16 19766.89 11218.82 17167.45 17973.81 10120.28 17571.68 19955.99 -5981.832 3203.543 -45849.59 -5878.718 3071.997 -45012.6 -6237.327 3010.212 -45016.7 -5681.439 3290.035 -44042.31 -6024.618 3191.831 -44044.75 -15844.86 15533.16 16383.56 -13801.64 15533.16 16696.52 -15865.67 15533.16 15999.32 -13665.69 15533.16 16315.01 -21358.01 26349.94 41419.3 -21638.4 26425.45 41126.48 -21919.57 15533.16 21435.56 -20877.1 15533.16 19324.08 -19178.89 15533.16 18225.87 -12938.8 15533.16 19688.54 -13363.16 15533.16 19222.25 4631.148 6375.73 -43011.11 -3302.063 28371.67 51727.16 -20664.68 15533.16 31934.62 -21832.47 15533.16 31816.77 -16407.79 15533.16 40174.31 -15216.13 15533.16 40995.46 -1701.888 24917.63 27285.19 -1914.658 24851.96 27435.93 -1751.288 24917.69 27222.93 -2250.806 24849.11 27018.19 -2042.508 24918.04 26855.89 -2333.727 24918.39 26488.86 -10755.01 15533.16 23635.27 -21998.51 27379.02 40424.07 -25192.09 27729.76 42575.58 -25192.09 28300.64 42575.58 -28198.16 29285.61 44940.18 -10639.36 15533.16 18868.21 -11790.31 15533.16 17486.91 7449.863 16828.37 14647.65 10646.25 16635.62 14580.59 13882.51 16980.14 14431.83 6468.849 18587.98 19224.04 4606.313 19395.02 20099.93 4433.937 19059.49 19976.26 -21196.61 27076.03 49030.27 -23685.28 27778.68 49134.38 -23277.05 27770.34 49946.36 -26529.26 28902.88 50979.77 -27753.09 29722.03 52128.65 -26789.27 28908.45 50709.79 -27959.61 29702.39 51909.2 3485.126 5903.186 -43555.54 7984.146 7852.445 -42607.59 -12892.28 25331.48 52800.2 -9619.811 26446.97 54446.18 -22961.22 27692.98 50630.77 -21038.18 26920.55 49954.17 -15150.68 15533.16 20038.21 -14779.18 15565.7 20704.69 -32711.42 31987.69 51816.66 -33028.07 31280.84 50245.98 11123.67 16777.86 14507.6 10514.65 17327.45 15979.05 10674.91 16829.04 14507.6 -23499.74 27460.49 49500.41 -24112.24 27430.19 48255.26 -6680.056 26633.47 48610.58 -6486.739 27080.71 49374.91 -6382.275 3138.918 -44047.18 -25357.76 28722.78 48300.21 -25357.76 29007.01 48300.21 -26885.77 29443.53 49233.45 -27968.65 28410.07 45213.71 -28198.16 28667.29 44940.18 -17912.75 15533.16 16274.85 2218.065 20473.37 26930.09 -330.2222 20877.39 26549.69 1503.473 20600.64 25831.78 -1069.199 20809.79 24956.11 -237.1356 20546.69 22643.56 -30648.62 30661.37 52531.71 -27910.18 28561.86 45247.27 -26927.32 28410.1 46394.25 -28399.25 30027.49 52412.26 -5016.249 15565.5 21552.38 -7437.283 15534.87 21539.42 1031.335 20246.8 20870.89 -28781.44 30224.73 52684.53 -28067.13 31091.5 53926.5 -20695.54 15533.16 35486.89 -18944.11 26929.78 38463.63 -2375.98 24918.44 26435.6 -17246.21 26371.01 37232.5 -16324.1 25722.64 36651.45 -29380.65 29993.58 50610.79 -33028.07 31643.42 50245.98 -32721.29 31093.99 48498.97 -27506.06 30819.34 53618.38 -26855.74 30510.26 53192.69 -31409.85 30562.93 47239.74 -30076.01 30550.43 51115.89</float_array>
					<technique_common>
						<accessor source="#polygon0_PosArr" count="851" stride="3">
							<param name="X" type="float" />
							<param name="Y" type="float" />
							<param name="Z" type="float" />
						</accessor>
					</technique_common>
				</source>
				<source id="polygon0_Colors0">
					<float_array id="polygon0_ColorArr0" count="16">1 1 1 1 0.4 0.4 0.4 1 0.5019608 0.5019608 0.5019608 1 0.8000001 0.8000001 0.8000001 1</float_array>
					<technique_common>
						<accessor source="#polygon0_ColorArr0" count="4" stride="4">
							<param name="R" type="float" />
							<param name="G" type="float" />
							<param name="B" type="float" />
							<param name="A" type="float" />
						</accessor>
					</technique_common>
				</source>
				<vertices id="polygon0_Vertices">
					<input semantic="POSITION" source="#polygon0_Positions" />
				</vertices>
				<triangles material="lambert42" count="1378">
					<input semantic="VERTEX" source="#polygon0_Vertices" offset="0" />
					<input semantic="COLOR" source="#polygon0_Colors0" set="0" offset="1" />
					<p>2 0 1 0 0 0 3 0 1 0 2 0 4 0 3 0 2 0 5 0 3 0 4 0 6 0 5 0 4 0 7 0 5 0 6 0 8 0 7 0 6 0 9 0 7 0 8 0 10 0 9 0 8 0 11 0 9 0 10 0 12 0 11 0 10 0 13 0 11 0 12 0 14 0 13 0 12 0 15 0 13 0 14 0 16 0 15 0 14 0 17 0 15 0 16 0 18 0 17 0 16 0 19 0 17 0 18 0 20 0 19 0 18 0 21 0 19 0 20 0 22 0 21 0 20 0 23 0 21 0 22 0 24 0 23 0 22 0 25 0 23 0 24 0 26 0 25 0 24 0 27 0 25 0 26 0 28 0 27 0 26 0 29 0 27 0 28 0 30 0 29 0 28 0 31 0 29 0 30 0 32 0 31 0 30 0 33 0 31 0 32 0 34 0 33 0 32 0 35 0 33 0 34 0 36 0 35 0 34 0 37 0 35 0 36 0 38 0 37 0 36 0 39 0 37 0 38 0 40 0 39 0 38 0 41 0 39 0 40 0 42 0 41 0 40 0 43 0 41 0 42 0 44 0 43 0 42 0 45 0 43 0 44 0 46 0 45 0 44 0 47 0 45 0 46 0 48 0 47 0 46 0 49 0 47 0 48 0 50 0 49 0 48 0 51 0 49 0 50 0 52 0 51 0 50 0 53 0 51 0 52 0 54 0 53 0 52 0 55 0 53 0 54 0 56 0 55 0 54 0 57 0 55 0 56 0 58 0 57 0 56 0 59 0 57 0 58 0 60 0 59 0 58 0 61 0 59 0 60 0 62 0 61 0 60 0 63 0 61 0 62 0 64 0 63 0 62 0 65 0 63 0 64 0 66 0 65 0 64 0 67 0 65 0 66 0 68 0 67 0 66 0 69 0 67 0 68 0 70 0 69 0 68 0 71 0 69 0 70 0 72 0 71 0 70 0 73 0 71 0 72 0 74 0 73 0 72 0 75 0 73 0 74 0 76 0 75 0 74 0 42 0 77 0 44 0 78 0 77 0 42 0 40 0 78 0 42 0 79 0 78 0 40 0 38 0 79 0 40 0 80 0 79 0 38 0 36 0 80 0 38 0 81 0 80 0 36 0 34 0 81 0 36 0 82 0 81 0 34 0 32 0 82 0 34 0 83 0 82 0 32 0 30 0 83 0 32 0 84 0 83 0 30 0 28 0 84 0 30 0 85 0 84 0 28 0 26 0 85 0 28 0 86 0 85 0 26 0 24 0 86 0 26 0 87 0 86 0 24 0 22 0 87 0 24 0 88 0 87 0 22 0 20 0 88 0 22 0 89 0 88 0 20 0 18 0 89 0 20 0 90 0 89 0 18 0 16 0 90 0 18 0 91 0 90 0 16 0 14 0 91 0 16 0 92 0 91 0 14 0 12 0 92 0 14 0 93 0 92 0 12 0 10 0 93 0 12 0 94 0 93 0 10 0 8 0 94 0 10 0 95 0 94 0 8 0 6 0 95 0 8 0 96 0 95 0 6 0 4 0 96 0 6 0 97 0 96 0 4 0 2 0 97 0 4 0 98 0 97 0 2 0 0 0 98 0 2 0 99 0 98 0 0 0 78 0 100 0 77 0 101 0 100 0 78 0 79 0 101 0 78 0 102 0 101 0 79 0 80 0 102 0 79 0 103 0 102 0 80 0 81 0 103 0 80 0 104 0 103 0 81 0 82 0 104 0 81 0 105 0 104 0 82 0 83 0 105 0 82 0 106 0 105 0 83 0 84 0 106 0 83 0 107 0 106 0 84 0 85 0 107 0 84 0 108 0 107 0 85 0 86 0 108 0 85 0 109 0 108 0 86 0 87 0 109 0 86 0 110 0 109 0 87 0 88 0 110 0 87 0 111 0 110 0 88 0 89 0 111 0 88 0 112 0 111 0 89 0 90 0 112 0 89 0 113 0 112 0 90 0 91 0 113 0 90 0 114 0 113 0 91 0 92 0 114 0 91 0 115 0 114 0 92 0 93 0 115 0 92 0 116 0 115 0 93 0 94 0 116 0 93 0 117 0 116 0 94 0 95 0 117 0 94 0 118 0 117 0 95 0 96 0 118 0 95 0 119 0 118 0 96 0 97 0 119 0 96 0 120 0 119 0 97 0 123 1 122 1 121 1 124 1 122 1 123 1 125 1 124 1 123 1 126 1 124 1 125 1 127 1 126 1 125 1 128 1 126 1 127 1 129 1 128 1 127 1 130 1 128 1 129 1 131 1 130 1 129 1 132 1 130 1 131 1 133 1 132 1 131 1 134 1 132 1 133 1 135 0 134 1 133 1 136 0 134 1 135 0 137 0 136 0 135 0 138 0 136 0 137 0 139 0 138 0 137 0 140 0 138 0 139 0 141 0 140 0 139 0 142 0 140 0 141 0 143 0 142 0 141 0 144 0 142 0 143 0 145 0 144 0 143 0 146 0 144 0 145 0 147 0 146 0 145 0 148 0 146 0 147 0 149 0 148 0 147 0 150 0 148 0 149 0 151 0 150 0 149 0 152 0 150 0 151 0 153 0 152 0 151 0 154 0 152 0 153 0 157 1 156 2 155 1 158 2 156 2 157 1 159 1 158 2 157 1 160 2 158 2 159 1 161 1 160 2 159 1 162 2 160 2 161 1 163 1 162 2 161 1 164 2 162 2 163 1 165 1 164 2 163 1 166 2 164 2 165 1 167 1 166 2 165 1 168 2 166 2 167 1 169 1 168 2 167 1 170 2 168 2 169 1 171 1 170 2 169 1 172 2 170 2 171 1 173 1 172 2 171 1 174 2 172 2 173 1 175 1 174 2 173 1 176 2 174 2 175 1 122 1 176 2 175 1 177 2 176 2 122 1 178 2 177 2 122 1 179 1 177 2 178 2 180 1 179 1 178 2 181 1 179 1 180 1 182 1 181 1 180 1 183 1 177 2 179 1 176 2 177 2 183 1 184 1 176 2 183 1 174 2 176 2 184 1 185 1 174 2 184 1 172 2 174 2 185 1 186 1 172 2 185 1 170 2 172 2 186 1 187 1 170 2 186 1 168 2 170 2 187 1 188 1 168 2 187 1 166 2 168 2 188 1 189 1 166 2 188 1 164 2 166 2 189 1 190 1 164 2 189 1 162 2 164 2 190 1 191 1 162 2 190 1 160 2 162 2 191 1 192 1 160 2 191 1 158 2 160 2 192 1 193 1 158 2 192 1 156 2 158 2 193 1 194 2 156 2 193 1 195 1 156 2 194 2 196 1 195 1 194 2 199 0 198 0 197 0 200 0 198 0 199 0 201 0 200 0 199 0 202 0 200 0 201 0 203 0 202 0 201 0 204 0 202 0 203 0 205 0 204 0 203 0 206 0 204 0 205 0 207 0 206 0 205 0 208 0 206 0 207 0 209 0 208 0 207 0 210 0 208 0 209 0 211 0 210 0 209 0 212 0 210 0 211 0 213 0 212 0 211 0 214 0 212 0 213 0 215 0 214 0 213 0 216 0 214 0 215 0 217 0 216 0 215 0 218 0 216 0 217 0 219 0 218 0 217 0 220 0 218 0 219 0 221 0 220 0 219 0 222 0 220 0 221 0 225 0 224 0 223 0 226 0 224 0 225 0 227 0 226 0 225 0 228 0 226 0 227 0 229 0 228 0 227 0 230 0 228 0 229 0 198 0 230 0 229 0 231 0 230 0 198 0 200 0 231 0 198 0 232 0 231 0 200 0 233 0 232 0 200 0 234 0 232 0 233 0 235 0 234 0 233 0 236 0 234 0 235 0 237 0 236 0 235 0 238 0 236 0 237 0 239 0 238 0 237 0 240 0 238 0 239 0 241 0 240 0 239 0 242 0 240 0 241 0 243 0 242 0 241 0 244 0 242 0 243 0 245 0 244 0 243 0 202 0 233 0 200 0 235 0 233 0 202 0 204 0 235 0 202 0 237 0 235 0 204 0 206 0 237 0 204 0 239 0 237 0 206 0 246 0 239 0 206 0 241 0 239 0 246 0 247 0 241 0 246 0 248 0 241 0 247 0 249 0 248 0 247 0 250 0 248 0 249 0 251 0 250 0 249 0 252 0 250 0 251 0 253 0 252 0 251 0 254 0 252 0 253 0 255 0 254 0 253 0 256 0 254 0 255 0 257 0 256 0 255 0 258 0 256 0 257 0 259 0 258 0 257 0 260 0 258 0 259 0 263 0 262 0 261 0 264 0 262 0 263 0 265 0 264 0 263 0 266 0 264 0 265 0 267 0 266 0 265 0 268 0 266 0 267 0 269 0 268 0 267 0 270 0 268 0 269 0 271 0 270 0 269 0 272 0 270 0 271 0 273 0 272 0 271 0 274 0 272 0 273 0 275 0 274 0 273 0 276 0 274 0 275 0 277 0 276 0 275 0 278 0 276 0 277 0 279 0 278 0 277 0 280 0 278 0 279 0 281 0 280 0 279 0 282 0 280 0 281 0 283 0 282 0 281 0 284 0 263 0 261 0 265 0 263 0 284 0 285 0 265 0 284 0 267 0 265 0 285 0 286 0 267 0 285 0 269 0 267 0 286 0 287 0 269 0 286 0 271 0 269 0 287 0 288 0 271 0 287 0 273 0 271 0 288 0 289 0 273 0 288 0 290 0 273 0 289 0 291 0 290 0 289 0 292 0 290 0 291 0 283 0 292 0 291 0 293 0 292 0 283 0 281 0 293 0 283 0 279 0 293 0 281 0 296 0 295 0 294 0 297 0 295 0 296 0 298 0 297 0 296 0 299 0 297 0 298 0 300 0 299 0 298 0 301 0 299 0 300 0 302 0 301 0 300 0 303 0 301 0 302 0 304 0 303 0 302 0 305 0 303 0 304 0 306 0 305 0 304 0 307 0 305 0 306 0 308 0 307 0 306 0 309 0 307 0 308 0 310 0 309 0 308 0 311 0 309 0 310 0 312 0 311 0 310 0 313 0 311 0 312 0 62 0 314 0 64 0 315 0 314 0 62 0 60 0 315 0 62 0 316 0 315 0 60 0 58 0 316 0 60 0 317 0 316 0 58 0 56 0 317 0 58 0 318 0 317 0 56 0 54 0 318 0 56 0 319 0 318 0 54 0 52 0 319 0 54 0 320 0 319 0 52 0 50 0 320 0 52 0 321 0 320 0 50 0 48 0 321 0 50 0 322 0 321 0 48 0 46 0 322 0 48 0 325 0 324 0 323 0 326 0 324 0 325 0 327 0 326 0 325 0 328 0 326 0 327 0 329 0 328 0 327 0 330 0 328 0 329 0 331 0 330 0 329 0 332 0 330 0 331 0 223 0 332 0 331 0 333 0 332 0 223 0 224 0 333 0 223 0 334 0 333 0 224 0 335 0 334 0 224 0 314 0 334 0 335 0 336 0 314 0 335 0 64 0 314 0 336 0 66 0 64 0 336 0 339 0 338 0 337 0 340 0 338 0 339 0 341 0 340 0 339 0 342 0 340 0 341 0 343 0 342 0 341 0 344 0 342 0 343 0 345 0 344 0 343 0 346 0 344 0 345 0 347 0 346 0 345 0 348 0 346 0 347 0 349 0 348 0 347 0 350 0 348 0 349 0 351 0 350 0 349 0 352 0 350 0 351 0 353 0 352 0 351 0 354 0 352 0 353 0 355 0 354 0 353 0 358 0 357 0 356 0 359 0 357 0 358 0 360 0 359 0 358 0 361 0 359 0 360 0 362 0 361 0 360 0 363 0 361 0 362 0 364 0 363 0 362 0 365 0 363 0 364 0 360 0 365 0 364 0 366 0 365 0 360 0 367 0 366 0 360 0 368 0 366 0 367 0 369 0 368 0 367 0 370 0 368 0 369 0 358 0 370 0 369 0 371 0 370 0 358 0 219 0 372 0 221 0 373 0 372 0 219 0 217 0 373 0 219 0 374 0 373 0 217 0 215 0 374 0 217 0 375 0 374 0 215 0 213 0 375 0 215 0 376 0 375 0 213 0 211 0 376 0 213 0 377 0 376 0 211 0 209 0 377 0 211 0 378 0 377 0 209 0 207 0 378 0 209 0 379 0 378 0 207 0 380 0 379 0 207 0 383 0 382 0 381 0 384 0 382 0 383 0 385 0 384 0 383 0 386 0 384 0 385 0 387 0 386 0 385 0 388 0 386 0 387 0 389 0 388 0 387 0 390 0 388 0 389 0 391 0 390 0 389 0 392 0 390 0 391 0 393 0 392 0 391 0 394 0 392 0 393 0 395 0 394 0 393 0 396 0 394 0 395 0 397 0 396 0 395 0 398 0 66 0 336 0 68 0 66 0 398 0 399 0 68 0 398 0 70 0 68 0 399 0 400 0 70 0 399 0 72 0 70 0 400 0 234 0 72 0 400 0 74 0 72 0 234 0 236 0 74 0 234 0 401 0 74 0 236 0 238 0 401 0 236 0 402 0 401 0 238 0 240 0 402 0 238 0 242 0 402 0 240 0 403 1 152 0 154 0 404 1 152 0 403 1 405 1 404 1 403 1 406 1 404 1 405 1 407 1 406 1 405 1 408 2 406 1 407 1 409 1 408 2 407 1 410 2 408 2 409 1 411 1 410 2 409 1 412 2 410 2 411 1 413 1 412 2 411 1 414 2 412 2 413 1 180 1 414 2 413 1 178 2 414 2 180 1 248 0 243 0 241 0 415 0 243 0 248 0 250 0 415 0 248 0 416 0 415 0 250 0 252 0 416 0 250 0 417 0 416 0 252 0 254 0 417 0 252 0 418 0 417 0 254 0 256 0 418 0 254 0 419 0 418 0 256 0 258 0 419 0 256 0 420 0 419 0 258 0 260 0 420 0 258 0 421 0 420 0 260 0 415 0 245 0 243 0 422 0 245 0 415 0 416 0 422 0 415 0 423 0 422 0 416 0 417 0 423 0 416 0 424 0 423 0 417 0 418 0 424 0 417 0 425 0 424 0 418 0 419 0 425 0 418 0 426 0 425 0 419 0 420 0 426 0 419 0 427 0 426 0 420 0 421 0 427 0 420 0 430 0 429 0 428 0 431 0 429 0 430 0 383 0 431 0 430 0 432 0 431 0 383 0 381 0 432 0 383 0 433 0 432 0 381 0 434 0 433 0 381 0 435 0 433 0 434 0 436 0 435 0 434 0 437 0 435 0 436 0 438 0 437 0 436 0 439 0 437 0 438 0 440 0 439 0 438 0 257 0 222 0 259 0 220 0 222 0 257 0 255 0 220 0 257 0 218 0 220 0 255 0 253 0 218 0 255 0 216 0 218 0 253 0 251 0 216 0 253 0 214 0 216 0 251 0 249 0 214 0 251 0 212 0 214 0 249 0 247 0 212 0 249 0 210 0 212 0 247 0 246 0 210 0 247 0 443 0 442 0 441 0 444 0 442 0 443 0 445 0 444 0 443 0 446 0 444 0 445 0 447 0 446 0 445 0 448 0 446 0 447 0 449 0 448 0 447 0 450 0 448 0 449 0 451 0 450 0 449 0 452 0 450 0 451 0 453 0 452 0 451 0 454 0 452 0 453 0 455 0 454 0 453 0 453 0 456 0 455 0 457 0 456 0 453 0 458 0 457 0 453 0 459 0 457 0 458 0 460 0 459 0 458 0 461 0 459 0 460 0 462 0 461 0 460 0 463 0 461 0 462 0 464 0 463 0 462 0 465 0 463 0 464 0 466 0 465 0 464 0 467 0 465 0 466 0 303 0 299 0 301 0 468 0 299 0 303 0 305 0 468 0 303 0 469 0 468 0 305 0 307 0 469 0 305 0 470 0 469 0 307 0 471 0 470 0 307 0 472 0 470 0 471 0 473 0 472 0 471 0 474 0 472 0 473 0 475 0 474 0 473 0 476 0 474 0 475 0 477 0 394 0 396 0 478 0 394 0 477 0 479 0 478 0 477 0 392 0 478 0 479 0 480 0 392 0 479 0 390 0 392 0 480 0 481 0 390 0 480 0 388 0 390 0 481 0 482 0 388 0 481 0 483 0 388 0 482 0 484 0 483 0 482 0 485 0 483 0 484 0 444 0 486 0 442 0 487 0 486 0 444 0 446 0 487 0 444 0 488 0 487 0 446 0 489 0 488 0 446 0 490 0 488 0 489 0 491 0 490 0 489 0 492 0 490 0 491 0 493 0 492 0 491 0 494 0 492 0 493 0 495 0 494 0 493 0 347 0 496 0 349 0 497 0 496 0 347 0 345 0 497 0 347 0 498 0 497 0 345 0 343 0 498 0 345 0 499 0 498 0 343 0 341 0 499 0 343 0 463 0 499 0 341 0 500 0 463 0 341 0 461 0 463 0 500 0 501 0 461 0 500 0 502 0 397 0 395 0 503 0 397 0 502 0 504 0 503 0 502 0 505 0 503 0 504 0 506 0 505 0 504 0 507 0 505 0 506 0 508 0 507 0 506 0 509 0 507 0 508 0 510 0 509 0 508 0 430 0 509 0 510 0 383 0 430 0 510 0 353 0 511 0 355 0 512 0 511 0 353 0 496 0 512 0 353 0 513 0 512 0 496 0 497 0 513 0 496 0 514 0 513 0 497 0 498 0 514 0 497 0 515 0 514 0 498 0 499 0 515 0 498 0 465 0 515 0 499 0 463 0 465 0 499 0 485 0 283 0 291 0 516 0 283 0 485 0 484 0 516 0 485 0 517 0 516 0 484 0 482 0 517 0 484 0 518 0 517 0 482 0 519 0 518 0 482 0 520 0 518 0 519 0 477 0 520 0 519 0 521 0 520 0 477 0 396 0 521 0 477 0 522 0 223 0 331 0 225 0 223 0 522 0 523 0 225 0 522 0 227 0 225 0 523 0 524 0 227 0 523 0 229 0 227 0 524 0 525 0 229 0 524 0 198 0 229 0 525 0 526 0 198 0 525 0 197 0 198 0 526 0 333 0 330 0 332 0 527 0 330 0 333 0 334 0 527 0 333 0 528 0 527 0 334 0 316 0 528 0 334 0 529 0 528 0 316 0 317 0 529 0 316 0 530 0 529 0 317 0 318 0 530 0 317 0 319 0 530 0 318 0 531 0 46 0 44 0 322 0 46 0 531 0 532 0 322 0 531 0 533 0 322 0 532 0 534 0 533 0 532 0 535 0 533 0 534 0 536 0 535 0 534 0 324 0 535 0 536 0 537 0 324 0 536 0 323 0 324 0 537 0 540 0 539 0 538 0 541 0 539 0 540 0 542 0 541 0 540 0 543 0 541 0 542 0 544 0 543 0 542 0 545 0 543 0 544 0 368 0 545 0 544 0 546 0 545 0 368 0 370 0 546 0 368 0 371 0 546 0 370 0 548 0 538 0 547 0 540 0 538 0 548 0 549 0 540 0 548 0 542 0 540 0 549 0 550 0 542 0 549 0 551 0 542 0 550 0 552 0 551 0 550 0 553 0 551 0 552 0 366 0 553 0 552 0 368 0 553 0 366 0 555 0 554 0 302 0 556 0 554 0 555 0 557 0 556 0 555 0 558 0 556 0 557 0 559 0 558 0 557 0 560 0 558 0 559 0 561 0 560 0 559 0 562 0 560 0 561 0 563 0 562 0 561 0 564 0 562 0 563 0 565 0 110 0 111 0 109 0 110 0 565 0 566 0 109 0 565 0 567 0 109 0 566 0 568 0 567 0 566 0 569 0 567 0 568 0 570 0 569 0 568 0 571 0 569 0 570 0 572 0 571 0 570 0 573 0 571 0 572 0 124 1 178 2 122 1 574 2 178 2 124 1 126 1 574 2 124 1 575 2 574 2 126 1 576 1 575 2 126 1 577 2 575 2 576 1 578 1 577 2 576 1 579 2 577 2 578 1 132 1 579 2 578 1 134 1 579 2 132 1 77 0 531 0 44 0 580 0 531 0 77 0 100 0 580 0 77 0 581 0 580 0 100 0 582 0 581 0 100 0 583 0 581 0 582 0 584 0 583 0 582 0 585 0 583 0 584 0 586 0 585 0 584 0 554 0 304 0 302 0 587 0 304 0 554 0 588 0 587 0 554 0 589 0 587 0 588 0 590 0 589 0 588 0 591 0 589 0 590 0 592 0 591 0 590 0 593 0 591 0 592 0 594 0 593 0 592 0 595 0 562 0 564 0 596 0 562 0 595 0 597 0 596 0 595 0 598 0 596 0 597 0 599 0 598 0 597 0 600 0 598 0 599 0 601 0 600 0 599 0 602 0 600 0 601 0 391 0 395 0 393 0 502 0 395 0 391 0 504 0 502 0 391 0 603 0 502 0 504 0 506 0 603 0 504 0 604 0 603 0 506 0 502 0 604 0 506 0 603 0 604 0 502 0 605 0 104 0 105 0 606 0 104 0 605 0 607 0 606 0 605 0 608 0 606 0 607 0 609 0 608 0 607 0 610 0 608 0 609 0 611 0 610 0 609 0 586 0 610 0 611 0 612 0 485 0 291 0 613 0 485 0 612 0 614 0 613 0 612 0 615 0 613 0 614 0 436 0 615 0 614 0 382 0 615 0 436 0 434 0 382 0 436 0 381 0 382 0 434 0 274 0 270 0 272 0 616 0 270 0 274 0 617 0 616 0 274 0 618 0 616 0 617 0 619 0 618 0 617 0 620 0 618 0 619 0 621 0 620 0 619 0 622 0 620 0 621 0 623 0 97 0 98 0 120 0 97 0 623 0 624 0 120 0 623 0 625 0 120 0 624 0 626 0 625 0 624 0 627 0 625 0 626 0 628 0 627 0 626 0 629 0 627 0 628 0 413 1 182 1 180 1 630 3 182 1 413 1 631 1 630 3 413 1 632 1 630 3 631 1 633 1 632 1 631 1 634 3 632 1 633 1 405 1 634 3 633 1 403 1 634 3 405 1 635 0 106 0 107 0 636 0 106 0 635 0 637 0 636 0 635 0 638 0 636 0 637 0 639 0 638 0 637 0 607 0 638 0 639 0 640 0 607 0 639 0 609 0 607 0 640 0 226 0 335 0 224 0 641 0 335 0 226 0 228 0 641 0 226 0 642 0 641 0 228 0 230 0 642 0 228 0 643 0 642 0 230 0 231 0 643 0 230 0 232 0 643 0 231 0 641 0 336 0 335 0 398 0 336 0 641 0 642 0 398 0 641 0 399 0 398 0 642 0 643 0 399 0 642 0 400 0 399 0 643 0 232 0 400 0 643 0 234 0 400 0 232 0 644 0 98 0 99 0 623 0 98 0 644 0 645 0 623 0 644 0 624 0 623 0 645 0 646 0 624 0 645 0 626 0 624 0 646 0 647 0 626 0 646 0 628 0 626 0 647 0 649 0 648 0 440 0 650 0 648 0 649 0 651 0 650 0 649 0 652 0 650 0 651 0 653 0 652 0 651 0 654 0 652 0 653 0 268 0 654 0 653 0 270 0 654 0 268 0 592 0 602 0 594 0 600 0 602 0 592 0 655 0 600 0 592 0 598 0 600 0 655 0 656 0 598 0 655 0 596 0 598 0 656 0 560 0 596 0 656 0 562 0 596 0 560 0 659 0 658 0 657 0 660 0 658 0 659 0 661 0 660 0 659 0 662 0 660 0 661 0 663 0 662 0 661 0 604 0 662 0 663 0 664 0 604 0 663 0 603 0 604 0 664 0 530 0 665 0 529 0 666 0 665 0 530 0 667 0 666 0 530 0 668 0 666 0 667 0 669 0 668 0 667 0 535 0 668 0 669 0 533 0 535 0 669 0 510 0 385 0 383 0 387 0 385 0 510 0 670 0 387 0 510 0 389 0 387 0 670 0 671 0 389 0 670 0 391 0 389 0 671 0 504 0 391 0 671 0 672 0 143 0 141 0 673 0 143 0 672 0 674 0 673 0 672 0 675 0 673 0 674 0 676 0 675 0 674 0 149 0 675 0 676 0 151 0 149 0 676 0 679 0 678 0 677 0 680 0 678 0 679 0 681 0 680 0 679 0 682 0 680 0 681 0 683 0 682 0 681 0 545 0 682 0 683 0 543 0 545 0 683 0 684 0 199 0 197 0 201 0 199 0 684 0 685 0 201 0 684 0 203 0 201 0 685 0 380 0 203 0 685 0 205 0 203 0 380 0 207 0 205 0 380 0 406 1 148 0 150 0 686 2 148 0 406 1 408 2 686 2 406 1 687 2 686 2 408 2 688 2 687 2 408 2 577 2 687 2 688 2 575 2 577 2 688 2 689 0 583 0 585 0 690 0 583 0 689 0 691 0 690 0 689 0 692 0 690 0 691 0 536 0 692 0 691 0 534 0 692 0 536 0 587 0 306 0 304 0 308 0 306 0 587 0 693 0 308 0 587 0 694 0 308 0 693 0 695 0 694 0 693 0 696 0 694 0 695 0 697 0 242 0 244 0 402 0 242 0 697 0 698 0 402 0 697 0 401 0 402 0 698 0 76 0 401 0 698 0 74 0 401 0 76 0 579 2 687 2 577 2 699 2 687 2 579 2 700 2 699 2 579 2 701 0 699 2 700 2 136 0 701 0 700 2 138 0 701 0 136 0 702 0 114 0 115 0 703 0 114 0 702 0 704 0 703 0 702 0 705 0 703 0 704 0 706 0 705 0 704 0 707 0 705 0 706 0 653 0 266 0 268 0 708 0 266 0 653 0 651 0 708 0 653 0 709 0 708 0 651 0 649 0 709 0 651 0 440 0 709 0 649 0 450 0 446 0 448 0 489 0 446 0 450 0 452 0 489 0 450 0 491 0 489 0 452 0 454 0 491 0 452 0 493 0 491 0 454 0 625 0 119 0 120 0 710 0 119 0 625 0 627 0 710 0 625 0 711 0 710 0 627 0 629 0 711 0 627 0 712 0 711 0 629 0 660 0 713 0 658 0 714 0 713 0 660 0 662 0 714 0 660 0 715 0 714 0 662 0 604 0 715 0 662 0 716 0 715 0 604 0 710 0 118 0 119 0 717 0 118 0 710 0 711 0 717 0 710 0 718 0 717 0 711 0 712 0 718 0 711 0 719 0 718 0 712 0 410 2 688 2 408 2 720 2 688 2 410 2 412 2 720 2 410 2 721 2 720 2 412 2 414 2 721 2 412 2 178 2 721 2 414 2 717 0 117 0 118 0 722 0 117 0 717 0 718 0 722 0 717 0 723 0 722 0 718 0 719 0 723 0 718 0 724 0 723 0 719 0 722 0 116 0 117 0 725 0 116 0 722 0 723 0 725 0 722 0 726 0 725 0 723 0 724 0 726 0 723 0 727 0 726 0 724 0 725 0 115 0 116 0 702 0 115 0 725 0 726 0 702 0 725 0 704 0 702 0 726 0 727 0 704 0 726 0 706 0 704 0 727 0 703 0 113 0 114 0 728 0 113 0 703 0 705 0 728 0 703 0 729 0 728 0 705 0 707 0 729 0 705 0 730 0 729 0 707 0 728 0 112 0 113 0 731 0 112 0 728 0 729 0 731 0 728 0 732 0 731 0 729 0 730 0 732 0 729 0 733 0 732 0 730 0 731 0 111 0 112 0 565 0 111 0 731 0 732 0 565 0 731 0 734 0 565 0 732 0 733 0 734 0 732 0 735 0 734 0 733 0 736 0 107 0 108 0 635 0 107 0 736 0 571 0 635 0 736 0 637 0 635 0 571 0 573 0 637 0 571 0 639 0 637 0 573 0 739 0 738 0 737 0 740 0 738 0 739 0 460 0 740 0 739 0 741 0 740 0 460 0 458 0 741 0 460 0 449 0 741 0 458 0 742 0 339 0 337 0 501 0 339 0 742 0 743 0 501 0 742 0 461 0 501 0 743 0 459 0 461 0 743 0 744 0 676 0 674 0 745 0 676 0 744 0 746 0 745 0 744 0 747 0 745 0 746 0 748 0 747 0 746 0 546 0 682 0 545 0 749 0 682 0 546 0 750 0 749 0 546 0 751 0 749 0 750 0 752 0 751 0 750 0 411 1 631 1 413 1 633 1 631 1 411 1 409 1 633 1 411 1 405 1 633 1 409 1 407 1 405 1 409 1 646 0 753 0 647 0 754 0 753 0 646 0 755 0 754 0 646 0 756 0 754 0 755 0 757 0 756 0 755 0 276 0 617 0 274 0 758 0 617 0 276 0 759 0 758 0 276 0 760 0 758 0 759 0 761 0 760 0 759 0 701 0 146 0 699 2 762 0 146 0 701 0 763 0 762 0 701 0 140 0 762 0 763 0 138 0 140 0 763 0 650 0 764 0 648 0 622 0 764 0 650 0 765 0 622 0 650 0 620 0 622 0 765 0 766 0 620 0 765 0 279 0 292 0 293 0 767 0 292 0 279 0 768 0 767 0 279 0 290 0 767 0 768 0 273 0 290 0 768 0 584 0 610 0 586 0 769 0 610 0 584 0 582 0 769 0 584 0 101 0 769 0 582 0 100 0 101 0 582 0 590 0 655 0 592 0 770 0 655 0 590 0 588 0 770 0 590 0 556 0 770 0 588 0 554 0 556 0 588 0 437 0 433 0 435 0 771 0 433 0 437 0 439 0 771 0 437 0 772 0 771 0 439 0 773 0 430 0 428 0 509 0 430 0 773 0 774 0 509 0 773 0 507 0 509 0 774 0 777 1 776 1 775 1 778 2 776 1 777 1 779 2 778 2 777 1 780 1 778 2 779 2 616 0 654 0 270 0 766 0 654 0 616 0 618 0 766 0 616 0 620 0 766 0 618 0 613 0 386 0 781 0 384 0 386 0 613 0 615 0 384 0 613 0 382 0 384 0 615 0 782 0 137 0 135 0 783 0 137 0 782 0 784 0 783 0 782 0 785 0 783 0 784 0 786 0 280 0 282 0 278 0 280 0 786 0 787 0 278 0 786 0 761 0 278 0 787 0 789 0 222 0 788 0 259 0 222 0 789 0 790 0 259 0 789 0 260 0 259 0 790 0 791 0 552 0 550 0 792 0 552 0 791 0 793 0 792 0 791 0 363 0 792 0 793 0 483 0 386 0 388 0 781 0 386 0 483 0 485 0 781 0 483 0 613 0 781 0 485 0 636 0 105 0 106 0 605 0 105 0 636 0 638 0 605 0 636 0 607 0 605 0 638 0 472 0 469 0 470 0 794 0 469 0 472 0 795 0 794 0 472 0 796 0 794 0 795 0 797 0 346 0 348 0 798 0 346 0 797 0 799 0 798 0 797 0 800 0 798 0 799 0 606 0 103 0 104 0 801 0 103 0 606 0 608 0 801 0 606 0 610 0 801 0 608 0 690 0 581 0 583 0 802 0 581 0 690 0 692 0 802 0 690 0 534 0 802 0 692 0 803 0 302 0 300 0 555 0 302 0 803 0 804 0 555 0 803 0 557 0 555 0 804 0 734 0 566 0 565 0 568 0 566 0 734 0 735 0 568 0 734 0 570 0 568 0 735 0 297 0 805 0 295 0 806 0 805 0 297 0 299 0 806 0 297 0 468 0 806 0 299 0 807 0 288 0 287 0 289 0 288 0 807 0 808 0 289 0 807 0 291 0 289 0 808 0 740 0 809 0 738 0 810 0 809 0 740 0 741 0 810 0 740 0 449 0 810 0 741 0 480 0 482 0 481 0 519 0 482 0 480 0 479 0 519 0 480 0 477 0 519 0 479 0 811 0 681 0 679 0 812 0 681 0 811 0 813 0 812 0 811 0 539 0 812 0 813 0 464 0 737 0 466 0 739 0 737 0 464 0 462 0 739 0 464 0 460 0 739 0 462 0 814 0 348 0 350 0 797 0 348 0 814 0 815 0 797 0 814 0 799 0 797 0 815 0 567 0 108 0 109 0 736 0 108 0 567 0 569 0 736 0 567 0 571 0 736 0 569 0 527 0 328 0 330 0 665 0 328 0 527 0 528 0 665 0 527 0 529 0 665 0 528 0 652 0 765 0 650 0 766 0 765 0 652 0 654 0 766 0 652 0 770 0 656 0 655 0 560 0 656 0 770 0 558 0 560 0 770 0 817 0 593 0 816 0 591 0 593 0 817 0 589 0 591 0 817 0 817 0 587 0 589 0 693 0 587 0 817 0 695 0 693 0 817 0 755 0 818 0 757 0 645 0 818 0 755 0 646 0 645 0 755 0 812 0 683 0 681 0 543 0 683 0 812 0 541 0 543 0 812 0 492 0 819 0 490 0 820 0 819 0 492 0 821 0 820 0 492 0 311 0 473 0 471 0 475 0 473 0 311 0 313 0 475 0 311 0 783 0 139 0 137 0 822 0 139 0 783 0 823 0 822 0 783 0 769 0 801 0 610 0 102 0 801 0 769 0 101 0 102 0 769 0 666 0 328 0 665 0 326 0 328 0 666 0 668 0 326 0 666 0 745 0 151 0 676 0 153 0 151 0 745 0 747 0 153 0 745 0 802 0 580 0 581 0 532 0 580 0 802 0 534 0 532 0 802 0 699 2 686 2 687 2 148 0 686 2 699 2 146 0 148 0 699 2 762 0 144 0 146 0 142 0 144 0 762 0 140 0 142 0 762 0 778 2 193 1 776 1 194 2 193 1 778 2 196 1 194 2 778 2 758 0 619 0 617 0 824 0 619 0 758 0 760 0 824 0 758 0 768 0 275 0 273 0 277 0 275 0 768 0 279 0 277 0 768 0 827 0 826 0 825 0 828 0 826 0 827 0 829 0 828 0 827 0 827 0 361 0 829 0 359 0 361 0 827 0 357 0 359 0 827 0 743 0 457 0 459 0 456 0 457 0 743 0 830 0 456 0 743 0 490 0 831 0 488 0 832 0 831 0 490 0 819 0 832 0 490 0 678 0 749 0 751 0 680 0 749 0 678 0 833 0 798 0 800 0 344 0 798 0 833 0 750 0 371 0 752 0 546 0 371 0 750 0 551 0 544 0 542 0 553 0 544 0 551 0 365 0 792 0 363 0 366 0 792 0 365 0 835 0 517 0 834 0 516 0 517 0 835 0 360 0 369 0 367 0 358 0 369 0 360 0 836 0 361 0 363 0 829 0 361 0 836 0 351 0 496 0 353 0 349 0 496 0 351 0 315 0 334 0 314 0 316 0 334 0 315 0 342 0 833 0 837 0 344 0 833 0 342 0 708 0 264 0 266 0 709 0 264 0 708 0 340 0 837 0 338 0 342 0 837 0 340 0 324 0 668 0 535 0 326 0 668 0 324 0 467 0 515 0 465 0 838 0 515 0 467 0 709 0 262 0 264 0 440 0 262 0 709 0 759 0 278 0 761 0 276 0 278 0 759 0 575 2 720 2 721 2 688 2 720 2 575 2 431 0 839 0 429 0 432 0 839 0 431 0 574 2 721 2 178 2 575 2 721 2 574 2 839 0 771 0 772 0 432 0 771 0 839 0 134 1 700 2 579 2 136 0 700 2 134 1 404 1 150 0 152 0 406 1 150 0 404 1 291 0 614 0 612 0 262 0 614 0 291 0 440 0 614 0 262 0 438 0 614 0 440 0 675 0 147 0 145 0 149 0 147 0 675 0 673 0 145 0 143 0 675 0 145 0 673 0 840 0 135 0 133 1 782 0 135 0 840 0 339 0 500 0 341 0 501 0 500 0 339 0 841 1 778 2 780 1 196 1 778 2 841 1 842 1 133 1 131 1 840 0 133 1 842 1 843 1 131 1 129 1 842 1 131 1 843 1 578 1 130 1 132 1 576 1 130 1 578 1 671 0 506 0 504 0 670 0 506 0 671 0 128 1 576 1 126 1 130 1 576 1 128 1 670 0 508 0 506 0 510 0 508 0 670 0 794 0 468 0 469 0 806 0 468 0 794 0 533 0 321 0 322 0 669 0 321 0 533 0 669 0 320 0 321 0 667 0 320 0 669 0 667 0 319 0 320 0 530 0 319 0 667 0 805 0 794 0 796 0 806 0 794 0 805 0 309 0 471 0 307 0 311 0 471 0 309 0 844 0 495 0 493 0 455 0 495 0 844 0 312 0 694 0 696 0 310 0 694 0 312 0 447 0 810 0 449 0 845 0 810 0 447 0 846 0 447 0 445 0 845 0 447 0 846 0 838 0 514 0 515 0 847 0 514 0 838 0 847 0 513 0 514 0 848 0 513 0 847 0 512 0 848 0 511 0 513 0 848 0 512 0 208 0 246 0 206 0 210 0 246 0 208 0 487 0 831 0 486 0 488 0 831 0 487 0 451 0 458 0 453 0 449 0 458 0 451 0 849 0 445 0 443 0 846 0 445 0 849 0 126 1 126 1 576 1 124 1 126 1 126 1 364 0 362 0 360 0 366 0 552 0 792 0 544 0 553 0 368 0 539 0 541 0 812 0 749 0 680 0 682 0 810 0 845 0 809 0 821 0 492 0 494 0 455 0 850 0 495 0 795 0 472 0 474 0 139 0 822 0 141 0 823 0 783 0 785 0 138 0 763 0 701 0 767 0 290 0 292 0 824 0 621 0 619 0 825 0 357 0 827 0 830 0 743 0 742 0 344 0 346 0 798 0 433 0 771 0 432 0 614 0 438 0 436 0 478 0 392 0 394 0 657 0 604 0 603 0 694 0 310 0 308 0 556 0 558 0 770 0 695 0 817 0 816 0 818 0 645 0 644 0 537 0 536 0 691 0 102 0 103 0 801 0 531 0 580 0 532 0</p>
				</triangles>
			</mesh>
		</geometry>
	</library_geometries>
	<library_controllers>
		<controller id="polygon0_Controller">
			<skin source="#polygon0">
				<bind_shape_matrix>1 0 0 0 0 1 0 0 0 0 1 0 0 0 0 1</bind_shape_matrix>
				<source id="polygon0_Joints">
					<Name_array id="polygon0_JointArr" count="3">map posLD posRU</Name_array>
					<technique_common>
						<accessor source="#polygon0_JointArr" count="3">
							<param name="JOINT" type="Name" />
						</accessor>
					</technique_common>
				</source>
				<source id="polygon0_Matrices">
					<float_array id="polygon0_MatArr" count="48">1 0 0 0 0 1 0 0 0 0 1 0 0 0 0 1 1 0 0 34664.95 0 1 0 0 0 0 1 -56150.28 0 0 0 1 1 0 0 -16679.53 0 1 0 0 0 0 1 56150.28 0 0 0 1</float_array>
					<technique_common>
						<accessor source="#polygon0_MatArr" count="3" stride="16">
							<param type="float4x4" />
						</accessor>
					</technique_common>
				</source>
				<source id="polygon0_Weights">
					<float_array id="polygon0_WeightArr" count="1">1</float_array>
					<technique_common>
						<accessor source="#polygon0_WeightArr" count="1">
							<param type="float" />
						</accessor>
					</technique_common>
				</source>
				<joints>
					<input semantic="JOINT" source="#polygon0_Joints" />
					<input semantic="INV_BIND_MATRIX" source="#polygon0_Matrices" />
				</joints>
				<vertex_weights count="851">
					<input semantic="JOINT" offset="0" source="#polygon0_Joints" />
					<input semantic="WEIGHT" offset="1" source="#polygon0_Weights" />
					<vcount>1 1 1 1 1 1 1 1 1 1 1 1 1 1 1 1 1 1 1 1 1 1 1 1 1 1 1 1 1 1 1 1 1 1 1 1 1 1 1 1 1 1 1 1 1 1 1 1 1 1 1 1 1 1 1 1 1 1 1 1 1 1 1 1 1 1 1 1 1 1 1 1 1 1 1 1 1 1 1 1 1 1 1 1 1 1 1 1 1 1 1 1 1 1 1 1 1 1 1 1 1 1 1 1 1 1 1 1 1 1 1 1 1 1 1 1 1 1 1 1 1 1 1 1 1 1 1 1 1 1 1 1 1 1 1 1 1 1 1 1 1 1 1 1 1 1 1 1 1 1 1 1 1 1 1 1 1 1 1 1 1 1 1 1 1 1 1 1 1 1 1 1 1 1 1 1 1 1 1 1 1 1 1 1 1 1 1 1 1 1 1 1 1 1 1 1 1 1 1 1 1 1 1 1 1 1 1 1 1 1 1 1 1 1 1 1 1 1 1 1 1 1 1 1 1 1 1 1 1 1 1 1 1 1 1 1 1 1 1 1 1 1 1 1 1 1 1 1 1 1 1 1 1 1 1 1 1 1 1 1 1 1 1 1 1 1 1 1 1 1 1 1 1 1 1 1 1 1 1 1 1 1 1 1 1 1 1 1 1 1 1 1 1 1 1 1 1 1 1 1 1 1 1 1 1 1 1 1 1 1 1 1 1 1 1 1 1 1 1 1 1 1 1 1 1 1 1 1 1 1 1 1 1 1 1 1 1 1 1 1 1 1 1 1 1 1 1 1 1 1 1 1 1 1 1 1 1 1 1 1 1 1 1 1 1 1 1 1 1 1 1 1 1 1 1 1 1 1 1 1 1 1 1 1 1 1 1 1 1 1 1 1 1 1 1 1 1 1 1 1 1 1 1 1 1 1 1 1 1 1 1 1 1 1 1 1 1 1 1 1 1 1 1 1 1 1 1 1 1 1 1 1 1 1 1 1 1 1 1 1 1 1 1 1 1 1 1 1 1 1 1 1 1 1 1 1 1 1 1 1 1 1 1 1 1 1 1 1 1 1 1 1 1 1 1 1 1 1 1 1 1 1 1 1 1 1 1 1 1 1 1 1 1 1 1 1 1 1 1 1 1 1 1 1 1 1 1 1 1 1 1 1 1 1 1 1 1 1 1 1 1 1 1 1 1 1 1 1 1 1 1 1 1 1 1 1 1 1 1 1 1 1 1 1 1 1 1 1 1 1 1 1 1 1 1 1 1 1 1 1 1 1 1 1 1 1 1 1 1 1 1 1 1 1 1 1 1 1 1 1 1 1 1 1 1 1 1 1 1 1 1 1 1 1 1 1 1 1 1 1 1 1 1 1 1 1 1 1 1 1 1 1 1 1 1 1 1 1 1 1 1 1 1 1 1 1 1 1 1 1 1 1 1 1 1 1 1 1 1 1 1 1 1 1 1 1 1 1 1 1 1 1 1 1 1 1 1 1 1 1 1 1 1 1 1 1 1 1 1 1 1 1 1 1 1 1 1 1 1 1 1 1 1 1 1 1 1 1 1 1 1 1 1 1 1 1 1 1 1 1 1 1 1 1 1 1 1 1 1 1 1 1 1 1 1 1 1 1 1 1 1 1 1 1 1 1 1 1 1 1 1 1 1 1 1 1 1 1 1 1 1 1 1 1 1 1 1 1 1 1 1 1 1 1 1 1 1 1 1 1 1 1 1 1 1 1 1 1 1 1 1 1 1 1 1 1 1 1 1 1 1 1 1 1 1 1 1 1 1 1 1 1 1 1 1 1 1 1 1 1 1 1 1 1 1 1 1 1 1 1 1 1 1 1 1 1 1 1 1 1 1 1 1 1 1 1 1 1 1 1 1 1 1 1 1 1 1 1 1 1 1 1 1 1 1 1 1 1 1 1 1</vcount>
					<v>0 0 0 0 0 0 0 0 0 0 0 0 0 0 0 0 0 0 0 0 0 0 0 0 0 0 0 0 0 0 0 0 0 0 0 0 0 0 0 0 0 0 0 0 0 0 0 0 0 0 0 0 0 0 0 0 0 0 0 0 0 0 0 0 0 0 0 0 0 0 0 0 0 0 0 0 0 0 0 0 0 0 0 0 0 0 0 0 0 0 0 0 0 0 0 0 0 0 0 0 0 0 0 0 0 0 0 0 0 0 0 0 0 0 0 0 0 0 0 0 0 0 0 0 0 0 0 0 0 0 0 0 0 0 0 0 0 0 0 0 0 0 0 0 0 0 0 0 0 0 0 0 0 0 0 0 0 0 0 0 0 0 0 0 0 0 0 0 0 0 0 0 0 0 0 0 0 0 0 0 0 0 0 0 0 0 0 0 0 0 0 0 0 0 0 0 0 0 0 0 0 0 0 0 0 0 0 0 0 0 0 0 0 0 0 0 0 0 0 0 0 0 0 0 0 0 0 0 0 0 0 0 0 0 0 0 0 0 0 0 0 0 0 0 0 0 0 0 0 0 0 0 0 0 0 0 0 0 0 0 0 0 0 0 0 0 0 0 0 0 0 0 0 0 0 0 0 0 0 0 0 0 0 0 0 0 0 0 0 0 0 0 0 0 0 0 0 0 0 0 0 0 0 0 0 0 0 0 0 0 0 0 0 0 0 0 0 0 0 0 0 0 0 0 0 0 0 0 0 0 0 0 0 0 0 0 0 0 0 0 0 0 0 0 0 0 0 0 0 0 0 0 0 0 0 0 0 0 0 0 0 0 0 0 0 0 0 0 0 0 0 0 0 0 0 0 0 0 0 0 0 0 0 0 0 0 0 0 0 0 0 0 0 0 0 0 0 0 0 0 0 0 0 0 0 0 0 0 0 0 0 0 0 0 0 0 0 0 0 0 0 0 0 0 0 0 0 0 0 0 0 0 0 0 0 0 0 0 0 0 0 0 0 0 0 0 0 0 0 0 0 0 0 0 0 0 0 0 0 0 0 0 0 0 0 0 0 0 0 0 0 0 0 0 0 0 0 0 0 0 0 0 0 0 0 0 0 0 0 0 0 0 0 0 0 0 0 0 0 0 0 0 0 0 0 0 0 0 0 0 0 0 0 0 0 0 0 0 0 0 0 0 0 0 0 0 0 0 0 0 0 0 0 0 0 0 0 0 0 0 0 0 0 0 0 0 0 0 0 0 0 0 0 0 0 0 0 0 0 0 0 0 0 0 0 0 0 0 0 0 0 0 0 0 0 0 0 0 0 0 0 0 0 0 0 0 0 0 0 0 0 0 0 0 0 0 0 0 0 0 0 0 0 0 0 0 0 0 0 0 0 0 0 0 0 0 0 0 0 0 0 0 0 0 0 0 0 0 0 0 0 0 0 0 0 0 0 0 0 0 0 0 0 0 0 0 0 0 0 0 0 0 0 0 0 0 0 0 0 0 0 0 0 0 0 0 0 0 0 0 0 0 0 0 0 0 0 0 0 0 0 0 0 0 0 0 0 0 0 0 0 0 0 0 0 0 0 0 0 0 0 0 0 0 0 0 0 0 0 0 0 0 0 0 0 0 0 0 0 0 0 0 0 0 0 0 0 0 0 0 0 0 0 0 0 0 0 0 0 0 0 0 0 0 0 0 0 0 0 0 0 0 0 0 0 0 0 0 0 0 0 0 0 0 0 0 0 0 0 0 0 0 0 0 0 0 0 0 0 0 0 0 0 0 0 0 0 0 0 0 0 0 0 0 0 0 0 0 0 0 0 0 0 0 0 0 0 0 0 0 0 0 0 0 0 0 0 0 0 0 0 0 0 0 0 0 0 0 0 0 0 0 0 0 0 0 0 0 0 0 0 0 0 0 0 0 0 0 0 0 0 0 0 0 0 0 0 0 0 0 0 0 0 0 0 0 0 0 0 0 0 0 0 0 0 0 0 0 0 0 0 0 0 0 0 0 0 0 0 0 0 0 0 0 0 0 0 0 0 0 0 0 0 0 0 0 0 0 0 0 0 0 0 0 0 0 0 0 0 0 0 0 0 0 0 0 0 0 0 0 0 0 0 0 0 0 0 0 0 0 0 0 0 0 0 0 0 0 0 0 0 0 0 0 0 0 0 0 0 0 0 0 0 0 0 0 0 0 0 0 0 0 0 0 0 0 0 0 0 0 0 0 0 0 0 0 0 0 0 0 0 0 0 0 0 0 0 0 0 0 0 0 0 0 0 0 0 0 0 0 0 0 0 0 0 0 0 0 0 0 0 0 0 0 0 0 0 0 0 0 0 0 0 0 0 0 0 0 0 0 0 0 0 0 0 0 0 0 0 0 0 0 0 0 0 0 0 0 0 0 0 0 0 0 0 0 0 0 0 0 0 0 0 0 0 0 0 0 0 0 0 0 0 0 0 0 0 0 0 0 0 0 0 0 0 0 0 0 0 0 0 0 0 0 0 0 0 0 0 0 0 0 0 0 0 0 0 0 0 0 0 0 0 0 0 0 0 0 0 0 0 0 0 0 0 0 0 0 0 0 0 0 0 0 0 0 0 0 0 0 0 0 0 0 0 0 0 0 0 0 0 0 0 0 0 0 0 0 0 0 0 0 0 0 0 0 0 0 0 0 0 0 0 0 0 0 0 0 0 0 0 0 0 0 0 0 0 0 0 0 0 0 0 0 0 0 0 0 0 0 0 0 0 0 0 0 0 0 0 0 0 0 0 0 0 0 0 0 0 0 0 0 0 0 0 0 0 0 0 0 0 0 0 0 0 0 0 0 0 0 0 0 0 0 0 0 0 0 0 0 0 0 0 0 0 0 0 0 0 0 0 0 0 0 0 0 0 0 0 0 0 0 0 0 0 0 0 0 0 0 0 0 0 0 0 0 0 0 0 0 0 0 0 0 0 0 0 0 0 0 0 0 0 0 0 0 0 0 0 0 0 0 0 0 0 0 0 0 0 0 0 0 0 0 0 0 0 0 0 0 0 0 0 0 0 0 0 0 0 0 0 0 0 0 0 0 0 0 0 0 0 0 0 0 0 0 0 0 0 0 0 0 0 0 0 0 0 0 0 0 0 0 0 0 0 0 0 0 0 0 0 0 0 0 0 0 0 0 0 0 0 0 0 0 0 0 0 0 0 0 0 0 0 0 0 0 0 0 0 0 0 0 0 0 0 0 0 0 0 0 0 0 0 0 0 0 0 0 0 0 0 0 0 0 0 0 0 0 0 0 0 0 0 0 0 0 0 0 0 0 0 0 0 0 0 0 0 0 0 0 0 0 0 0 0 0 0 0 0 0 0 0 0 0 0 0 0 0 0 0 0 0 0 0 0 0 0 0 0 0 0 0 0 0 0 0 0 0 0 0 0 0 0 0 0 0 0 0 0 0 0 0 0 0 0 0 0 0 0 0 0 0 0 0 0 0 0 0 0 0 0 0 0 0 0 0 0 0 0 0 0 0 0 0 0 0 0 0 0 0 0 0 0 0 0 0 0 0 0 0 0 0 0 0 0 0 0 0 0 0 0 0 0 0 0 0 0 0 0 0 0 0 0 0 0 0 0 0 0 0 0 0 0 0 0 0 0 0 0 0 0 0 0 0 0 0 0 0 0 0 0 0 0 0 0 0 0 0 0 0 0 0 0 0 0 0 0 0 0 0 0 0 0 0 0 0 0 0 0 0 0 0 0 0 0 0 0 0 0 0 0 0 0 0 0 0 0 0 0 0 0 0 0 0 0 0 0 0 0 0 0 0 0 0 0 0 0 0 0 0 0 0 0 0 0 0 0 0 0 0 0 0</v>
				</vertex_weights>
			</skin>
		</controller>
	</library_controllers>
	<library_visual_scenes>
		<visual_scene id="RootNode" name="RootNode">
			<node id="map" name="map" sid="map" type="JOINT">
				<node id="posLD" name="posLD" sid="posLD" type="JOINT">
					<translate>-34664.95 0 56150.28</translate>
				</node>
				<node id="posRU" name="posRU" sid="posRU" type="JOINT">
					<translate>16679.53 0 -56150.28</translate>
				</node>
			</node>
			<node id="polygon0" name="polygon0" type="NODE">
				<instance_controller url="#polygon0_Controller">
					<skeleton>#map</skeleton>
					<bind_material>
						<technique_common>
							<instance_material symbol="lambert42" target="#lambert42" />
						</technique_common>
					</bind_material>
				</instance_controller>
			</node>
		</visual_scene>
	</library_visual_scenes>
	<scene>
		<instance_visual_scene url="#RootNode" />
	</scene>
</COLLADA>