<?xml version="1.0" encoding="utf-8"?>
<COLLADA version="1.5.0" xmlns="http://www.collada.org/2008/03/COLLADASchema">
	<asset>
		<contributor>
			<authoring_tool>BrawlCrate</authoring_tool>
		</contributor>
		<created>2026-08-04T13:37:26Z</created>
		<modified>2026-08-04T13:37:26Z</modified>
		<unit meter="0.01" name="centimeter" />
		<up_axis>Y_UP</up_axis>
	</asset>
	<library_images>
		<image id="th_sky-image" name="th_sky">
			<init_from>
				<ref>th_sky.png</ref>
			</init_from>
		</image>
	</library_images>
	<library_materials>
		<material id="sky_m">
			<instance_effect url="#sky_m-fx" />
		</material>
	</library_materials>
	<library_effects>
		<effect id="sky_m-fx" name="sky_m">
			<profile_COMMON>
				<newparam sid="th_sky-surface">
					<surface type="2D">
						<init_from>
							<ref>th_sky-image</ref>
						</init_from>
					</surface>
				</newparam>
				<newparam sid="th_sky-sampler">
					<sampler2D>
						<source>th_sky-surface</source>
						<instance_image url="#th_sky-image" />
						<wrap_s>WRAP</wrap_s>
						<wrap_t>WRAP</wrap_t>
						<minfilter>LINEAR</minfilter>
						<magfilter>LINEAR</magfilter>
					</sampler2D>
				</newparam>
				<technique sid="COMMON">
					<phong>
						<diffuse>
							<texture texture="th_sky-sampler" texcoord="TEXCOORD0" />
						</diffuse>
					</phong>
				</technique>
			</profile_COMMON>
		</effect>
	</library_effects>
	<library_geometries>
		<geometry id="polygon0" name="polygon0">
			<mesh>
				<source id="polygon0_Positions">
					<float_array id="polygon0_PosArr" count="486">-88426.78 -7083.056 -173547.3 -93962.34 -62046.02 -129328.1 -137729.4 -7082.934 -137729.5 -129328.2 -62046.02 -93962.3 -173546.9 -7083.027 -88426.48 -152034.3 -62046.02 -49398.93 -192378.8 -7083.035 -30469.77 -159858.3 -62046.02 -0.028539 -192378.9 -7083.027 30469.79 -152034.3 -62046.02 49398.89 -173547.4 -7083.027 88426.78 -129328.2 -62046.02 93962.27 -137727.2 -7082.994 137727.1 -93962.41 -62046.02 129328 -88426.8 -7083.042 173547.2 -49399 -62046.04 152034.2 -30469.94 -7083.035 192378.8 -0.053591 -62046.02 159858.2 30469.81 -7083.042 192378.8 49398.82 -62046.04 152034.1 88426.8 -7083.035 173547.4 93962.18 -62046.02 129328 137728.1 -7083.008 137728.2 129327.9 -62046.02 93962.27 173546.7 -7083.035 88426.47 152034.1 -62046.02 49398.86 192378.7 -7083.027 30469.79 159858.2 -62046.02 -0.026681 192378.6 -7083.035 -30469.74 152034.1 -62046.02 -49398.93 173548.1 -7083.021 -88427.38 129328 -62046.02 -93962.35 137728 -7083.063 -137728.1 93962.27 -62046.04 -129328.1 88426.86 -7083.015 -173547.6 49398.82 -62046.02 -152034.2 30469.73 -7083.042 -192378.8 -0.079367 -62046.02 -159858.3 -30469.84 -7083.042 -192378.8 -62949.08 -104863 -62948.99 -79320.38 -104863 -40415.76 -87927.3 -104863 -13926.35 -87927.28 -104863 13926.28 -79320.37 -104863 40415.72 -62949.04 -104863 62948.92 -40415.83 -104863 79320.27 -13926.38 -104863 87927.2 13926.22 -104863 87927.2 40415.63 -104863 79320.25 62948.86 -104863 62948.9 79320.2 -104863 40415.71 87927.13 -104863 13926.29 87927.11 -104863 -13926.32 79320.23 -104863 -40415.76 62948.87 -104863 -62949 40415.64 -104863 -79320.3 13926.23 -104863 -87927.25 -13926.37 -104863 -87927.25 -0.05523 137943.1 -0.030266 -13926.37 122116.1 -87927.25 -40415.83 122116.1 -79320.3 -49399.02 79299.14 -152034.2 -93962.34 79299.13 -129328.1 -88426.78 24336.16 -173547.3 -137729.4 24336.04 -137729.5 -99743.66 8626.546 -167030 -128034.8 8626.557 -146479.7 -146479 8626.557 -128034.6 -167028.1 8626.549 -99742.85 -178871.2 8626.553 -76501.78 -173546.9 24336.13 -88426.48 -192378.8 24336.13 -30469.77 -152034.3 79299.13 -49398.93 -159858.3 79299.13 -0.028539 -87927.3 122116.1 -13926.35 -87927.28 122116.1 13926.28 -79320.37 122116.1 40415.72 -62949.04 122116.1 62948.92 -129328.2 79299.13 93962.27 -93962.41 79299.13 129328 -137727.2 24336.1 137727.1 -88426.8 24336.15 173547.2 -128030.6 8626.553 146475.7 -99743.77 8626.549 167030.3 -76501.84 8626.549 178871.8 -43246.73 8626.549 189677.4 -17483.1 8626.549 193757.9 -30469.94 24336.14 192378.8 30469.81 24336.15 192378.8 -0.053591 79299.13 159858.2 49398.82 79299.14 152034.1 13926.22 122116.1 87927.2 40415.63 122116.1 79320.25 62948.86 122116.1 62948.9 93962.18 79299.13 129328 129327.9 79299.13 93962.27 137728.1 24336.11 137728.2 173546.7 24336.13 88426.47 146479.3 8626.557 128034.6 167028.5 8626.557 99742.91 178871.6 8626.549 76501.84 189677.4 8626.549 43246.89 193758 8626.557 17483.33 192378.7 24336.13 30469.79 192378.6 24336.13 -30469.74 159858.2 79299.13 -0.026681 152034.1 79299.13 -49398.93 87927.11 122116.1 -13926.32 79320.23 122116.1 -40415.76 62948.87 122116.1 -62949 40415.64 122116.1 -79320.3 93962.27 79299.14 -129328.1 49398.82 79299.13 -152034.2 88426.86 24336.12 -173547.6 30469.73 24336.15 -192378.8 76502.2 8626.557 -178871.7 43247.1 8626.557 -189677.3 17483.47 8626.553 -193757.8 -17483.1 8626.553 -193757.8 -152034.3 79299.13 49398.89 -173547.4 24336.13 88426.78 -167031.3 8626.557 99744.65 -146476.1 8626.557 128031.6 129328 79299.13 -93962.35 137728 24336.17 -137728.1 128031 8626.557 -146475.6 99744.15 8626.549 -167030.2 88426.8 24336.14 173547.4 99744.03 8626.549 167030 128035.1 8626.557 146479.7 -192378.9 24336.13 30469.79 -189677 8626.549 43246.87 -178872.8 8626.549 76502.62 -0.079367 79299.13 -159858.3 -30469.84 24336.15 -192378.8 -43246.8 8626.557 -189677.4 -76501.79 8626.56 -178871.6 -49399.02 -62046.04 -152034.2 -40415.83 -104863 -79320.3 -0.05523 -120690 -0.030266 173548.1 24336.12 -88427.38 167031.6 8626.549 -99744.57 146476.4 8626.549 -128031.6 -129328.2 79299.13 -93962.3 -79320.38 122116.1 -40415.76 -49399 79299.15 152034.2 -13926.38 122116.1 87927.2 152034.1 79299.13 49398.86 87927.13 122116.1 13926.29 43247.18 8626.557 189677.5 76502.17 8626.557 178871.7 -193757.7 8626.553 -17483.26 -193757.4 8626.557 17483.32 189677.4 8626.557 -43246.83 178873.2 8626.557 -76502.57 -62949.08 122116.1 -62948.99 -40415.83 122116.1 79320.27 13926.23 122116.1 -87927.25 79320.2 122116.1 40415.71 17483.47 8626.553 193757.9 -189677 8626.557 -43246.83 193757.8 8626.557 -17483.25</float_array>
					<technique_common>
						<accessor source="#polygon0_PosArr" count="162" stride="3">
							<param name="X" type="float" />
							<param name="Y" type="float" />
							<param name="Z" type="float" />
						</accessor>
					</technique_common>
				</source>
				<source id="polygon0_Colors0">
					<float_array id="polygon0_ColorArr0" count="4">0.4588236 0.4588236 0.4588236 1</float_array>
					<technique_common>
						<accessor source="#polygon0_ColorArr0" count="1" stride="4">
							<param name="R" type="float" />
							<param name="G" type="float" />
							<param name="B" type="float" />
							<param name="A" type="float" />
						</accessor>
					</technique_common>
				</source>
				<source id="polygon0_UVs0">
					<float_array id="polygon0_UVArr0" count="248">0.4173584 0.09130859 0.5130615 0.3759766 0.6121826 0.08288574 0.7166748 0.3815918 0.8065186 0.1015625 0.9063721 0.3759766 1.016846 0.08288574 1.122192 0.3789063 1.202026 0.08532715 1.301147 0.3759766 1.388916 0.07751465 1.485352 0.3762207 1.575928 0.09350586 1.674683 0.3814697 1.757935 0.08288574 1.888184 0.3842773 2.004761 0.1015625 2.095703 0.3787842 2.192017 0.08837891 2.321533 0.3815918 2.399902 0.1153564 2.512573 0.3759766 2.614502 0.08288574 2.713623 0.3815918 2.803589 0.1053467 2.911865 0.383667 2.996704 0.08288574 3.113037 0.3815918 3.219971 0.09924316 3.32605 0.3759766 3.408569 0.08288574 3.514771 0.3842773 3.615845 0.09619141 3.702759 0.3814697 3.797729 0.07446289 3.902954 0.3815918 4.001831 0.1015625 4.08606 0.3759766 4.183105 0.08288574 0.6068115 0.7871094 0.8065186 0.8027344 1.030029 0.8027344 1.22583 0.7871094 1.400024 0.8027344 1.574341 0.8027344 1.805054 0.7871094 2.004761 0.8027344 2.204468 0.8027344 2.404175 0.7871094 2.603882 0.8027344 2.803589 0.8027344 3.003296 0.7871094 3.203003 0.8027344 3.40271 0.8027344 3.602417 0.7871094 3.802124 0.8027344 4.001831 0.7871094 4.188354 0.8027344 0.3071289 0.9761963 0.1907959 0.8027344 0.4071045 0.8027344 0.2991943 0.3762207 0.4581299 -0.03320313 0.5699463 -0.03796387 0.6550293 -0.03796387 0.7664795 -0.02722168 0.848999 -0.02722168 1.125977 0.9761963 1.485474 0.9761963 1.617065 -0.03186035 1.721436 -0.03796387 1.820557 -0.03796387 1.962158 -0.02722168 2.047363 -0.02722168 2.304199 0.9761963 2.503906 0.9761963 2.652588 -0.03796387 2.760986 -0.02514648 2.846191 -0.02514648 2.956909 -0.03796387 3.042114 -0.03796387 3.302856 0.9761963 3.702271 0.9761963 3.842163 -0.04284668 3.959351 -0.02722168 4.044434 -0.02722168 4.140015 -0.03796387 1.305664 0.9761963 1.426758 -0.0411377 1.534058 -0.03186035 3.502563 0.9761963 3.65271 -0.03039551 3.75708 -0.04284668 2.447876 -0.01940918 2.571045 -0.03796387 1.249268 -0.03662109 1.356567 -0.0411377 0.0838623 0.3759766 0.1741943 0.08288574 0.230835 -0.03796387 0.3704834 -0.03320313 0.145752 -0.03796387 0.5068359 0.9761963 3.448608 -0.03796387 3.567505 -0.03039551 0.9262695 0.9761963 2.104492 0.9761963 3.103149 0.9761963 2.232544 -0.03491211 2.351807 -0.01940918 1.062134 -0.03796387 1.168457 -0.03662109 3.265137 -0.02868652 3.373413 -0.03796387 1.685181 0.9761963 3.901978 0.9761963 2.703735 0.9761963 2.154785 -0.03491211 0.9697266 -0.03796387 3.170166 -0.02868652 2.903442 0.9761963 4.107422 0.9761963 0.706543 0.9761963 1.904785 0.9761963</float_array>
					<technique_common>
						<accessor source="#polygon0_UVArr0" count="124" stride="2">
							<param name="S" type="float" />
							<param name="T" type="float" />
						</accessor>
					</technique_common>
				</source>
				<vertices id="polygon0_Vertices">
					<input semantic="POSITION" source="#polygon0_Positions" />
				</vertices>
				<triangles material="sky_m" count="320">
					<input semantic="VERTEX" source="#polygon0_Vertices" offset="0" />
					<input semantic="COLOR" source="#polygon0_Colors0" set="0" offset="1" />
					<input semantic="TEXCOORD" source="#polygon0_UVs0" set="0" offset="2" />
					<p>2 0 2 1 0 1 0 0 0 3 0 3 1 0 1 2 0 2 4 0 4 3 0 3 2 0 2 5 0 5 3 0 3 4 0 4 6 0 6 5 0 5 4 0 4 7 0 7 5 0 5 6 0 6 8 0 8 7 0 7 6 0 6 9 0 9 7 0 7 8 0 8 10 0 10 9 0 9 8 0 8 11 0 11 9 0 9 10 0 10 12 0 12 11 0 11 10 0 10 13 0 13 11 0 11 12 0 12 14 0 14 13 0 13 12 0 12 15 0 15 13 0 13 14 0 14 16 0 16 15 0 15 14 0 14 17 0 17 15 0 15 16 0 16 18 0 18 17 0 17 16 0 16 19 0 19 17 0 17 18 0 18 20 0 20 19 0 19 18 0 18 21 0 21 19 0 19 20 0 20 22 0 22 21 0 21 20 0 20 23 0 23 21 0 21 22 0 22 24 0 24 23 0 23 22 0 22 25 0 25 23 0 23 24 0 24 26 0 26 25 0 25 24 0 24 27 0 27 25 0 25 26 0 26 28 0 28 27 0 27 26 0 26 29 0 29 27 0 27 28 0 28 30 0 30 29 0 29 28 0 28 31 0 31 29 0 29 30 0 30 32 0 32 31 0 31 30 0 30 33 0 33 31 0 31 32 0 32 34 0 34 33 0 33 32 0 32 35 0 35 33 0 33 34 0 34 36 0 36 35 0 35 34 0 34 37 0 37 35 0 35 36 0 36 38 0 38 37 0 37 36 0 36 3 0 3 39 0 39 1 0 1 40 0 40 39 0 39 3 0 3 5 0 5 40 0 40 3 0 3 41 0 41 40 0 40 5 0 5 7 0 7 41 0 41 5 0 5 42 0 42 41 0 41 7 0 7 9 0 9 42 0 42 7 0 7 43 0 43 42 0 42 9 0 9 11 0 11 43 0 43 9 0 9 44 0 44 43 0 43 11 0 11 13 0 13 44 0 44 11 0 11 45 0 45 44 0 44 13 0 13 15 0 15 45 0 45 13 0 13 46 0 46 45 0 45 15 0 15 17 0 17 46 0 46 15 0 15 47 0 47 46 0 46 17 0 17 19 0 19 47 0 47 17 0 17 48 0 48 47 0 47 19 0 19 21 0 21 48 0 48 19 0 19 49 0 49 48 0 48 21 0 21 23 0 23 49 0 49 21 0 21 50 0 50 49 0 49 23 0 23 25 0 25 50 0 50 23 0 23 51 0 51 50 0 50 25 0 25 27 0 27 51 0 51 25 0 25 52 0 52 51 0 51 27 0 27 29 0 29 52 0 52 27 0 27 53 0 53 52 0 52 29 0 29 31 0 31 53 0 53 29 0 29 54 0 54 53 0 53 31 0 31 33 0 33 54 0 54 31 0 31 55 0 55 54 0 54 33 0 33 35 0 35 55 0 55 33 0 33 56 0 56 55 0 55 35 0 35 37 0 37 56 0 56 35 0 35 57 0 57 56 0 56 37 0 37 60 0 60 59 0 59 58 0 58 61 0 61 59 0 59 60 0 60 62 0 1 61 0 61 60 0 60 63 0 0 61 0 61 62 0 1 64 0 2 63 0 0 62 0 1 65 0 62 63 0 0 64 0 2 66 0 63 65 0 62 64 0 2 2 0 2 65 0 62 66 0 63 67 0 64 2 0 2 66 0 63 4 0 4 2 0 2 67 0 64 68 0 65 4 0 4 67 0 64 69 0 66 4 0 4 68 0 65 70 0 4 69 0 66 68 0 65 71 0 6 69 0 66 70 0 4 72 0 5 71 0 6 70 0 4 73 0 7 71 0 6 72 0 5 74 0 41 73 0 7 72 0 5 75 0 42 73 0 7 74 0 41 58 0 67 75 0 42 74 0 41 77 0 44 76 0 43 58 0 68 78 0 11 76 0 43 77 0 44 79 0 13 78 0 11 77 0 44 80 0 12 78 0 11 79 0 13 81 0 14 80 0 12 79 0 13 82 0 69 80 0 12 81 0 14 83 0 70 82 0 69 81 0 14 14 0 14 82 0 69 83 0 70 84 0 71 14 0 14 83 0 70 16 0 16 14 0 14 84 0 71 85 0 72 16 0 16 84 0 71 86 0 73 16 0 16 85 0 72 87 0 16 86 0 73 85 0 72 88 0 18 86 0 73 87 0 16 89 0 17 88 0 18 87 0 16 90 0 19 88 0 18 89 0 17 91 0 47 90 0 19 89 0 17 92 0 48 90 0 19 91 0 47 58 0 74 92 0 48 91 0 47 93 0 49 92 0 48 58 0 75 94 0 21 92 0 48 93 0 49 95 0 23 94 0 21 93 0 49 96 0 22 94 0 21 95 0 23 97 0 24 96 0 22 95 0 23 98 0 76 96 0 22 97 0 24 99 0 77 98 0 76 97 0 24 24 0 24 98 0 76 99 0 77 100 0 78 24 0 24 99 0 77 26 0 26 24 0 24 100 0 78 101 0 79 26 0 26 100 0 78 102 0 80 26 0 26 101 0 79 103 0 26 102 0 80 101 0 79 104 0 28 102 0 80 103 0 26 105 0 27 104 0 28 103 0 26 106 0 29 104 0 28 105 0 27 107 0 52 106 0 29 105 0 27 108 0 53 106 0 29 107 0 52 58 0 81 108 0 53 107 0 52 110 0 55 109 0 54 58 0 82 111 0 33 109 0 54 110 0 55 112 0 35 111 0 33 110 0 55 113 0 34 111 0 33 112 0 35 114 0 36 113 0 34 112 0 35 115 0 83 113 0 34 114 0 36 116 0 84 115 0 83 114 0 36 36 0 36 115 0 83 116 0 84 117 0 85 36 0 36 116 0 84 38 0 38 36 0 36 117 0 85 118 0 86 38 0 38 117 0 85 76 0 43 75 0 42 58 0 87 119 0 9 75 0 42 76 0 43 78 0 11 119 0 9 76 0 43 120 0 10 119 0 9 78 0 11 80 0 12 120 0 10 78 0 11 121 0 88 120 0 10 80 0 12 122 0 89 121 0 88 80 0 12 12 0 12 121 0 88 122 0 89 82 0 69 12 0 12 122 0 89 14 0 14 12 0 12 82 0 69 109 0 54 108 0 53 58 0 90 123 0 31 108 0 53 109 0 54 111 0 33 123 0 31 109 0 54 124 0 32 123 0 31 111 0 33 113 0 34 124 0 32 111 0 33 125 0 91 124 0 32 113 0 34 126 0 92 125 0 91 113 0 34 34 0 34 125 0 91 126 0 92 115 0 83 34 0 34 126 0 92 36 0 36 34 0 34 115 0 83 94 0 21 90 0 19 92 0 48 127 0 20 90 0 19 94 0 21 96 0 22 127 0 20 94 0 21 128 0 93 127 0 20 96 0 22 129 0 94 128 0 93 96 0 22 22 0 22 128 0 93 129 0 94 98 0 76 22 0 22 129 0 94 24 0 24 22 0 22 98 0 76 119 0 9 73 0 7 75 0 42 130 0 8 73 0 7 119 0 9 120 0 10 130 0 8 119 0 9 131 0 95 130 0 8 120 0 10 132 0 96 131 0 95 120 0 10 10 0 10 131 0 95 132 0 96 121 0 88 10 0 10 132 0 96 12 0 12 10 0 10 121 0 88 61 0 61 133 0 97 59 0 59 134 0 98 133 0 97 61 0 61 63 0 0 134 0 98 61 0 61 135 0 99 134 0 98 63 0 0 136 0 100 135 0 99 63 0 0 0 0 0 135 0 99 136 0 100 65 0 62 0 0 0 136 0 100 2 0 2 0 0 0 65 0 62 135 0 99 118 0 101 134 0 98 38 0 98 118 0 101 135 0 99 0 0 0 38 0 98 135 0 99 137 0 61 38 0 98 0 0 0 1 0 1 137 0 61 0 0 0 138 0 60 137 0 61 1 0 1 39 0 39 138 0 60 1 0 1 139 0 102 138 0 60 39 0 39 123 0 31 106 0 29 108 0 53 140 0 30 106 0 29 123 0 31 124 0 32 140 0 30 123 0 31 141 0 103 140 0 30 124 0 32 142 0 104 141 0 103 124 0 32 32 0 32 141 0 103 142 0 104 125 0 91 32 0 32 142 0 104 34 0 34 32 0 32 125 0 91 64 0 2 67 0 64 66 0 63 70 0 4 67 0 64 64 0 2 143 0 3 70 0 4 64 0 2 72 0 5 70 0 4 143 0 3 144 0 40 72 0 5 143 0 3 74 0 41 72 0 5 144 0 40 58 0 105 74 0 41 144 0 40 81 0 14 84 0 71 83 0 70 87 0 16 84 0 71 81 0 14 145 0 15 87 0 16 81 0 14 89 0 17 87 0 16 145 0 15 146 0 46 89 0 17 145 0 15 91 0 47 89 0 17 146 0 46 58 0 106 91 0 47 146 0 46 97 0 24 100 0 78 99 0 77 103 0 26 100 0 78 97 0 24 147 0 25 103 0 26 97 0 24 105 0 27 103 0 26 147 0 25 148 0 51 105 0 27 147 0 25 107 0 52 105 0 27 148 0 51 58 0 107 107 0 52 148 0 51 127 0 20 88 0 18 90 0 19 149 0 108 88 0 18 127 0 20 150 0 109 149 0 108 127 0 20 20 0 20 149 0 108 150 0 109 128 0 93 20 0 20 150 0 109 22 0 22 20 0 20 128 0 93 130 0 8 71 0 6 73 0 7 151 0 110 71 0 6 130 0 8 152 0 111 151 0 110 130 0 8 8 0 8 151 0 110 152 0 111 131 0 95 8 0 8 152 0 111 10 0 10 8 0 8 131 0 95 140 0 30 104 0 28 106 0 29 153 0 112 104 0 28 140 0 30 154 0 113 153 0 112 140 0 30 30 0 30 153 0 112 154 0 113 141 0 103 30 0 30 154 0 113 32 0 32 30 0 30 141 0 103 62 0 1 143 0 3 64 0 2 155 0 39 143 0 3 62 0 1 60 0 60 155 0 39 62 0 1 58 0 102 155 0 39 60 0 60 79 0 13 145 0 15 81 0 14 156 0 45 145 0 15 79 0 13 77 0 44 156 0 45 79 0 13 58 0 114 156 0 45 77 0 44 112 0 35 133 0 37 114 0 36 157 0 56 133 0 37 112 0 35 110 0 55 157 0 56 112 0 35 58 0 115 157 0 56 110 0 55 95 0 23 147 0 25 97 0 24 158 0 50 147 0 25 95 0 23 93 0 49 158 0 50 95 0 23 58 0 116 158 0 50 93 0 49 137 0 61 37 0 97 38 0 98 57 0 59 37 0 97 137 0 61 138 0 60 57 0 59 137 0 61 139 0 58 57 0 59 138 0 60 86 0 73 18 0 18 16 0 16 159 0 117 18 0 18 86 0 73 88 0 18 159 0 117 86 0 73 149 0 108 159 0 117 88 0 18 6 0 6 151 0 110 8 0 8 160 0 118 151 0 110 6 0 6 69 0 66 160 0 118 6 0 6 71 0 6 160 0 118 69 0 66 28 0 28 153 0 112 30 0 30 161 0 119 153 0 112 28 0 28 102 0 80 161 0 119 28 0 28 104 0 28 161 0 119 102 0 80 114 0 36 117 0 85 116 0 84 134 0 38 117 0 85 114 0 36 133 0 37 134 0 38 114 0 36 148 0 51 158 0 50 58 0 120 147 0 25 158 0 50 148 0 51 59 0 57 157 0 56 58 0 121 133 0 37 157 0 56 59 0 57 149 0 108 18 0 18 159 0 117 20 0 20 18 0 18 149 0 108 144 0 40 155 0 39 58 0 122 143 0 3 155 0 39 144 0 40 146 0 46 156 0 45 58 0 123 145 0 15 156 0 45 146 0 46 82 0 69 122 0 89 80 0 12 115 0 83 126 0 92 113 0 34 98 0 76 129 0 94 96 0 22 128 0 93 150 0 109 127 0 20 121 0 88 132 0 96 120 0 10 131 0 95 152 0 111 130 0 8 65 0 62 136 0 100 63 0 0 125 0 91 142 0 104 124 0 32 141 0 103 154 0 113 140 0 30 40 0 40 139 0 122 39 0 39 42 0 42 139 0 67 41 0 41 41 0 41 139 0 105 40 0 40 44 0 44 139 0 68 43 0 43 43 0 43 139 0 87 42 0 42 46 0 46 139 0 123 45 0 45 45 0 45 139 0 114 44 0 44 49 0 49 139 0 75 48 0 48 48 0 48 139 0 74 47 0 47 51 0 51 139 0 120 50 0 50 50 0 50 139 0 116 49 0 49 53 0 53 139 0 81 52 0 52 52 0 52 139 0 107 51 0 51 139 0 82 54 0 54 55 0 55 53 0 53 54 0 54 139 0 90 139 0 121 56 0 56 57 0 57 139 0 115 55 0 55 56 0 56 47 0 47 139 0 106 46 0 46 85 0 72 84 0 71 87 0 16 68 0 65 67 0 64 70 0 4 118 0 86 117 0 85 134 0 38 101 0 79 100 0 78 103 0 26 151 0 110 160 0 118 71 0 6 6 0 6 4 0 4 69 0 66 153 0 112 161 0 119 104 0 28 28 0 28 26 0 26 102 0 80</p>
				</triangles>
			</mesh>
		</geometry>
	</library_geometries>
	<library_controllers>
		<controller id="polygon0_Controller">
			<skin source="#polygon0">
				<bind_shape_matrix>1 0 0 0 0 1 0 0 0 0 1 0 0 0 0 1</bind_shape_matrix>
				<source id="polygon0_Joints">
					<Name_array id="polygon0_JointArr" count="1">treehouse_course_v</Name_array>
					<technique_common>
						<accessor source="#polygon0_JointArr" count="1">
							<param name="JOINT" type="Name" />
						</accessor>
					</technique_common>
				</source>
				<source id="polygon0_Matrices">
					<float_array id="polygon0_MatArr" count="16">1 0 0 0 0 1 0 0 0 0 1 0 0 0 0 1</float_array>
					<technique_common>
						<accessor source="#polygon0_MatArr" count="1" stride="16">
							<param type="float4x4" />
						</accessor>
					</technique_common>
				</source>
				<source id="polygon0_Weights">
					<float_array id="polygon0_WeightArr" count="1">1</float_array>
					<technique_common>
						<accessor source="#polygon0_WeightArr" count="1">
							<param type="float" />
						</accessor>
					</technique_common>
				</source>
				<joints>
					<input semantic="JOINT" source="#polygon0_Joints" />
					<input semantic="INV_BIND_MATRIX" source="#polygon0_Matrices" />
				</joints>
				<vertex_weights count="162">
					<input semantic="JOINT" offset="0" source="#polygon0_Joints" />
					<input semantic="WEIGHT" offset="1" source="#polygon0_Weights" />
					<vcount>1 1 1 1 1 1 1 1 1 1 1 1 1 1 1 1 1 1 1 1 1 1 1 1 1 1 1 1 1 1 1 1 1 1 1 1 1 1 1 1 1 1 1 1 1 1 1 1 1 1 1 1 1 1 1 1 1 1 1 1 1 1 1 1 1 1 1 1 1 1 1 1 1 1 1 1 1 1 1 1 1 1 1 1 1 1 1 1 1 1 1 1 1 1 1 1 1 1 1 1 1 1 1 1 1 1 1 1 1 1 1 1 1 1 1 1 1 1 1 1 1 1 1 1 1 1 1 1 1 1 1 1 1 1 1 1 1 1 1 1 1 1 1 1 1 1 1 1 1 1 1 1 1 1 1 1 1 1 1 1 1 1</vcount>
					<v>0 0 0 0 0 0 0 0 0 0 0 0 0 0 0 0 0 0 0 0 0 0 0 0 0 0 0 0 0 0 0 0 0 0 0 0 0 0 0 0 0 0 0 0 0 0 0 0 0 0 0 0 0 0 0 0 0 0 0 0 0 0 0 0 0 0 0 0 0 0 0 0 0 0 0 0 0 0 0 0 0 0 0 0 0 0 0 0 0 0 0 0 0 0 0 0 0 0 0 0 0 0 0 0 0 0 0 0 0 0 0 0 0 0 0 0 0 0 0 0 0 0 0 0 0 0 0 0 0 0 0 0 0 0 0 0 0 0 0 0 0 0 0 0 0 0 0 0 0 0 0 0 0 0 0 0 0 0 0 0 0 0 0 0 0 0 0 0 0 0 0 0 0 0 0 0 0 0 0 0 0 0 0 0 0 0 0 0 0 0 0 0 0 0 0 0 0 0 0 0 0 0 0 0 0 0 0 0 0 0 0 0 0 0 0 0 0 0 0 0 0 0 0 0 0 0 0 0 0 0 0 0 0 0 0 0 0 0 0 0 0 0 0 0 0 0 0 0 0 0 0 0 0 0 0 0 0 0 0 0 0 0 0 0 0 0 0 0 0 0 0 0 0 0 0 0 0 0 0 0 0 0 0 0 0 0 0 0 0 0 0 0 0 0 0 0 0 0 0 0 0 0 0 0 0 0 0 0 0 0 0 0 0 0 0 0 0 0 0 0 0 0 0 0</v>
				</vertex_weights>
			</skin>
		</controller>
	</library_controllers>
	<library_visual_scenes>
		<visual_scene id="RootNode" name="RootNode">
			<node id="treehouse_course_v" name="treehouse_course_v" sid="treehouse_course_v" type="JOINT" />
			<node id="polygon0" name="polygon0" type="NODE">
				<instance_controller url="#polygon0_Controller">
					<skeleton>#treehouse_course_v</skeleton>
					<bind_material>
						<technique_common>
							<instance_material symbol="sky_m" target="#sky_m">
								<bind_vertex_input semantic="TEXCOORD0" input_semantic="TEXCOORD" input_set="0" />
							</instance_material>
						</technique_common>
					</bind_material>
				</instance_controller>
			</node>
		</visual_scene>
	</library_visual_scenes>
	<scene>
		<instance_visual_scene url="#RootNode" />
	</scene>
</COLLADA>