<?xml version="1.0" encoding="utf-8"?>
<COLLADA version="1.5.0" xmlns="http://www.collada.org/2008/03/COLLADASchema">
	<asset>
		<contributor>
			<authoring_tool>BrawlBox</authoring_tool>
		</contributor>
		<created>2019-09-28T02:14:02Z</created>
		<modified>2019-09-28T02:14:02Z</modified>
		<unit meter="0.01" name="centimeter" />
		<up_axis>Y_UP</up_axis>
	</asset>
	<library_images>
		<image id="ref_b_i-image" name="ref_b_i">
			<init_from>
				<ref>ref_b_i.png</ref>
			</init_from>
		</image>
		<image id="wan_eye-image" name="wan_eye">
			<init_from>
				<ref>wan_eye.png</ref>
			</init_from>
		</image>
		<image id="wanwan_mouth-image" name="wanwan_mouth">
			<init_from>
				<ref>wanwan_mouth.png</ref>
			</init_from>
		</image>
	</library_images>
	<library_materials>
		<material id="body">
			<instance_effect url="#body-fx" />
		</material>
		<material id="chain">
			<instance_effect url="#chain-fx" />
		</material>
		<material id="eye">
			<instance_effect url="#eye-fx" />
		</material>
		<material id="mouth">
			<instance_effect url="#mouth-fx" />
		</material>
	</library_materials>
	<library_effects>
		<effect id="body-fx" name="body">
			<profile_COMMON>
				<newparam sid="ref_b_i-surface">
					<surface type="2D">
						<init_from>
							<ref>ref_b_i-image</ref>
						</init_from>
					</surface>
				</newparam>
				<newparam sid="ref_b_i-sampler">
					<sampler2D>
						<source>ref_b_i-surface</source>
						<instance_image url="#ref_b_i-image" />
						<wrap_s>WRAP</wrap_s>
						<wrap_t>WRAP</wrap_t>
						<minfilter>LINEAR</minfilter>
						<magfilter>LINEAR</magfilter>
					</sampler2D>
				</newparam>
				<technique sid="COMMON">
					<phong>
						<diffuse>
							<texture texture="ref_b_i-sampler" texcoord="TEXCOORD0" />
						</diffuse>
					</phong>
				</technique>
			</profile_COMMON>
		</effect>
		<effect id="chain-fx" name="chain">
			<profile_COMMON>
				<newparam sid="ref_b_i-surface">
					<surface type="2D">
						<init_from>
							<ref>ref_b_i-image</ref>
						</init_from>
					</surface>
				</newparam>
				<newparam sid="ref_b_i-sampler">
					<sampler2D>
						<source>ref_b_i-surface</source>
						<instance_image url="#ref_b_i-image" />
						<wrap_s>WRAP</wrap_s>
						<wrap_t>WRAP</wrap_t>
						<minfilter>LINEAR</minfilter>
						<magfilter>LINEAR</magfilter>
					</sampler2D>
				</newparam>
				<technique sid="COMMON">
					<phong>
						<diffuse>
							<texture texture="ref_b_i-sampler" texcoord="TEXCOORD0" />
						</diffuse>
					</phong>
				</technique>
			</profile_COMMON>
		</effect>
		<effect id="eye-fx" name="eye">
			<profile_COMMON>
				<newparam sid="wan_eye-surface">
					<surface type="2D">
						<init_from>
							<ref>wan_eye-image</ref>
						</init_from>
					</surface>
				</newparam>
				<newparam sid="wan_eye-sampler">
					<sampler2D>
						<source>wan_eye-surface</source>
						<instance_image url="#wan_eye-image" />
						<wrap_s>CLAMP</wrap_s>
						<wrap_t>CLAMP</wrap_t>
						<minfilter>LINEAR</minfilter>
						<magfilter>LINEAR</magfilter>
					</sampler2D>
				</newparam>
				<technique sid="COMMON">
					<phong>
						<diffuse>
							<texture texture="wan_eye-sampler" texcoord="TEXCOORD0" />
						</diffuse>
					</phong>
				</technique>
			</profile_COMMON>
		</effect>
		<effect id="mouth-fx" name="mouth">
			<profile_COMMON>
				<newparam sid="wanwan_mouth-surface">
					<surface type="2D">
						<init_from>
							<ref>wanwan_mouth-image</ref>
						</init_from>
					</surface>
				</newparam>
				<newparam sid="wanwan_mouth-sampler">
					<sampler2D>
						<source>wanwan_mouth-surface</source>
						<instance_image url="#wanwan_mouth-image" />
						<wrap_s>WRAP</wrap_s>
						<wrap_t>WRAP</wrap_t>
						<minfilter>LINEAR</minfilter>
						<magfilter>LINEAR</magfilter>
					</sampler2D>
				</newparam>
				<technique sid="COMMON">
					<phong>
						<diffuse>
							<texture texture="wanwan_mouth-sampler" texcoord="TEXCOORD0" />
						</diffuse>
					</phong>
				</technique>
			</profile_COMMON>
		</effect>
	</library_effects>
	<library_geometries>
		<geometry id="polygon0" name="polygon0">
			<mesh>
				<source id="polygon0_Positions">
					<float_array id="polygon0_PosArr" count="51">65.34375 0 -337.5 48.64063 -49.125 -337.5 69.95313 -66.625 -265.7813 0 -71.375 -337.5 0 -96.3125 -283.5781 -69.95313 -66.625 -265.7813 -48.64063 49.125 -337.5 -69.95313 66.625 -265.7813 -65.34375 0 -337.5 -92.03125 0 -265.7813 0 96.3125 -283.5781 0 71.375 -337.5 69.95313 66.625 -265.7813 48.64063 49.125 -337.5 -48.64063 -49.125 -337.5 0 0 -341.6875 92.03125 0 -265.7813</float_array>
					<technique_common>
						<accessor source="#polygon0_PosArr" count="17" stride="3">
							<param name="X" type="float" />
							<param name="Y" type="float" />
							<param name="Z" type="float" />
						</accessor>
					</technique_common>
				</source>
				<source id="polygon0_Normals">
					<float_array id="polygon0_NormArr" count="75">0.8302612 0.1890259 -0.524353 0.4694214 -0.7045898 -0.5321655 0.7808838 -0.5084229 -0.3630371 -0.2634888 -0.800354 -0.5385132 0 -0.9210815 -0.3894653 -0.7808838 -0.5084229 -0.3630371 -0.4694214 0.7045898 -0.5321655 -0.7808838 0.5084229 -0.3630371 -0.8331909 0.1851807 -0.5210571 -0.9372559 0 -0.3486938 0 0.9210815 -0.3894653 -0.2634888 0.800354 -0.5385132 0.7808838 0.5084229 -0.3630371 0.7658691 0.3724365 -0.5241089 -0.2509766 -0.1986084 -0.9473877 0.01690674 -0.3135376 -0.9494019 -0.01605225 0.03515625 -0.9992676 0.2509766 -0.1986084 -0.9473877 0.3181763 -0.01373291 -0.947937 0.2276001 0.2220459 -0.9481201 -0.01690674 0.3135376 -0.9494019 -0.2276001 0.2220459 -0.9481201 -0.4694214 -0.7045898 -0.5321655 0.9372559 0 -0.3486938 -0.3181763 -0.01373291 -0.947937</float_array>
					<technique_common>
						<accessor source="#polygon0_NormArr" count="25" stride="3">
							<param name="X" type="float" />
							<param name="Y" type="float" />
							<param name="Z" type="float" />
						</accessor>
					</technique_common>
				</source>
				<source id="polygon0_UVs0">
					<float_array id="polygon0_UVArr0" count="54">0.583313 0.125 0.5 0.125 0.5 0.25 0.333313 0.125 0.333313 0.25 0.166687 0.25 0 0.125 0 0.25 0.08331299 0.125 0.08331299 0.25 0.833313 0.25 0.833313 0.125 0.666687 0.25 0.666687 0.125 0.3984985 -0.03106689 0.3620605 -0.03106689 0.3620605 0.5515137 0.3256836 -0.03106689 0.3256226 0.5515137 0.3256226 1.134094 0.3620605 1.134094 0.3984985 1.134094 0.166687 0.125 1 0.125 1 0.25 0.583313 0.25 0.3984985 0.5515137</float_array>
					<technique_common>
						<accessor source="#polygon0_UVArr0" count="27" stride="2">
							<param name="S" type="float" />
							<param name="T" type="float" />
						</accessor>
					</technique_common>
				</source>
				<vertices id="polygon0_Vertices">
					<input semantic="POSITION" source="#polygon0_Positions" />
				</vertices>
				<triangles material="chain" count="24">
					<input semantic="VERTEX" source="#polygon0_Vertices" offset="0" />
					<input semantic="NORMAL" source="#polygon0_Normals" offset="1" />
					<input semantic="TEXCOORD" source="#polygon0_UVs0" set="0" offset="2" />
					<p>2 2 2 1 1 1 0 0 0 3 3 3 1 1 1 2 2 2 4 4 4 3 3 3 2 2 2 5 5 5 3 3 3 4 4 4 8 8 8 7 7 7 6 6 6 9 9 9 7 7 7 8 8 8 5 5 5 9 9 9 8 8 8 12 12 12 11 11 11 10 10 10 13 13 13 11 11 11 12 12 12 0 0 0 13 13 13 12 12 12 15 16 16 3 15 15 14 14 14 1 17 17 3 15 15 15 16 16 0 18 18 1 17 17 15 16 16 15 16 16 13 19 19 0 18 18 11 20 20 13 19 19 15 16 16 6 21 21 11 20 20 15 16 16 14 22 22 5 5 5 8 8 8 3 3 3 5 5 5 14 22 22 7 7 24 11 11 11 6 6 23 10 10 10 11 11 11 7 7 24 16 23 25 0 0 0 12 12 12 2 2 2 0 0 0 16 23 25 15 16 16 8 24 26 6 21 21 14 14 14 8 24 26 15 16 16</p>
				</triangles>
			</mesh>
		</geometry>
		<geometry id="polygon1" name="polygon1">
			<mesh>
				<source id="polygon1_Positions">
					<float_array id="polygon1_PosArr" count="18">284.612 171.2608 -68.04485 287.5532 23.65551 136.1514 146.2659 257.6467 152.0584 -287.5532 23.65551 136.1514 -284.612 171.2608 -68.04485 -146.2659 257.6467 152.0584</float_array>
					<technique_common>
						<accessor source="#polygon1_PosArr" count="6" stride="3">
							<param name="X" type="float" />
							<param name="Y" type="float" />
							<param name="Z" type="float" />
						</accessor>
					</technique_common>
				</source>
				<source id="polygon1_Normals">
					<float_array id="polygon1_NormArr" count="6">0.818091 0.471602 0.329118 -0.818091 0.471602 0.329118</float_array>
					<technique_common>
						<accessor source="#polygon1_NormArr" count="2" stride="3">
							<param name="X" type="float" />
							<param name="Y" type="float" />
							<param name="Z" type="float" />
						</accessor>
					</technique_common>
				</source>
				<source id="polygon1_UVs0">
					<float_array id="polygon1_UVArr0" count="6">1.38269 0.5380859 0.1001587 -0.2914429 -0.05157471 1.291443</float_array>
					<technique_common>
						<accessor source="#polygon1_UVArr0" count="3" stride="2">
							<param name="S" type="float" />
							<param name="T" type="float" />
						</accessor>
					</technique_common>
				</source>
				<vertices id="polygon1_Vertices">
					<input semantic="POSITION" source="#polygon1_Positions" />
				</vertices>
				<triangles material="eye" count="2">
					<input semantic="VERTEX" source="#polygon1_Vertices" offset="0" />
					<input semantic="NORMAL" source="#polygon1_Normals" offset="1" />
					<input semantic="TEXCOORD" source="#polygon1_UVs0" set="0" offset="2" />
					<p>2 0 2 1 0 1 0 0 0 5 1 2 4 1 0 3 1 1</p>
				</triangles>
			</mesh>
		</geometry>
		<geometry id="polygon2" name="polygon2">
			<mesh>
				<source id="polygon2_Positions">
					<float_array id="polygon2_PosArr" count="276">263.0552 46.93197 144.4417 189.4328 159.6403 165.32 263.0552 151.875 0 193.0977 214.6128 86.77084 189.4328 232.7668 6E-06 103.9523 282.2798 -1E-06 193.0977 214.6128 -86.77085 105.9634 260.2642 -105.2283 103.9523 193.5983 -200.486 0 208.3235 -215.7351 103.9523 87.2292 -268.464 0 93.86389 -288.8834 103.9523 -87.22924 -268.464 0 -93.86392 -288.8834 103.9523 -193.5982 -200.486 0 -208.3234 -215.735 105.9635 -260.2641 -105.2283 0 -280.0599 -113.232 0 -303.75 -9E-06 300.5895 0 -1.1E-05 263.0552 -46.93195 -144.4417 292.2916 -75.9375 0 261.9629 -121.3023 -96.44566 260.3182 -151.875 6E-06 193.0977 -214.6128 -86.77083 189.4328 -232.7668 0 103.9523 -282.2797 -9E-06 193.0977 -214.6128 86.77086 105.9635 -260.2641 105.2283 103.9523 -193.5982 200.486 0 -208.3234 215.7351 103.9523 -87.22927 268.464 0 -93.86395 288.8834 -300.5895 0 -1.1E-05 -263.0552 46.93195 -144.4417 -261.9628 121.3023 -96.4457 -189.4328 159.6403 -165.32 -193.0977 214.6128 -86.77085 -105.9635 260.2642 -105.2283 -189.4328 232.7668 6E-06 -103.9523 282.2798 -1E-06 -105.9635 260.2641 105.2283 0 280.06 113.232 -103.9523 193.5982 200.486 0 208.3234 215.7351 -103.9523 87.22923 268.464 0 93.86391 288.8834 -103.9523 -87.22927 268.464 -103.9523 -193.5982 200.486 0 -280.0599 113.232 189.4328 -159.6403 -165.32 189.4328 -71.92889 -221.3744 -103.9523 193.5983 -200.486 0 280.06 -113.232 0 303.75 4E-06 105.9634 260.2641 105.2283 103.9523 193.5982 200.486 103.9523 87.22923 268.464 -263.0552 -46.93199 144.4417 -261.9629 -121.3023 96.44568 -292.2916 -75.93749 0 -260.3182 -151.875 4E-06 -261.9629 -121.3023 -96.4457 -193.0977 -214.6128 -86.77083 -189.4328 -159.6403 -165.3199 -105.9634 -260.2641 -105.2283 -103.9523 -193.5982 -200.486 -263.0552 -46.93195 -144.4417 -189.4328 -71.92889 -221.3744 -189.4328 71.92886 -221.3744 -103.9523 -87.22924 -268.464 -103.9523 87.2292 -268.464 -189.4328 -71.92889 221.3744 -189.4328 -159.6403 165.32 -105.9634 -260.2641 105.2283 -103.9523 -282.2797 -9E-06 -193.0977 -214.6128 86.77086 -189.4328 -232.7668 0 261.9629 121.3023 -96.44568 263.0552 46.93193 -144.4417 189.4328 159.6403 -165.32 189.4328 71.92886 -221.3744 263.0552 -46.93199 144.4417 261.9629 -121.3023 96.44568 -263.0552 46.93197 144.4417 -263.0552 151.875 0 -189.4328 159.6404 165.32 -193.0977 214.6128 86.77084 189.4328 -159.6404 165.32 -189.4328 71.92886 221.3744 189.4328 -71.92889 221.3744 189.4328 71.92886 221.3744</float_array>
					<technique_common>
						<accessor source="#polygon2_PosArr" count="92" stride="3">
							<param name="X" type="float" />
							<param name="Y" type="float" />
							<param name="Z" type="float" />
						</accessor>
					</technique_common>
				</source>
				<source id="polygon2_Normals">
					<float_array id="polygon2_NormArr" count="276">0.852859 0.366566 0.371834 0.689411 0.50655 0.517802 0.86525 0.493962 0.085698 0.657837 0.693538 0.293694 0.626114 0.779732 0 0.353316 0.935504 0 0.655991 0.696932 -0.289761 0.352626 0.858873 -0.371474 0.35119 0.645435 -0.678291 0 0.691541 -0.722337 0.356832 0.261747 -0.896749 0 0.280421 -0.959877 0.356832 -0.261747 -0.896749 0 -0.280421 -0.959877 0.35119 -0.645435 -0.678291 0 -0.691541 -0.722337 0.352625 -0.858873 -0.371475 0 -0.917759 -0.397138 0 -1 0 0.995499 0.07025 -0.063615 0.881482 -0.175217 -0.438507 0.974751 -0.223293 0 0.847514 -0.430491 -0.31048 0.831138 -0.556066 0 0.660168 -0.695008 -0.284853 0.633477 -0.773762 0 0.353316 -0.935504 0 0.660168 -0.695008 0.284853 0.352625 -0.858873 0.371475 0.35119 -0.645435 0.678291 0 -0.691541 0.722337 0.346752 -0.505091 0.790345 0 -0.538502 0.842624 -0.995499 0.07025 -0.063615 -0.859034 0.185541 -0.477111 -0.863567 0.399247 -0.307985 -0.641568 0.507708 -0.574999 -0.655991 0.696932 -0.289761 -0.352626 0.858873 -0.371474 -0.626114 0.779732 0 -0.353317 0.935504 0 -0.352626 0.858872 0.371475 0 0.917759 0.397138 -0.35119 0.645435 0.678291 0 0.691541 0.722337 -0.346752 0.505091 0.790345 0 0.538502 0.842624 -0.346752 -0.505091 0.790345 -0.35119 -0.645435 0.678291 0 -0.917759 0.397138 0.641567 -0.507708 -0.574999 0.62834 -0.21753 -0.746907 -0.35119 0.645435 -0.678291 0 0.917759 -0.397138 0 1 0 0.352626 0.858873 0.371475 0.35119 0.645435 0.678291 0.346752 0.505091 0.790345 -0.87466 -0.260444 0.408825 -0.847514 -0.430491 0.31048 -0.974751 -0.223293 0 -0.831138 -0.556066 0 -0.847514 -0.430491 -0.31048 -0.660168 -0.695008 -0.284853 -0.641567 -0.507708 -0.574999 -0.352625 -0.858872 -0.371475 -0.35119 -0.645435 -0.678291 -0.881482 -0.175217 -0.438507 -0.62834 -0.21753 -0.746907 -0.62834 0.21753 -0.746907 -0.356832 -0.261747 -0.896749 -0.356832 0.261747 -0.896749 -0.615884 -0.424252 0.663851 -0.641567 -0.507708 0.574999 -0.352625 -0.858873 0.371474 -0.353316 -0.935504 0 -0.660168 -0.695008 0.284853 -0.633476 -0.773762 0 0.863567 0.399247 -0.307985 0.859034 0.185541 -0.477111 0.641568 0.507708 -0.574999 0.62834 0.21753 -0.746907 0.874661 -0.260444 0.408825 0.847514 -0.430491 0.31048 -0.852859 0.366566 0.371834 -0.86525 0.493962 0.085698 -0.689411 0.50655 0.517802 -0.657837 0.693538 0.293694 0.641567 -0.507708 0.574999 -0.615884 0.424251 0.663851 0.615884 -0.424252 0.663851 0.615884 0.424252 0.66385</float_array>
					<technique_common>
						<accessor source="#polygon2_NormArr" count="92" stride="3">
							<param name="X" type="float" />
							<param name="Y" type="float" />
							<param name="Z" type="float" />
						</accessor>
					</technique_common>
				</source>
				<source id="polygon2_UVs0">
					<float_array id="polygon2_UVArr0" count="196">0.670105 0.5493774 0.6235962 0.7471008 0.7500305 0.6666565 0.6859131 0.7886963 0.74823 0.8303223 0.624115 0.9151611 0.8123474 0.7886963 0.7811584 0.8443604 0.9382324 0.7735596 1.000031 0.7999878 0.956604 0.5931091 1.000031 0.6000061 0.956604 0.4068909 1.000031 0.3999939 0.9382324 0.2264404 1.000031 0.2000122 0.7816162 0.1549072 0.7500305 0.1000061 0.5000305 0 0.7500305 0.5 0.8299255 0.4506226 0.7500305 0.4166565 0.789978 0.3919678 0.7500305 0.3333435 0.8132324 0.2097778 0.7500305 0.1666565 0.6250305 0.08334351 0.6867981 0.2097778 0.5934143 0.1549072 0.5617981 0.2264404 0.5000305 0.2000122 0.5434265 0.4068909 0.5000305 0.3999939 0.2500305 0.5 0.170105 0.5493774 0.2100525 0.6080322 0.1235962 0.7471008 0.1867981 0.7902222 0.2184143 0.8450928 0.2500305 0.8333435 0.375 0.9166565 0.4066162 0.8450928 0.5 0.8999939 0.4382324 0.7735596 0.5000305 0.7999878 0.456604 0.5931091 0.5000305 0.6000061 0.456604 0.4068909 0.4382324 0.2264404 0.5000305 0.1000061 0.8764343 0.2528992 0.9131775 0.4137573 0.0617981 0.7735596 0.25 0.8999939 0.5 1 0.5929565 0.8443604 0.5617981 0.7735596 0.5434265 0.5931091 0.3299255 0.4506226 0.289978 0.3919678 0.2500305 0.4166565 0.2500305 0.3333435 0.2100525 0.3919678 0.1867981 0.2097778 0.1235962 0.2528992 0.2184143 0.1549072 0.0617981 0.2264404 0.2500305 0.1000061 3.051758E-05 0.2000122 0.170105 0.4506226 0.08685303 0.4137573 0.08685303 0.5862427 0.04342651 0.4068909 0.04342651 0.5931091 3.051758E-05 0.3999939 3.051758E-05 0.6000061 0.4131775 0.4137573 0.3764343 0.2528992 0.4066162 0.1549072 0.3750305 0.08334351 0.3132324 0.2097778 0.2500305 0.1666565 0.789978 0.6080322 0.8299255 0.5493774 0.8764343 0.7471008 0.9131775 0.5862427 3.051758E-05 0.7999878 0.670105 0.4506226 0.7100525 0.3919678 0.3299255 0.5493774 0.2500305 0.6666565 0.3764343 0.7471008 0.3132324 0.7902222 0.6235962 0.2528992 0.75 0.8999939 0.4131775 0.5862427 0.586853 0.4137573 0.586853 0.5862427</float_array>
					<technique_common>
						<accessor source="#polygon2_UVArr0" count="98" stride="2">
							<param name="S" type="float" />
							<param name="T" type="float" />
						</accessor>
					</technique_common>
				</source>
				<vertices id="polygon2_Vertices">
					<input semantic="POSITION" source="#polygon2_Positions" />
				</vertices>
				<triangles material="body" count="166">
					<input semantic="VERTEX" source="#polygon2_Vertices" offset="0" />
					<input semantic="NORMAL" source="#polygon2_Normals" offset="1" />
					<input semantic="TEXCOORD" source="#polygon2_UVs0" set="0" offset="2" />
					<p>2 2 2 1 1 1 0 0 0 3 3 3 1 1 1 2 2 2 4 4 4 3 3 3 2 2 2 5 5 5 3 3 3 4 4 4 6 6 6 5 5 5 4 4 4 7 7 7 5 5 5 6 6 6 8 8 8 7 7 7 6 6 6 9 9 9 7 7 7 8 8 8 10 10 10 9 9 9 8 8 8 11 11 11 9 9 9 10 10 10 12 12 12 11 11 11 10 10 10 13 13 13 11 11 11 12 12 12 14 14 14 13 13 13 12 12 12 15 15 15 13 13 13 14 14 14 16 16 16 15 15 15 14 14 14 17 17 17 15 15 15 16 16 16 18 18 18 17 17 17 16 16 16 21 21 21 20 20 20 19 19 19 22 22 22 20 20 20 21 21 21 23 23 23 22 22 22 21 21 21 24 24 24 22 22 22 23 23 23 25 25 25 24 24 24 23 23 23 26 26 26 24 24 24 25 25 25 27 27 27 26 26 26 25 25 25 28 28 28 26 26 26 27 27 27 29 29 29 28 28 28 27 27 27 30 30 30 28 28 28 29 29 29 31 31 31 30 30 30 29 29 29 32 32 32 30 30 30 31 31 31 35 35 35 34 34 34 33 33 33 36 36 36 34 34 34 35 35 35 37 37 37 36 36 36 35 35 35 38 38 38 36 36 36 37 37 37 39 39 39 38 38 38 37 37 37 40 40 40 38 38 38 39 39 39 41 41 41 40 40 40 39 39 39 42 42 42 40 40 40 41 41 41 43 43 43 42 42 42 41 41 41 44 44 44 42 42 42 43 43 43 45 45 45 44 44 44 43 43 43 46 46 46 44 44 44 45 45 45 48 48 48 32 32 32 47 47 47 30 30 30 32 32 32 48 48 48 49 49 49 30 30 30 48 48 48 28 28 28 30 30 30 49 49 49 18 18 18 28 28 28 49 49 49 26 26 26 28 28 28 18 18 18 16 16 16 26 26 26 18 18 18 24 24 24 26 26 26 16 16 16 14 14 14 24 24 24 16 16 16 50 50 50 24 24 24 14 14 14 12 12 12 50 50 50 14 14 14 51 51 51 50 50 50 12 12 12 38 38 38 52 52 52 36 36 36 53 53 53 52 52 52 38 38 38 40 40 40 53 53 53 38 38 38 54 54 54 53 53 53 40 40 40 42 42 42 54 54 54 40 40 40 55 55 55 54 54 54 42 42 42 44 44 44 55 55 55 42 42 42 56 56 56 55 55 55 44 44 44 46 46 46 56 56 56 44 44 44 57 57 57 56 56 56 46 46 46 60 60 60 59 59 59 58 58 58 61 61 61 59 59 59 60 60 60 62 62 62 61 61 61 60 60 60 63 63 63 61 61 61 62 62 62 64 64 64 63 63 63 62 62 62 65 65 65 63 63 63 64 64 64 66 66 66 65 65 65 64 64 64 17 17 67 65 65 65 66 66 66 15 15 68 17 17 67 66 66 66 34 34 34 67 67 69 33 33 33 68 68 70 67 67 69 34 34 34 69 69 71 68 68 70 34 34 34 70 70 72 68 68 70 69 69 71 71 71 73 70 70 72 69 69 71 13 13 74 70 70 72 71 71 73 11 11 75 13 13 74 71 71 73 73 73 77 47 47 47 72 72 76 48 48 48 47 47 47 73 73 77 74 74 78 48 48 48 73 73 77 49 49 49 48 48 48 74 74 78 75 75 79 49 49 49 74 74 78 18 18 18 49 49 49 75 75 79 17 17 67 18 18 18 75 75 79 59 59 59 73 73 77 58 58 58 76 76 80 73 73 77 59 59 59 61 61 61 76 76 80 59 59 59 77 77 81 76 76 80 61 61 61 63 63 63 77 77 81 61 61 61 65 65 65 77 77 81 63 63 63 79 79 83 78 78 82 19 19 19 80 80 84 78 78 82 79 79 83 81 81 85 80 80 84 79 79 83 8 8 8 80 80 84 81 81 85 10 10 10 8 8 8 81 81 85 36 36 36 69 69 71 34 34 34 71 71 73 69 69 71 36 36 36 52 52 52 71 71 73 36 36 36 11 11 75 71 71 73 52 52 52 9 9 86 11 11 75 52 52 52 20 20 20 79 79 83 19 19 19 81 81 85 79 79 83 20 20 20 51 51 51 81 81 85 20 20 20 10 10 10 81 81 85 51 51 51 12 12 12 10 10 10 51 51 51 68 68 70 64 64 64 67 67 69 66 66 66 64 64 64 68 68 70 70 70 72 66 66 66 68 68 70 15 15 68 66 66 66 70 70 72 13 13 74 15 15 68 70 70 72 75 75 79 65 65 65 17 17 67 77 77 81 65 65 65 75 75 79 74 74 78 77 77 81 75 75 79 76 76 80 77 77 81 74 74 78 73 73 77 76 76 80 74 74 78 83 83 88 21 21 21 82 82 87 23 23 23 21 21 21 83 83 88 27 27 27 23 23 23 83 83 88 25 25 25 23 23 23 27 27 27 86 86 91 85 85 90 84 84 89 87 87 92 85 85 90 86 86 91 41 41 41 87 87 92 86 86 91 39 39 39 87 87 92 41 41 41 78 78 82 2 2 2 19 19 19 6 6 6 2 2 2 78 78 82 80 80 84 6 6 6 78 78 82 8 8 8 6 6 6 80 80 84 88 88 93 83 83 88 82 82 87 27 27 27 83 83 88 88 88 93 29 29 29 27 27 27 88 88 93 67 67 69 60 60 60 33 33 33 62 62 62 60 60 60 67 67 69 64 64 64 62 62 62 67 67 69 50 50 50 22 22 22 24 24 24 20 20 20 22 22 22 50 50 50 51 51 51 20 20 20 50 50 50 39 39 39 85 85 90 87 87 92 37 37 37 85 85 90 39 39 39 35 35 35 85 85 90 37 37 37 33 33 33 85 85 90 35 35 35 53 53 94 7 7 7 9 9 9 54 54 54 7 7 7 53 53 94 54 54 54 5 5 5 7 7 7 55 55 55 5 5 5 54 54 54 55 55 55 3 3 3 5 5 5 56 56 56 3 3 3 55 55 55 86 86 91 43 43 43 41 41 41 89 89 95 43 43 43 86 86 91 56 56 56 1 1 1 3 3 3 57 57 57 1 1 1 56 56 56 90 90 96 29 29 29 88 88 93 31 31 31 29 29 29 90 90 96 89 89 95 86 86 91 84 84 89 58 58 58 33 33 33 60 60 60 72 72 76 58 58 58 73 73 77 82 82 87 90 90 96 88 88 93 0 0 0 1 1 1 91 91 97 84 84 89 85 85 90 33 33 33 0 0 0 19 19 19 2 2 2 82 82 87 21 21 21 19 19 19 6 6 6 4 4 4 2 2 2 53 53 53 9 9 86 52 52 52 45 45 45 43 43 43 89 89 95 91 91 97 1 1 1 57 57 57</p>
				</triangles>
			</mesh>
		</geometry>
		<geometry id="polygon3" name="polygon3">
			<mesh>
				<source id="polygon3_Positions">
					<float_array id="polygon3_PosArr" count="201">-188.6955 54.35672 178.8843 -197.0918 60.90476 187.4455 -218.2505 -38.74654 117.0356 -249.9024 -44.58538 137.2197 -4E-06 84.07687 263.3889 -3E-06 89.17072 274.4393 -94.5052 -69.85979 212.7921 -108.2108 -80.21078 246.8633 188.6955 54.34587 178.8844 197.0918 60.90475 187.4455 94.50522 -69.85976 212.7921 108.2109 -80.21073 246.8633 -269.2325 22.29269 68.60986 -259.3948 19.26746 65.08051 249.9025 -44.5854 137.2197 218.2505 -38.74656 117.0356 259.3948 22.10762 65.0805 269.2325 22.29269 68.60985 285.5601 2E-06 4.7E-05 249.3919 0.19176 -2.80421 -108.2109 -80.21076 246.8634 -3E-06 -89.17077 274.4394 172.1288 53.38253 160.9 197.0918 60.90471 187.4456 239.2747 -36.82236 130.647 249.9025 -44.5854 137.2197 108.2109 -80.21073 246.8635 103.4947 -73.67701 236.1977 9E-06 78.06841 236.8755 1E-05 89.17072 274.4394 -108.2109 -80.21078 246.8634 -103.4947 -73.67703 236.1976 269.2325 22.29269 68.60989 235.1323 19.66097 57.11569 -172.1287 53.38253 160.9 -197.0918 60.90473 187.4456 -235.1323 19.66097 57.11569 -269.2325 22.29269 68.60986 -239.2747 -38.15986 130.647 -249.9024 -44.58538 137.2197 -285.56 0 4.7E-05 -249.3919 0.191758 -2.804215 -300.5895 0 -1.1E-05 300.5895 0 -1.1E-05 -263.0552 -46.93199 144.4417 263.0552 -46.93199 144.4417 189.4328 -71.92889 221.3744 -189.4328 -71.92889 221.3744 103.9523 87.22923 268.464 189.4328 71.92886 221.3744 -103.9523 87.22923 268.464 -189.4328 71.92886 221.3744 -263.0552 46.93197 144.4417 263.0552 46.93197 144.4417 103.9523 -87.22927 268.464 -103.9523 -87.22927 268.464 -2E-06 -77.68488 236.8754 -144.2812 77.22412 237.6713 249.9025 44.58535 137.2197 144.2812 77.22409 237.6714 -249.9024 44.58537 137.2197 126.007 67.63492 204.7644 -218.2505 39.13013 117.0355 -126.007 67.63492 204.7643 218.2506 39.1301 117.0356 0 93.86391 288.8834 0 -93.86395 288.8834</float_array>
					<technique_common>
						<accessor source="#polygon3_PosArr" count="67" stride="3">
							<param name="X" type="float" />
							<param name="Y" type="float" />
							<param name="Z" type="float" />
						</accessor>
					</technique_common>
				</source>
				<source id="polygon3_Normals">
					<float_array id="polygon3_NormArr" count="177">-0.47093 0.57357 -0.670256 -0.812597 0.553572 -0.182329 -0.67897 0.611433 0.406385 0.298957 0.733741 0.610122 0.678914 0.611413 0.40651 0.470819 0.573589 -0.670317 -0.264495 0.72523 0.635676 0.042276 0.951068 -0.306078 0.812597 0.553572 -0.18233 -0.246944 0 0.96903 0 0 1 -0.555148 -0.583895 0.592349 0.626698 -0.611037 -0.483615 -0.822084 -0.553654 0.132835 0.822085 -0.553653 0.132834 0.170271 -0.753141 -0.635442 -0.626698 -0.611037 -0.483615 -0.193199 -0.747702 -0.635308 0.545558 -0.579453 0.605476 0.018882 0.956598 -0.290798 0 0.951057 0.309017 0 0.951056 0.309017 0 -0.951056 0.309017 0 -0.951057 0.309017 0 0.161747 -0.986832 -0.256043 0.156355 -0.953937 -0.666963 -0.109781 0.736959 -0.471458 -0.056632 0.880068 0.962528 0 0.271181 0.856395 0 0.516321 0.246943 0 0.96903 0.471458 -0.056633 0.880068 0.689152 0 0.724617 -0.856395 0 0.516321 -0.689152 0 0.724617 -0.696159 -0.048418 -0.716253 -0.492872 -0.113376 -0.862684 0.85336 -0.306406 -0.421772 0.94239 -0.286698 -0.172354 0.704148 -0.304504 -0.641446 -0.845673 0.531627 -0.047019 -0.630536 0.280604 -0.723662 0.492872 -0.113375 -0.862684 0.696158 -0.048418 -0.716254 0.82949 0.55746 -0.03442 0.630536 0.280577 -0.723671 0.256043 0.156355 -0.953937 0.969872 -0.032657 0.241418 0.620469 -0.061613 0.781807 0.246944 0 0.96903 -0.969872 -0.032656 0.241418 -0.620469 -0.061613 0.781807 0.25657 -0.170738 -0.951326 -0.852574 -0.311234 -0.419822 -0.941342 -0.291146 -0.170614 -0.256569 -0.170738 -0.951326 -0.703796 -0.309416 -0.639479 0.666964 -0.109782 0.736958 -0.962528 0 0.271182</float_array>
					<technique_common>
						<accessor source="#polygon3_NormArr" count="59" stride="3">
							<param name="X" type="float" />
							<param name="Y" type="float" />
							<param name="Z" type="float" />
						</accessor>
					</technique_common>
				</source>
				<source id="polygon3_UVs0">
					<float_array id="polygon3_UVArr0" count="52">0.498291 0.027771 0 0.362793 1 0.362793 0.999939 0.362854 0.5 0.362793 0 0.3633423 1 0.3633423 -0.01239014 0.9915161 0.9958496 0.9915161 0.04797363 0.7501831 0.9354858 0.7501831 0.7479248 0.5580444 0.2355347 0.5580444 0.6226807 0.526001 0.7507324 0.5580444 0.3664551 0.526001 0.2383423 0.5580444 0.619812 0.526001 0.3636475 0.526001 0.8943481 0.01696777 0.9943237 0.01696777 0.8943481 0.3169556 0.5999756 0.3633423 0.7943726 0.01696777 0.4945679 0.4939575 0.4917603 0.4939575</float_array>
					<technique_common>
						<accessor source="#polygon3_UVArr0" count="26" stride="2">
							<param name="S" type="float" />
							<param name="T" type="float" />
						</accessor>
					</technique_common>
				</source>
				<vertices id="polygon3_Vertices">
					<input semantic="POSITION" source="#polygon3_Positions" />
				</vertices>
				<triangles material="mouth" count="79">
					<input semantic="VERTEX" source="#polygon3_Vertices" offset="0" />
					<input semantic="NORMAL" source="#polygon3_Normals" offset="1" />
					<input semantic="TEXCOORD" source="#polygon3_UVs0" set="0" offset="2" />
					<p>2 0 1 1 0 0 0 0 0 3 0 1 1 0 0 2 0 1 6 1 2 5 1 0 4 1 0 7 1 2 5 1 0 6 1 2 10 2 3 9 2 0 8 2 0 11 2 3 9 2 0 10 2 3 3 3 3 13 3 0 12 3 0 2 3 3 13 3 0 3 3 3 7 4 3 0 4 0 1 4 0 6 4 3 0 4 0 7 4 3 14 5 1 8 5 0 9 5 0 15 5 1 8 5 0 14 5 1 15 6 3 17 6 0 16 6 0 14 6 3 17 6 0 15 6 3 18 7 1 16 7 0 17 7 0 19 7 1 16 7 0 18 7 1 11 8 1 4 8 0 5 8 0 10 8 1 4 8 0 11 8 1 21 10 4 7 9 2 20 9 2 5 10 0 7 9 2 21 10 4 24 11 0 23 11 5 22 11 5 25 11 0 23 11 5 24 11 0 26 12 0 22 12 6 23 12 6 27 12 0 22 12 6 26 12 0 27 13 0 29 13 5 28 13 5 26 13 0 29 13 5 27 13 0 30 14 0 28 14 5 29 14 5 31 14 0 28 14 5 30 14 0 25 15 0 33 15 6 32 15 6 24 15 0 33 15 6 25 15 0 31 16 0 35 16 6 34 16 6 30 16 0 35 16 6 31 16 0 38 17 0 37 17 6 36 17 6 39 17 0 37 17 6 38 17 0 39 18 0 34 18 5 35 18 5 38 18 0 34 18 5 39 18 0 12 19 0 41 19 1 40 19 1 13 19 0 41 19 1 12 19 0 44 20 9 43 10 8 42 10 7 45 20 10 43 10 8 44 20 9 44 20 9 46 21 11 45 20 10 47 21 12 46 21 11 44 20 9 50 22 15 49 23 14 48 22 13 51 23 16 49 23 14 50 22 15 52 23 9 49 23 14 51 23 16 53 23 10 49 23 14 52 23 9 42 10 7 53 23 10 52 23 9 43 10 8 53 23 10 42 10 7 47 21 12 54 20 17 46 21 11 55 20 18 54 20 17 47 21 12 4 24 21 10 25 20 56 24 19 30 27 0 57 27 22 35 26 6 30 27 0 29 9 5 57 27 22 58 29 22 25 29 0 32 28 6 26 31 0 59 31 22 29 30 5 25 29 0 58 29 22 23 32 5 39 33 0 35 34 5 60 33 22 27 36 21 61 36 19 22 35 20 38 37 21 36 38 20 62 37 19 38 37 21 62 37 19 34 39 23 16 40 21 19 40 20 15 40 23 15 41 20 10 41 23 8 41 21 31 42 21 34 43 23 63 42 19 2 44 23 41 44 20 13 44 21 6 45 20 2 45 23 0 45 21 6 46 23 4 24 21 56 24 19 17 47 0 14 47 3 18 47 1 14 48 1 9 48 0 11 48 3 5 10 0 21 10 4 11 49 1 3 50 3 12 50 0 40 50 1 7 51 3 1 51 0 3 51 1 31 42 21 63 42 19 28 52 20 64 53 19 33 54 20 24 53 21 27 36 21 28 55 23 61 36 19 24 53 21 22 56 23 64 53 19 65 23 24 50 22 15 48 22 13 54 20 17 55 20 18 66 20 25 26 31 0 23 57 6 59 31 22 39 33 0 60 33 22 37 58 6</p>
				</triangles>
			</mesh>
		</geometry>
	</library_geometries>
	<library_controllers>
		<controller id="polygon0_Controller">
			<skin source="#polygon0">
				<bind_shape_matrix>1 0 0 0 0 1 0 0 0 0 1 0 0 0 0 1</bind_shape_matrix>
				<source id="polygon0_Joints">
					<Name_array id="polygon0_JointArr" count="2">wanwan pos_chn</Name_array>
					<technique_common>
						<accessor source="#polygon0_JointArr" count="2">
							<param name="JOINT" type="Name" />
						</accessor>
					</technique_common>
				</source>
				<source id="polygon0_Matrices">
					<float_array id="polygon0_MatArr" count="32">1 0 0 0 0 1 0 0 0 0 1 0 0 0 0 1 1 0 0 0 0 1 0 0 0 0 1 337.5 0 0 0 1</float_array>
					<technique_common>
						<accessor source="#polygon0_MatArr" count="2" stride="16">
							<param type="float4x4" />
						</accessor>
					</technique_common>
				</source>
				<source id="polygon0_Weights">
					<float_array id="polygon0_WeightArr" count="1">1</float_array>
					<technique_common>
						<accessor source="#polygon0_WeightArr" count="1">
							<param type="float" />
						</accessor>
					</technique_common>
				</source>
				<joints>
					<input semantic="JOINT" source="#polygon0_Joints" />
					<input semantic="INV_BIND_MATRIX" source="#polygon0_Matrices" />
				</joints>
				<vertex_weights count="17">
					<input semantic="JOINT" offset="0" source="#polygon0_Joints" />
					<input semantic="WEIGHT" offset="1" source="#polygon0_Weights" />
					<vcount>1 1 1 1 1 1 1 1 1 1 1 1 1 1 1 1 1</vcount>
					<v>0 0 0 0 0 0 0 0 0 0 0 0 0 0 0 0 0 0 0 0 0 0 0 0 0 0 0 0 0 0 0 0 0 0</v>
				</vertex_weights>
			</skin>
		</controller>
		<controller id="polygon1_Controller">
			<skin source="#polygon1">
				<bind_shape_matrix>1 0 0 0 0 1 0 0 0 0 1 0 0 0 0 1</bind_shape_matrix>
				<source id="polygon1_Joints">
					<Name_array id="polygon1_JointArr" count="2">wanwan pos_chn</Name_array>
					<technique_common>
						<accessor source="#polygon1_JointArr" count="2">
							<param name="JOINT" type="Name" />
						</accessor>
					</technique_common>
				</source>
				<source id="polygon1_Matrices">
					<float_array id="polygon1_MatArr" count="32">1 0 0 0 0 1 0 0 0 0 1 0 0 0 0 1 1 0 0 0 0 1 0 0 0 0 1 337.5 0 0 0 1</float_array>
					<technique_common>
						<accessor source="#polygon1_MatArr" count="2" stride="16">
							<param type="float4x4" />
						</accessor>
					</technique_common>
				</source>
				<source id="polygon1_Weights">
					<float_array id="polygon1_WeightArr" count="1">1</float_array>
					<technique_common>
						<accessor source="#polygon1_WeightArr" count="1">
							<param type="float" />
						</accessor>
					</technique_common>
				</source>
				<joints>
					<input semantic="JOINT" source="#polygon1_Joints" />
					<input semantic="INV_BIND_MATRIX" source="#polygon1_Matrices" />
				</joints>
				<vertex_weights count="6">
					<input semantic="JOINT" offset="0" source="#polygon1_Joints" />
					<input semantic="WEIGHT" offset="1" source="#polygon1_Weights" />
					<vcount>1 1 1 1 1 1</vcount>
					<v>0 0 0 0 0 0 0 0 0 0 0 0</v>
				</vertex_weights>
			</skin>
		</controller>
		<controller id="polygon2_Controller">
			<skin source="#polygon2">
				<bind_shape_matrix>1 0 0 0 0 1 0 0 0 0 1 0 0 0 0 1</bind_shape_matrix>
				<source id="polygon2_Joints">
					<Name_array id="polygon2_JointArr" count="2">wanwan pos_chn</Name_array>
					<technique_common>
						<accessor source="#polygon2_JointArr" count="2">
							<param name="JOINT" type="Name" />
						</accessor>
					</technique_common>
				</source>
				<source id="polygon2_Matrices">
					<float_array id="polygon2_MatArr" count="32">1 0 0 0 0 1 0 0 0 0 1 0 0 0 0 1 1 0 0 0 0 1 0 0 0 0 1 337.5 0 0 0 1</float_array>
					<technique_common>
						<accessor source="#polygon2_MatArr" count="2" stride="16">
							<param type="float4x4" />
						</accessor>
					</technique_common>
				</source>
				<source id="polygon2_Weights">
					<float_array id="polygon2_WeightArr" count="1">1</float_array>
					<technique_common>
						<accessor source="#polygon2_WeightArr" count="1">
							<param type="float" />
						</accessor>
					</technique_common>
				</source>
				<joints>
					<input semantic="JOINT" source="#polygon2_Joints" />
					<input semantic="INV_BIND_MATRIX" source="#polygon2_Matrices" />
				</joints>
				<vertex_weights count="92">
					<input semantic="JOINT" offset="0" source="#polygon2_Joints" />
					<input semantic="WEIGHT" offset="1" source="#polygon2_Weights" />
					<vcount>1 1 1 1 1 1 1 1 1 1 1 1 1 1 1 1 1 1 1 1 1 1 1 1 1 1 1 1 1 1 1 1 1 1 1 1 1 1 1 1 1 1 1 1 1 1 1 1 1 1 1 1 1 1 1 1 1 1 1 1 1 1 1 1 1 1 1 1 1 1 1 1 1 1 1 1 1 1 1 1 1 1 1 1 1 1 1 1 1 1 1 1</vcount>
					<v>0 0 0 0 0 0 0 0 0 0 0 0 0 0 0 0 0 0 0 0 0 0 0 0 0 0 0 0 0 0 0 0 0 0 0 0 0 0 0 0 0 0 0 0 0 0 0 0 0 0 0 0 0 0 0 0 0 0 0 0 0 0 0 0 0 0 0 0 0 0 0 0 0 0 0 0 0 0 0 0 0 0 0 0 0 0 0 0 0 0 0 0 0 0 0 0 0 0 0 0 0 0 0 0 0 0 0 0 0 0 0 0 0 0 0 0 0 0 0 0 0 0 0 0 0 0 0 0 0 0 0 0 0 0 0 0 0 0 0 0 0 0 0 0 0 0 0 0 0 0 0 0 0 0 0 0 0 0 0 0 0 0 0 0 0 0 0 0 0 0 0 0 0 0 0 0 0 0 0 0 0 0 0 0</v>
				</vertex_weights>
			</skin>
		</controller>
		<controller id="polygon3_Controller">
			<skin source="#polygon3">
				<bind_shape_matrix>1 0 0 0 0 1 0 0 0 0 1 0 0 0 0 1</bind_shape_matrix>
				<source id="polygon3_Joints">
					<Name_array id="polygon3_JointArr" count="2">wanwan pos_chn</Name_array>
					<technique_common>
						<accessor source="#polygon3_JointArr" count="2">
							<param name="JOINT" type="Name" />
						</accessor>
					</technique_common>
				</source>
				<source id="polygon3_Matrices">
					<float_array id="polygon3_MatArr" count="32">1 0 0 0 0 1 0 0 0 0 1 0 0 0 0 1 1 0 0 0 0 1 0 0 0 0 1 337.5 0 0 0 1</float_array>
					<technique_common>
						<accessor source="#polygon3_MatArr" count="2" stride="16">
							<param type="float4x4" />
						</accessor>
					</technique_common>
				</source>
				<source id="polygon3_Weights">
					<float_array id="polygon3_WeightArr" count="1">1</float_array>
					<technique_common>
						<accessor source="#polygon3_WeightArr" count="1">
							<param type="float" />
						</accessor>
					</technique_common>
				</source>
				<joints>
					<input semantic="JOINT" source="#polygon3_Joints" />
					<input semantic="INV_BIND_MATRIX" source="#polygon3_Matrices" />
				</joints>
				<vertex_weights count="67">
					<input semantic="JOINT" offset="0" source="#polygon3_Joints" />
					<input semantic="WEIGHT" offset="1" source="#polygon3_Weights" />
					<vcount>1 1 1 1 1 1 1 1 1 1 1 1 1 1 1 1 1 1 1 1 1 1 1 1 1 1 1 1 1 1 1 1 1 1 1 1 1 1 1 1 1 1 1 1 1 1 1 1 1 1 1 1 1 1 1 1 1 1 1 1 1 1 1 1 1 1 1</vcount>
					<v>0 0 0 0 0 0 0 0 0 0 0 0 0 0 0 0 0 0 0 0 0 0 0 0 0 0 0 0 0 0 0 0 0 0 0 0 0 0 0 0 0 0 0 0 0 0 0 0 0 0 0 0 0 0 0 0 0 0 0 0 0 0 0 0 0 0 0 0 0 0 0 0 0 0 0 0 0 0 0 0 0 0 0 0 0 0 0 0 0 0 0 0 0 0 0 0 0 0 0 0 0 0 0 0 0 0 0 0 0 0 0 0 0 0 0 0 0 0 0 0 0 0 0 0 0 0 0 0 0 0 0 0 0 0</v>
				</vertex_weights>
			</skin>
		</controller>
	</library_controllers>
	<library_visual_scenes>
		<visual_scene id="RootNode" name="RootNode">
			<node id="wanwan" name="wanwan" sid="wanwan" type="JOINT">
				<node id="pos_chn" name="pos_chn" sid="pos_chn" type="JOINT">
					<translate>0 0 -337.5</translate>
				</node>
			</node>
			<node id="polygon0" name="polygon0" type="NODE">
				<instance_controller url="#polygon0_Controller">
					<skeleton>#wanwan</skeleton>
					<bind_material>
						<technique_common>
							<instance_material symbol="chain" target="#chain">
								<bind_vertex_input semantic="TEXCOORD0" input_semantic="TEXCOORD" input_set="0" />
							</instance_material>
						</technique_common>
					</bind_material>
				</instance_controller>
			</node>
			<node id="polygon1" name="polygon1" type="NODE">
				<instance_controller url="#polygon1_Controller">
					<skeleton>#wanwan</skeleton>
					<bind_material>
						<technique_common>
							<instance_material symbol="eye" target="#eye">
								<bind_vertex_input semantic="TEXCOORD0" input_semantic="TEXCOORD" input_set="0" />
							</instance_material>
						</technique_common>
					</bind_material>
				</instance_controller>
			</node>
			<node id="polygon2" name="polygon2" type="NODE">
				<instance_controller url="#polygon2_Controller">
					<skeleton>#wanwan</skeleton>
					<bind_material>
						<technique_common>
							<instance_material symbol="body" target="#body">
								<bind_vertex_input semantic="TEXCOORD0" input_semantic="TEXCOORD" input_set="0" />
							</instance_material>
						</technique_common>
					</bind_material>
				</instance_controller>
			</node>
			<node id="polygon3" name="polygon3" type="NODE">
				<instance_controller url="#polygon3_Controller">
					<skeleton>#wanwan</skeleton>
					<bind_material>
						<technique_common>
							<instance_material symbol="mouth" target="#mouth">
								<bind_vertex_input semantic="TEXCOORD0" input_semantic="TEXCOORD" input_set="0" />
							</instance_material>
						</technique_common>
					</bind_material>
				</instance_controller>
			</node>
		</visual_scene>
	</library_visual_scenes>
	<scene>
		<instance_visual_scene url="#RootNode" />
	</scene>
</COLLADA>