<?xml version="1.0"?>
<COLLADA xmlns="http://www.collada.org/2005/11/COLLADASchema" version="1.4.1">
    <asset>
        <contributor>
            <authoring_tool>CINEMA4D 15.064 COLLADA Exporter</authoring_tool>
        </contributor>
        <created>2019-11-30T16:16:08Z</created>
        <modified>2019-11-30T16:16:08Z</modified>
        <unit meter="0.01" name="centimeter"/>
        <up_axis>Y_UP</up_axis>
    </asset>
    <library_images>
        <image id="ID5">
            <init_from>th_sky_fix.png</init_from>
        </image>
    </library_images>
    <library_effects>
        <effect id="ID4">
            <profile_COMMON>
                <newparam sid="ID6">
                    <surface type="2D">
                        <init_from>ID5</init_from>
                    </surface>
                </newparam>
                <newparam sid="ID7">
                    <sampler2D>
                        <source>ID6</source>
                    </sampler2D>
                </newparam>
                <technique sid="COMMON">
                    <blinn>
                        <diffuse>
                            <texture texture="ID7" texcoord="UVSET0"/>
                        </diffuse>
                    </blinn>
                </technique>
            </profile_COMMON>
        </effect>
    </library_effects>
    <library_materials>
        <material id="ID3" name="sky_m">
            <instance_effect url="#ID4"/>
        </material>
    </library_materials>
    <library_geometries>
        <geometry id="ID12">
            <mesh>
                <source id="ID13">
                    <float_array id="ID14" count="486">-88426.8 -7083.06 -173547 -93962.3 -62046 -129328 -137729 -7082.93 -137730 -129328 -62046 -93962.3 -173547 -7083.03 -88426.5 -152034 -62046 -49398.9 -192379 -7083.03 -30469.8 -159858 -62046 -0.028539 -192379 -7083.03 30469.8 -152034 -62046 49398.9 -173547 -7083.03 88426.8 -129328 -62046 93962.3 -137727 -7082.99 137727 -93962.4 -62046 129328 -88426.8 -7083.04 173547 -49399 -62046 152034 -30469.9 -7083.03 192379 -0.053591 -62046 159858 30469.8 -7083.04 192379 49398.8 -62046 152034 88426.8 -7083.03 173547 93962.2 -62046 129328 137728 -7083.01 137728 129328 -62046 93962.3 173547 -7083.03 88426.5 152034 -62046 49398.9 192379 -7083.03 30469.8 159858 -62046 -0.026681 192379 -7083.03 -30469.7 152034 -62046 -49398.9 173548 -7083.02 -88427.4 129328 -62046 -93962.4 137728 -7083.06 -137728 93962.3 -62046 -129328 88426.9 -7083.02 -173548 49398.8 -62046 -152034 30469.7 -7083.04 -192379 -0.079367 -62046 -159858 -30469.8 -7083.04 -192379 -62949.1 -104863 -62949 -79320.4 -104863 -40415.8 -87927.3 -104863 -13926.4 -87927.3 -104863 13926.3 -79320.4 -104863 40415.7 -62949 -104863 62948.9 -40415.8 -104863 79320.3 -13926.4 -104863 87927.2 13926.2 -104863 87927.2 40415.6 -104863 79320.3 62948.9 -104863 62948.9 79320.2 -104863 40415.7 87927.1 -104863 13926.3 87927.1 -104863 -13926.3 79320.2 -104863 -40415.8 62948.9 -104863 -62949 40415.6 -104863 -79320.3 13926.2 -104863 -87927.3 -13926.4 -104863 -87927.3 -0.05523 137943 -0.030266 -13926.4 122116 -87927.3 -40415.8 122116 -79320.3 -49399 79299.1 -152034 -93962.3 79299.1 -129328 -88426.8 24336.2 -173547 -137729 24336 -137730 -99743.7 8626.55 -167030 -128035 8626.56 -146480 -146479 8626.56 -128035 -167028 8626.55 -99742.9 -178871 8626.55 -76501.8 -173547 24336.1 -88426.5 -192379 24336.1 -30469.8 -152034 79299.1 -49398.9 -159858 79299.1 -0.028539 -87927.3 122116 -13926.4 -87927.3 122116 13926.3 -79320.4 122116 40415.7 -62949 122116 62948.9 -129328 79299.1 93962.3 -93962.4 79299.1 129328 -137727 24336.1 137727 -88426.8 24336.2 173547 -128031 8626.55 146476 -99743.8 8626.55 167030 -76501.8 8626.55 178872 -43246.7 8626.55 189677 -17483.1 8626.55 193758 -30469.9 24336.1 192379 30469.8 24336.2 192379 -0.053591 79299.1 159858 49398.8 79299.1 152034 13926.2 122116 87927.2 40415.6 122116 79320.3 62948.9 122116 62948.9 93962.2 79299.1 129328 129328 79299.1 93962.3 137728 24336.1 137728 173547 24336.1 88426.5 146479 8626.56 128035 167029 8626.56 99742.9 178872 8626.55 76501.8 189677 8626.55 43246.9 193758 8626.56 17483.3 192379 24336.1 30469.8 192379 24336.1 -30469.7 159858 79299.1 -0.026681 152034 79299.1 -49398.9 87927.1 122116 -13926.3 79320.2 122116 -40415.8 62948.9 122116 -62949 40415.6 122116 -79320.3 93962.3 79299.1 -129328 49398.8 79299.1 -152034 88426.9 24336.1 -173548 30469.7 24336.2 -192379 76502.2 8626.56 -178872 43247.1 8626.56 -189677 17483.5 8626.55 -193758 -17483.1 8626.55 -193758 -152034 79299.1 49398.9 -173547 24336.1 88426.8 -167031 8626.56 99744.6 -146476 8626.56 128032 129328 79299.1 -93962.4 137728 24336.2 -137728 128031 8626.56 -146476 99744.1 8626.55 -167030 88426.8 24336.1 173547 99744 8626.55 167030 128035 8626.56 146480 -192379 24336.1 30469.8 -189677 8626.55 43246.9 -178873 8626.55 76502.6 -0.079367 79299.1 -159858 -30469.8 24336.2 -192379 -43246.8 8626.56 -189677 -76501.8 8626.56 -178872 -49399 -62046 -152034 -40415.8 -104863 -79320.3 -0.05523 -120690 -0.030266 173548 24336.1 -88427.4 167032 8626.55 -99744.6 146476 8626.55 -128032 -129328 79299.1 -93962.3 -79320.4 122116 -40415.8 -49399 79299.1 152034 -13926.4 122116 87927.2 152034 79299.1 49398.9 87927.1 122116 13926.3 43247.2 8626.56 189678 76502.2 8626.56 178872 -193758 8626.55 -17483.3 -193757 8626.56 17483.3 189677 8626.56 -43246.8 178873 8626.56 -76502.6 -62949.1 122116 -62949 -40415.8 122116 79320.3 13926.2 122116 -87927.3 79320.2 122116 40415.7 17483.5 8626.55 193758 -189677 8626.56 -43246.8 193758 8626.56 -17483.3</float_array>
                    <technique_common>
                        <accessor count="162" source="#ID14" stride="3">
                            <param name="X" type="float"/>
                            <param name="Y" type="float"/>
                            <param name="Z" type="float"/>
                        </accessor>
                    </technique_common>
                </source>
                <source id="ID15">
                    <float_array id="ID16" count="486">0.416746 0.266893 0.868959 0.409207 0.717855 0.563235 0.664861 0.266957 0.697634 0.563237 0.717854 0.409207 0.847937 0.266873 0.458018 0.662124 0.717849 0.215138 0.947962 0.266891 0.173603 0.696197 0.717851 2.28952e-007 0.955212 0.266885 -0.127837 0.662122 0.717851 -0.215136 0.868946 0.266937 -0.416747 0.563236 0.717848 -0.409218 0.697628 0.266891 -0.664894 0.409218 0.717848 -0.563236 0.458045 0.266904 -0.847913 0.215137 0.717851 -0.662122 0.173598 0.2669 -0.94796 -5.46159e-007 0.717851 -0.696196 -0.127835 0.266905 -0.955207 -0.215137 0.717852 -0.662122 -0.416753 0.266902 -0.868954 -0.409213 0.717852 -0.563235 -0.664853 0.267006 -0.697623 -0.563237 0.71785 -0.409213 -0.847926 0.266903 -0.458022 -0.662123 0.71785 -0.215139 -0.947957 0.266908 -0.173601 -0.696197 0.717851 3.32556e-007 -0.955207 0.266905 0.127832 -0.662121 0.717853 0.215133 -0.86895 0.26693 0.416742 -0.563232 0.717853 0.409214 -0.697632 0.266864 0.664901 -0.409213 0.717852 0.563235 -0.458041 0.266891 0.847919 -0.215136 0.717852 0.662122 -0.173597 0.266898 0.947961 -1.24069e-007 0.717851 0.696196 0.127836 0.266899 0.955208 0.271751 0.923202 0.271751 0.342426 0.923202 0.174475 0.379583 0.923202 0.0601198 0.379582 0.923202 -0.0601199 0.342426 0.923202 -0.174475 0.271751 0.923202 -0.271751 0.174475 0.923202 -0.342426 0.0601198 0.923202 -0.379582 -0.0601202 0.923202 -0.379582 -0.174475 0.923202 -0.342426 -0.271751 0.923202 -0.271751 -0.342426 0.923202 -0.174475 -0.379582 0.923202 -0.06012 -0.379582 0.923202 0.06012 -0.342427 0.923202 0.174474 -0.271751 0.923202 0.271751 -0.174475 0.923202 0.342426 -0.0601202 0.923202 0.379582 0.06012 0.923202 0.379582 -3.29309e-008 -1 -6.05626e-009 0.0601201 -0.923202 0.379582 0.174475 -0.923202 0.342426 0.215137 -0.717851 0.662122 0.409207 -0.717855 0.563235 0.416746 -0.266893 0.868959 0.664861 -0.266957 0.697634 0.544548 -1.93556e-008 0.83873 0.649507 -2.52836e-008 0.760356 0.777155 2.49749e-009 0.629309 0.852726 5.61844e-009 0.522359 0.933553 -2.37262e-008 0.35844 0.847938 -0.266873 0.458018 0.947962 -0.266891 0.173603 0.662124 -0.717849 0.215138 0.696197 -0.717851 2.50026e-007 0.379582 -0.923202 0.0601197 0.379582 -0.923202 -0.0601199 0.342426 -0.923203 -0.174475 0.271751 -0.923202 -0.271751 0.563236 -0.717848 -0.409218 0.409218 -0.717848 -0.563236 0.697628 -0.266891 -0.664894 0.458045 -0.266904 -0.847913 0.629375 1.37362e-008 -0.777101 0.522417 1.77921e-008 -0.85269 0.358414 1.99799e-008 -0.933563 0.233337 1.87284e-008 -0.972396 0.0523897 4.99498e-009 -0.998627 0.173598 -0.2669 -0.94796 -0.127835 -0.266905 -0.955207 -5.67904e-007 -0.717851 -0.696196 -0.215137 -0.717852 -0.662122 -0.0601203 -0.923202 -0.379582 -0.174475 -0.923202 -0.342426 -0.271751 -0.923202 -0.271751 -0.409213 -0.717852 -0.563235 -0.563237 -0.71785 -0.409213 -0.664853 -0.267006 -0.697623 -0.847926 -0.266903 -0.458022 -0.777149 -3.49649e-008 -0.629317 -0.852725 -2.34102e-008 -0.52236 -0.933553 7.49248e-009 -0.35844 -0.972395 5.61853e-009 -0.233342 -0.998627 -2.49749e-008 -0.0523885 -0.947957 -0.266908 -0.173601 -0.955207 -0.266905 0.127832 -0.696197 -0.717851 3.47609e-007 -0.662121 -0.717853 0.215133 -0.379582 -0.923202 0.06012 -0.342426 -0.923202 0.174474 -0.271751 -0.923203 0.271751 -0.174474 -0.923202 0.342426 -0.409213 -0.717852 0.563235 -0.215136 -0.717852 0.662122 -0.458041 -0.266891 0.84792 -0.173597 -0.266898 0.947961 -0.358412 -1.18631e-008 0.933564 -0.233337 -5.61853e-009 0.972396 -0.0523897 3.74623e-009 0.998627 0.0785707 1.87284e-009 0.996909 0.662122 -0.717851 -0.215136 0.868946 -0.266937 -0.416747 0.838688 -1.18631e-008 -0.544613 0.760292 -1.49827e-008 -0.649581 -0.563232 -0.717853 0.409214 -0.697632 -0.266864 0.664901 -0.629371 -2.1853e-008 0.777105 -0.522417 5.61857e-009 0.85269 -0.416753 -0.266902 -0.868954 -0.544558 -1.99801e-008 -0.838723 -0.649508 -2.99659e-008 -0.760355 0.955212 -0.266885 -0.127837 0.965943 1.37362e-008 -0.258754 0.923848 1.03006e-008 -0.38276 -6.26741e-008 -0.717851 0.696197 0.127836 -0.266899 0.955208 0.25877 -2.49749e-008 0.965939 0.382786 -3.09018e-008 0.923837 0.215137 0.717851 0.662122 0.174475 0.923202 0.342426 -3.87979e-008 1 -5.29922e-009 -0.86895 -0.26693 0.416742 -0.838688 7.49247e-009 0.544612 -0.760293 1.59191e-008 0.64958 0.563237 -0.717854 0.409207 0.342426 -0.923202 0.174474 0.215137 -0.717851 -0.662122 0.0601198 -0.923202 -0.379582 -0.662123 -0.71785 -0.215139 -0.379582 -0.923202 -0.06012 -0.25877 -1.12387e-008 -0.965939 -0.382788 -1.59191e-008 -0.923836 0.998627 -1.6858e-008 0.05239 0.996908 -2.15376e-008 -0.0785755 -0.965945 -2.18531e-008 0.258748 -0.923847 -1.68556e-008 0.382762 0.271751 -0.923202 0.271751 0.174475 -0.923202 -0.342426 -0.0601202 -0.923202 0.379582 -0.342426 -0.923202 -0.174475 -0.078571 -9.3642e-010 -0.996908 0.972394 -2.34105e-008 0.233344 -0.996908 -1.03006e-008 0.078574</float_array>
                    <technique_common>
                        <accessor count="162" source="#ID16" stride="3">
                            <param name="X" type="float"/>
                            <param name="Y" type="float"/>
                            <param name="Z" type="float"/>
                        </accessor>
                    </technique_common>
                </source>
                <source id="ID17">
                    <float_array id="ID18" count="248">0.417358 0.545654 0.513062 0.687988 0.612183 0.541443 0.716675 0.690796 0.806519 0.550781 0.906372 0.687988 1.01685 0.541443 1.12219 0.689453 1.20203 0.542664 1.30115 0.687988 1.38892 0.538757 1.48535 0.68811 1.57593 0.546753 1.67468 0.690735 1.75794 0.541443 1.88818 0.692139 2.00476 0.550781 2.0957 0.689392 2.19202 0.544189 2.32153 0.690796 2.3999 0.557678 2.51257 0.687988 2.6145 0.541443 2.71362 0.690796 2.80359 0.552673 2.91186 0.691833 2.9967 0.541443 3.11304 0.690796 3.21997 0.549622 3.32605 0.687988 3.40857 0.541443 3.51477 0.692139 3.61584 0.548096 3.70276 0.690735 3.79773 0.537231 3.90295 0.690796 4.00183 0.550781 4.08606 0.687988 4.1831 0.541443 0.606812 0.893555 0.806519 0.901367 1.03003 0.901367 1.22583 0.893555 1.40002 0.901367 1.57434 0.901367 1.80505 0.893555 2.00476 0.901367 2.20447 0.901367 2.40418 0.893555 2.60388 0.901367 2.80359 0.901367 3.0033 0.893555 3.203 0.901367 3.40271 0.901367 3.60242 0.893555 3.80212 0.901367 4.00183 0.893555 4.18835 0.901367 0.307129 0.988098 0.190796 0.901367 0.407104 0.901367 0.299194 0.68811 0.45813 0.483398 0.569946 0.481018 0.655029 0.481018 0.766479 0.486389 0.848999 0.486389 1.12598 0.988098 1.48547 0.988098 1.61706 0.48407 1.72144 0.481018 1.82056 0.481018 1.96216 0.486389 2.04736 0.486389 2.3042 0.988098 2.50391 0.988098 2.65259 0.481018 2.76099 0.487427 2.84619 0.487427 2.95691 0.481018 3.04211 0.481018 3.30286 0.988098 3.70227 0.988098 3.84216 0.478577 3.95935 0.486389 4.04443 0.486389 4.14002 0.481018 1.30566 0.988098 1.42676 0.479431 1.53406 0.48407 3.50256 0.988098 3.65271 0.484802 3.75708 0.478577 2.44788 0.490295 2.57104 0.481018 1.24927 0.481689 1.35657 0.479431 0.0838623 0.687988 0.174194 0.541443 0.230835 0.481018 0.370483 0.483398 0.145752 0.481018 0.506836 0.988098 3.44861 0.481018 3.5675 0.484802 0.926269 0.988098 2.10449 0.988098 3.10315 0.988098 2.23254 0.482544 2.35181 0.490295 1.06213 0.481018 1.16846 0.481689 3.26514 0.485657 3.37341 0.481018 1.68518 0.988098 3.90198 0.988098 2.70374 0.988098 2.15478 0.482544 0.969727 0.481018 3.17017 0.485657 2.90344 0.988098 4.10742 0.988098 0.706543 0.988098 1.90479 0.988098</float_array>
                    <technique_common>
                        <accessor count="124" source="#ID18" stride="2">
                            <param name="S" type="float"/>
                            <param name="T" type="float"/>
                        </accessor>
                    </technique_common>
                </source>
                <vertices id="ID19">
                    <input semantic="POSITION" source="#ID13"/>
                </vertices>
                <triangles count="320" material="Material1">
                    <input offset="0" semantic="VERTEX" source="#ID19"/>
                    <input offset="1" semantic="NORMAL" source="#ID15"/>
                    <input offset="2" semantic="TEXCOORD" source="#ID17" set="0"/>
                    <p>2 2 2 1 1 1 0 0 0 3 3 3 1 1 1 2 2 2 4 4 4 3 3 3 2 2 2 5 5 5 3 3 3 4 4 4 6 6 6 5 5 5 4 4 4 7 7 7 5 5 5 6 6 6 8 8 8 7 7 7 6 6 6 9 9 9 7 7 7 8 8 8 10 10 10 9 9 9 8 8 8 11 11 11 9 9 9 10 10 10 12 12 12 11 11 11 10 10 10 13 13 13 11 11 11 12 12 12 14 14 14 13 13 13 12 12 12 15 15 15 13 13 13 14 14 14 16 16 16 15 15 15 14 14 14 17 17 17 15 15 15 16 16 16 18 18 18 17 17 17 16 16 16 19 19 19 17 17 17 18 18 18 20 20 20 19 19 19 18 18 18 21 21 21 19 19 19 20 20 20 22 22 22 21 21 21 20 20 20 23 23 23 21 21 21 22 22 22 24 24 24 23 23 23 22 22 22 25 25 25 23 23 23 24 24 24 26 26 26 25 25 25 24 24 24 27 27 27 25 25 25 26 26 26 28 28 28 27 27 27 26 26 26 29 29 29 27 27 27 28 28 28 30 30 30 29 29 29 28 28 28 31 31 31 29 29 29 30 30 30 32 32 32 31 31 31 30 30 30 33 33 33 31 31 31 32 32 32 34 34 34 33 33 33 32 32 32 35 35 35 33 33 33 34 34 34 36 36 36 35 35 35 34 34 34 37 37 37 35 35 35 36 36 36 38 38 38 37 37 37 36 36 36 3 3 3 39 39 39 1 1 1 40 40 40 39 39 39 3 3 3 5 5 5 40 40 40 3 3 3 41 41 41 40 40 40 5 5 5 7 7 7 41 41 41 5 5 5 42 42 42 41 41 41 7 7 7 9 9 9 42 42 42 7 7 7 43 43 43 42 42 42 9 9 9 11 11 11 43 43 43 9 9 9 44 44 44 43 43 43 11 11 11 13 13 13 44 44 44 11 11 11 45 45 45 44 44 44 13 13 13 15 15 15 45 45 45 13 13 13 46 46 46 45 45 45 15 15 15 17 17 17 46 46 46 15 15 15 47 47 47 46 46 46 17 17 17 19 19 19 47 47 47 17 17 17 48 48 48 47 47 47 19 19 19 21 21 21 48 48 48 19 19 19 49 49 49 48 48 48 21 21 21 23 23 23 49 49 49 21 21 21 50 50 50 49 49 49 23 23 23 25 25 25 50 50 50 23 23 23 51 51 51 50 50 50 25 25 25 27 27 27 51 51 51 25 25 25 52 52 52 51 51 51 27 27 27 29 29 29 52 52 52 27 27 27 53 53 53 52 52 52 29 29 29 31 31 31 53 53 53 29 29 29 54 54 54 53 53 53 31 31 31 33 33 33 54 54 54 31 31 31 55 55 55 54 54 54 33 33 33 35 35 35 55 55 55 33 33 33 56 56 56 55 55 55 35 35 35 37 37 37 56 56 56 35 35 35 57 57 57 56 56 56 37 37 37 60 60 60 59 59 59 58 58 58 61 61 61 59 59 59 60 60 60 62 62 1 61 61 61 60 60 60 63 63 0 61 61 61 62 62 1 64 64 2 63 63 0 62 62 1 65 65 62 63 63 0 64 64 2 66 66 63 65 65 62 64 64 2 2 2 2 65 65 62 66 66 63 67 67 64 2 2 2 66 66 63 4 4 4 2 2 2 67 67 64 68 68 65 4 4 4 67 67 64 69 69 66 4 4 4 68 68 65 70 70 4 69 69 66 68 68 65 71 71 6 69 69 66 70 70 4 72 72 5 71 71 6 70 70 4 73 73 7 71 71 6 72 72 5 74 74 41 73 73 7 72 72 5 75 75 42 73 73 7 74 74 41 58 58 67 75 75 42 74 74 41 77 77 44 76 76 43 58 58 68 78 78 11 76 76 43 77 77 44 79 79 13 78 78 11 77 77 44 80 80 12 78 78 11 79 79 13 81 81 14 80 80 12 79 79 13 82 82 69 80 80 12 81 81 14 83 83 70 82 82 69 81 81 14 14 14 14 82 82 69 83 83 70 84 84 71 14 14 14 83 83 70 16 16 16 14 14 14 84 84 71 85 85 72 16 16 16 84 84 71 86 86 73 16 16 16 85 85 72 87 87 16 86 86 73 85 85 72 88 88 18 86 86 73 87 87 16 89 89 17 88 88 18 87 87 16 90 90 19 88 88 18 89 89 17 91 91 47 90 90 19 89 89 17 92 92 48 90 90 19 91 91 47 58 58 74 92 92 48 91 91 47 93 93 49 92 92 48 58 58 75 94 94 21 92 92 48 93 93 49 95 95 23 94 94 21 93 93 49 96 96 22 94 94 21 95 95 23 97 97 24 96 96 22 95 95 23 98 98 76 96 96 22 97 97 24 99 99 77 98 98 76 97 97 24 24 24 24 98 98 76 99 99 77 100 100 78 24 24 24 99 99 77 26 26 26 24 24 24 100 100 78 101 101 79 26 26 26 100 100 78 102 102 80 26 26 26 101 101 79 103 103 26 102 102 80 101 101 79 104 104 28 102 102 80 103 103 26 105 105 27 104 104 28 103 103 26 106 106 29 104 104 28 105 105 27 107 107 52 106 106 29 105 105 27 108 108 53 106 106 29 107 107 52 58 58 81 108 108 53 107 107 52 110 110 55 109 109 54 58 58 82 111 111 33 109 109 54 110 110 55 112 112 35 111 111 33 110 110 55 113 113 34 111 111 33 112 112 35 114 114 36 113 113 34 112 112 35 115 115 83 113 113 34 114 114 36 116 116 84 115 115 83 114 114 36 36 36 36 115 115 83 116 116 84 117 117 85 36 36 36 116 116 84 38 38 38 36 36 36 117 117 85 118 118 86 38 38 38 117 117 85 76 76 43 75 75 42 58 58 87 119 119 9 75 75 42 76 76 43 78 78 11 119 119 9 76 76 43 120 120 10 119 119 9 78 78 11 80 80 12 120 120 10 78 78 11 121 121 88 120 120 10 80 80 12 122 122 89 121 121 88 80 80 12 12 12 12 121 121 88 122 122 89 82 82 69 12 12 12 122 122 89 14 14 14 12 12 12 82 82 69 109 109 54 108 108 53 58 58 90 123 123 31 108 108 53 109 109 54 111 111 33 123 123 31 109 109 54 124 124 32 123 123 31 111 111 33 113 113 34 124 124 32 111 111 33 125 125 91 124 124 32 113 113 34 126 126 92 125 125 91 113 113 34 34 34 34 125 125 91 126 126 92 115 115 83 34 34 34 126 126 92 36 36 36 34 34 34 115 115 83 94 94 21 90 90 19 92 92 48 127 127 20 90 90 19 94 94 21 96 96 22 127 127 20 94 94 21 128 128 93 127 127 20 96 96 22 129 129 94 128 128 93 96 96 22 22 22 22 128 128 93 129 129 94 98 98 76 22 22 22 129 129 94 24 24 24 22 22 22 98 98 76 119 119 9 73 73 7 75 75 42 130 130 8 73 73 7 119 119 9 120 120 10 130 130 8 119 119 9 131 131 95 130 130 8 120 120 10 132 132 96 131 131 95 120 120 10 10 10 10 131 131 95 132 132 96 121 121 88 10 10 10 132 132 96 12 12 12 10 10 10 121 121 88 61 61 61 133 133 97 59 59 59 134 134 98 133 133 97 61 61 61 63 63 0 134 134 98 61 61 61 135 135 99 134 134 98 63 63 0 136 136 100 135 135 99 63 63 0 0 0 0 135 135 99 136 136 100 65 65 62 0 0 0 136 136 100 2 2 2 0 0 0 65 65 62 135 135 99 118 118 101 134 134 98 38 38 98 118 118 101 135 135 99 0 0 0 38 38 98 135 135 99 137 137 61 38 38 98 0 0 0 1 1 1 137 137 61 0 0 0 138 138 60 137 137 61 1 1 1 39 39 39 138 138 60 1 1 1 139 139 102 138 138 60 39 39 39 123 123 31 106 106 29 108 108 53 140 140 30 106 106 29 123 123 31 124 124 32 140 140 30 123 123 31 141 141 103 140 140 30 124 124 32 142 142 104 141 141 103 124 124 32 32 32 32 141 141 103 142 142 104 125 125 91 32 32 32 142 142 104 34 34 34 32 32 32 125 125 91 64 64 2 67 67 64 66 66 63 70 70 4 67 67 64 64 64 2 143 143 3 70 70 4 64 64 2 72 72 5 70 70 4 143 143 3 144 144 40 72 72 5 143 143 3 74 74 41 72 72 5 144 144 40 58 58 105 74 74 41 144 144 40 81 81 14 84 84 71 83 83 70 87 87 16 84 84 71 81 81 14 145 145 15 87 87 16 81 81 14 89 89 17 87 87 16 145 145 15 146 146 46 89 89 17 145 145 15 91 91 47 89 89 17 146 146 46 58 58 106 91 91 47 146 146 46 97 97 24 100 100 78 99 99 77 103 103 26 100 100 78 97 97 24 147 147 25 103 103 26 97 97 24 105 105 27 103 103 26 147 147 25 148 148 51 105 105 27 147 147 25 107 107 52 105 105 27 148 148 51 58 58 107 107 107 52 148 148 51 127 127 20 88 88 18 90 90 19 149 149 108 88 88 18 127 127 20 150 150 109 149 149 108 127 127 20 20 20 20 149 149 108 150 150 109 128 128 93 20 20 20 150 150 109 22 22 22 20 20 20 128 128 93 130 130 8 71 71 6 73 73 7 151 151 110 71 71 6 130 130 8 152 152 111 151 151 110 130 130 8 8 8 8 151 151 110 152 152 111 131 131 95 8 8 8 152 152 111 10 10 10 8 8 8 131 131 95 140 140 30 104 104 28 106 106 29 153 153 112 104 104 28 140 140 30 154 154 113 153 153 112 140 140 30 30 30 30 153 153 112 154 154 113 141 141 103 30 30 30 154 154 113 32 32 32 30 30 30 141 141 103 62 62 1 143 143 3 64 64 2 155 155 39 143 143 3 62 62 1 60 60 60 155 155 39 62 62 1 58 58 102 155 155 39 60 60 60 79 79 13 145 145 15 81 81 14 156 156 45 145 145 15 79 79 13 77 77 44 156 156 45 79 79 13 58 58 114 156 156 45 77 77 44 112 112 35 133 133 37 114 114 36 157 157 56 133 133 37 112 112 35 110 110 55 157 157 56 112 112 35 58 58 115 157 157 56 110 110 55 95 95 23 147 147 25 97 97 24 158 158 50 147 147 25 95 95 23 93 93 49 158 158 50 95 95 23 58 58 116 158 158 50 93 93 49 137 137 61 37 37 97 38 38 98 57 57 59 37 37 97 137 137 61 138 138 60 57 57 59 137 137 61 139 139 58 57 57 59 138 138 60 86 86 73 18 18 18 16 16 16 159 159 117 18 18 18 86 86 73 88 88 18 159 159 117 86 86 73 149 149 108 159 159 117 88 88 18 6 6 6 151 151 110 8 8 8 160 160 118 151 151 110 6 6 6 69 69 66 160 160 118 6 6 6 71 71 6 160 160 118 69 69 66 28 28 28 153 153 112 30 30 30 161 161 119 153 153 112 28 28 28 102 102 80 161 161 119 28 28 28 104 104 28 161 161 119 102 102 80 114 114 36 117 117 85 116 116 84 134 134 38 117 117 85 114 114 36 133 133 37 134 134 38 114 114 36 148 148 51 158 158 50 58 58 120 147 147 25 158 158 50 148 148 51 59 59 57 157 157 56 58 58 121 133 133 37 157 157 56 59 59 57 149 149 108 18 18 18 159 159 117 20 20 20 18 18 18 149 149 108 144 144 40 155 155 39 58 58 122 143 143 3 155 155 39 144 144 40 146 146 46 156 156 45 58 58 123 145 145 15 156 156 45 146 146 46 82 82 69 122 122 89 80 80 12 115 115 83 126 126 92 113 113 34 98 98 76 129 129 94 96 96 22 128 128 93 150 150 109 127 127 20 121 121 88 132 132 96 120 120 10 131 131 95 152 152 111 130 130 8 65 65 62 136 136 100 63 63 0 125 125 91 142 142 104 124 124 32 141 141 103 154 154 113 140 140 30 40 40 40 139 139 122 39 39 39 42 42 42 139 139 67 41 41 41 41 41 41 139 139 105 40 40 40 44 44 44 139 139 68 43 43 43 43 43 43 139 139 87 42 42 42 46 46 46 139 139 123 45 45 45 45 45 45 139 139 114 44 44 44 49 49 49 139 139 75 48 48 48 48 48 48 139 139 74 47 47 47 51 51 51 139 139 120 50 50 50 50 50 50 139 139 116 49 49 49 53 53 53 139 139 81 52 52 52 52 52 52 139 139 107 51 51 51 139 139 82 54 54 54 55 55 55 53 53 53 54 54 54 139 139 90 139 139 121 56 56 56 57 57 57 139 139 115 55 55 55 56 56 56 47 47 47 139 139 106 46 46 46 85 85 72 84 84 71 87 87 16 68 68 65 67 67 64 70 70 4 118 118 86 117 117 85 134 134 38 101 101 79 100 100 78 103 103 26 151 151 110 160 160 118 71 71 6 6 6 6 4 4 4 69 69 66 153 153 112 161 161 119 104 104 28 28 28 28 26 26 26 102 102 80</p>
                </triangles>
            </mesh>
        </geometry>
    </library_geometries>
    <library_controllers>
        <controller id="ID11">
            <skin source="#ID12">
                <bind_shape_matrix>1 0 0 0 0 1 0 0 0 0 1 0 0 0 0 1</bind_shape_matrix>
                <source id="ID20">
                    <Name_array id="ID21" count="1">joint1</Name_array>
                    <technique_common>
                        <accessor count="1" source="#ID21">
                            <param name="JOINT" type="Name"/>
                        </accessor>
                    </technique_common>
                </source>
                <source id="ID22">
                    <float_array id="ID23" count="2">0 1</float_array>
                    <technique_common>
                        <accessor count="2" source="#ID23">
                            <param name="WEIGHT" type="float"/>
                        </accessor>
                    </technique_common>
                </source>
                <source id="ID24">
                    <float_array id="ID25" count="16">1 0 0 0 0 1 0 0 0 0 1 0 0 0 0 1</float_array>
                    <technique_common>
                        <accessor count="1" source="#ID25" stride="16">
                            <param name="TRANSFORM" type="float4x4"/>
                        </accessor>
                    </technique_common>
                </source>
                <joints>
                    <input semantic="JOINT" source="#ID20"/>
                    <input semantic="INV_BIND_MATRIX" source="#ID24"/>
                </joints>
                <vertex_weights count="162">
                    <input offset="0" semantic="JOINT" source="#ID20"/>
                    <input offset="1" semantic="WEIGHT" source="#ID22"/>
                    <vcount>1 1 1 1 1 1 1 1 1 1 1 1 1 1 1 1 1 1 1 1 1 1 1 1 1 1 1 1 1 1 1 1 1 1 1 1 1 1 1 1 1 1 1 1 1 1 1 1 1 1 1 1 1 1 1 1 1 1 1 1 1 1 1 1 1 1 1 1 1 1 1 1 1 1 1 1 1 1 1 1 1 1 1 1 1 1 1 1 1 1 1 1 1 1 1 1 1 1 1 1 1 1 1 1 1 1 1 1 1 1 1 1 1 1 1 1 1 1 1 1 1 1 1 1 1 1 1 1 1 1 1 1 1 1 1 1 1 1 1 1 1 1 1 1 1 1 1 1 1 1 1 1 1 1 1 1 1 1 1 1 1 1</vcount>
                    <v>0 1 0 1 0 1 0 1 0 1 0 1 0 1 0 1 0 1 0 1 0 1 0 1 0 1 0 1 0 1 0 1 0 1 0 1 0 1 0 1 0 1 0 1 0 1 0 1 0 1 0 1 0 1 0 1 0 1 0 1 0 1 0 1 0 1 0 1 0 1 0 1 0 1 0 1 0 1 0 1 0 1 0 1 0 1 0 1 0 1 0 1 0 1 0 1 0 1 0 1 0 1 0 1 0 1 0 1 0 1 0 1 0 1 0 1 0 1 0 1 0 1 0 1 0 1 0 1 0 1 0 1 0 1 0 1 0 1 0 1 0 1 0 1 0 1 0 1 0 1 0 1 0 1 0 1 0 1 0 1 0 1 0 1 0 1 0 1 0 1 0 1 0 1 0 1 0 1 0 1 0 1 0 1 0 1 0 1 0 1 0 1 0 1 0 1 0 1 0 1 0 1 0 1 0 1 0 1 0 1 0 1 0 1 0 1 0 1 0 1 0 1 0 1 0 1 0 1 0 1 0 1 0 1 0 1 0 1 0 1 0 1 0 1 0 1 0 1 0 1 0 1 0 1 0 1 0 1 0 1 0 1 0 1 0 1 0 1 0 1 0 1 0 1 0 1 0 1 0 1 0 1 0 1 0 1 0 1 0 1 0 1 0 1 0 1 0 1 0 1 0 1 0 1 0 1 0 1 0 1 0 1 0 1 0 1 0 1 0 1 0 1 0 1</v>
                </vertex_weights>
            </skin>
        </controller>
    </library_controllers>
    <library_visual_scenes>
        <visual_scene id="ID8">
            <node id="ID9" name="polygon0">
                <translate sid="translate">0 0 -0</translate>
                <rotate sid="rotateY">0 1 0 -0</rotate>
                <rotate sid="rotateX">1 0 0 0</rotate>
                <rotate sid="rotateZ">0 0 1 -0</rotate>
                <scale sid="scale">1 1 1</scale>
                <instance_controller url="#ID11">
                    <skeleton>#ID8</skeleton>
                    <bind_material>
                        <technique_common>
                            <instance_material symbol="Material1" target="#ID3">
                                <bind_vertex_input semantic="UVSET0" input_semantic="TEXCOORD" input_set="0"/>
                            </instance_material>
                        </technique_common>
                    </bind_material>
                </instance_controller>
            </node>
            <node id="ID10" name="treehouse_course_v" sid="joint1" type="JOINT">
                <translate sid="translate">0 0 -0</translate>
                <rotate sid="rotateY">0 1 0 -0</rotate>
                <rotate sid="rotateX">1 0 0 0</rotate>
                <rotate sid="rotateZ">0 0 1 -0</rotate>
                <scale sid="scale">1 1 1</scale>
            </node>
        </visual_scene>
    </library_visual_scenes>
    <scene>
        <instance_visual_scene url="#ID8"/>
    </scene>
</COLLADA>
