<?xml version="1.0"?>
<COLLADA xmlns="http://www.collada.org/2005/11/COLLADASchema" version="1.4.1">
    <asset>
        <contributor>
            <authoring_tool>J3D Ripoff Exporter</authoring_tool>
        </contributor>
        <created>2024-10-08T03:51:08.362Z</created>
        <modified>2024-10-08T03:51:08.362Z</modified>
		<unit meter="0.01" name="centimeter" ></unit>
        <up_axis>Y_UP</up_axis>
    </asset>
    <library_images>
        <image id="tex0">
            <init_from>reverse_yajirushi.png</init_from>
        </image>
        <image id="tex1">
            <init_from>jg_reverse.png</init_from>
        </image>
    </library_images>
    <library_effects>
        <effect id="effect0">
            <profile_COMMON>
                <newparam sid="surface0">
                    <surface type="2D">
                        <init_from>tex1</init_from>
                    </surface>
                </newparam>
                <newparam sid="sampler0">
                    <sampler2D>
                        <source>surface0</source>
                    </sampler2D>
                </newparam>
                <technique sid="COMMON">
                    <blinn>
                        <diffuse>
                            <texture texture="sampler0" texcoord="UVSET0"></texture>
                        </diffuse>
                    </blinn>
                </technique>
            </profile_COMMON>
        </effect>
        <effect id="effect1">
            <profile_COMMON>
                <newparam sid="surface1">
                    <surface type="2D">
                        <init_from>tex0</init_from>
                    </surface>
                </newparam>
                <newparam sid="sampler1">
                    <sampler2D>
                        <source>surface1</source>
                    </sampler2D>
                </newparam>
                <technique sid="COMMON">
                    <blinn>
                        <diffuse>
                            <texture texture="sampler1" texcoord="UVSET0"></texture>
                        </diffuse>
                    </blinn>
                </technique>
            </profile_COMMON>
        </effect>
    </library_effects>
    <library_materials>
        <material id="mat0" name="reverse_tx">
            <instance_effect url="#effect0"></instance_effect>
        </material>
        <material id="mat1" name="yajirushi">
            <instance_effect url="#effect1"></instance_effect>
        </material>
    </library_materials>
    <library_geometries>
        <geometry id="mesh0">
            <mesh>
                <source id="points0">
                    <float_array id="pointarray0" count="24">-57.462005615234375 -17.200611114501953 4.7790679931640625 57.46204376220703 -17.200611114501953 4.7790679931640625 -57.462005615234375 -118.51126861572266 4.7790679931640625 57.46204376220703 -118.51126861572266 4.7790679931640625 -57.4620246887207 -118.51127624511719 -2.5969879627227783 57.4620246887207 -118.51127624511719 -2.5969879627227783 -57.4620246887207 -17.200620651245117 -2.5969879627227783 57.4620246887207 -17.200620651245117 -2.5969879627227783</float_array>
                    <technique_common>
                        <accessor count="8" source="#pointarray0" stride="3">
                            <param name="X" type="float"/>
                            <param name="Y" type="float"/>
                            <param name="Z" type="float"/>
                        </accessor>
                    </technique_common>
                </source>
                <source id="uvs0">
                    <float_array id="uvarray0" count="8">-0.02386474609375 0.97454833984375 1.02386474609375 0.97454833984375 -0.02386474609375 0.00164794921875 1.02386474609375 0.00164794921875</float_array>
                    <technique_common>
                        <accessor count="4" source="#uvarray0" stride="2">
                            <param name="S" type="float"/>
                            <param name="T" type="float"/>
                        </accessor>
                    </technique_common>
                </source>
                <vertices id="vertices0">
                    <input semantic="POSITION" source="#points0"/>
                </vertices>
                <polylist count="4" material="Material1">
                    <input offset="0" semantic="VERTEX" source="#vertices0"/>
                    <input offset="1" semantic="TEXCOORD" source="#uvs0" set="0"/>
                    <vcount>3 3 3 3</vcount>
                    <p>2 2 1 1 0 0 3 3 1 1 2 2 6 1 5 2 4 3 7 0 5 2 6 1</p>
                </polylist>
            </mesh>
        </geometry>
        <geometry id="mesh1">
            <mesh>
                <source id="points1">
                    <float_array id="pointarray1" count="144">-23.613012313842773 -0.6364960074424744 8.401036262512207 -15.793452262878418 10.693181991577148 7.303297996520996 0.000003000000106112566 -0.8935739994049072 8.401036262512207 0.000003000000106112566 13.507634162902832 7.303297996520996 15.79345703125 10.693181991577148 7.303297996520996 23.61301612854004 -0.6364960074424744 8.401036262512207 23.61301612854004 -0.636489987373352 -6.230453014373779 74.76695251464844 -0.6364960074424744 8.401036262512207 74.76695251464844 -0.636489987373352 -6.230453014373779 -23.613012313842773 -0.636489987373352 -6.230453014373779 -15.793452262878418 10.693181991577148 -5.132715225219727 -69.66666412353516 -122.20464324951172 -2.621440887451172 -69.66664123535156 -122.20462799072266 4.803521156311035 -60.02315902709961 -131.9059295654297 -2.621440887451172 -60.023136138916016 -131.9059295654297 4.803521156311035 69.66666412353516 -122.20464324951172 -2.621440887451172 69.66669464111328 -122.20462799072266 4.803521156311035 69.66666412353516 -17.17113494873047 -2.621440887451172 69.66669464111328 -17.171125411987305 4.803521156311035 -57.462005615234375 -118.51126861572266 4.7790679931640625 -57.462005615234375 -17.200611114501953 4.7790679931640625 -69.66664123535156 -17.171125411987305 4.803521156311035 -69.66666412353516 -17.17113494873047 -2.621440887451172 -57.4620246887207 -17.200620651245117 -2.5969879627227783 -57.4620246887207 -118.51127624511719 -2.5969879627227783 57.4620246887207 -17.200620651245117 -2.5969879627227783 57.4620246887207 -118.51127624511719 -2.5969879627227783 57.46204376220703 -118.51126861572266 4.7790679931640625 57.46204376220703 -17.200611114501953 4.7790679931640625 60.02315902709961 -131.9059295654297 -2.621440887451172 60.02318572998047 -131.9059295654297 4.803521156311035 -74.42562103271484 -0.6364960074424744 8.401036262512207 -74.42562103271484 -18.947351455688477 8.401020050048828 -79.7018814086914 -4.15831184387207 5.74285888671875 -79.7018814086914 -15.57616138458252 5.74285888671875 74.76695251464844 -18.947351455688477 8.401020050048828 80.043212890625 -15.57616138458252 5.74285888671875 74.76695251464844 -18.947351455688477 -6.230459213256836 80.043212890625 -15.57616138458252 -3.5722908973693848 -74.42562103271484 -18.947351455688477 -6.230459213256836 -74.42562103271484 -0.636489987373352 -6.230453014373779 0.000003000000106112566 -0.8935689926147461 -6.230453014373779 0.000003000000106112566 13.507634162902832 -5.132715225219727 15.79345703125 10.693181991577148 -5.132715225219727 -79.7018814086914 -15.57616138458252 -3.5722908973693848 -79.7018814086914 -4.158307075500488 -3.5722908973693848 80.043212890625 -4.15831184387207 5.74285888671875 80.043212890625 -4.158307075500488 -3.5722908973693848</float_array>
                    <technique_common>
                        <accessor count="48" source="#pointarray1" stride="3">
                            <param name="X" type="float"/>
                            <param name="Y" type="float"/>
                            <param name="Z" type="float"/>
                        </accessor>
                    </technique_common>
                </source>
                <source id="uvs1">
                    <float_array id="uvarray1" count="130">0.32489013671875 0.7022705078125 0.357421875 0.886962890625 0.46893310546875 0.719970703125 0.44012451171875 0.9742431640625 0.5726318359375 0.9063720703125 0.513916015625 0.53564453125 0.51153564453125 0.56939697265625 0.7186279296875 0.5506591796875 0.71630859375 0.58441162109375 0.56451416015625 0.9444580078125 0.564453125 0.9708251953125 0.520263671875 0.9444580078125 0.520263671875 0.97076416015625 0.19732666015625 0.14410400390625 0.2347412109375 0.04931640625 0.23272705078125 0.04931640625 0.6048583984375 0.04931640625 0.6885986328125 0.18017578125 0.7020263671875 0.04931640625 0.3299560546875 0.18017578125 0.32989501953125 0.04931640625 0.60479736328125 0.18017578125 0.24615478515625 0.18017578125 0.7003173828125 0.04931640625 0.24462890625 0.18017578125 0.69036865234375 0.18017578125 0.18035888671875 0.33990478515625 0.2010498046875 0.2784423828125 0.173095703125 0.32220458984375 0.18603515625 0.28387451171875 0.7376708984375 0.14410400390625 0.41534423828125 0.67724609375 0.39434814453125 0.68536376953125 0.41168212890625 0.7298583984375 0.3919677734375 0.7188720703125 0.70977783203125 0.61639404296875 0.73046875 0.554931640625 0.52667236328125 0.52081298828125 0.44537353515625 0.47711181640625 0.3634033203125 0.435546875 0.6209716796875 0.73577880859375 0.43841552734375 0.94439697265625 0.4383544921875 0.97076416015625 0.3673095703125 0.431396484375 0.17474365234375 0.431396484375 0.3673095703125 0.44830322265625 0.17474365234375 0.44830322265625 0.7249755859375 0.61041259765625 0.73785400390625 0.57208251953125 0.48876953125 0.94927978515625 0.48870849609375 0.966064453125 0.47808837890625 0.9444580078125 0.47808837890625 0.9708251953125 0.5233154296875 0.94927978515625 0.5233154296875 0.966064453125 0.53350830078125 0.97088623046875 0.53350830078125 0.94451904296875 0.322998046875 0.7139892578125 0.32537841796875 0.6805419921875 0.7357177734375 0.58575439453125 0.19989013671875 0.54718017578125 0.738037109375 0.552001953125 0.2022705078125 0.513427734375 0.30108642578125 0.7220458984375 0.30474853515625 0.66943359375</float_array>
                    <technique_common>
                        <accessor count="65" source="#uvarray1" stride="2">
                            <param name="S" type="float"/>
                            <param name="T" type="float"/>
                        </accessor>
                    </technique_common>
                </source>
                <vertices id="vertices1">
                    <input semantic="POSITION" source="#points1"/>
                </vertices>
                <polylist count="78" material="Material1">
                    <input offset="0" semantic="VERTEX" source="#vertices1"/>
                    <input offset="1" semantic="TEXCOORD" source="#uvs1" set="0"/>
                    <vcount>3 3 3 3 3 3 3 3 3 3 3 3 3 3 3 3 3 3 3 3 3 3 3 3 3 3 3 3 3 3 3 3 3 3 3 3 3 3 3 3 3 3 3 3 3 3 3 3 3 3 3 3 3 3 3 3 3 3 3 3 3 3 3 3 3 3 3 3 3 3 3 3 3 3 3 3 3 3</vcount>
                    <p>2 2 1 1 0 0 3 3 1 1 2 2 4 4 3 3 2 2 7 7 6 6 5 5 8 8 6 6 7 7 1 11 9 10 0 9 10 12 9 10 1 11 13 14 12 13 11 13 14 14 12 13 13 14 17 16 16 15 15 15 18 16 16 15 17 16 20 19 12 18 19 17 21 20 12 18 20 19 21 20 11 18 12 18 22 20 11 18 21 20 24 17 22 20 23 19 11 18 22 20 24 17 17 16 26 22 25 21 15 15 26 22 17 16 16 15 28 21 27 22 18 16 28 21 16 15 24 24 29 23 13 14 26 25 29 23 24 24 13 14 30 23 14 14 29 23 30 23 13 14 33 28 32 27 31 26 34 29 32 27 33 28 30 23 19 24 14 14 27 25 19 24 30 23 16 30 29 23 15 30 30 23 29 23 16 30 37 33 36 32 35 31 38 34 36 32 37 33 5 37 35 36 7 35 2 38 35 36 5 37 2 38 32 27 35 36 0 39 32 27 2 38 39 27 8 35 37 36 40 26 8 35 39 27 40 26 6 37 8 35 9 39 6 37 40 26 10 1 41 2 9 0 42 3 41 2 10 1 41 2 43 4 6 40 42 3 43 4 41 2 5 9 43 12 4 11 6 10 43 12 5 9 4 11 42 42 3 41 43 12 42 42 4 11 3 41 10 12 1 11 42 42 10 12 3 41 9 45 31 44 0 43 40 46 31 44 9 45 44 29 40 26 39 27 45 28 40 26 44 29 35 36 46 47 7 35 36 48 46 47 35 36 31 51 45 50 33 49 40 52 45 50 31 51 33 49 44 54 34 53 45 50 44 54 33 49 39 55 34 53 44 54 32 56 34 53 39 55 47 57 36 32 38 34 46 58 36 32 47 57 35 61 39 60 37 59 32 62 39 60 35 61 8 35 38 48 37 36 47 47 38 48 8 35 7 64 47 57 8 63 46 58 47 57 7 64 30 23 16 30 27 25 29 23 26 25 15 30 12 13 14 14 19 24 11 13 24 24 13 14 2 2 5 40 4 4 32 27 0 39 31 26 6 37 9 39 41 38</p>
                </polylist>
            </mesh>
        </geometry>
    </library_geometries>
    <library_visual_scenes>
        <visual_scene id="VisualSceneNode">
            <node id="node0" name="m0" type="NODE">
                <instance_geometry url="#mesh0">
                    <bind_material>
                        <technique_common>
                            <instance_material symbol="Material1" target="#mat1">
                                <bind_vertex_input semantic="UVSET0" input_semantic="TEXCOORD" input_set="0"></bind_vertex_input>
                            </instance_material>
                        </technique_common>
                    </bind_material>
                </instance_geometry>
            </node>
            <node id="node1" name="m1" type="NODE">
                <instance_geometry url="#mesh1">
                    <bind_material>
                        <technique_common>
                            <instance_material symbol="Material1" target="#mat0">
                                <bind_vertex_input semantic="UVSET0" input_semantic="TEXCOORD" input_set="0"></bind_vertex_input>
                            </instance_material>
                        </technique_common>
                    </bind_material>
                </instance_geometry>
            </node>
        </visual_scene>
    </library_visual_scenes>
    <scene>
        <instance_visual_scene url="#VisualSceneNode"></instance_visual_scene>
    </scene>
</COLLADA>
