<?xml version="1.0"?>
<COLLADA xmlns="http://www.collada.org/2005/11/COLLADASchema" version="1.4.1">
    <asset>
        <contributor>
            <authoring_tool>J3D Ripoff Exporter</authoring_tool>
        </contributor>
        <created>2024-10-08T04:01:34.017Z</created>
        <modified>2024-10-08T04:01:34.017Z</modified>
		<unit meter="0.01" name="centimeter" ></unit>
        <up_axis>Y_UP</up_axis>
    </asset>
    <library_images>
        <image id="tex0">
            <init_from>jg_final_USA.png</init_from>
        </image>
        <image id="tex1">
            <init_from>jg_final.png</init_from>
        </image>
    </library_images>
    <library_effects>
        <effect id="effect0">
            <profile_COMMON>
                <newparam sid="surface0">
                    <surface type="2D">
                        <init_from>tex1</init_from>
                    </surface>
                </newparam>
                <newparam sid="sampler0">
                    <sampler2D>
                        <source>surface0</source>
                    </sampler2D>
                </newparam>
                <technique sid="COMMON">
                    <blinn>
                        <diffuse>
                            <texture texture="sampler0" texcoord="UVSET0"></texture>
                        </diffuse>
                    </blinn>
                </technique>
            </profile_COMMON>
        </effect>
        <effect id="effect1">
            <profile_COMMON>
                <newparam sid="surface1">
                    <surface type="2D">
                        <init_from>tex0</init_from>
                    </surface>
                </newparam>
                <newparam sid="sampler1">
                    <sampler2D>
                        <source>surface1</source>
                    </sampler2D>
                </newparam>
                <technique sid="COMMON">
                    <blinn>
                        <diffuse>
                            <texture texture="sampler1" texcoord="UVSET0"></texture>
                        </diffuse>
                    </blinn>
                </technique>
            </profile_COMMON>
        </effect>
    </library_effects>
    <library_materials>
        <material id="mat0" name="final_tx">
            <instance_effect url="#effect0"></instance_effect>
        </material>
        <material id="mat1" name="moji">
            <instance_effect url="#effect1"></instance_effect>
        </material>
    </library_materials>
    <library_geometries>
        <geometry id="mesh0">
            <mesh>
                <source id="points0">
                    <float_array id="pointarray0" count="36">98.27877044677734 -110.44172668457031 4.244369983673096 -98.28461456298828 -110.44172668457031 4.244369983673096 104.50074005126953 -106.25599670410156 4.244369983673096 -104.50074005126953 -106.25599670410156 4.244369983673096 104.50074005126953 -16.536636352539062 4.244369983673096 -104.50074005126953 -16.536636352539062 4.244369983673096 98.27877044677734 -110.44172668457031 -1.9877820014953613 104.50074005126953 -106.25599670410156 -1.9877820014953613 -98.28461456298828 -110.44172668457031 -1.9877820014953613 -104.50074005126953 -106.25599670410156 -1.9877820014953613 -104.50074005126953 -16.536636352539062 -1.9877820014953613 104.50074005126953 -16.536636352539062 -1.9877820014953613</float_array>
                    <technique_common>
                        <accessor count="12" source="#pointarray0" stride="3">
                            <param name="X" type="float"/>
                            <param name="Y" type="float"/>
                            <param name="Z" type="float"/>
                        </accessor>
                    </technique_common>
                </source>
                <source id="uvs0">
                    <float_array id="uvarray0" count="24">0.98602294921875 0.1243896484375 0.013916015625 0.1243896484375 1.01678466796875 0.0894775390625 -0.01678466796875 0.0894775390625 1.01678466796875 0.89154052734375 -0.01678466796875 0.89154052734375 0.0169677734375 0.12603759765625 -0.01849365234375 0.08953857421875 0.98822021484375 0.12603759765625 1.01654052734375 0.08953857421875 1.01654052734375 0.890869140625 -0.01849365234375 0.890869140625</float_array>
                    <technique_common>
                        <accessor count="12" source="#uvarray0" stride="2">
                            <param name="S" type="float"/>
                            <param name="T" type="float"/>
                        </accessor>
                    </technique_common>
                </source>
                <vertices id="vertices0">
                    <input semantic="POSITION" source="#points0"/>
                </vertices>
                <polylist count="8" material="Material1">
                    <input offset="0" semantic="VERTEX" source="#vertices0"/>
                    <input offset="1" semantic="TEXCOORD" source="#uvs0" set="0"/>
                    <vcount>3 3 3 3 3 3 3 3</vcount>
                    <p>2 2 1 1 0 0 3 3 1 1 2 2 4 4 3 3 2 2 5 5 3 3 4 4 8 8 7 7 6 6 9 9 7 7 8 8 10 10 7 7 9 9 11 11 7 7 10 10</p>
                </polylist>
            </mesh>
        </geometry>
        <geometry id="mesh1">
            <mesh>
                <source id="points1">
                    <float_array id="pointarray1" count="120">28.58702278137207 -0.678276002407074 -6.230453014373779 19.120296478271484 9.605326652526855 -5.132715225219727 0.000003999999989900971 -0.9091830253601074 -6.230453014373779 0.000003999999989900971 12.419778823852539 -5.132715225219727 -19.12029266357422 9.605326652526855 -5.132715225219727 109.32984161376953 -0.678276002407074 -6.230453014373779 -109.2710952758789 -0.678276002407074 -6.230453014373779 -28.587017059326172 -0.678276002407074 -6.230453014373779 109.32984161376953 -17.125099182128906 -6.230459213256836 -109.2710952758789 -17.125099182128906 -6.230459213256836 109.32984161376953 -17.125099182128906 8.401020050048828 -109.2710952758789 -17.125099182128906 8.401020050048828 0.000003999999989900971 -0.9091879725456238 8.401036262512207 -28.587017059326172 -0.6782799959182739 8.401036262512207 109.32984161376953 -0.6782799959182739 8.401036262512207 28.58702278137207 -0.6782799959182739 8.401036262512207 104.50074005126953 -106.25599670410156 -1.9877820014953613 104.50074005126953 -106.25599670410156 4.244369983673096 104.50074005126953 -16.536636352539062 -1.9877820014953613 104.50074005126953 -16.536636352539062 4.244369983673096 -104.50074005126953 -106.25599670410156 4.244369983673096 -104.50074005126953 -106.25599670410156 -1.9877820014953613 -104.50074005126953 -16.536636352539062 4.244369983673096 -104.50074005126953 -16.536636352539062 -1.9877820014953613 98.27877044677734 -110.44172668457031 -1.9877820014953613 -98.28461456298828 -110.44172668457031 -1.9877820014953613 98.27877044677734 -110.44172668457031 4.244369983673096 -98.28461456298828 -110.44172668457031 4.244369983673096 114.80104064941406 -14.097094535827637 5.74285888671875 114.80104064941406 -14.097094535827637 -3.5722908973693848 -109.2710952758789 -0.6782799959182739 8.401036262512207 -114.74229431152344 -3.8415780067443848 5.74285888671875 -114.74229431152344 -14.097094535827637 5.74285888671875 114.80104064941406 -3.8415729999542236 -3.5722908973693848 114.80104064941406 -3.8415780067443848 5.74285888671875 19.120296478271484 9.605326652526855 7.303297996520996 0.000003999999989900971 12.419778823852539 7.303297996520996 -19.12029266357422 9.605326652526855 7.303297996520996 -114.74229431152344 -14.097094535827637 -3.5722908973693848 -114.74229431152344 -3.8415729999542236 -3.5722908973693848</float_array>
                    <technique_common>
                        <accessor count="40" source="#pointarray1" stride="3">
                            <param name="X" type="float"/>
                            <param name="Y" type="float"/>
                            <param name="Z" type="float"/>
                        </accessor>
                    </technique_common>
                </source>
                <source id="uvs1">
                    <float_array id="uvarray1" count="122">0.6090087890625 0.74517822265625 0.55419921875 0.912353515625 0.47601318359375 0.71990966796875 0.4324951171875 0.97174072265625 0.36572265625 0.87939453125 0.70977783203125 0.61639404296875 0.5157470703125 0.51507568359375 0.18035888671875 0.33990478515625 0.37432861328125 0.44122314453125 0.73046875 0.554931640625 0.2010498046875 0.2784423828125 0.44537353515625 0.47723388671875 0.35870361328125 0.1434326171875 0.35870361328125 0.15374755859375 0.7119140625 0.1434326171875 0.7119140625 0.1536865234375 0.83172607421875 0.1551513671875 0.22540283203125 0.1551513671875 0.83172607421875 0.14556884765625 0.22540283203125 0.14556884765625 0.32427978515625 0.1434326171875 0.32427978515625 0.15374755859375 0.41534423828125 0.67724609375 0.39434814453125 0.68536376953125 0.41168212890625 0.7298583984375 0.3919677734375 0.7188720703125 0.173095703125 0.32220458984375 0.18603515625 0.28387451171875 0.513916015625 0.53564453125 0.51153564453125 0.56939697265625 0.7186279296875 0.5506591796875 0.71630859375 0.58441162109375 0.30108642578125 0.7220458984375 0.322998046875 0.7139892578125 0.30474853515625 0.66943359375 0.32537841796875 0.6805419921875 0.73785400390625 0.57208251953125 0.7249755859375 0.61041259765625 0.3502197265625 0.69317626953125 0.5233154296875 0.966064453125 0.5233154296875 0.94927978515625 0.53350830078125 0.97088623046875 0.53350830078125 0.94451904296875 0.48876953125 0.94927978515625 0.48870849609375 0.966064453125 0.47808837890625 0.9444580078125 0.47808837890625 0.9708251953125 0.37445068359375 0.431396484375 0.181884765625 0.431396484375 0.37445068359375 0.44830322265625 0.181884765625 0.44830322265625 0.520263671875 0.9444580078125 0.520263671875 0.97076416015625 0.43841552734375 0.94439697265625 0.4383544921875 0.97076416015625 0.56451416015625 0.9444580078125 0.564453125 0.9708251953125 0.7357177734375 0.58575439453125 0.19989013671875 0.54718017578125 0.738037109375 0.552001953125 0.2022705078125 0.513427734375</float_array>
                    <technique_common>
                        <accessor count="61" source="#uvarray1" stride="2">
                            <param name="S" type="float"/>
                            <param name="T" type="float"/>
                        </accessor>
                    </technique_common>
                </source>
                <vertices id="vertices1">
                    <input semantic="POSITION" source="#points1"/>
                </vertices>
                <polylist count="62" material="Material1">
                    <input offset="0" semantic="VERTEX" source="#vertices1"/>
                    <input offset="1" semantic="TEXCOORD" source="#uvs1" set="0"/>
                    <vcount>3 3 3 3 3 3 3 3 3 3 3 3 3 3 3 3 3 3 3 3 3 3 3 3 3 3 3 3 3 3 3 3 3 3 3 3 3 3 3 3 3 3 3 3 3 3 3 3 3 3 3 3 3 3 3 3 3 3 3 3 3 3</vcount>
                    <p>2 2 1 1 0 0 3 3 1 1 2 2 4 4 3 3 2 2 6 7 0 6 5 5 7 8 0 6 6 7 9 10 5 5 8 9 6 7 5 5 9 10 12 11 11 10 10 9 13 8 11 10 12 11 15 6 10 9 14 5 12 11 10 9 15 6 18 14 17 13 16 12 19 15 17 13 18 14 22 15 21 12 20 13 23 14 21 12 22 15 26 18 25 17 24 16 27 19 25 17 26 18 17 13 24 20 16 12 26 21 24 20 17 13 21 12 27 21 20 13 25 20 27 21 21 12 8 24 28 23 10 22 29 25 28 23 8 24 31 26 11 10 30 7 32 27 11 10 31 26 14 30 0 29 15 28 5 31 0 29 14 30 14 34 33 33 5 32 34 35 33 33 14 34 5 5 29 36 8 9 33 37 29 36 5 5 35 1 12 2 15 0 36 3 12 2 35 1 37 4 12 2 36 3 13 38 12 2 37 4 33 33 28 23 29 25 34 35 28 23 33 33 9 41 32 40 38 39 11 42 32 40 9 41 31 43 38 39 32 40 39 44 38 39 31 43 30 45 39 44 31 43 6 46 39 44 30 45 10 9 34 37 14 5 28 36 34 37 10 9 38 27 6 7 9 10 39 26 6 7 38 27 7 49 30 48 13 47 6 50 30 48 7 49 36 53 4 52 37 51 3 54 4 52 36 53 35 51 3 54 36 53 1 52 3 54 35 51 15 55 1 52 35 51 0 56 1 52 15 55 37 51 7 56 13 55 4 52 7 56 37 51 10 59 9 58 8 57 11 60 9 58 10 59 4 4 2 2 7 38 11 10 13 8 30 7 0 6 7 8 2 11</p>
                </polylist>
            </mesh>
        </geometry>
    </library_geometries>
    <library_visual_scenes>
        <visual_scene id="VisualSceneNode">
            <node id="node0" name="m0" type="NODE">
                <instance_geometry url="#mesh0">
                    <bind_material>
                        <technique_common>
                            <instance_material symbol="Material1" target="#mat1">
                                <bind_vertex_input semantic="UVSET0" input_semantic="TEXCOORD" input_set="0"></bind_vertex_input>
                            </instance_material>
                        </technique_common>
                    </bind_material>
                </instance_geometry>
            </node>
            <node id="node1" name="m1" type="NODE">
                <instance_geometry url="#mesh1">
                    <bind_material>
                        <technique_common>
                            <instance_material symbol="Material1" target="#mat0">
                                <bind_vertex_input semantic="UVSET0" input_semantic="TEXCOORD" input_set="0"></bind_vertex_input>
                            </instance_material>
                        </technique_common>
                    </bind_material>
                </instance_geometry>
            </node>
        </visual_scene>
    </library_visual_scenes>
    <scene>
        <instance_visual_scene url="#VisualSceneNode"></instance_visual_scene>
    </scene>
</COLLADA>
