<?xml version="1.0"?>
<COLLADA xmlns="http://www.collada.org/2005/11/COLLADASchema" version="1.4.1">
    <asset>
        <contributor>
            <authoring_tool>J3D Ripoff Exporter</authoring_tool>
        </contributor>
        <created>2024-10-08T04:01:04.111Z</created>
        <modified>2024-10-08T04:01:04.111Z</modified>
		<unit meter="0.01" name="centimeter" ></unit>
        <up_axis>Y_UP</up_axis>
    </asset>
    <library_images>
        <image id="tex0">
            <init_from>jg_board01_USA.png</init_from>
        </image>
        <image id="tex1">
            <init_from>jg_lap.0.png</init_from>
        </image>
        <image id="tex2">
            <init_from>jg_lap.1.png</init_from>
        </image>
        <image id="tex3">
            <init_from>jg_lap.2.png</init_from>
        </image>
        <image id="tex4">
            <init_from>jg_lap.3.png</init_from>
        </image>
        <image id="tex5">
            <init_from>jg_lap.4.png</init_from>
        </image>
        <image id="tex6">
            <init_from>jg_lap.5.png</init_from>
        </image>
        <image id="tex7">
            <init_from>jg_lap.6.png</init_from>
        </image>
        <image id="tex8">
            <init_from>jg_lap.7.png</init_from>
        </image>
        <image id="tex9">
            <init_from>jg_lap.2.png</init_from>
        </image>
        <image id="tex10">
            <init_from>jg_board01_USA.png</init_from>
        </image>
    </library_images>
    <library_effects>
        <effect id="effect0">
            <profile_COMMON>
                <newparam sid="surface0">
                    <surface type="2D">
                        <init_from>tex10</init_from>
                    </surface>
                </newparam>
                <newparam sid="sampler0">
                    <sampler2D>
                        <source>surface0</source>
                    </sampler2D>
                </newparam>
                <technique sid="COMMON">
                    <blinn>
                        <diffuse>
                            <texture texture="sampler0" texcoord="UVSET0"></texture>
                        </diffuse>
                    </blinn>
                </technique>
            </profile_COMMON>
        </effect>
        <effect id="effect1">
            <profile_COMMON>
                <newparam sid="surface1">
                    <surface type="2D">
                        <init_from>tex9</init_from>
                    </surface>
                </newparam>
                <newparam sid="sampler1">
                    <sampler2D>
                        <source>surface1</source>
                    </sampler2D>
                </newparam>
                <technique sid="COMMON">
                    <blinn>
                        <diffuse>
                            <texture texture="sampler1" texcoord="UVSET0"></texture>
                        </diffuse>
                    </blinn>
                </technique>
            </profile_COMMON>
        </effect>
    </library_effects>
    <library_materials>
        <material id="mat0" name="bord">
            <instance_effect url="#effect0"></instance_effect>
        </material>
        <material id="mat1" name="number">
            <instance_effect url="#effect1"></instance_effect>
        </material>
    </library_materials>
    <library_geometries>
        <geometry id="mesh0">
            <mesh>
                <source id="points0">
                    <float_array id="pointarray0" count="144">66.73241424560547 -90.90724182128906 -1.9877820014953613 -8.326360702514648 -90.90724182128906 -1.9877820014953613 66.73241424560547 -90.90724182128906 3.9083149433135986 -66.73638153076172 -90.90724182128906 -1.9877820014953613 8.326360702514648 -90.90724182128906 3.9083149433135986 -66.73638153076172 -90.90724182128906 3.9083149433135986 70.95720672607422 -69.74585723876953 3.9083149433135986 8.326360702514648 -69.72964477539062 3.9083149433135986 -70.95720672607422 -86.72151947021484 3.9083149433135986 -70.95720672607422 -16.536636352539062 3.9083149433135986 0.0000019999999949504854 12.279667854309082 -4.666103839874268 -12.998711585998535 9.721074104309082 -4.666103839874268 0.0000019999999949504854 -0.8123350143432617 -5.664048194885254 -19.43455696105957 -0.5786280035972595 -5.664048194885254 19.434560775756836 -0.5786280035972595 -5.664048194885254 -70.95720672607422 -69.71404266357422 -1.9877820014953613 -8.326360702514648 -69.72962951660156 -1.9877820014953613 70.95720672607422 -86.72151947021484 -1.9877820014953613 70.95720672607422 -16.536636352539062 -1.9877820014953613 12.998714447021484 9.721074104309082 6.6393609046936035 19.434560775756836 -0.5786319971084595 7.637304782867432 0.0000019999999949504854 -0.8123400211334229 7.637304782867432 76.91291809082031 -17.224864959716797 7.637290954589844 -76.91291809082031 -17.224864959716797 7.637290954589844 -12.998711585998535 9.721074104309082 6.6393609046936035 -19.43455696105957 -0.5786319971084595 7.637304782867432 -76.91291809082031 -0.5786319971084595 7.637304782867432 -80.16986846923828 -3.7802839279174805 5.220779895782471 -80.16986846923828 -3.7802789211273193 -3.2475380897521973 -76.91291809082031 -0.5786280035972595 -5.664048194885254 -80.16986846923828 -14.160146713256836 5.220779895782471 -80.16986846923828 -14.160146713256836 -3.2475380897521973 -76.91291809082031 -17.224864959716797 -5.664052963256836 80.16986846923828 -14.160146713256836 -3.2475380897521973 80.16986846923828 -14.160146713256836 5.220779895782471 80.16986846923828 -3.7802789211273193 -3.2475380897521973 80.16986846923828 -3.7802839279174805 5.220779895782471 76.91291809082031 -17.224864959716797 -5.664052963256836 76.91291809082031 -0.5786280035972595 -5.664048194885254 76.91291809082031 -0.5786319971084595 7.637304782867432 -70.95720672607422 -86.72151947021484 -1.9877820014953613 -70.95720672607422 -16.536636352539062 -1.9877820014953613 70.95720672607422 -86.72151947021484 3.9083149433135986 70.95720672607422 -16.536636352539062 3.9083149433135986 12.998714447021484 9.721074104309082 -4.666103839874268 0.0000019999999949504854 12.279667854309082 6.6393609046936035 -8.326360702514648 -16.536636352539062 -1.9877820014953613 8.326360702514648 -16.536636352539062 3.9083149433135986</float_array>
                    <technique_common>
                        <accessor count="48" source="#pointarray0" stride="3">
                            <param name="X" type="float"/>
                            <param name="Y" type="float"/>
                            <param name="Z" type="float"/>
                        </accessor>
                    </technique_common>
                </source>
                <source id="uvs0">
                    <float_array id="uvarray0" count="142">1.00079345703125 0.94354248046875 0.7720947265625 0.94354248046875 1.00079345703125 0.9339599609375 0.5941162109375 0.94354248046875 0.8228759765625 0.9339599609375 0.5941162109375 0.9339599609375 0.982421875 0.27264404296875 0.54718017578125 -0.04400634765625 0.548828125 0.25311279296875 -0.02667236328125 0.0233154296875 -0.02777099609375 0.99871826171875 0.74969482421875 0.69708251953125 0.7259521484375 0.6785888671875 0.7578125 0.61529541015625 0.71978759765625 0.613037109375 0.7955322265625 0.62054443359375 0.98211669921875 0.27313232421875 0.54876708984375 0.25311279296875 -0.0263671875 0.0233154296875 -0.0274658203125 0.99871826171875 0.776611328125 0.68365478515625 0.9111328125 0.5269775390625 0.62481689453125 0.49859619140625 0.614501953125 0.60260009765625 0.749267578125 0.74578857421875 0.749267578125 0.7625732421875 0.7386474609375 0.74102783203125 0.7386474609375 0.767333984375 0.78387451171875 0.745849609375 0.78387451171875 0.76263427734375 0.7940673828125 0.76739501953125 0.7940673828125 0.74102783203125 0.890869140625 0.77142333984375 0.64501953125 0.77142333984375 0.890869140625 0.7545166015625 0.64501953125 0.7545166015625 0.915283203125 0.5467529296875 0.90081787109375 0.6309814453125 0.9088134765625 0.611572265625 0.79510498046875 0.7545166015625 0.79510498046875 0.77142333984375 0.90325927734375 0.7545166015625 0.90325927734375 0.77142333984375 0.6104736328125 0.58197021484375 0.61688232421875 0.51715087890625 0.70123291015625 0.94207763671875 0.70123291015625 0.93182373046875 0.950439453125 0.94207763671875 0.950439453125 0.93182373046875 0.95208740234375 -0.02386474609375 0.984375 0.0372314453125 0.9517822265625 -0.02386474609375 0.98406982421875 0.0372314453125 0.8011474609375 0.74102783203125 0.8011474609375 0.767333984375 0.782470703125 0.740966796875 0.782470703125 0.767333984375 0.7479248046875 0.740966796875 0.74786376953125 0.767333984375 0.68634033203125 0.93182373046875 0.6864013671875 0.942138671875 0.7203369140625 0.7545166015625 0.61328125 0.7545166015625 0.7203369140625 0.77142333984375 0.61328125 0.77142333984375 0.54876708984375 0.99871826171875 0.548828125 0.99871826171875 0.7615966796875 0.93182373046875 0.76153564453125 0.94207763671875 -0.000244140625 -0.04071044921875 -0.00054931640625 -0.04071044921875</float_array>
                    <technique_common>
                        <accessor count="71" source="#uvarray0" stride="2">
                            <param name="S" type="float"/>
                            <param name="T" type="float"/>
                        </accessor>
                    </technique_common>
                </source>
                <vertices id="vertices0">
                    <input semantic="POSITION" source="#points0"/>
                </vertices>
                <polylist count="80" material="Material1">
                    <input offset="0" semantic="VERTEX" source="#vertices0"/>
                    <input offset="1" semantic="TEXCOORD" source="#uvs0" set="0"/>
                    <vcount>3 3 3 3 3 3 3 3 3 3 3 3 3 3 3 3 3 3 3 3 3 3 3 3 3 3 3 3 3 3 3 3 3 3 3 3 3 3 3 3 3 3 3 3 3 3 3 3 3 3 3 3 3 3 3 3 3 3 3 3 3 3 3 3 3 3 3 3 3 3 3 3 3 3 3 3 3 3 3 3</vcount>
                    <p>2 2 1 1 0 0 3 3 1 1 2 2 4 4 3 3 2 2 5 5 3 3 4 4 7 8 4 7 6 6 8 9 4 7 7 8 9 10 8 9 7 8 12 13 11 12 10 11 13 14 11 12 12 13 14 15 13 14 12 13 16 17 1 7 15 16 17 18 1 7 16 17 18 19 17 18 16 17 21 13 20 15 19 20 22 21 20 15 21 13 23 22 22 21 21 13 25 14 21 13 24 12 23 22 21 13 25 14 26 23 23 22 25 14 26 26 28 25 27 24 29 27 28 25 26 26 27 24 31 29 30 28 28 25 31 29 27 24 32 30 30 28 31 29 23 31 30 28 32 30 35 25 34 28 33 29 36 24 34 28 35 25 22 34 32 33 37 32 23 35 32 33 22 34 38 37 33 36 37 21 35 38 33 36 38 37 39 26 35 25 38 27 36 24 35 25 39 26 39 41 14 40 20 39 38 42 14 40 39 41 27 43 23 22 26 23 30 44 23 22 27 43 37 30 34 28 22 31 33 29 34 28 37 30 9 47 40 46 8 45 41 48 40 46 9 47 18 48 42 45 17 46 43 47 42 45 18 48 32 22 38 37 37 21 29 23 38 37 32 22 29 23 14 15 38 37 13 14 14 15 29 23 44 20 12 13 10 11 14 15 12 13 44 20 42 50 4 7 2 49 6 6 4 7 42 50 40 52 1 7 3 51 15 16 1 7 40 52 24 55 13 54 25 53 11 56 13 54 24 55 20 53 44 56 19 55 14 54 44 56 20 53 19 55 10 58 45 57 44 56 10 58 19 55 42 45 0 59 17 46 2 60 0 59 42 45 40 46 5 60 8 45 3 59 5 60 40 46 45 57 11 56 24 55 10 58 11 56 45 57 13 63 26 62 25 61 29 64 26 62 13 63 31 44 29 23 32 22 28 43 29 23 31 44 22 21 36 38 39 37 34 36 36 38 22 21 46 65 18 19 16 17 9 10 7 8 47 66 40 46 41 48 15 67 21 13 19 20 45 11 42 45 43 47 6 68 21 13 45 11 24 12 1 7 17 18 0 69 4 7 8 9 5 70 39 37 20 15 22 21</p>
                </polylist>
            </mesh>
        </geometry>
        <geometry id="mesh1">
            <mesh>
                <source id="points1">
                    <float_array id="pointarray1" count="24">70.95720672607422 -69.74585723876953 3.9083149433135986 8.326360702514648 -69.72964477539062 3.9083149433135986 70.95720672607422 -16.536636352539062 3.9083149433135986 8.326360702514648 -16.536636352539062 3.9083149433135986 -8.326360702514648 -16.536636352539062 -1.9877820014953613 -70.95720672607422 -16.536636352539062 -1.9877820014953613 -8.326360702514648 -69.72962951660156 -1.9877820014953613 -70.95720672607422 -69.71404266357422 -1.9877820014953613</float_array>
                    <technique_common>
                        <accessor count="8" source="#pointarray1" stride="3">
                            <param name="X" type="float"/>
                            <param name="Y" type="float"/>
                            <param name="Z" type="float"/>
                        </accessor>
                    </technique_common>
                </source>
                <source id="uvs1">
                    <float_array id="uvarray1" count="12">1.0789794921875 0.12420654296875 0.08795166015625 0.126220703125 1.0789794921875 0.99896240234375 0.08795166015625 0.99798583984375 0.08795166015625 0.99822998046875 1.0789794921875 0.99920654296875</float_array>
                    <technique_common>
                        <accessor count="6" source="#uvarray1" stride="2">
                            <param name="S" type="float"/>
                            <param name="T" type="float"/>
                        </accessor>
                    </technique_common>
                </source>
                <vertices id="vertices1">
                    <input semantic="POSITION" source="#points1"/>
                </vertices>
                <polylist count="4" material="Material1">
                    <input offset="0" semantic="VERTEX" source="#vertices1"/>
                    <input offset="1" semantic="TEXCOORD" source="#uvs1" set="0"/>
                    <vcount>3 3 3 3</vcount>
                    <p>2 2 1 1 0 0 3 3 1 1 2 2 6 1 5 5 4 4 7 0 5 5 6 1</p>
                </polylist>
            </mesh>
        </geometry>
    </library_geometries>
    <library_visual_scenes>
        <visual_scene id="VisualSceneNode">
            <node id="node0" name="m0" type="NODE">
                <instance_geometry url="#mesh0">
                    <bind_material>
                        <technique_common>
                            <instance_material symbol="Material1" target="#mat0">
                                <bind_vertex_input semantic="UVSET0" input_semantic="TEXCOORD" input_set="0"></bind_vertex_input>
                            </instance_material>
                        </technique_common>
                    </bind_material>
                </instance_geometry>
            </node>
            <node id="node1" name="m1" type="NODE">
                <instance_geometry url="#mesh1">
                    <bind_material>
                        <technique_common>
                            <instance_material symbol="Material1" target="#mat1">
                                <bind_vertex_input semantic="UVSET0" input_semantic="TEXCOORD" input_set="0"></bind_vertex_input>
                            </instance_material>
                        </technique_common>
                    </bind_material>
                </instance_geometry>
            </node>
        </visual_scene>
    </library_visual_scenes>
    <scene>
        <instance_visual_scene url="#VisualSceneNode"></instance_visual_scene>
    </scene>
</COLLADA>
