<?xml version="1.0"?>
<COLLADA xmlns="http://www.collada.org/2005/11/COLLADASchema" version="1.4.1">
    <asset>
        <contributor>
            <authoring_tool>J3D Ripoff Exporter</authoring_tool>
        </contributor>
        <created>2024-10-08T03:51:53.199Z</created>
        <modified>2024-10-08T03:51:53.199Z</modified>
		<unit meter="0.01" name="centimeter" ></unit>
        <up_axis>Y_UP</up_axis>
    </asset>
    <library_images>
        <image id="tex0">
            <init_from>hata.png</init_from>
        </image>
        <image id="tex1">
            <init_from>hata.png</init_from>
        </image>
    </library_images>
    <library_effects>
        <effect id="effect0">
            <profile_COMMON>
                <newparam sid="surface0">
                    <surface type="2D">
                        <init_from>tex1</init_from>
                    </surface>
                </newparam>
                <newparam sid="sampler0">
                    <sampler2D>
                        <source>surface0</source>
                    </sampler2D>
                </newparam>
                <technique sid="COMMON">
                    <blinn>
                        <diffuse>
                            <texture texture="sampler0" texcoord="UVSET0"></texture>
                        </diffuse>
                    </blinn>
                </technique>
            </profile_COMMON>
        </effect>
    </library_effects>
    <library_materials>
        <material id="mat0" name="hata">
            <instance_effect url="#effect0"></instance_effect>
        </material>
    </library_materials>
    <library_geometries>
        <geometry id="mesh0">
            <mesh>
                <source id="points0">
                    <float_array id="pointarray0" count="198">-0.03313799947500229 -7.497702121734619 140.5908966064453 -5.417445182800293 -5.224442958831787 137.1369171142578 -7.558034896850586 0.048009999096393585 140.5908966064453 -4.6953349113464355 0.03760499879717827 134.18995666503906 -5.284804821014404 5.432301998138428 137.1369171142578 -0.02273399941623211 4.710204124450684 134.18995666503906 -0.01232600025832653 7.572900772094727 140.5908966064453 5.371967792510986 5.2996368408203125 137.1369171142578 7.512554168701172 0.027180999517440796 140.5908966064453 4.649864196777344 0.03759999945759773 134.18995666503906 5.239307880401611 -5.357097148895264 137.1369171142578 -0.022739000618457794 -4.635001182556152 134.18995666503906 -0.022735999897122383 3.6054580211639404 3.8730878829956055 -3.5905981063842773 0.03760499879717827 128.0322723388672 -3.5905981063842773 0.03760499879717827 3.8730878829956055 -0.02274000085890293 -3.530247926712036 128.0322723388672 -0.02274000085890293 -3.530247926712036 3.8730878829956055 3.545124053955078 0.03759999945759773 128.0322723388672 3.545124053955078 0.03759999945759773 3.8730878829956055 -0.022735999897122383 3.6054580211639404 128.0322723388672 0.1040550023317337 -103.92978739738464 67.81073188781738 -1.459650993347168 -103.20293307304382 82.832594871521 0.1040550023317337 -78.87901186943054 67.81072616577148 0.1040550023317337 -78.87901759147644 97.85446149110794 0.1040550023317337 -53.82823634147644 67.81072235107422 0.1040550023317337 -53.82823634147644 127.8981876373291 0.1040550023317337 -28.777464628219604 97.85445249080658 0.1040550023317337 -28.777464628219604 127.8981876373291 1.4340829849243164 -3.7266819486394525 112.87632083892822 0.10405399650335312 -4.0656459629535675 127.8981876373291 -0.022742999717593193 -6.8610100746154785 131.08863830566406 -6.9213547706604 0.0376100018620491 131.08863830566406 -0.022732000797986984 6.936203956604004 131.08863830566406 6.875881195068359 0.03759999945759773 131.08863830566406 0.1040550023317337 -103.92978739738464 97.85446149110794 1.9295049905776978 -103.20293307304382 112.87632942199707 0.1040550023317337 -78.87901759147644 127.89819717407227 0.1040550023317337 -103.92978739738464 127.89819717407227 -0.022734999656677246 5.636494159698486 0.14726899564266205 5.576169967651367 0.03759099915623665 0.14726899564266205 -0.02274099923670292 -5.561302185058594 0.14726899564266205 -5.621644020080566 0.03760499879717827 0.14726899564266205 -0.270220011472702 -103.92978739738464 67.81073188781738 -0.270220011472702 -78.87901186943054 67.81072616577148 -1.8339259624481201 -103.20293307304382 82.832594871521 -0.270220011472702 -78.87901759147644 97.85446149110794 -0.270220011472702 -103.92978739738464 97.85446149110794 1.5552300214767456 -103.20293307304382 112.87632942199707 -0.2702209949493408 -4.0656459629535675 67.81073188781738 -1.4284329414367676 -3.7266819486394525 82.832594871521 -0.270220011472702 -28.777464628219604 67.81072235107422 -0.270220011472702 -28.777464628219604 97.85445249080658 -0.270220011472702 -53.82823634147644 67.81072235107422 -0.270220011472702 -53.82823634147644 127.8981876373291 0.10405399650335312 -4.0656459629535675 67.81073188781738 0.1040550023317337 -28.777464628219604 67.81072235107422 -1.0541590452194214 -3.7266819486394525 82.832594871521 0.1040550023317337 -4.370475947856903 97.85446149110794 -0.02273700013756752 0.03759999945759773 -4.573060989379883 -0.270220011472702 -78.87901759147644 127.89819717407227 -0.270220011472702 -28.777464628219604 127.8981876373291 1.0598080158233643 -3.7266819486394525 112.87632083892822 -0.2702209949493408 -4.0656459629535675 127.8981876373291 -0.022734999656677246 0.03760499879717827 144.7322998046875 -0.270220011472702 -4.370475947856903 97.85446149110794 -0.270220011472702 -103.92978739738464 127.89819717407227</float_array>
                    <technique_common>
                        <accessor count="66" source="#pointarray0" stride="3">
                            <param name="X" type="float"/>
                            <param name="Y" type="float"/>
                            <param name="Z" type="float"/>
                        </accessor>
                    </technique_common>
                </source>
                <source id="uvs0">
                    <float_array id="uvarray0" count="108">0.9765625 0.89453125 0.97265625 0.9453125 0.94921875 0.89453125 0.94921875 0.984375 0.92578125 0.9453125 0.92578125 0.984375 0.92578125 0.89453125 0.97265625 0.984375 0.97265625 0.07421875 0.953125 0.8671875 0.953125 0.07421875 0.9296875 0.8671875 0.9296875 0.07421875 0.97265625 0.8671875 0.00390625 0.015625 0.00390625 0.2578125 0.22265625 0.015625 0.22265625 0.5 0.4375 0.015625 0.4375 0.98828125 0.65625 0.5 0.65625 0.98828125 0.87109375 0.74609375 0.87109375 0.98828125 0.94921875 0.96484375 0.93359375 0.96484375 0.92578125 0.98046875 0.94921875 0.98046875 0.9765625 0.98046875 0.96875 0.96484375 0.953125 0.90234375 0.9765625 0.90234375 0.96875 0.953125 0.953125 0.953125 0.9375 0.953125 0.9296875 0.90234375 0.00390625 0.5 0.00390625 0.74609375 0.22265625 0.98828125 0.00390625 0.98828125 0.97265625 0.90234375 0.96484375 0.953125 0.87109375 0.015625 0.87109375 0.2578125 0.65625 0.015625 0.87109375 0.5 0.96875 0.9765625 0.94921875 0.9765625 0.94921875 0.95703125 0.93359375 0.9765625 0.97265625 0.8984375 0.9453125 0.8984375 0.9453125 0.91796875 0.91796875 0.8984375</float_array>
                    <technique_common>
                        <accessor count="54" source="#uvarray0" stride="2">
                            <param name="S" type="float"/>
                            <param name="T" type="float"/>
                        </accessor>
                    </technique_common>
                </source>
                <vertices id="vertices0">
                    <input semantic="POSITION" source="#points0"/>
                </vertices>
                <polylist count="92" material="Material1">
                    <input offset="0" semantic="VERTEX" source="#vertices0"/>
                    <input offset="1" semantic="TEXCOORD" source="#uvs0" set="0"/>
                    <vcount>3 3 3 3 3 3 3 3 3 3 3 3 3 3 3 3 3 3 3 3 3 3 3 3 3 3 3 3 3 3 3 3 3 3 3 3 3 3 3 3 3 3 3 3 3 3 3 3 3 3 3 3 3 3 3 3 3 3 3 3 3 3 3 3 3 3 3 3 3 3 3 3 3 3 3 3 3 3 3 3 3 3 3 3 3 3 3 3 3 3 3 3</vcount>
                    <p>2 2 1 1 0 0 3 3 1 1 2 2 4 4 3 3 2 2 5 5 3 3 4 4 6 6 5 5 4 4 7 4 5 5 6 6 8 2 7 4 6 6 9 3 7 4 8 2 10 1 9 3 8 2 11 7 9 3 10 1 0 0 11 7 10 1 1 1 11 7 0 0 14 10 13 9 12 8 15 11 13 9 14 10 16 12 15 11 14 10 17 9 15 11 16 12 18 10 17 9 16 12 19 13 17 9 18 10 12 8 19 13 18 10 13 9 19 13 12 8 22 16 21 15 20 14 23 17 21 15 22 16 24 18 23 17 22 16 25 19 23 17 24 18 26 20 25 19 24 18 27 21 25 19 26 20 28 22 27 21 26 20 29 23 27 21 28 22 30 26 15 25 17 24 13 24 15 25 30 26 31 27 13 24 30 26 32 28 13 24 31 27 17 24 33 27 30 26 32 28 33 27 17 24 19 29 32 28 17 24 13 24 32 28 19 29 5 32 32 31 31 30 33 30 32 31 5 32 9 33 33 30 5 32 11 34 33 30 9 33 11 34 30 35 33 30 31 30 30 35 11 34 3 33 31 30 11 34 5 32 31 30 3 33 23 17 34 36 21 15 35 37 34 36 23 17 36 38 35 37 23 17 37 39 35 37 36 38 18 33 39 30 38 40 40 35 39 30 18 33 16 34 40 35 18 33 14 33 40 35 16 34 14 33 41 30 40 35 38 40 41 30 14 33 12 41 38 40 14 33 18 33 38 40 12 41 44 15 43 16 42 14 45 17 43 16 44 15 46 36 45 17 44 15 47 37 45 17 46 36 50 44 49 43 48 42 51 20 49 43 50 44 52 18 51 20 50 44 53 19 51 20 52 18 56 43 55 44 54 42 26 20 55 44 56 43 57 45 26 20 56 43 28 22 26 20 57 45 58 48 41 47 38 46 40 49 41 47 58 48 39 47 40 49 58 48 45 17 52 18 43 16 53 19 52 18 45 17 59 38 53 19 45 17 60 21 51 20 53 19 61 22 51 20 60 21 62 23 61 22 60 21 63 52 8 51 6 50 0 53 8 51 63 52 2 51 0 53 63 52 51 20 64 45 49 43 61 22 64 45 51 20 47 37 59 38 45 17 65 39 59 38 47 37 24 18 55 44 26 20 63 52 6 50 2 51 6 6 4 4 2 2 8 2 0 0 10 1 7 4 9 3 5 5 11 7 1 1 3 3 39 47 58 48 38 46 23 17 25 19 36 38</p>
                </polylist>
            </mesh>
        </geometry>
    </library_geometries>
    <library_controllers>
        <controller id="controller0">
            <skin source="#mesh0">
                <bind_shape_matrix>1 0 0 0 0 1 0 0 0 0 1 0 0 0 0 1</bind_shape_matrix>
                <source id="joints0">
                    <Name_array id="JointArr0" count="6">jointnode-1 jointnode0 jointnode1 jointnode2 jointnode3 jointnode4</Name_array>
                    <technique_common>
                        <accessor source="#JointArr0" count="6">
                            <param name="JOINT" type="Name" />
                        </accessor>
                    </technique_common>
                </source>
                <source id="matrices0">
                    <float_array id="MatArr0" count="96">1 0 0 0 0 1 0 0 0 0 1 0 0 0 0 1 1 0 0 0 0 1 0 0 0 0 1 0 0 0 0 1 1 0 0 0 0 1 0 3.7189929485321045 0 0 1 -97.20111846923828 0 0 0 1 1 0 0 0 0 1 0 28.651684522628784 0 0 1 -97.20111846923828 0 0 0 1 1 0 0 0 0 1 0 53.76054263114929 0 0 1 -97.20111846923828 0 0 0 1 1 0 0 0 0 1 0 78.78131747245789 0 0 1 -97.20111846923828 0 0 0 1</float_array>
                    <technique_common>
                        <accessor source="#MatArr0" count="6" stride="16">
                            <param type="float4x4" />
                        </accessor>
                    </technique_common>
                </source>
                <source id="weights0">
                    <float_array id="WeightArr0" count="1">1</float_array>
                    <technique_common>
                        <accessor source="#WeightArr0" count="1">
                            <param type="float" />
                        </accessor>
                    </technique_common>
                </source>
                <joints>
                    <input semantic="JOINT" source="#joints0" />
                    <input semantic="INV_BIND_MATRIX" source="#matrices0" />
                </joints>
                <vertex_weights count="66">
                    <input semantic="JOINT" offset="0" source="#joints0" />
                    <input semantic="WEIGHT" offset="1" source="#weights0" />
                    <vcount>1 1 1 1 1 1 1 1 1 1 1 1 1 1 1 1 1 1 1 1 1 1 1 1 1 1 1 1 1 1 1 1 1 1 1 1 1 1 1 1 1 1 1 1 1 1 1 1 1 1 1 1 1 1 1 1 1 1 1 1 1 1 1 1 1 1</vcount>
                    <v>1 0 1 0 1 0 1 0 1 0 1 0 1 0 1 0 1 0 1 0 1 0 1 0 1 0 1 0 1 0 1 0 1 0 1 0 1 0 1 0 5 0 5 0 4 0 4 0 3 0 3 0 2 0 2 0 2 0 2 0 1 0 1 0 1 0 1 0 5 0 5 0 4 0 5 0 1 0 1 0 1 0 1 0 5 0 4 0 5 0 4 0 5 0 5 0 2 0 2 0 2 0 2 0 3 0 3 0 2 0 2 0 2 0 2 0 1 0 4 0 2 0 2 0 2 0 1 0 2 0 5 0</v>
                </vertex_weights>
            </skin>
        </controller>
    </library_controllers>
    <library_visual_scenes>
        <visual_scene id="VisualSceneNode">
            <node id="node0" name="m0" type="NODE">
                <instance_controller url="#controller0">
                    <skeleton>#jointnode-1</skeleton>
                    <bind_material>
                        <technique_common>
                            <instance_material symbol="Material1" target="#mat0">
                                <bind_vertex_input semantic="UVSET0" input_semantic="TEXCOORD" input_set="0"></bind_vertex_input>
                            </instance_material>
                        </technique_common>
                    </bind_material>
                </instance_controller>
            </node>
            <node id="jointnode-1" name="root" sid="jointnode-1" type="JOINT">
                <node id="jointnode0" name="poll" sid="jointnode0" type="JOINT">
                    <node id="jointnode1" name="cloth_1" sid="jointnode1" type="JOINT">
                        <translate>0 -3.7189929485321045 97.20111846923828</translate>
                        <node id="jointnode2" name="cloth_2" sid="jointnode2" type="JOINT">
                            <translate>0 -24.93269157409668 0</translate>
                            <node id="jointnode3" name="cloth_3" sid="jointnode3" type="JOINT">
                                <translate>0 -25.108858108520508 0</translate>
                                <node id="jointnode4" name="cloth_4" sid="jointnode4" type="JOINT">
                                    <translate>0 -25.020774841308594 0</translate>
                                </node>
                            </node>
                        </node>
                    </node>
                </node>
            </node>
        </visual_scene>
    </library_visual_scenes>
    <scene>
        <instance_visual_scene url="#VisualSceneNode"></instance_visual_scene>
    </scene>
</COLLADA>
