<?xml version="1.0"?>
<COLLADA xmlns="http://www.collada.org/2005/11/COLLADASchema" version="1.4.1">
    <asset>
        <contributor>
            <authoring_tool>J3D Ripoff Exporter</authoring_tool>
        </contributor>
        <created>2024-10-08T03:45:24.423Z</created>
        <modified>2024-10-08T03:45:24.423Z</modified>
		<unit meter="0.01" name="centimeter" ></unit>
        <up_axis>Y_UP</up_axis>
    </asset>
    <library_images>
        <image id="tex0">
            <init_from>jugem_all_tx.png</init_from>
        </image>
    </library_images>
    <library_effects>
        <effect id="effect0">
            <profile_COMMON>
                <newparam sid="surface0">
                    <surface type="2D">
                        <init_from>tex0</init_from>
                    </surface>
                </newparam>
                <newparam sid="sampler0">
                    <sampler2D>
                        <source>surface0</source>
                    </sampler2D>
                </newparam>
                <technique sid="COMMON">
                    <blinn>
                        <diffuse>
                            <texture texture="sampler0" texcoord="UVSET0"></texture>
                        </diffuse>
                    </blinn>
                </technique>
            </profile_COMMON>
        </effect>
    </library_effects>
    <library_materials>
        <material id="mat0" name="dou">
            <instance_effect url="#effect0"></instance_effect>
        </material>
    </library_materials>
    <library_geometries>
        <geometry id="mesh0">
            <mesh>
                <source id="points0">
                    <float_array id="pointarray0" count="63">-0.6491109728813171 -0.803193986415863 -0.9996439814567566 0.13319599628448486 -1.182898998260498 0.7531759738922119 -1.8830039501190186 5.448493957519531 2.81046199798584 -2.4023940563201904 3.9498040676116943 4.146329879760742 -9.318737030029297 9.35211181640625 9.925729751586914 -3.757612943649292 4.339522838592529 2.9850029945373535 -0.4273129999637604 -0.8766840100288391 0.5529810190200806 3.5210959911346436 5.1785759925842285 -0.7785530090332031 1.6428760290145874 -1.1978529691696167 0.7163829803466797 5.011603832244873 3.1298069953918457 -1.3338019847869873 0.1509760022163391 -1.368360996246338 -1.3955639600753784 3.469799041748047 3.612689971923828 -2.4022700786590576 0.6101790070533752 -1.096848964691162 -0.8889939785003662 0.004251999780535698 -1.2444109916687012 1.03398597240448 0.7475339770317078 7.0997138023376465 -1.1963820457458496 0.18779399991035461 7.429724216461182 0.36795100569725037 -0.9129459857940674 16.301965713500977 -3.8135499954223633 -1.0241169929504395 7.08277702331543 -0.7512549757957458 12.38158893585205 6.562442779541016 -8.858022689819336 -2.1575629711151123 -0.8700659871101379 -0.5948399901390076 -1.3040369749069214 -1.251315951347351 0.10041499882936478</float_array>
                    <technique_common>
                        <accessor count="21" source="#pointarray0" stride="3">
                            <param name="X" type="float"/>
                            <param name="Y" type="float"/>
                            <param name="Z" type="float"/>
                        </accessor>
                    </technique_common>
                </source>
                <source id="uvs0">
                    <float_array id="uvarray0" count="34">0.734375 0.3828125 0.734375 0.29296875 0.6015625 0.3828125 0.6015625 0.29296875 0.50390625 0.3828125 0.73828125 0.37890625 0.58984375 0.37890625 0.73828125 0.29296875 0.58984375 0.29296875 0.73828125 0.2890625 0.5859375 0.29296875 0.73046875 0.296875 0.73046875 0.3828125 0.6171875 0.296875 0.6171875 0.37890625 0.51171875 0.37890625 0.5078125 0.37890625</float_array>
                    <technique_common>
                        <accessor count="17" source="#uvarray0" stride="2">
                            <param name="S" type="float"/>
                            <param name="T" type="float"/>
                        </accessor>
                    </technique_common>
                </source>
                <vertices id="vertices0">
                    <input semantic="POSITION" source="#points0"/>
                </vertices>
                <polylist count="27" material="Material1">
                    <input offset="0" semantic="VERTEX" source="#vertices0"/>
                    <input offset="1" semantic="TEXCOORD" source="#uvs0" set="0"/>
                    <vcount>3 3 3 3 3 3 3 3 3 3 3 3 3 3 3 3 3 3 3 3 3 3 3 3 3 3 3</vcount>
                    <p>2 2 1 1 0 0 3 3 1 1 2 2 4 4 3 3 2 2 5 3 3 3 4 4 2 2 5 3 4 4 0 0 5 3 2 2 8 7 7 6 6 5 9 8 7 6 8 7 10 9 9 8 8 7 11 10 9 8 10 9 6 5 11 10 10 9 7 6 11 10 6 5 14 13 13 12 12 11 15 14 13 12 14 13 16 15 15 14 14 13 17 13 15 14 16 15 14 13 17 13 16 15 12 11 17 13 14 13 18 16 7 6 9 8 11 10 7 6 18 16 9 8 11 10 18 16 19 1 5 3 0 0 1 1 5 3 19 1 15 14 20 11 13 12 17 13 20 11 15 14 1 1 3 3 5 3 12 11 20 11 17 13</p>
                </polylist>
            </mesh>
        </geometry>
    </library_geometries>
    <library_visual_scenes>
        <visual_scene id="VisualSceneNode">
            <node id="node0" name="m0" type="NODE">
                <instance_geometry url="#mesh0">
                    <bind_material>
                        <technique_common>
                            <instance_material symbol="Material1" target="#mat0">
                                <bind_vertex_input semantic="UVSET0" input_semantic="TEXCOORD" input_set="0"></bind_vertex_input>
                            </instance_material>
                        </technique_common>
                    </bind_material>
                </instance_geometry>
            </node>
        </visual_scene>
    </library_visual_scenes>
    <scene>
        <instance_visual_scene url="#VisualSceneNode"></instance_visual_scene>
    </scene>
</COLLADA>
