<?xml version="1.0"?>
<COLLADA xmlns="http://www.collada.org/2005/11/COLLADASchema" version="1.4.1">
    <asset>
        <contributor>
            <authoring_tool>J3D Ripoff Exporter</authoring_tool>
        </contributor>
        <created>2024-10-08T03:54:59.737Z</created>
        <modified>2024-10-08T03:54:59.737Z</modified>
		<unit meter="0.01" name="centimeter" ></unit>
        <up_axis>Y_UP</up_axis>
    </asset>
    <library_images>
        <image id="tex0">
            <init_from>jugem_all_03.png</init_from>
        </image>
    </library_images>
    <library_effects>
        <effect id="effect0">
            <profile_COMMON>
                <newparam sid="surface0">
                    <surface type="2D">
                        <init_from>tex0</init_from>
                    </surface>
                </newparam>
                <newparam sid="sampler0">
                    <sampler2D>
                        <source>surface0</source>
                    </sampler2D>
                </newparam>
                <technique sid="COMMON">
                    <blinn>
                        <diffuse>
                            <texture texture="sampler0" texcoord="UVSET0"></texture>
                        </diffuse>
                    </blinn>
                </technique>
            </profile_COMMON>
        </effect>
    </library_effects>
    <library_materials>
        <material id="mat0" name="clear">
            <instance_effect url="#effect0"></instance_effect>
        </material>
    </library_materials>
    <library_geometries>
        <geometry id="mesh0">
            <mesh>
                <source id="points0">
                    <float_array id="pointarray0" count="1290">11.137788210120142 90.2200539727569 50.146392895393035 14.987495601782502 85.24211004727215 45.192945296435695 8.688188306413378 80.51577214104229 49.92472531952724 15.102270442886796 79.65403457871057 49.230595107406764 14.023538351422054 72.73279413395251 50.1988012336905 18.9503940675002 78.79225075677105 45.40327761833174 19.436801636119142 71.54900099047924 43.744176665321355 21.9902024101724 82.68629074656197 34.45527100482291 21.68358391904528 72.78969546647015 33.00935061433451 17.23240255464532 84.64001094815607 23.810866224452653 15.147661742265733 76.0847125299582 20.709980617489204 9.79841287921652 86.9915229525726 17.53127095347774 10.327153031692667 78.83146777907601 16.329399820923047 0.003542425469327588 87.9015464679594 14.277307397654049 0.00326366542338703 80.06128328205257 12.252012241784449 -9.791716928058586 86.99246207131908 17.530331834730173 -10.321126110873555 78.83245857744335 16.328409976183163 -15.142316215469025 76.08616458190531 20.708528565540423 -6.173114594256831 68.2649088176984 20.90371136955318 -17.454533973331518 67.89979254185319 31.561323048401597 -6.959640388936689 64.83866324521507 28.30105998216166 -12.778119894010121 64.79047791660486 38.666293387887706 0.0011222357875894328 61.06859505874011 37.99238366543568 0.0006626865432061888 63.28103284289913 49.81193397691046 12.780658810025253 64.78925171692887 38.66751863393649 8.438373447555408 66.76011726625156 48.08274431633078 -19.434101289883184 71.55086034480325 43.74231325807366 -21.98554555039839 82.6884093623317 34.45316287896532 -18.947156428385142 78.79406368850047 45.40145896464579 -18.94683343797705 87.68975220791394 36.06093506611109 -15.348849047343617 85.24356622931116 45.1914910216522 -14.96608514607557 91.43044322232006 45.38955795165848 -11.133904014607115 90.22112354856357 50.145325226842324 -11.023468038112055 97.04290838956092 49.25799481080533 0.0016954389507383262 89.37891006985485 54.262171382042176 0.002095043615116092 96.92515493992255 53.4517548483184 11.028081822710597 97.04185127436735 49.259051926000126 7.266410120429217 103.3898354590401 47.60293716420776 15.203217063900548 100.06392448186884 39.378019859496774 8.042705404159944 106.65544380290603 33.78773142483256 13.770936256488708 100.92349640282009 29.520354581088 5.4189105582259165 101.4499641984103 23.027874978116625 15.508229085979895 90.47859116572049 26.34538967733484 -21.679735378229 72.79177423294934 33.007270894132894 -17.226534057449243 84.64166285315491 23.809214319451918 -15.502042868769255 90.48007774733385 26.343902082392226 -15.197370901774049 100.06538183623292 39.37656155141099 -13.764052083553816 100.92481638507589 29.51903459883068 -8.035683726676169 106.65621457455455 33.78696065318316 -5.411355415679811 101.45048338358214 23.027354839224177 5.256157948451864 92.26545440760574 18.319066563651322 18.951815690489656 87.68793350142629 36.0627528190637 4.689664465223974 75.5528973930945 59.62605218569144 0.0006368607939141939 74.2411696800917 61.269078777593776 2.459513786466327 77.83069541131077 60.64502782618829 -2.457835063927516 77.8309311409631 60.644792096535696 0.001026553003940733 79.79668609445905 58.71642903242944 -3.292066053559439 78.90764222736587 57.21242661591056 0.002687721051324144 77.38342920369905 21.651007267311527 -4.688105460277101 75.55334694802977 59.625602630755665 -2.63977842420255 72.0705277601122 58.56355089117298 2.641109406034166 72.07027865611227 58.563804048094724 3.2941770836946134 78.90732172528247 57.21274234985135 -67.91399305472576 56.411861265226825 23.36897739379691 -63.272984318567076 58.22367266958242 25.233661941914136 -63.37391094226251 52.11875485526678 21.573343210471737 -54.171381926392044 57.866258710146646 24.814686713447756 -59.60203713637945 52.676103742020835 20.913238576161728 -58.12317449904475 51.119375477795785 24.807738881625315 -64.81525863245668 46.978363356167485 21.14173172468048 -63.191255760153375 46.31768420328429 25.202216546385916 -63.2859396200021 44.27825025800537 19.64319906175903 -61.66193007212006 43.61756939570154 23.703683694711675 -52.09175386508714 47.930197293080305 18.542026704810905 -52.35547706621544 51.375254825969236 23.673710220026916 -49.403438023898616 53.07123644842961 17.63017270997102 -49.658094337477294 57.68546235249092 20.372837106513163 -62.225075586789956 63.14809577349467 20.1231923337909 -68.59118482763053 58.80542055319891 19.22193817564149 -68.1692743804353 60.993311788116905 15.16045781299509 -73.82357159730279 48.8378622391925 13.074786397182915 -73.40182066782313 51.02582760471795 9.013322796232233 -68.72795798779217 48.42224969916444 7.881233863888839 -63.7947835498414 55.527925639048874 12.583759115293889 -64.07214710138338 53.134560192826854 16.609257392842885 -60.51472297611577 55.427505347265694 14.159754853092457 -14.586362882524623 61.72061878468352 13.359100290467707 -17.394229856014814 61.884416274193825 17.281769910653754 -18.041029235492154 56.3131204062862 11.079247351843499 -33.63863016177013 63.00762294245961 17.73113399123554 -34.02320107162258 61.735077286943685 12.098784873267576 -34.67058161187231 61.73557129164279 12.09815540713346 -33.67764304670766 56.98893151376715 10.584607626698462 -34.3766800645842 57.00561277653004 10.580053123047495 -34.40281837749493 53.684599681144796 14.042727013927697 -48.96880836249238 56.12060799126475 12.0222072265003 -48.74659932816763 53.31611441693085 17.03222479638726 -60.94761949135228 65.5642250241462 11.697744286600837 -66.64826552765287 62.97553547116825 11.18452801187777 -73.34118453204108 51.36836650417906 8.145463362292784 -68.66732307960753 48.764793241667995 7.013366827652062 -71.8203378574392 53.350647662931195 4.169499406885065 -67.43703303926323 50.225822896164054 3.954185615744256 -62.541719432628035 59.298823127969236 8.61943514365278 -14.021340543784147 72.73413855952664 50.19745680811483 -7.266208776659462 70.78864828810748 50.608749212014594 -8.43654926628496 66.76092121562564 48.08193536040563 -3.3883548506156593 67.92563242548316 53.6979662534219 3.389752061919397 67.92531250092627 53.69829118452931 7.268181162866047 70.78795654004225 50.60944596663075 24.032293847210664 79.33743471171208 29.63296840431847 20.920164819229917 82.80702362022133 21.997862925475584 -0.029416030029080602 80.46132535382064 26.85148014650781 18.720801825905014 93.58934061621711 21.982737583068502 -0.0025645507065602874 94.59324821940413 34.36070750734922 19.729100998398753 96.95893556242639 29.484054428230987 0.03164797329389173 91.39687690014141 42.18840661384558 23.058468570526635 93.77894465570648 37.30683930459667 24.97481154453639 82.99663932022126 37.32195823213624 -12.855534803251192 61.73279564299271 17.13557692017897 -31.708095951304177 56.93632820320452 20.915500262912495 -32.72145772858816 56.91110426251005 21.014800854310536 -48.76637528754896 62.69257923809949 18.09006312324421 -49.58331690348421 62.62938528673024 18.16188885472486 -24.017877728588537 82.08396344730384 30.481522503066248 -24.346909403949844 84.04230094689052 33.249878848739776 -23.86709698886851 64.52460213896813 42.5824739907129 -24.03291181919768 66.48291868444791 45.365409351278046 -22.688987270908644 63.142392095455875 43.7153768063955 -22.85480209956905 65.10074154260806 46.498310258034756 -14.763215850914431 59.03742120931576 47.17653245811154 -14.929019207588269 61.24269637571748 49.768147004207854 -15.099316210943547 79.65548239323186 49.22914538544373 -8.685218063878311 80.51660499369682 49.92389246687174 11.362934100958043 74.63959665188206 52.16043340592468 6.01245165712139 76.38336638351913 53.69464495139013 7.528400423472031 79.81852271695757 53.45960191651663 -0.09710361562503501 80.72793327875416 55.58340695936505 -0.09697106546779433 83.6067181444071 55.69717963018109 -6.213455671433658 76.37274963197531 53.9421196254927 -7.725853341579654 79.80856986799205 53.69551972488488 -12.197010039451262 79.0879660519541 52.42972447528683 -74.05989448492079 45.430444879048764 18.042297398860775 -70.97908112900393 43.06241071503745 16.541063000124122 -70.67513476201864 45.01489194834061 12.727372785756273 6.963174425106294 64.83799580826981 28.301727419107685 17.458052158788846 67.898122942755 31.56299670042324 6.177685414743994 68.2643167405689 20.904303446683347 0.0010758731783108754 78.67459663537629 56.58637494396985 0.0008312892969134732 72.28388672952525 55.29771417157022 -5.249034307221969 92.2659580093215 18.31856296193499 -16.581780983883306 93.06877697507923 25.022904216506067 -16.581890519719593 89.15809074365885 23.397148683315553 -9.034400600667427 91.54000922979284 15.876526540346305 0.03920006117052809 92.08697483011146 20.07659081364851 9.113151847770862 91.53913735849426 15.877396504388697 16.659692274280328 89.15649528926015 23.3987422304589 16.65980181020805 93.06718342802915 25.02449776355797 0.003204689595525399 107.05645080260558 40.43570234471539 -7.261025625757011 103.39053188052284 47.602240742724206 14.970539312013573 91.42900620221253 45.39099306451048 -13.725996508174433 57.17634354238197 20.16363313325193 -16.09710976736102 53.483541044152624 18.130987875210966 0.0013812608832174484 81.98181973771615 53.41887326122104 -22.192181487678397 82.12718219231601 32.88698391084056 -21.718093173704222 66.01102169554623 44.11227564653921 -74.73708651464636 47.82402158275022 13.895268739970179 7.529008382676379 93.10034124742744 54.05931844885051 -0.0967238876425223 89.00670179549165 55.94100416834772 -0.09658584948695918 92.00538380956459 56.06019368365388 -7.7252444284723945 93.09039316678778 54.295236257035896 -6.2125348345581175 96.48986242301983 54.85046463125196 -11.554336698445429 98.36620526354598 53.44868085055785 -18.789509040743596 93.6140279061557 21.960414277852625 -19.733536641010918 96.94802156648812 29.485679226706864 -24.69478794497809 88.95706882105033 28.677077440393834 -22.994478361395117 93.73526220487233 37.31828469592506 -24.909003802746327 82.95729748373572 37.311290991335504 -16.582065602018393 89.70548178916339 27.59677749828534 -9.034291064976859 95.45069546135896 17.50228511337369 -6.558625223749776 56.95983295540648 50.64330153163949 -11.987772187097212 58.900327646123294 53.27397357148039 -8.522628586396351 62.958402500417144 49.883667259697766 -15.716094885320393 61.555893010024185 49.0998642017455 -14.631386545781904 61.969439697973414 46.90475743637391 -49.183230374251956 62.216418635900276 12.58578385510401 -69.00516266877946 46.028795176004316 11.906704456365855 -24.026554116877016 79.33371552562447 29.598353867832657 -20.97830167839407 82.83607728693376 21.953414101017238 24.693969679882255 88.95889754037367 28.682959860513634 0.0018988814572372778 47.82286258988108 8.587449567716499 0.0015197953201683378 62.46171843491632 31.134087721168378 0.002387972986909619 68.43179520420031 18.993874138224452 -49.6700911361751 56.436626985312756 11.618151711793715 -53.38883379660677 58.28346774337117 8.810905761136352 -53.217455025512955 65.27510496452526 11.109068367534615 16.659517191981525 89.70388633476468 27.59837104542868 9.113261383552869 95.44982549740901 17.50315507732465 -16.272959172385484 97.58323684822324 52.074228427803924 -12.196331004416635 93.92254520674028 53.09955127846045 0.0325579970915084 80.61674377902742 42.19246731794078 22.88235557383902 86.65049652346934 49.512365198912555 22.350993861699774 82.44729671362552 49.46969455191325 17.74003963465135 84.68204465558688 50.867481546915315 16.16004414090453 81.32027858661239 51.15325728170967 17.74021390688684 88.48929052200145 51.03938765682928 22.351378050430604 90.84049859031164 49.84867337536775 19.82382326973665 95.00566326583058 50.73685084190858 16.09092462225772 97.59018121788263 51.88748984933993 16.160524376349436 91.81176877300823 51.626978427424895 12.005623241110852 93.93120695413074 52.88308253014575 11.364020557539199 98.37492854447434 53.23215056870513 6.013372493928358 96.50047965149221 54.60299186447517 -8.664363001803126 58.97776096977961 44.97410702611438 -56.07999569505917 51.71489644978891 18.02070548647821 -13.699833541566754 61.7583118802355 47.168678638132796 -19.661247106986927 90.66205402938114 31.454224787857772 -21.67134360684928 89.09334287328238 49.87760122017634 -19.993239330782547 86.49428579417396 31.08770183003274 -22.00334041132736 84.92556968199649 49.606626892349645 21.66787645303408 84.92347615536636 49.60872041898219 21.33625135647996 89.09127925225094 49.879662933952936 19.659701328076473 86.49238298982276 31.089603680848963 19.328073558348542 90.66018494525733 31.45609530256379 -12.129502787829589 54.91968563846574 48.36441333810273 -15.77976029954535 59.76779452118962 46.89449871679599 -16.27396840631307 75.5349537048582 51.0786861890086 -11.555423155255186 74.63086860258208 52.37696368800597 -20.0002641409045 78.21372543554988 50.14210938068588 -16.342589555765986 81.31349233592611 51.33651210490346 -17.91949015418833 84.67585654424211 51.04077361086956 16.089915388535875 75.54190427349208 50.89194951759609 19.823052985154987 78.21927000324158 49.978898916451136 12.004944206259102 79.0966316140418 52.213255726789264 -23.053389251444813 86.64610809397242 49.65628922426376 -22.523355486463505 82.44270306551093 49.616969179367175 -22.522969390841247 90.83589540536244 49.99594800337027 -17.91931397515283 88.4830947813536 51.21268353593795 -16.342109320366806 91.80498156864762 51.810233250664425 -19.999495763945784 95.00011297618445 50.90006130632619 -14.836125678115417 76.05935291238946 15.965937545480942 0.0022277551676761504 52.54954266283944 6.432924429921662 -24.39587486474903 59.22146137560097 13.362829341789185 -26.40785051930171 41.95359873716117 -0.7343835914061321 -24.182272042787417 63.19835639121578 6.064097384243086 -24.52048128042572 47.5174599895582 -6.3524566459564475 0.0030977520354208044 46.63180372451208 -17.549613127623473 -13.537639331744245 35.84857218761626 -21.41228997002003 13.543161616089158 35.84727336538924 -21.41099103017308 -13.97625340757099 29.731795396933837 -18.055814695933805 13.980871238264122 29.73045517815473 -18.054474477153157 26.411977392755375 41.951065910507594 -0.731852108310327 24.400303840781643 59.21912140047777 13.365169463938122 24.52568598051353 47.51510806601732 -6.350106065973552 24.18778399805316 63.19603162271546 6.066417366595566 14.44359991926486 78.64357064677826 8.534095480053173 0.0036450947412143557 83.99506629620153 8.229133894277707 0.0032000907031096894 81.5833002040801 15.204506075421584 -14.436842633969295 78.6449497536633 8.532711469397595 -22.44795827419278 62.246333326309376 8.45840304920719 -23.31528025182847 46.76048004658704 -3.864184466945502 -18.816306613482027 58.170857849707396 -12.900036307511682 -12.37631810524579 35.20989610334314 -19.794289417674005 -9.4025518919486 47.9092750351245 -25.01667653550622 12.38162403734393 35.208703756273785 -19.79310343555137 9.409574224487475 47.90837321260106 -25.01577471298175 18.823151002655962 58.16905347573935 -12.898231933541556 8.629826583842839 62.73960982473346 -26.165988756205714 9.017958597550429 80.01758210950894 -6.459256273885308 0.004509946536870733 75.12860216247873 -18.573941887768985 -9.009630204759555 80.01845707108359 -6.46012142792304 -8.621267241229528 62.74043198762429 -26.16681481519594 -0.11607633925857229 77.22418485156237 4.658971591581115 12.535529829816793 62.90864970892986 17.63648544463561 12.44995002198079 66.9054221593594 20.49796821568035 11.233853819627182 58.3098623409767 23.02876099399303 11.469099607032295 61.42754177108499 27.258776037502795 -0.1181137625307368 55.34177621485722 27.071314721328903 -0.11810973354105217 58.9462424041027 30.59173569796638 -11.469541971704306 58.31095070459687 23.02767263037161 -11.704892496694285 61.428652694321826 27.25766511426468 -12.770098888578973 62.90986281933571 17.635272334228368 -12.684418816678221 66.90662767281815 20.496762584601772 -0.11743812423522904 66.97026890230919 25.23178781075806 -38.250764282665266 24.778174192096934 -7.7418325622864295 -34.381672989315106 26.994636818549164 -26.777132378990586 -19.874228431340992 37.33172518076636 -14.015986561787502 0.0029581916540504668 35.72335423883642 -26.068319290916836 19.87914176229078 37.329819469290626 -14.014079896635254 34.386812875598174 26.99134016993689 -26.773835730374525 38.25386658386378 24.774502870663014 -7.738166009219875 46.91876525215256 13.100348996580694 -13.857287961884943 44.97530604040358 7.316313013425679 0.10684902883307237 47.34194295452838 -2.685696593725108 -14.006468078785678 40.106292338946844 -14.855464021259424 -1.8747643878996645 42.09655665509076 -8.0519648342209 -29.117263743758333 33.12804527167559 -16.79587103675252 -21.751784074534687 19.877609709058266 -13.25422115717317 -32.59951860352086 49.58354838080551 53.05943969131703 17.62227509067447 49.85284330641929 56.442602966084664 11.578171073492117 34.02672776709013 53.67994869528403 14.044882283391132 34.00127754589389 57.000976006840254 10.582197254450215 33.3022304051976 56.98441242574527 10.58673159733135 34.29593002117414 61.73088504876396 12.10030742671402 33.64844102404687 61.73050036225985 12.100918191916922 33.26399567087532 63.003110560129 17.733252732071534 17.806317941520206 56.311400717215996 11.080967276152567 17.174819537741183 61.88264630944702 17.28332972941641 14.337307819032327 61.719217334483155 13.360486794125919 12.606123616136452 61.73157481754159 17.136794823273238 20.099622371790506 54.13118935779029 1.1027846758326725 20.92155858286237 41.23865949415498 -4.918091670774803 20.357851904888207 44.858690922283756 15.677130744424296 17.006191701076787 30.824660479184267 13.468783180681713 8.694763269015564 42.06292528497624 24.555050665835022 -0.11891996251377458 29.931398404898484 19.22935483292648 -8.932095401719065 42.06377028771906 24.55420566309123 -17.243590781555753 30.826311894419778 13.467131765444295 -20.430775625764536 44.86064675765381 15.675173330254434 -21.156112371283648 41.24067691521395 -4.920112299757879 -20.33339335853764 54.13312741512334 1.1008436961391457 12.77606356204455 65.67755466742163 2.8810118557132105 19.219245565772244 56.31133237080807 11.081035740179015 17.105307530092418 53.48195437114082 18.132582491970243 6.285445704921038 48.48722604367727 26.275835385727763 -40.857663470007076 17.174373448882196 4.785181209125546 -44.9746296655403 7.320626019735584 0.10252897426895854 -46.91619165491788 13.104848244445726 -13.861787209755146 -47.05326117605631 5.025398476704787 -25.685046453579183 -33.481426523350635 4.906976239519652 -37.66134554731127 -42.09455185472403 -8.047927896657393 -29.121305449698067 -19.87576239178499 -13.252315445606001 -32.60142812978749 -33.12757362504409 -16.792694850868184 -21.754962167771307 -20.329029087848646 42.62195771312079 19.345378914797614 -20.327911235259727 44.7572459005117 -1.877659615099219 0.0007030735943983424 36.6695060814287 21.899005864489983 20.332380342869463 44.75529289801249 -1.875710427295032 20.331258675766158 42.62000852550172 19.34732810241893 31.899778547532414 39.17074636507199 18.001529153814786 28.241733510544925 32.95320168687876 27.345359402867444 37.53618383332077 27.79963417198547 21.883055487962103 26.681280332997922 17.014397461073045 33.88147848909262 37.66890173824832 17.17060901392388 18.00180385934358 -16.561457925178264 33.32829335711872 30.64791628030525 -28.241203218783255 32.95590938638157 27.342651703361515 -31.897752433510718 39.17380471424647 17.99846508259089 -37.535635299486174 27.803234899422296 21.87945666786977 -37.14621679698025 35.70196082354279 0.11867919289788406 -0.0027570236173300976 -28.104665656351866 29.302877392237495 -0.0017030316646116407 -33.81907649530497 1.6229280212817498 -16.12702877223899 -34.86858118476 21.297135784209836 -17.38988957070928 -39.330049428483754 0.3939034532399765 -29.127294585075628 -30.68555631139304 18.491355852153976 -35.35751996818485 -29.466513365234924 -1.8783838732658111 -35.26998250029198 -22.12910567271363 17.998305471631326 -40.10755177589405 -14.851617747238723 -1.8786116155991035 -21.317816384144816 -32.31243177023386 -16.107343220299892 0.000022171056819667977 -24.74952509969155 -25.316316575764404 -10.218065999739348 -10.602199917871763 -42.397420556283826 -19.87398067878773 18.738577869693152 -37.77728185308826 0.0026380873890694987 9.468482855605513 -45.66663736842105 0.003009205556088165 27.872192270582467 -35.00449748809418 19.87938951488976 18.73667215821741 -37.77537614161033 -6.522290363274214 48.743935956708164 26.037679661292266 -17.35676094861267 53.4836008167966 18.130928220185357 -19.453956859873006 56.313187526751896 11.079180348996172 22.022852354660063 -18.81890396667105 32.57906256454669 35.53903604002837 -9.92528672530019 35.58827448664069 35.26612344732051 -22.13248324344114 18.001688764408613 45.75789250628324 -10.939011693874376 18.58765808247457 48.412500935028554 3.986862137624704 13.964303549954083 40.85883948516897 17.170456093531428 4.789105717038195 13.475856227657728 57.17503976533845 20.1649398326552 31.33230817833273 56.93214814335074 20.917554845608553 32.34564986931428 56.90673877497035 21.016884758223952 49.855842549866836 57.726892770374896 20.366918875695344 -22.02779146500618 -18.816792250933943 32.57695084880716 -35.5434146632715 -9.921878195328084 35.58486691033899 -45.78651798872332 -10.934621297379525 18.583267685974675 -44.081368561463194 5.025256009038958 28.758800681747523 -48.41347616789641 3.991504770100492 13.959662824821596 -37.66900015752758 17.174222496932682 17.99819037633062 33.485492267723195 4.90376261722294 -37.6581314481737 63.14897223946419 58.035712317784814 25.58172230090926 67.20225229110613 51.398693462776244 21.2175361752135 54.333774737522155 58.25085978176959 25.22539959745534 61.15184604647669 50.040973788804045 20.060531501270628 53.314408984566526 50.25393985246158 21.941589699962268 59.102977646450064 48.12550719812052 18.01002491984736 52.30766854714409 47.96723823817095 18.54360868779047 63.19340675511509 63.74150844606657 20.100528133420223 65.93644234653739 57.956442419041586 8.971829830434723 60.64841379377602 52.276856325870355 14.128231230056157 59.29361563354476 57.847185377670726 8.077415936050635 53.54861408002309 57.73222348348769 7.452109370784039 14.841918572834699 76.05793019554228 15.967360262329754 -29.684434534577115 1.7063470125345532 41.48501577178381 -12.399420891107352 -6.47388146010019 42.66630247603773 -18.10586607702056 7.720071923417872 41.948957351753435 -0.002070744441811397 5.82702790366258 48.918704930122864 -10.558593462696003 23.665999200349464 43.13549160571381 10.556717157633061 23.664985059583465 43.136503839132345 16.121636009607816 -34.870127132946344 21.29868173239796 29.122571766656836 -30.68834871460882 18.494148255372963 35.35485169534672 -29.46990510789814 -1.874993084273013 12.394697933093482 -6.475071003233565 42.667491065498155 -0.0028988006143875903 -18.47015750555027 41.894870709677924 29.68061278378513 1.703500195694889 41.487861634952424 18.10250602791676 7.718336153345998 43.30196570638779 -14.496990875808669 75.33547004866149 10.873113340495197 0.0034534442838782074 81.49293260123055 9.724851748177064 14.50320742223573 75.33408934918262 10.874504082750457 22.453155133055155 62.24418913705377 8.460557516476957 44.103129068996 5.021027634939701 28.76303000952596 21.316252960535987 -32.3144755777101 -16.105297505472663 37.14961280504785 35.698395388424856 0.12224081332265835 49.36366094068372 62.27075739772106 12.558025598634726 53.357559569002916 65.65104418335585 11.081206448116179 49.76618705889294 62.68637650987561 18.17090850810224 16.56170712931707 33.32670548682119 30.649504150604606 0.000010991464725093386 35.06338504952806 34.72980113783277 -47.34086856497715 -2.6811564626796347 -14.011005110394837 17.386069364400857 -39.3317127163164 0.3955715392484396 10.221108604657784 -10.603187367830158 -42.396433106324295 47.05618608687436 5.020886070221538 -25.680535000765065 61.1155897366853 65.5362344763145 11.657379742820966 -26.68290678487571 17.0169575601747 33.878920297336656 15.846810294878505 53.48201385322964 18.132520205141546 -13.00902491775821 65.6787913753145 2.8797750302004737 23.320173818726847 46.75824319333658 -3.8619473784555867</float_array>
                    <technique_common>
                        <accessor count="430" source="#pointarray0" stride="3">
                            <param name="X" type="float"/>
                            <param name="Y" type="float"/>
                            <param name="Z" type="float"/>
                        </accessor>
                    </technique_common>
                </source>
                <source id="uvs0">
                    <float_array id="uvarray0" count="1088">0.2103271484375 0.81085205078125 0.21697998046875 0.80224609375 0.2060546875 0.7940673828125 0.2171630859375 0.7926025390625 0.21533203125 0.78057861328125 0.223876953125 0.79107666015625 0.22467041015625 0.77850341796875 0.2303466796875 0.79388427734375 0.22857666015625 0.78070068359375 0.22088623046875 0.80120849609375 0.21728515625 0.786376953125 0.2080078125 0.8052978515625 0.20892333984375 0.7911376953125 0.1910400390625 0.806884765625 0.1910400390625 0.79327392578125 0.174072265625 0.8052978515625 0.17315673828125 0.7911376953125 0.164794921875 0.786376953125 0.1802978515625 0.7728271484375 0.1607666015625 0.772216796875 0.178955078125 0.76690673828125 0.16888427734375 0.766845703125 0.1910400390625 0.7603759765625 0.1910400390625 0.76422119140625 0.213134765625 0.766845703125 0.30474853515625 0.74920654296875 0.1573486328125 0.77850341796875 0.1517333984375 0.79388427734375 0.158203125 0.79107666015625 0.158203125 0.8065185546875 0.1644287109375 0.80224609375 0.16510009765625 0.81298828125 0.1717529296875 0.81085205078125 0.17193603515625 0.82269287109375 0.1910400390625 0.8094482421875 0.1910400390625 0.822509765625 0.21014404296875 0.82269287109375 0.20361328125 0.83367919921875 0.21734619140625 0.82794189453125 0.2049560546875 0.83935546875 0.21490478515625 0.82879638671875 0.20526123046875 0.83099365234375 0.2178955078125 0.81134033203125 0.1534423828125 0.78070068359375 0.16119384765625 0.80120849609375 0.1641845703125 0.81134033203125 0.1646728515625 0.82794189453125 0.16717529296875 0.82879638671875 0.17706298828125 0.83935546875 0.1767578125 0.83099365234375 0.2080078125 0.81298828125 0.223876953125 0.8065185546875 0.418701171875 0.7196044921875 0.3668212890625 0.7333984375 0.39398193359375 0.7730712890625 0.339599609375 0.7730712890625 0.3668212890625 0.79486083984375 0.33038330078125 0.7850341796875 0.3668212890625 0.65203857421875 0.31494140625 0.7196044921875 0.33758544921875 0.6805419921875 0.39599609375 0.6805419921875 0.40325927734375 0.7850341796875 0.27581787109375 0.64874267578125 0.25 0.6951904296875 0.2591552734375 0.6405029296875 0.21630859375 0.69586181640625 0.24249267578125 0.63226318359375 0.2337646484375 0.6534423828125 0.233642578125 0.6199951171875 0.20330810546875 0.6199951171875 0.21075439453125 0.65069580078125 0.20269775390625 0.63397216796875 0.2025146484375 0.673095703125 0.24072265625 0.81683349609375 0.24114990234375 0.80670166015625 0.26995849609375 0.82366943359375 0.26251220703125 0.8055419921875 0.28076171875 0.8062744140625 0.27972412109375 0.79779052734375 0.2620849609375 0.797119140625 0.2696533203125 0.77978515625 0.24444580078125 0.79644775390625 0.247802734375 0.78619384765625 0.1923828125 0.830322265625 0.2047119140625 0.8321533203125 0.19573974609375 0.76678466796875 0.2357177734375 0.84466552734375 0.2333984375 0.83050537109375 0.2374267578125 0.83050537109375 0.23577880859375 0.7777099609375 0.2369384765625 0.77789306640625 0.2369384765625 0.74090576171875 0.239013671875 0.76641845703125 0.2386474609375 0.7352294921875 0.239013671875 0.73406982421875 0.23944091796875 0.785400390625 0.3079833984375 0.81146240234375 0.29571533203125 0.80889892578125 0.29736328125 0.79840087890625 -0.22314453125 0.76690673828125 -0.1781005859375 0.661376953125 -0.2503662109375 0.589599609375 -0.08917236328125 0.62762451171875 0.00067138671875 0.50360107421875 0.09063720703125 0.62762451171875 0.25177001953125 0.589599609375 0.17950439453125 0.661376953125 0.224609375 0.76690673828125 0.18804931640625 0.8348388671875 0.9759521484375 0.06268310546875 0.9713134765625 0.06610107421875 0.9400634765625 0.06378173828125 0.968017578125 0.0767822265625 0.94012451171875 0.0777587890625 0.96954345703125 0.08013916015625 0.940185546875 0.0745849609375 0.9744873046875 0.07696533203125 0.97735595703125 0.0662841796875 0.19464111328125 0.83050537109375 0.23248291015625 0.777099609375 0.2362060546875 0.77679443359375 0.23870849609375 0.84112548828125 0.23931884765625 0.84039306640625 0.62591552734375 0.88470458984375 0.65496826171875 0.88470458984375 0.62591552734375 0.87750244140625 0.65496826171875 0.87750244140625 0.62591552734375 0.8739013671875 0.65496826171875 0.8739013671875 0.62591552734375 0.86309814453125 0.65496826171875 0.86309814453125 0.26593017578125 0.74920654296875 0.166748046875 0.78057861328125 0.16485595703125 0.7926025390625 0.17596435546875 0.7940673828125 1.2308349609375 0.18695068359375 1.1319580078125 0.1881103515625 1.14129638671875 0.24072265625 0.999755859375 0.23333740234375 0.999755859375 0.2750244140625 0.86737060546875 0.18792724609375 0.85809326171875 0.24053955078125 0.761962890625 0.22943115234375 0.20306396484375 0.76690673828125 0.22125244140625 0.772216796875 0.20172119140625 0.7728271484375 -0.18658447265625 0.8348388671875 0.00067138671875 0.802001953125 0.00067138671875 0.68804931640625 0.17401123046875 0.81298828125 0.54168701171875 0.8099365234375 0.54168701171875 0.7974853515625 0.54620361328125 0.808349609375 0.5516357421875 0.80853271484375 0.5570068359375 0.808349609375 0.5615234375 0.7974853515625 0.5615234375 0.8099365234375 0.1910400390625 0.84002685546875 0.178466796875 0.83367919921875 0.21697998046875 0.81298828125 0.19366455078125 0.77978515625 0.194091796875 0.73870849609375 -0.20379638671875 0.99951171875 -0.00030517578125 0.98187255859375 -0.1590576171875 0.82794189453125 -0.00030517578125 0.85870361328125 -0.00030517578125 0.789306640625 0.1583251953125 0.82794189453125 0.6839599609375 0.88470458984375 0.6839599609375 0.8739013671875 1.14129638671875 0.42523193359375 0.999755859375 0.37664794921875 0.999755859375 0.41754150390625 0.85809326171875 0.425048828125 0.86737060546875 0.46893310546875 0.7686767578125 0.48614501953125 0.936279296875 0.16436767578125 0.83447265625 0.1533203125 0.88323974609375 0.0897216796875 0.77032470703125 0.089111328125 0.8377685546875 0.004150390625 0.54168701171875 0.7977294921875 0.54620361328125 0.82073974609375 0.6639404296875 0.13970947265625 0.6639404296875 0.14605712890625 0.6767578125 0.14605712890625 0.6639404296875 0.14923095703125 0.673583984375 0.14923095703125 0.2386474609375 0.8358154296875 0.94342041015625 0.0137939453125 1.0037841796875 0.079345703125 0.93621826171875 0.1640625 1.00347900390625 0.0789794921875 0.8831787109375 0.0897216796875 0.94305419921875 0.01373291015625 0.83746337890625 0.00445556640625 0.165771484375 0.98175048828125 0.168701171875 0.9866943359375 0.0672607421875 0.93896484375 0.16888427734375 0.93841552734375 0.168701171875 0.890625 0.165771484375 0.89654541015625 0.1651611328125 0.93927001953125 0.20294189453125 0.634521484375 0.2030029296875 0.68109130859375 0.21923828125 0.629638671875 0.20257568359375 0.7044677734375 0.25457763671875 0.6424560546875 0.47271728515625 0.800537109375 0.47296142578125 0.76953125 0.47528076171875 0.8087158203125 0.4815673828125 0.75860595703125 0.48016357421875 0.80548095703125 0.48162841796875 0.728271484375 0.47589111328125 0.730224609375 0.4730224609375 0.7572021484375 0.71295166015625 0.88470458984375 0.71295166015625 0.87750244140625 0.71295166015625 0.8739013671875 0.23944091796875 0.77154541015625 0.5615234375 0.7977294921875 0.5570068359375 0.82073974609375 0.83447265625 0.1534423828125 0.7701416015625 0.08953857421875 0.1910400390625 0.7628173828125 0.1910400390625 0.77313232421875 0.673583984375 0.47650146484375 0.761962890625 0.43731689453125 0.90435791015625 0.06268310546875 0.90301513671875 0.06622314453125 0.940185546875 0.06390380859375 1.46307373046875 0.341552734375 1.452392578125 0.28961181640625 1.38006591796875 0.2979736328125 1.3472900390625 0.26092529296875 1.38006591796875 0.3714599609375 1.452392578125 0.39324951171875 1.40142822265625 0.4447021484375 1.326171875 0.47662353515625 1.3472900390625 0.407958984375 1.237548828125 0.43743896484375 1.2308349609375 0.48626708984375 1.1319580078125 0.46905517578125 0.6895751953125 0.14605712890625 0.20306396484375 0.99951171875 0.2340087890625 0.77447509765625 0.2720947265625 0.7501220703125 0.29327392578125 0.7568359375 0.2703857421875 0.6484375 0.25372314453125 0.705810546875 0.912109375 0.0767822265625 0.91070556640625 0.08013916015625 0.90887451171875 0.06610107421875 0.71295166015625 0.86309814453125 0.6839599609375 0.86309814453125 0.9058837890625 0.076904296875 0.59442138671875 0.35516357421875 0.55426025390625 0.35504150390625 0.59454345703125 0.3465576171875 0.55419921875 0.34649658203125 0.65118408203125 0.14605712890625 0.63836669921875 0.14605712890625 0.65753173828125 0.14923095703125 0.673583984375 0.2042236328125 0.7686767578125 0.18682861328125 0.598388671875 0.2373046875 0.65240478515625 0.26080322265625 0.61968994140625 0.2978515625 1.326171875 0.204345703125 1.40142822265625 0.2374267578125 1.237548828125 0.22955322265625 0.536865234375 0.3414306640625 0.54754638671875 0.28955078125 0.54754638671875 0.3931884765625 0.61968994140625 0.371337890625 0.65240478515625 0.4078369140625 0.598388671875 0.444580078125 0.263671875 0.7718505859375 0.2421875 0.7550048828125 0.5311279296875 0.603759765625 0.5635986328125 0.5526123046875 0.50628662109375 0.5792236328125 0.50946044921875 0.5281982421875 0.50909423828125 0.58154296875 0.5101318359375 0.52838134765625 0.5635986328125 0.53302001953125 0.534423828125 0.50469970703125 0.59283447265625 0.50469970703125 0.53302001953125 0.51177978515625 0.59423828125 0.51177978515625 0.6177978515625 0.5281982421875 0.6209716796875 0.5792236328125 0.61712646484375 0.52838134765625 0.6181640625 0.58154296875 0.5947265625 0.612548828125 0.5635986328125 0.6192626953125 0.5635986328125 0.61456298828125 0.532470703125 0.612548828125 1.22332763671875 0.825439453125 1.22210693359375 0.671630859375 1.13555908203125 0.71929931640625 1.10235595703125 0.534423828125 1.07708740234375 0.62310791015625 0.90020751953125 0.533935546875 0.92095947265625 0.6224365234375 0.86102294921875 0.71783447265625 0.97119140625 0.719482421875 0.9384765625 0.86138916015625 0.997314453125 0.81451416015625 1.0567626953125 0.8616943359375 1.0233154296875 0.7200927734375 0.46575927734375 0.07391357421875 0.45599365234375 0.25018310546875 0.47747802734375 0.20733642578125 0.4500732421875 0.33099365234375 0.4752197265625 0.30596923828125 0.44940185546875 0.3306884765625 0.47930908203125 0.367919921875 0.45501708984375 0.25018310546875 0.47650146484375 0.20159912109375 0.51251220703125 0.19091796875 0.51629638671875 0.93170166015625 0.60821533203125 0.89208984375 0.6253662109375 0.97186279296875 0.65899658203125 0.897216796875 0.615234375 0.9703369140625 0.6185302734375 0.9097900390625 0.5244140625 0.93231201171875 0.54925537109375 0.914794921875 0.5057373046875 0.86041259765625 0.5594482421875 0.789794921875 0.52423095703125 0.76898193359375 0.617919921875 0.79339599609375 0.6163330078125 0.760986328125 0.73779296875 0.77532958984375 0.2392578125 0.842529296875 0.23968505859375 0.807861328125 0.236083984375 0.83660888671875 0.236083984375 0.80120849609375 0.23492431640625 0.8013916015625 0.236572265625 0.7508544921875 0.23260498046875 0.7508544921875 0.23492431640625 0.73724365234375 0.1956787109375 0.8106689453125 0.20465087890625 0.7484130859375 0.19232177734375 0.75006103515625 0.19390869140625 0.74981689453125 0.350341796875 0.1185302734375 0.27154541015625 0.13934326171875 0.33966064453125 0.34674072265625 0.24725341796875 0.4266357421875 0.34674072265625 0.36761474609375 0.24627685546875 0.44769287109375 0.38458251953125 0.018310546875 0.3033447265625 0.1185302734375 0.36370849609375 0.19720458984375 0.2991943359375 0.34674072265625 0.36273193359375 0.2633056640625 0.361328125 0.46258544921875 0.50701904296875 0.88421630859375 0.51080322265625 0.84814453125 0.54998779296875 0.906982421875 0.6019287109375 0.8397216796875 0.6612548828125 0.83929443359375 0.6160888671875 0.79180908203125 0.73876953125 0.77178955078125 0.6173095703125 0.759765625 0.68841552734375 0.81640625 0.6976318359375 0.94293212890625 0.51544189453125 0.8094482421875 0.5814208984375 0.934814453125 0.58685302734375 0.8228759765625 0.6448974609375 0.83001708984375 0.63677978515625 0.8148193359375 0.66943359375 0.84088134765625 0.7216796875 0.815673828125 0.72540283203125 0.83001708984375 0.7431640625 0.76519775390625 0.58026123046875 0.763916015625 0.60589599609375 0.8154296875 0.61151123046875 0.824462890625 0.55859375 0.83673095703125 0.56842041015625 0.9310302734375 0.50543212890625 0.9031982421875 0.515380859375 0.9779052734375 0.699951171875 0.8162841796875 0.737548828125 0.81610107421875 0.6649169921875 0.816650390625 0.64892578125 0.88970947265625 0.59228515625 0.81427001953125 0.55908203125 0.88970947265625 0.52099609375 0.792724609375 0.505615234375 0.88970947265625 0.60906982421875 0.9423828125 0.625244140625 0.75555419921875 0.527587890625 0.7752685546875 0.567138671875 0.81256103515625 0.527587890625 0.9818115234375 0.625244140625 0.8955078125 0.625244140625 0.9952392578125 0.72283935546875 0.9818115234375 0.3062744140625 0.36761474609375 0.36175537109375 0.426025390625 0.36328125 0.26104736328125 0.36376953125 0.2003173828125 0.5328369140625 0.7801513671875 0.54315185546875 0.82952880859375 0.63421630859375 0.75958251953125 0.6357421875 0.83001708984375 0.74273681640625 0.80255126953125 0.68359375 0.90911865234375 0.74395751953125 0.92791748046875 0.711669921875 0.983642578125 0.19415283203125 0.79840087890625 0.23162841796875 0.80181884765625 0.23614501953125 0.8021240234375 0.23968505859375 0.794677734375 0.5303955078125 0.78057861328125 0.63482666015625 0.7608642578125 0.54388427734375 0.82916259765625 0.6396484375 0.83026123046875 0.6416015625 0.90740966796875 0.68701171875 0.908935546875 0.63946533203125 0.9825439453125 0.71142578125 0.983154296875 0.72637939453125 0.88525390625 0.73553466796875 0.91375732421875 0.666015625 0.8504638671875 0.4012451171875 0.7369384765625 0.478759765625 0.5987548828125 0.30010986328125 0.73895263671875 0.37860107421875 0.550537109375 0.2818603515625 0.60223388671875 0.349853515625 0.511962890625 0.25982666015625 0.51239013671875 0.28253173828125 0.94775390625 0.3587646484375 0.96478271484375 0.2921142578125 0.91473388671875 0.4349365234375 0.92010498046875 0.35791015625 0.8519287109375 0.43450927734375 0.8726806640625 0.42138671875 0.79132080078125 0.59613037109375 0.603759765625 -0.21795654296875 0.140625 -0.20306396484375 0.2596435546875 -0.08514404296875 0.1759033203125 -0.12408447265625 0.3211669921875 -0.00054931640625 0.30181884765625 -0.07257080078125 0.484375 0.07135009765625 0.484375 0.50970458984375 0.8175048828125 0.54681396484375 0.8187255859375 0.5850830078125 0.818359375 0.64556884765625 0.76708984375 0.65887451171875 0.815673828125 0.729736328125 0.79412841796875 0.69268798828125 0.8892822265625 0.21673583984375 0.140625 0.14959716796875 0.04962158203125 0.08392333984375 0.1759033203125 -0.00054931640625 0.05316162109375 -0.15081787109375 0.04962158203125 0.20184326171875 0.2596435546875 0.12286376953125 0.3211669921875 0.181396484375 0.41632080078125 1.1341552734375 0.945556640625 0.99920654296875 0.97576904296875 0.8656005859375 0.94500732421875 0.77838134765625 0.8250732421875 0.66802978515625 0.98052978515625 0.63958740234375 0.983642578125 0.638427734375 0.9083251953125 0.564697265625 0.9769287109375 0.55633544921875 0.88446044921875 0.711669921875 0.7928466796875 0.6419677734375 0.940673828125 0.70562744140625 0.9610595703125 0.74468994140625 0.8892822265625 0.73895263671875 0.899658203125 0.67608642578125 0.92425537109375 0.70855712890625 0.9656982421875 0.598388671875 0.9808349609375 0.40985107421875 0.79986572265625 0.40789794921875 0.80780029296875 0.40960693359375 0.76983642578125 0.40191650390625 0.75946044921875 0.40704345703125 0.7320556640625 0.4014892578125 0.73016357421875 0.7242431640625 0.8995361328125 0.669677734375 0.90509033203125 0.71820068359375 0.96087646484375 0.625244140625 0.970703125 0.625244140625 0.98638916015625 0.5330810546875 0.96087646484375 0.53131103515625 0.766845703125 0.556884765625 0.78533935546875 0.58294677734375 0.8892822265625 0.72283935546875 0.7752685546875 0.2862548828125 0.7874755859375 0.26495361328125 0.83782958984375 0.36444091796875 0.774169921875 0.67437744140625 0.7633056640625 0.68328857421875 0.81256103515625 0.602783203125 0.76739501953125 0.2569580078125 0.5540771484375 0.2574462890625 0.673095703125 0.6136474609375 0.85089111328125 0.45928955078125 0.59552001953125 0.41192626953125 0.76898193359375 0.36444091796875 0.5628662109375 0.258056640625 0.76495361328125 0.30682373046875 0.53948974609375 0.54400634765625 0.96331787109375 -0.1826171875 0.41632080078125 0.2396240234375 0.74383544921875 0.23895263671875 0.748046875 0.1966552734375 0.837890625 0.30059814453125 0.86810302734375 0.5562744140625 0.8831787109375 0.56243896484375 0.97509765625 0.5201416015625 0.84356689453125 0.625244140625 0.783447265625 0.625244140625 0.78173828125 0.7303466796875 0.84356689453125 0.74334716796875 0.904541015625 0.51287841796875 0.81304931640625 0.25994873046875 0.556884765625 0.25836181640625 0.69598388671875 0.58074951171875 0.90509033203125 0.74493408203125 0.92828369140625 0.742919921875 0.8043212890625 0.50885009765625 0.824462890625 0.78070068359375 0.6712646484375 0.4576416015625 0.93280029296875 0.40289306640625 0.8046875 0.4095458984375 0.758056640625 0.51708984375 0.84991455078125 0.5067138671875 0.781005859375 0.5384521484375 0.79437255859375 0.70794677734375 0.97894287109375 0.72918701171875 0.8919677734375 0.7161865234375 0.9410400390625 0.587890625 0.98052978515625</float_array>
                    <technique_common>
                        <accessor count="544" source="#uvarray0" stride="2">
                            <param name="S" type="float"/>
                            <param name="T" type="float"/>
                        </accessor>
                    </technique_common>
                </source>
                <vertices id="vertices0">
                    <input semantic="POSITION" source="#points0"/>
                </vertices>
                <polylist count="732" material="Material1">
                    <input offset="0" semantic="VERTEX" source="#vertices0"/>
                    <input offset="1" semantic="TEXCOORD" source="#uvs0" set="0"/>
                    <vcount>3 3 3 3 3 3 3 3 3 3 3 3 3 3 3 3 3 3 3 3 3 3 3 3 3 3 3 3 3 3 3 3 3 3 3 3 3 3 3 3 3 3 3 3 3 3 3 3 3 3 3 3 3 3 3 3 3 3 3 3 3 3 3 3 3 3 3 3 3 3 3 3 3 3 3 3 3 3 3 3 3 3 3 3 3 3 3 3 3 3 3 3 3 3 3 3 3 3 3 3 3 3 3 3 3 3 3 3 3 3 3 3 3 3 3 3 3 3 3 3 3 3 3 3 3 3 3 3 3 3 3 3 3 3 3 3 3 3 3 3 3 3 3 3 3 3 3 3 3 3 3 3 3 3 3 3 3 3 3 3 3 3 3 3 3 3 3 3 3 3 3 3 3 3 3 3 3 3 3 3 3 3 3 3 3 3 3 3 3 3 3 3 3 3 3 3 3 3 3 3 3 3 3 3 3 3 3 3 3 3 3 3 3 3 3 3 3 3 3 3 3 3 3 3 3 3 3 3 3 3 3 3 3 3 3 3 3 3 3 3 3 3 3 3 3 3 3 3 3 3 3 3 3 3 3 3 3 3 3 3 3 3 3 3 3 3 3 3 3 3 3 3 3 3 3 3 3 3 3 3 3 3 3 3 3 3 3 3 3 3 3 3 3 3 3 3 3 3 3 3 3 3 3 3 3 3 3 3 3 3 3 3 3 3 3 3 3 3 3 3 3 3 3 3 3 3 3 3 3 3 3 3 3 3 3 3 3 3 3 3 3 3 3 3 3 3 3 3 3 3 3 3 3 3 3 3 3 3 3 3 3 3 3 3 3 3 3 3 3 3 3 3 3 3 3 3 3 3 3 3 3 3 3 3 3 3 3 3 3 3 3 3 3 3 3 3 3 3 3 3 3 3 3 3 3 3 3 3 3 3 3 3 3 3 3 3 3 3 3 3 3 3 3 3 3 3 3 3 3 3 3 3 3 3 3 3 3 3 3 3 3 3 3 3 3 3 3 3 3 3 3 3 3 3 3 3 3 3 3 3 3 3 3 3 3 3 3 3 3 3 3 3 3 3 3 3 3 3 3 3 3 3 3 3 3 3 3 3 3 3 3 3 3 3 3 3 3 3 3 3 3 3 3 3 3 3 3 3 3 3 3 3 3 3 3 3 3 3 3 3 3 3 3 3 3 3 3 3 3 3 3 3 3 3 3 3 3 3 3 3 3 3 3 3 3 3 3 3 3 3 3 3 3 3 3 3 3 3 3 3 3 3 3 3 3 3 3 3 3 3 3 3 3 3 3 3 3 3 3 3 3 3 3 3 3 3 3 3 3 3 3 3 3 3 3 3 3 3 3 3 3 3 3 3 3 3 3 3 3 3 3 3 3 3 3 3 3 3 3 3 3 3 3 3 3 3 3 3 3 3 3 3 3 3 3 3 3 3 3 3 3 3 3 3 3 3 3 3 3 3 3 3 3 3 3 3 3 3 3 3 3 3 3 3 3 3 3 3 3 3 3 3 3 3 3 3 3 3 3 3 3 3 3 3 3 3 3 3 3 3 3 3 3 3 3 3 3 3 3 3 3 3 3 3 3 3 3 3 3 3 3 3 3 3 3 3 3 3 3 3 3 3 3 3 3 3 3 3 3 3 3 3</vcount>
                    <p>2 2 1 1 0 0 3 3 1 1 2 2 4 4 3 3 2 2 5 5 3 3 4 4 6 6 5 5 4 4 7 7 5 5 6 6 8 8 7 7 6 6 9 9 7 7 8 8 10 10 9 9 8 8 11 11 9 9 10 10 12 12 11 11 10 10 13 13 11 11 12 12 14 14 13 13 12 12 15 15 13 13 14 14 16 16 15 15 14 14 17 17 15 15 16 16 18 18 17 17 16 16 19 19 17 17 18 18 20 20 19 19 18 18 21 21 19 19 20 20 22 22 21 21 20 20 23 23 21 21 22 22 24 24 23 23 22 22 25 25 23 23 24 24 6 6 25 25 24 24 4 4 25 25 6 6 28 28 27 27 26 26 29 29 27 27 28 28 30 30 29 29 28 28 31 31 29 29 30 30 32 32 31 31 30 30 33 33 31 31 32 32 34 34 33 33 32 32 35 35 33 33 34 34 36 36 35 35 34 34 37 37 35 35 36 36 38 38 37 37 36 36 39 39 37 37 38 38 40 40 39 39 38 38 41 41 39 39 40 40 42 42 41 41 40 40 26 26 19 19 21 21 43 43 19 19 26 26 27 27 43 43 26 26 44 44 43 43 27 27 29 29 44 44 27 27 45 45 44 44 29 29 46 46 45 45 29 29 47 47 45 45 46 46 48 48 47 47 46 46 49 49 47 47 48 48 41 41 49 49 48 48 50 50 49 49 41 41 42 42 50 50 41 41 9 9 50 50 42 42 51 51 9 9 42 42 54 54 53 53 52 52 55 55 53 53 54 54 56 56 55 55 54 54 57 57 55 55 56 56 58 58 57 57 56 56 59 59 57 57 58 58 60 60 59 59 58 58 53 53 59 59 60 60 61 61 53 53 60 60 52 52 53 53 61 61 58 58 52 52 61 61 62 62 52 52 58 58 56 56 62 62 58 58 54 54 62 62 56 56 65 65 64 64 63 63 66 66 64 64 65 65 67 67 66 66 65 65 68 68 66 66 67 67 69 67 68 68 67 67 70 67 68 68 69 67 71 69 70 67 69 67 72 69 70 67 71 69 73 70 72 69 71 69 74 71 72 69 73 70 75 72 74 71 73 70 76 73 74 71 75 72 77 76 63 75 64 74 78 77 63 75 77 76 79 78 78 77 77 76 80 77 78 77 79 78 81 78 80 77 79 78 82 79 80 77 81 78 83 79 82 79 81 78 84 80 82 79 83 79 85 81 84 80 83 79 65 82 84 80 85 81 67 83 65 82 85 81 88 86 87 85 86 84 89 87 87 85 88 86 90 88 89 87 88 86 91 89 89 87 90 88 92 90 91 89 90 88 93 91 91 89 92 90 94 92 93 91 92 90 95 93 93 91 94 92 96 94 95 93 94 92 75 95 95 93 96 94 76 96 75 95 96 94 98 98 77 76 97 97 79 78 77 76 98 98 99 78 79 78 98 98 100 79 79 78 99 78 101 98 100 79 99 78 102 99 100 79 101 98 103 99 102 99 101 98 83 79 102 99 103 99 85 81 83 79 103 99 106 102 105 101 104 100 107 103 105 101 106 102 23 104 107 103 106 102 108 105 107 103 23 104 25 106 108 105 23 104 109 107 108 105 25 106 4 108 109 107 25 106 2 109 109 107 4 108 112 112 111 111 110 110 113 113 111 111 112 112 114 114 113 113 112 112 115 115 113 113 114 114 116 116 115 115 114 114 117 117 115 115 116 116 118 118 117 117 116 116 87 85 119 119 86 84 120 120 119 119 87 85 89 87 120 120 87 85 121 121 120 120 89 87 122 122 121 121 89 87 76 96 121 121 122 122 123 123 76 96 122 122 126 126 125 125 124 124 127 127 125 125 126 126 128 128 127 127 126 126 129 129 127 127 128 128 130 130 129 129 128 128 131 131 129 129 130 130 104 133 26 26 106 132 28 28 26 26 104 133 132 134 28 28 104 133 30 30 28 28 132 134 133 135 30 30 132 134 32 32 30 30 133 135 136 138 135 137 134 136 137 139 135 137 136 138 138 140 137 139 136 138 139 141 137 139 138 140 140 142 139 141 138 140 141 143 139 141 140 142 142 75 65 82 63 75 143 82 65 82 142 75 144 80 143 82 142 75 65 82 143 82 144 80 84 80 65 82 144 80 145 144 24 24 22 22 146 145 24 24 145 144 147 146 146 145 145 144 10 10 146 145 147 146 12 12 10 10 147 146 105 101 133 147 104 100 148 148 133 147 105 101 149 149 148 148 105 101 109 107 148 148 149 149 108 105 109 107 149 149 49 49 45 45 47 47 150 150 45 45 49 49 50 50 150 150 49 49 13 13 150 150 50 50 11 11 13 13 50 50 153 153 152 152 151 151 154 154 152 152 153 153 155 155 154 154 153 153 156 156 154 154 155 155 157 157 156 156 155 155 48 48 39 39 41 41 158 158 39 39 48 48 159 159 158 158 48 48 37 37 158 158 159 159 35 35 37 37 159 159 0 0 36 36 34 34 160 160 36 36 0 0 1 1 160 160 0 0 51 51 160 160 1 1 92 90 161 161 94 92 162 162 161 161 92 90 90 88 162 162 92 90 88 86 162 162 90 88 133 165 34 164 32 163 163 166 34 164 133 165 148 167 163 166 133 165 2 168 163 166 148 167 5 5 1 1 3 3 51 51 1 1 5 5 7 7 51 51 5 5 9 9 51 51 7 7 127 127 164 169 125 125 165 170 164 169 127 127 129 129 165 170 127 127 131 131 165 170 129 129 78 77 142 75 63 75 166 77 142 75 78 77 84 80 166 77 78 77 144 80 166 77 84 80 169 173 168 172 167 171 170 174 168 172 169 173 171 175 170 174 169 173 172 176 170 174 171 175 175 179 174 178 173 177 176 180 174 178 175 179 177 181 176 180 175 179 154 154 178 182 152 152 151 151 178 182 154 154 179 183 151 151 154 154 94 92 120 120 121 121 119 119 120 120 94 92 161 161 119 119 94 92 182 186 181 185 180 184 183 187 181 185 182 186 184 188 183 187 182 186 122 122 185 189 123 123 91 89 185 189 122 122 89 87 91 89 122 122 186 80 78 77 80 77 84 80 78 77 186 80 82 79 84 80 186 80 175 179 187 190 177 181 188 191 187 190 175 179 173 177 188 191 175 179 189 194 111 193 113 192 110 195 111 193 189 194 118 196 110 195 189 194 190 199 20 198 18 197 191 200 20 198 190 199 145 201 191 200 190 199 190 199 147 202 145 201 192 203 147 202 190 199 18 197 192 203 190 199 194 206 185 205 193 204 195 207 185 205 194 206 103 208 195 207 194 206 15 15 150 150 13 13 45 45 150 150 15 15 44 44 45 45 15 15 195 211 123 210 185 209 77 212 123 210 195 211 97 213 77 212 195 211 66 215 77 212 64 214 123 210 77 212 66 215 76 216 123 210 66 215 165 170 124 217 164 169 126 218 124 217 165 170 128 219 126 218 165 170 96 94 121 121 76 96 94 92 121 121 96 94 46 46 159 159 48 48 33 33 159 159 46 46 93 91 185 189 91 89 95 93 185 189 93 91 95 93 193 220 185 189 75 95 193 220 95 93 196 221 154 154 156 156 157 157 154 154 196 221 155 155 197 222 157 157 153 153 197 222 155 155 197 222 154 154 157 157 179 183 154 154 197 222 179 183 153 153 151 151 197 222 153 153 179 183 115 223 189 194 113 192 117 224 189 194 115 223 51 51 40 40 38 38 42 42 40 40 51 51 191 225 22 22 20 20 145 144 22 22 191 225 8 8 146 145 10 10 6 6 146 145 8 8 106 132 21 21 23 23 26 26 21 21 106 132 160 160 38 38 36 36 51 51 38 38 160 160 31 31 46 46 29 29 33 33 46 46 31 31 192 226 16 16 14 14 18 18 16 16 192 226 43 43 17 17 19 19 44 44 17 17 43 43 147 146 14 14 12 12 192 226 14 14 147 146 199 228 172 176 198 227 170 174 172 176 199 228 200 231 177 230 187 229 116 116 177 230 200 231 203 234 202 233 201 232 204 235 202 233 203 234 206 237 205 236 201 232 207 238 205 236 206 237 209 240 207 238 208 239 205 236 207 238 209 240 211 242 210 241 208 239 212 243 210 241 211 242 182 186 213 244 184 188 180 184 213 244 182 186 2 168 34 164 163 166 0 245 34 164 2 168 101 98 98 98 103 99 99 78 98 98 101 98 55 55 59 59 53 53 57 57 59 59 55 55 85 81 214 246 67 83 193 247 214 246 85 81 194 248 85 81 103 99 193 247 85 81 194 248 97 250 103 208 98 249 195 207 103 208 97 250 70 67 74 71 68 68 72 69 74 71 70 67 71 69 214 69 73 70 69 67 214 69 71 69 66 66 74 71 76 73 68 68 74 71 66 66 118 118 200 231 110 110 116 116 200 231 118 118 173 251 114 114 112 112 174 252 114 114 173 251 188 253 112 112 187 229 173 251 112 112 188 253 112 112 200 231 187 229 110 110 200 231 112 112 128 219 215 255 130 254 165 170 215 255 128 219 79 78 83 79 81 78 100 79 83 79 79 78 116 116 176 256 177 230 114 114 176 256 116 116 212 243 167 171 210 241 169 173 167 171 212 243 218 259 217 258 216 257 219 260 217 258 218 259 222 259 221 258 220 260 223 257 221 258 222 259 181 185 224 261 180 184 183 187 224 261 181 185 224 261 213 262 180 184 225 263 213 262 224 261 227 265 141 143 226 264 139 141 141 143 227 265 229 267 228 266 226 264 230 268 228 266 229 267 232 270 204 235 231 269 202 233 204 235 232 270 233 271 134 136 231 269 136 138 134 136 233 271 107 103 149 149 105 101 108 105 149 149 107 103 235 273 230 268 234 272 228 266 230 268 235 273 237 275 236 274 234 272 238 276 236 274 237 275 239 277 238 276 198 227 236 274 238 276 239 277 17 17 44 44 15 15 82 79 186 80 80 77 2 109 148 148 109 107 60 60 58 58 61 61 50 50 9 9 11 11 35 35 159 159 33 33 52 52 62 62 54 54 158 158 37 37 39 39 75 278 73 278 193 278 67 67 214 69 69 67 73 279 214 246 193 247 226 264 141 143 229 267 204 235 233 271 231 269 234 272 230 268 237 275 205 236 203 234 201 232 198 227 238 276 199 228 208 239 210 241 209 240 224 261 183 187 225 263 225 263 184 188 213 262 83 79 100 79 102 99 131 131 215 255 165 170 176 256 114 114 174 252 104 133 133 135 132 134 118 196 189 194 117 224 144 80 142 75 166 77 24 24 146 145 6 6 242 282 241 281 240 280 243 283 241 281 242 282 244 284 243 283 242 282 245 285 243 283 244 284 246 286 245 285 244 284 247 287 245 285 246 286 248 288 247 287 246 286 249 289 247 287 248 288 250 290 249 289 248 288 241 281 249 289 250 290 251 291 241 281 250 290 252 292 241 281 251 291 253 293 252 292 251 291 254 294 252 292 253 293 246 286 254 294 253 293 255 295 254 294 246 286 256 296 255 295 246 286 257 297 255 295 256 296 258 298 257 297 256 296 240 280 257 297 258 298 242 282 240 280 258 298 261 301 260 300 259 299 262 302 260 300 261 301 263 303 262 302 261 301 264 304 262 302 263 303 265 305 264 304 263 303 266 306 264 304 265 305 267 307 266 306 265 305 268 308 266 306 267 307 269 309 268 308 267 307 270 310 268 308 269 309 271 311 270 310 269 309 261 301 270 310 271 311 263 303 261 301 271 311 274 314 273 313 272 312 275 315 273 313 274 314 276 316 275 315 274 314 277 317 275 315 276 316 278 318 277 317 276 316 279 315 277 317 278 318 280 316 279 315 278 318 281 319 279 315 280 316 282 320 281 319 280 316 272 312 281 319 282 320 283 321 272 312 282 320 274 314 272 312 283 321 276 316 274 314 283 321 286 324 285 323 284 322 287 325 285 323 286 324 288 326 287 325 286 324 289 327 287 325 288 326 290 328 289 327 288 326 291 329 289 327 290 328 292 330 291 329 290 328 293 331 291 329 292 330 294 332 293 331 292 330 295 333 293 331 294 332 296 334 295 333 294 332 297 335 295 333 296 334 300 338 299 337 298 336 301 339 299 337 300 338 302 340 301 339 300 338 303 341 301 339 302 340 304 342 303 341 302 340 305 343 303 341 304 342 306 344 305 343 304 342 307 345 305 343 306 344 308 346 307 345 306 344 309 347 307 345 308 346 312 350 311 349 310 348 313 351 311 349 312 350 314 352 313 351 312 350 315 353 313 351 314 352 316 352 315 353 314 352 317 351 315 353 316 352 318 350 317 351 316 352 319 349 317 351 318 350 320 348 319 349 318 350 273 313 321 354 272 312 310 355 321 354 273 313 322 356 310 355 273 313 312 357 310 355 322 356 323 358 312 357 322 356 324 359 312 357 323 358 275 315 324 359 323 358 277 317 324 359 275 315 284 322 326 361 325 360 327 362 326 361 284 322 285 323 327 362 284 322 328 363 327 362 285 323 329 364 328 363 285 323 330 365 328 363 329 364 331 366 330 365 329 364 332 367 330 365 331 366 335 370 334 369 333 368 336 371 334 369 335 370 337 372 336 371 335 370 338 373 336 371 337 372 339 374 338 373 337 372 340 375 338 373 339 374 341 376 340 375 339 374 342 377 340 375 341 376 333 368 343 379 335 378 344 380 343 379 333 368 345 381 344 380 333 368 346 382 344 380 345 381 347 383 346 382 345 381 325 384 346 382 347 383 284 385 325 384 347 383 350 388 349 387 348 386 351 389 349 387 350 388 352 390 351 389 350 388 353 391 351 389 352 390 354 392 353 391 352 390 355 393 353 391 354 392 331 396 357 395 356 394 358 397 357 395 331 396 359 398 358 397 331 396 360 399 358 397 359 398 361 400 360 399 359 398 362 401 360 399 361 400 363 403 316 402 314 402 318 357 316 402 363 403 364 404 318 357 363 403 365 405 318 357 364 404 281 319 365 405 364 404 320 355 365 405 281 319 368 408 367 407 366 406 369 409 367 407 368 408 294 410 369 409 368 408 370 411 369 409 294 410 292 412 370 411 294 410 371 413 370 411 292 412 372 414 307 345 309 347 373 415 307 345 372 414 300 338 373 415 372 414 374 416 373 415 300 338 298 336 374 416 300 338 375 417 374 416 298 336 377 420 354 419 376 418 378 421 354 419 377 420 379 422 378 421 377 420 380 423 378 421 379 422 381 424 380 423 379 422 325 425 380 423 381 424 289 327 361 426 287 325 362 427 361 426 289 327 382 428 362 427 289 327 297 335 362 427 382 428 295 333 297 335 382 428 385 431 384 430 383 429 386 432 384 430 385 431 387 433 386 432 385 431 388 434 386 432 387 433 389 435 388 434 387 433 384 438 390 437 383 436 391 439 390 437 384 438 392 440 391 439 384 438 393 441 391 439 392 440 394 442 393 441 392 440 241 281 257 297 240 280 395 443 257 297 241 281 252 292 395 443 241 281 255 295 395 443 252 292 254 294 255 295 252 292 397 446 396 445 377 444 398 447 396 445 397 446 399 448 398 447 397 446 400 449 398 447 399 448 401 450 400 449 399 448 402 453 348 452 349 451 366 454 348 452 402 453 403 455 366 454 402 453 368 456 366 454 403 455 404 457 368 456 403 455 405 460 366 459 367 458 406 461 366 459 405 460 397 446 406 461 405 460 376 462 406 461 397 446 377 444 376 462 397 446 407 463 405 460 367 458 408 464 405 460 407 463 341 465 408 464 407 463 401 450 408 464 341 465 410 467 270 310 409 466 268 308 270 310 410 467 411 468 268 308 410 467 412 469 268 308 411 468 324 359 314 402 312 357 363 403 314 402 324 359 277 317 363 403 324 359 279 315 363 403 277 317 347 383 286 470 284 385 334 369 286 470 347 383 345 381 334 369 347 383 333 368 334 369 345 381 342 471 370 411 371 413 413 472 370 411 342 471 341 473 413 472 342 471 407 474 413 472 341 473 296 477 414 476 297 475 404 457 414 476 296 477 294 478 404 457 296 477 368 456 404 457 294 478 371 479 340 375 342 377 415 480 340 375 371 479 290 481 415 480 371 479 288 482 415 480 290 481 418 485 417 484 416 483 390 486 417 484 418 485 385 487 390 486 418 485 383 488 390 486 385 487 419 491 401 490 341 489 420 492 401 490 419 491 335 493 420 492 419 491 343 494 420 492 335 493 415 480 338 373 340 375 336 371 338 373 415 480 288 482 336 371 415 480 286 324 336 371 288 482 355 495 330 365 332 367 421 496 330 365 355 495 326 361 421 496 355 495 327 362 421 496 326 361 243 283 249 289 241 281 247 287 249 289 243 283 245 285 247 287 243 283 357 395 422 497 349 451 414 476 422 497 357 395 297 498 414 476 357 395 422 497 402 453 349 451 403 455 402 453 422 497 404 457 403 455 422 497 399 448 408 464 401 450 405 460 408 464 399 448 397 446 405 460 399 448 351 389 357 395 349 387 356 394 357 395 351 389 353 391 356 394 351 389 283 321 278 318 276 316 280 316 278 318 283 321 282 320 280 316 283 321 299 501 388 500 389 499 392 440 388 500 299 501 394 442 392 440 299 501 419 502 337 372 335 370 339 374 337 372 419 502 341 376 339 374 419 502 423 503 360 399 362 401 358 397 360 399 423 503 357 395 358 397 423 503 376 504 350 388 348 386 352 390 350 388 376 504 354 392 352 390 376 504 387 433 298 505 389 435 375 506 298 505 387 433 385 431 375 506 387 433 424 507 289 327 291 329 382 428 289 327 424 507 295 333 382 428 424 507 393 510 425 509 391 508 417 511 425 509 393 510 394 512 417 511 393 510 332 513 353 391 355 393 356 394 353 391 332 513 246 286 258 298 256 296 244 284 258 298 246 286 253 293 248 288 246 286 251 291 248 288 253 293 426 514 398 447 400 449 396 445 398 447 426 514 423 503 297 498 357 395 362 401 297 498 423 503 373 415 305 343 307 345 374 416 305 343 373 415 375 417 305 343 374 416 418 515 305 343 375 417 418 515 303 341 305 343 416 516 303 341 418 515 427 517 300 338 372 414 306 344 300 338 427 517 301 339 416 516 299 337 303 341 416 516 301 339 302 340 306 344 304 342 300 338 306 344 302 340 293 331 424 507 291 329 295 333 424 507 293 331 386 518 392 440 384 438 388 500 392 440 386 518 396 519 379 422 377 420 426 520 379 422 396 519 348 523 406 522 376 521 366 524 406 522 348 523 329 364 359 525 331 366 285 323 359 525 329 364 285 323 361 426 359 525 287 325 361 426 285 323 426 526 344 380 346 382 343 379 344 380 426 526 416 528 394 512 299 527 417 511 394 512 416 528 428 354 281 319 272 312 320 355 281 319 428 354 367 407 413 472 407 474 369 409 413 472 367 407 420 492 400 529 401 490 343 494 400 529 420 492 326 530 380 423 325 425 355 531 380 423 326 530 355 531 378 421 380 423 354 419 378 421 355 531 421 496 328 363 330 365 327 362 328 363 421 496 273 313 323 358 322 356 275 315 323 358 273 313 279 315 364 404 363 403 281 319 364 404 279 315 381 532 346 382 325 384 426 526 346 382 381 532 267 307 271 311 269 309 265 305 271 311 267 307 259 299 270 310 261 301 409 466 270 310 259 299 412 469 266 306 268 308 429 533 266 306 412 469 425 534 390 437 391 439 425 535 417 484 390 486 418 485 375 536 385 487 258 298 244 284 242 282 251 291 250 290 248 288 255 295 257 297 395 443 298 278 299 278 389 278 343 494 426 537 400 529 331 539 356 394 332 538 404 457 422 497 414 476 379 422 426 520 381 424 371 542 292 541 290 540 369 409 370 411 413 472 286 324 334 543 336 371 320 355 318 357 365 405 265 305 263 303 271 311 264 304 266 306 429 533</p>
                </polylist>
            </mesh>
        </geometry>
    </library_geometries>
    <library_controllers>
        <controller id="controller0">
            <skin source="#mesh0">
                <bind_shape_matrix>1 0 0 0 0 1 0 0 0 0 1 0 0 0 0 1</bind_shape_matrix>
                <source id="joints0">
                    <Name_array id="JointArr0" count="13">jointnode-1 jointnode0 jointnode1 jointnode2 jointnode3 jointnode4 jointnode5 jointnode6 jointnode7 jointnode8 jointnode9 jointnode10 jointnode11</Name_array>
                    <technique_common>
                        <accessor source="#JointArr0" count="13">
                            <param name="JOINT" type="Name" />
                        </accessor>
                    </technique_common>
                </source>
                <source id="matrices0">
                    <float_array id="MatArr0" count="208">1 0 0 0 0 1 0 0 0 0 1 0 0 0 0 1 0.00004793836256601856 0.9999999988509567 -4.386559881474326e-18 0 -0.00004793836251091911 2.2980866055094973e-9 0.9999999988509567 0 0.9999999977019134 -0.00004793836251091911 0.00004793836256601856 0 0 0 0 1 0.000005912328150267383 0.7660786806129893 0.6427468047958744 -29.110989840614046 -0.00006753678687636021 -0.6427468030353594 0.7660786791359014 24.424378610307897 0.9999999977019135 -0.00004793836251091911 0.000047938362566018563 -4.336808689942018e-19 0 0 0 1 0.9999999962694429 -0.00008466292000114608 0.000017126133144491138 -15.638491359825958 0.00006753678687636022 0.6427468030353592 -0.7660786791359017 -24.42437861030789 0.000053850690599309734 0.7660786774346453 0.642746806355417 -55.11173958760861 0 0 0 1.0000000000000002 0.9999999962694426 -0.00008466292000114608 0.000017126133144491128 -32.8985907708367 -0.00006753678687636021 -0.6427468030353592 0.7660786791359013 24.424383610307764 -0.00005385069059930971 -0.766078677434645 -0.642746806355417 55.1117365876085 0 0 0 1 0.9999999962694426 -0.00008466292000114608 0.000017126133144491128 -50.36299583065113 -0.00006753678687636021 -0.6427468030353592 0.7660786791359013 24.424383610307757 -0.00005385069059930971 -0.766078677434645 -0.642746806355417 55.11173658760849 0 0 0 1 -0.9999999962694429 0.00008466292000114608 -0.000017126133144491138 -15.882495160961906 0.00006753678687636021 0.6427468030353592 -0.7660786791359017 -24.424379610307888 -0.00005385069059930973 -0.7660786774346453 -0.642746806355417 55.110228523126615 0 0 0 1.0000000000000002 -0.9999999962694426 0.00008466292000114608 -0.000017126133144491128 -33.27534794416503 -0.0000675367868763602 -0.6427468030353592 0.7660786791359013 24.424384610307765 0.0000538506905993097 0.766078677434645 0.642746806355417 -55.110225523126495 0 0 0 1 -0.9999999962694426 0.00008466292000114608 -0.000017126133144491128 -50.035268064404264 -0.0000675367868763602 -0.6427468030353592 0.7660786791359013 24.424384610307765 0.0000538506905993097 0.766078677434645 0.642746806355417 -55.11022552312649 0 0 0 1 -0.6115409182501672 -0.6783283933878209 -0.4072938693739936 8.378103791787735 -0.7875197837880152 0.472165335928606 0.39607131389423306 -84.68364377781953 -0.0763563713662449 0.5629657949390213 -0.8229454527977268 -19.177977752365052 0 0 0 1 -0.6257168229499468 -0.6546181167205061 -0.42420935720316527 7.003986771282547 -0.7777245152636673 0.48157239316573885 0.4040205545495382 -83.76761600070984 -0.06019165918396492 0.5827204745003565 -0.810440505381339 -26.269292984781455 0 0 0 1 -0.000047936064369230354 0.000047940660597427155 0.9999999977019134 -25.71316283191315 -0.00004794066059753818 -0.9999999977018034 0.0000479383625107758 68.64191463259635 0.9999999977019135 -0.00004793836251091911 0.000047938362566018563 -6.505213034913027e-19 0 0 0 1 0.999999993302885 -0.00008183184086339653 0.00008183996595934136 0.002279896318510859 0.00008184360993304343 0.9999999863097385 -0.00014381288745596565 -106.79634901190194 -0.00008182819636582573 0.00014381958457113355 0.9999999863100366 -39.51189835378754 0 0 0 1</float_array>
                    <technique_common>
                        <accessor source="#MatArr0" count="13" stride="16">
                            <param type="float4x4" />
                        </accessor>
                    </technique_common>
                </source>
                <source id="weights0">
                    <float_array id="WeightArr0" count="1">1</float_array>
                    <technique_common>
                        <accessor source="#WeightArr0" count="1">
                            <param type="float" />
                        </accessor>
                    </technique_common>
                </source>
                <joints>
                    <input semantic="JOINT" source="#joints0" />
                    <input semantic="INV_BIND_MATRIX" source="#matrices0" />
                </joints>
                <vertex_weights count="430">
                    <input semantic="JOINT" offset="0" source="#joints0" />
                    <input semantic="WEIGHT" offset="1" source="#weights0" />
                    <vcount>1 1 1 1 1 1 1 1 1 1 1 1 1 1 1 1 1 1 1 1 1 1 1 1 1 1 1 1 1 1 1 1 1 1 1 1 1 1 1 1 1 1 1 1 1 1 1 1 1 1 1 1 1 1 1 1 1 1 1 1 1 1 1 1 1 1 1 1 1 1 1 1 1 1 1 1 1 1 1 1 1 1 1 1 1 1 1 1 1 1 1 1 1 1 1 1 1 1 1 1 1 1 1 1 1 1 1 1 1 1 1 1 1 1 1 1 1 1 1 1 1 1 1 1 1 1 1 1 1 1 1 1 1 1 1 1 1 1 1 1 1 1 1 1 1 1 1 1 1 1 1 1 1 1 1 1 1 1 1 1 1 1 1 1 1 1 1 1 1 1 1 1 1 1 1 1 1 1 1 1 1 1 1 1 1 1 1 1 1 1 1 1 1 1 1 1 1 1 1 1 1 1 1 1 1 1 1 1 1 1 1 1 1 1 1 1 1 1 1 1 1 1 1 1 1 1 1 1 1 1 1 1 1 1 1 1 1 1 1 1 1 1 1 1 1 1 1 1 1 1 1 1 1 1 1 1 1 1 1 1 1 1 1 1 1 1 1 1 1 1 1 1 1 1 1 1 1 1 1 1 1 1 1 1 1 1 1 1 1 1 1 1 1 1 1 1 1 1 1 1 1 1 1 1 1 1 1 1 1 1 1 1 1 1 1 1 1 1 1 1 1 1 1 1 1 1 1 1 1 1 1 1 1 1 1 1 1 1 1 1 1 1 1 1 1 1 1 1 1 1 1 1 1 1 1 1 1 1 1 1 1 1 1 1 1 1 1 1 1 1 1 1 1 1 1 1 1 1 1 1 1 1 1 1 1 1 1 1 1 1 1 1 1 1 1 1 1 1 1 1 1 1 1 1 1 1 1 1 1 1 1 1 1 1 1 1 1 1 1 1 1 1 1 1 1 1 1 1 1 1</vcount>
                    <v>11 0 11 0 11 0 11 0 11 0 11 0 11 0 11 0 11 0 11 0 11 0 11 0 11 0 11 0 11 0 11 0 11 0 11 0 11 0 11 0 11 0 11 0 11 0 11 0 11 0 11 0 11 0 11 0 11 0 11 0 11 0 11 0 11 0 11 0 11 0 11 0 11 0 11 0 11 0 11 0 11 0 11 0 11 0 11 0 11 0 11 0 11 0 11 0 11 0 11 0 11 0 11 0 11 0 11 0 11 0 11 0 11 0 11 0 11 0 11 0 11 0 11 0 11 0 8 0 8 0 8 0 8 0 8 0 8 0 8 0 8 0 8 0 8 0 8 0 8 0 8 0 8 0 8 0 8 0 8 0 10 0 10 0 10 0 8 0 8 0 8 0 2 0 6 0 2 0 6 0 6 0 7 0 6 0 7 0 6 0 7 0 7 0 8 0 8 0 10 0 10 0 10 0 10 0 8 0 11 0 11 0 11 0 11 0 11 0 11 0 11 0 11 0 11 0 11 0 11 0 11 0 11 0 11 0 11 0 2 0 6 0 7 0 7 0 8 0 11 0 11 0 11 0 11 0 11 0 11 0 11 0 11 0 11 0 11 0 11 0 11 0 11 0 11 0 11 0 11 0 11 0 11 0 9 0 9 0 9 0 11 0 11 0 11 0 11 0 11 0 11 0 11 0 11 0 11 0 11 0 11 0 11 0 11 0 11 0 11 0 11 0 2 0 2 0 11 0 11 0 11 0 9 0 11 0 11 0 11 0 11 0 11 0 11 0 11 0 11 0 11 0 11 0 11 0 11 0 11 0 11 0 11 0 11 0 11 0 11 0 8 0 10 0 11 0 11 0 11 0 11 0 11 0 11 0 8 0 8 0 8 0 11 0 11 0 11 0 11 0 11 0 11 0 11 0 11 0 11 0 11 0 11 0 11 0 11 0 11 0 11 0 11 0 11 0 11 0 8 0 11 0 11 0 11 0 11 0 11 0 11 0 11 0 11 0 11 0 11 0 11 0 11 0 11 0 11 0 11 0 11 0 11 0 11 0 11 0 11 0 11 0 11 0 11 0 11 0 11 0 2 0 2 0 2 0 2 0 2 0 2 0 2 0 2 0 2 0 2 0 2 0 2 0 2 0 2 0 2 0 2 0 2 0 2 0 2 0 2 0 2 0 2 0 2 0 2 0 2 0 2 0 2 0 2 0 2 0 2 0 2 0 2 0 2 0 2 0 2 0 2 0 2 0 2 0 2 0 2 0 2 0 2 0 2 0 2 0 1 0 1 0 1 0 1 0 1 0 1 0 1 0 1 0 1 0 1 0 1 0 1 0 1 0 1 0 5 0 5 0 3 0 4 0 3 0 4 0 3 0 3 0 2 0 3 0 2 0 2 0 2 0 2 0 2 0 1 0 2 0 1 0 2 0 1 0 2 0 2 0 2 0 2 0 2 0 2 0 2 0 1 0 1 0 1 0 1 0 1 0 1 0 1 0 1 0 1 0 1 0 1 0 1 0 1 0 1 0 1 0 1 0 1 0 1 0 1 0 1 0 1 0 1 0 1 0 1 0 1 0 1 0 1 0 1 0 1 0 1 0 1 0 1 0 1 0 1 0 1 0 1 0 1 0 1 0 2 0 2 0 2 0 1 0 1 0 1 0 1 0 1 0 1 0 2 0 3 0 4 0 5 0 1 0 1 0 1 0 1 0 1 0 1 0 1 0 5 0 5 0 5 0 5 0 5 0 5 0 5 0 5 0 5 0 5 0 5 0 5 0 2 0 1 0 1 0 1 0 1 0 1 0 1 0 1 0 1 0 1 0 1 0 1 0 1 0 1 0 2 0 2 0 2 0 2 0 1 0 1 0 1 0 5 0 5 0 5 0 1 0 1 0 1 0 1 0 1 0 1 0 5 0 1 0 2 0 2 0 2 0</v>
                </vertex_weights>
            </skin>
        </controller>
    </library_controllers>
    <library_visual_scenes>
        <visual_scene id="VisualSceneNode">
            <node id="node0" name="m0" type="NODE">
                <instance_controller url="#controller0">
                    <skeleton>#jointnode-1</skeleton>
                    <bind_material>
                        <technique_common>
                            <instance_material symbol="Material1" target="#mat0">
                                <bind_vertex_input semantic="UVSET0" input_semantic="TEXCOORD" input_set="0"></bind_vertex_input>
                            </instance_material>
                        </technique_common>
                    </bind_material>
                </instance_controller>
            </node>
            <node id="jointnode-1" name="root" sid="jointnode-1" type="JOINT">
                <node id="jointnode0" name="root" sid="jointnode0" type="JOINT">
                    <rotate>0 0 1 89.99725333414716</rotate>
                    <rotate>1 0 0 89.99725333414716</rotate>
                    <node id="jointnode1" name="spin" sid="jointnode1" type="JOINT">
                        <translate>38 0 0</translate>
                        <rotate>0 0 1 39.9969481490524</rotate>
                        <node id="jointnode2" name="arm_l_1" sid="jointnode2" type="JOINT">
                            <translate>26 0 15.641133308410645</translate>
                            <rotate>0 0 1 180</rotate>
                            <rotate>0 1 0 -89.99725333414716</rotate>
                            <node id="jointnode3" name="arm_l_2" sid="jointnode3" type="JOINT">
                                <translate>17.260099411010742 0.000004999999873689376 -0.000003000000106112566</translate>
                                <rotate>1 0 0 -180</rotate>
                                <node id="jointnode4" name="wrist_l" sid="jointnode4" type="JOINT">
                                    <translate>17.464405059814453 0 0</translate>
                                </node>
                            </node>
                        </node>
                        <node id="jointnode5" name="arm_r_1" sid="jointnode5" type="JOINT">
                            <translate>26 -9.999999974752427e-7 -15.879853248596191</translate>
                            <rotate>0 1 0 89.99725333414716</rotate>
                            <rotate>1 0 0 -180</rotate>
                            <node id="jointnode6" name="arm_r_2" sid="jointnode6" type="JOINT">
                                <translate>17.392852783203125 0.000004999999873689376 0.000003000000106112566</translate>
                                <rotate>1 0 0 180</rotate>
                                <node id="jointnode7" name="wrist_r" sid="jointnode7" type="JOINT">
                                    <translate>16.759920120239258 0 0</translate>
                                    <node id="jointnode8" name="finger_1" sid="jointnode8" type="JOINT">
                                        <translate>13.000001907348633 4.354781150817871 1.7498899698257446</translate>
                                        <rotate>0 0 1 11.464583269753104</rotate>
                                        <rotate>0 1 0 51.39561143833735</rotate>
                                        <rotate>1 0 0 99.00631733146153</rotate>
                                    </node>
                                    <node id="jointnode9" name="finger_2" sid="jointnode9" type="JOINT">
                                        <translate>12.316373825073242 -2.3922219276428223 1.008286952972412</translate>
                                        <rotate>0 0 1 8.706930753501998</rotate>
                                        <rotate>0 1 0 50.730918301950126</rotate>
                                        <rotate>1 0 0 96.75954466383862</rotate>
                                    </node>
                                </node>
                            </node>
                        </node>
                        <node id="jointnode10" name="face" sid="jointnode10" type="JOINT">
                            <translate>40 0 0</translate>
                            <rotate>0 0 1 50.00030518509476</rotate>
                            <node id="jointnode11" name="ef_head" sid="jointnode11" type="JOINT">
                                <translate>13.788496017456055 -38.15822219848633 9.999999974752427e-7</translate>
                                <rotate>0 0 1 44.99588000122074</rotate>
                                <rotate>0 1 0 -89.99725333414716</rotate>
                                <rotate>1 0 0 134.99862666707358</rotate>
                            </node>
                        </node>
                    </node>
                </node>
            </node>
        </visual_scene>
    </library_visual_scenes>
    <scene>
        <instance_visual_scene url="#VisualSceneNode"></instance_visual_scene>
    </scene>
</COLLADA>
