<?xml version="1.0"?>
<COLLADA xmlns="http://www.collada.org/2005/11/COLLADASchema" version="1.4.1">
    <asset>
        <contributor>
            <authoring_tool>J3D Ripoff Exporter</authoring_tool>
        </contributor>
        <created>2024-10-08T03:46:24.686Z</created>
        <modified>2024-10-08T03:46:24.686Z</modified>
		<unit meter="0.01" name="centimeter" ></unit>
        <up_axis>Y_UP</up_axis>
    </asset>
    <library_images>
        <image id="tex0">
            <init_from>jugem_face.1.png</init_from>
        </image>
        <image id="tex1">
            <init_from>k_hlight2.png</init_from>
        </image>
        <image id="tex2">
            <init_from>jugem_glass_tx.png</init_from>
        </image>
        <image id="tex3">
            <init_from>jugem_all_tx.png</init_from>
        </image>
    </library_images>
    <library_effects>
        <effect id="effect0">
            <profile_COMMON>
                <newparam sid="surface0">
                    <surface type="2D">
                        <init_from>tex3</init_from>
                    </surface>
                </newparam>
                <newparam sid="sampler0">
                    <sampler2D>
                        <source>surface0</source>
                    </sampler2D>
                </newparam>
                <technique sid="COMMON">
                    <blinn>
                        <diffuse>
                            <texture texture="sampler0" texcoord="UVSET0"></texture>
                        </diffuse>
                    </blinn>
                </technique>
            </profile_COMMON>
        </effect>
        <effect id="effect1">
            <profile_COMMON>
                <newparam sid="surface1">
                    <surface type="2D">
                        <init_from>tex2</init_from>
                    </surface>
                </newparam>
                <newparam sid="sampler1">
                    <sampler2D>
                        <source>surface1</source>
                    </sampler2D>
                </newparam>
                <technique sid="COMMON">
                    <blinn>
                        <diffuse>
                            <texture texture="sampler1" texcoord="UVSET0"></texture>
                        </diffuse>
                    </blinn>
                </technique>
            </profile_COMMON>
        </effect>
        <effect id="effect2">
            <profile_COMMON>
                <newparam sid="surface2">
                    <surface type="2D">
                        <init_from>tex0</init_from>
                    </surface>
                </newparam>
                <newparam sid="sampler2">
                    <sampler2D>
                        <source>surface2</source>
                    </sampler2D>
                </newparam>
                <technique sid="COMMON">
                    <blinn>
                        <diffuse>
                            <texture texture="sampler2" texcoord="UVSET0"></texture>
                        </diffuse>
                    </blinn>
                </technique>
            </profile_COMMON>
        </effect>
    </library_effects>
    <library_materials>
        <material id="mat0" name="dou">
            <instance_effect url="#effect0"></instance_effect>
        </material>
        <material id="mat1" name="jugem_glass">
            <instance_effect url="#effect1"></instance_effect>
        </material>
        <material id="mat2" name="me_kuchi">
            <instance_effect url="#effect2"></instance_effect>
        </material>
    </library_materials>
    <library_geometries>
        <geometry id="mesh0">
            <mesh>
                <source id="points0">
                    <float_array id="pointarray0" count="1188">-19.434101289883184 71.55086034480325 43.74231325807366 -21.98554555039839 82.6884093623317 34.45316287896532 -18.947156428385142 78.79406368850047 45.40145896464579 -18.94683343797705 87.68975220791394 36.06093506611109 -15.348849047343617 85.24356622931116 45.1914910216522 -14.96608514607557 91.43044322232006 45.38955795165848 -11.133904014607115 90.22112354856357 50.145325226842324 -11.023468038112055 97.04290838956092 49.25799481080533 0.0016954389507383262 89.37891006985485 54.262171382042176 0.002095043615116092 96.92515493992255 53.4517548483184 11.028081822710597 97.04185127436735 49.259051926000126 7.266410120429217 103.3898354590401 47.60293716420776 15.203217063900548 100.06392448186884 39.378019859496774 8.042705404159944 106.65544380290603 33.78773142483256 13.77089418168826 100.54100137426259 30.015544941046628 8.228350950686998 101.83245219765935 25.195585395089285 9.805780913012608 91.4368708828274 20.624969371824978 0.003584710548746094 92.30990338660698 17.80359247861178 0.003542425469327588 87.9015464679594 14.277307397654049 -9.791716928058586 86.99246207131908 17.530331834730173 0.00326366542338703 80.06128328205257 12.252012241784449 -10.321126110873555 78.83245857744335 16.328409976183163 0.002387972986909619 68.43179520420031 18.993874138224452 -6.173114594256831 68.2649088176984 20.90371136955318 8.877844131223053 68.40377684768752 11.363065984146356 12.535529829816793 62.90864970892986 17.63648544463561 12.44995002198079 66.9054221593594 20.49796821568035 11.233853819627182 58.3098623409767 23.02876099399303 11.469099607032295 61.42754177108499 27.258776037502795 -0.1181137625307368 55.34177621485722 27.071314721328903 -0.11810973354105217 58.9462424041027 30.59173569796638 -11.469541971704306 58.31095070459687 23.02767263037161 -11.704892496694285 61.428652694321826 27.25766511426468 -12.770098888578973 62.90986281933571 17.635272334228368 -12.684418816678221 66.90662767281815 20.496762584601772 -9.111487072740728 68.40463899153319 11.362200917941436 -6.936595814599611 72.56390993458523 13.357614453249194 6.703403066801361 72.56325544240158 13.358269063052035 -0.11743812423522904 66.97026890230919 25.23178781075806 12.5612754061109 75.8768101019849 7.921912167643224 9.152205423413793 80.01757567393592 -6.459249838312282 22.15187674702287 63.15758897724577 5.659477624504544 19.812963786859854 65.74434974362167 -10.135785953246518 22.18356253751423 48.64284115199138 -5.8902916243241865 17.325552640840215 55.869834002586984 -17.948833507258918 11.778134562929642 38.819455625700314 -16.52894725129672 9.549665166548346 47.908366496870684 -25.01576799725136 0.0027347115463593873 37.185172944254944 -19.527476313176667 -9.542641880335157 47.909281750809164 -25.01668325119089 -11.772794452327235 38.82058730579686 -16.530076479510097 -17.318440657230436 55.87149477890034 -17.950494283574184 -22.17829191376104 48.64496778665659 -5.892418258991845 -19.805659855484812 65.7462502215106 -10.137686666374531 -22.146327573044278 63.159713786570165 5.657352579940831 -9.143877984297234 80.01846350670232 -6.460127863541784 -12.55472661899506 75.87801412199755 7.920708147629177 0.0035774484932193282 81.19925662788827 6.844433082694375 -14.215109091401951 56.73776267462775 45.20328793232659 -16.332634564450647 60.82683908648563 45.44064031161279 -17.04126333086256 59.09730188096102 47.99056261580551 -16.32650952622957 61.55014143560361 49.85288125410135 -14.211025147561621 57.73455124999609 51.36597915560323 -12.22362678934574 63.57640586542626 50.419762788680416 -9.967676133187188 59.4414304530744 50.189737742102054 -9.259047366820989 61.17096861236477 47.63981734521224 -10.682429937728736 56.98859280578045 48.32741910371479 -9.97380212535689 58.71812428939633 45.77749870709927 -12.227712640146086 62.57962539638104 44.25707156492375 -15.617881713766293 63.27967291912805 47.30295895013721 11.137788210120142 90.2200539727569 50.146392895393035 14.970539312013573 91.42900620221253 45.39099306451048 14.987495601782502 85.24211004727215 45.192945296435695 18.951815690489656 87.68793350142629 36.0627528190637 18.9503940675002 78.79225075677105 45.40327761833174 21.9902024101724 82.68629074656197 34.45527100482291 19.436801636119142 71.54900099047924 43.744176665321355 21.68358391904528 72.78969546647015 33.00935061433451 17.458052158788846 67.898122942755 31.56299670042324 15.147661742265733 76.0847125299582 20.709980617489204 6.177685414743994 68.2643167405689 20.904303446683347 10.327153031692667 78.83146777907601 16.329399820923047 4.689664465223974 75.5528973930945 59.62605218569144 0.002687721051324144 77.38342920369905 21.651007267311527 2.641109406034166 72.07027865611227 58.563804048094724 -2.63977842420255 72.0705277601122 58.56355089117298 0.0006368607939141939 74.2411696800917 61.269078777593776 -4.688105460277101 75.55334694802977 59.625602630755665 -2.457835063927516 77.8309311409631 60.644792096535696 -3.292066053559439 78.90764222736587 57.21242661591056 0.001026553003940733 79.79668609445905 58.71642903242944 3.2941770836946134 78.90732172528247 57.21274234985135 2.459513786466327 77.83069541131077 60.64502782618829 -12.778119894010121 64.79047791660486 38.666293387887706 -17.454533973331518 67.89979254185319 31.561323048401597 -21.679735378229 72.79177423294934 33.007270894132894 -17.226534057449243 84.64166285315491 23.809214319451918 -15.502042868769255 90.48007774733385 26.343902082392226 -15.197370901774049 100.06538183623292 39.37656155141099 -13.764094158308549 100.54232135647267 30.014224005114986 -8.035683726676169 106.65621457455455 33.78696065318316 -8.220967897314265 101.83324075107114 25.194796841676578 0.003807383055519317 102.02577797385779 22.87449183351993 0.0023362198144257634 29.655049378875376 -18.745014506317013 -13.537797124906728 36.85041819849927 -17.118859649230384 -13.976411200701266 30.733641714302404 -13.762384740438936 -26.40785051930171 41.95359873716117 -0.7343835914061321 0.002298933286790938 52.54946364702434 4.948061305060755 -24.39587486474903 59.22146137560097 13.362829341789185 -14.836125678115417 76.05935291238946 15.965937545480942 -14.436842633969295 78.6449497536633 8.532711469397595 0.0032000907031096894 81.5833002040801 15.204506075421584 0.0036450947412143557 83.99506629620153 8.229133894277707 14.44359991926486 78.64357064677826 8.534095480053173 20.099622371790506 54.13118935779029 1.1027846758326725 20.92155858286237 41.23865949415498 -4.918091670774803 20.653311605021628 45.25128548070595 11.654308778130126 17.006520271073725 34.425740665055436 10.215853784363109 13.272925872329818 42.06251338531096 20.945534555835877 -0.11859658504064159 29.932063140612193 12.484326660444532 -0.11864396936890866 39.64556798265551 22.727318989375004 -13.509912887456347 42.06379938489769 20.944251125750597 -0.11847380856791187 47.668969868411764 27.159493569197444 -12.680471293791578 48.744141021802434 24.331249892252263 -20.329029087848646 42.62195771312079 19.345378914797614 -20.327911235259727 44.7572459005117 -1.877659615099219 0.0007030735943983424 36.6695060814287 21.899005864489983 20.332380342869463 44.75529289801249 -1.875710427295032 20.331258675766158 42.62000852550172 19.34732810241893 31.899778547532414 39.17074636507199 18.001529153814786 28.241939883564505 36.24853554307674 26.33572729343185 39.42987852011598 27.79954339136288 15.938801741185639 34.43095230340216 24.799882210382464 27.303322519665052 37.66890173824832 17.17060901392388 18.00180385934358 26.681280332997922 17.014397461073045 33.88147848909262 8.438373447555408 66.76011726625156 48.08274431633078 12.780658810025253 64.78925171692887 38.66751863393649 0.0006626865432061888 63.28103284289913 49.81193397691046 0.0011222357875894328 61.06859505874011 37.99238366543568 -6.959640388936689 64.83866324521507 28.30105998216166 -15.142316215469025 76.08616458190531 20.708528565540423 13.980713445133846 30.7323014955233 -13.76104452165829 26.411977392755375 41.951065910507594 -0.731852108310327 24.400303840781643 59.21912140047777 13.365169463938122 24.52568598051353 47.51510806601732 -6.350106065973552 24.18778399805316 63.19603162271546 6.066417366595566 24.032293847210664 79.33743471171208 29.63296840431847 20.920164819229917 82.80702362022133 21.997862925475584 -0.029416030029080602 80.46132535382064 26.85148014650781 18.720801825905014 93.58934061621711 21.982737583068502 -0.0025645507065602874 94.59324821940413 34.36070750734922 19.729100998398753 96.95893556242639 29.484054428230987 0.03164797329389173 91.39687690014141 42.18840661384558 23.058468570526635 93.77894465570648 37.30683930459667 24.97481154453639 82.99663932022126 37.32195823213624 19.87938951488976 18.73667215821741 -37.77537614161033 0.003009205556088165 27.872192270582467 -35.00449748809418 10.984608713207338 13.012959339305619 -45.117397234164486 -10.979040032399839 13.01401224066366 -45.11845013552374 0.0023709201532109573 1.5244659258438915 -48.03751367795267 -11.822656412006452 -10.602122996434723 -42.397497477720954 11.825698063250572 -10.603264289221482 -42.396356184932884 0.000022171056819667977 -24.74952509969155 -25.316316575764404 19.877609709058266 -13.25422115717317 -32.59951860352086 29.68061278378513 1.703500195694889 41.487861634952424 18.10250602791676 7.718336153345998 43.30196570638779 12.394697933093482 -6.475071003233565 42.667491065498155 -0.002070744441811397 5.82702790366258 48.918704930122864 -12.399420891107352 -6.47388146010019 42.66630247603773 -18.10586607702056 7.720071923417872 41.948957351753435 -29.684434534577115 1.7063470125345532 41.48501577178381 -26.68290678487571 17.0169575601747 33.878920297336656 -33.12757362504409 -16.792694850868184 -21.754962167771307 -40.10755177589405 -14.851617747238723 -1.8786116155991035 -35.35751996818485 -29.466513365234924 -1.8783838732658111 -35.26998250029198 -22.12910567271363 17.998305471631326 -29.127294585075628 -30.68555631139304 18.491355852153976 -22.02779146500618 -18.816792250933943 32.57695084880716 -16.12702877223899 -34.86858118476 21.297135784209836 -0.0027570236173300976 -28.104665656351866 29.302877392237495 -0.0021244691477516602 -32.67044442422157 11.562796579234494 15.508229085979895 90.47859116572049 26.34538967733484 17.23240255464532 84.64001094815607 23.810866224452653 9.79841287921652 86.9915229525726 17.53127095347774 0.0045989025499850586 75.83661871946383 -19.721558443554567 -9.664137603720208 70.6271704720921 -21.50623347820638 0.004402405792751907 64.59203663568664 -26.867194570808486 49.763832092285156 62.689048767089844 18.170896530151367 34.2959330014168 61.730884893792954 12.100306052076935 49.36366094068372 62.27075739772106 12.558025598634726 34.00127957245181 57.00097600666868 10.58219725448492 49.85284330644844 56.442603001709 11.578169547284041 34.02672776709013 53.67994869528403 14.044882283391132 49.582000732421875 53.0621223449707 17.621753692626953 32.34564986931428 56.90673877497035 21.016884758223952 49.853946685791016 57.729454040527344 20.366641998291016 -16.561457925178264 33.32829335711872 30.64791628030525 -28.240996845763675 36.251243242579555 26.333019593925922 -31.897752433510718 39.17380471424647 17.99846508259089 -39.428756247253375 27.803325652540774 15.935020433677717 -37.14621679698025 35.70196082354279 0.11867919289788406 -40.857663470007076 17.174373448882196 4.785181209125546 -38.250764282665266 24.778174192096934 -7.7418325622864295 -44.9746296655403 7.320626019735584 0.10252897426895854 -46.91619165491788 13.104848244445726 -13.861787209755146 -36.2169708514465 28.410191109943778 -21.755104650249898 -40.6782620378393 21.402180481580988 -30.616093505217183 -15.167388183373804 34.10569616360103 -26.06904652876409 -19.87398067878773 18.738577869693152 -37.77728185308826 -17.35676094861267 53.4836008167966 18.130928220185357 -20.72581198746868 45.253270660565455 11.65232330422223 -19.453956859873006 56.313187526751896 11.079180348996172 -20.33339335853764 54.13312741512334 1.1008436961391457 -15.726968806568452 61.72066931516342 13.3590446209819 -13.859687098917195 61.73284378040959 17.135528782762037 -17.243262211495768 34.42739319929372 10.214202172967674 -14.7987389676355 57.17639988241339 20.16358178520325 -0.001276373035207909 -34.42710492832217 -7.906110754705033 14.270912555240663 -32.61143245266779 -21.856251327089083 17.386178252889206 -39.33171272153634 -1.8758554040663513 26.40137791833235 -32.314719350274295 -16.105053732908186 35.35485169534672 -29.46990510789814 -1.874993084273013 33.12804527167559 -16.79587103675252 -21.751784074534687 40.106292338946844 -14.855464021259424 -1.8747643878996645 15.173149771803356 34.10424168789043 -26.067592053051815 40.68323756137901 21.398278237161197 -30.612191260792905 36.2217725733916 28.406716607845052 -21.751633962844444 46.91876525215256 13.100348996580694 -13.857287961884943 38.25386658386378 24.774502870663014 -7.738166009219875 44.97530604040358 7.316313013425679 0.10684902883307237 -24.017877728588537 82.08396344730384 30.481522503066248 -24.346909403949844 84.04230094689052 33.249878848739776 -23.86709698886851 64.52460213896813 42.5824739907129 -24.03291181919768 66.48291868444791 45.365409351278046 -22.688987270908644 63.142392095455875 43.7153768063955 -22.85480209956905 65.10074154260806 46.498310258034756 -14.763215850914431 59.03742120931576 47.17653245811154 -14.929019207588269 61.24269637571748 49.768147004207854 22.022852354660063 -18.81890396667105 32.57906256454669 31.865366845741573 -9.925110615614205 37.206613393462696 35.26612344732051 -22.13248324344114 18.001688764408613 45.757750247148046 -10.003373258245242 22.49083915403945 45.29693649028524 -11.388942676138377 8.020045260388333 48.412500935028554 3.986862137624704 13.964303549954083 40.85883948516897 17.170456093531428 4.789105717038195 14.841918572834699 76.05793019554228 15.967360262329754 -24.182272042787417 63.19835639121578 6.064097384243086 -31.869902554069462 -9.922054297483665 37.20355421430568 -45.786660247858514 -9.998982861750392 22.486448757539556 -44.081368561463194 5.025256009038958 28.758800681747523 -48.41347616789641 3.991504770100492 13.959662824821596 -37.66900015752758 17.174222496932682 17.99819037633062 -8.43654926628496 66.76092121562564 48.08193536040563 -14.021340543784147 72.73413855952664 50.19745680811483 -15.099316210943547 79.65548239323186 49.22914538544373 -8.685218063878311 80.51660499369682 49.92389246687174 17.105307530092418 53.48195437114082 18.132582491970243 14.547443787960663 57.17499169527789 20.164990236981854 31.332305317345583 56.93214797027516 20.91755189916941 33.26399567088836 63.00311044251057 17.73325138851086 19.219245565772244 56.31133237080807 11.081035740179015 33.3022304051976 56.98441242574527 10.58673159733135 33.64844102404687 61.73050036225985 12.100918191916922 15.476763611917622 61.71916747210977 13.360541677886761 12.443798311673588 48.4868398261126 24.56999409460758 47.05618608687436 5.020886070221538 -25.680535000765065 33.485492267723195 4.90376261722294 -37.6581314481737 42.09655665509076 -8.0519648342209 -29.117263743758333 -19.87576239178499 -13.252315445606001 -32.60142812978749 -42.09455185472403 -8.047927896657393 -29.121305449698067 -33.481426523350635 4.906976239519652 -37.66134554731127 -47.05326117605631 5.025398476704787 -25.685046453579183 -24.52048128042572 47.5174599895582 -6.3524566459564475 16.65980181020805 93.06718342802915 25.02449776355797 9.113261383552869 95.44982549740901 17.50315507732465 9.113151847770862 91.53913735849426 15.877396504388697 -9.034400600667427 91.54000922979284 15.876526540346305 0.03920006117052809 92.08697483011146 20.07659081364851 -16.581890519719593 89.15809074365885 23.397148683315553 -16.582065602018393 89.70548178916339 27.59677749828534 14.023538351422054 72.73279413395251 50.1988012336905 15.102270442886796 79.65403457871057 49.230595107406764 8.688188306413378 80.51577214104229 49.92472531952724 13.543003822991082 36.84911998924337 -17.11756143997299 0.0027394099872426357 35.436631557431575 -21.374027738822228 6.963174425106294 64.83799580826981 28.301727419107685 -34.43121108177349 24.803187164438945 27.300019472953405 -10.558593462696003 23.665999200349464 43.13549160571381 0.000010991464725093386 35.06338504952806 34.72980113783277 10.556717157633061 23.664985059583465 43.136503839132345 16.56170712931707 33.32670548682119 30.649504150604606 16.121636009607816 -34.870127132946344 21.29868173239796 29.122571766656836 -30.68834871460882 18.494148255372963 63.14897223993334 58.03571823374997 25.581724152262083 63.19340675511509 63.74150844606657 20.100528133420223 67.20225229108003 51.398693698013126 21.217538862334866 65.93644616129906 57.95644303168972 8.971829099910492 60.64841379377602 52.276856325870355 14.128231230056157 59.29361944824201 57.84718537734777 8.077415936115964 53.54861407975326 57.73221994815833 7.452107649489115 54.333774737522155 58.25085978176959 25.22539959745534 61.15184604647669 50.040973788804045 20.060531501270628 53.31440898455327 50.25394027034586 21.94159254032642 59.1029776463726 48.12550670276784 18.010026993997602 52.30766354034088 47.96723835621328 18.54361003126541 -0.0028988006143875903 -18.47015750555027 41.894870709677924 47.34194295452838 -2.685696593725108 -14.006468078785678 -47.34086856497715 -2.6811564626796347 -14.011005110394837 -17.389780682216642 -39.33004943370369 -1.8775235794817815 -14.271953132339187 -32.610064154422226 -21.857619625336223 -26.402941341941183 -32.31218799766965 -16.107586992864373 44.103129068996 5.021027634939701 28.76303000952596 -17.394230928869263 61.88441630990899 17.28176838442731 -31.70809881232712 56.93632820344675 20.9155002628635 -34.402818377563364 53.68459902986298 14.042727790179105 17.174819538155937 61.88265122396139 17.28332980688482 13.609121966044906 61.7315323449226 17.13684512201949 -19.874228431340992 37.33172518076636 -14.015986561787502 37.14961280504785 35.698395388424856 0.12224081332265835 19.87914176229078 37.329819469290626 -14.014079896635254 0.003204689595525399 107.05645080260558 40.43570234471539 -7.261025625757011 103.39053188052284 47.602240742724206 -45.29880838795923 -11.38459775711987 8.015699387690514 16.659692274280328 89.15649528926015 23.3987422304589 16.659517191981525 89.70388633476468 27.59837104542868 -33.67764304670766 56.98893151376715 10.584607626698462 -34.02320107162258 61.735077286943685 12.098784873267576 -33.63863206911876 63.00762294262109 17.731133991202878 -22.192181487678397 82.12718219231601 32.88698391084056 -21.718093173704222 66.01102169554623 44.11227564653921 24.693969679882255 88.95889754037367 28.682959860513634 -22.994478361395117 93.73526220487233 37.31828469592506 -24.909003802746327 82.95729748373572 37.311290991335504 -24.69478794497809 88.95706882105033 28.677077440393834 -24.026554116877016 79.33371552562447 29.598353867832657 -20.97830167839407 82.83607728693376 21.953414101017238 -16.581780983883306 93.06877697507923 25.022904216506067 -9.034291064976859 95.45069546135896 17.50228511337369 9.67300624959398 70.62624102919352 -21.505303564832968 -18.789509040743596 93.6140279061557 21.960414277852625 -19.733536641010918 96.94802156648812 29.485679226706864 -9.798957277407638 91.43781070187586 20.62402955277544 61.115594505468344 65.53623941982978 11.657380156261214 53.357559569002916 65.65104418335585 11.081206448116179 0.0325579970915084 80.61674377902742 42.19246731794078 0.0018988717691246007 47.82277111991797 8.5875601929469 0.0015197953201683378 62.46171843491632 31.134087721168378 -13.699833541566754 61.7583118802355 47.168678638132796 -21.156112371283648 41.24067691521395 -4.920112299757879 -49.670091136162064 56.43662686769432 11.618150368233032 -53.38883379660677 58.28346774337117 8.810905761136352 -60.51471916135009 55.42750599822454 14.15975407690638 -62.541719432628035 59.298823127969236 8.61943514365278 -63.7947835498414 55.527925639048874 12.583759115293889 -67.43703303926323 50.225822896164054 3.954185615744256 -68.6673271788603 48.764793239677516 7.013368380955343 -71.82033296139747 53.350647612643904 4.16949900709716 -73.34118515629703 51.36836122496673 8.14546343720441 -66.64826171335405 62.97553040930787 11.184526255023835 -68.16927056615921 60.99330678195587 15.16045765897062 -62.225071772465235 63.14809077666323 20.123189386619064 -68.59117910558466 58.80542055271446 19.221938175739485 -67.91399877637932 56.41186578552625 23.368976828791595 -74.05990302684337 45.430449497095935 18.042300191705046 -63.37391094226251 52.11875485526678 21.573343210471737 -70.97908112900393 43.06241071503745 16.541063000124122 -70.67512992239672 45.014888060243855 12.72737199463116 -74.73709086606483 47.82402667806164 13.895271470491682 -64.07214710178202 53.13455543155525 16.60925713272708 -69.00516321848343 46.02879953812255 11.906705280158048 -68.72795792680122 48.42224910870604 7.881234685091153 -73.82356665490505 48.83786216020126 13.074785973313512 -73.4018108757396 51.025827504143365 9.013321996656426 -63.272984318920464 58.22366809717795 25.233659972942867 -54.1713819267968 57.86625340715261 24.81468413150537 -59.60203141433358 52.67610374153639 20.913238576259726 -58.123159682426596 51.119332301080085 23.99806403386427 -64.81525481775941 46.97836335584452 21.141731724745807 -63.191255760153375 46.31768420328429 25.202216546385916 -63.2859396200021 44.27825025800537 19.64319906175903 -61.66193007212006 43.61756939570154 23.703683694711675 -52.09175386508714 47.930197293080305 18.542026704810905 -54.74676413488938 48.48809787272652 23.640919816970907 -51.45926443071801 51.37508705387281 21.936502458452953 -49.65809433752844 57.685461321635536 20.37283499673858 -34.67058161193671 61.73557067867168 12.098156137723022 -34.37668006459726 57.005612894148484 10.580054466608178 -48.96880836249238 56.12060799126475 12.0222072265003 -48.74659932816763 53.31611441693085 17.03222479638726 -49.403438023885556 53.07123633081117 17.63017136641034 -32.72145969554144 56.911104262676574 21.01480085427685 -48.76637528754896 62.69257923809949 18.09006312324421 -49.583316903471164 62.62938516911179 18.16188751116418 -49.183230374251956 62.216418635900276 12.58578385510401 -53.217455025512955 65.27510496452526 11.109068367534615 -60.947615677002105 65.56422069287537 11.697743142718023 -56.07999569505917 51.71489644978891 18.02070548647821</float_array>
                    <technique_common>
                        <accessor count="396" source="#pointarray0" stride="3">
                            <param name="X" type="float"/>
                            <param name="Y" type="float"/>
                            <param name="Z" type="float"/>
                        </accessor>
                    </technique_common>
                </source>
                <source id="uvs0">
                    <float_array id="uvarray0" count="1032">0.1573486328125 0.77850341796875 0.1517333984375 0.79388427734375 0.158203125 0.79107666015625 0.158203125 0.8065185546875 0.1644287109375 0.80224609375 0.16510009765625 0.81298828125 0.1717529296875 0.81085205078125 0.17193603515625 0.82269287109375 0.1910400390625 0.8094482421875 0.1910400390625 0.822509765625 0.21014404296875 0.82269287109375 0.20361328125 0.83367919921875 0.21734619140625 0.82794189453125 0.2049560546875 0.83935546875 0.21490478515625 0.82879638671875 0.20526123046875 0.83099365234375 0.2080078125 0.81298828125 0.1910400390625 0.81451416015625 0.1910400390625 0.806884765625 0.174072265625 0.8052978515625 0.1910400390625 0.79327392578125 0.17315673828125 0.7911376953125 0.1910400390625 0.77313232421875 0.1802978515625 0.7728271484375 0.89404296875 0.20465087890625 0.74542236328125 0.21014404296875 0.78826904296875 0.228759765625 0.618408203125 0.201416015625 0.6895751953125 0.2265625 0.6187744140625 0.20068359375 0.627685546875 0.23065185546875 0.74542236328125 0.209228515625 0.79400634765625 0.22784423828125 0.9503173828125 0.22918701171875 0.9483642578125 0.22991943359375 0.80462646484375 0.26385498046875 0.64215087890625 0.92193603515625 0.6884765625 0.86138916015625 0.55194091796875 0.8250732421875 0.62982177734375 0.76397705078125 0.54840087890625 0.6712646484375 0.641845703125 0.6861572265625 0.65020751953125 0.5584716796875 0.68670654296875 0.6224365234375 0.7510986328125 0.53277587890625 0.8114013671875 0.62310791015625 0.85235595703125 0.5589599609375 0.85498046875 0.68804931640625 0.95440673828125 0.671630859375 0.86676025390625 0.76544189453125 0.94976806640625 0.825439453125 0.8067626953125 0.8616943359375 0.857666015625 0.9224853515625 0.74920654296875 0.95269775390625 0.6949462890625 0.44110107421875 0.66973876953125 0.46527099609375 0.669677734375 0.44805908203125 0.66973876953125 0.46539306640625 0.6949462890625 0.44122314453125 0.69512939453125 0.4893798828125 0.72149658203125 0.46527099609375 0.7215576171875 0.482421875 0.721435546875 0.44793701171875 0.72149658203125 0.465087890625 0.69512939453125 0.4892578125 0.66973876953125 0.48260498046875 0.2103271484375 0.81085205078125 0.21697998046875 0.81298828125 0.21697998046875 0.80224609375 0.223876953125 0.8065185546875 0.223876953125 0.79107666015625 0.2303466796875 0.79388427734375 0.22467041015625 0.77850341796875 0.22857666015625 0.78070068359375 0.22125244140625 0.772216796875 0.21728515625 0.786376953125 0.20172119140625 0.7728271484375 0.20892333984375 0.7911376953125 0.418701171875 0.7196044921875 0.3668212890625 0.65203857421875 0.39599609375 0.6805419921875 0.33758544921875 0.6805419921875 0.3668212890625 0.7333984375 0.31494140625 0.7196044921875 0.339599609375 0.7730712890625 0.33038330078125 0.7850341796875 0.3668212890625 0.79486083984375 0.40325927734375 0.7850341796875 0.39398193359375 0.7730712890625 0.16888427734375 0.766845703125 0.1607666015625 0.772216796875 0.1534423828125 0.78070068359375 0.16119384765625 0.80120849609375 0.1641845703125 0.81134033203125 0.1646728515625 0.82794189453125 0.16717529296875 0.82879638671875 0.17706298828125 0.83935546875 0.1767578125 0.83099365234375 0.1910400390625 0.83135986328125 0.06463623046875 0.75140380859375 0.03546142578125 0.7532958984375 0.03399658203125 0.76031494140625 0.010498046875 0.7767333984375 0.06463623046875 0.8011474609375 0.00726318359375 0.82781982421875 0.0321044921875 0.852294921875 0.03350830078125 0.86114501953125 0.06463623046875 0.86309814453125 0.06463623046875 0.86785888671875 0.09576416015625 0.86114501953125 0.09588623046875 0.8402099609375 0.1080322265625 0.82037353515625 0.8770751953125 0.0546875 0.856201171875 0.05535888671875 0.6488037109375 0.050537109375 0.56890869140625 0.01983642578125 0.62799072265625 0.05755615234375 0.54791259765625 0.0189208984375 0.5704345703125 0.05438232421875 0.54058837890625 0.11279296875 0.569580078125 0.11309814453125 0.18841552734375 0.56640625 0.1976318359375 0.69293212890625 0.01544189453125 0.5594482421875 0.0814208984375 0.684814453125 0.08685302734375 0.5728759765625 0.1448974609375 0.58001708984375 0.13677978515625 0.5648193359375 0.16943359375 0.59088134765625 0.19219970703125 0.58251953125 0.22540283203125 0.58001708984375 0.2216796875 0.565673828125 0.30474853515625 0.74920654296875 0.213134765625 0.766845703125 0.1910400390625 0.76422119140625 0.1910400390625 0.7603759765625 0.178955078125 0.76690673828125 0.164794921875 0.786376953125 0.09521484375 0.76031494140625 0.1187744140625 0.7767333984375 0.1219482421875 0.82781982421875 0.11810302734375 0.77691650390625 0.119140625 0.830078125 0.105224609375 0.7816162109375 0.95562744140625 0.4747314453125 0.95098876953125 0.47821044921875 0.91973876953125 0.47589111328125 0.94769287109375 0.4888916015625 0.9197998046875 0.4898681640625 0.94915771484375 0.49224853515625 0.91986083984375 0.4866943359375 0.95416259765625 0.48907470703125 0.95703125 0.4783935546875 0.22283935546875 0.7318115234375 0.125244140625 0.7452392578125 0.17913818359375 0.69793701171875 0.0712890625 0.69793701171875 0.125244140625 0.6455078125 0.067138671875 0.56256103515625 0.18328857421875 0.56256103515625 0.125244140625 0.50555419921875 0.22283935546875 0.5252685546875 0.431396484375 0.41632080078125 0.45184326171875 0.2596435546875 0.37286376953125 0.3211669921875 0.33392333984375 0.1759033203125 0.2493896484375 0.30181884765625 0.164794921875 0.1759033203125 0.1258544921875 0.3211669921875 0.046875 0.2596435546875 0.06732177734375 0.41632080078125 0.04400634765625 0.71331787109375 0.005615234375 0.63970947265625 0.05908203125 0.63970947265625 0.02099609375 0.542724609375 0.09228515625 0.56427001953125 0.102783203125 0.51739501953125 0.1649169921875 0.566650390625 0.199951171875 0.5662841796875 0.237548828125 0.56610107421875 0.2178955078125 0.81134033203125 0.22088623046875 0.80120849609375 0.2080078125 0.8052978515625 0.747314453125 0.801513671875 0.794921875 0.75909423828125 0.74786376953125 0.703125 0.2039794921875 0.8939208984375 0.20098876953125 0.90093994140625 0.203369140625 0.89813232421875 0.200439453125 0.9512939453125 0.20404052734375 0.95794677734375 0.200439453125 0.9866943359375 0.20361328125 0.99261474609375 0.20050048828125 0.95220947265625 0.2041015625 0.94476318359375 0.2431640625 0.51519775390625 0.08026123046875 0.513916015625 0.10589599609375 0.5654296875 0.11151123046875 0.574462890625 0.05859375 0.58673095703125 0.06842041015625 0.6810302734375 0.00543212890625 0.6531982421875 0.015380859375 0.7279052734375 0.00701904296875 0.63421630859375 0.01080322265625 0.59814453125 0.01629638671875 0.68170166015625 0.04998779296875 0.656982421875 0.100830078125 0.68414306640625 0.10821533203125 0.64208984375 0.16217041015625 0.66156005859375 0.24334716796875 0.654541015625 0.22637939453125 0.63525390625 0.73455810546875 0.1146240234375 0.7952880859375 0.1151123046875 0.8031005859375 0.1767578125 0.77679443359375 0.187255859375 0.744873046875 0.18035888671875 0.0328369140625 0.6903076171875 0.00433349609375 0.6392822265625 0.08087158203125 0.6922607421875 0.08294677734375 0.6392822265625 0.1419677734375 0.690673828125 0.19268798828125 0.6392822265625 0.20562744140625 0.7110595703125 0.24468994140625 0.6392822265625 0.224853515625 0.65692138671875 0.23553466796875 0.66375732421875 0.15576171875 0.63287353515625 0.1185302734375 0.6597900390625 0.09564208984375 0.68316650390625 0.04925537109375 0.664794921875 0.0244140625 0.68231201171875 0.0057373046875 0.61041259765625 0.12591552734375 0.59356689453125 0.15496826171875 0.59356689453125 0.12591552734375 0.58636474609375 0.15496826171875 0.58636474609375 0.12591552734375 0.582763671875 0.15496826171875 0.582763671875 0.12591552734375 0.5718994140625 0.15496826171875 0.5718994140625 0.0328369140625 0.5301513671875 0.04315185546875 0.57952880859375 0.13421630859375 0.50958251953125 0.1357421875 0.58001708984375 0.205810546875 0.5721435546875 0.18359375 0.65911865234375 0.24395751953125 0.67791748046875 0.211669921875 0.733642578125 0.09710693359375 0.852294921875 0.0648193359375 0.85589599609375 0.0333251953125 0.8402099609375 0.01007080078125 0.830078125 0.02117919921875 0.82037353515625 0.0240478515625 0.7816162109375 0.0303955078125 0.53057861328125 0.13482666015625 0.5108642578125 0.04388427734375 0.57916259765625 0.1396484375 0.58026123046875 0.1416015625 0.65740966796875 0.18701171875 0.658935546875 0.13946533203125 0.7325439453125 0.21142578125 0.733154296875 0.26593017578125 0.74920654296875 0.166748046875 0.78057861328125 0.16485595703125 0.7926025390625 0.17596435546875 0.7940673828125 0.16107177734375 0.98797607421875 0.15850830078125 0.948486328125 0.196044921875 0.951904296875 0.19927978515625 0.8873291015625 0.16009521484375 0.96075439453125 0.19927978515625 0.95147705078125 0.19696044921875 0.90093994140625 0.79840087890625 0.11505126953125 0.7322998046875 0.11407470703125 0.53302001953125 0.1126708984375 0.1136474609375 0.60089111328125 0.166015625 0.6004638671875 0.117919921875 0.54339599609375 0.23779296875 0.52532958984375 0.1163330078125 0.510986328125 0.1173095703125 0.509765625 0.23876953125 0.52178955078125 0.1160888671875 0.54180908203125 0.1612548828125 0.58929443359375 0.1019287109375 0.5897216796875 0.0111083984375 0.77691650390625 0.02984619140625 0.733642578125 0.02532958984375 0.74444580078125 0.02532958984375 0.7320556640625 0.0145263671875 0.7320556640625 0.0198974609375 0.73223876953125 0.010009765625 0.72119140625 0.010009765625 0.72137451171875 0.21533203125 0.78057861328125 0.2171630859375 0.7926025390625 0.2060546875 0.7940673828125 0.09381103515625 0.7532958984375 0.06463623046875 0.75201416015625 0.03924560546875 0.76983642578125 0.20306396484375 0.76690673828125 0.01287841796875 0.56304931640625 0.0360107421875 0.5804443359375 0.00885009765625 0.574462890625 0.01708984375 0.59991455078125 0.0330810546875 0.71087646484375 0.08074951171875 0.65509033203125 0.125244140625 0.720703125 0.169677734375 0.65509033203125 0.21820068359375 0.71087646484375 0.2242431640625 0.6495361328125 0.00970458984375 0.5675048828125 0.0850830078125 0.568359375 0.15887451171875 0.565673828125 0.14556884765625 0.51708984375 0.229736328125 0.54412841796875 0.28253173828125 0.94775390625 0.3587646484375 0.96478271484375 0.2921142578125 0.91473388671875 0.4349365234375 0.92010498046875 0.35791015625 0.8519287109375 0.43450927734375 0.8726806640625 0.42138671875 0.79132080078125 0.4012451171875 0.7369384765625 0.478759765625 0.5987548828125 0.30010986328125 0.73895263671875 0.37860107421875 0.550537109375 0.2818603515625 0.60223388671875 0.349853515625 0.511962890625 0.25982666015625 0.51239013671875 0.09912109375 0.04962158203125 0.2493896484375 0.05316162109375 0.39959716796875 0.04962158203125 0.46673583984375 0.140625 0.02423095703125 0.51898193359375 0.0594482421875 0.539794921875 0.03131103515625 0.516845703125 0.056884765625 0.53533935546875 0.23583984375 0.51202392578125 0.14892578125 0.63970947265625 0.071533203125 0.5662841796875 0.10906982421875 0.6923828125 0.027587890625 0.5252685546875 0.13958740234375 0.733642578125 0.138427734375 0.6583251953125 0.064697265625 0.7269287109375 0.05633544921875 0.63446044921875 0.16009521484375 0.91693115234375 0.15673828125 0.98046875 0.1690673828125 0.98223876953125 0.15899658203125 0.9805908203125 0.1968994140625 0.92718505859375 0.20135498046875 0.89105224609375 0.16900634765625 0.89849853515625 0.15667724609375 0.900146484375 0.15826416015625 0.89990234375 0.09002685546875 0.76983642578125 0.16802978515625 0.73052978515625 0.17437744140625 0.5133056640625 0.23895263671875 0.649658203125 0.17608642578125 0.67425537109375 0.20855712890625 0.7156982421875 0.098388671875 0.7308349609375 0.1910400390625 0.84002685546875 0.178466796875 0.83367919921875 0.1253662109375 0.72186279296875 0.24493408203125 0.67828369140625 0.20831298828125 0.5732421875 0.242919921875 0.5543212890625 0.02984619140625 0.72119140625 0.02984619140625 0.72137451171875 0.20013427734375 0.92779541015625 0.15850830078125 0.8887939453125 0.19781494140625 0.9805908203125 0.2000732421875 0.9947509765625 0.1839599609375 0.59356689453125 0.1839599609375 0.582763671875 0.83746337890625 0.26434326171875 0.7701416015625 0.3759765625 0.8831787109375 0.376220703125 0.83447265625 0.459716796875 0.93621826171875 0.47369384765625 0.77032470703125 0.37542724609375 0.8377685546875 0.26397705078125 0.88323974609375 0.37615966796875 0.94342041015625 0.27667236328125 1.0037841796875 0.36260986328125 0.010009765625 0.733642578125 0.0145263671875 0.74444580078125 0.2862548828125 0.7874755859375 0.26495361328125 0.83782958984375 0.36444091796875 0.774169921875 0.69964599609375 0.7584228515625 0.936279296875 0.47406005859375 0.83447265625 0.4595947265625 0.17401123046875 0.81298828125 0.40289306640625 0.8046875 0.40191650390625 0.75946044921875 0.40789794921875 0.80780029296875 0.40960693359375 0.76983642578125 0.40985107421875 0.79986572265625 0.88397216796875 0.4747314453125 0.8826904296875 0.47833251953125 0.91986083984375 0.47601318359375 0.21295166015625 0.59356689453125 0.21295166015625 0.58636474609375 0.21295166015625 0.582763671875 0.890380859375 0.4921875 0.885498046875 0.489013671875 0.1651611328125 0.93927001953125 0.165771484375 0.98175048828125 0.0672607421875 0.93896484375 0.168701171875 0.9866943359375 0.16888427734375 0.93841552734375 0.21295166015625 0.5718994140625 0.1839599609375 0.5718994140625 0.1773681640625 0.484375 0.30059814453125 0.86810302734375 0.89178466796875 0.4888916015625 0.94305419921875 0.2764892578125 1.00347900390625 0.362060546875 0.0562744140625 0.6331787109375 0.06243896484375 0.72509765625 0.88848876953125 0.47821044921875 0.04681396484375 0.5687255859375 0.1910400390625 0.7628173828125 0.115234375 0.7203369140625 0.0201416015625 0.59356689453125 0.125244140625 0.533447265625 0.125244140625 0.53173828125 0.2303466796875 0.59356689453125 0.031982421875 0.140625 0.027587890625 0.7318115234375 0.24273681640625 0.55255126953125 0.2574462890625 0.673095703125 0.2569580078125 0.5540771484375 0.25994873046875 0.556884765625 0.30682373046875 0.53948974609375 0.25836181640625 0.69598388671875 0.258056640625 0.76495361328125 0.165771484375 0.89654541015625 0.168701171875 0.890625 0.32135009765625 0.484375 0.4014892578125 0.73016357421875 0.40704345703125 0.7320556640625 0.15802001953125 0.92987060546875 0.06463623046875 0.76068115234375 0.125244140625 0.73638916015625 0.36444091796875 0.5628662109375 0.41192626953125 0.76898193359375 0.211669921875 0.5428466796875 0.087890625 0.73052978515625 0.45928955078125 0.59552001953125 0.22802734375 0.92193603515625 0.4095458984375 0.758056640625 0.4576416015625 0.93280029296875 0.0067138671875 0.531005859375 0.0384521484375 0.54437255859375 0.20794677734375 0.72894287109375 0.22918701171875 0.6419677734375 0.2161865234375 0.6910400390625 0.2364501953125 0.9002685546875 0.25762939453125 0.90692138671875 0.23406982421875 0.92987060546875 0.26177978515625 0.948486328125 0.244140625 0.9478759765625 0.26007080078125 0.958984375 0.2451171875 0.95635986328125 0.234375 0.9737548828125 0.2269287109375 0.95562744140625 0.20550537109375 0.956787109375 0.2088623046875 0.946533203125 0.22650146484375 0.94720458984375 0.24017333984375 0.798828125 0.21441650390625 0.84527587890625 0.2235107421875 0.79058837890625 0.18072509765625 0.845947265625 0.20684814453125 0.7823486328125 0.1981201171875 0.80352783203125 0.197998046875 0.77008056640625 0.16766357421875 0.77008056640625 0.17510986328125 0.80078125 0.1668701171875 0.82318115234375 0.2017822265625 0.9805908203125 0.2012939453125 0.927978515625 0.20343017578125 0.91650390625 0.20306396484375 0.88531494140625 0.20343017578125 0.8841552734375 0.20062255859375 0.92694091796875 0.203125 0.9912109375 0.20379638671875 0.93548583984375 0.20367431640625 0.99053955078125 0.1673583984375 0.78460693359375 0.1673583984375 0.83123779296875 0.18365478515625 0.77972412109375 0.16693115234375 0.8546142578125 0.218994140625 0.79254150390625 0.2181396484375 0.85589599609375 0.23480224609375 0.79852294921875 0.20660400390625 0.90509033203125 0.1983642578125 0.924560546875 0.212158203125 0.936279296875 0.48016357421875 0.80548095703125 0.47528076171875 0.8087158203125 0.4815673828125 0.75860595703125 0.47296142578125 0.76953125 0.47589111328125 0.730224609375 0.4730224609375 0.7572021484375 0.20306396484375 0.98590087890625 0.1671142578125 0.7840576171875 0.203857421875 0.921630859375 0.47271728515625 0.800537109375 0.48162841796875 0.728271484375 0.2723388671875 0.96160888671875 0.20513916015625 0.9669189453125</float_array>
                    <technique_common>
                        <accessor count="516" source="#uvarray0" stride="2">
                            <param name="S" type="float"/>
                            <param name="T" type="float"/>
                        </accessor>
                    </technique_common>
                </source>
                <vertices id="vertices0">
                    <input semantic="POSITION" source="#points0"/>
                </vertices>
                <polylist count="737" material="Material1">
                    <input offset="0" semantic="VERTEX" source="#vertices0"/>
                    <input offset="1" semantic="TEXCOORD" source="#uvs0" set="0"/>
                    <vcount>3 3 3 3 3 3 3 3 3 3 3 3 3 3 3 3 3 3 3 3 3 3 3 3 3 3 3 3 3 3 3 3 3 3 3 3 3 3 3 3 3 3 3 3 3 3 3 3 3 3 3 3 3 3 3 3 3 3 3 3 3 3 3 3 3 3 3 3 3 3 3 3 3 3 3 3 3 3 3 3 3 3 3 3 3 3 3 3 3 3 3 3 3 3 3 3 3 3 3 3 3 3 3 3 3 3 3 3 3 3 3 3 3 3 3 3 3 3 3 3 3 3 3 3 3 3 3 3 3 3 3 3 3 3 3 3 3 3 3 3 3 3 3 3 3 3 3 3 3 3 3 3 3 3 3 3 3 3 3 3 3 3 3 3 3 3 3 3 3 3 3 3 3 3 3 3 3 3 3 3 3 3 3 3 3 3 3 3 3 3 3 3 3 3 3 3 3 3 3 3 3 3 3 3 3 3 3 3 3 3 3 3 3 3 3 3 3 3 3 3 3 3 3 3 3 3 3 3 3 3 3 3 3 3 3 3 3 3 3 3 3 3 3 3 3 3 3 3 3 3 3 3 3 3 3 3 3 3 3 3 3 3 3 3 3 3 3 3 3 3 3 3 3 3 3 3 3 3 3 3 3 3 3 3 3 3 3 3 3 3 3 3 3 3 3 3 3 3 3 3 3 3 3 3 3 3 3 3 3 3 3 3 3 3 3 3 3 3 3 3 3 3 3 3 3 3 3 3 3 3 3 3 3 3 3 3 3 3 3 3 3 3 3 3 3 3 3 3 3 3 3 3 3 3 3 3 3 3 3 3 3 3 3 3 3 3 3 3 3 3 3 3 3 3 3 3 3 3 3 3 3 3 3 3 3 3 3 3 3 3 3 3 3 3 3 3 3 3 3 3 3 3 3 3 3 3 3 3 3 3 3 3 3 3 3 3 3 3 3 3 3 3 3 3 3 3 3 3 3 3 3 3 3 3 3 3 3 3 3 3 3 3 3 3 3 3 3 3 3 3 3 3 3 3 3 3 3 3 3 3 3 3 3 3 3 3 3 3 3 3 3 3 3 3 3 3 3 3 3 3 3 3 3 3 3 3 3 3 3 3 3 3 3 3 3 3 3 3 3 3 3 3 3 3 3 3 3 3 3 3 3 3 3 3 3 3 3 3 3 3 3 3 3 3 3 3 3 3 3 3 3 3 3 3 3 3 3 3 3 3 3 3 3 3 3 3 3 3 3 3 3 3 3 3 3 3 3 3 3 3 3 3 3 3 3 3 3 3 3 3 3 3 3 3 3 3 3 3 3 3 3 3 3 3 3 3 3 3 3 3 3 3 3 3 3 3 3 3 3 3 3 3 3 3 3 3 3 3 3 3 3 3 3 3 3 3 3 3 3 3 3 3 3 3 3 3 3 3 3 3 3 3 3 3 3 3 3 3 3 3 3 3 3 3 3 3 3 3 3 3 3 3 3 3 3 3 3 3 3 3 3 3 3 3 3 3 3 3 3 3 3 3 3 3 3 3 3 3 3 3 3 3 3 3 3 3 3 3 3 3 3 3 3 3 3 3 3 3 3 3 3 3 3 3 3 3 3 3 3 3 3 3 3 3 3 3 3 3 3 3 3 3 3 3 3 3 3 3 3 3 3 3 3 3 3 3 3</vcount>
                    <p>2 2 1 1 0 0 3 3 1 1 2 2 4 4 3 3 2 2 5 5 3 3 4 4 6 6 5 5 4 4 7 7 5 5 6 6 8 8 7 7 6 6 9 9 7 7 8 8 10 10 9 9 8 8 11 11 9 9 10 10 12 12 11 11 10 10 13 13 11 11 12 12 14 14 13 13 12 12 15 15 13 13 14 14 16 16 15 15 14 14 17 17 15 15 16 16 18 18 17 17 16 16 19 19 17 17 18 18 20 20 19 19 18 18 21 21 19 19 20 20 22 22 21 21 20 20 23 23 21 21 22 22 26 26 25 25 24 24 27 27 25 25 26 26 28 28 27 27 26 26 29 29 27 27 28 28 30 30 29 29 28 28 31 27 29 29 30 30 32 28 31 27 30 30 33 31 31 27 32 28 34 32 33 31 32 28 35 24 33 31 34 32 36 33 35 24 34 32 24 24 35 24 36 33 37 34 24 24 36 33 26 26 24 24 37 34 38 35 26 26 37 34 28 28 26 26 38 35 30 30 28 28 38 35 41 38 40 37 39 36 42 39 40 37 41 38 43 40 42 39 41 38 44 41 42 39 43 40 45 42 44 41 43 40 46 43 44 41 45 42 47 44 46 43 45 42 48 45 46 43 47 44 49 46 48 45 47 44 50 47 48 45 49 46 51 48 50 47 49 46 52 49 50 47 51 48 53 50 52 49 51 48 54 51 52 49 53 50 55 52 54 51 53 50 56 53 54 51 55 52 59 56 58 55 57 54 60 57 58 55 59 56 61 58 60 57 59 56 62 59 60 57 61 58 63 60 62 59 61 58 64 61 62 59 63 60 65 62 64 61 63 60 66 63 64 61 65 62 57 54 66 63 65 62 67 64 66 63 57 54 58 55 67 64 57 54 68 65 67 64 58 55 60 57 68 65 58 55 62 59 68 65 60 57 69 66 10 10 8 8 70 67 10 10 69 66 71 68 70 67 69 66 72 69 70 67 71 68 73 70 72 69 71 68 74 71 72 69 73 70 75 72 74 71 73 70 76 73 74 71 75 72 77 74 76 73 75 72 78 75 76 73 77 74 79 76 78 75 77 74 80 77 78 75 79 76 20 20 80 77 79 76 18 18 80 77 20 20 83 80 82 79 81 78 84 81 82 79 83 80 85 82 84 81 83 80 86 83 84 81 85 82 87 84 86 83 85 82 88 85 86 83 87 84 89 86 88 85 87 84 82 79 88 85 89 86 90 87 82 79 89 86 81 78 82 79 90 87 91 88 81 78 90 87 85 82 81 78 91 88 87 84 85 82 91 88 0 0 93 90 92 89 94 91 93 90 0 0 1 1 94 91 0 0 95 92 94 91 1 1 3 3 95 92 1 1 96 93 95 92 3 3 97 94 96 93 3 3 98 95 96 93 97 94 99 96 98 95 97 94 100 97 98 95 99 96 101 98 100 97 99 96 17 17 100 97 101 98 15 15 17 17 101 98 104 101 103 100 102 99 105 102 103 100 104 101 106 103 105 102 104 101 107 104 105 102 106 103 108 105 107 104 106 103 109 106 107 104 108 105 110 107 109 106 108 105 111 108 109 106 110 107 112 109 111 108 110 107 39 110 111 108 112 109 41 111 39 110 112 109 115 114 114 113 113 112 116 115 114 113 115 114 117 116 116 115 115 114 118 117 116 115 117 116 119 118 118 117 117 116 120 116 118 117 119 118 121 119 120 116 119 118 122 120 120 116 121 119 29 29 122 120 121 119 31 27 122 120 29 29 125 123 124 122 123 121 126 124 124 122 125 123 127 125 126 124 125 123 128 126 126 124 127 125 129 127 128 126 127 125 130 128 128 126 129 127 131 129 130 128 129 127 132 130 130 128 131 129 133 131 132 130 131 129 136 134 135 133 134 132 137 135 135 133 136 134 92 89 137 135 136 134 138 136 137 135 92 89 93 90 138 136 92 89 23 23 138 136 93 90 139 137 23 23 93 90 21 21 23 23 139 137 19 19 21 21 139 137 140 138 104 101 102 99 106 103 104 101 140 138 141 139 106 103 140 138 142 140 106 103 141 139 143 141 142 140 141 139 144 142 142 140 143 141 43 143 144 142 143 141 41 111 144 142 43 143 147 146 146 145 145 144 148 147 146 145 147 146 149 148 148 147 147 146 150 149 148 147 149 148 151 150 150 149 149 148 152 151 150 149 151 150 153 152 152 151 151 150 156 155 155 154 154 153 157 156 155 154 156 155 158 157 157 156 156 155 159 158 157 156 158 157 160 159 159 158 158 157 161 160 159 158 160 159 162 161 161 160 160 159 164 164 163 163 133 162 165 165 163 163 164 164 166 166 165 165 164 164 167 167 165 165 166 166 168 168 167 167 166 166 169 169 167 167 168 168 170 170 169 169 168 168 173 173 172 172 171 171 174 174 172 172 173 173 175 175 174 174 173 173 176 176 174 174 175 175 177 177 176 176 175 175 178 178 176 176 177 177 179 179 178 178 177 177 72 69 14 14 12 12 180 180 14 14 72 69 181 181 180 180 72 69 16 16 180 180 181 181 182 182 16 16 181 181 18 18 16 16 182 182 80 77 18 18 182 182 40 37 56 53 39 36 54 51 56 53 40 37 183 183 54 51 40 37 184 184 54 51 183 183 185 185 184 184 183 183 48 45 184 184 185 185 46 43 48 45 185 185 188 188 187 187 186 186 189 189 187 187 188 188 190 190 189 189 188 188 191 191 189 189 190 190 192 192 191 191 190 190 193 193 191 191 192 192 194 194 193 193 192 192 123 121 195 196 125 195 196 197 195 196 123 121 197 198 196 197 123 121 198 199 196 197 197 198 199 200 198 199 197 198 200 201 198 199 199 200 201 202 200 201 199 200 201 205 202 204 200 203 203 206 202 204 201 205 204 207 203 206 201 205 205 208 203 206 204 207 206 209 205 208 204 207 207 210 205 208 206 209 155 211 207 210 206 209 210 213 209 114 208 212 211 112 209 114 210 213 212 214 211 112 210 213 35 24 211 112 212 214 213 215 35 24 212 214 33 31 35 24 213 215 31 27 33 31 213 215 120 116 214 115 118 117 209 114 214 115 120 116 122 120 209 114 120 116 208 212 209 114 122 120 31 27 208 212 122 120 215 216 208 212 31 27 213 215 215 216 31 27 217 219 216 218 161 217 218 220 216 218 217 219 219 221 218 220 217 219 220 222 218 220 219 221 221 223 220 222 219 221 222 224 220 222 221 223 223 227 154 226 155 225 224 228 154 226 223 227 225 229 224 228 223 227 226 230 224 228 225 229 227 231 226 230 225 229 228 232 226 230 227 231 231 235 230 234 229 233 232 236 230 234 231 235 233 237 232 236 231 235 234 238 232 236 233 237 235 239 234 238 233 237 236 240 234 238 235 239 239 243 238 242 237 241 240 244 238 242 239 243 241 245 240 244 239 243 242 246 240 244 241 245 228 247 242 246 241 245 243 248 242 246 228 247 106 103 110 107 108 105 244 249 110 107 106 103 142 140 244 249 106 103 112 109 244 249 142 140 144 142 112 109 142 140 41 111 112 109 144 142 56 250 111 108 39 110 109 106 111 108 56 250 55 251 109 106 56 250 245 252 109 106 55 251 53 253 245 252 55 251 51 254 245 252 53 253 246 257 174 256 176 255 247 258 174 256 246 257 248 259 247 258 246 257 249 260 247 258 248 259 250 261 249 260 248 259 200 262 249 260 250 261 252 264 0 0 251 263 2 2 0 0 252 264 253 265 2 2 252 264 4 4 2 2 253 265 254 266 4 4 253 265 6 6 4 4 254 266 191 191 256 268 255 267 257 269 256 268 191 191 193 193 257 269 191 191 258 270 257 269 193 193 194 194 258 270 193 193 186 186 258 270 194 194 259 271 191 191 255 267 260 272 191 191 259 271 261 273 260 272 259 271 187 187 260 272 261 273 258 270 187 187 261 273 186 186 187 187 258 270 259 274 113 112 262 214 115 114 113 112 259 274 255 275 115 114 259 274 263 276 115 114 255 275 27 27 263 276 255 275 29 29 263 276 27 27 264 277 224 228 226 230 265 278 224 228 264 277 266 279 265 278 264 277 162 280 265 278 266 279 221 281 162 280 266 279 268 284 267 283 171 282 269 285 267 283 268 284 270 286 269 285 268 284 205 208 269 285 270 286 203 206 205 208 270 286 245 252 107 104 109 106 105 102 107 104 245 252 271 287 105 102 245 252 103 100 105 102 271 287 51 254 103 100 271 287 274 290 273 289 272 288 275 291 273 289 274 290 276 292 275 291 274 290 277 293 275 291 276 292 278 294 277 293 276 292 73 70 279 295 75 72 280 296 279 295 73 70 71 68 280 296 73 70 281 297 280 296 71 68 69 66 281 297 71 68 102 99 282 298 140 138 283 299 282 298 102 99 103 100 283 299 102 99 49 300 283 299 103 100 51 254 49 300 103 100 77 74 284 301 79 76 135 133 284 301 77 74 75 72 135 133 77 74 134 132 135 133 75 72 279 295 134 132 75 72 196 197 170 302 195 196 285 303 170 302 196 197 198 199 285 303 196 197 250 304 285 303 198 199 200 201 250 304 198 199 286 307 195 306 170 305 287 308 195 306 286 307 288 309 287 308 286 307 289 310 287 308 288 309 133 311 289 310 288 309 218 220 179 312 216 218 290 313 179 312 218 220 291 314 290 313 218 220 237 315 290 313 291 314 239 316 237 315 291 314 294 319 293 318 292 317 295 320 293 318 294 319 296 321 295 320 294 319 297 322 295 320 296 321 298 323 297 322 296 321 299 326 294 325 292 324 300 327 294 325 299 326 301 328 300 327 299 326 302 329 300 327 301 328 303 330 302 329 301 328 304 332 167 167 176 331 165 165 167 167 304 332 237 333 165 165 304 332 238 334 165 165 237 333 266 279 222 335 221 281 305 336 222 335 266 279 264 277 305 336 266 279 226 230 305 336 264 277 172 337 268 284 171 282 306 338 268 284 172 337 202 204 306 338 172 337 203 206 306 338 202 204 307 340 216 339 179 179 308 341 216 339 307 340 309 342 308 341 307 340 267 343 308 341 309 342 132 344 242 246 243 248 310 345 242 246 132 344 133 346 310 345 132 344 163 347 310 345 133 346 311 350 212 349 210 348 213 351 212 349 311 350 312 352 213 351 311 350 313 353 213 351 312 352 259 271 258 270 261 273 314 354 258 270 259 271 262 355 314 354 259 271 315 356 314 354 262 355 143 141 45 357 43 143 282 298 45 357 143 141 141 139 282 298 143 141 140 138 282 298 141 139 24 24 262 214 113 112 315 215 262 214 24 24 25 25 315 215 24 24 27 27 315 215 25 25 199 200 316 358 201 202 124 122 316 358 199 200 197 198 124 122 199 200 123 121 124 122 197 198 129 127 133 131 131 129 289 359 133 131 129 127 127 125 289 359 129 127 125 123 289 359 127 125 243 360 130 128 132 130 317 361 130 128 243 360 227 362 317 361 243 360 318 363 317 361 227 362 319 364 11 11 13 13 320 365 11 11 319 364 99 96 320 365 319 364 97 94 320 365 99 96 317 361 128 126 130 128 126 124 128 126 317 361 318 363 126 124 317 361 316 366 126 124 318 363 202 367 249 260 200 262 321 368 249 260 202 367 172 369 321 368 202 367 174 256 321 368 172 369 322 370 274 290 272 288 276 292 274 290 322 370 323 371 276 292 322 370 272 288 276 292 323 371 325 374 208 373 324 372 210 348 208 373 325 374 326 375 210 348 325 374 311 350 210 348 326 375 206 209 223 227 155 211 316 366 223 227 206 209 204 207 316 366 206 209 201 205 316 366 204 207 232 236 327 376 230 234 328 377 327 376 232 236 234 238 328 377 232 236 236 240 328 377 234 238 329 380 152 379 153 378 150 381 152 379 329 380 148 382 150 381 329 380 332 385 331 384 330 383 333 386 331 384 332 385 334 387 333 386 332 385 276 292 335 388 278 294 336 389 335 388 276 292 273 289 336 389 276 292 190 392 302 391 303 390 296 321 302 391 190 392 298 323 296 321 190 392 337 393 183 183 40 37 185 185 183 183 337 393 46 43 185 185 337 393 332 385 338 394 334 387 339 395 338 394 332 385 330 383 339 395 332 385 184 184 52 49 54 51 50 47 52 49 184 184 48 45 50 47 184 184 340 396 19 19 96 93 17 17 19 19 340 396 100 97 17 17 340 396 173 173 307 340 175 175 309 342 307 340 173 173 171 171 309 342 173 173 78 75 181 181 76 73 182 182 181 181 78 75 80 77 182 182 78 75 342 399 293 398 341 397 186 400 293 398 342 399 188 401 186 400 342 399 343 404 331 403 333 402 151 150 331 403 343 404 153 152 151 150 343 404 220 222 291 314 218 220 239 316 291 314 220 222 222 224 239 316 220 222 328 377 229 405 327 376 231 406 229 405 328 377 233 407 231 406 328 377 330 409 149 148 339 408 151 150 149 148 330 409 331 403 151 150 330 409 67 64 64 61 66 63 62 59 64 61 67 64 68 65 62 59 67 64 344 412 23 411 22 410 138 413 23 411 344 412 345 414 138 413 344 412 256 216 27 27 255 275 315 215 27 27 256 216 233 407 346 416 235 415 328 377 346 416 233 407 121 119 263 276 29 29 119 118 263 276 121 119 263 276 117 116 115 114 119 118 117 116 263 276 168 168 286 417 170 170 166 166 286 417 168 168 300 418 296 321 294 319 302 391 296 321 300 418 347 113 209 114 211 112 214 115 209 114 347 113 338 419 149 148 147 146 339 408 149 148 338 419 335 388 275 291 277 293 336 389 275 291 335 388 91 88 89 86 87 84 90 87 89 86 91 88 145 420 329 380 153 378 146 421 329 380 145 420 169 422 248 259 246 257 170 423 248 259 169 422 334 424 147 146 333 402 338 419 147 146 334 424 247 258 321 368 174 256 249 260 321 368 247 258 290 313 178 425 179 312 237 315 178 425 290 313 343 404 147 146 145 144 333 402 147 146 343 404 217 219 162 161 219 221 161 160 162 161 217 219 251 263 92 89 136 134 0 0 92 89 251 263 238 242 310 345 163 347 240 244 310 345 238 242 101 98 13 13 15 15 99 96 13 13 101 98 5 5 97 94 3 3 7 7 97 94 5 5 94 91 139 137 93 90 95 92 139 137 94 91 345 426 137 135 138 136 284 301 137 135 345 426 70 67 12 12 10 10 72 69 12 12 70 67 7 7 320 365 97 94 9 9 320 365 7 7 95 92 19 19 139 137 96 93 19 19 95 92 225 229 318 427 227 231 223 227 318 427 225 229 74 71 181 181 72 69 76 73 181 181 74 71 178 430 304 429 176 428 237 431 304 429 178 430 246 432 167 167 169 169 176 331 167 167 246 432 159 158 267 343 207 433 161 160 267 343 159 158 36 33 38 35 37 34 34 32 38 35 36 33 222 434 241 245 239 243 228 247 241 245 222 434 157 156 207 433 155 154 159 158 207 433 157 156 228 232 305 336 226 230 222 335 305 336 228 232 154 226 265 278 162 280 224 228 265 278 154 226 194 435 301 328 299 326 192 436 301 328 194 435 269 285 207 210 267 283 205 208 207 210 269 285 156 155 160 159 158 157 154 153 160 159 156 155 270 286 306 338 203 206 268 284 306 338 270 286 188 439 298 438 190 437 342 440 298 438 188 439 161 160 308 341 267 343 216 339 308 341 161 160 340 396 98 95 100 97 96 93 98 95 340 396 177 177 307 340 179 179 175 175 307 340 177 177 79 441 344 412 22 410 284 442 344 412 79 441 166 166 288 443 286 417 164 164 288 443 166 166 293 398 299 445 292 444 186 400 299 445 293 398 260 272 189 189 191 191 187 187 189 189 260 272 208 373 313 353 324 372 215 446 313 353 208 373 86 83 82 79 84 81 88 85 82 79 86 83 256 268 314 354 315 356 257 269 314 354 256 268 47 447 283 299 49 300 45 357 283 299 47 447 57 54 61 58 59 56 65 62 61 58 57 54 42 39 337 393 40 37 44 41 337 393 42 39 32 28 38 35 34 32 30 30 38 35 32 28 125 448 287 308 289 310 195 306 287 308 125 448 342 440 297 449 298 438 341 450 297 449 342 440 61 58 65 62 63 60 85 82 83 80 81 78 9 9 11 11 320 365 313 353 215 446 213 351 319 364 13 13 99 96 329 380 146 421 148 382 284 442 345 414 344 412 221 223 219 221 162 451 343 404 145 144 153 152 236 240 346 416 328 377 283 299 45 357 282 298 223 227 316 366 318 427 316 366 124 452 126 124 170 302 285 303 250 304 297 449 341 450 295 453 112 109 110 107 244 249 245 252 51 254 271 287 160 159 154 153 162 161 133 162 288 443 164 164 163 163 165 165 238 334 303 330 301 328 192 436 192 454 190 454 303 454 186 400 194 455 299 445 337 393 44 41 46 43 341 456 293 318 295 320 258 270 314 354 257 269 248 259 170 423 250 261 276 292 272 288 273 289 275 291 336 389 273 289 252 264 254 266 253 265 240 244 242 246 310 345 267 458 309 342 171 457 279 295 280 296 281 297 137 135 284 301 135 133 20 20 79 76 22 22 243 461 228 460 227 459 16 16 14 14 180 180 350 464 349 463 348 462 351 465 349 463 350 464 352 466 351 465 350 464 353 465 351 465 352 466 354 466 353 465 352 466 355 467 353 465 354 466 356 468 355 467 354 466 357 467 355 467 356 468 358 468 357 467 356 468 359 469 357 467 358 468 360 470 359 469 358 468 361 471 359 469 360 470 362 471 361 471 360 470 363 472 361 471 362 471 364 472 363 472 362 471 365 473 363 472 364 472 362 471 365 473 364 472 366 470 365 473 362 471 360 470 366 470 362 471 367 473 366 470 360 470 368 473 367 473 360 470 369 466 367 473 368 473 370 470 369 466 368 473 371 468 369 466 370 470 358 468 371 468 370 470 352 466 371 468 358 468 354 466 352 466 358 468 363 476 372 475 361 474 373 477 372 475 363 476 374 478 373 477 363 476 375 479 373 477 374 478 376 478 375 479 374 478 377 478 375 479 376 478 378 480 377 478 376 478 379 480 377 478 378 480 380 481 379 480 378 480 381 482 379 480 380 481 382 482 381 482 380 481 373 477 381 482 382 482 383 483 373 477 382 482 324 372 384 484 325 374 385 485 384 484 324 372 313 353 385 485 324 372 386 486 385 485 313 353 387 487 386 486 313 353 388 488 386 486 387 487 326 375 312 352 311 350 389 489 312 352 326 375 390 490 389 489 326 375 383 491 389 489 390 490 391 492 383 491 390 490 349 495 392 494 348 493 393 496 392 494 349 495 351 497 393 496 349 495 394 498 393 496 351 497 357 499 394 498 351 497 389 489 313 353 312 352 387 487 313 353 389 489 383 491 387 487 389 489 388 488 387 487 383 491 395 501 348 462 380 500 350 464 348 462 395 501 374 502 350 464 395 501 363 472 350 464 374 502 359 505 393 504 394 503 391 506 393 504 359 505 373 507 391 506 359 505 383 508 391 506 373 507 390 490 392 509 391 492 384 484 392 509 390 490 326 375 384 484 390 490 325 374 384 484 326 375 367 473 365 473 366 470 363 472 365 473 367 473 350 464 363 472 367 473 395 480 376 478 374 478 378 480 376 478 395 480 380 481 378 480 395 480 375 479 381 482 373 477 379 480 381 482 375 479 377 478 379 480 375 479 370 470 360 470 358 468 368 473 360 470 370 470 367 473 352 466 350 464 369 466 352 466 367 473 382 482 388 510 383 483 380 481 388 510 382 482 385 485 392 509 384 484 386 486 392 509 385 485 351 465 355 467 357 467 353 465 355 467 351 465 386 486 348 511 392 509 388 488 348 511 386 486 352 466 369 466 371 468 358 468 356 468 354 466 392 512 393 504 391 506 372 513 373 507 359 505 357 467 359 469 394 514 359 469 361 471 372 515 388 454 380 454 348 454</p>
                </polylist>
            </mesh>
        </geometry>
        <geometry id="mesh1">
            <mesh>
                <source id="points1">
                    <float_array id="pointarray1" count="42">23.1152382690578 99.10696059279931 49.92903650119373 23.114092321709318 73.9815029513414 48.66839061734593 -0.16739640915543816 98.74816300015655 56.51489938566343 -0.16854544113571826 73.62270345149787 55.2542535017592 -23.449380687715088 99.10920426847996 49.926804269053676 -23.450519005989094 73.98373995093608 48.66615838589165 -19.661247106986927 90.66205402938114 31.454224787857772 -21.67134360684928 89.09334287328238 49.87760122017634 -19.993239330782547 86.49428579417396 31.08770183003274 -22.00334041132736 84.92556968199649 49.606626892349645 21.66787645303408 84.92347615536636 49.60872041898219 21.33625135647996 89.09127925225094 49.879662933952936 19.659701328076473 86.49238298982276 31.089603680848963 19.328073558348542 90.66018494525733 31.45609530256379</float_array>
                    <technique_common>
                        <accessor count="14" source="#pointarray1" stride="3">
                            <param name="X" type="float"/>
                            <param name="Y" type="float"/>
                            <param name="Z" type="float"/>
                        </accessor>
                    </technique_common>
                </source>
                <source id="uvs1">
                    <float_array id="uvarray1" count="16">0.02142333984375 0.97320556640625 0.02142333984375 0.040283203125 0.9842529296875 0.95977783203125 0.9842529296875 0.02685546875 0.5216064453125 0.8299560546875 0.4814453125 0.82989501953125 0.521728515625 0.82135009765625 0.4813232421875 0.8212890625</float_array>
                    <technique_common>
                        <accessor count="8" source="#uvarray1" stride="2">
                            <param name="S" type="float"/>
                            <param name="T" type="float"/>
                        </accessor>
                    </technique_common>
                </source>
                <vertices id="vertices1">
                    <input semantic="POSITION" source="#points1"/>
                </vertices>
                <polylist count="8" material="Material1">
                    <input offset="0" semantic="VERTEX" source="#vertices1"/>
                    <input offset="1" semantic="TEXCOORD" source="#uvs1" set="0"/>
                    <vcount>3 3 3 3 3 3 3 3</vcount>
                    <p>2 2 1 1 0 0 3 3 1 1 2 2 4 0 3 3 2 2 5 1 3 3 4 0 8 6 7 5 6 4 9 7 7 5 8 6 12 6 11 5 10 7 13 4 11 5 12 6</p>
                </polylist>
            </mesh>
        </geometry>
        <geometry id="mesh2">
            <mesh>
                <source id="points2">
                    <float_array id="pointarray2" count="51">8.688188306413378 80.51577214104229 49.92472531952724 7.268181162866047 70.78795654004225 50.60944596663075 0.0010758731783108754 78.67459663537629 56.58637494396985 0.0008312892969134732 72.28388672952525 55.29771417157022 -7.266208776659462 70.78864828810748 50.608749212014594 -3.3883548506156593 67.92563242548316 53.6979662534219 -8.43654926628496 66.76092121562564 48.08193536040563 0.0006626865432061888 63.28103284289913 49.81193397691046 14.023538351422054 72.73279413395251 50.1988012336905 8.438373447555408 66.76011726625156 48.08274431633078 3.389752061919397 67.92531250092627 53.69829118452931 11.137788210120142 90.2200539727569 50.146392895393035 0.0016954389507383262 89.37891006985485 54.262171382042176 0.0013812608832174484 81.98181973771615 53.41887326122104 -8.685218063878311 80.51660499369682 49.92389246687174 -14.021340543784147 72.73413855952664 50.19745680811483 -11.133904014607115 90.22112354856357 50.145325226842324</float_array>
                    <technique_common>
                        <accessor count="17" source="#pointarray2" stride="3">
                            <param name="X" type="float"/>
                            <param name="Y" type="float"/>
                            <param name="Z" type="float"/>
                        </accessor>
                    </technique_common>
                </source>
                <source id="uvs2">
                    <float_array id="uvarray2" count="40">0.7501220703125 0.59991455078125 0.71600341796875 0.2530517578125 0.00067138671875 0.53424072265625 0.00067138671875 0.306396484375 -0.714599609375 0.2530517578125 -0.35894775390625 0.18548583984375 -1.00360107421875 0.10943603515625 0.00067138671875 -0.0625 0.8963623046875 0.46405029296875 1.00506591796875 0.10943603515625 0.36041259765625 0.18548583984375 1.14892578125 1.12213134765625 0.89617919921875 0.62432861328125 -0.00030517578125 1.07891845703125 -0.00030517578125 0.69952392578125 -0.8968505859375 0.62432861328125 -0.00030517578125 0.52984619140625 -0.74871826171875 0.59991455078125 -0.8948974609375 0.46405029296875 -1.149658203125 1.12213134765625</float_array>
                    <technique_common>
                        <accessor count="20" source="#uvarray2" stride="2">
                            <param name="S" type="float"/>
                            <param name="T" type="float"/>
                        </accessor>
                    </technique_common>
                </source>
                <vertices id="vertices2">
                    <input semantic="POSITION" source="#points2"/>
                </vertices>
                <polylist count="22" material="Material1">
                    <input offset="0" semantic="VERTEX" source="#vertices2"/>
                    <input offset="1" semantic="TEXCOORD" source="#uvs2" set="0"/>
                    <vcount>3 3 3 3 3 3 3 3 3 3 3 3 3 3 3 3 3 3 3 3 3 3</vcount>
                    <p>2 2 1 1 0 0 3 3 1 1 2 2 4 4 3 3 2 2 5 5 3 3 4 4 6 6 5 5 4 4 7 7 5 5 6 6 1 1 8 8 0 0 9 9 8 8 1 1 10 10 9 9 1 1 7 7 9 9 10 10 5 5 7 7 10 10 12 13 0 12 11 11 13 14 0 12 12 13 14 15 13 14 12 13 2 16 13 14 14 15 3 3 10 10 1 1 5 5 10 10 3 3 14 17 4 4 2 2 15 18 4 4 14 17 14 15 12 13 16 19 0 12 13 14 2 16 15 18 6 6 4 4</p>
                </polylist>
            </mesh>
        </geometry>
    </library_geometries>
    <library_controllers>
        <controller id="controller0">
            <skin source="#mesh0">
                <bind_shape_matrix>1 0 0 0 0 1 0 0 0 0 1 0 0 0 0 1</bind_shape_matrix>
                <source id="joints0">
                    <Name_array id="JointArr0" count="13">jointnode-1 jointnode0 jointnode1 jointnode2 jointnode3 jointnode4 jointnode5 jointnode6 jointnode7 jointnode8 jointnode9 jointnode10 jointnode11</Name_array>
                    <technique_common>
                        <accessor source="#JointArr0" count="13">
                            <param name="JOINT" type="Name" />
                        </accessor>
                    </technique_common>
                </source>
                <source id="matrices0">
                    <float_array id="MatArr0" count="208">1 0 0 0 0 1 0 0 0 0 1 0 0 0 0 1 0.00004793836256601856 0.9999999988509567 -4.386559881474326e-18 0 -0.00004793836251091911 2.2980866055094973e-9 0.9999999988509567 0 0.9999999977019134 -0.00004793836251091911 0.00004793836256601856 0 0 0 0 1 0.000005912328150267383 0.7660786806129893 0.6427468047958744 -29.110989840614046 -0.00006753678687636021 -0.6427468030353594 0.7660786791359014 24.424378610307897 0.9999999977019135 -0.00004793836251091911 0.000047938362566018563 -4.336808689942018e-19 0 0 0 1 0.9999999962694429 -0.00008466292000114608 0.000017126133144491138 -15.638491359825958 0.00006753678687636022 0.6427468030353592 -0.7660786791359017 -24.42437861030789 0.000053850690599309734 0.7660786774346453 0.642746806355417 -55.11173958760861 0 0 0 1.0000000000000002 0.9999999962694426 -0.00008466292000114608 0.000017126133144491128 -32.8985907708367 -0.00006753678687636021 -0.6427468030353592 0.7660786791359013 24.424383610307764 -0.00005385069059930971 -0.766078677434645 -0.642746806355417 55.1117365876085 0 0 0 1 0.9999999962694426 -0.00008466292000114608 0.000017126133144491128 -50.36299583065113 -0.00006753678687636021 -0.6427468030353592 0.7660786791359013 24.424383610307757 -0.00005385069059930971 -0.766078677434645 -0.642746806355417 55.11173658760849 0 0 0 1 -0.9999999962694429 0.00008466292000114608 -0.000017126133144491138 -15.882495160961906 0.00006753678687636021 0.6427468030353592 -0.7660786791359017 -24.424379610307888 -0.00005385069059930973 -0.7660786774346453 -0.642746806355417 55.110228523126615 0 0 0 1.0000000000000002 -0.9999999962694426 0.00008466292000114608 -0.000017126133144491128 -33.27534794416503 -0.0000675367868763602 -0.6427468030353592 0.7660786791359013 24.424384610307765 0.0000538506905993097 0.766078677434645 0.642746806355417 -55.110225523126495 0 0 0 1 -0.9999999962694426 0.00008466292000114608 -0.000017126133144491128 -50.035268064404264 -0.0000675367868763602 -0.6427468030353592 0.7660786791359013 24.424384610307765 0.0000538506905993097 0.766078677434645 0.642746806355417 -55.11022552312649 0 0 0 1 -0.6115409182501672 -0.6783283933878209 -0.4072938693739936 8.378103791787735 -0.7875197837880152 0.472165335928606 0.39607131389423306 -84.68364377781953 -0.0763563713662449 0.5629657949390213 -0.8229454527977268 -19.177977752365052 0 0 0 1 -0.6257168229499468 -0.6546181167205061 -0.42420935720316527 7.003986771282547 -0.7777245152636673 0.48157239316573885 0.4040205545495382 -83.76761600070984 -0.06019165918396492 0.5827204745003565 -0.810440505381339 -26.269292984781455 0 0 0 1 -0.000047936064369230354 0.000047940660597427155 0.9999999977019134 -25.71316283191315 -0.00004794066059753818 -0.9999999977018034 0.0000479383625107758 68.64191463259635 0.9999999977019135 -0.00004793836251091911 0.000047938362566018563 -6.505213034913027e-19 0 0 0 1 0.999999993302885 -0.00008183184086339653 0.00008183996595934136 0.002279896318510859 0.00008184360993304343 0.9999999863097385 -0.00014381288745596565 -106.79634901190194 -0.00008182819636582573 0.00014381958457113355 0.9999999863100366 -39.51189835378754 0 0 0 1</float_array>
                    <technique_common>
                        <accessor source="#MatArr0" count="13" stride="16">
                            <param type="float4x4" />
                        </accessor>
                    </technique_common>
                </source>
                <source id="weights0">
                    <float_array id="WeightArr0" count="3">1 0.8999999761581421 0.10000000149011612</float_array>
                    <technique_common>
                        <accessor source="#WeightArr0" count="1">
                            <param type="float" />
                        </accessor>
                    </technique_common>
                </source>
                <joints>
                    <input semantic="JOINT" source="#joints0" />
                    <input semantic="INV_BIND_MATRIX" source="#matrices0" />
                </joints>
                <vertex_weights count="396">
                    <input semantic="JOINT" offset="0" source="#joints0" />
                    <input semantic="WEIGHT" offset="1" source="#weights0" />
                    <vcount>1 1 1 1 1 1 1 1 1 1 1 1 1 1 1 1 1 1 1 1 1 1 1 1 1 1 1 1 1 1 1 1 1 1 1 1 1 1 1 1 1 1 1 1 1 1 1 1 1 1 1 1 1 1 1 1 1 1 1 1 1 1 1 1 1 1 1 1 1 1 1 1 1 1 1 1 1 1 1 1 1 1 1 1 1 1 1 1 1 1 1 1 1 1 1 1 1 1 1 1 1 1 1 1 1 1 1 1 1 1 1 1 1 1 1 1 1 1 1 1 1 1 1 1 1 1 1 1 1 1 1 1 1 1 1 1 1 1 1 1 1 1 1 1 1 1 1 1 1 1 1 1 1 1 1 1 1 1 1 1 1 1 1 1 1 1 1 1 1 1 1 1 1 1 1 1 1 1 1 1 1 1 1 1 1 1 2 1 1 1 1 1 2 1 2 1 1 1 1 1 1 1 1 1 1 1 1 1 1 1 1 1 1 1 1 1 1 1 1 1 1 1 1 1 1 1 1 1 1 1 1 1 1 1 1 1 1 1 1 1 1 1 1 1 1 1 1 1 1 1 1 1 1 1 1 1 1 1 1 1 1 1 1 1 1 1 1 1 1 1 1 1 1 1 1 1 1 1 1 1 1 1 1 1 1 1 1 1 1 1 1 1 1 1 1 1 1 1 1 1 1 1 1 1 1 1 1 1 1 1 1 1 1 1 1 1 1 1 1 1 1 1 1 1 1 1 1 1 1 1 1 1 1 1 1 1 1 1 1 1 1 1 1 1 1 1 1 1 1 1 1 1 1 1 1 1 1 1 1 1 1 1 1 1 1 1 1 1 1 1 1 1 1 1 1 1 1 1 1 1 1 1 1 1 1 1 1 1 1 1 1 1 1 1 1 1</vcount>
                    <v>11 0 11 0 11 0 11 0 11 0 11 0 11 0 11 0 11 0 11 0 11 0 11 0 11 0 11 0 11 0 11 0 11 0 11 0 11 0 11 0 11 0 11 0 11 0 11 0 2 0 2 0 2 0 2 0 2 0 2 0 2 0 2 0 2 0 2 0 2 0 2 0 2 0 2 0 2 0 2 0 2 0 2 0 2 0 2 0 2 0 2 0 2 0 2 0 2 0 2 0 2 0 2 0 2 0 2 0 2 0 2 0 2 0 11 0 11 0 11 0 11 0 11 0 11 0 11 0 11 0 11 0 11 0 11 0 11 0 11 0 11 0 11 0 11 0 11 0 11 0 11 0 11 0 11 0 11 0 11 0 11 0 11 0 11 0 11 0 11 0 11 0 11 0 11 0 11 0 11 0 11 0 11 0 11 0 11 0 11 0 11 0 11 0 11 0 11 0 11 0 11 0 11 0 2 0 2 0 2 0 2 0 2 0 2 0 2 0 2 0 2 0 2 0 2 0 2 0 2 0 2 0 2 0 2 0 2 0 2 0 2 0 2 0 2 0 1 0 1 0 1 0 1 0 1 0 1 0 1 0 1 0 1 0 1 0 1 0 11 0 11 0 11 0 11 0 11 0 11 0 2 0 2 0 2 0 2 0 2 0 11 0 11 0 11 0 11 0 11 0 11 0 11 0 11 0 11 0 1 0 1 0 1 0 1 0 1 0 1 0 1 0 1 0 1 0 1 0 1 0 1 0 1 0 1 0 1 0 1 0 1 0 1 0 1 0 1 0 1 0 1 0 1 0 1 0 1 0 1 0 11 0 11 0 11 0 2 0 2 0 2 0 4 1 5 2 4 0 5 0 4 0 5 0 3 0 4 1 5 2 4 0 4 1 5 2 1 0 1 0 1 0 1 0 1 0 1 0 1 0 1 0 1 0 1 0 1 0 1 0 1 0 2 0 2 0 2 0 2 0 2 0 2 0 2 0 2 0 1 0 1 0 1 0 1 0 1 0 1 0 1 0 1 0 1 0 1 0 1 0 1 0 1 0 11 0 11 0 11 0 11 0 11 0 11 0 11 0 11 0 1 0 1 0 1 0 1 0 1 0 1 0 1 0 2 0 2 0 1 0 1 0 1 0 1 0 1 0 11 0 11 0 11 0 11 0 2 0 2 0 3 0 3 0 2 0 3 0 3 0 2 0 2 0 1 0 1 0 1 0 1 0 1 0 1 0 1 0 2 0 11 0 11 0 11 0 11 0 11 0 11 0 11 0 11 0 11 0 11 0 2 0 2 0 11 0 1 0 1 0 1 0 1 0 1 0 1 0 1 0 5 0 5 0 5 0 5 0 5 0 5 0 5 0 5 0 5 0 5 0 5 0 5 0 1 0 1 0 1 0 1 0 1 0 1 0 1 0 6 0 6 0 6 0 3 0 2 0 1 0 1 0 1 0 11 0 11 0 1 0 11 0 11 0 6 0 6 0 6 0 11 0 11 0 11 0 11 0 11 0 11 0 11 0 11 0 11 0 11 0 2 0 11 0 11 0 11 0 5 0 5 0 11 0 2 0 11 0 11 0 2 0 8 0 8 0 8 0 8 0 8 0 10 0 10 0 10 0 10 0 8 0 8 0 8 0 8 0 8 0 9 0 8 0 9 0 9 0 9 0 8 0 10 0 10 0 10 0 10 0 8 0 8 0 8 0 8 0 8 0 8 0 8 0 8 0 8 0 8 0 8 0 8 0 7 0 7 0 7 0 7 0 8 0 7 0 7 0 8 0 8 0 8 0 8 0 8 0</v>
                </vertex_weights>
            </skin>
        </controller>
        <controller id="controller1">
            <skin source="#mesh1">
                <bind_shape_matrix>1 0 0 0 0 1 0 0 0 0 1 0 0 0 0 1</bind_shape_matrix>
                <source id="joints1">
                    <Name_array id="JointArr1" count="13">jointnode-1 jointnode0 jointnode1 jointnode2 jointnode3 jointnode4 jointnode5 jointnode6 jointnode7 jointnode8 jointnode9 jointnode10 jointnode11</Name_array>
                    <technique_common>
                        <accessor source="#JointArr1" count="13">
                            <param name="JOINT" type="Name" />
                        </accessor>
                    </technique_common>
                </source>
                <source id="matrices1">
                    <float_array id="MatArr1" count="208">1 0 0 0 0 1 0 0 0 0 1 0 0 0 0 1 0.00004793836256601856 0.9999999988509567 -4.386559881474326e-18 0 -0.00004793836251091911 2.2980866055094973e-9 0.9999999988509567 0 0.9999999977019134 -0.00004793836251091911 0.00004793836256601856 0 0 0 0 1 0.000005912328150267383 0.7660786806129893 0.6427468047958744 -29.110989840614046 -0.00006753678687636021 -0.6427468030353594 0.7660786791359014 24.424378610307897 0.9999999977019135 -0.00004793836251091911 0.000047938362566018563 -4.336808689942018e-19 0 0 0 1 0.9999999962694429 -0.00008466292000114608 0.000017126133144491138 -15.638491359825958 0.00006753678687636022 0.6427468030353592 -0.7660786791359017 -24.42437861030789 0.000053850690599309734 0.7660786774346453 0.642746806355417 -55.11173958760861 0 0 0 1.0000000000000002 0.9999999962694426 -0.00008466292000114608 0.000017126133144491128 -32.8985907708367 -0.00006753678687636021 -0.6427468030353592 0.7660786791359013 24.424383610307764 -0.00005385069059930971 -0.766078677434645 -0.642746806355417 55.1117365876085 0 0 0 1 0.9999999962694426 -0.00008466292000114608 0.000017126133144491128 -50.36299583065113 -0.00006753678687636021 -0.6427468030353592 0.7660786791359013 24.424383610307757 -0.00005385069059930971 -0.766078677434645 -0.642746806355417 55.11173658760849 0 0 0 1 -0.9999999962694429 0.00008466292000114608 -0.000017126133144491138 -15.882495160961906 0.00006753678687636021 0.6427468030353592 -0.7660786791359017 -24.424379610307888 -0.00005385069059930973 -0.7660786774346453 -0.642746806355417 55.110228523126615 0 0 0 1.0000000000000002 -0.9999999962694426 0.00008466292000114608 -0.000017126133144491128 -33.27534794416503 -0.0000675367868763602 -0.6427468030353592 0.7660786791359013 24.424384610307765 0.0000538506905993097 0.766078677434645 0.642746806355417 -55.110225523126495 0 0 0 1 -0.9999999962694426 0.00008466292000114608 -0.000017126133144491128 -50.035268064404264 -0.0000675367868763602 -0.6427468030353592 0.7660786791359013 24.424384610307765 0.0000538506905993097 0.766078677434645 0.642746806355417 -55.11022552312649 0 0 0 1 -0.6115409182501672 -0.6783283933878209 -0.4072938693739936 8.378103791787735 -0.7875197837880152 0.472165335928606 0.39607131389423306 -84.68364377781953 -0.0763563713662449 0.5629657949390213 -0.8229454527977268 -19.177977752365052 0 0 0 1 -0.6257168229499468 -0.6546181167205061 -0.42420935720316527 7.003986771282547 -0.7777245152636673 0.48157239316573885 0.4040205545495382 -83.76761600070984 -0.06019165918396492 0.5827204745003565 -0.810440505381339 -26.269292984781455 0 0 0 1 -0.000047936064369230354 0.000047940660597427155 0.9999999977019134 -25.71316283191315 -0.00004794066059753818 -0.9999999977018034 0.0000479383625107758 68.64191463259635 0.9999999977019135 -0.00004793836251091911 0.000047938362566018563 -6.505213034913027e-19 0 0 0 1 0.999999993302885 -0.00008183184086339653 0.00008183996595934136 0.002279896318510859 0.00008184360993304343 0.9999999863097385 -0.00014381288745596565 -106.79634901190194 -0.00008182819636582573 0.00014381958457113355 0.9999999863100366 -39.51189835378754 0 0 0 1</float_array>
                    <technique_common>
                        <accessor source="#MatArr1" count="13" stride="16">
                            <param type="float4x4" />
                        </accessor>
                    </technique_common>
                </source>
                <source id="weights1">
                    <float_array id="WeightArr1" count="3">1 0.8999999761581421 0.10000000149011612</float_array>
                    <technique_common>
                        <accessor source="#WeightArr1" count="1">
                            <param type="float" />
                        </accessor>
                    </technique_common>
                </source>
                <joints>
                    <input semantic="JOINT" source="#joints1" />
                    <input semantic="INV_BIND_MATRIX" source="#matrices1" />
                </joints>
                <vertex_weights count="14">
                    <input semantic="JOINT" offset="0" source="#joints1" />
                    <input semantic="WEIGHT" offset="1" source="#weights1" />
                    <vcount>1 1 1 1 1 1 1 1 1 1 1 1 1 1</vcount>
                    <v>11 0 11 0 11 0 11 0 11 0 11 0 11 0 11 0 11 0 11 0 11 0 11 0 11 0 11 0</v>
                </vertex_weights>
            </skin>
        </controller>
        <controller id="controller2">
            <skin source="#mesh2">
                <bind_shape_matrix>1 0 0 0 0 1 0 0 0 0 1 0 0 0 0 1</bind_shape_matrix>
                <source id="joints2">
                    <Name_array id="JointArr2" count="13">jointnode-1 jointnode0 jointnode1 jointnode2 jointnode3 jointnode4 jointnode5 jointnode6 jointnode7 jointnode8 jointnode9 jointnode10 jointnode11</Name_array>
                    <technique_common>
                        <accessor source="#JointArr2" count="13">
                            <param name="JOINT" type="Name" />
                        </accessor>
                    </technique_common>
                </source>
                <source id="matrices2">
                    <float_array id="MatArr2" count="208">1 0 0 0 0 1 0 0 0 0 1 0 0 0 0 1 0.00004793836256601856 0.9999999988509567 -4.386559881474326e-18 0 -0.00004793836251091911 2.2980866055094973e-9 0.9999999988509567 0 0.9999999977019134 -0.00004793836251091911 0.00004793836256601856 0 0 0 0 1 0.000005912328150267383 0.7660786806129893 0.6427468047958744 -29.110989840614046 -0.00006753678687636021 -0.6427468030353594 0.7660786791359014 24.424378610307897 0.9999999977019135 -0.00004793836251091911 0.000047938362566018563 -4.336808689942018e-19 0 0 0 1 0.9999999962694429 -0.00008466292000114608 0.000017126133144491138 -15.638491359825958 0.00006753678687636022 0.6427468030353592 -0.7660786791359017 -24.42437861030789 0.000053850690599309734 0.7660786774346453 0.642746806355417 -55.11173958760861 0 0 0 1.0000000000000002 0.9999999962694426 -0.00008466292000114608 0.000017126133144491128 -32.8985907708367 -0.00006753678687636021 -0.6427468030353592 0.7660786791359013 24.424383610307764 -0.00005385069059930971 -0.766078677434645 -0.642746806355417 55.1117365876085 0 0 0 1 0.9999999962694426 -0.00008466292000114608 0.000017126133144491128 -50.36299583065113 -0.00006753678687636021 -0.6427468030353592 0.7660786791359013 24.424383610307757 -0.00005385069059930971 -0.766078677434645 -0.642746806355417 55.11173658760849 0 0 0 1 -0.9999999962694429 0.00008466292000114608 -0.000017126133144491138 -15.882495160961906 0.00006753678687636021 0.6427468030353592 -0.7660786791359017 -24.424379610307888 -0.00005385069059930973 -0.7660786774346453 -0.642746806355417 55.110228523126615 0 0 0 1.0000000000000002 -0.9999999962694426 0.00008466292000114608 -0.000017126133144491128 -33.27534794416503 -0.0000675367868763602 -0.6427468030353592 0.7660786791359013 24.424384610307765 0.0000538506905993097 0.766078677434645 0.642746806355417 -55.110225523126495 0 0 0 1 -0.9999999962694426 0.00008466292000114608 -0.000017126133144491128 -50.035268064404264 -0.0000675367868763602 -0.6427468030353592 0.7660786791359013 24.424384610307765 0.0000538506905993097 0.766078677434645 0.642746806355417 -55.11022552312649 0 0 0 1 -0.6115409182501672 -0.6783283933878209 -0.4072938693739936 8.378103791787735 -0.7875197837880152 0.472165335928606 0.39607131389423306 -84.68364377781953 -0.0763563713662449 0.5629657949390213 -0.8229454527977268 -19.177977752365052 0 0 0 1 -0.6257168229499468 -0.6546181167205061 -0.42420935720316527 7.003986771282547 -0.7777245152636673 0.48157239316573885 0.4040205545495382 -83.76761600070984 -0.06019165918396492 0.5827204745003565 -0.810440505381339 -26.269292984781455 0 0 0 1 -0.000047936064369230354 0.000047940660597427155 0.9999999977019134 -25.71316283191315 -0.00004794066059753818 -0.9999999977018034 0.0000479383625107758 68.64191463259635 0.9999999977019135 -0.00004793836251091911 0.000047938362566018563 -6.505213034913027e-19 0 0 0 1 0.999999993302885 -0.00008183184086339653 0.00008183996595934136 0.002279896318510859 0.00008184360993304343 0.9999999863097385 -0.00014381288745596565 -106.79634901190194 -0.00008182819636582573 0.00014381958457113355 0.9999999863100366 -39.51189835378754 0 0 0 1</float_array>
                    <technique_common>
                        <accessor source="#MatArr2" count="13" stride="16">
                            <param type="float4x4" />
                        </accessor>
                    </technique_common>
                </source>
                <source id="weights2">
                    <float_array id="WeightArr2" count="3">1 0.8999999761581421 0.10000000149011612</float_array>
                    <technique_common>
                        <accessor source="#WeightArr2" count="1">
                            <param type="float" />
                        </accessor>
                    </technique_common>
                </source>
                <joints>
                    <input semantic="JOINT" source="#joints2" />
                    <input semantic="INV_BIND_MATRIX" source="#matrices2" />
                </joints>
                <vertex_weights count="17">
                    <input semantic="JOINT" offset="0" source="#joints2" />
                    <input semantic="WEIGHT" offset="1" source="#weights2" />
                    <vcount>1 1 1 1 1 1 1 1 1 1 1 1 1 1 1 1 1</vcount>
                    <v>11 0 11 0 11 0 11 0 11 0 11 0 11 0 11 0 11 0 11 0 11 0 11 0 11 0 11 0 11 0 11 0 11 0</v>
                </vertex_weights>
            </skin>
        </controller>
    </library_controllers>
    <library_visual_scenes>
        <visual_scene id="VisualSceneNode">
            <node id="node0" name="m0" type="NODE">
                <instance_controller url="#controller0">
                    <skeleton>#jointnode-1</skeleton>
                    <bind_material>
                        <technique_common>
                            <instance_material symbol="Material1" target="#mat0">
                                <bind_vertex_input semantic="UVSET0" input_semantic="TEXCOORD" input_set="0"></bind_vertex_input>
                            </instance_material>
                        </technique_common>
                    </bind_material>
                </instance_controller>
            </node>
            <node id="node1" name="m1" type="NODE">
                <instance_controller url="#controller1">
                    <skeleton>#jointnode-1</skeleton>
                    <bind_material>
                        <technique_common>
                            <instance_material symbol="Material1" target="#mat1">
                                <bind_vertex_input semantic="UVSET0" input_semantic="TEXCOORD" input_set="0"></bind_vertex_input>
                            </instance_material>
                        </technique_common>
                    </bind_material>
                </instance_controller>
            </node>
            <node id="node2" name="m2" type="NODE">
                <instance_controller url="#controller2">
                    <skeleton>#jointnode-1</skeleton>
                    <bind_material>
                        <technique_common>
                            <instance_material symbol="Material1" target="#mat2">
                                <bind_vertex_input semantic="UVSET0" input_semantic="TEXCOORD" input_set="0"></bind_vertex_input>
                            </instance_material>
                        </technique_common>
                    </bind_material>
                </instance_controller>
            </node>
            <node id="jointnode-1" name="root" sid="jointnode-1" type="JOINT">
                <node id="jointnode0" name="root" sid="jointnode0" type="JOINT">
                    <rotate>0 0 1 89.99725333414716</rotate>
                    <rotate>1 0 0 89.99725333414716</rotate>
                    <node id="jointnode1" name="spin" sid="jointnode1" type="JOINT">
                        <translate>38 0 0</translate>
                        <rotate>0 0 1 39.9969481490524</rotate>
                        <node id="jointnode2" name="arm_l_1" sid="jointnode2" type="JOINT">
                            <translate>26 0 15.641133308410645</translate>
                            <rotate>0 0 1 180</rotate>
                            <rotate>0 1 0 -89.99725333414716</rotate>
                            <node id="jointnode3" name="arm_l_2" sid="jointnode3" type="JOINT">
                                <translate>17.260099411010742 0.000004999999873689376 -0.000003000000106112566</translate>
                                <rotate>1 0 0 -180</rotate>
                                <node id="jointnode4" name="wrist_l" sid="jointnode4" type="JOINT">
                                    <translate>17.464405059814453 0 0</translate>
                                </node>
                            </node>
                        </node>
                        <node id="jointnode5" name="arm_r_1" sid="jointnode5" type="JOINT">
                            <translate>26 -9.999999974752427e-7 -15.879853248596191</translate>
                            <rotate>0 1 0 89.99725333414716</rotate>
                            <rotate>1 0 0 -180</rotate>
                            <node id="jointnode6" name="arm_r_2" sid="jointnode6" type="JOINT">
                                <translate>17.392852783203125 0.000004999999873689376 0.000003000000106112566</translate>
                                <rotate>1 0 0 180</rotate>
                                <node id="jointnode7" name="wrist_r" sid="jointnode7" type="JOINT">
                                    <translate>16.759920120239258 0 0</translate>
                                    <node id="jointnode8" name="finger_1" sid="jointnode8" type="JOINT">
                                        <translate>13.000001907348633 4.354781150817871 1.7498899698257446</translate>
                                        <rotate>0 0 1 11.464583269753104</rotate>
                                        <rotate>0 1 0 51.39561143833735</rotate>
                                        <rotate>1 0 0 99.00631733146153</rotate>
                                    </node>
                                    <node id="jointnode9" name="finger_2" sid="jointnode9" type="JOINT">
                                        <translate>12.316373825073242 -2.3922219276428223 1.008286952972412</translate>
                                        <rotate>0 0 1 8.706930753501998</rotate>
                                        <rotate>0 1 0 50.730918301950126</rotate>
                                        <rotate>1 0 0 96.75954466383862</rotate>
                                    </node>
                                </node>
                            </node>
                        </node>
                        <node id="jointnode10" name="face" sid="jointnode10" type="JOINT">
                            <translate>40 0 0</translate>
                            <rotate>0 0 1 50.00030518509476</rotate>
                            <node id="jointnode11" name="ef_head" sid="jointnode11" type="JOINT">
                                <translate>13.788496017456055 -38.15822219848633 9.999999974752427e-7</translate>
                                <rotate>0 0 1 44.99588000122074</rotate>
                                <rotate>0 1 0 -89.99725333414716</rotate>
                                <rotate>1 0 0 134.99862666707358</rotate>
                            </node>
                        </node>
                    </node>
                </node>
            </node>
        </visual_scene>
    </library_visual_scenes>
    <scene>
        <instance_visual_scene url="#VisualSceneNode"></instance_visual_scene>
    </scene>
</COLLADA>
