<?xml version="1.0"?>
<COLLADA xmlns="http://www.collada.org/2005/11/COLLADASchema" version="1.4.1">
    <asset>
        <contributor>
            <authoring_tool>J3D Ripoff Exporter</authoring_tool>
        </contributor>
        <created>2024-10-08T03:47:43.933Z</created>
        <modified>2024-10-08T03:47:43.933Z</modified>
		<unit meter="0.01" name="centimeter" ></unit>
        <up_axis>Y_UP</up_axis>
    </asset>
    <library_images>
        <image id="tex0">
            <init_from>signal.png</init_from>
        </image>
        <image id="tex1">
            <init_from>ref_a.png</init_from>
        </image>
        <image id="tex2">
            <init_from>light.png</init_from>
        </image>
        <image id="tex3">
            <init_from>light.png</init_from>
        </image>
    </library_images>
    <library_effects>
        <effect id="effect0">
            <profile_COMMON>
                <newparam sid="surface0">
                    <surface type="2D">
                        <init_from>tex3</init_from>
                    </surface>
                </newparam>
                <newparam sid="sampler0">
                    <sampler2D>
                        <source>surface0</source>
                    </sampler2D>
                </newparam>
                <technique sid="COMMON">
                    <blinn>
                        <diffuse>
                            <texture texture="sampler0" texcoord="UVSET0"></texture>
                        </diffuse>
                    </blinn>
                </technique>
            </profile_COMMON>
        </effect>
        <effect id="effect1">
            <profile_COMMON>
                <newparam sid="surface1">
                    <surface type="2D">
                        <init_from>tex3</init_from>
                    </surface>
                </newparam>
                <newparam sid="sampler1">
                    <sampler2D>
                        <source>surface1</source>
                    </sampler2D>
                </newparam>
                <technique sid="COMMON">
                    <blinn>
                        <diffuse>
                            <texture texture="sampler1" texcoord="UVSET0"></texture>
                        </diffuse>
                    </blinn>
                </technique>
            </profile_COMMON>
        </effect>
        <effect id="effect2">
            <profile_COMMON>
                <newparam sid="surface2">
                    <surface type="2D">
                        <init_from>tex2</init_from>
                    </surface>
                </newparam>
                <newparam sid="sampler2">
                    <sampler2D>
                        <source>surface2</source>
                    </sampler2D>
                </newparam>
                <technique sid="COMMON">
                    <blinn>
                        <diffuse>
                            <texture texture="sampler2" texcoord="UVSET0"></texture>
                        </diffuse>
                    </blinn>
                </technique>
            </profile_COMMON>
        </effect>
        <effect id="effect3">
            <profile_COMMON>
                <newparam sid="surface3">
                    <surface type="2D">
                        <init_from>tex0</init_from>
                    </surface>
                </newparam>
                <newparam sid="sampler3">
                    <sampler2D>
                        <source>surface3</source>
                    </sampler2D>
                </newparam>
                <technique sid="COMMON">
                    <blinn>
                        <diffuse>
                            <texture texture="sampler3" texcoord="UVSET0"></texture>
                        </diffuse>
                    </blinn>
                </technique>
            </profile_COMMON>
        </effect>
    </library_effects>
    <library_materials>
        <material id="mat0" name="light_1">
            <instance_effect url="#effect0"></instance_effect>
        </material>
        <material id="mat1" name="light_2">
            <instance_effect url="#effect1"></instance_effect>
        </material>
        <material id="mat2" name="light_3">
            <instance_effect url="#effect2"></instance_effect>
        </material>
        <material id="mat3" name="signal_01">
            <instance_effect url="#effect3"></instance_effect>
        </material>
    </library_materials>
    <library_geometries>
        <geometry id="mesh0">
            <mesh>
                <source id="points0">
                    <float_array id="pointarray0" count="24">14.943161010742188 -56.811279296875 21.427156448364258 6.1685791015625 -41.70450210571289 24.6268367767334 14.943161010742188 -26.597185134887695 21.427156448364258 0.0019150000298395753 -35.46880340576172 24.6268367767334 -14.937087059020996 -26.597185134887695 21.427156448364258 -6.1647419929504395 -41.70450210571289 24.6268367767334 -14.937087059020996 -56.811279296875 21.427156448364258 0.0019150000298395753 -47.93983840942383 24.6268367767334</float_array>
                    <technique_common>
                        <accessor count="8" source="#pointarray0" stride="3">
                            <param name="X" type="float"/>
                            <param name="Y" type="float"/>
                            <param name="Z" type="float"/>
                        </accessor>
                    </technique_common>
                </source>
                <source id="uvs0">
                    <float_array id="uvarray0" count="16">0.99444580078125 0 0.70404052734375 0.5 0.99444580078125 1 0.49993896484375 0.7064208984375 0.0054931640625 1 0.29583740234375 0.5 0.0054931640625 0 0.49993896484375 0.29364013671875</float_array>
                    <technique_common>
                        <accessor count="8" source="#uvarray0" stride="2">
                            <param name="S" type="float"/>
                            <param name="T" type="float"/>
                        </accessor>
                    </technique_common>
                </source>
                <vertices id="vertices0">
                    <input semantic="POSITION" source="#points0"/>
                </vertices>
                <polylist count="10" material="Material1">
                    <input offset="0" semantic="VERTEX" source="#vertices0"/>
                    <input offset="1" semantic="TEXCOORD" source="#uvs0" set="0"/>
                    <vcount>3 3 3 3 3 3 3 3 3 3</vcount>
                    <p>2 2 1 1 0 0 3 3 1 1 2 2 4 4 3 3 2 2 5 5 3 3 4 4 6 6 5 5 4 4 7 7 5 5 6 6 0 0 7 7 6 6 1 1 7 7 0 0 3 3 7 7 1 1 5 5 7 7 3 3</p>
                </polylist>
            </mesh>
        </geometry>
        <geometry id="mesh1">
            <mesh>
                <source id="points1">
                    <float_array id="pointarray1" count="24">44.35224533081055 -26.597185134887695 21.427156448364258 29.566112518310547 -35.46880340576172 24.6268367767334 14.943161010742188 -26.597185134887695 21.427156448364258 23.49665641784668 -41.70450210571289 24.6268367767334 14.943161010742188 -56.811279296875 21.427156448364258 29.566112518310547 -47.93983840942383 24.6268367767334 44.35224533081055 -56.811279296875 21.427156448364258 35.635528564453125 -41.70450210571289 24.6268367767334</float_array>
                    <technique_common>
                        <accessor count="8" source="#pointarray1" stride="3">
                            <param name="X" type="float"/>
                            <param name="Y" type="float"/>
                            <param name="Z" type="float"/>
                        </accessor>
                    </technique_common>
                </source>
                <source id="uvs1">
                    <float_array id="uvarray1" count="16">0.98663330078125 1 0.49725341796875 0.7064208984375 0.0133056640625 1 0.29638671875 0.5 0.0133056640625 0 0.49725341796875 0.29364013671875 0.98663330078125 0 0.6981201171875 0.5</float_array>
                    <technique_common>
                        <accessor count="8" source="#uvarray1" stride="2">
                            <param name="S" type="float"/>
                            <param name="T" type="float"/>
                        </accessor>
                    </technique_common>
                </source>
                <vertices id="vertices1">
                    <input semantic="POSITION" source="#points1"/>
                </vertices>
                <polylist count="10" material="Material1">
                    <input offset="0" semantic="VERTEX" source="#vertices1"/>
                    <input offset="1" semantic="TEXCOORD" source="#uvs1" set="0"/>
                    <vcount>3 3 3 3 3 3 3 3 3 3</vcount>
                    <p>2 2 1 1 0 0 3 3 1 1 2 2 4 4 3 3 2 2 5 5 3 3 4 4 6 6 5 5 4 4 7 7 5 5 6 6 0 0 7 7 6 6 1 1 7 7 0 0 3 3 7 7 1 1 5 5 7 7 3 3</p>
                </polylist>
            </mesh>
        </geometry>
        <geometry id="mesh2">
            <mesh>
                <source id="points2">
                    <float_array id="pointarray2" count="24">-44.363338470458984 -26.597185134887695 21.427156448364258 -35.91412353515625 -41.70450210571289 24.6268367767334 -44.229278564453125 -56.81148910522461 21.427156448364258 -29.841161727905273 -47.93983840942383 24.6268367767334 -14.937087059020996 -56.811279296875 21.427156448364258 -23.79591178894043 -41.70450210571289 24.6268367767334 -14.937087059020996 -26.597185134887695 21.427156448364258 -29.86883544921875 -35.46880340576172 24.6268367767334</float_array>
                    <technique_common>
                        <accessor count="8" source="#pointarray2" stride="3">
                            <param name="X" type="float"/>
                            <param name="Y" type="float"/>
                            <param name="Z" type="float"/>
                        </accessor>
                    </technique_common>
                </source>
                <source id="uvs2">
                    <float_array id="uvarray2" count="16">0.01300048828125 1 0.29266357421875 0.5 0.0174560546875 0 0.49365234375 0.29364013671875 0.9869384765625 0 0.6937255859375 0.5 0.9869384765625 1 0.49273681640625 0.7064208984375</float_array>
                    <technique_common>
                        <accessor count="8" source="#uvarray2" stride="2">
                            <param name="S" type="float"/>
                            <param name="T" type="float"/>
                        </accessor>
                    </technique_common>
                </source>
                <vertices id="vertices2">
                    <input semantic="POSITION" source="#points2"/>
                </vertices>
                <polylist count="10" material="Material1">
                    <input offset="0" semantic="VERTEX" source="#vertices2"/>
                    <input offset="1" semantic="TEXCOORD" source="#uvs2" set="0"/>
                    <vcount>3 3 3 3 3 3 3 3 3 3</vcount>
                    <p>2 2 1 1 0 0 3 3 1 1 2 2 4 4 3 3 2 2 5 5 3 3 4 4 6 6 5 5 4 4 7 7 5 5 6 6 1 1 7 7 0 0 3 3 7 7 1 1 0 0 7 7 6 6 7 7 3 3 5 5</p>
                </polylist>
            </mesh>
        </geometry>
        <geometry id="mesh3">
            <mesh>
                <source id="points3">
                    <float_array id="pointarray3" count="225">56.04429244995117 -37.36716842651367 2.9509079456329346 50.30292892456055 -38.373722076416016 0.09591499716043472 56.02586364746094 -9.214282035827637 2.9509079456329346 50.30852127075195 -11.315360069274902 0.09591499716043472 51.39575958251953 -5.555301189422607 2.9509079456329346 12.759259223937988 -11.33735179901123 0.09591499716043472 12.605033874511719 -5.497909069061279 2.9509079456329346 8.098840713500977 -9.598026275634766 0.09591499716043472 3.189992904663086 5.523471832275391 2.9509079456329346 0.006277000065892935 -0.40709999203681946 0.09591499716043472 -3.1990909576416016 5.523471832275391 2.950908899307251 -8.243293762207031 -9.598026275634766 0.09591499716043472 -12.729328155517578 -5.497909069061279 2.9509079456329346 -12.903717041015625 -11.33735179901123 0.09591499716043472 -51.737613677978516 -5.555301189422607 2.9509079456329346 -50.37879943847656 -11.315360069274902 0.09591499716043472 -56.0765266418457 -9.214301109313965 2.9509079456329346 -56.094974517822266 -37.367130279541016 2.9509079456329346 -56.076515197753906 -9.214301109313965 -2.7590770721435547 -51.73760223388672 -5.555301189422607 -2.7590770721435547 -12.729310989379883 -5.497909069061279 -2.7590770721435547 -3.202299118041992 5.523453235626221 -2.7590770721435547 3.1867868900299072 5.523471832275391 -2.759078025817871 12.605034828186035 -5.497909069061279 -2.7590770721435547 51.39575958251953 -5.555301189422607 -2.7590770721435547 56.02587127685547 -9.214282035827637 -2.7590770721435547 56.04428482055664 -37.36716842651367 -2.7590770721435547 48.566646575927734 -34.09764862060547 18.991487503051758 48.566646575927734 -56.97323989868164 18.991491317749023 44.35224533081055 -56.811279296875 21.427156448364258 43.19464874267578 -61.37627410888672 16.851903915405273 14.943161010742188 -56.811279296875 21.427156448364258 -43.13778305053711 -61.37627410888672 16.851903915405273 -14.937087059020996 -56.811279296875 21.427156448364258 -44.229278564453125 -56.81148910522461 21.427156448364258 61.58792495727539 -37.14521026611328 3.684201955795288 61.575164794921875 -37.13679885864258 -3.4149279594421387 61.56297302246094 -43.29716873168945 7.226329803466797 61.588134765625 -43.280574798583984 -6.971770763397217 61.48221969604492 -49.44115447998047 3.6695549488067627 61.56295394897461 -49.4324836730957 -3.429615020751953 -61.747440338134766 -49.47636032104492 3.689969062805176 -61.83523941040039 -49.467960357666016 -3.4091908931732178 -61.835289001464844 -43.33269119262695 7.246763229370117 -61.810279846191406 -43.315921783447266 -6.9513959884643555 -61.810279846191406 -37.18070602416992 3.7046070098876953 -61.8233642578125 -37.172096252441406 -3.3945140838623047 14.943161010742188 -26.597185134887695 21.427156448364258 -14.937087059020996 -26.597185134887695 21.427156448364258 44.35224533081055 -26.597185134887695 21.427156448364258 -44.363338470458984 -26.597185134887695 21.427156448364258 46.31614685058594 -22.852739334106445 18.991487503051758 -46.34733581542969 -23.05431365966797 18.991487503051758 -56.094966888427734 -37.367130279541016 -2.7590770721435547 -50.353614807128906 -38.373722076416016 0.09591499716043472 43.19462966918945 -18.49019432067871 48.98130798339844 -43.13778305053711 -18.490175247192383 48.98130798339844 -43.13778305053711 -18.501758575439453 -15.067984580993652 43.19462966918945 -18.501758575439453 -15.067984580993652 -48.6380729675293 -22.72201156616211 -18.267290115356445 48.566646575927734 -22.757320404052734 -18.267290115356445 48.566646575927734 -56.98268508911133 -18.26738739013672 43.19462966918945 -61.42020797729492 -15.067984580993652 -48.6380729675293 -56.998966217041016 18.991487503051758 -48.6380729675293 -56.982887268066406 -18.267290115356445 -43.13778305053711 -61.42020797729492 -15.067984580993652 -48.638038635253906 -22.721181869506836 47.82661819458008 48.566646575927734 -22.755403518676758 47.82660675048828 -48.6380729675293 -34.11043167114258 18.991487503051758 0.06907100230455399 -42.93073272705078 -13.502147674560547 -0.033994000405073166 -55.669132232666016 -6.3852009773254395 -0.08188799768686295 -30.94599151611328 -6.979355812072754 0.06905599683523178 -30.960187911987305 6.66021203994751 -0.05800300091505051 -55.667015075683594 7.254356861114502 -0.03397899866104126 -43.682342529296875 13.77715015411377</float_array>
                    <technique_common>
                        <accessor count="75" source="#pointarray3" stride="3">
                            <param name="X" type="float"/>
                            <param name="Y" type="float"/>
                            <param name="Z" type="float"/>
                        </accessor>
                    </technique_common>
                </source>
                <source id="uvs3">
                    <float_array id="uvarray3" count="192">0.08392333984375 0.53778076171875 0.05450439453125 0.5374755859375 0.08416748046875 0.457763671875 0.05474853515625 0.45892333984375 0.08416748046875 0.43359375 0.05474853515625 0.45904541015625 0.08416748046875 0.4332275390625 0.05474853515625 0.44757080078125 0.08428955078125 0.40875244140625 0.0548095703125 0.4351806640625 0.02532958984375 0.45770263671875 0.025390625 0.43353271484375 0.025390625 0.43316650390625 0.02545166015625 0.40869140625 0.02508544921875 0.5377197265625 0.95941162109375 0.91033935546875 0.95941162109375 0.83782958984375 0.863525390625 0.84942626953125 0.93035888671875 0.817138671875 0.622802734375 0.84942626953125 0.0712890625 0.817138671875 0.37823486328125 0.84942626953125 0.13671875 0.84942626953125 0.09112548828125 0.376220703125 0.51043701171875 0.497314453125 0.09112548828125 0.1341552734375 0.92974853515625 0.376220703125 0.51043701171875 0.01312255859375 0.92974853515625 0.1341552734375 0.51043701171875 0.01171875 0.92974853515625 0.13275146484375 0.09112548828125 0.13275146484375 0.92974853515625 0.37481689453125 0.09112548828125 0.37481689453125 0.51043701171875 0.49591064453125 0.622802734375 0.92303466796875 0.37823486328125 0.92303466796875 0.863525390625 0.92303466796875 0.137451171875 0.92303466796875 0.95751953125 0.95269775390625 0.043212890625 0.95196533203125 0.483642578125 0.72137451171875 0.34490966796875 0.72137451171875 0.47900390625 0.5743408203125 0.3497314453125 0.5743408203125 0.6414794921875 0.56256103515625 0.98431396484375 0.5633544921875 0.62432861328125 0.575927734375 0.62432861328125 0.5760498046875 0.823486328125 0.64739990234375 0.62408447265625 0.64691162109375 0.81201171875 0.661376953125 0.64117431640625 0.66107177734375 0.823486328125 0.6474609375 0.97808837890625 0.57684326171875 0.97808837890625 0.576904296875 0.04095458984375 0.9102783203125 0.04095458984375 0.8377685546875 -0.69921875 0.080078125 0.258544921875 0.09393310546875 -0.69921875 -0.01141357421875 0.258544921875 0.002197265625 -0.6904296875 0.02874755859375 0.25115966796875 0.0059814453125 -0.69287109375 0.12469482421875 0.25091552734375 0.1026611328125 -0.69805908203125 -0.02783203125 -0.69805908203125 0.07220458984375 0.24822998046875 0.00421142578125 0.24822998046875 0.10003662109375 -0.69854736328125 0.0433349609375 0.2615966796875 0.00555419921875 -0.69818115234375 0.13214111328125 0.2615966796875 0.09442138671875 -0.702392578125 0.03057861328125 0.25909423828125 0.10198974609375 -0.70269775390625 -0.05413818359375 0.25909423828125 0.010986328125 0.25384521484375 0.008056640625 0.253662109375 0.10174560546875 -0.69805908203125 -0.01141357421875 -0.69805908203125 0.080078125 0.25213623046875 0.0059814453125 0.25213623046875 0.10003662109375 -0.69903564453125 -0.015869140625 -0.69903564453125 0.07220458984375 -0.6998291015625 0.080078125 -0.6998291015625 -0.01141357421875 0.82366943359375 0.6126708984375 0.487060546875 0.58001708984375 0.487060546875 0.72137451171875 0.82366943359375 0.61260986328125 0.34149169921875 0.58001708984375 0.34149169921875 0.72137451171875 0.25067138671875 0.0059814453125 0.25048828125 0.1026611328125</float_array>
                    <technique_common>
                        <accessor count="96" source="#uvarray3" stride="2">
                            <param name="S" type="float"/>
                            <param name="T" type="float"/>
                        </accessor>
                    </technique_common>
                </source>
                <vertices id="vertices3">
                    <input semantic="POSITION" source="#points3"/>
                </vertices>
                <polylist count="130" material="Material1">
                    <input offset="0" semantic="VERTEX" source="#vertices3"/>
                    <input offset="1" semantic="TEXCOORD" source="#uvs3" set="0"/>
                    <vcount>3 3 3 3 3 3 3 3 3 3 3 3 3 3 3 3 3 3 3 3 3 3 3 3 3 3 3 3 3 3 3 3 3 3 3 3 3 3 3 3 3 3 3 3 3 3 3 3 3 3 3 3 3 3 3 3 3 3 3 3 3 3 3 3 3 3 3 3 3 3 3 3 3 3 3 3 3 3 3 3 3 3 3 3 3 3 3 3 3 3 3 3 3 3 3 3 3 3 3 3 3 3 3 3 3 3 3 3 3 3 3 3 3 3 3 3 3 3 3 3 3 3 3 3 3 3 3 3 3 3</vcount>
                    <p>2 2 1 1 0 0 3 3 1 1 2 2 4 4 3 3 2 2 5 5 3 3 4 4 6 6 5 5 4 4 7 7 5 5 6 6 8 8 7 7 6 6 9 9 7 7 8 8 10 8 9 9 8 8 11 7 9 9 10 8 12 6 11 7 10 8 13 5 11 7 12 6 14 4 13 5 12 6 15 3 13 5 14 4 16 2 15 3 14 4 17 0 15 3 16 2 19 11 15 3 18 10 13 5 15 3 19 11 20 12 13 5 19 11 11 7 13 5 20 12 21 13 11 7 20 12 9 9 11 7 21 13 22 13 9 9 21 13 7 7 9 9 22 13 23 12 7 7 22 13 5 5 7 7 23 12 24 11 5 5 23 12 3 3 5 5 24 11 25 10 3 3 24 11 1 1 3 3 25 10 26 14 1 1 25 10 29 17 28 16 27 15 30 18 28 16 29 17 31 19 30 18 29 17 32 20 30 18 31 19 33 21 32 20 31 19 34 22 32 20 33 21 37 25 36 24 35 23 38 26 36 24 37 25 39 27 38 26 37 25 40 28 38 26 39 27 43 31 42 30 41 29 44 32 42 30 43 31 45 33 44 32 43 31 46 34 44 32 45 33 49 37 48 36 47 35 50 38 48 36 49 37 51 39 50 38 49 37 52 40 50 38 51 39 12 6 21 13 20 12 10 8 21 13 12 6 12 6 19 11 14 4 20 12 19 11 12 6 18 10 14 4 19 11 16 2 14 4 18 10 53 14 16 2 18 10 17 0 16 2 53 14 18 10 54 1 53 14 15 3 54 1 18 10 55 43 52 42 51 41 56 44 52 42 55 43 56 46 58 45 57 45 55 46 58 45 56 46 57 45 60 48 59 47 58 45 60 48 57 45 30 51 61 50 28 49 62 52 61 50 30 51 64 50 32 51 63 53 65 52 32 51 64 50 56 46 59 47 66 54 57 45 59 47 56 46 55 46 60 48 58 45 67 55 60 48 55 46 61 50 65 52 64 50 62 52 65 52 61 50 59 47 61 50 64 50 60 48 61 50 59 47 30 51 65 52 62 52 32 51 65 52 30 51 68 56 50 38 52 40 63 57 50 38 68 56 49 37 27 15 51 39 29 17 27 15 49 37 34 22 63 57 32 20 50 38 63 57 34 22 70 60 44 59 69 58 42 61 44 59 70 60 71 64 38 63 69 62 36 65 38 63 71 64 35 68 71 67 72 66 36 69 71 67 35 68 70 72 39 71 73 70 40 73 39 71 70 72 73 76 37 75 74 74 39 77 37 75 73 76 41 71 70 72 73 70 42 73 70 72 41 71 73 76 43 75 41 77 74 74 43 75 73 76 71 67 45 78 72 66 46 79 45 78 71 67 70 80 38 59 40 61 69 81 38 59 70 80 74 84 45 83 43 82 72 85 45 83 74 84 74 87 35 69 72 86 37 68 35 69 74 87 59 47 68 88 66 54 64 50 68 88 59 47 51 41 67 89 55 43 27 90 67 89 51 41 27 91 60 48 67 55 28 49 60 48 27 91 66 92 52 42 56 44 68 93 52 42 66 92 21 13 8 8 22 13 10 8 8 8 21 13 6 6 22 13 8 8 23 12 22 13 6 6 4 4 23 12 6 6 24 11 23 12 4 4 25 10 4 4 2 2 24 11 4 4 25 10 26 14 2 2 0 0 25 10 2 2 26 14 64 50 63 53 68 88 28 49 61 50 60 48 44 94 71 64 69 62 15 3 17 0 54 1 44 94 46 95 71 64</p>
                </polylist>
            </mesh>
        </geometry>
    </library_geometries>
    <library_controllers>
        <controller id="controller0">
            <skin source="#mesh0">
                <bind_shape_matrix>1 0 0 0 0 1 0 0 0 0 1 0 0 0 0 1</bind_shape_matrix>
                <source id="joints0">
                    <Name_array id="JointArr0" count="5">jointnode-1 jointnode0 jointnode1 jointnode2 jointnode3</Name_array>
                    <technique_common>
                        <accessor source="#JointArr0" count="5">
                            <param name="JOINT" type="Name" />
                        </accessor>
                    </technique_common>
                </source>
                <source id="matrices0">
                    <float_array id="MatArr0" count="80">1 0 0 0 0 1 0 0 0 0 1 0 0 0 0 1 1 0 0 0 0 1 0 0 0 0 1 0 0 0 0 1 1 0 0 29.86883544921875 0 1 0 41.70450210571289 0 0 1 -24.6268367767334 0 0 0 1 1 0 0 0 0 1 0 41.70450210571289 0 0 1 -24.6268367767334 0 0 0 1 1 0 0 -29.566112518310547 0 1 0 41.70450210571289 0 0 1 -24.6268367767334 0 0 0 1</float_array>
                    <technique_common>
                        <accessor source="#MatArr0" count="5" stride="16">
                            <param type="float4x4" />
                        </accessor>
                    </technique_common>
                </source>
                <source id="weights0">
                    <float_array id="WeightArr0" count="1">1</float_array>
                    <technique_common>
                        <accessor source="#WeightArr0" count="1">
                            <param type="float" />
                        </accessor>
                    </technique_common>
                </source>
                <joints>
                    <input semantic="JOINT" source="#joints0" />
                    <input semantic="INV_BIND_MATRIX" source="#matrices0" />
                </joints>
                <vertex_weights count="8">
                    <input semantic="JOINT" offset="0" source="#joints0" />
                    <input semantic="WEIGHT" offset="1" source="#weights0" />
                    <vcount>1 1 1 1 1 1 1 1</vcount>
                    <v>1 0 1 0 1 0 1 0 1 0 1 0 1 0 1 0</v>
                </vertex_weights>
            </skin>
        </controller>
        <controller id="controller1">
            <skin source="#mesh1">
                <bind_shape_matrix>1 0 0 0 0 1 0 0 0 0 1 0 0 0 0 1</bind_shape_matrix>
                <source id="joints1">
                    <Name_array id="JointArr1" count="5">jointnode-1 jointnode0 jointnode1 jointnode2 jointnode3</Name_array>
                    <technique_common>
                        <accessor source="#JointArr1" count="5">
                            <param name="JOINT" type="Name" />
                        </accessor>
                    </technique_common>
                </source>
                <source id="matrices1">
                    <float_array id="MatArr1" count="80">1 0 0 0 0 1 0 0 0 0 1 0 0 0 0 1 1 0 0 0 0 1 0 0 0 0 1 0 0 0 0 1 1 0 0 29.86883544921875 0 1 0 41.70450210571289 0 0 1 -24.6268367767334 0 0 0 1 1 0 0 0 0 1 0 41.70450210571289 0 0 1 -24.6268367767334 0 0 0 1 1 0 0 -29.566112518310547 0 1 0 41.70450210571289 0 0 1 -24.6268367767334 0 0 0 1</float_array>
                    <technique_common>
                        <accessor source="#MatArr1" count="5" stride="16">
                            <param type="float4x4" />
                        </accessor>
                    </technique_common>
                </source>
                <source id="weights1">
                    <float_array id="WeightArr1" count="1">1</float_array>
                    <technique_common>
                        <accessor source="#WeightArr1" count="1">
                            <param type="float" />
                        </accessor>
                    </technique_common>
                </source>
                <joints>
                    <input semantic="JOINT" source="#joints1" />
                    <input semantic="INV_BIND_MATRIX" source="#matrices1" />
                </joints>
                <vertex_weights count="8">
                    <input semantic="JOINT" offset="0" source="#joints1" />
                    <input semantic="WEIGHT" offset="1" source="#weights1" />
                    <vcount>1 1 1 1 1 1 1 1</vcount>
                    <v>1 0 1 0 1 0 1 0 1 0 1 0 1 0 1 0</v>
                </vertex_weights>
            </skin>
        </controller>
        <controller id="controller2">
            <skin source="#mesh2">
                <bind_shape_matrix>1 0 0 0 0 1 0 0 0 0 1 0 0 0 0 1</bind_shape_matrix>
                <source id="joints2">
                    <Name_array id="JointArr2" count="5">jointnode-1 jointnode0 jointnode1 jointnode2 jointnode3</Name_array>
                    <technique_common>
                        <accessor source="#JointArr2" count="5">
                            <param name="JOINT" type="Name" />
                        </accessor>
                    </technique_common>
                </source>
                <source id="matrices2">
                    <float_array id="MatArr2" count="80">1 0 0 0 0 1 0 0 0 0 1 0 0 0 0 1 1 0 0 0 0 1 0 0 0 0 1 0 0 0 0 1 1 0 0 29.86883544921875 0 1 0 41.70450210571289 0 0 1 -24.6268367767334 0 0 0 1 1 0 0 0 0 1 0 41.70450210571289 0 0 1 -24.6268367767334 0 0 0 1 1 0 0 -29.566112518310547 0 1 0 41.70450210571289 0 0 1 -24.6268367767334 0 0 0 1</float_array>
                    <technique_common>
                        <accessor source="#MatArr2" count="5" stride="16">
                            <param type="float4x4" />
                        </accessor>
                    </technique_common>
                </source>
                <source id="weights2">
                    <float_array id="WeightArr2" count="1">1</float_array>
                    <technique_common>
                        <accessor source="#WeightArr2" count="1">
                            <param type="float" />
                        </accessor>
                    </technique_common>
                </source>
                <joints>
                    <input semantic="JOINT" source="#joints2" />
                    <input semantic="INV_BIND_MATRIX" source="#matrices2" />
                </joints>
                <vertex_weights count="8">
                    <input semantic="JOINT" offset="0" source="#joints2" />
                    <input semantic="WEIGHT" offset="1" source="#weights2" />
                    <vcount>1 1 1 1 1 1 1 1</vcount>
                    <v>1 0 1 0 1 0 1 0 1 0 1 0 1 0 1 0</v>
                </vertex_weights>
            </skin>
        </controller>
        <controller id="controller3">
            <skin source="#mesh3">
                <bind_shape_matrix>1 0 0 0 0 1 0 0 0 0 1 0 0 0 0 1</bind_shape_matrix>
                <source id="joints3">
                    <Name_array id="JointArr3" count="5">jointnode-1 jointnode0 jointnode1 jointnode2 jointnode3</Name_array>
                    <technique_common>
                        <accessor source="#JointArr3" count="5">
                            <param name="JOINT" type="Name" />
                        </accessor>
                    </technique_common>
                </source>
                <source id="matrices3">
                    <float_array id="MatArr3" count="80">1 0 0 0 0 1 0 0 0 0 1 0 0 0 0 1 1 0 0 0 0 1 0 0 0 0 1 0 0 0 0 1 1 0 0 29.86883544921875 0 1 0 41.70450210571289 0 0 1 -24.6268367767334 0 0 0 1 1 0 0 0 0 1 0 41.70450210571289 0 0 1 -24.6268367767334 0 0 0 1 1 0 0 -29.566112518310547 0 1 0 41.70450210571289 0 0 1 -24.6268367767334 0 0 0 1</float_array>
                    <technique_common>
                        <accessor source="#MatArr3" count="5" stride="16">
                            <param type="float4x4" />
                        </accessor>
                    </technique_common>
                </source>
                <source id="weights3">
                    <float_array id="WeightArr3" count="1">1</float_array>
                    <technique_common>
                        <accessor source="#WeightArr3" count="1">
                            <param type="float" />
                        </accessor>
                    </technique_common>
                </source>
                <joints>
                    <input semantic="JOINT" source="#joints3" />
                    <input semantic="INV_BIND_MATRIX" source="#matrices3" />
                </joints>
                <vertex_weights count="75">
                    <input semantic="JOINT" offset="0" source="#joints3" />
                    <input semantic="WEIGHT" offset="1" source="#weights3" />
                    <vcount>1 1 1 1 1 1 1 1 1 1 1 1 1 1 1 1 1 1 1 1 1 1 1 1 1 1 1 1 1 1 1 1 1 1 1 1 1 1 1 1 1 1 1 1 1 1 1 1 1 1 1 1 1 1 1 1 1 1 1 1 1 1 1 1 1 1 1 1 1 1 1 1 1 1 1</vcount>
                    <v>1 0 1 0 1 0 1 0 1 0 1 0 1 0 1 0 1 0 1 0 1 0 1 0 1 0 1 0 1 0 1 0 1 0 1 0 1 0 1 0 1 0 1 0 1 0 1 0 1 0 1 0 1 0 1 0 1 0 1 0 1 0 1 0 1 0 1 0 1 0 1 0 1 0 1 0 1 0 1 0 1 0 1 0 1 0 1 0 1 0 1 0 1 0 1 0 1 0 1 0 1 0 1 0 1 0 1 0 1 0 1 0 1 0 1 0 1 0 1 0 1 0 1 0 1 0 1 0 1 0 1 0 1 0 1 0 1 0 1 0 1 0 1 0 1 0 1 0 1 0</v>
                </vertex_weights>
            </skin>
        </controller>
    </library_controllers>
    <library_visual_scenes>
        <visual_scene id="VisualSceneNode">
            <node id="node0" name="m0" type="NODE">
                <instance_controller url="#controller0">
                    <skeleton>#jointnode-1</skeleton>
                    <bind_material>
                        <technique_common>
                            <instance_material symbol="Material1" target="#mat1">
                                <bind_vertex_input semantic="UVSET0" input_semantic="TEXCOORD" input_set="0"></bind_vertex_input>
                            </instance_material>
                        </technique_common>
                    </bind_material>
                </instance_controller>
            </node>
            <node id="node1" name="m1" type="NODE">
                <instance_controller url="#controller1">
                    <skeleton>#jointnode-1</skeleton>
                    <bind_material>
                        <technique_common>
                            <instance_material symbol="Material1" target="#mat2">
                                <bind_vertex_input semantic="UVSET0" input_semantic="TEXCOORD" input_set="0"></bind_vertex_input>
                            </instance_material>
                        </technique_common>
                    </bind_material>
                </instance_controller>
            </node>
            <node id="node2" name="m2" type="NODE">
                <instance_controller url="#controller2">
                    <skeleton>#jointnode-1</skeleton>
                    <bind_material>
                        <technique_common>
                            <instance_material symbol="Material1" target="#mat0">
                                <bind_vertex_input semantic="UVSET0" input_semantic="TEXCOORD" input_set="0"></bind_vertex_input>
                            </instance_material>
                        </technique_common>
                    </bind_material>
                </instance_controller>
            </node>
            <node id="node3" name="m3" type="NODE">
                <instance_controller url="#controller3">
                    <skeleton>#jointnode-1</skeleton>
                    <bind_material>
                        <technique_common>
                            <instance_material symbol="Material1" target="#mat3">
                                <bind_vertex_input semantic="UVSET0" input_semantic="TEXCOORD" input_set="0"></bind_vertex_input>
                            </instance_material>
                        </technique_common>
                    </bind_material>
                </instance_controller>
            </node>
            <node id="jointnode-1" name="root" sid="jointnode-1" type="JOINT">
                <node id="jointnode0" name="jg_signal" sid="jointnode0" type="JOINT">
                    <node id="jointnode1" name="left" sid="jointnode1" type="JOINT">
                        <translate>-29.86883544921875 -41.70450210571289 24.6268367767334</translate>
                    </node>
                    <node id="jointnode2" name="middle" sid="jointnode2" type="JOINT">
                        <translate>0 -41.70450210571289 24.6268367767334</translate>
                    </node>
                    <node id="jointnode3" name="right" sid="jointnode3" type="JOINT">
                        <translate>29.566112518310547 -41.70450210571289 24.6268367767334</translate>
                    </node>
                </node>
            </node>
        </visual_scene>
    </library_visual_scenes>
    <scene>
        <instance_visual_scene url="#VisualSceneNode"></instance_visual_scene>
    </scene>
</COLLADA>
