<?xml version="1.0"?>
<COLLADA xmlns="http://www.collada.org/2005/11/COLLADASchema" version="1.4.1">
    <asset>
        <contributor>
            <authoring_tool>J3D Ripoff Exporter</authoring_tool>
        </contributor>
        <created>2024-10-08T03:49:13.142Z</created>
        <modified>2024-10-08T03:49:13.142Z</modified>
		<unit meter="0.01" name="centimeter" ></unit>
        <up_axis>Y_UP</up_axis>
    </asset>
    <library_images>
        <image id="tex0">
            <init_from>jugem_rod_tx.png</init_from>
        </image>
    </library_images>
    <library_effects>
        <effect id="effect0">
            <profile_COMMON>
                <newparam sid="surface0">
                    <surface type="2D">
                        <init_from>tex0</init_from>
                    </surface>
                </newparam>
                <newparam sid="sampler0">
                    <sampler2D>
                        <source>surface0</source>
                    </sampler2D>
                </newparam>
                <technique sid="COMMON">
                    <blinn>
                        <diffuse>
                            <texture texture="sampler0" texcoord="UVSET0"></texture>
                        </diffuse>
                    </blinn>
                </technique>
            </profile_COMMON>
        </effect>
    </library_effects>
    <library_materials>
        <material id="mat0" name="jg_rod_02_jugem_rod">
            <instance_effect url="#effect0"></instance_effect>
        </material>
    </library_materials>
    <library_geometries>
        <geometry id="mesh0">
            <mesh>
                <source id="points0">
                    <float_array id="pointarray0" count="120">0.0067726257399642765 -0.6984840035438538 141.27778609254852 -0.7529752994313774 0.598778009414673 141.40456964511336 0.7665336991003276 0.5984200239181517 141.4041382207966 1.077294945716858 0.7444109916687012 131.60997009277344 0 -0.8473089933395386 130.16879272460938 0 -1.390599012374878 109.62289428710938 -1.0772939920425415 0.747393012046814 131.61595153808594 -1.394834041595459 1.2906789779663086 111.20475769042969 1.3948349952697754 1.286823034286499 111.19844055175781 0 -1.6441709995269775 77.84068298339844 -1.712373971939087 1.5442500114440918 78.13285064697266 0.0022636947078442083 -1.8079169988632202 47.22094339666882 -2.0276502054252816 1.707996964454651 47.221036892720186 -0.00007890755189605618 -2.043627977371216 -1.6460210066001666 -2.3021719339289075 1.9437090158462527 -1.6459106480298813 2.30201507254515 1.9437010288238523 -1.646130411541854 2.032178786568124 1.7079910039901731 47.22084227116579 1.789888171599141 -226.6098027217549 139.99542365939936 -0.04659302372285252 -222.89822626563782 141.785742825399 1.7896332329817906 -215.84989386398152 134.4684890041321 -0.04676654755821013 -215.23126881864928 137.9574411376064 1.7898257610837953 -199.724298866789 138.69353281588639 -0.04658464685466058 -200.1361962465138 141.75191165356182 1.7897450012762424 -192.4073314261648 136.6134850386384 -0.04669301803903455 -191.05691455828494 139.3035283686549 -1.8832358991161933 -226.6098027217549 139.99559974295303 -1.8835107456848759 -215.84989386398152 134.4686650886401 -1.8832892497255436 -199.724298866789 138.69370889900574 -1.883398023236118 -192.40731235219846 136.61367113576665 1.7123750448226929 1.5431280136108398 78.13168334960938 -0.045979555681835586 -211.15480204303614 154.37418616913243 1.7904770860275643 -224.09406945629127 152.28024934445418 -1.8826568795159673 -224.09406945674843 152.280415891739 -0.04621011335466476 -221.10604190057362 149.77329908001386 0.006221261886361642 -199.99965733871252 140.3940705291979 -0.35096838873551156 -199.99968699386346 139.77547764273382 0.0062208022698096175 0.000018431485913439517 140.3844828722278 -0.3509688483520636 -0.000011223665011138686 139.76588998576375 0.3633435976053494 -199.99968699386346 139.7754433997868 0.36334313798879736 -0.000011223665011226165 139.76585574281674</float_array>
                    <technique_common>
                        <accessor count="40" source="#pointarray0" stride="3">
                            <param name="X" type="float"/>
                            <param name="Y" type="float"/>
                            <param name="Z" type="float"/>
                        </accessor>
                    </technique_common>
                </source>
                <source id="uvs0">
                    <float_array id="uvarray0" count="108">0.62109375 0.984375 0.5859375 0.984375 0.65625 0.984375 0.66796875 0.95703125 0.62109375 0.95703125 0.62109375 0.92578125 0.578125 0.95703125 0.5703125 0.92578125 0.67578125 0.92578125 0.62109375 0.89453125 0.55859375 0.89453125 0.62109375 0.86328125 0.55078125 0.86328125 0.62109375 0.765625 0.51171875 0.765625 0.73046875 0.765625 0.6953125 0.86328125 0.0234375 0.30859375 0.01953125 0.50390625 0.1640625 0.30859375 0.1640625 0.50390625 0.22265625 0.30859375 0.1953125 0.5 0.33984375 0.3984375 0.34765625 0.5 0.0234375 0.6953125 0.1640625 0.6953125 0.22265625 0.6953125 0.33984375 0.60546875 0.68359375 0.89453125 0.40625 0.16796875 0.65625 0.16796875 0.40625 0.3515625 0.65625 0.3515625 0.40625 0.47265625 0.65625 0.47265625 0.68359375 0.50390625 0.94140625 0.3203125 0.94140625 0.68359375 0.98046875 0.68359375 0.79296875 0.50390625 0.9765625 0.3203125 0.98046875 0.5 0.83984375 0.83203125 0.7734375 0.83203125 0.83984375 0.8984375 0.7734375 0.8984375 0.90625 0.83203125 0.90625 0.8984375 0.96875 0.83203125 0.96875 0.8984375 0.65625 0.05078125 0.40625 0.05078125 0.53125 0.5078125</float_array>
                    <technique_common>
                        <accessor count="54" source="#uvarray0" stride="2">
                            <param name="S" type="float"/>
                            <param name="T" type="float"/>
                        </accessor>
                    </technique_common>
                </source>
                <vertices id="vertices0">
                    <input semantic="POSITION" source="#points0"/>
                </vertices>
                <polylist count="66" material="Material1">
                    <input offset="0" semantic="VERTEX" source="#vertices0"/>
                    <input offset="1" semantic="TEXCOORD" source="#uvs0" set="0"/>
                    <vcount>3 3 3 3 3 3 3 3 3 3 3 3 3 3 3 3 3 3 3 3 3 3 3 3 3 3 3 3 3 3 3 3 3 3 3 3 3 3 3 3 3 3 3 3 3 3 3 3 3 3 3 3 3 3 3 3 3 3 3 3 3 3 3 3 3 3</vcount>
                    <p>2 2 1 1 0 0 3 3 1 1 2 2 4 4 3 3 2 2 5 5 3 3 4 4 6 6 5 5 4 4 7 7 5 5 6 6 3 3 7 7 6 6 8 8 7 7 3 3 5 5 8 8 3 3 9 9 8 8 5 5 10 10 9 9 5 5 11 11 9 9 10 10 12 12 11 11 10 10 13 13 11 11 12 12 14 14 13 13 12 12 15 15 13 13 14 14 16 16 15 15 14 14 11 11 15 15 16 16 9 9 11 11 16 16 19 19 18 18 17 17 20 20 18 18 19 19 21 21 20 20 19 19 22 22 20 20 21 21 23 23 22 22 21 21 24 24 22 22 23 23 20 20 25 25 18 18 26 26 25 25 20 20 22 22 26 26 20 20 27 27 26 26 22 22 24 24 27 27 22 22 28 28 27 27 24 24 12 12 16 16 14 14 29 29 16 16 12 12 10 10 29 29 12 12 8 8 29 29 10 10 7 7 8 8 10 10 27 32 19 31 26 30 21 33 19 31 27 32 28 34 21 33 27 32 23 35 21 33 28 34 0 0 4 4 2 2 6 6 4 4 0 0 1 1 6 6 0 0 3 3 6 6 1 1 32 38 31 37 30 36 25 39 31 37 32 38 31 37 33 40 30 36 17 41 33 40 31 37 33 40 32 38 30 36 18 42 32 38 33 40 36 45 35 44 34 43 37 46 35 44 36 45 39 48 34 43 38 47 36 45 34 43 39 48 37 50 38 47 35 49 39 48 38 47 37 50 29 29 9 9 16 16 8 8 9 9 29 29 17 51 26 30 19 31 25 52 26 30 17 51 10 10 5 5 7 7 15 15 11 11 13 13 18 42 25 39 32 38 25 39 17 41 31 37 17 41 18 42 33 40 24 53 23 35 28 34</p>
                </polylist>
            </mesh>
        </geometry>
    </library_geometries>
    <library_controllers>
        <controller id="controller0">
            <skin source="#mesh0">
                <bind_shape_matrix>1 0 0 0 0 1 0 0 0 0 1 0 0 0 0 1</bind_shape_matrix>
                <source id="joints0">
                    <Name_array id="JointArr0" count="6">jointnode-1 jointnode0 jointnode1 jointnode2 jointnode3 jointnode4</Name_array>
                    <technique_common>
                        <accessor source="#JointArr0" count="6">
                            <param name="JOINT" type="Name" />
                        </accessor>
                    </technique_common>
                </source>
                <source id="matrices0">
                    <float_array id="MatArr0" count="96">1 0 0 0 0 1 0 0 0 0 1 0 0 0 0 1 0.00004793836256600237 3.8225195497779474e-33 0.9999999988509567 0 -1.224646797740181e-16 -1 5.870756227269684e-21 0 0.9999999988509567 -1.224646799147353e-16 -0.00004793836256600237 0 0 0 0 1 0.00004793836256600237 3.8225195497779474e-33 0.9999999988509567 -60 -1.224646797740181e-16 -1 5.870756227269684e-21 -9.62964972193618e-35 0.9999999988509567 -1.224646799147353e-16 -0.00004793836256600237 0 0 0 0 1 2.298086483044818e-9 -0.9999999988509567 0.00004793836251091912 -0.0067113707592403316 -0.00004793836251091912 -0.00004793836256600236 -0.9999999977019134 139.99999983913395 0.9999999988509567 -1.224646794682525e-16 -0.00004793836256600236 -1.734723475976807e-18 0 0 0 1 2.298086483044818e-9 -0.9999999988509567 0.00004793836251091912 -200.00671137075926 -0.00004793836251091912 -0.00004793836256600236 -0.9999999977019134 139.99999983913395 0.9999999988509567 -1.224646794682525e-16 -0.00004793836256600236 -8.673617379884035e-19 0 0 0 1 0.9999999977020237 -0.00004793836251105779 -0.00004793606442432064 -0.010661296116890916 0.00004793376628275524 0.9999999942547837 -0.00009587902294320755 222.40279494520533 0.00004794066043227224 0.00009587672496675498 0.9999999942546735 -143.46843431398716 0 0 0 1</float_array>
                    <technique_common>
                        <accessor source="#MatArr0" count="6" stride="16">
                            <param type="float4x4" />
                        </accessor>
                    </technique_common>
                </source>
                <source id="weights0">
                    <float_array id="WeightArr0" count="4">1 0.5 0.25 0.75</float_array>
                    <technique_common>
                        <accessor source="#WeightArr0" count="1">
                            <param type="float" />
                        </accessor>
                    </technique_common>
                </source>
                <joints>
                    <input semantic="JOINT" source="#joints0" />
                    <input semantic="INV_BIND_MATRIX" source="#matrices0" />
                </joints>
                <vertex_weights count="40">
                    <input semantic="JOINT" offset="0" source="#joints0" />
                    <input semantic="WEIGHT" offset="1" source="#weights0" />
                    <vcount>1 1 1 2 2 2 2 2 2 2 2 1 1 1 1 1 1 1 1 1 1 1 1 1 1 1 1 1 1 2 1 1 1 1 1 1 1 1 1 1</vcount>
                    <v>2 0 2 0 2 0 1 2 2 3 1 2 2 3 1 1 2 1 1 2 2 3 1 1 2 1 1 1 2 1 1 3 2 2 1 3 2 2 1 0 1 0 1 0 1 0 1 0 1 0 4 0 4 0 4 0 4 0 4 0 4 0 4 0 4 0 4 0 4 0 4 0 4 0 1 3 2 2 4 0 4 0 4 0 4 0 4 0 4 0 3 0 3 0 4 0 3 0</v>
                </vertex_weights>
            </skin>
        </controller>
    </library_controllers>
    <library_visual_scenes>
        <visual_scene id="VisualSceneNode">
            <node id="node0" name="m0" type="NODE">
                <instance_controller url="#controller0">
                    <skeleton>#jointnode-1</skeleton>
                    <bind_material>
                        <technique_common>
                            <instance_material symbol="Material1" target="#mat0">
                                <bind_vertex_input semantic="UVSET0" input_semantic="TEXCOORD" input_set="0"></bind_vertex_input>
                            </instance_material>
                        </technique_common>
                    </bind_material>
                </instance_controller>
            </node>
            <node id="jointnode-1" name="root" sid="jointnode-1" type="JOINT">
                <node id="jointnode0" name="rod_1" sid="jointnode0" type="JOINT">
                    <rotate>0 1 0 -89.99725333414716</rotate>
                    <rotate>1 0 0 180</rotate>
                    <node id="jointnode1" name="rod_2" sid="jointnode1" type="JOINT">
                        <translate>60 0 0</translate>
                        <node id="jointnode2" name="line" sid="jointnode2" type="JOINT">
                            <translate>80 0 0</translate>
                            <rotate>0 0 1 89.99725333414716</rotate>
                            <node id="jointnode3" name="hook_1" sid="jointnode3" type="JOINT">
                                <translate>200 0 0</translate>
                                <node id="jointnode4" name="ef_hook" sid="jointnode4" type="JOINT">
                                    <translate>22.389205932617188 -3.479095935821533 0</translate>
                                    <rotate>0 1 0 -89.99725333414716</rotate>
                                    <rotate>1 0 0 89.99725333414716</rotate>
                                </node>
                            </node>
                        </node>
                    </node>
                </node>
            </node>
        </visual_scene>
    </library_visual_scenes>
    <scene>
        <instance_visual_scene url="#VisualSceneNode"></instance_visual_scene>
    </scene>
</COLLADA>
