<?xml version="1.0" encoding="utf-8"?>
<COLLADA version="1.5.0" xmlns="http://www.collada.org/2008/03/COLLADASchema">
	<asset>
		<contributor>
			<authoring_tool>BrawlBox</authoring_tool>
		</contributor>
		<created>2019-11-28T16:35:56Z</created>
		<modified>2019-11-28T16:35:56Z</modified>
		<unit meter="0.01" name="centimeter" />
		<up_axis>Y_UP</up_axis>
	</asset>
	<library_images>
		<image id="th_karehayama-image" name="th_karehayama">
			<init_from>
				<ref>th_karehayama.png</ref>
			</init_from>
		</image>
	</library_images>
	<library_materials>
		<material id="karehayama_m">
			<instance_effect url="#karehayama_m-fx" />
		</material>
	</library_materials>
	<library_effects>
		<effect id="karehayama_m-fx" name="karehayama_m">
			<profile_COMMON>
				<newparam sid="th_karehayama-surface">
					<surface type="2D">
						<init_from>
							<ref>th_karehayama-image</ref>
						</init_from>
					</surface>
				</newparam>
				<newparam sid="th_karehayama-sampler">
					<sampler2D>
						<source>th_karehayama-surface</source>
						<instance_image url="#th_karehayama-image" />
						<wrap_s>MIRROR</wrap_s>
						<wrap_t>MIRROR</wrap_t>
						<minfilter>LINEAR</minfilter>
						<magfilter>LINEAR</magfilter>
					</sampler2D>
				</newparam>
				<technique sid="COMMON">
					<phong>
						<diffuse>
							<texture texture="th_karehayama-sampler" texcoord="TEXCOORD0" />
						</diffuse>
					</phong>
				</technique>
			</profile_COMMON>
		</effect>
	</library_effects>
	<library_geometries>
		<geometry id="polygon0" name="polygon0">
			<mesh>
				<source id="polygon0_Positions">
					<float_array id="polygon0_PosArr" count="156">161.738 97.28858 -93.37945 80.869 150.4139 -46.68972 3.3E-05 97.28858 -186.759 9E-06 150.4139 -93.37949 -161.738 97.28858 -93.37953 -80.86902 150.4139 -46.68977 -161.738 97.28858 93.37945 -80.86902 150.4139 46.68972 -3.5E-05 97.28858 186.759 -1.8E-05 150.4139 93.37949 161.738 97.28858 93.37952 80.86902 150.4139 46.68976 213.5219 43.38449 -123.2766 4.5E-05 100.9813 -168.1067 6.6E-05 43.38449 -246.5533 -145.5846 100.9813 -84.05333 -213.5219 43.38449 -123.2766 -145.5846 100.9813 84.05333 -213.5219 43.38449 123.2766 -2.5E-05 100.9813 168.1067 -3.7E-05 43.38449 246.5533 145.5846 100.9813 84.05333 213.5219 43.38449 123.2766 145.5846 100.9813 -84.05333 259.479 -24.6986 -149.8103 3.3E-05 62.3436 -181.7257 8.2E-05 -24.6986 -299.6203 -157.3789 62.3436 -90.86288 -259.479 -24.6986 -149.8102 -157.3789 62.3436 90.86285 -259.479 -24.6986 149.8102 -2.1E-05 62.3436 181.7257 -3.5E-05 -24.6986 299.6205 157.3789 62.3436 90.86287 259.479 -24.6986 149.8102 157.3789 62.3436 -90.86285 311.3267 -99.66257 -179.7447 6.3E-05 -13.78684 -227.9232 0.0001 -99.66257 -359.4895 -197.3869 -13.78684 -113.9616 -311.3266 -99.66257 -179.7449 -197.3869 -13.78684 113.9616 -311.3267 -99.66257 179.7447 -3.2E-05 -13.78684 227.9232 -5E-05 -99.66257 359.4895 197.3869 -13.78684 113.9616 311.3267 -99.66257 179.7448 197.3869 -13.78684 -113.9616 -1.4E-05 175.6232 7E-06 -4E-06 160.0863 1.2E-05 -1E-05 156.1819 1E-05 -3E-06 119.532 1.2E-05</float_array>
					<technique_common>
						<accessor source="#polygon0_PosArr" count="52" stride="3">
							<param name="X" type="float" />
							<param name="Y" type="float" />
							<param name="Z" type="float" />
						</accessor>
					</technique_common>
				</source>
				<source id="polygon0_UVs0">
					<float_array id="polygon0_UVArr0" count="104">1.504272 2.710327 1.252075 2.87561 1.504272 3.292358 1.252075 3.127075 0.9998779 3.504517 0.9998779 3.25293 0.4956055 3.292358 0.7478027 3.127075 0.4956055 2.710327 0.7478027 2.87561 0.9998779 2.498169 0.9998779 2.749756 0.4974365 3.268555 0.002441406 3.315308 0.002441406 3.500977 -0.3088379 3.169189 -0.4926758 3.268555 -0.3088379 2.832764 -0.4926758 2.733398 0.002441406 2.686646 0.002441406 2.500977 0.3135986 2.832764 0.4974365 2.733398 0.3135986 3.169189 0.4926758 1.708618 0.2023926 2.109009 0.4926758 2.263916 -0.003540039 2.206787 -0.003540039 2.499146 -0.2094727 2.109009 -0.4997559 2.263916 -0.2094727 1.889282 -0.4997559 1.734497 -0.003540039 1.791626 -0.003540039 1.499146 0.2023926 1.889282 1.503418 2.286255 1.002686 2.213867 1.002686 2.5 0.7885742 2.122437 0.5020752 2.286255 0.7885742 1.877563 0.5020752 1.713745 1.002686 1.786133 1.002686 1.5 1.216919 1.877563 1.503418 1.713745 1.216919 2.122437 0.9998779 3.001343 0.002441406 3.000977 -0.003540039 1.999146 1.002686 2</float_array>
					<technique_common>
						<accessor source="#polygon0_UVArr0" count="52" stride="2">
							<param name="S" type="float" />
							<param name="T" type="float" />
						</accessor>
					</technique_common>
				</source>
				<vertices id="polygon0_Vertices">
					<input semantic="POSITION" source="#polygon0_Positions" />
				</vertices>
				<triangles material="karehayama_m" count="72">
					<input semantic="VERTEX" source="#polygon0_Vertices" offset="0" />
					<input semantic="TEXCOORD" source="#polygon0_UVs0" set="0" offset="1" />
					<p>2 2 1 1 0 0 3 3 1 1 2 2 4 4 3 3 2 2 5 5 3 3 4 4 6 6 5 5 4 4 7 7 5 5 6 6 8 8 7 7 6 6 9 9 7 7 8 8 10 10 9 9 8 8 11 11 9 9 10 10 0 0 11 11 10 10 1 1 11 11 0 0 14 14 13 13 12 12 15 15 13 13 14 14 16 16 15 15 14 14 17 17 15 15 16 16 18 18 17 17 16 16 19 19 17 17 18 18 20 20 19 19 18 18 21 21 19 19 20 20 22 22 21 21 20 20 23 23 21 21 22 22 12 12 23 23 22 22 13 13 23 23 12 12 26 26 25 25 24 24 27 27 25 25 26 26 28 28 27 27 26 26 29 29 27 27 28 28 30 30 29 29 28 28 31 31 29 29 30 30 32 32 31 31 30 30 33 33 31 31 32 32 34 34 33 33 32 32 35 35 33 33 34 34 24 24 35 35 34 34 25 25 35 35 24 24 38 38 37 37 36 36 39 39 37 37 38 38 40 40 39 39 38 38 41 41 39 39 40 40 42 42 41 41 40 40 43 43 41 41 42 42 44 44 43 43 42 42 45 45 43 43 44 44 46 46 45 45 44 44 47 47 45 45 46 46 36 36 47 47 46 46 37 37 47 47 36 36 48 48 1 1 3 3 11 11 1 1 48 48 9 9 11 11 48 48 48 48 7 7 9 9 5 5 7 7 48 48 3 3 5 5 48 48 49 49 15 15 17 17 13 13 15 15 49 49 23 23 13 13 49 49 50 50 33 33 35 35 31 31 33 33 50 50 29 29 31 31 50 50 50 50 27 27 29 29 25 25 27 27 50 50 35 35 25 25 50 50 51 51 43 43 45 45 41 41 43 43 51 51 39 39 41 41 51 51 51 51 37 37 39 39 47 47 37 37 51 51 45 45 47 47 51 51 19 19 49 49 17 17 21 21 49 49 19 19 21 21 23 23 49 49</p>
				</triangles>
			</mesh>
		</geometry>
	</library_geometries>
	<library_controllers>
		<controller id="polygon0_Controller">
			<skin source="#polygon0">
				<bind_shape_matrix>1 0 0 0 0 1 0 0 0 0 1 0 0 0 0 1</bind_shape_matrix>
				<source id="polygon0_Joints">
					<Name_array id="polygon0_JointArr" count="1">karehayama</Name_array>
					<technique_common>
						<accessor source="#polygon0_JointArr" count="1">
							<param name="JOINT" type="Name" />
						</accessor>
					</technique_common>
				</source>
				<source id="polygon0_Matrices">
					<float_array id="polygon0_MatArr" count="16">1 0 0 0 0 1 0 0 0 0 1 0 0 0 0 1</float_array>
					<technique_common>
						<accessor source="#polygon0_MatArr" count="1" stride="16">
							<param type="float4x4" />
						</accessor>
					</technique_common>
				</source>
				<source id="polygon0_Weights">
					<float_array id="polygon0_WeightArr" count="1">1</float_array>
					<technique_common>
						<accessor source="#polygon0_WeightArr" count="1">
							<param type="float" />
						</accessor>
					</technique_common>
				</source>
				<joints>
					<input semantic="JOINT" source="#polygon0_Joints" />
					<input semantic="INV_BIND_MATRIX" source="#polygon0_Matrices" />
				</joints>
				<vertex_weights count="52">
					<input semantic="JOINT" offset="0" source="#polygon0_Joints" />
					<input semantic="WEIGHT" offset="1" source="#polygon0_Weights" />
					<vcount>1 1 1 1 1 1 1 1 1 1 1 1 1 1 1 1 1 1 1 1 1 1 1 1 1 1 1 1 1 1 1 1 1 1 1 1 1 1 1 1 1 1 1 1 1 1 1 1 1 1 1 1</vcount>
					<v>0 0 0 0 0 0 0 0 0 0 0 0 0 0 0 0 0 0 0 0 0 0 0 0 0 0 0 0 0 0 0 0 0 0 0 0 0 0 0 0 0 0 0 0 0 0 0 0 0 0 0 0 0 0 0 0 0 0 0 0 0 0 0 0 0 0 0 0 0 0 0 0 0 0 0 0 0 0 0 0 0 0 0 0 0 0 0 0 0 0 0 0 0 0 0 0 0 0 0 0 0 0 0 0</v>
				</vertex_weights>
			</skin>
		</controller>
	</library_controllers>
	<library_visual_scenes>
		<visual_scene id="RootNode" name="RootNode">
			<node id="karehayama" name="karehayama" sid="karehayama" type="JOINT" />
			<node id="polygon0" name="polygon0" type="NODE">
				<instance_controller url="#polygon0_Controller">
					<skeleton>#karehayama</skeleton>
					<bind_material>
						<technique_common>
							<instance_material symbol="karehayama_m" target="#karehayama_m">
								<bind_vertex_input semantic="TEXCOORD0" input_semantic="TEXCOORD" input_set="0" />
							</instance_material>
						</technique_common>
					</bind_material>
				</instance_controller>
			</node>
		</visual_scene>
	</library_visual_scenes>
	<scene>
		<instance_visual_scene url="#RootNode" />
	</scene>
</COLLADA>