<?xml version="1.0"?>
<COLLADA xmlns="http://www.collada.org/2005/11/COLLADASchema" version="1.4.1">
    <asset>
        <contributor>
            <authoring_tool>CINEMA4D 15.064 COLLADA Exporter</authoring_tool>
        </contributor>
        <created>2020-06-14T00:07:08Z</created>
        <modified>2020-06-14T00:07:08Z</modified>
        <unit meter="0.01" name="centimeter"/>
        <up_axis>Y_UP</up_axis>
    </asset>
    <library_images>
        <image id="ID5">
            <init_from>mk_itembox64.png</init_from>
        </image>
    </library_images>
    <library_effects>
        <effect id="ID4">
            <profile_COMMON>
                <newparam sid="ID6">
                    <surface type="2D">
                        <init_from>ID5</init_from>
                    </surface>
                </newparam>
                <newparam sid="ID7">
                    <sampler2D>
                        <source>ID6</source>
                    </sampler2D>
                </newparam>
                <technique sid="COMMON">
                    <blinn>
                        <diffuse>
                            <texture texture="ID7" texcoord="UVSET0"/>
                        </diffuse>
                    </blinn>
                </technique>
            </profile_COMMON>
        </effect>
    </library_effects>
    <library_materials>
        <material id="ID3" name="m0">
            <instance_effect url="#ID4"/>
        </material>
    </library_materials>
    <library_geometries>
        <geometry id="ID10">
            <mesh>
                <source id="ID11">
                    <float_array id="ID12" count="264">-67.2 16.8 84 -67.2 16.8 84 -84 16.8 67.2 -84 16.8 67.2 -67.2 4e-006 67.2 67.2 4e-006 67.2 84 16.8 67.2 84 16.8 67.2 67.2 16.8 84 67.2 16.8 84 67.2 151.2 84 67.2 151.2 84 84 151.2 67.2 84 151.2 67.2 67.2 168 67.2 67.2 168 67.2 -67.2 168 67.2 -67.2 168 67.2 -84 151.2 67.2 -84 151.2 67.2 -67.2 151.2 84 -67.2 151.2 84 67.2 168 -67.2 67.2 168 -67.2 84 151.2 -67.2 84 151.2 -67.2 67.2 151.2 -84 67.2 151.2 -84 -67.2 151.2 -84 -67.2 151.2 -84 -84 151.2 -67.2 -84 151.2 -67.2 -67.2 168 -67.2 -67.2 168 -67.2 67.2 16.8 -84 67.2 16.8 -84 84 16.8 -67.2 84 16.8 -67.2 67.2 4e-006 -67.2 -67.2 4e-006 -67.2 -84 16.8 -67.2 -84 16.8 -67.2 -67.2 16.8 -84 -67.2 16.8 -84 -67.2 -151.2 84 -67.2 -151.2 84 -84 -151.2 67.2 -84 -151.2 67.2 -67.2 -168 67.2 -67.2 -168 67.2 67.2 -168 67.2 67.2 -168 67.2 84 -151.2 67.2 84 -151.2 67.2 67.2 -151.2 84 67.2 -151.2 84 67.2 -16.8 84 67.2 -16.8 84 84 -16.8 67.2 84 -16.8 67.2 67.2 -4e-006 67.2 -67.2 -4e-006 67.2 -84 -16.8 67.2 -84 -16.8 67.2 -67.2 -16.8 84 -67.2 -16.8 84 67.2 -4e-006 -67.2 84 -16.8 -67.2 84 -16.8 -67.2 67.2 -16.8 -84 67.2 -16.8 -84 -67.2 -16.8 -84 -67.2 -16.8 -84 -84 -16.8 -67.2 -84 -16.8 -67.2 -67.2 -4e-006 -67.2 67.2 -151.2 -84 67.2 -151.2 -84 84 -151.2 -67.2 84 -151.2 -67.2 67.2 -168 -67.2 67.2 -168 -67.2 -67.2 -168 -67.2 -67.2 -168 -67.2 -84 -151.2 -67.2 -84 -151.2 -67.2 -67.2 -151.2 -84 -67.2 -151.2 -84</float_array>
                    <technique_common>
                        <accessor count="88" source="#ID12" stride="3">
                            <param name="X" type="float"/>
                            <param name="Y" type="float"/>
                            <param name="Z" type="float"/>
                        </accessor>
                    </technique_common>
                </source>
                <source id="ID13">
                    <float_array id="ID14" count="162">-0.554519 -0.751402 0.357637 -0.357637 -0.554519 0.751402 0.357637 -0.751402 0.554519 0.554519 -0.357637 0.751402 -0.751402 -0.357637 0.554519 -0.751402 -0.554519 -0.357636 -0.357637 -0.751402 -0.554519 -0.554519 0.357636 0.751402 -0.751402 0.554519 0.357637 -1 -0 0 1 0 -0 -0 -1 0 0 0 -1 -0 -0 1 0.554519 -0.751402 -0.357637 0.357637 -0.554519 -0.751402 -0.357637 -0.751402 -0.554519 -0.554519 -0.357636 -0.751402 -0.357637 0.554519 -0.751402 -0.751402 0.357637 -0.554519 -0.751402 -0.554519 -0.357637 0.554519 0.357637 -0.751402 0.357637 0.751402 -0.554519 -0.554519 0.751402 -0.357636 0.751402 0.554519 -0.357637 0.751402 -0.357637 -0.554519 -0.357637 0.751402 0.554519 -0.751402 0.554519 0.357637 0.554519 0.751402 0.357636 0.357637 0.554519 0.751402 -0.554519 0.357637 0.751402 0.751402 0.357637 0.554519 0.751402 -0.554519 0.357636 0.554519 -0.357637 0.751402 0.357637 -0.751402 0.554519 -0.554519 -0.751402 0.357637 -0.357637 -0.554519 0.751402 -0.751402 -0.357637 0.554519 -0 1 -0 0.751402 -0.554519 0.357636 0.554519 -0.751402 -0.357637 0.751402 -0.357637 -0.554519 0.751402 0.357636 0.554519 0.357637 0.554519 0.751402 0.554519 0.751402 0.357637 0.751402 0.554519 -0.357637 0.357637 0.751402 -0.554519 -0.357637 0.751402 0.554519 -0.554519 0.751402 -0.357637 -0.751402 0.357637 -0.554519 0.554519 0.357636 -0.751402 0.357637 -0.554519 -0.751402 -0.357637 0.554519 -0.751402 -0.554519 -0.357637 -0.751402</float_array>
                    <technique_common>
                        <accessor count="54" source="#ID14" stride="3">
                            <param name="X" type="float"/>
                            <param name="Y" type="float"/>
                            <param name="Z" type="float"/>
                        </accessor>
                    </technique_common>
                </source>
                <source id="ID15">
                    <float_array id="ID16" count="50">0.474976 0.525024 0.496826 0.496857 0.496826 0.00317383 0.00314331 0.496857 0.00314331 0.00317383 0.993011 0.993042 0.993011 0.506989 0.506958 0.993042 0.506958 0.506989 0.494904 0.00509644 0.00506592 0.00509644 0.494904 0.494934 0.00506592 0.494934 0.00631714 0.506348 0.00631714 0.993683 0.493652 0.506348 0.493652 0.993683 0.494904 0.994934 0.494904 0.505096 0.00506592 0.994934 0.00506592 0.505096 0.50415 0.504181 0.50415 0.99585 0.995819 0.504181 0.995819 0.99585</float_array>
                    <technique_common>
                        <accessor count="25" source="#ID16" stride="2">
                            <param name="S" type="float"/>
                            <param name="T" type="float"/>
                        </accessor>
                    </technique_common>
                </source>
                <vertices id="ID17">
                    <input semantic="POSITION" source="#ID11"/>
                </vertices>
                <triangles count="84" material="Material1">
                    <input offset="0" semantic="VERTEX" source="#ID17"/>
                    <input offset="1" semantic="NORMAL" source="#ID13"/>
                    <input offset="2" semantic="TEXCOORD" source="#ID15" set="0"/>
                    <p>50 2 0 45 1 0 48 0 0 45 1 0 50 2 0 55 3 0 85 5 0 48 0 0 47 4 0 48 0 0 85 5 0 82 6 0 65 7 0 47 4 0 45 1 0 47 4 0 65 7 0 63 8 0 84 9 3 62 9 2 73 9 1 62 9 2 84 9 3 46 9 4 58 10 7 78 10 6 67 10 5 78 10 6 58 10 7 52 10 8 51 11 11 83 11 10 81 11 9 83 11 10 51 11 11 49 11 12 71 12 15 76 12 14 86 12 13 76 12 14 71 12 15 69 12 16 64 13 19 54 13 18 56 13 17 54 13 18 64 13 19 44 13 20 39 16 0 35 15 0 38 14 0 35 15 0 39 16 0 43 17 0 43 17 0 31 19 0 29 18 0 31 19 0 43 17 0 41 20 0 29 18 0 23 22 0 27 21 0 23 22 0 29 18 0 33 23 0 37 25 0 27 21 0 25 24 0 27 21 0 37 25 0 35 15 0 33 23 0 19 27 0 17 26 0 19 27 0 33 23 0 31 19 0 17 26 0 11 29 0 15 28 0 11 29 0 17 26 0 21 30 0 25 24 0 15 28 0 13 31 0 15 28 0 25 24 0 23 22 0 13 31 0 9 33 0 7 32 0 9 33 0 13 31 0 11 29 0 38 14 0 7 32 0 5 34 0 7 32 0 38 14 0 37 25 0 5 34 0 1 36 0 4 35 0 1 36 0 5 34 0 9 33 0 41 20 0 4 35 0 3 37 0 4 35 0 41 20 0 39 16 0 21 30 0 3 37 0 1 36 0 3 37 0 21 30 0 19 27 0 40 9 3 18 9 2 30 9 1 18 9 2 40 9 3 2 9 4 12 10 7 36 10 6 24 10 5 36 10 6 12 10 7 6 10 8 28 12 15 34 12 14 42 12 13 34 12 14 28 12 15 26 12 16 16 38 23 22 38 22 32 38 21 22 38 22 16 38 23 14 38 24 20 13 19 8 13 18 10 13 17 8 13 18 20 13 19 0 13 20 80 40 0 53 39 0 50 2 0 53 39 0 80 40 0 79 41 0 59 42 0 55 3 0 53 39 0 55 3 0 59 42 0 57 43 0 68 45 0 60 44 0 59 42 0 60 44 0 68 45 0 66 46 0 61 47 0 57 43 0 60 44 0 57 43 0 61 47 0 65 7 0 75 48 0 63 8 0 61 47 0 63 8 0 75 48 0 74 49 0 79 41 0 70 50 0 68 45 0 70 50 0 79 41 0 77 51 0 72 52 0 66 46 0 70 50 0 66 46 0 72 52 0 75 48 0 87 53 0 74 49 0 72 52 0 74 49 0 87 53 0 85 5 0 82 6 0 77 51 0 80 40 0 77 51 0 82 6 0 87 53 0 45 1 0 47 4 0 48 0 0 50 2 0 53 39 0 55 3 0 57 43 0 59 42 0 60 44 0 61 47 0 63 8 0 65 7 0 66 46 0 68 45 0 70 50 0 72 52 0 74 49 0 75 48 0 77 51 0 79 41 0 80 40 0 82 6 0 85 5 0 87 53 0 39 16 0 41 20 0 43 17 0 35 15 0 37 25 0 38 14 0 29 18 0 31 19 0 33 23 0 23 22 0 25 24 0 27 21 0 17 26 0 19 27 0 21 30 0 11 29 0 13 31 0 15 28 0 5 34 0 7 32 0 9 33 0 1 36 0 3 37 0 4 35 0</p>
                </triangles>
            </mesh>
        </geometry>
    </library_geometries>
    <library_visual_scenes>
        <visual_scene id="ID8">
            <node id="ID9" name="n0b0">
                <translate sid="translate">0 0 -0</translate>
                <rotate sid="rotateY">0 1 0 -0</rotate>
                <rotate sid="rotateX">1 0 0 0</rotate>
                <rotate sid="rotateZ">0 0 1 -0</rotate>
                <scale sid="scale">1 1 1</scale>
                <instance_geometry url="#ID10">
                    <bind_material>
                        <technique_common>
                            <instance_material symbol="Material1" target="#ID3">
                                <bind_vertex_input semantic="UVSET0" input_semantic="TEXCOORD" input_set="0"/>
                            </instance_material>
                        </technique_common>
                    </bind_material>
                </instance_geometry>
            </node>
        </visual_scene>
    </library_visual_scenes>
    <scene>
        <instance_visual_scene url="#ID8"/>
    </scene>
</COLLADA>
