<?xml version="1.0"?>
<COLLADA xmlns="http://www.collada.org/2005/11/COLLADASchema" version="1.4.1">
    <asset>
        <contributor>
            <authoring_tool>J3D Ripoff Exporter</authoring_tool>
        </contributor>
        <created>2024-10-08T04:41:44.863Z</created>
        <modified>2024-10-08T04:41:44.863Z</modified>
		<unit meter="0.01" name="centimeter" ></unit>
        <up_axis>Y_UP</up_axis>
    </asset>
    <library_images>
        <image id="tex0">
            <init_from>mk_mizutama1.png</init_from>
        </image>
        <image id="tex1">
            <init_from>mk_ind_checker3.png</init_from>
        </image>
        <image id="tex2">
            <init_from>mk_spectrum1.png</init_from>
        </image>
        <image id="tex3">
            <init_from>mk_bomb.png</init_from>
        </image>
    </library_images>
    <library_effects>
        <effect id="effect0">
            <profile_COMMON>
                <newparam sid="surface0">
                    <surface type="2D">
                        <init_from>tex2</init_from>
                    </surface>
                </newparam>
                <newparam sid="sampler0">
                    <sampler2D>
                        <source>surface0</source>
                    </sampler2D>
                </newparam>
                <technique sid="COMMON">
                    <blinn>
                        <diffuse>
                            <texture texture="sampler0" texcoord="UVSET0"></texture>
                        </diffuse>
                    </blinn>
                </technique>
            </profile_COMMON>
        </effect>
        <effect id="effect1">
            <profile_COMMON>
                <newparam sid="surface1">
                    <surface type="2D">
                        <init_from>tex0</init_from>
                    </surface>
                </newparam>
                <newparam sid="sampler1">
                    <sampler2D>
                        <source>surface1</source>
                    </sampler2D>
                </newparam>
                <technique sid="COMMON">
                    <blinn>
                        <diffuse>
                            <texture texture="sampler1" texcoord="UVSET0"></texture>
                        </diffuse>
                    </blinn>
                </technique>
            </profile_COMMON>
        </effect>
        <effect id="effect2">
            <profile_COMMON>
                <newparam sid="surface2">
                    <surface type="2D">
                        <init_from>tex3</init_from>
                    </surface>
                </newparam>
                <newparam sid="sampler2">
                    <sampler2D>
                        <source>surface2</source>
                    </sampler2D>
                </newparam>
                <technique sid="COMMON">
                    <blinn>
                        <diffuse>
                            <texture texture="sampler2" texcoord="UVSET0"></texture>
                        </diffuse>
                    </blinn>
                </technique>
            </profile_COMMON>
        </effect>
        <effect id="effect3">
            <profile_COMMON>
                <newparam sid="surface3">
                    <surface type="2D">
                        <init_from>tex3</init_from>
                    </surface>
                </newparam>
                <newparam sid="sampler3">
                    <sampler2D>
                        <source>surface3</source>
                    </sampler2D>
                </newparam>
                <technique sid="COMMON">
                    <blinn>
                        <diffuse>
                            <texture texture="sampler3" texcoord="UVSET0"></texture>
                        </diffuse>
                    </blinn>
                </technique>
            </profile_COMMON>
        </effect>
    </library_effects>
    <library_materials>
        <material id="mat0" name="mat_boxin">
            <instance_effect url="#effect0"></instance_effect>
        </material>
        <material id="mat1" name="mat_boxout">
            <instance_effect url="#effect1"></instance_effect>
        </material>
        <material id="mat2" name="mat_question">
            <instance_effect url="#effect2"></instance_effect>
        </material>
        <material id="mat3" name="mat_question(2)">
            <instance_effect url="#effect3"></instance_effect>
        </material>
    </library_materials>
    <library_geometries>
        <geometry id="mesh0">
            <mesh>
                <source id="points0">
                    <float_array id="pointarray0" count="144">-67.19999694824219 0.000003999999989900971 67.19999694824219 -67.19999694824219 16.80000114440918 83.99999237060547 67.19999694824219 0.000003999999989900971 67.19999694824219 67.19999694824219 16.80000114440918 83.99999237060547 -83.99999237060547 16.80000114440918 67.19999694824219 -83.99999237060547 16.80000114440918 -67.19999694824219 -67.19999694824219 0.000003999999989900971 -67.19999694824219 -67.19999694824219 151.1999969482422 83.99999237060547 -83.99999237060547 151.1999969482422 67.19999694824219 -83.99999237060547 151.1999969482422 -67.19999694824219 83.99999237060547 151.1999969482422 -67.19999694824219 83.99999237060547 16.80000114440918 -67.19999694824219 83.99999237060547 151.1999969482422 67.19999694824219 83.99999237060547 16.80000114440918 67.19999694824219 -67.19999694824219 16.80000114440918 -83.99999237060547 67.19999694824219 16.80000114440918 -83.99999237060547 -67.19999694824219 151.1999969482422 -83.99999237060547 67.19999694824219 151.1999969482422 -83.99999237060547 -67.19999694824219 167.99998474121094 -67.19999694824219 67.19999694824219 167.99998474121094 -67.19999694824219 -67.19999694824219 167.99998474121094 67.19999694824219 67.19999694824219 167.99998474121094 67.19999694824219 67.19999694824219 151.1999969482422 83.99999237060547 67.19999694824219 -167.99998474121094 -67.19999694824219 67.19999694824219 -151.1999969482422 -83.99999237060547 -67.19999694824219 -167.99998474121094 -67.19999694824219 -67.19999694824219 -151.1999969482422 -83.99999237060547 -67.19999694824219 -16.80000114440918 -83.99999237060547 -83.99999237060547 -16.80000114440918 -67.19999694824219 -83.99999237060547 -151.1999969482422 -67.19999694824219 67.19999694824219 -16.80000114440918 -83.99999237060547 67.19999694824219 -0.000003999999989900971 -67.19999694824219 -67.19999694824219 -0.000003999999989900971 -67.19999694824219 83.99999237060547 -16.80000114440918 -67.19999694824219 83.99999237060547 -151.1999969482422 -67.19999694824219 -67.19999694824219 -0.000003999999989900971 67.19999694824219 -83.99999237060547 -16.80000114440918 67.19999694824219 67.19999694824219 -0.000003999999989900971 67.19999694824219 67.19999694824219 -16.80000114440918 83.99999237060547 -67.19999694824219 -16.80000114440918 83.99999237060547 83.99999237060547 -16.80000114440918 67.19999694824219 83.99999237060547 -151.1999969482422 67.19999694824219 67.19999694824219 -151.1999969482422 83.99999237060547 67.19999694824219 -167.99998474121094 67.19999694824219 -67.19999694824219 -167.99998474121094 67.19999694824219 -67.19999694824219 -151.1999969482422 83.99999237060547 -83.99999237060547 -151.1999969482422 67.19999694824219 67.19999694824219 0.000003999999989900971 -67.19999694824219</float_array>
                    <technique_common>
                        <accessor count="48" source="#pointarray0" stride="3">
                            <param name="X" type="float"/>
                            <param name="Y" type="float"/>
                            <param name="Z" type="float"/>
                        </accessor>
                    </technique_common>
                </source>
                <source id="uvs0">
                    <float_array id="uvarray0" count="24">0.0999755859375 0.10003662109375 0.0999755859375 0 0.89996337890625 0.10003662109375 0.89996337890625 0 0 0.10003662109375 0 0.9000244140625 0.0999755859375 0.9000244140625 0.89996337890625 0.9000244140625 0.89996337890625 1 0.0999755859375 1 1 0.9000244140625 1 0.10003662109375</float_array>
                    <technique_common>
                        <accessor count="12" source="#uvarray0" stride="2">
                            <param name="S" type="float"/>
                            <param name="T" type="float"/>
                        </accessor>
                    </technique_common>
                </source>
                <vertices id="vertices0">
                    <input semantic="POSITION" source="#points0"/>
                </vertices>
                <polylist count="84" material="Material1">
                    <input offset="0" semantic="VERTEX" source="#vertices0"/>
                    <input offset="1" semantic="TEXCOORD" source="#uvs0" set="0"/>
                    <vcount>3 3 3 3 3 3 3 3 3 3 3 3 3 3 3 3 3 3 3 3 3 3 3 3 3 3 3 3 3 3 3 3 3 3 3 3 3 3 3 3 3 3 3 3 3 3 3 3 3 3 3 3 3 3 3 3 3 3 3 3 3 3 3 3 3 3 3 3 3 3 3 3 3 3 3 3 3 3 3 3 3 3 3 3</vcount>
                    <p>2 2 1 1 0 0 3 3 1 1 2 2 5 5 0 0 4 4 6 6 0 0 5 5 7 6 4 4 1 0 8 5 4 4 7 6 5 2 8 6 9 7 4 0 8 6 5 2 12 6 11 2 10 7 13 0 11 2 12 6 16 6 15 2 14 0 17 7 15 2 16 6 20 0 19 7 18 6 21 2 19 7 20 0 7 6 3 2 22 7 1 0 3 2 7 6 25 6 24 8 23 7 26 9 24 8 25 6 26 11 28 7 27 10 29 2 28 7 26 11 27 9 31 7 30 8 32 6 31 7 27 9 34 11 30 7 33 10 24 2 30 7 34 11 32 6 36 4 35 0 28 5 36 4 32 6 35 0 38 3 37 2 39 1 38 3 35 0 33 10 37 2 40 11 31 7 37 2 33 10 40 10 42 2 41 11 38 7 42 2 40 10 23 7 41 11 43 2 34 10 41 11 23 7 43 2 45 1 44 0 42 3 45 1 43 2 29 5 44 0 46 4 25 6 44 0 29 5 39 6 46 4 45 0 36 5 46 4 39 6 29 2 36 6 28 7 46 0 36 6 29 2 40 6 34 2 33 7 41 0 34 2 40 6 43 2 25 6 23 7 44 0 25 6 43 2 27 6 24 2 26 0 30 7 24 2 27 6 39 6 42 2 38 7 45 0 42 2 39 6 47 7 13 11 2 2 11 10 13 11 47 7 12 10 3 2 13 11 22 7 3 2 12 10 10 10 21 2 12 11 19 7 21 2 10 10 20 0 22 3 21 2 7 1 22 3 20 0 18 6 8 4 20 0 9 5 8 4 18 6 11 11 17 7 10 10 15 2 17 7 11 11 16 9 19 7 17 8 18 6 19 7 16 9 14 11 9 7 16 10 5 2 9 7 14 11 6 6 15 8 47 7 14 9 15 8 6 6 1 1 4 4 0 0 2 2 13 11 3 3 22 3 12 11 21 2 20 0 8 4 7 1 19 7 10 10 17 8 16 9 9 5 18 6 15 8 11 10 47 7 6 6 5 5 14 9 25 6 29 5 26 9 24 8 34 10 23 7 27 9 28 5 32 6 31 7 33 10 30 8 35 0 36 4 39 1 38 3 40 11 37 2 43 2 41 11 42 3 45 1 46 4 44 0</p>
                </polylist>
            </mesh>
        </geometry>
        <geometry id="mesh1">
            <mesh>
                <source id="points1">
                    <float_array id="pointarray1" count="144">-83.99999237060547 16.80000114440918 67.19999694824219 -67.19999694824219 0.000003999999989900971 67.19999694824219 -83.99999237060547 16.80000114440918 -67.19999694824219 -67.19999694824219 0.000003999999989900971 -67.19999694824219 -67.19999694824219 16.80000114440918 83.99999237060547 -67.19999694824219 151.1999969482422 83.99999237060547 -83.99999237060547 151.1999969482422 67.19999694824219 -83.99999237060547 151.1999969482422 -67.19999694824219 83.99999237060547 151.1999969482422 -67.19999694824219 83.99999237060547 16.80000114440918 -67.19999694824219 83.99999237060547 151.1999969482422 67.19999694824219 83.99999237060547 16.80000114440918 67.19999694824219 67.19999694824219 0.000003999999989900971 -67.19999694824219 67.19999694824219 0.000003999999989900971 67.19999694824219 -67.19999694824219 16.80000114440918 -83.99999237060547 67.19999694824219 16.80000114440918 -83.99999237060547 -67.19999694824219 151.1999969482422 -83.99999237060547 67.19999694824219 151.1999969482422 -83.99999237060547 -67.19999694824219 167.99998474121094 -67.19999694824219 67.19999694824219 167.99998474121094 -67.19999694824219 -67.19999694824219 167.99998474121094 67.19999694824219 67.19999694824219 167.99998474121094 67.19999694824219 67.19999694824219 151.1999969482422 83.99999237060547 67.19999694824219 16.80000114440918 83.99999237060547 67.19999694824219 -167.99998474121094 -67.19999694824219 67.19999694824219 -151.1999969482422 -83.99999237060547 -67.19999694824219 -167.99998474121094 -67.19999694824219 -67.19999694824219 -151.1999969482422 -83.99999237060547 -67.19999694824219 -16.80000114440918 -83.99999237060547 -83.99999237060547 -16.80000114440918 -67.19999694824219 -83.99999237060547 -151.1999969482422 -67.19999694824219 67.19999694824219 -16.80000114440918 -83.99999237060547 67.19999694824219 -0.000003999999989900971 -67.19999694824219 -67.19999694824219 -0.000003999999989900971 -67.19999694824219 83.99999237060547 -16.80000114440918 -67.19999694824219 83.99999237060547 -151.1999969482422 -67.19999694824219 -67.19999694824219 -0.000003999999989900971 67.19999694824219 -83.99999237060547 -16.80000114440918 67.19999694824219 67.19999694824219 -0.000003999999989900971 67.19999694824219 67.19999694824219 -16.80000114440918 83.99999237060547 -67.19999694824219 -16.80000114440918 83.99999237060547 83.99999237060547 -16.80000114440918 67.19999694824219 83.99999237060547 -151.1999969482422 67.19999694824219 67.19999694824219 -151.1999969482422 83.99999237060547 67.19999694824219 -167.99998474121094 67.19999694824219 -67.19999694824219 -167.99998474121094 67.19999694824219 -67.19999694824219 -151.1999969482422 83.99999237060547 -83.99999237060547 -151.1999969482422 67.19999694824219</float_array>
                    <technique_common>
                        <accessor count="48" source="#pointarray1" stride="3">
                            <param name="X" type="float"/>
                            <param name="Y" type="float"/>
                            <param name="Z" type="float"/>
                        </accessor>
                    </technique_common>
                </source>
                <source id="uvs1">
                    <float_array id="uvarray1" count="24">0 0.10003662109375 0.0999755859375 0.10003662109375 0 0.9000244140625 0.0999755859375 0.9000244140625 0.89996337890625 0.9000244140625 0.89996337890625 0.10003662109375 0.89996337890625 1 0.0999755859375 1 1 0.9000244140625 1 0.10003662109375 0.0999755859375 0 0.89996337890625 0</float_array>
                    <technique_common>
                        <accessor count="12" source="#uvarray1" stride="2">
                            <param name="S" type="float"/>
                            <param name="T" type="float"/>
                        </accessor>
                    </technique_common>
                </source>
                <vertices id="vertices1">
                    <input semantic="POSITION" source="#points1"/>
                </vertices>
                <polylist count="88" material="Material1">
                    <input offset="0" semantic="VERTEX" source="#vertices1"/>
                    <input offset="1" semantic="TEXCOORD" source="#uvs1" set="0"/>
                    <vcount>3 3 3 3 3 3 3 3 3 3 3 3 3 3 3 3 3 3 3 3 3 3 3 3 3 3 3 3 3 3 3 3 3 3 3 3 3 3 3 3 3 3 3 3 3 3 3 3 3 3 3 3 3 3 3 3 3 3 3 3 3 3 3 3 3 3 3 3 3 3 3 3 3 3 3 3 3 3 3 3 3 3 3 3 3 3 3 3</vcount>
                    <p>2 2 1 1 0 0 3 3 1 1 2 2 5 3 0 0 4 1 6 2 0 0 5 3 2 5 6 3 7 4 0 1 6 3 2 5 10 3 9 5 8 4 11 1 9 5 10 3 13 5 3 3 12 4 1 1 3 3 13 5 16 3 15 5 14 1 17 4 15 5 16 3 20 1 19 4 18 3 21 5 19 4 20 1 5 3 23 5 22 4 4 1 23 5 5 3 26 3 25 6 24 4 27 7 25 6 26 3 27 9 29 4 28 8 30 5 29 4 27 9 28 3 32 6 31 4 33 7 32 6 28 3 35 5 31 8 34 4 25 9 31 8 35 5 33 6 37 3 36 7 29 4 37 3 33 6 36 7 39 4 38 6 40 3 39 4 36 7 34 4 38 7 41 3 32 6 38 7 34 4 41 3 43 0 42 1 39 2 43 0 41 3 24 4 42 9 44 5 35 8 42 9 24 4 44 5 46 10 45 1 43 11 46 10 44 5 30 2 45 1 47 0 26 3 45 1 30 2 40 3 47 0 46 1 37 2 47 0 40 3 30 5 37 3 29 4 47 1 37 3 30 5 41 3 35 5 34 4 42 1 35 5 41 3 44 5 26 3 24 4 45 1 26 3 44 5 28 3 25 5 27 1 31 4 25 5 28 3 36 1 32 4 33 3 38 5 32 4 36 1 40 3 43 5 39 4 46 1 43 5 40 3 12 4 11 9 13 5 9 8 11 9 12 4 10 3 23 0 11 1 22 2 23 0 10 3 8 4 21 7 10 3 19 6 21 7 8 4 20 7 22 4 21 6 5 3 22 4 20 7 18 6 6 3 20 7 7 4 6 3 18 6 9 5 17 8 8 4 15 9 17 8 9 5 16 3 19 6 17 4 18 7 19 6 16 3 14 9 7 4 16 8 2 5 7 4 14 9 3 3 15 6 12 4 14 7 15 6 3 3 13 5 4 10 1 1 23 11 4 10 13 5 4 10 0 0 1 1 13 5 11 9 23 11 22 2 10 3 21 7 20 7 6 2 5 3 19 6 8 4 17 8 16 8 7 4 18 6 15 6 9 8 12 4 3 3 2 2 14 7 26 3 30 2 27 7 25 6 35 8 24 4 28 8 29 4 33 6 32 6 34 4 31 8 36 7 37 2 40 3 39 2 41 3 38 7 44 5 42 9 43 11 46 10 47 0 45 1</p>
                </polylist>
            </mesh>
        </geometry>
        <geometry id="mesh2">
            <mesh>
                <source id="points2">
                    <float_array id="pointarray2" count="12">83.99999237060547 0.00000762939453125 0 -83.99999237060547 0.00000762939453125 0 83.99999237060547 167.99999237060547 0 -83.99999237060547 167.99999237060547 0</float_array>
                    <technique_common>
                        <accessor count="4" source="#pointarray2" stride="3">
                            <param name="X" type="float"/>
                            <param name="Y" type="float"/>
                            <param name="Z" type="float"/>
                        </accessor>
                    </technique_common>
                </source>
                <source id="uvs2">
                    <float_array id="uvarray2" count="8">1 0 0 0 1 1 0 1</float_array>
                    <technique_common>
                        <accessor count="4" source="#uvarray2" stride="2">
                            <param name="S" type="float"/>
                            <param name="T" type="float"/>
                        </accessor>
                    </technique_common>
                </source>
                <vertices id="vertices2">
                    <input semantic="POSITION" source="#points2"/>
                </vertices>
                <polylist count="2" material="Material1">
                    <input offset="0" semantic="VERTEX" source="#vertices2"/>
                    <input offset="1" semantic="TEXCOORD" source="#uvs2" set="0"/>
                    <vcount>3 3</vcount>
                    <p>2 2 1 1 0 0 3 3 1 1 2 2</p>
                </polylist>
            </mesh>
        </geometry>
        <geometry id="mesh3">
            <mesh>
                <source id="points3">
                    <float_array id="pointarray3" count="12">83.99999237060547 -167.99999237060547 0 -83.99999237060547 -167.99999237060547 0 83.99999237060547 -0.00000762939453125 0 -83.99999237060547 -0.00000762939453125 0</float_array>
                    <technique_common>
                        <accessor count="4" source="#pointarray3" stride="3">
                            <param name="X" type="float"/>
                            <param name="Y" type="float"/>
                            <param name="Z" type="float"/>
                        </accessor>
                    </technique_common>
                </source>
                <source id="uvs3">
                    <float_array id="uvarray3" count="8">1 0 0 0 1 1 0 1</float_array>
                    <technique_common>
                        <accessor count="4" source="#uvarray3" stride="2">
                            <param name="S" type="float"/>
                            <param name="T" type="float"/>
                        </accessor>
                    </technique_common>
                </source>
                <vertices id="vertices3">
                    <input semantic="POSITION" source="#points3"/>
                </vertices>
                <polylist count="2" material="Material1">
                    <input offset="0" semantic="VERTEX" source="#vertices3"/>
                    <input offset="1" semantic="TEXCOORD" source="#uvs3" set="0"/>
                    <vcount>3 3</vcount>
                    <p>2 2 1 1 0 0 3 3 1 1 2 2</p>
                </polylist>
            </mesh>
        </geometry>
    </library_geometries>
    <library_controllers>
        <controller id="controller0">
            <skin source="#mesh0">
                <bind_shape_matrix>1 0 0 0 0 1 0 0 0 0 1 0 0 0 0 1</bind_shape_matrix>
                <source id="joints0">
                    <Name_array id="JointArr0" count="4">jointnode-1 jointnode0 jointnode1 jointnode2</Name_array>
                    <technique_common>
                        <accessor source="#JointArr0" count="4">
                            <param name="JOINT" type="Name" />
                        </accessor>
                    </technique_common>
                </source>
                <source id="matrices0">
                    <float_array id="MatArr0" count="64">1 0 0 0 0 1 0 0 0 0 1 0 0 0 0 1 1 0 0 0 0 1 0 0 0 0 1 0 0 0 0 1 1 0 0 0 0 1 0 -84 0 0 1 0 0 0 0 1 1 0 0 0 0 1 0 84 0 0 1 0 0 0 0 1</float_array>
                    <technique_common>
                        <accessor source="#MatArr0" count="4" stride="16">
                            <param type="float4x4" />
                        </accessor>
                    </technique_common>
                </source>
                <source id="weights0">
                    <float_array id="WeightArr0" count="1">1</float_array>
                    <technique_common>
                        <accessor source="#WeightArr0" count="1">
                            <param type="float" />
                        </accessor>
                    </technique_common>
                </source>
                <joints>
                    <input semantic="JOINT" source="#joints0" />
                    <input semantic="INV_BIND_MATRIX" source="#matrices0" />
                </joints>
                <vertex_weights count="48">
                    <input semantic="JOINT" offset="0" source="#joints0" />
                    <input semantic="WEIGHT" offset="1" source="#weights0" />
                    <vcount>1 1 1 1 1 1 1 1 1 1 1 1 1 1 1 1 1 1 1 1 1 1 1 1 1 1 1 1 1 1 1 1 1 1 1 1 1 1 1 1 1 1 1 1 1 1 1 1</vcount>
                    <v>1 0 1 0 1 0 1 0 1 0 1 0 1 0 1 0 1 0 1 0 1 0 1 0 1 0 1 0 1 0 1 0 1 0 1 0 1 0 1 0 1 0 1 0 1 0 1 0 1 0 1 0 1 0 1 0 1 0 1 0 1 0 1 0 1 0 1 0 1 0 1 0 1 0 1 0 1 0 1 0 1 0 1 0 1 0 1 0 1 0 1 0 1 0 1 0</v>
                </vertex_weights>
            </skin>
        </controller>
        <controller id="controller1">
            <skin source="#mesh1">
                <bind_shape_matrix>1 0 0 0 0 1 0 0 0 0 1 0 0 0 0 1</bind_shape_matrix>
                <source id="joints1">
                    <Name_array id="JointArr1" count="4">jointnode-1 jointnode0 jointnode1 jointnode2</Name_array>
                    <technique_common>
                        <accessor source="#JointArr1" count="4">
                            <param name="JOINT" type="Name" />
                        </accessor>
                    </technique_common>
                </source>
                <source id="matrices1">
                    <float_array id="MatArr1" count="64">1 0 0 0 0 1 0 0 0 0 1 0 0 0 0 1 1 0 0 0 0 1 0 0 0 0 1 0 0 0 0 1 1 0 0 0 0 1 0 -84 0 0 1 0 0 0 0 1 1 0 0 0 0 1 0 84 0 0 1 0 0 0 0 1</float_array>
                    <technique_common>
                        <accessor source="#MatArr1" count="4" stride="16">
                            <param type="float4x4" />
                        </accessor>
                    </technique_common>
                </source>
                <source id="weights1">
                    <float_array id="WeightArr1" count="1">1</float_array>
                    <technique_common>
                        <accessor source="#WeightArr1" count="1">
                            <param type="float" />
                        </accessor>
                    </technique_common>
                </source>
                <joints>
                    <input semantic="JOINT" source="#joints1" />
                    <input semantic="INV_BIND_MATRIX" source="#matrices1" />
                </joints>
                <vertex_weights count="48">
                    <input semantic="JOINT" offset="0" source="#joints1" />
                    <input semantic="WEIGHT" offset="1" source="#weights1" />
                    <vcount>1 1 1 1 1 1 1 1 1 1 1 1 1 1 1 1 1 1 1 1 1 1 1 1 1 1 1 1 1 1 1 1 1 1 1 1 1 1 1 1 1 1 1 1 1 1 1 1</vcount>
                    <v>1 0 1 0 1 0 1 0 1 0 1 0 1 0 1 0 1 0 1 0 1 0 1 0 1 0 1 0 1 0 1 0 1 0 1 0 1 0 1 0 1 0 1 0 1 0 1 0 1 0 1 0 1 0 1 0 1 0 1 0 1 0 1 0 1 0 1 0 1 0 1 0 1 0 1 0 1 0 1 0 1 0 1 0 1 0 1 0 1 0 1 0 1 0 1 0</v>
                </vertex_weights>
            </skin>
        </controller>
        <controller id="controller2">
            <skin source="#mesh2">
                <bind_shape_matrix>1 0 0 0 0 1 0 0 0 0 1 0 0 0 0 1</bind_shape_matrix>
                <source id="joints2">
                    <Name_array id="JointArr2" count="4">jointnode-1 jointnode0 jointnode1 jointnode2</Name_array>
                    <technique_common>
                        <accessor source="#JointArr2" count="4">
                            <param name="JOINT" type="Name" />
                        </accessor>
                    </technique_common>
                </source>
                <source id="matrices2">
                    <float_array id="MatArr2" count="64">1 0 0 0 0 1 0 0 0 0 1 0 0 0 0 1 1 0 0 0 0 1 0 0 0 0 1 0 0 0 0 1 1 0 0 0 0 1 0 -84 0 0 1 0 0 0 0 1 1 0 0 0 0 1 0 84 0 0 1 0 0 0 0 1</float_array>
                    <technique_common>
                        <accessor source="#MatArr2" count="4" stride="16">
                            <param type="float4x4" />
                        </accessor>
                    </technique_common>
                </source>
                <source id="weights2">
                    <float_array id="WeightArr2" count="1">1</float_array>
                    <technique_common>
                        <accessor source="#WeightArr2" count="1">
                            <param type="float" />
                        </accessor>
                    </technique_common>
                </source>
                <joints>
                    <input semantic="JOINT" source="#joints2" />
                    <input semantic="INV_BIND_MATRIX" source="#matrices2" />
                </joints>
                <vertex_weights count="4">
                    <input semantic="JOINT" offset="0" source="#joints2" />
                    <input semantic="WEIGHT" offset="1" source="#weights2" />
                    <vcount>1 1 1 1</vcount>
                    <v>2 0 2 0 2 0 2 0</v>
                </vertex_weights>
            </skin>
        </controller>
        <controller id="controller3">
            <skin source="#mesh3">
                <bind_shape_matrix>1 0 0 0 0 1 0 0 0 0 1 0 0 0 0 1</bind_shape_matrix>
                <source id="joints3">
                    <Name_array id="JointArr3" count="4">jointnode-1 jointnode0 jointnode1 jointnode2</Name_array>
                    <technique_common>
                        <accessor source="#JointArr3" count="4">
                            <param name="JOINT" type="Name" />
                        </accessor>
                    </technique_common>
                </source>
                <source id="matrices3">
                    <float_array id="MatArr3" count="64">1 0 0 0 0 1 0 0 0 0 1 0 0 0 0 1 1 0 0 0 0 1 0 0 0 0 1 0 0 0 0 1 1 0 0 0 0 1 0 -84 0 0 1 0 0 0 0 1 1 0 0 0 0 1 0 84 0 0 1 0 0 0 0 1</float_array>
                    <technique_common>
                        <accessor source="#MatArr3" count="4" stride="16">
                            <param type="float4x4" />
                        </accessor>
                    </technique_common>
                </source>
                <source id="weights3">
                    <float_array id="WeightArr3" count="1">1</float_array>
                    <technique_common>
                        <accessor source="#WeightArr3" count="1">
                            <param type="float" />
                        </accessor>
                    </technique_common>
                </source>
                <joints>
                    <input semantic="JOINT" source="#joints3" />
                    <input semantic="INV_BIND_MATRIX" source="#matrices3" />
                </joints>
                <vertex_weights count="4">
                    <input semantic="JOINT" offset="0" source="#joints3" />
                    <input semantic="WEIGHT" offset="1" source="#weights3" />
                    <vcount>1 1 1 1</vcount>
                    <v>3 0 3 0 3 0 3 0</v>
                </vertex_weights>
            </skin>
        </controller>
    </library_controllers>
    <library_visual_scenes>
        <visual_scene id="VisualSceneNode">
            <node id="node0" name="m0" type="NODE">
                <instance_controller url="#controller0">
                    <skeleton>#jointnode-1</skeleton>
                    <bind_material>
                        <technique_common>
                            <instance_material symbol="Material1" target="#mat1">
                                <bind_vertex_input semantic="UVSET0" input_semantic="TEXCOORD" input_set="0"></bind_vertex_input>
                            </instance_material>
                        </technique_common>
                    </bind_material>
                </instance_controller>
            </node>
            <node id="node1" name="m1" type="NODE">
                <instance_controller url="#controller1">
                    <skeleton>#jointnode-1</skeleton>
                    <bind_material>
                        <technique_common>
                            <instance_material symbol="Material1" target="#mat0">
                                <bind_vertex_input semantic="UVSET0" input_semantic="TEXCOORD" input_set="0"></bind_vertex_input>
                            </instance_material>
                        </technique_common>
                    </bind_material>
                </instance_controller>
            </node>
            <node id="node2" name="m2" type="NODE">
                <instance_controller url="#controller2">
                    <skeleton>#jointnode-1</skeleton>
                    <bind_material>
                        <technique_common>
                            <instance_material symbol="Material1" target="#mat2">
                                <bind_vertex_input semantic="UVSET0" input_semantic="TEXCOORD" input_set="0"></bind_vertex_input>
                            </instance_material>
                        </technique_common>
                    </bind_material>
                </instance_controller>
            </node>
            <node id="node3" name="m3" type="NODE">
                <instance_controller url="#controller3">
                    <skeleton>#jointnode-1</skeleton>
                    <bind_material>
                        <technique_common>
                            <instance_material symbol="Material1" target="#mat3">
                                <bind_vertex_input semantic="UVSET0" input_semantic="TEXCOORD" input_set="0"></bind_vertex_input>
                            </instance_material>
                        </technique_common>
                    </bind_material>
                </instance_controller>
            </node>
            <node id="jointnode-1" name="root" sid="jointnode-1" type="JOINT">
                <node id="jointnode0" name="polySurface3" sid="jointnode0" type="JOINT">
                    <node id="jointnode1" name="pPlane1" sid="jointnode1" type="JOINT">
                        <translate>0 84 0</translate>
                    </node>
                    <node id="jointnode2" name="pPlane2" sid="jointnode2" type="JOINT">
                        <translate>0 -84 0</translate>
                    </node>
                </node>
            </node>
        </visual_scene>
    </library_visual_scenes>
    <scene>
        <instance_visual_scene url="#VisualSceneNode"></instance_visual_scene>
    </scene>
</COLLADA>
