<?xml version="1.0"?>
<COLLADA xmlns="http://www.collada.org/2005/11/COLLADASchema" version="1.4.1">
    <asset>
        <contributor>
            <authoring_tool>J3D Ripoff Exporter</authoring_tool>
        </contributor>
        <created>2024-10-08T04:41:32.034Z</created>
        <modified>2024-10-08T04:41:32.034Z</modified>
		<unit meter="0.01" name="centimeter" ></unit>
        <up_axis>Y_UP</up_axis>
    </asset>
    <library_images>
        <image id="tex0">
            <init_from>mk_mizutama1.png</init_from>
        </image>
        <image id="tex1">
            <init_from>mk_ind_checker3.png</init_from>
        </image>
        <image id="tex2">
            <init_from>mk_spectrum1.png</init_from>
        </image>
        <image id="tex3">
            <init_from>mk_bomb.png</init_from>
        </image>
    </library_images>
    <library_effects>
        <effect id="effect0">
            <profile_COMMON>
                <newparam sid="surface0">
                    <surface type="2D">
                        <init_from>tex2</init_from>
                    </surface>
                </newparam>
                <newparam sid="sampler0">
                    <sampler2D>
                        <source>surface0</source>
                    </sampler2D>
                </newparam>
                <technique sid="COMMON">
                    <blinn>
                        <diffuse>
                            <texture texture="sampler0" texcoord="UVSET0"></texture>
                        </diffuse>
                    </blinn>
                </technique>
            </profile_COMMON>
        </effect>
        <effect id="effect1">
            <profile_COMMON>
                <newparam sid="surface1">
                    <surface type="2D">
                        <init_from>tex0</init_from>
                    </surface>
                </newparam>
                <newparam sid="sampler1">
                    <sampler2D>
                        <source>surface1</source>
                    </sampler2D>
                </newparam>
                <technique sid="COMMON">
                    <blinn>
                        <diffuse>
                            <texture texture="sampler1" texcoord="UVSET0"></texture>
                        </diffuse>
                    </blinn>
                </technique>
            </profile_COMMON>
        </effect>
        <effect id="effect2">
            <profile_COMMON>
                <newparam sid="surface2">
                    <surface type="2D">
                        <init_from>tex3</init_from>
                    </surface>
                </newparam>
                <newparam sid="sampler2">
                    <sampler2D>
                        <source>surface2</source>
                    </sampler2D>
                </newparam>
                <technique sid="COMMON">
                    <blinn>
                        <diffuse>
                            <texture texture="sampler2" texcoord="UVSET0"></texture>
                        </diffuse>
                    </blinn>
                </technique>
            </profile_COMMON>
        </effect>
    </library_effects>
    <library_materials>
        <material id="mat0" name="mat_boxin">
            <instance_effect url="#effect0"></instance_effect>
        </material>
        <material id="mat1" name="mat_boxout">
            <instance_effect url="#effect1"></instance_effect>
        </material>
        <material id="mat2" name="mat_question">
            <instance_effect url="#effect2"></instance_effect>
        </material>
    </library_materials>
    <library_geometries>
        <geometry id="mesh0">
            <mesh>
                <source id="points0">
                    <float_array id="pointarray0" count="72">-67.19999694824219 -83.99999237060547 67.19999694824219 -67.19999694824219 -67.19999694824219 83.99999237060547 67.19999694824219 -83.99999237060547 67.19999694824219 67.19999694824219 -67.19999694824219 83.99999237060547 -83.99999237060547 -67.19999694824219 67.19999694824219 -83.99999237060547 -67.19999694824219 -67.19999694824219 -67.19999694824219 -83.99999237060547 -67.19999694824219 -67.19999694824219 67.19999694824219 83.99999237060547 -83.99999237060547 67.19999694824219 67.19999694824219 -83.99999237060547 67.19999694824219 -67.19999694824219 83.99999237060547 67.19999694824219 -67.19999694824219 83.99999237060547 -67.19999694824219 -67.19999694824219 83.99999237060547 67.19999694824219 67.19999694824219 83.99999237060547 -67.19999694824219 67.19999694824219 67.19999694824219 -83.99999237060547 -67.19999694824219 -67.19999694824219 -67.19999694824219 -83.99999237060547 67.19999694824219 -67.19999694824219 -83.99999237060547 -67.19999694824219 67.19999694824219 -83.99999237060547 67.19999694824219 67.19999694824219 -83.99999237060547 -67.19999694824219 83.99999237060547 -67.19999694824219 67.19999694824219 83.99999237060547 -67.19999694824219 -67.19999694824219 83.99999237060547 67.19999694824219 67.19999694824219 83.99999237060547 67.19999694824219 67.19999694824219 67.19999694824219 83.99999237060547</float_array>
                    <technique_common>
                        <accessor count="24" source="#pointarray0" stride="3">
                            <param name="X" type="float"/>
                            <param name="Y" type="float"/>
                            <param name="Z" type="float"/>
                        </accessor>
                    </technique_common>
                </source>
                <source id="uvs0">
                    <float_array id="uvarray0" count="24">0.0999755859375 0.10003662109375 0.0999755859375 0 0.89996337890625 0.10003662109375 0.89996337890625 0 0 0.10003662109375 0 0.9000244140625 0.0999755859375 0.9000244140625 0.89996337890625 0.9000244140625 0.89996337890625 1 0.0999755859375 1 1 0.9000244140625 1 0.10003662109375</float_array>
                    <technique_common>
                        <accessor count="12" source="#uvarray0" stride="2">
                            <param name="S" type="float"/>
                            <param name="T" type="float"/>
                        </accessor>
                    </technique_common>
                </source>
                <vertices id="vertices0">
                    <input semantic="POSITION" source="#points0"/>
                </vertices>
                <polylist count="44" material="Material1">
                    <input offset="0" semantic="VERTEX" source="#vertices0"/>
                    <input offset="1" semantic="TEXCOORD" source="#uvs0" set="0"/>
                    <vcount>3 3 3 3 3 3 3 3 3 3 3 3 3 3 3 3 3 3 3 3 3 3 3 3 3 3 3 3 3 3 3 3 3 3 3 3 3 3 3 3 3 3 3 3</vcount>
                    <p>2 2 1 1 0 0 3 3 1 1 2 2 5 5 0 0 4 4 6 6 0 0 5 5 7 6 4 4 1 0 8 5 4 4 7 6 5 2 8 6 9 7 4 0 8 6 5 2 12 6 11 2 10 7 13 0 11 2 12 6 2 2 6 6 14 7 0 0 6 6 2 2 17 6 16 2 15 0 18 7 16 2 17 6 21 0 20 7 19 6 22 2 20 7 21 0 7 6 3 2 23 7 1 0 3 2 7 6 6 6 16 8 14 7 15 9 16 8 6 6 15 11 9 7 17 10 5 2 9 7 15 11 17 6 20 8 18 7 19 9 20 8 17 6 11 2 18 10 10 7 16 11 18 10 11 2 19 8 8 6 21 9 9 7 8 6 19 8 21 9 23 7 22 8 7 6 23 7 21 9 10 7 22 9 12 6 20 8 22 9 10 7 12 6 3 4 13 0 23 5 3 4 12 6 14 7 13 11 2 2 11 10 13 11 14 7 1 1 4 4 0 0 2 2 13 11 3 3 23 5 12 6 22 9 21 9 8 5 7 6 20 8 10 7 18 10 17 10 9 7 19 8 16 8 11 10 14 7 6 6 5 5 15 9</p>
                </polylist>
            </mesh>
        </geometry>
        <geometry id="mesh1">
            <mesh>
                <source id="points1">
                    <float_array id="pointarray1" count="72">-67.19999694824219 -83.99999237060547 67.19999694824219 -67.19999694824219 -67.19999694824219 83.99999237060547 67.19999694824219 -83.99999237060547 67.19999694824219 67.19999694824219 -67.19999694824219 83.99999237060547 -83.99999237060547 -67.19999694824219 67.19999694824219 -83.99999237060547 -67.19999694824219 -67.19999694824219 -67.19999694824219 -83.99999237060547 -67.19999694824219 -67.19999694824219 67.19999694824219 83.99999237060547 -83.99999237060547 67.19999694824219 67.19999694824219 -83.99999237060547 67.19999694824219 -67.19999694824219 83.99999237060547 67.19999694824219 -67.19999694824219 83.99999237060547 -67.19999694824219 -67.19999694824219 83.99999237060547 67.19999694824219 67.19999694824219 83.99999237060547 -67.19999694824219 67.19999694824219 67.19999694824219 -83.99999237060547 -67.19999694824219 -67.19999694824219 -67.19999694824219 -83.99999237060547 67.19999694824219 -67.19999694824219 -83.99999237060547 -67.19999694824219 67.19999694824219 -83.99999237060547 67.19999694824219 67.19999694824219 -83.99999237060547 -67.19999694824219 83.99999237060547 -67.19999694824219 67.19999694824219 83.99999237060547 -67.19999694824219 -67.19999694824219 83.99999237060547 67.19999694824219 67.19999694824219 83.99999237060547 67.19999694824219 67.19999694824219 67.19999694824219 83.99999237060547</float_array>
                    <technique_common>
                        <accessor count="24" source="#pointarray1" stride="3">
                            <param name="X" type="float"/>
                            <param name="Y" type="float"/>
                            <param name="Z" type="float"/>
                        </accessor>
                    </technique_common>
                </source>
                <source id="uvs1">
                    <float_array id="uvarray1" count="24">0.0999755859375 0.10003662109375 0.0999755859375 0 0.89996337890625 0.10003662109375 0.89996337890625 0 0 0.10003662109375 0 0.9000244140625 0.0999755859375 0.9000244140625 0.89996337890625 0.9000244140625 0.89996337890625 1 0.0999755859375 1 1 0.9000244140625 1 0.10003662109375</float_array>
                    <technique_common>
                        <accessor count="12" source="#uvarray1" stride="2">
                            <param name="S" type="float"/>
                            <param name="T" type="float"/>
                        </accessor>
                    </technique_common>
                </source>
                <vertices id="vertices1">
                    <input semantic="POSITION" source="#points1"/>
                </vertices>
                <polylist count="44" material="Material1">
                    <input offset="0" semantic="VERTEX" source="#vertices1"/>
                    <input offset="1" semantic="TEXCOORD" source="#uvs1" set="0"/>
                    <vcount>3 3 3 3 3 3 3 3 3 3 3 3 3 3 3 3 3 3 3 3 3 3 3 3 3 3 3 3 3 3 3 3 3 3 3 3 3 3 3 3 3 3 3 3</vcount>
                    <p>2 2 1 1 0 0 3 3 1 1 2 2 5 5 0 0 4 4 6 6 0 0 5 5 7 6 4 4 1 0 8 5 4 4 7 6 5 2 8 6 9 7 4 0 8 6 5 2 12 6 11 2 10 7 13 0 11 2 12 6 2 2 6 6 14 7 0 0 6 6 2 2 17 6 16 2 15 0 18 7 16 2 17 6 21 0 20 7 19 6 22 2 20 7 21 0 7 6 3 2 23 7 1 0 3 2 7 6 6 6 16 8 14 7 15 9 16 8 6 6 15 11 9 7 17 10 5 2 9 7 15 11 17 9 20 7 18 8 19 6 20 7 17 9 11 11 18 7 10 10 16 2 18 7 11 11 19 6 8 4 21 0 9 5 8 4 19 6 21 0 23 3 22 2 7 1 23 3 21 0 10 10 22 2 12 11 20 7 22 2 10 10 12 10 3 2 13 11 23 7 3 2 12 10 14 7 13 11 2 2 11 10 13 11 14 7 1 1 4 4 0 0 2 2 13 11 3 3 23 3 12 11 22 2 21 0 8 4 7 1 20 7 10 10 18 8 17 9 9 5 19 6 16 8 11 10 14 7 6 6 5 5 15 9</p>
                </polylist>
            </mesh>
        </geometry>
        <geometry id="mesh2">
            <mesh>
                <source id="points2">
                    <float_array id="pointarray2" count="12">83.99999237060547 -83.99999237060547 0 -83.99999237060547 -83.99999237060547 0 83.99999237060547 83.99999237060547 0 -83.99999237060547 83.99999237060547 0</float_array>
                    <technique_common>
                        <accessor count="4" source="#pointarray2" stride="3">
                            <param name="X" type="float"/>
                            <param name="Y" type="float"/>
                            <param name="Z" type="float"/>
                        </accessor>
                    </technique_common>
                </source>
                <source id="uvs2">
                    <float_array id="uvarray2" count="8">1 0 0 0 1 1 0 1</float_array>
                    <technique_common>
                        <accessor count="4" source="#uvarray2" stride="2">
                            <param name="S" type="float"/>
                            <param name="T" type="float"/>
                        </accessor>
                    </technique_common>
                </source>
                <vertices id="vertices2">
                    <input semantic="POSITION" source="#points2"/>
                </vertices>
                <polylist count="2" material="Material1">
                    <input offset="0" semantic="VERTEX" source="#vertices2"/>
                    <input offset="1" semantic="TEXCOORD" source="#uvs2" set="0"/>
                    <vcount>3 3</vcount>
                    <p>2 2 1 1 0 0 3 3 1 1 2 2</p>
                </polylist>
            </mesh>
        </geometry>
    </library_geometries>
    <library_controllers>
        <controller id="controller0">
            <skin source="#mesh0">
                <bind_shape_matrix>1 0 0 0 0 1 0 0 0 0 1 0 0 0 0 1</bind_shape_matrix>
                <source id="joints0">
                    <Name_array id="JointArr0" count="3">jointnode-1 jointnode0 jointnode1</Name_array>
                    <technique_common>
                        <accessor source="#JointArr0" count="3">
                            <param name="JOINT" type="Name" />
                        </accessor>
                    </technique_common>
                </source>
                <source id="matrices0">
                    <float_array id="MatArr0" count="48">1 0 0 0 0 1 0 0 0 0 1 0 0 0 0 1 1 0 0 0 0 1 0 0 0 0 1 0 0 0 0 1 1 0 0 0 0 1 0 0 0 0 1 0 0 0 0 1</float_array>
                    <technique_common>
                        <accessor source="#MatArr0" count="3" stride="16">
                            <param type="float4x4" />
                        </accessor>
                    </technique_common>
                </source>
                <source id="weights0">
                    <float_array id="WeightArr0" count="1">1</float_array>
                    <technique_common>
                        <accessor source="#WeightArr0" count="1">
                            <param type="float" />
                        </accessor>
                    </technique_common>
                </source>
                <joints>
                    <input semantic="JOINT" source="#joints0" />
                    <input semantic="INV_BIND_MATRIX" source="#matrices0" />
                </joints>
                <vertex_weights count="24">
                    <input semantic="JOINT" offset="0" source="#joints0" />
                    <input semantic="WEIGHT" offset="1" source="#weights0" />
                    <vcount>1 1 1 1 1 1 1 1 1 1 1 1 1 1 1 1 1 1 1 1 1 1 1 1</vcount>
                    <v>1 0 1 0 1 0 1 0 1 0 1 0 1 0 1 0 1 0 1 0 1 0 1 0 1 0 1 0 1 0 1 0 1 0 1 0 1 0 1 0 1 0 1 0 1 0 1 0</v>
                </vertex_weights>
            </skin>
        </controller>
        <controller id="controller1">
            <skin source="#mesh1">
                <bind_shape_matrix>1 0 0 0 0 1 0 0 0 0 1 0 0 0 0 1</bind_shape_matrix>
                <source id="joints1">
                    <Name_array id="JointArr1" count="3">jointnode-1 jointnode0 jointnode1</Name_array>
                    <technique_common>
                        <accessor source="#JointArr1" count="3">
                            <param name="JOINT" type="Name" />
                        </accessor>
                    </technique_common>
                </source>
                <source id="matrices1">
                    <float_array id="MatArr1" count="48">1 0 0 0 0 1 0 0 0 0 1 0 0 0 0 1 1 0 0 0 0 1 0 0 0 0 1 0 0 0 0 1 1 0 0 0 0 1 0 0 0 0 1 0 0 0 0 1</float_array>
                    <technique_common>
                        <accessor source="#MatArr1" count="3" stride="16">
                            <param type="float4x4" />
                        </accessor>
                    </technique_common>
                </source>
                <source id="weights1">
                    <float_array id="WeightArr1" count="1">1</float_array>
                    <technique_common>
                        <accessor source="#WeightArr1" count="1">
                            <param type="float" />
                        </accessor>
                    </technique_common>
                </source>
                <joints>
                    <input semantic="JOINT" source="#joints1" />
                    <input semantic="INV_BIND_MATRIX" source="#matrices1" />
                </joints>
                <vertex_weights count="24">
                    <input semantic="JOINT" offset="0" source="#joints1" />
                    <input semantic="WEIGHT" offset="1" source="#weights1" />
                    <vcount>1 1 1 1 1 1 1 1 1 1 1 1 1 1 1 1 1 1 1 1 1 1 1 1</vcount>
                    <v>1 0 1 0 1 0 1 0 1 0 1 0 1 0 1 0 1 0 1 0 1 0 1 0 1 0 1 0 1 0 1 0 1 0 1 0 1 0 1 0 1 0 1 0 1 0 1 0</v>
                </vertex_weights>
            </skin>
        </controller>
        <controller id="controller2">
            <skin source="#mesh2">
                <bind_shape_matrix>1 0 0 0 0 1 0 0 0 0 1 0 0 0 0 1</bind_shape_matrix>
                <source id="joints2">
                    <Name_array id="JointArr2" count="3">jointnode-1 jointnode0 jointnode1</Name_array>
                    <technique_common>
                        <accessor source="#JointArr2" count="3">
                            <param name="JOINT" type="Name" />
                        </accessor>
                    </technique_common>
                </source>
                <source id="matrices2">
                    <float_array id="MatArr2" count="48">1 0 0 0 0 1 0 0 0 0 1 0 0 0 0 1 1 0 0 0 0 1 0 0 0 0 1 0 0 0 0 1 1 0 0 0 0 1 0 0 0 0 1 0 0 0 0 1</float_array>
                    <technique_common>
                        <accessor source="#MatArr2" count="3" stride="16">
                            <param type="float4x4" />
                        </accessor>
                    </technique_common>
                </source>
                <source id="weights2">
                    <float_array id="WeightArr2" count="1">1</float_array>
                    <technique_common>
                        <accessor source="#WeightArr2" count="1">
                            <param type="float" />
                        </accessor>
                    </technique_common>
                </source>
                <joints>
                    <input semantic="JOINT" source="#joints2" />
                    <input semantic="INV_BIND_MATRIX" source="#matrices2" />
                </joints>
                <vertex_weights count="4">
                    <input semantic="JOINT" offset="0" source="#joints2" />
                    <input semantic="WEIGHT" offset="1" source="#weights2" />
                    <vcount>1 1 1 1</vcount>
                    <v>2 0 2 0 2 0 2 0</v>
                </vertex_weights>
            </skin>
        </controller>
    </library_controllers>
    <library_visual_scenes>
        <visual_scene id="VisualSceneNode">
            <node id="node0" name="m0" type="NODE">
                <instance_controller url="#controller0">
                    <skeleton>#jointnode-1</skeleton>
                    <bind_material>
                        <technique_common>
                            <instance_material symbol="Material1" target="#mat0">
                                <bind_vertex_input semantic="UVSET0" input_semantic="TEXCOORD" input_set="0"></bind_vertex_input>
                            </instance_material>
                        </technique_common>
                    </bind_material>
                </instance_controller>
            </node>
            <node id="node1" name="m1" type="NODE">
                <instance_controller url="#controller1">
                    <skeleton>#jointnode-1</skeleton>
                    <bind_material>
                        <technique_common>
                            <instance_material symbol="Material1" target="#mat1">
                                <bind_vertex_input semantic="UVSET0" input_semantic="TEXCOORD" input_set="0"></bind_vertex_input>
                            </instance_material>
                        </technique_common>
                    </bind_material>
                </instance_controller>
            </node>
            <node id="node2" name="m2" type="NODE">
                <instance_controller url="#controller2">
                    <skeleton>#jointnode-1</skeleton>
                    <bind_material>
                        <technique_common>
                            <instance_material symbol="Material1" target="#mat2">
                                <bind_vertex_input semantic="UVSET0" input_semantic="TEXCOORD" input_set="0"></bind_vertex_input>
                            </instance_material>
                        </technique_common>
                    </bind_material>
                </instance_controller>
            </node>
            <node id="jointnode-1" name="root" sid="jointnode-1" type="JOINT">
                <node id="jointnode0" name="polySurface1" sid="jointnode0" type="JOINT">
                    <node id="jointnode1" name="pPlane1" sid="jointnode1" type="JOINT">
                    </node>
                </node>
            </node>
        </visual_scene>
    </library_visual_scenes>
    <scene>
        <instance_visual_scene url="#VisualSceneNode"></instance_visual_scene>
    </scene>
</COLLADA>
